<svg width="616" height="370" fill="none" xmlns="http://www.w3.org/2000/svg"><path d="M368.52 185c0 101.685-82.432 184.103-184.113 184.103C82.727 369.103.305 286.681.305 185 .305 83.325 82.727.897 184.407.897 286.086.897 368.52 83.33 368.52 185Z" fill="#D9222A"/><path d="M431.582.894c-47.568 0-90.916 18.047-123.589 47.658a187.063 187.063 0 0 0-18.59 19.483H326.6a186.85 186.85 0 0 1 14.036 19.5h-65.267a183.629 183.629 0 0 0-10.607 19.495h86.475a184.027 184.027 0 0 1 7.796 19.491H256.968a181.825 181.825 0 0 0-5.351 19.496h112.759a185.013 185.013 0 0 1 4.146 38.982c0 20.446-3.338 40.115-9.491 58.483H256.966a181.63 181.63 0 0 0 7.791 19.496h86.478a184.202 184.202 0 0 1-10.613 19.5h-65.256a185.61 185.61 0 0 0 14.036 19.483h37.189a184.014 184.014 0 0 1-18.595 19.501c32.674 29.606 76.017 47.645 123.589 47.645 101.681 0 184.113-82.422 184.113-184.103C615.698 83.334 533.266.902 431.585.902" fill="#EE9F2D"/><path d="M591.152 287.625a5.948 5.948 0 0 1 5.945-5.949 5.947 5.947 0 0 1 5.944 5.949 5.948 5.948 0 0 1-5.944 5.95 5.95 5.95 0 0 1-5.945-5.95Zm5.945 4.521a4.518 4.518 0 0 0 .006-9.038h-.006a4.512 4.512 0 0 0-4.517 4.504v.014a4.516 4.516 0 0 0 4.513 4.521l.004-.001Zm-.803-1.907h-1.218v-5.227h2.204c.462 0 .932 0 1.339.26.423.287.662.791.662 1.312a1.43 1.43 0 0 1-.906 1.346l.962 2.308h-1.349l-.799-2.069h-.893l-.002 2.07Zm0-2.964h.675c.252 0 .517.021.744-.103.2-.128.304-.368.304-.599a.654.654 0 0 0-.296-.531c-.212-.133-.549-.104-.777-.104h-.65v1.337Zm-454.872-82.116c-2.099-.244-3.021-.309-4.462-.309-11.329 0-17.064 3.884-17.064 11.557 0 4.729 2.799 7.738 7.166 7.738 8.142 0 14.009-7.753 14.36-18.986Zm14.534 33.842h-16.56l.381-7.873c-5.053 6.22-11.791 9.178-20.95 9.178-10.834 0-18.261-8.461-18.261-20.747 0-18.487 12.919-29.273 35.095-29.273 2.264 0 5.171.204 8.144.584.62-2.503.783-3.577.783-4.924 0-5.034-3.483-6.909-12.82-6.909-9.778-.111-17.843 2.329-21.154 3.418.209-1.26 2.769-17.086 2.769-17.086 9.961-2.919 16.529-4.018 23.923-4.018 17.161 0 26.252 7.706 26.235 22.269.034 3.903-.612 8.718-1.62 15.047-1.734 11.01-5.456 34.586-5.965 40.334Zm-63.752 0H72.218l11.448-71.792-25.564 71.792h-13.62l-1.684-71.382-12.034 71.382h-18.71l15.628-93.391h28.74l1.744 52.275 17.53-52.275h31.966l-15.458 93.391Zm364.072-33.842c-2.089-.244-3.016-.309-4.453-.309-11.324 0-17.061 3.884-17.061 11.557 0 4.729 2.796 7.738 7.162 7.738 8.144 0 14.015-7.753 14.352-18.986Zm14.548 33.842h-16.56l.375-7.873c-5.052 6.22-11.795 9.178-20.945 9.178-10.836 0-18.257-8.461-18.257-20.747 0-18.487 12.911-29.273 35.091-29.273 2.264 0 5.166.204 8.137.584.619-2.503.783-3.577.783-4.924 0-5.034-3.479-6.909-12.817-6.909-9.777-.111-17.833 2.329-21.158 3.418.209-1.26 2.779-17.086 2.779-17.086 9.961-2.919 16.525-4.018 23.91-4.018 17.17 0 26.261 7.706 26.244 22.269.032 3.903-.613 8.718-1.62 15.047-1.727 11.01-5.457 34.586-5.962 40.334Zm-226.041-1.154c-5.47 1.722-9.734 2.459-14.359 2.459-10.218 0-15.794-5.871-15.794-16.684-.146-3.355 1.47-12.184 2.74-20.243 1.153-7.094 8.665-51.824 8.665-51.824h19.868l-2.321 11.495h11.999l-2.71 18.252h-12.043c-2.308 14.444-5.594 32.436-5.632 34.821 0 3.914 2.089 5.623 6.842 5.623 2.278 0 4.041-.233 5.389-.718l-2.644 16.819Zm60.915-.616c-6.825 2.087-13.411 3.095-20.389 3.077-22.24-.021-33.833-11.637-33.833-33.879 0-25.962 14.749-45.073 34.768-45.073 16.381 0 26.842 10.7 26.842 27.483 0 5.568-.717 11.004-2.449 18.679h-39.563c-1.338 11.016 5.713 15.607 17.269 15.607 7.113 0 13.526-1.466 20.658-4.783l-3.303 18.889Zm-11.167-45.025c.109-1.583 2.107-13.556-9.245-13.556-6.329 0-10.854 4.825-12.697 13.556h21.942Zm-126.585-5.146c0 9.607 4.658 16.232 15.223 21.206 8.094 3.804 9.345 4.934 9.345 8.38 0 4.735-3.568 6.873-11.478 6.873-5.962 0-11.508-.932-17.905-2.997 0 0-2.629 16.739-2.749 17.54 4.543.992 8.595 1.909 20.799 2.246 21.09 0 30.83-8.029 30.83-25.384 0-10.436-4.078-16.56-14.09-21.163-8.38-3.846-9.341-4.705-9.341-8.252 0-4.106 3.32-6.201 9.781-6.201 3.923 0 9.282.419 14.359 1.141l2.846-17.615c-5.175-.821-13.021-1.479-17.589-1.479-22.36.001-30.1 11.68-30.031 25.705Zm234.964-23.709c5.551 0 10.726 1.458 17.859 5.048l3.269-20.27c-2.927-1.15-13.235-7.898-21.966-7.898-13.375 0-24.682 6.637-32.636 17.59-11.599-3.842-16.367 3.923-22.212 11.659l-5.193 1.209c.393-2.547.748-5.077.628-7.637h-18.355c-2.508 23.505-6.952 47.311-10.432 70.846l-.907 5.104h19.996c3.338-21.685 5.167-35.57 6.278-44.966l7.53-4.189c1.125-4.183 4.645-5.598 11.709-5.427a85.186 85.186 0 0 0-1.418 15.573c0 24.847 13.405 40.316 34.923 40.316 5.542 0 10.298-.73 17.662-2.726l3.518-21.291c-6.623 3.263-12.06 4.797-16.983 4.797-11.62 0-18.65-8.578-18.65-22.754 0-20.565 10.457-34.984 25.38-34.984Z" fill="#000"/><path d="M97.961 233.452h-19.99l11.457-71.783-25.565 71.783H50.239l-1.684-71.373-12.034 71.373H17.812l15.628-93.377h28.74l.808 57.807 19.389-57.807h31.043l-15.459 93.377Z" fill="#fff"/><path d="m572.122 145.615-4.432 26.984c-5.466-7.193-11.337-12.398-19.089-12.398-10.085 0-19.265 7.646-25.274 18.897-8.367-1.735-17.022-4.68-17.022-4.68l-.005.069c.675-6.291.945-10.128.885-11.432h-18.359c-2.501 23.505-6.945 47.311-10.418 70.846l-.916 5.104h19.992c2.701-17.534 4.767-32.093 6.29-43.642 6.829-6.17 10.248-11.555 17.15-11.196-3.055 7.39-4.846 15.901-4.846 24.633 0 18.988 9.606 31.513 24.136 31.513 7.325 0 12.945-2.525 18.428-8.381l-.936 7.061h18.907l15.223-93.377-19.714-.001Zm-24.996 75.837c-6.804 0-10.239-5.034-10.239-14.97 0-14.928 6.432-25.513 15.5-25.513 6.866 0 10.584 5.235 10.584 14.881.001 15.055-6.533 25.602-15.845 25.602Z" fill="#000"/><path d="M147.169 199.625c-2.095-.242-3.022-.306-4.458-.306-11.329 0-17.06 3.884-17.06 11.555 0 4.722 2.799 7.74 7.158 7.74 8.15-.001 14.018-7.753 14.36-18.989Zm14.541 33.83h-16.56l.376-7.859c-5.047 6.209-11.794 9.179-20.944 9.179-10.838 0-18.262-8.461-18.262-20.748 0-18.494 12.915-29.273 35.095-29.273 2.264 0 5.171.205 8.141.585.62-2.503.783-3.576.783-4.931 0-5.035-3.479-6.902-12.817-6.902-9.781-.11-17.842 2.33-21.158 3.407.21-1.257 2.77-17.064 2.77-17.064 9.957-2.931 16.533-4.03 23.918-4.03 17.166 0 26.26 7.71 26.244 22.261.029 3.919-.62 8.731-1.625 15.051-1.73 10.999-5.455 34.589-5.961 40.324Zm268.082-90.863-3.273 20.273c-7.128-3.585-12.307-5.046-17.853-5.046-14.924 0-25.385 14.419-25.385 34.981 0 14.175 7.033 22.749 18.651 22.749 4.923 0 10.354-1.53 16.978-4.794l-3.509 21.282c-7.368 2.007-12.119 2.738-17.666 2.738-21.515 0-34.924-15.471-34.924-40.317 0-33.384 18.522-56.718 45.013-56.718 8.725.001 19.037 3.702 21.968 4.852Zm32.249 57.033c-2.093-.242-3.016-.306-4.458-.306-11.324 0-17.06 3.884-17.06 11.555 0 4.722 2.799 7.74 7.162 7.74 8.142-.001 14.014-7.753 14.356-18.989Zm14.542 33.83h-16.564l.38-7.859c-5.051 6.209-11.795 9.179-20.944 9.179-10.834 0-18.261-8.461-18.261-20.748 0-18.494 12.919-29.273 35.089-29.273 2.27 0 5.172.205 8.145.585.616-2.503.783-3.576.783-4.931 0-5.035-3.48-6.902-12.816-6.902-9.777-.11-17.842 2.33-21.159 3.407.209-1.257 2.774-17.064 2.774-17.064 9.957-2.931 16.529-4.03 23.913-4.03 17.171 0 26.261 7.71 26.239 22.261.034 3.919-.611 8.731-1.619 15.051-1.725 10.999-5.46 34.589-5.96 40.324Zm-226.041-1.15c-5.475 1.722-9.74 2.47-14.359 2.47-10.218 0-15.794-5.873-15.794-16.685-.142-3.363 1.475-12.185 2.744-20.242 1.148-7.104 8.661-51.83 8.661-51.83h19.865l-2.318 11.5h10.196l-2.714 18.244h-10.231c-2.308 14.453-5.603 32.431-5.637 34.82 0 3.928 2.094 5.623 6.842 5.623 2.278 0 4.039-.222 5.389-.709l-2.644 16.809Zm60.914-.607c-6.821 2.085-13.415 3.089-20.389 3.077-22.241-.021-33.833-11.637-33.833-33.88 0-25.97 14.748-45.077 34.768-45.077 16.381 0 26.842 10.697 26.842 27.487 0 5.574-.718 11.009-2.445 18.679h-39.563c-1.339 11.017 5.712 15.613 17.269 15.613 7.108 0 13.526-1.472 20.654-4.797l-3.303 18.898Zm-11.171-45.038c.119-1.577 2.113-13.556-9.244-13.556-6.325 0-10.85 4.838-12.692 13.556h21.936Zm-126.584-5.133c0 9.607 4.658 16.223 15.222 21.205 8.095 3.804 9.346 4.935 9.346 8.382 0 4.734-3.572 6.87-11.475 6.87-5.965 0-11.513-.931-17.915-2.996 0 0-2.619 16.74-2.739 17.54 4.534.992 8.59 1.897 20.795 2.247 21.093 0 30.829-8.03 30.829-25.38 0-10.441-4.072-16.565-14.089-21.167-8.376-3.855-9.346-4.701-9.346-8.252 0-4.102 3.329-6.214 9.786-6.214 3.919 0 9.278.432 14.363 1.154l2.842-17.62c-5.171-.82-13.017-1.478-17.585-1.478-22.363 0-30.099 11.671-30.034 25.709Zm408.666 51.928h-18.91l.94-7.07c-5.484 5.864-11.102 8.39-18.428 8.39-14.53 0-24.132-12.526-24.132-31.514 0-25.261 14.894-46.556 32.521-46.556 7.753 0 13.62 3.167 19.081 10.355l4.436-26.982h19.714l-15.222 93.377Zm-29.483-17.548c9.308 0 15.847-10.546 15.847-25.592 0-9.647-3.722-14.881-10.59-14.881-9.064 0-15.503 10.579-15.503 25.512-.001 9.935 3.443 14.961 10.246 14.961Zm-58.299-58.388c-2.504 23.504-6.947 47.313-10.423 70.834l-.914 5.103h19.99c7.151-46.436 8.88-55.504 20.091-54.368 1.786-9.505 5.109-17.829 7.588-22.03-8.372-1.743-13.047 2.988-19.167 11.975.483-3.886 1.367-7.659 1.192-11.513l-18.357-.001Zm-164.533 0c-2.509 23.504-6.953 47.313-10.428 70.834l-.911 5.103h20c7.142-46.436 8.868-55.504 20.072-54.368 1.795-9.505 5.119-17.829 7.589-22.03-8.363-1.743-13.043 2.988-19.158 11.975.483-3.886 1.358-7.659 1.192-11.513l-18.356-.001Zm261.097 69.99a5.94 5.94 0 0 1 5.932-5.947h.013a5.937 5.937 0 0 1 5.944 5.931v.016a5.947 5.947 0 0 1-5.944 5.946 5.948 5.948 0 0 1-5.945-5.946Zm5.945 4.518a4.513 4.513 0 0 0 4.516-4.511v-.004a4.517 4.517 0 0 0-4.512-4.522h-.004a4.523 4.523 0 0 0-4.521 4.522 4.52 4.52 0 0 0 4.521 4.515Zm-.804-1.919h-1.219v-5.212h2.208c.458 0 .933.009 1.33.261.427.29.67.786.67 1.306 0 .59-.345 1.141-.91 1.351l.965 2.293h-1.354l-.799-2.06h-.892l.001 2.061Zm0-2.952h.669c.253 0 .526.019.748-.103.201-.128.304-.37.304-.603a.686.686 0 0 0-.295-.536c-.209-.12-.556-.087-.782-.087h-.645l.001 1.329Z" fill="#fff"/></svg>