<svg width="678" height="208" fill="none" xmlns="http://www.w3.org/2000/svg"><path d="m239.717 205.261 34.214-200.78h54.727l-34.24 200.78h-54.701ZM492.138 8.81C481.298 4.742 464.307.377 443.091.377c-54.078 0-92.168 27.232-92.494 66.26-.304 28.85 27.195 44.946 47.953 54.549 21.304 9.844 28.464 16.119 28.361 24.906-.136 13.459-17.011 19.605-32.743 19.605-21.902 0-33.539-3.043-51.512-10.536l-7.055-3.191-7.679 44.945c12.783 5.608 36.419 10.461 60.962 10.713 57.529 0 94.874-26.921 95.299-68.6.204-22.841-14.376-40.22-45.95-54.552-19.128-9.288-30.843-15.486-30.719-24.89 0-8.346 9.916-17.27 31.344-17.27 17.893-.279 30.859 3.624 40.96 7.692l4.903 2.317 7.417-43.515Zm140.83-4.332h-42.287c-13.099 0-22.904 3.576-28.656 16.65L480.748 205.13h57.468s9.393-24.74 11.519-30.173c6.28 0 62.107.087 70.088.087 1.637 7.029 6.658 30.086 6.658 30.086h50.782L632.968 4.472v.006ZM565.874 134.13c4.527-11.568 21.805-56.127 21.805-56.127-.322.534 4.494-11.625 7.256-19.163l3.698 17.31s10.479 47.927 12.67 57.977h-45.429v.003ZM193.259 4.478 139.68 141.402l-5.707-27.825c-9.976-32.076-41.052-66.828-75.793-84.226l48.991 175.59 57.903-.065 86.158-200.4h-57.973" fill="#0E4595"/><path d="M89.689 4.472H1.442l-.7 4.177c68.656 16.62 114.082 56.783 132.944 105.046l-19.189-92.266c-3.312-12.714-12.92-16.51-24.806-16.952" fill="#F2AE14"/></svg>