<svg width="212" height="212" fill="none" xmlns="http://www.w3.org/2000/svg"><path d="m150.451 164.162 21.183 24.214a114.757 114.757 0 0 1-13.855 9.205c-15.314 8.739-33.066 13.727-51.908 13.727C47.869 211.308.547 164.002.547 106 .547 47.982 47.869.676 105.87.676c16.517 0 32.2 3.848 46.167 10.68a91.163 91.163 0 0 1 6.527 3.447l-9.686 8.676L134.351 8.42l-24.583 21.937-14.561-15.94L49.36 55.696l29.378 32.377-11.562 10.134 28.945 32.409-11.498 10.119 41.341 46.007 24.487-22.579ZM200.739 98.8l11.258 12.524-12.508 11.273-11.274-12.524L200.739 98.8Zm-17.335 44.13 16.918 18.795-18.794 16.917-16.934-18.794 18.81-16.918ZM133.517 27.52l16.918 18.794-18.794 16.918-16.918-18.794 18.794-16.918Zm-39.721 6.494 22.546 25.049-25.048 22.546-22.546-25.048 25.048-22.547Zm55.163 66.983-16.918-18.778L150.803 65.3l16.95 18.778-18.794 16.918Zm23.236-28.112 12.492-11.273 11.258 12.524-12.476 11.274-11.274-12.525Zm-7.168 67.784-16.95-18.762 18.795-16.934 16.949 18.762-18.794 16.934Zm-8.835-105.003 12.524-11.273 11.257 12.524-12.508 11.273-11.273-12.524Zm-46.954 88.711L86.692 99.329 111.74 76.75l22.546 25.048-25.048 22.579Zm17.816 43.297-22.53-25.048 25.032-22.547 22.546 25.048-25.048 22.547Z" fill="#0377B9"/></svg>