<svg width="44" height="45" viewBox="0 0 44 45" fill="none" xmlns="http://www.w3.org/2000/svg">
<g filter="url(#filter0_d_3015_33294)">
<path d="M28.2962 13.6445C29.9705 15 31.2851 16.7415 32.1253 18.717C32.9656 20.6925 33.306 22.8421 33.1168 24.9781C32.4882 32.1958 26.1405 37.5536 18.9501 36.9336C11.7598 36.3137 6.41675 29.9704 7.05113 22.7546C7.68551 15.5389 14.0158 10.1906 21.2139 10.7991C23.8092 11.0194 26.2774 12.011 28.2962 13.6445Z" fill="#E1E1E1"/>
<path d="M32.8677 24.9561L32.8677 24.9564C32.251 32.0376 26.0235 37.2926 18.9716 36.6845C11.9189 36.0764 6.6779 29.8545 7.30017 22.7765C7.92256 15.6971 14.1329 10.4514 21.1928 11.0482C23.7384 11.2643 26.1591 12.2369 28.1389 13.8388C29.7815 15.1687 31.0711 16.8771 31.8953 18.8149C32.7195 20.7526 33.0533 22.861 32.8677 24.9561Z" stroke="white" stroke-width="0.5"/>
</g>
<path d="M28.5893 11.247C28.7281 11.5933 28.3579 13.3518 28.2943 13.6446C26.3661 13.2045 24.6769 12.5156 23.8594 11.3044L23.8883 11.2106C23.8883 11.2106 25.2593 9.72766 25.6237 9.75828C25.9881 9.7889 28.435 10.8681 28.5893 11.247Z" fill="#31293A"/>
<path d="M26.6875 10.3227C26.6875 10.3227 26.7089 10.1871 26.7551 9.94065C26.8012 9.69423 26.8756 9.3523 26.9834 8.92441C27.1141 8.41067 27.2618 7.91963 27.4255 7.45546C27.6396 6.8444 27.886 6.29344 28.1593 5.81458C28.4958 5.26765 28.8783 4.87785 29.2838 4.66845C29.7309 4.40432 30.1995 4.3775 30.6521 4.59013C30.8896 4.68136 31.1237 4.81227 31.3525 4.98173C31.5914 5.15466 31.8168 5.40988 32.0204 5.73817L32.17 5.99796C32.2179 6.08965 32.2641 6.18898 32.3112 6.27876C32.4078 6.45641 32.4976 6.64744 32.5934 6.827C32.7772 7.19949 32.9619 7.57198 33.145 7.92728C33.3221 8.27498 33.5127 8.58693 33.7145 8.85947C33.8155 8.98014 33.9208 9.08236 34.0292 9.1651C34.0827 9.21054 34.1372 9.24943 34.1925 9.28162L34.3636 9.35994L34.4055 9.37905L34.4269 9.39051H34.432H34.4431L34.5329 9.41152H34.5782H34.6945C34.8004 9.39565 34.9048 9.3481 35.005 9.27016C35.1046 9.19507 35.2006 9.0978 35.2915 8.97981C35.3848 8.86432 35.475 8.73675 35.5617 8.59777C35.7409 8.31439 35.9099 8.00015 36.0671 7.65794C36.2227 7.31219 36.357 6.93015 36.4947 6.56721C36.7649 5.84323 37.0352 5.12499 37.3926 4.70856C37.438 4.66272 37.4824 4.61115 37.5286 4.57485C37.5746 4.53615 37.6217 4.50487 37.6697 4.48125L37.7407 4.44686H37.7621H37.7783H37.8108L37.9374 4.4163C37.9796 4.40244 38.0221 4.39542 38.0648 4.39529L38.1922 4.38574C38.2777 4.38574 38.3556 4.40102 38.4342 4.40675C38.7035 4.44969 38.9676 4.59504 39.215 4.83655C39.3748 4.98917 39.5249 5.18829 39.6614 5.42872C39.7084 5.51277 39.7418 5.58535 39.7649 5.63502L39.7897 5.69233L39.7991 5.71525C39.8094 5.74153 39.815 5.7754 39.8148 5.81033C39.8145 5.84525 39.8085 5.87876 39.7979 5.90439C39.7873 5.93002 39.7728 5.94595 39.7572 5.94912C39.7416 5.95229 39.7261 5.94247 39.7136 5.92155L39.7084 5.912L39.6777 5.85469C39.6554 5.81649 39.6221 5.7611 39.5759 5.69233C39.442 5.49655 39.2986 5.33568 39.1483 5.21286C38.9143 5.02355 38.6691 4.9122 38.4205 4.88239C38.268 4.86663 38.1151 4.87429 37.963 4.90532L37.8356 4.93588H37.804H37.7877H37.7766L37.7184 4.95881C37.6384 4.99855 37.5605 5.0568 37.4858 5.13263C37.1763 5.45737 36.8949 6.09729 36.6307 6.81745C36.4981 7.1823 36.3613 7.55861 36.2262 7.96358C36.0908 8.39407 35.938 8.79565 35.7695 9.16319C35.5805 9.55692 35.3498 9.83693 35.099 9.97695C34.9696 10.0447 34.8369 10.0775 34.7039 10.0744L34.6005 10.0629H34.55L34.5047 10.0476L34.4149 10.0228H34.4038H34.3918H34.3858L34.3619 10.0094L34.3157 9.98649L34.1284 9.88908C34.066 9.85006 34.0047 9.80351 33.9445 9.74963C33.8225 9.64929 33.7044 9.52662 33.5914 9.38287C33.3737 9.08197 33.174 8.72061 32.997 8.30742C32.826 7.90627 32.6601 7.49939 32.4839 7.13263C32.308 6.77273 32.1077 6.47744 31.8904 6.25775C31.7895 6.12977 31.6809 6.03617 31.5791 5.91392C31.4774 5.79166 31.3687 5.71143 31.2653 5.60255C31.0532 5.41537 30.8347 5.26715 30.6119 5.15938C30.1993 4.90283 29.7634 4.89821 29.3497 5.146C29.1593 5.26512 28.9778 5.44597 28.8109 5.68278C28.7699 5.73435 28.7305 5.79357 28.6912 5.85279C28.6518 5.912 28.6134 5.96549 28.5774 6.02852L28.4663 6.20427C28.4304 6.2673 28.3944 6.32461 28.3585 6.38383C28.0991 6.82114 27.8604 7.31655 27.6462 7.86233C27.477 8.28705 27.3191 8.73353 27.1732 9.19949C27.0501 9.58153 26.9603 9.90054 26.9021 10.1183C26.844 10.3361 26.8166 10.4507 26.8166 10.4507C26.8086 10.481 26.7959 10.5036 26.7808 10.5143C26.7658 10.525 26.7496 10.5229 26.7352 10.5085C26.7208 10.4941 26.7093 10.4683 26.7029 10.4362C26.6964 10.404 26.6955 10.3677 26.7003 10.3342L26.6875 10.3227Z" fill="#A59789"/>
<g style="mix-blend-mode:hard-light">
<path d="M21.1279 12.603C20.9524 11.872 19.2228 11.6941 17.499 12.0883C15.9429 12.4423 14.5662 13.4468 14.5392 14.1166C14.5218 14.5911 16.3459 13.797 18.0717 13.5521C19.4658 13.3569 21.3921 13.6898 21.1279 12.603Z" fill="white"/>
</g>
<g style="mix-blend-mode:hard-light">
<path d="M13.8832 14.2528C13.6056 14.0175 12.5952 14.5915 12.7803 15.0546C12.9654 15.5176 14.4521 14.7484 13.8832 14.2528Z" fill="white"/>
</g>
<g style="mix-blend-mode:multiply" opacity="0.2">
<path d="M29.5796 19.6237C29.0262 19.4534 30.1041 27.8249 21.5698 30.9133C15.843 32.9856 11.3078 30.2301 11.1073 31.0453C10.9067 31.8604 16.003 37.4402 23.3264 35.2244C32.4006 32.4766 32.1557 20.4197 29.5796 19.6237Z" fill="#22182A"/>
</g>
<path d="M35.2458 2.55732C35.3996 2.57215 35.5519 2.59998 35.701 2.64054C36.0762 2.74067 36.4382 2.88435 36.7794 3.06859C37.0058 3.18444 37.224 3.31554 37.4324 3.46096C37.654 3.61553 37.8817 3.79388 38.1153 3.97223C38.6074 4.34642 39.1423 4.66171 39.7089 4.91155C39.9904 5.04829 40.308 5.17313 40.5596 5.31581C40.8283 5.45694 41.0884 5.61377 41.3384 5.78547C41.8176 6.13029 42.2609 6.45726 42.6264 6.7664C43.0413 7.10547 43.428 7.47725 43.7826 7.87812C43.7933 7.88862 43.8018 7.90112 43.8076 7.91489C43.8134 7.92867 43.8163 7.94346 43.8163 7.95838C43.8163 7.97331 43.8134 7.98808 43.8076 8.00185C43.8018 8.01563 43.7933 8.02813 43.7826 8.03863C43.7665 8.04533 43.7492 8.04879 43.7317 8.04879C43.7142 8.04879 43.6969 8.04533 43.6808 8.03863C43.1615 7.89487 42.6546 7.70998 42.1651 7.48574C41.7278 7.2955 41.2365 7.04582 40.7153 6.7664C40.4496 6.62015 40.1935 6.45732 39.9485 6.2789C39.7029 6.09461 39.4573 5.88653 39.2116 5.6844C38.7374 5.29115 38.2187 4.95398 37.666 4.67969C37.4024 4.54295 37.1388 4.42405 36.9052 4.29326C36.6814 4.16957 36.4654 4.03258 36.2582 3.88305C35.946 3.65607 35.6606 3.39481 35.4075 3.10426C35.3015 2.98889 35.2072 2.86343 35.1259 2.72972C35.1087 2.69812 35.1047 2.66109 35.1148 2.62661C35.1249 2.59213 35.1483 2.56296 35.1799 2.54542C35.2025 2.5434 35.2253 2.54752 35.2458 2.55732Z" fill="#EECA54"/>
<path d="M40.5621 0.737267C40.5995 0.887717 40.6255 1.04074 40.6399 1.19505C40.6836 1.57628 40.6836 1.9612 40.6399 2.34243C40.6077 2.59289 40.5597 2.84109 40.4962 3.08556C40.4243 3.34714 40.3344 3.62061 40.2505 3.90003C40.0712 4.48006 39.9587 5.07838 39.9151 5.68354C39.8851 5.99863 39.8731 6.31372 39.8312 6.61691C39.7929 6.9176 39.7349 7.21549 39.6575 7.50867C39.5017 8.07345 39.3459 8.60255 39.1782 9.04248C39.004 9.548 38.7896 10.039 38.5372 10.5109C38.5297 10.5238 38.5198 10.5351 38.5079 10.5442C38.4961 10.5533 38.4825 10.56 38.468 10.5638C38.4535 10.5677 38.4384 10.5687 38.4236 10.5667C38.4087 10.5648 38.3944 10.56 38.3814 10.5525C38.3651 10.5434 38.3512 10.5305 38.3408 10.515C38.3304 10.4995 38.3238 10.4818 38.3215 10.4634C38.2782 9.93313 38.2782 9.40031 38.3215 8.87009C38.3215 8.39449 38.4114 7.84754 38.4953 7.27087C38.5417 6.97166 38.6078 6.67575 38.6929 6.38505C38.7768 6.0878 38.8847 5.79055 38.9865 5.49329C39.1905 4.91583 39.3291 4.31765 39.3999 3.70978C39.4298 3.41253 39.4538 3.11529 39.4957 2.8656C39.5363 2.61473 39.5923 2.36656 39.6634 2.12247C39.7658 1.75255 39.9105 1.3955 40.0948 1.0583C40.1678 0.921481 40.2541 0.792061 40.3524 0.67188C40.3647 0.658925 40.3796 0.6486 40.3961 0.641545C40.4125 0.634491 40.4303 0.630859 40.4483 0.630859C40.4662 0.630859 40.4839 0.634491 40.5004 0.641545C40.5169 0.6486 40.5318 0.658925 40.5441 0.67188C40.5545 0.692225 40.5607 0.714476 40.5621 0.737267Z" fill="#EECA54"/>
<path d="M37.5529 1.43164C37.6734 1.50729 37.7858 1.59494 37.8884 1.69322C38.1496 1.92632 38.3792 2.1921 38.5713 2.48391C38.6966 2.67434 38.8086 2.87296 38.9068 3.07841C39.0147 3.29243 39.1105 3.53619 39.2183 3.77994C39.4316 4.29098 39.7138 4.77095 40.0571 5.20674C40.2248 5.4386 40.4045 5.66451 40.5603 5.89637C40.7124 6.1215 40.8466 6.35804 40.9617 6.60383C41.1842 7.03929 41.3841 7.48575 41.5607 7.94146C41.7334 8.39276 41.8657 8.85827 41.9561 9.3326C41.9587 9.34745 41.9582 9.36266 41.9548 9.37734C41.9513 9.39201 41.9449 9.40584 41.936 9.41803C41.927 9.43022 41.9157 9.44052 41.9027 9.44831C41.8897 9.4561 41.8753 9.46122 41.8603 9.46339C41.8295 9.47533 41.7952 9.47533 41.7644 9.46339C41.4074 9.13412 41.0807 8.77402 40.7879 8.38734C40.5184 8.04847 40.2368 7.64421 39.9492 7.19833C39.8037 6.96827 39.6755 6.72782 39.5658 6.47897C39.446 6.22333 39.3501 5.95581 39.2483 5.68829C39.0562 5.16753 38.7964 4.67389 38.4755 4.21986C38.3257 4.00584 38.17 3.79777 38.0441 3.58969C37.9229 3.39903 37.8148 3.20041 37.7206 2.99519C37.5754 2.67847 37.4707 2.34492 37.4091 2.00236C37.3811 1.86339 37.367 1.722 37.3672 1.58027C37.368 1.56152 37.3725 1.54311 37.3804 1.52609C37.3884 1.50907 37.3996 1.49378 37.4135 1.48108C37.4274 1.46838 37.4437 1.45853 37.4615 1.45209C37.4792 1.44564 37.4981 1.44273 37.517 1.44352C37.5282 1.43769 37.5404 1.43369 37.5529 1.43164Z" fill="#E5803C"/>
<path d="M36.2282 9.16232C36.26 9.01168 36.3061 8.86438 36.366 8.72239C36.5059 8.36306 36.689 8.02173 36.9111 7.70578C37.0533 7.49749 37.2095 7.29888 37.3784 7.11128C37.5521 6.90914 37.7618 6.70701 37.9775 6.51677C38.4065 6.07521 38.7806 5.58422 39.0918 5.0543C39.2595 4.78677 39.4213 4.5133 39.595 4.25767C39.7643 4.00769 39.9504 3.76934 40.1521 3.54426C40.5475 3.10432 40.9249 2.70602 41.2784 2.38498C41.66 2.01027 42.0729 1.66821 42.5125 1.36244C42.5326 1.34656 42.5576 1.33791 42.5833 1.33789C42.609 1.33787 42.6339 1.34648 42.6541 1.36233C42.6742 1.37818 42.6884 1.40035 42.6942 1.42519C42.7 1.45004 42.6972 1.4761 42.6862 1.49916C42.4843 1.99255 42.2439 2.4696 41.9673 2.92598C41.7277 3.33619 41.4222 3.79395 41.0867 4.2755C40.9012 4.52093 40.7012 4.75518 40.4876 4.97701C40.2779 5.20292 40.0443 5.42289 39.8166 5.64285C39.3627 6.0662 38.9605 6.54111 38.6185 7.05777C38.4567 7.30152 38.307 7.54527 38.1452 7.76523C37.9994 7.97409 37.8393 8.17273 37.666 8.35974C37.4033 8.64432 37.11 8.8995 36.7913 9.1207C36.6649 9.2099 36.5305 9.28752 36.3899 9.35257C36.373 9.3593 36.3549 9.36263 36.3367 9.36238C36.3185 9.36213 36.3005 9.35832 36.2838 9.35113C36.2671 9.34395 36.252 9.33355 36.2393 9.32053C36.2267 9.30751 36.2168 9.29212 36.2102 9.27528C36.2034 9.25647 36.2015 9.23626 36.2046 9.21651C36.2077 9.19677 36.2158 9.17813 36.2282 9.16232Z" fill="#E5803C"/>
<path d="M43.9471 5.03794C43.8388 5.11898 43.7224 5.18871 43.5996 5.24602C43.3021 5.39329 42.9857 5.49931 42.6591 5.56111C42.2064 5.63976 41.7462 5.66767 41.2872 5.64433C40.7627 5.64657 40.2408 5.71856 39.7356 5.85836C39.2311 6.01325 38.7106 6.11097 38.184 6.14966C37.6807 6.14966 37.2135 6.14966 36.8061 6.14966C36.346 6.13003 35.8888 6.06834 35.4402 5.96537C35.4252 5.96267 35.4109 5.95685 35.3984 5.94829C35.3858 5.93973 35.3752 5.92863 35.3673 5.91571C35.3594 5.90279 35.3543 5.88836 35.3524 5.87335C35.3505 5.85834 35.3518 5.8431 35.3563 5.82864C35.3589 5.81179 35.3658 5.79585 35.3763 5.78234C35.3867 5.76883 35.4005 5.75818 35.4162 5.75135C35.8314 5.55258 36.2647 5.39332 36.7102 5.27574C37.152 5.15179 37.5999 5.0506 38.0522 4.97256C38.5735 4.89458 39.1022 4.87661 39.6278 4.91903C40.1528 4.94362 40.6787 4.89764 41.1913 4.78231C41.6336 4.66287 42.0875 4.59111 42.5453 4.56828C42.8778 4.55774 43.2103 4.59174 43.5337 4.66935C43.6648 4.7002 43.7931 4.74196 43.9171 4.79419C43.9517 4.812 43.9778 4.84243 43.9901 4.87905C44.0024 4.91566 43.9999 4.9556 43.983 4.99039C43.9746 5.00857 43.9623 5.02477 43.9471 5.03794Z" fill="#E5803C"/>
<defs>
<filter id="filter0_d_3015_33294" x="0" y="4.75195" width="40.1641" height="40.2305" filterUnits="userSpaceOnUse" color-interpolation-filters="sRGB">
<feFlood flood-opacity="0" result="BackgroundImageFix"/>
<feColorMatrix in="SourceAlpha" type="matrix" values="0 0 0 0 0 0 0 0 0 0 0 0 0 0 0 0 0 0 127 0" result="hardAlpha"/>
<feOffset dy="1"/>
<feGaussianBlur stdDeviation="3.5"/>
<feComposite in2="hardAlpha" operator="out"/>
<feColorMatrix type="matrix" values="0 0 0 0 0 0 0 0 0 0 0 0 0 0 0 0 0 0 0.5 0"/>
<feBlend mode="normal" in2="BackgroundImageFix" result="effect1_dropShadow_3015_33294"/>
<feBlend mode="normal" in="SourceGraphic" in2="effect1_dropShadow_3015_33294" result="shape"/>
</filter>
</defs>
</svg>
