<svg width="20" height="18" viewBox="0 0 20 18" fill="none" xmlns="http://www.w3.org/2000/svg">
<g clip-path="url(#clip0_3431_2152)">
<mask id="mask0_3431_2152" style="mask-type:luminance" maskUnits="userSpaceOnUse" x="0" y="0" width="20" height="18">
<path d="M0 0H20V18H0V0Z" fill="white"/>
</mask>
<g mask="url(#mask0_3431_2152)">
<path fill-rule="evenodd" clip-rule="evenodd" d="M7.81156 17.7297C12.8316 18.9327 17.9136 15.9987 19.1646 11.1767C20.4166 6.35566 17.3626 1.46966 12.3436 0.269662C7.32556 -0.933338 2.24156 2.00166 0.99156 6.82366C-0.26044 11.6437 2.79456 16.5287 7.81156 17.7307V17.7297ZM12.1486 5.44666C13.4466 5.87666 14.3956 6.51966 14.2086 7.71666C14.0736 8.59366 13.5686 9.01866 12.8966 9.16666C13.8186 9.62866 14.2886 10.3367 13.8406 11.5617C13.2866 13.0847 11.9686 13.2137 10.2156 12.8947L9.79056 14.5327L8.76256 14.2867L9.18256 12.6707C8.90854 12.6055 8.63519 12.5375 8.36256 12.4667L7.94256 14.0897L6.91556 13.8437L7.34056 12.2037C7.24385 12.1795 7.14719 12.1551 7.05056 12.1307L6.60756 12.0207L5.27056 11.7007L5.78056 10.5707C5.78056 10.5707 6.53756 10.7647 6.52756 10.7507C6.81756 10.8187 6.94756 10.6367 6.99756 10.5157L7.67056 7.92566L7.74456 7.94366L7.77956 7.95266C7.74463 7.93939 7.70889 7.92837 7.67256 7.91966L8.15256 6.07166C8.16456 5.86166 8.08956 5.59666 7.67256 5.49666C7.68956 5.48666 6.92656 5.31866 6.92656 5.31866L7.19956 4.26366L8.61756 4.60366L8.61656 4.60866C8.82956 4.65866 9.04856 4.70866 9.27256 4.75766L9.69256 3.13566L10.7216 3.38166L10.3086 4.97166C10.5846 5.03166 10.8616 5.09166 11.1316 5.15766L11.5416 3.57766L12.5696 3.82466L12.1486 5.44666ZM8.89856 11.3267C9.73656 11.5407 11.5686 12.0057 11.8606 10.8807C12.1596 9.73066 10.3806 9.34766 9.51456 9.16066L9.26156 9.10466L8.69756 11.2777L8.89756 11.3277L8.89856 11.3267ZM12.1786 7.69966C11.9126 8.72266 10.3866 8.33166 9.68856 8.15266L9.51856 8.10966L10.0306 6.13866C10.0896 6.15266 10.1606 6.16766 10.2426 6.18466C10.9666 6.33866 12.4506 6.65466 12.1786 7.69966Z" fill="#14203B"/>
</g>
</g>
<defs>
<clipPath id="clip0_3431_2152">
<rect width="20" height="18" fill="white"/>
</clipPath>
</defs>
</svg>
