<svg width="46" height="18" viewBox="0 0 46 18" fill="none" xmlns="http://www.w3.org/2000/svg">
<g clip-path="url(#clip0_3430_2136)">
<mask id="mask0_3430_2136" style="mask-type:luminance" maskUnits="userSpaceOnUse" x="0" y="0" width="46" height="18">
<path d="M0 0H46V18H0V0Z" fill="white"/>
</mask>
<g mask="url(#mask0_3430_2136)">
<path d="M15.3627 7.65872C15.3627 7.14872 15.3197 6.63872 15.2327 6.13672H8.17969V9.01972H12.2197C12.137 9.47997 11.9621 9.91873 11.7053 10.3095C11.4485 10.7004 11.1153 11.0351 10.7257 11.2937V13.1657H13.1377C14.5477 11.8627 15.3627 9.93572 15.3627 7.65872Z" fill="#FBBC04"/>
<path d="M8.184 14.9739C10.202 14.9739 11.902 14.3099 13.141 13.1669L10.73 11.2949C10.059 11.7509 9.194 12.0109 8.184 12.0109C6.232 12.0109 4.576 10.6949 3.984 8.9209H1.5V10.8489C2.12212 12.0886 3.07667 13.1309 4.25701 13.8593C5.43735 14.5877 6.79698 14.9736 8.184 14.9739Z" fill="#34A853"/>
<path d="M3.98356 8.918C3.67055 7.98865 3.67055 6.98235 3.98356 6.053V4.125H1.49956C0.975856 5.16798 0.703125 6.31892 0.703125 7.486C0.703125 8.65308 0.975856 9.80402 1.49956 10.847L3.98356 8.918Z" fill="#FBBC04"/>
<path d="M8.184 2.96348C9.25074 2.94632 10.2814 3.34973 11.053 4.08648L13.188 1.95048C11.8348 0.678002 10.0414 -0.0208843 8.184 0.000475569C6.79698 0.000732435 5.43735 0.386639 4.25701 1.11508C3.07667 1.84352 2.12212 2.8858 1.5 4.12548L3.984 6.05348C4.577 4.28048 6.233 2.96348 8.184 2.96348Z" fill="#34A853"/>
<path fill-rule="evenodd" clip-rule="evenodd" d="M22.1241 14.0708V8.79584H24.8881C26.0281 8.79584 26.9841 8.42583 27.7601 7.68583C28.1476 7.33864 28.4554 6.91181 28.6625 6.43457C28.8696 5.95733 28.9712 5.44096 28.9601 4.92084C28.9679 4.40337 28.8649 3.89022 28.6579 3.41589C28.4509 2.94156 28.1448 2.51703 27.7601 2.17084C27.3799 1.80224 26.9304 1.51261 26.4377 1.31866C25.9449 1.12471 25.4186 1.03028 24.8891 1.04084H20.4531V14.0708H22.1241ZM22.1221 7.19483V2.64484H24.9271C25.2361 2.63592 25.5435 2.69284 25.8288 2.8118C26.1142 2.93076 26.371 3.10905 26.5821 3.33484C26.7953 3.54176 26.9648 3.78938 27.0805 4.06302C27.1963 4.33665 27.2559 4.63073 27.2559 4.92784C27.2559 5.22494 27.1963 5.51902 27.0805 5.79265C26.9648 6.06629 26.7953 6.31391 26.5821 6.52083C26.3684 6.74221 26.1108 6.91651 25.8258 7.03257C25.5408 7.14863 25.2347 7.2039 24.9271 7.19483H22.1221ZM35.7421 5.85783C35.0261 5.19683 34.0501 4.86583 32.8141 4.86583C31.2261 4.86583 30.0261 5.44783 29.2161 6.61283L30.6891 7.54083C31.2331 6.75083 31.9731 6.35783 32.9071 6.35783C33.503 6.3507 34.0797 6.56852 34.5221 6.96783C34.9621 7.33283 35.2161 7.87784 35.2121 8.44984V8.83184C34.5701 8.46784 33.7521 8.28684 32.7591 8.28684C31.5951 8.28684 30.6651 8.56083 29.9691 9.10583C29.2711 9.65083 28.9231 10.3838 28.9231 11.3058C28.9155 11.7207 29.0004 12.132 29.1719 12.5098C29.3433 12.8876 29.5969 13.2224 29.9141 13.4898C30.5741 14.0718 31.3961 14.3628 32.3771 14.3628C33.5271 14.3628 34.4481 13.8528 35.1411 12.8348H35.2131V14.0718H36.8131V8.57783C36.8141 7.42583 36.4581 6.51783 35.7421 5.85783ZM31.2041 12.4348C31.0314 12.3102 30.891 12.146 30.7947 11.956C30.6983 11.7661 30.6487 11.5558 30.6501 11.3428C30.6501 10.8578 30.8771 10.4528 31.3351 10.1198C31.7891 9.79284 32.3551 9.62884 33.0351 9.62884C33.9681 9.62884 34.6951 9.83684 35.2171 10.2518C35.2171 10.9548 34.9401 11.5678 34.3851 12.0898C33.8871 12.5898 33.2101 12.8698 32.5051 12.8698C32.0351 12.8798 31.5741 12.7258 31.2041 12.4348Z" fill="#14203C"/>
<path d="M45.9947 5.15527L40.4097 18.0003H38.6837L40.7557 13.5063L37.0837 5.15627H38.9017L41.5557 11.5603H41.5927L44.1727 5.15527H45.9947ZM15.3627 7.65727C15.3627 7.14727 15.3197 6.63727 15.2327 6.13527H8.17969V9.01827H12.2197C12.137 9.47851 11.962 9.91724 11.7052 10.3081C11.4485 10.6989 11.1153 11.0337 10.7257 11.2923V13.1643H13.1377C14.5497 11.8613 15.3627 9.93427 15.3627 7.65727Z" fill="#14203C"/>
<path d="M8.184 14.9739C10.202 14.9739 11.902 14.3099 13.141 13.1669L10.73 11.2949C10.059 11.7509 9.194 12.0109 8.184 12.0109C6.232 12.0109 4.576 10.6949 3.984 8.9209H1.5V10.8489C2.12212 12.0886 3.07667 13.1309 4.25701 13.8593C5.43735 14.5877 6.79698 14.9736 8.184 14.9739Z" fill="#14203C"/>
<path d="M3.98356 8.918C3.67055 7.98865 3.67055 6.98235 3.98356 6.053V4.125H1.49956C0.975856 5.16798 0.703125 6.31892 0.703125 7.486C0.703125 8.65308 0.975856 9.80402 1.49956 10.847L3.98356 8.918Z" fill="#14203C"/>
<path d="M8.184 2.96348C9.25074 2.94632 10.2814 3.34973 11.053 4.08648L13.188 1.95048C11.8348 0.678002 10.0414 -0.0208843 8.184 0.000475569C6.79698 0.000732435 5.43735 0.386639 4.25701 1.11508C3.07667 1.84352 2.12212 2.8858 1.5 4.12548L3.984 6.05348C4.577 4.28048 6.233 2.96348 8.184 2.96348Z" fill="#14203C"/>
</g>
</g>
<defs>
<clipPath id="clip0_3430_2136">
<rect width="46" height="18" fill="white"/>
</clipPath>
</defs>
</svg>
