<svg width="24" height="18" viewBox="0 0 24 18" fill="none" xmlns="http://www.w3.org/2000/svg">
<g clip-path="url(#clip0_3433_2189)">
<mask id="mask0_3433_2189" style="mask-type:luminance" maskUnits="userSpaceOnUse" x="0" y="0" width="24" height="18">
<path d="M0 0H24V18H0V0Z" fill="white"/>
</mask>
<g mask="url(#mask0_3433_2189)">
<mask id="mask1_3433_2189" style="mask-type:luminance" maskUnits="userSpaceOnUse" x="0" y="0" width="24" height="18">
<path d="M0.289062 0H23.6131V18H0.289062V0Z" fill="white"/>
</mask>
<g mask="url(#mask1_3433_2189)">
<path d="M23.5362 14.3251C23.5349 15.2787 23.1555 16.1928 22.4812 16.8671C21.8069 17.5414 20.8928 17.9208 19.9392 17.9221H0.367188V3.67512C0.36851 2.72155 0.747904 1.8074 1.42219 1.13312C2.09647 0.458841 3.01061 0.0794478 3.96419 0.078125H23.5362V14.3251Z" fill="#0E1830"/>
<path d="M17.1641 10.6705H18.6511C18.6941 10.6705 18.7931 10.6565 18.8351 10.6565C18.9862 10.6242 19.1213 10.5402 19.2171 10.419C19.3129 10.2978 19.3635 10.147 19.3601 9.9925C19.3596 9.83893 19.3077 9.68994 19.2128 9.56925C19.1178 9.44856 18.9852 9.36311 18.8361 9.3265C18.7931 9.3125 18.7081 9.3125 18.6511 9.3125H17.1641V10.6705Z" fill="#0A101F"/>
<path d="M18.4836 1.2803C17.7999 1.2803 17.1442 1.55191 16.6607 2.03538C16.1772 2.51884 15.9056 3.17457 15.9056 3.8583V6.5343H19.5456C19.6306 6.5343 19.7296 6.5343 19.8006 6.5493C20.6206 6.5913 21.2306 7.0163 21.2306 7.7523C21.2306 8.3333 20.8206 8.8293 20.0556 8.9283V8.9563C20.8906 9.0133 21.5276 9.4803 21.5276 10.2023C21.5276 10.9823 20.8196 11.4923 19.8856 11.4923H15.8906V16.7323H19.6706C20.0093 16.7324 20.3446 16.6658 20.6575 16.5363C20.9704 16.4068 21.2547 16.217 21.4942 15.9776C21.7337 15.7382 21.9237 15.4539 22.0533 15.1411C22.1829 14.8282 22.2496 14.4929 22.2496 14.1543V1.2793H18.4826L18.4836 1.2803Z" fill="#0A101F"/>
<path d="M19.1726 7.9223C19.1726 7.5823 18.9326 7.3563 18.6486 7.3133C18.6206 7.3133 18.5486 7.2993 18.5076 7.2993H17.1616V8.5463H18.5076C18.5496 8.5463 18.6346 8.5463 18.6476 8.5313C18.7947 8.51213 18.9296 8.43942 19.0264 8.32707C19.1233 8.21472 19.1753 8.07061 19.1726 7.9223ZM4.23162 1.2803C3.89299 1.28043 3.5577 1.34727 3.24491 1.47701C2.93212 1.60675 2.64795 1.79685 2.40864 2.03644C2.16933 2.27602 1.97957 2.56041 1.85019 2.87336C1.72082 3.1863 1.65436 3.52167 1.65462 3.8603V10.2183C2.37662 10.5723 3.12762 10.7983 3.87762 10.7983C4.76963 10.7983 5.25162 10.2603 5.25162 9.5243V6.5193H7.46163V9.5093C7.46163 10.6693 6.73863 11.6193 4.28863 11.6193C3.39591 11.6199 2.50654 11.5104 1.64062 11.2933V16.7173H5.42062C5.75917 16.7174 6.09443 16.6509 6.40726 16.5214C6.72009 16.392 7.00436 16.2022 7.24384 15.9629C7.48332 15.7236 7.67333 15.4395 7.803 15.1268C7.93268 14.8141 7.99949 14.4788 7.99963 14.1403V1.2803H4.23162ZM11.3556 1.2803C11.0169 1.2803 10.6815 1.34704 10.3686 1.47673C10.0557 1.60641 9.77141 1.79648 9.532 2.03608C9.29258 2.27568 9.10273 2.56012 8.97329 2.87312C8.84385 3.18613 8.77736 3.52158 8.77763 3.8603V7.2303C9.42963 6.6773 10.5626 6.3233 12.3896 6.4083C13.3666 6.4503 14.4146 6.7203 14.4146 6.7203V7.8103C13.81 7.4871 13.1444 7.29428 12.4606 7.2443C11.0726 7.1443 10.2366 7.8243 10.2366 9.0143C10.2366 10.2183 11.0726 10.8983 12.4606 10.7843C13.2676 10.7273 13.8906 10.4743 14.4146 10.2183V11.3083C14.4146 11.3083 13.3806 11.5783 12.3896 11.6203C10.5626 11.7053 9.42963 11.3503 8.77763 10.7983V16.7483H12.5596C12.8982 16.7482 13.2334 16.6814 13.5461 16.5517C13.8588 16.422 14.143 16.232 14.3823 15.9925C14.6216 15.753 14.8113 15.4688 14.9408 15.1559C15.0702 14.8431 15.1368 14.5078 15.1366 14.1693V1.2793H11.3556V1.2803Z" fill="#0A101F"/>
</g>
</g>
</g>
<defs>
<clipPath id="clip0_3433_2189">
<rect width="24" height="18" fill="white"/>
</clipPath>
</defs>
</svg>
