<svg width="43" height="26" viewBox="0 0 43 26" fill="none" xmlns="http://www.w3.org/2000/svg">
<g clip-path="url(#clip0_3430_2132)">
<path d="M25.728 12.865C25.728 19.969 19.968 25.728 12.864 25.728C5.759 25.728 0 19.97 0 12.865C0 5.76 5.759 0 12.864 0C19.968 0 25.728 5.761 25.728 12.865Z" fill="#0B152D"/>
<path d="M30.1365 1.16014e-05C26.9439 -0.00428177 23.8646 1.18321 21.5015 3.33001C21.0365 3.75201 20.6015 4.20701 20.2015 4.69101H22.8015C23.1565 5.12401 23.4845 5.57901 23.7815 6.05401H19.2215C18.9475 6.49201 18.6995 6.94701 18.4805 7.41601H24.5225C24.7295 7.85901 24.9125 8.31401 25.0675 8.77801H17.9355C17.7855 9.22501 17.6615 9.67901 17.5625 10.14H25.4405C25.9283 12.4025 25.7995 14.7544 25.0675 16.95H17.9355C18.0905 17.414 18.2725 17.87 18.4805 18.312H24.5225C24.3031 18.7808 24.0556 19.236 23.7815 19.675H19.2215C19.5185 20.149 19.8465 20.604 20.2015 21.036H22.8005C22.4005 21.521 21.9675 21.976 21.5005 22.399C23.864 24.5456 26.9437 25.7327 30.1365 25.728C37.2415 25.728 43.0005 19.968 43.0005 12.864C43.0005 5.76001 37.2405 1.16014e-05 30.1365 1.16014e-05Z" fill="#14203C"/>
<path d="M6.82656 16.2495H5.42956L6.22956 11.2335L4.44356 16.2495H3.49156L3.37456 11.2625L2.53356 16.2495H1.22656L2.31756 9.72552H4.32656L4.38256 13.7645L5.73756 9.72452H7.90656L6.82656 16.2495ZM10.2596 13.8855C10.1565 13.8712 10.0526 13.8639 9.94856 13.8635C9.15656 13.8635 8.75656 14.1345 8.75656 14.6705C8.75656 15.0005 8.95156 15.2115 9.25656 15.2115C9.82656 15.2115 10.2366 14.6705 10.2596 13.8855ZM11.2756 16.2485H10.1196L10.1466 15.6995C9.79356 16.1335 9.32256 16.3415 8.68256 16.3415C7.92556 16.3415 7.40656 15.7495 7.40656 14.8915C7.40656 13.5995 8.30956 12.8455 9.85856 12.8455C10.0492 12.8476 10.2396 12.8613 10.4286 12.8865C10.4706 12.7115 10.4826 12.6365 10.4826 12.5425C10.4826 12.1905 10.2396 12.0605 9.58656 12.0605C9.08429 12.0597 8.58519 12.1401 8.10856 12.2985L8.30256 11.1055C8.99756 10.9015 9.45756 10.8245 9.97256 10.8245C11.1726 10.8245 11.8086 11.3625 11.8076 12.3795C11.8096 12.6535 11.7636 12.9895 11.6936 13.4315C11.5726 14.1995 11.3126 15.8485 11.2766 16.2485H11.2756ZM30.0076 9.89952L29.7786 11.3165C29.2806 11.0665 28.9186 10.9635 28.5316 10.9635C27.4886 10.9635 26.7576 11.9715 26.7576 13.4085C26.7576 14.3985 27.2486 14.9985 28.0606 14.9985C28.4046 14.9985 28.7846 14.8905 29.2466 14.6625L29.0016 16.1495C28.4876 16.2895 28.1556 16.3415 27.7676 16.3415C26.2646 16.3415 25.3276 15.2605 25.3276 13.5245C25.3276 11.1915 26.6216 9.56152 28.4726 9.56152C29.0826 9.56152 29.8026 9.81952 30.0076 9.89952ZM32.2606 13.8855C32.1575 13.8712 32.0536 13.8639 31.9496 13.8635C31.1576 13.8635 30.7576 14.1345 30.7576 14.6705C30.7576 15.0005 30.9526 15.2115 31.2576 15.2115C31.8266 15.2115 32.2376 14.6705 32.2606 13.8855ZM33.2766 16.2485H32.1196L32.1456 15.6995C31.7936 16.1335 31.3216 16.3415 30.6826 16.3415C29.9256 16.3415 29.4066 15.7495 29.4066 14.8915C29.4066 13.5995 30.3096 12.8455 31.8586 12.8455C32.0489 12.8477 32.2389 12.8613 32.4276 12.8865C32.4706 12.7115 32.4826 12.6365 32.4826 12.5425C32.4826 12.1905 32.2386 12.0605 31.5866 12.0605C31.0843 12.0598 30.5852 12.1401 30.1086 12.2985L30.3016 11.1055C30.9976 10.9015 31.4566 10.8245 31.9726 10.8245C33.1726 10.8245 33.8076 11.3625 33.8066 12.3795C33.8086 12.6535 33.7636 12.9895 33.6936 13.4315C33.5736 14.1995 33.3116 15.8485 33.2766 16.2485ZM17.4826 16.1685C17.1006 16.2885 16.8026 16.3405 16.4796 16.3405C15.7656 16.3405 15.3756 15.9305 15.3756 15.1755C15.3656 14.9405 15.4796 14.3235 15.5676 13.7605C15.6476 13.2645 16.1726 10.1395 16.1726 10.1395H17.5606L17.3986 10.9425H18.1116L17.9216 12.2175H17.2066C17.0466 13.2275 16.8156 14.4835 16.8126 14.6505C16.8126 14.9255 16.9596 15.0435 17.2916 15.0435C17.4506 15.0435 17.5736 15.0275 17.6676 14.9935L17.4826 16.1685ZM21.7386 16.1255C21.2776 16.2692 20.7974 16.3417 20.3146 16.3405C18.7606 16.3395 17.9506 15.5275 17.9506 13.9735C17.9506 12.1595 18.9806 10.8235 20.3806 10.8235C21.5246 10.8235 22.2556 11.5715 22.2556 12.7445C22.2556 13.1345 22.2056 13.5145 22.0846 14.0495H19.3196C19.2266 14.8195 19.7196 15.1405 20.5266 15.1405C21.0268 15.1404 21.5204 15.0258 21.9696 14.8055L21.7386 16.1255ZM20.9586 12.9795C20.9666 12.8695 21.1066 12.0325 20.3126 12.0325C19.8706 12.0325 19.5546 12.3705 19.4256 12.9795H20.9586ZM12.1136 12.6205C12.1136 13.2915 12.4396 13.7545 13.1776 14.1025C13.7426 14.3675 13.8306 14.4475 13.8306 14.6875C13.8306 15.0185 13.5806 15.1675 13.0286 15.1675C12.6116 15.1675 12.2246 15.1025 11.7766 14.9585L11.5856 16.1845C11.9026 16.2535 12.1856 16.3165 13.0386 16.3415C14.5126 16.3415 15.1926 15.7805 15.1926 14.5675C15.1926 13.8375 14.9086 13.4105 14.2086 13.0885C13.6226 12.8185 13.5556 12.7605 13.5556 12.5125C13.5556 12.2255 13.7876 12.0775 14.2386 12.0775C14.5126 12.0775 14.8876 12.1075 15.2426 12.1585L15.4406 10.9275C15.0339 10.8665 14.6237 10.8321 14.2126 10.8245C12.6496 10.8245 12.1096 11.6395 12.1136 12.6205ZM40.6686 16.2485H39.3466L39.4126 15.7545C39.0296 16.1645 38.6366 16.3405 38.1246 16.3405C37.1096 16.3405 36.4386 15.4655 36.4386 14.1395C36.4386 12.3735 37.4786 10.8865 38.7116 10.8865C39.2526 10.8865 39.6626 11.1065 40.0446 11.6095L40.3546 9.72452H41.7316L40.6686 16.2485ZM38.6086 15.0225C39.2586 15.0225 39.7156 14.2855 39.7156 13.2345C39.7156 12.5605 39.4556 12.1945 38.9756 12.1945C38.3426 12.1945 37.8926 12.9345 37.8926 13.9775C37.8926 14.6715 38.1336 15.0225 38.6086 15.0225ZM34.5346 10.9425C34.3596 12.5855 34.0496 14.2485 33.8066 15.8925L33.7426 16.2485H35.1396C35.6396 13.0045 35.7596 12.3705 36.5426 12.4505C36.6676 11.7855 36.8996 11.2045 37.0726 10.9105C36.4886 10.7895 36.1616 11.1205 35.7336 11.7475C35.7676 11.4765 35.8296 11.2125 35.8176 10.9435H34.5346V10.9425ZM23.0386 10.9425C22.8626 12.5855 22.5526 14.2485 22.3096 15.8925L22.2466 16.2485H23.6436C24.1426 13.0045 24.2636 12.3705 25.0456 12.4505C25.1716 11.7855 25.4036 11.2045 25.5756 10.9105C24.9916 10.7895 24.6656 11.1205 24.2376 11.7475C24.2716 11.4765 24.3326 11.2125 24.3206 10.9435H23.0396L23.0386 10.9425ZM41.2816 15.8325C41.2815 15.778 41.2922 15.724 41.313 15.6737C41.3338 15.6233 41.3643 15.5775 41.4028 15.5389C41.4412 15.5003 41.487 15.4697 41.5373 15.4488C41.5876 15.4279 41.6416 15.4171 41.6961 15.417C41.7506 15.417 41.8045 15.4276 41.8549 15.4484C41.9053 15.4692 41.9511 15.4997 41.9897 15.5382C42.0282 15.5767 42.0589 15.6224 42.0798 15.6727C42.1007 15.7231 42.1115 15.777 42.1116 15.8315V15.8335C42.1043 15.9386 42.0574 16.037 41.9803 16.1089C41.9033 16.1807 41.8019 16.2207 41.6966 16.2207C41.5912 16.2207 41.4898 16.1807 41.4128 16.1089C41.3358 16.037 41.2889 15.9376 41.2816 15.8325ZM41.6976 16.1485C41.7782 16.144 41.854 16.1088 41.9094 16.0501C41.9649 15.9914 41.9958 15.9138 41.9958 15.833C41.9958 15.7523 41.9649 15.6746 41.9094 15.616C41.854 15.5573 41.7782 15.5221 41.6976 15.5175C41.617 15.5221 41.5411 15.5573 41.4857 15.616C41.4302 15.6746 41.3993 15.7523 41.3993 15.833C41.3993 15.9138 41.4302 15.9914 41.4857 16.0501C41.5411 16.1088 41.617 16.144 41.6976 16.1485ZM41.6406 16.0145H41.5556V15.6505H41.7106C41.7416 15.6505 41.7756 15.6505 41.8026 15.6685C41.8173 15.6788 41.8293 15.6926 41.8375 15.7087C41.8457 15.7247 41.8499 15.7425 41.8496 15.7605C41.8498 15.7807 41.8439 15.8005 41.8326 15.8173C41.8214 15.8341 41.8053 15.8471 41.7866 15.8545L41.8536 16.0145H41.7586L41.7036 15.8705H41.6406V16.0145ZM41.6406 15.8085H41.6876C41.7056 15.8085 41.7246 15.8105 41.7396 15.8015C41.7464 15.7969 41.752 15.7906 41.7559 15.7833C41.7597 15.776 41.7617 15.7678 41.7616 15.7595C41.7613 15.752 41.7593 15.7446 41.7556 15.738C41.752 15.7314 41.7468 15.7258 41.7406 15.7215C41.7256 15.7135 41.7016 15.7155 41.6856 15.7155H41.6406V15.8085Z" fill="white" fill-opacity="0.49"/>
</g>
<defs>
<clipPath id="clip0_3430_2132">
<rect width="43" height="26" fill="white"/>
</clipPath>
</defs>
</svg>
