<svg width="45" height="18" viewBox="0 0 45 18" fill="none" xmlns="http://www.w3.org/2000/svg">
<path fill-rule="evenodd" clip-rule="evenodd" d="M9.34391 2.28C8.83891 2.876 8.03191 3.347 7.22391 3.28C7.12391 2.473 7.51891 1.615 7.98091 1.085C8.48591 0.47 9.36891 0.034 10.0839 0C10.1679 0.841 9.83991 1.665 9.34391 2.28ZM10.0739 3.44C9.36391 3.399 8.71391 3.654 8.19091 3.86C7.85291 3.992 7.56791 4.104 7.35091 4.104C7.10691 4.104 6.80891 3.986 6.47491 3.854C6.03691 3.679 5.53691 3.481 5.01191 3.49C3.80991 3.507 2.69191 4.188 2.07691 5.273C0.815909 7.443 1.74891 10.656 2.96891 12.422C3.56591 13.297 4.28091 14.255 5.22291 14.222C5.63691 14.206 5.93491 14.08 6.24291 13.949C6.59891 13.799 6.96791 13.642 7.54291 13.642C8.09991 13.642 8.45291 13.794 8.79191 13.94C9.11391 14.08 9.42191 14.213 9.88191 14.205C10.8579 14.188 11.4719 13.33 12.0689 12.455C12.7129 11.517 12.9959 10.601 13.0389 10.462L13.0439 10.446C13.0364 10.4419 13.0288 10.4383 13.0209 10.435C12.8059 10.335 11.1589 9.582 11.1439 7.561C11.1279 5.864 12.4499 5.005 12.6579 4.869L12.6829 4.853C11.8419 3.608 10.5289 3.473 10.0739 3.44ZM16.8289 14.113V1H21.7489C24.2889 1 26.0629 2.75 26.0629 5.306C26.0629 7.863 24.2549 9.629 21.6819 9.629H18.8639V14.112L16.8289 14.113ZM18.8639 2.717H21.2109C22.9769 2.717 23.9859 3.659 23.9859 5.315C23.9859 6.972 22.9759 7.923 21.2019 7.923H18.8639V2.717ZM32.7839 12.54C32.2439 13.566 31.0589 14.214 29.7809 14.214C27.8889 14.214 26.5679 13.086 26.5679 11.388C26.5679 9.706 27.8459 8.738 30.2099 8.595L32.7499 8.444V7.721C32.7499 6.653 32.0519 6.072 30.8069 6.072C29.7809 6.072 29.0319 6.602 28.8809 7.41H27.0469C27.1069 5.71 28.7039 4.474 30.8659 4.474C33.1959 4.474 34.7089 5.694 34.7089 7.586V14.113H32.8249V12.54H32.7839ZM30.3279 12.658C29.2429 12.658 28.5529 12.136 28.5529 11.338C28.5529 10.513 29.2169 10.034 30.4869 9.958L32.7499 9.815V10.555C32.7499 11.783 31.7069 12.658 30.3279 12.658ZM40.9579 14.626C40.1419 16.922 39.2079 17.679 37.2239 17.679C37.0729 17.679 36.5679 17.662 36.4499 17.629V16.055C36.5769 16.072 36.8879 16.089 37.0469 16.089C37.9469 16.089 38.4519 15.711 38.7629 14.727L38.9479 14.147L35.4999 4.6H37.6279L40.0249 12.346H40.0669L42.4639 4.6H44.5329L40.9579 14.626Z" fill="#14203B"/>
</svg>
