<svg width="73" height="18" viewBox="0 0 73 18" fill="none" xmlns="http://www.w3.org/2000/svg">
<g clip-path="url(#clip0_3433_2182)">
<mask id="mask0_3433_2182" style="mask-type:luminance" maskUnits="userSpaceOnUse" x="0" y="0" width="73" height="18">
<path d="M0 0H73V18H0V0Z" fill="white"/>
</mask>
<g mask="url(#mask0_3433_2182)">
<path fill-rule="evenodd" clip-rule="evenodd" d="M51.2735 10.232H56.6435V7.213H51.2735V3.02H57.3115V0H47.9065V17.955H58.3285V14.935H51.2735V10.232ZM39.4315 10.232H44.8015V7.213H39.4315V3.02H45.4695V0H36.0625V17.955H46.4545V14.935H39.4305L39.4315 10.232ZM71.5705 5.307C71.5705 7.658 70.0765 9.533 68.1065 10.296L72.3325 17.954H68.3285L64.3245 10.677H62.9905V17.954H59.5905V0H66.2945C69.2185 0 71.5705 1.907 71.5705 5.307ZM62.9905 7.754H65.5625C66.7395 7.754 67.6925 6.641 67.6925 5.307C67.6925 3.781 66.6425 2.955 65.3725 2.955H62.9905V7.754Z" fill="#0E1931"/>
<path fill-rule="evenodd" clip-rule="evenodd" d="M19.6774 3.27122C20.0434 4.39922 20.4084 5.52822 20.7424 6.52922C21.1554 7.75222 21.5764 8.98322 21.9974 10.2152C22.4184 11.4462 22.8394 12.6772 23.2524 13.9012C23.4424 14.4582 23.6324 15.0312 23.8254 15.6132C24.0834 16.3932 24.3454 17.1862 24.6194 17.9682H21.2504L19.9474 14.1882L14.0694 14.2192L12.7974 18.0002H9.39738L15.4024 0.0142222H18.6124C18.9454 1.01522 19.3124 2.14422 19.6774 3.27122ZM16.9924 5.09822L15.0224 11.2322H19.0264L16.9924 5.09822ZM9.41737 0.650222C10.7844 1.31722 11.5154 2.52522 11.8014 3.98622C12.1514 5.76622 12.0874 7.51422 11.3564 9.16622C10.8164 10.2782 9.89437 10.9772 8.75037 11.4222C7.39037 11.9432 5.50038 11.9372 3.99738 11.9322H3.57138V17.9682H0.234375V0.0142222H5.76437C7.28937 0.0142222 8.24137 0.141222 9.41737 0.650222ZM6.05037 8.91222C6.97237 8.78522 7.57637 8.24422 7.89337 7.35522C8.17937 6.59222 8.11637 5.76522 7.98937 4.94022C7.92537 4.30422 7.63937 3.70022 7.03537 3.32022C6.14537 2.78022 3.57238 2.84222 3.57238 2.84222V9.04022C3.57238 9.04022 5.25637 9.00822 6.05037 8.91322V8.91222ZM30.9754 0.0142222L27.8614 6.56022L24.7474 0.0142222H21.0614C21.9514 1.98422 22.9044 4.08222 23.7614 5.95622C24.4614 7.45022 26.0814 11.2002 26.0814 11.2002L26.0514 17.9682H29.5454V11.2002C30.7214 8.65722 31.9604 5.92522 33.1364 3.38222C33.6134 2.33422 34.1864 1.12622 34.6614 0.0142222C33.4544 0.0142222 32.1194 -0.0177778 30.9754 0.0142222ZM50.6704 10.2322H56.0404V7.21322H50.6704V3.02022H56.7084V0.000222222H47.3024V17.9552H57.7254V14.9352H50.6704V10.2322ZM38.8284 10.2322H44.1984V7.21322H38.8284V3.02022H44.8654V0.000222222H35.4594V17.9552H45.8504V14.9352H38.8284V10.2322ZM70.9664 5.30722C70.9664 7.65822 69.4724 9.53322 67.5024 10.2972L71.7284 17.9542H67.7244L63.7204 10.6772H62.3864V17.9542H58.9864V0.000222222H65.6914C68.6144 0.000222222 70.9664 1.90722 70.9664 5.30722ZM62.3864 7.75422H64.9604C66.1354 7.75422 67.0904 6.64122 67.0904 5.30722C67.0904 3.78122 66.0404 2.95522 64.7704 2.95522H62.3864V7.75422Z" fill="#14203B"/>
</g>
</g>
<defs>
<clipPath id="clip0_3433_2182">
<rect width="73" height="18" fill="white"/>
</clipPath>
</defs>
</svg>
