<svg width="41" height="18" viewBox="0 0 41 18" fill="none" xmlns="http://www.w3.org/2000/svg">
<mask id="mask0_3432_2158" style="mask-type:luminance" maskUnits="userSpaceOnUse" x="0" y="0" width="41" height="18">
<path d="M0.445312 0H40.0713V18H0.445312V0Z" fill="white"/>
</mask>
<g mask="url(#mask0_3432_2158)">
<path d="M19.8672 10.1797H20.4832V11.5597H20.9282L21.7262 10.1797H22.4002L21.4412 11.7997V11.8117L22.4572 13.5797H21.7612L20.9392 12.0967H20.4952V13.5797H19.8792V10.1797H19.8672ZM23.8372 11.0817C24.5772 11.0817 25.1832 11.6177 25.1832 12.3597C25.1832 13.1127 24.5902 13.6367 23.8482 13.6367C23.1082 13.6367 22.5132 13.1127 22.5132 12.3597C22.5032 11.6067 23.0952 11.0817 23.8372 11.0817ZM25.6622 11.1387H26.2432V13.0557H27.0082V11.1397H27.5892V13.0557H28.3532V11.1397H28.9352V13.5797H25.6852V11.1397H25.6622V11.1387ZM30.6582 11.0817C31.3532 11.0817 31.7412 11.5957 31.7412 12.2347C31.7392 12.3147 31.7312 12.3947 31.7192 12.4737H30.0422C30.0762 12.8957 30.4072 13.1237 30.7722 13.1237C31.0222 13.1237 31.2742 13.0097 31.4672 12.8617L31.7072 13.2947C31.4305 13.5211 31.0847 13.646 30.7272 13.6487C29.9172 13.6487 29.4142 13.0667 29.4142 12.3707C29.4142 11.6067 29.9282 11.0817 30.6582 11.0817ZM32.0262 13.0667C32.3232 13.0207 32.5402 12.7707 32.5402 11.9027V11.1397H34.3202V13.5797H33.7152V11.6297H33.1212V11.9027C33.1212 12.9627 32.8362 13.5797 32.0262 13.6027V13.0667ZM36.0532 11.0817C36.7482 11.0817 37.1362 11.5957 37.1362 12.2347C37.1342 12.3147 37.1262 12.3947 37.1142 12.4737H35.4372C35.4712 12.8957 35.8022 13.1237 36.1672 13.1237C36.4172 13.1237 36.6692 13.0097 36.8632 12.8617L37.1032 13.2947C36.826 13.5215 36.4794 13.6465 36.1212 13.6487C35.3112 13.6487 34.8112 13.0667 34.8112 12.3707C34.8112 11.6067 35.3232 11.0817 36.0532 11.0817ZM37.6382 11.1387H38.2432V12.0747H38.5402L39.1332 11.1397H39.8052L39.0302 12.3027V12.3127L39.8972 13.5797H39.1902L38.5502 12.5877H38.2322V13.5797H37.6272V11.1397H37.6382V11.1387ZM23.8382 13.1127C24.2382 13.1127 24.5682 12.8047 24.5682 12.3477C24.5682 11.9037 24.2382 11.5837 23.8382 11.5837C23.4382 11.5837 23.1182 11.8927 23.1182 12.3477C23.1182 12.8047 23.4382 13.1127 23.8382 13.1127ZM31.1252 12.0517C31.1252 11.7317 30.9092 11.5387 30.6352 11.5387C30.3272 11.5387 30.0992 11.7437 30.0422 12.0517H31.1252ZM36.5212 12.0517C36.5212 11.7317 36.3042 11.5387 36.0312 11.5387C35.7212 11.5387 35.4942 11.7437 35.4372 12.0517H36.5212Z" fill="#14203B"/>
<path d="M19.865 10.1797H20.481V11.5597H20.926L21.724 10.1797H22.398L21.439 11.7997V11.8107L22.455 13.5787H21.759L20.937 12.0957H20.493V13.5787H19.877V10.1787H19.865V10.1797ZM23.835 11.0807C24.575 11.0807 25.181 11.6167 25.181 12.3587C25.181 13.1117 24.588 13.6357 23.846 13.6357C23.105 13.6357 22.511 13.1117 22.511 12.3587C22.501 11.6057 23.093 11.0807 23.835 11.0807ZM25.66 11.1377H26.241V13.0547H27.006V11.1397H27.587V13.0557H28.351V11.1397H28.933V13.5797H25.683V11.1397H25.66V11.1377ZM30.656 11.0807C31.351 11.0807 31.739 11.5947 31.739 12.2337C31.737 12.3137 31.729 12.3937 31.717 12.4737H30.04C30.074 12.8947 30.405 13.1237 30.77 13.1237C31.02 13.1237 31.272 13.0087 31.465 12.8607L31.705 13.2937C31.4283 13.5201 31.0825 13.645 30.725 13.6477C29.915 13.6477 29.412 13.0657 29.412 12.3697C29.412 11.6057 29.926 11.0807 30.656 11.0807ZM32.024 13.0657C32.321 13.0197 32.538 12.7697 32.538 11.9017V11.1387H34.318V13.5787H33.713V11.6287H33.119V11.9017C33.119 12.9617 32.834 13.5787 32.024 13.6017V13.0657ZM36.051 11.0807C36.746 11.0807 37.134 11.5947 37.134 12.2337C37.132 12.3137 37.124 12.3937 37.112 12.4737H35.435C35.469 12.8947 35.8 13.1237 36.165 13.1237C36.415 13.1237 36.667 13.0087 36.861 12.8607L37.101 13.2937C36.8238 13.5206 36.4772 13.6456 36.119 13.6477C35.309 13.6477 34.808 13.0657 34.808 12.3697C34.808 11.6057 35.321 11.0807 36.051 11.0807ZM37.636 11.1377H38.241V12.0737H38.538L39.131 11.1387H39.803L39.028 12.3017V12.3127L39.895 13.5787H39.188L38.548 12.5867H38.23V13.5787H37.625V11.1387H37.636V11.1377ZM23.835 13.1117C24.235 13.1117 24.565 12.8037 24.565 12.3467C24.565 11.9027 24.235 11.5827 23.835 11.5827C23.435 11.5827 23.116 11.8927 23.116 12.3467C23.116 12.8037 23.436 13.1117 23.835 13.1117ZM31.123 12.0517C31.123 11.7317 30.907 11.5377 30.633 11.5377C30.325 11.5377 30.097 11.7427 30.04 12.0507H31.123V12.0517ZM36.519 12.0517C36.519 11.7317 36.302 11.5377 36.029 11.5377C35.719 11.5377 35.492 11.7427 35.435 12.0507H36.519V12.0517ZM28.386 2.77769V8.53769C28.3863 8.5588 28.3824 8.57974 28.3745 8.59932C28.3666 8.61889 28.3549 8.63669 28.34 8.65169C28.3251 8.66668 28.3073 8.67849 28.2877 8.68639C28.2681 8.6943 28.2471 8.69814 28.226 8.69769H27.052C27.0308 8.69824 27.0098 8.69448 26.9901 8.68663C26.9705 8.67879 26.9526 8.66702 26.9376 8.65205C26.9227 8.63708 26.9109 8.61923 26.9031 8.59956C26.8952 8.5799 26.8915 8.55885 26.892 8.53769V2.77769C26.8914 2.75655 26.8952 2.73552 26.9031 2.7159C26.911 2.69629 26.9229 2.67852 26.938 2.66369C26.9529 2.64875 26.9707 2.63697 26.9903 2.62907C27.0099 2.62117 27.0309 2.6173 27.052 2.61769H28.227C28.2589 2.61684 28.2902 2.62578 28.3169 2.6433C28.3435 2.66082 28.3642 2.68609 28.376 2.71569C28.384 2.73569 28.386 2.75669 28.386 2.77769ZM37.556 2.61769C37.6156 2.62266 37.6719 2.64728 37.716 2.68769C37.75 2.72069 37.75 2.77769 37.739 2.82269L35.799 8.59469C35.7873 8.62436 35.7671 8.64994 35.741 8.66825C35.7148 8.68656 35.6839 8.69679 35.652 8.69769H34.602C34.5694 8.69922 34.5373 8.68996 34.5105 8.67133C34.4837 8.65271 34.4639 8.62576 34.454 8.59469L33.324 5.22969L32.195 8.59469C32.1833 8.62448 32.1629 8.6501 32.1366 8.66827C32.1102 8.68644 32.079 8.69633 32.047 8.69669H30.997C30.929 8.69669 30.872 8.66269 30.849 8.59469L28.91 2.82269C28.9028 2.79982 28.9011 2.77556 28.9051 2.75191C28.9091 2.72826 28.9186 2.7059 28.933 2.68669C28.956 2.64069 29.013 2.61769 29.058 2.61769H30.37C30.438 2.61769 30.496 2.66269 30.519 2.73169L31.556 6.14169L32.697 2.73169C32.7087 2.70179 32.729 2.67604 32.7553 2.6577C32.7817 2.63936 32.8129 2.62926 32.845 2.62869H33.769C33.838 2.62869 33.895 2.66269 33.917 2.73169L35.058 6.14169L36.096 2.73169C36.1052 2.69934 36.1246 2.67081 36.1512 2.65028C36.1778 2.62976 36.2104 2.61833 36.244 2.61769H37.556ZM39.541 2.61769C39.621 2.61769 39.689 2.68769 39.701 2.77769V8.53769C39.7014 8.55881 39.6975 8.5798 39.6897 8.5994C39.6818 8.619 39.67 8.6368 39.655 8.65174C39.6401 8.66668 39.6223 8.67845 39.6027 8.68634C39.5831 8.69424 39.5621 8.6981 39.541 8.69769H38.366C38.3448 8.69824 38.3238 8.69448 38.3041 8.68663C38.2845 8.67879 38.2666 8.66702 38.2516 8.65205C38.2367 8.63708 38.2249 8.61923 38.2171 8.59956C38.2092 8.5799 38.2055 8.55885 38.206 8.53769V2.77769C38.2054 2.75655 38.2092 2.73552 38.2171 2.7159C38.225 2.69629 38.2369 2.67852 38.252 2.66369C38.2669 2.64875 38.2847 2.63697 38.3043 2.62907C38.3239 2.62117 38.3449 2.6173 38.366 2.61769H39.541ZM26.207 8.49169C26.276 8.57169 26.219 8.68569 26.116 8.68569H24.678C24.6498 8.68648 24.6217 8.68075 24.5961 8.66896C24.5704 8.65717 24.5478 8.63962 24.53 8.61769L24.291 8.32069C23.7772 8.65231 23.1795 8.8306 22.568 8.83469C21.7409 8.80929 20.9561 8.46286 20.38 7.8688C19.8039 7.27474 19.4817 6.47972 19.4817 5.65219C19.4817 4.82466 19.8039 4.02964 20.38 3.43558C20.9561 2.84152 21.7409 2.49509 22.568 2.46969C23.1398 2.46941 23.701 2.6231 24.1929 2.9146C24.6848 3.2061 25.089 3.62467 25.3633 4.12635C25.6376 4.62803 25.7717 5.1943 25.7516 5.7657C25.7315 6.3371 25.5579 6.89254 25.249 7.37369L26.207 8.49169ZM14.197 11.2867C14.493 11.4007 14.607 11.8447 14.63 12.0387C14.675 12.3927 14.573 12.5297 14.459 12.5297C14.345 12.5297 14.185 12.3927 14.014 12.1197C13.843 11.8457 13.774 11.5377 13.866 11.3777C13.922 11.2747 14.049 11.2297 14.197 11.2877V11.2867ZM12.462 12.5767C12.6746 12.586 12.8768 12.6711 13.032 12.8167C13.386 13.1117 13.489 13.4537 13.307 13.7047C13.2489 13.7712 13.1768 13.8241 13.0959 13.8595C13.015 13.8949 12.9273 13.9121 12.839 13.9097C12.6428 13.9118 12.4524 13.8429 12.303 13.7157C11.983 13.4427 11.893 12.9857 12.097 12.7357C12.1411 12.6823 12.197 12.64 12.2604 12.6122C12.3238 12.5844 12.3929 12.5729 12.462 12.5767ZM8.472 15.8717C6.92021 15.8719 5.40321 15.4119 4.11283 14.55C2.82245 13.688 1.81666 12.4627 1.22263 11.0291C0.6286 9.59556 0.473022 8.01801 0.775567 6.49599C1.07811 4.97398 1.82519 3.57586 2.92234 2.47844C4.01948 1.38102 5.41741 0.633579 6.93934 0.330645C8.46128 0.0277112 10.0389 0.182887 11.4726 0.77655C12.9064 1.37021 14.1319 2.3757 14.9942 3.66586C15.8565 4.95601 16.3168 6.4729 16.317 8.02469C16.317 9.49469 15.907 10.8757 15.211 12.0507C15.188 12.0847 15.131 12.0737 15.119 12.0277C14.846 10.1007 13.671 9.03869 11.959 8.71969C11.811 8.69669 11.789 8.60569 11.983 8.58369C12.507 8.53769 13.249 8.54869 13.636 8.61769C13.7207 7.89024 13.6507 7.15308 13.4304 6.45461C13.2102 5.75614 12.8447 5.11215 12.358 4.5649C11.8713 4.01765 11.2743 3.57952 10.6063 3.27926C9.93832 2.97901 9.21438 2.82341 8.482 2.82269C7.10585 2.82375 5.78637 3.37089 4.81329 4.34398C3.8402 5.31706 3.29306 6.63654 3.292 8.01269C3.29306 9.38901 3.84034 10.7086 4.81364 11.6818C5.78694 12.6549 7.10668 13.2019 8.483 13.2027H8.723C8.64132 12.7397 8.60648 12.2697 8.619 11.7997C8.631 11.4797 8.699 11.4347 8.836 11.6857C9.556 12.9287 10.582 14.0467 12.589 14.4917C14.232 14.8567 15.874 15.2787 17.642 17.5257C17.802 17.7197 17.562 17.9257 17.38 17.7657C15.578 16.1687 13.935 15.6437 12.44 15.6437C10.764 15.6547 9.623 15.8717 8.471 15.8717H8.472ZM23.357 7.21469L22.729 6.44969C22.661 6.36969 22.718 6.24469 22.82 6.24469H24.143C24.212 6.06269 24.246 5.85669 24.246 5.65169C24.246 4.70569 23.539 3.88369 22.569 3.88369C21.6 3.88369 20.893 4.70569 20.893 5.65169C20.893 6.59869 21.6 7.40869 22.569 7.40869C22.843 7.41969 23.117 7.33969 23.357 7.21469Z" fill="#14203B"/>
</g>
</svg>
