<svg width="59" height="18" viewBox="0 0 59 18" fill="none" xmlns="http://www.w3.org/2000/svg">
<g clip-path="url(#clip0_3433_2172)">
<mask id="mask0_3433_2172" style="mask-type:luminance" maskUnits="userSpaceOnUse" x="0" y="0" width="59" height="18">
<path d="M0 0H59V18H0V0Z" fill="white"/>
</mask>
<g mask="url(#mask0_3433_2172)">
<mask id="mask1_3433_2172" style="mask-type:luminance" maskUnits="userSpaceOnUse" x="0" y="0" width="59" height="18">
<path d="M0.484375 0H58.4844V18H0.484375V0Z" fill="white"/>
</mask>
<g mask="url(#mask1_3433_2172)">
<path fill-rule="evenodd" clip-rule="evenodd" d="M42.0654 4.66533C43.3784 4.66533 44.4414 3.75833 44.4414 2.63933C44.4414 1.51933 43.3774 0.611328 42.0654 0.611328C40.7554 0.611328 39.6914 1.51933 39.6914 2.63933C39.6914 3.75933 40.7544 4.66533 42.0654 4.66533ZM23.8674 5.76033C23.7604 5.99033 22.9884 7.85033 21.1224 9.77833V1.53433L16.1494 2.37233V17.3163H21.1224V12.6963C22.5624 14.5413 23.2734 17.3163 23.2734 17.3163H29.2304C28.6404 15.2263 26.0634 11.3713 26.0634 11.3713C28.3764 8.86833 29.3934 6.20133 29.5544 5.76133L23.8674 5.76033ZM36.9404 5.60433C32.4864 5.72633 30.2254 7.43133 30.2254 10.8213V17.3163H35.0854V12.0203C35.0854 9.99033 35.3964 9.12033 38.2194 9.03733V5.66333C37.7444 5.57733 36.9404 5.60433 36.9404 5.60433ZM7.81137 7.40533C7.20137 7.37133 5.79137 7.29333 5.79137 6.21033C5.79137 4.90233 7.82137 4.90233 8.58337 4.90233C9.92338 4.90233 11.6564 5.24033 12.8944 5.55633C12.8944 5.55633 13.5844 5.76433 14.1744 5.97633L14.2274 5.98933V2.40933L14.1524 2.38933C12.6924 1.95333 10.9924 1.53433 7.84237 1.53433C2.40937 1.53433 0.484375 4.23433 0.484375 6.54833C0.484375 7.88233 1.15437 11.0213 7.37537 11.3833C7.90237 11.4113 9.30237 11.4803 9.30237 12.5993C9.30237 13.5243 8.15637 14.0693 6.22937 14.0693C4.11737 14.0693 2.06938 13.6093 0.823375 13.1733V16.8613C2.68638 17.2783 4.78737 17.4863 7.24837 17.4863C12.5604 17.4863 14.9384 14.9313 14.9384 12.3983C14.9384 9.52633 12.2784 7.66033 7.81137 7.40533ZM39.6574 17.3163H44.4774V5.77333H39.6574V17.3163ZM53.5524 2.27033V17.3163H58.3724V1.53433L53.5524 2.27033ZM46.5184 2.27033L51.3344 1.53433V17.3163H46.5184V2.27033Z" fill="#14203B"/>
</g>
</g>
</g>
<defs>
<clipPath id="clip0_3433_2172">
<rect width="59" height="18" fill="white"/>
</clipPath>
</defs>
</svg>
