<svg width="54" height="18" viewBox="0 0 54 18" fill="none" xmlns="http://www.w3.org/2000/svg">
<g clip-path="url(#clip0_3430_2121)">
<mask id="mask0_3430_2121" style="mask-type:luminance" maskUnits="userSpaceOnUse" x="0" y="0" width="54" height="18">
<path d="M0 0H54V18H0V0Z" fill="white"/>
</mask>
<g mask="url(#mask0_3430_2121)">
<path fill-rule="evenodd" clip-rule="evenodd" d="M53.4851 16.7512H53.5891L53.5321 16.4742L53.4561 16.1082C53.2621 15.1762 53.0661 14.2452 52.8711 13.3132L52.2871 10.5172C52.1191 9.71916 51.9531 8.91816 51.7871 8.11816L51.2851 5.71916L50.1751 0.389156C50.1571 0.314156 50.1351 0.285156 50.0531 0.285156H46.5401C46.4411 0.285156 46.3371 0.291156 46.2401 0.308156C45.4921 0.430156 44.9831 0.846156 44.6931 1.54116L41.5311 9.09316L38.3681 16.6462C38.3561 16.6822 38.3431 16.7162 38.3281 16.7512H42.6891C42.7591 16.7512 42.7891 16.7272 42.8121 16.6642C43.0891 15.9002 43.3671 15.1362 43.6391 14.3722C43.6561 14.3142 43.6851 14.2922 43.7491 14.2922H49.0501C49.1201 14.2922 49.1501 14.3142 49.1601 14.3782L49.3701 15.3762C49.4601 15.7992 49.5481 16.2232 49.6351 16.6462C49.6521 16.7332 49.6871 16.7512 49.7681 16.7512H53.4851ZM47.1581 4.76016C47.5861 6.80816 48.0151 8.85716 48.4431 10.9242C47.2561 10.9242 46.0831 10.9242 44.8951 10.9292C45.6421 8.86316 46.3821 6.81416 47.1291 4.75916H47.1591L47.1581 4.76016Z" fill="#14203C"/>
<path d="M0.867188 0.759841C0.902188 0.597841 0.931188 0.447841 0.965188 0.291841H8.14919C9.17319 0.291841 9.96019 0.927841 10.1632 1.92884C10.3602 2.93584 10.5452 3.94384 10.7362 4.95084C10.9382 6.03884 11.1462 7.12684 11.3492 8.21484C11.5462 9.27384 11.7492 10.3318 11.9452 11.3848L11.9692 11.5018C13.4328 7.80393 14.8944 4.10526 16.3542 0.405841C16.3892 0.319841 16.4302 0.290841 16.5222 0.290841C17.9292 0.295841 19.3352 0.290841 20.7422 0.295841H20.8632C20.8462 0.335841 20.8402 0.365841 20.8282 0.394841C18.5542 5.82284 16.2792 11.2448 14.0052 16.6748C13.9822 16.7388 13.9532 16.7678 13.8832 16.7618H9.55519C9.52619 16.7618 9.50319 16.7618 9.46819 16.7548C9.37019 16.3678 9.26619 15.9848 9.16819 15.5988L6.47519 5.18184L5.97219 3.26584C5.83819 2.77384 5.54319 2.42584 5.09819 2.18984C4.42808 1.83894 3.72458 1.55586 2.99819 1.34484C2.31319 1.14184 1.61919 0.974841 0.937188 0.788841C0.917075 0.772565 0.892845 0.763181 0.867188 0.759841ZM38.5612 4.19784C38.1051 3.9918 37.6328 3.82357 37.1492 3.69484C36.3946 3.49362 35.6147 3.40367 34.8342 3.42784C34.3142 3.44584 33.8042 3.52684 33.3352 3.77584C33.0282 3.93784 32.7752 4.15184 32.6412 4.48184C32.4792 4.87484 32.5612 5.22184 32.8262 5.54084C33.0692 5.83084 33.3822 6.04384 33.7062 6.22384C34.3022 6.55884 34.9042 6.87184 35.5062 7.20184C36.1772 7.57184 36.8192 7.98884 37.3582 8.54484C37.9362 9.13484 38.3242 9.82384 38.4632 10.6448C38.5332 11.0678 38.5382 11.4908 38.4932 11.9188C38.4299 12.6091 38.2246 13.2787 37.8902 13.8858C37.3752 14.8058 36.6282 15.4768 35.7142 15.9818C34.9382 16.4098 34.1052 16.6698 33.2312 16.8318C32.4382 16.9768 31.6412 17.0348 30.8352 17.0118C29.5502 16.9718 28.2892 16.7968 27.0622 16.4038C26.8302 16.3278 26.6102 16.2408 26.3722 16.1538C26.6332 14.9498 26.8882 13.7518 27.1422 12.5498C27.1821 12.564 27.2208 12.581 27.2582 12.6008C27.8662 12.8908 28.4792 13.1508 29.1332 13.3178C29.6692 13.4578 30.2182 13.5438 30.7712 13.5728C31.2012 13.5968 31.6222 13.6078 32.0452 13.5498C32.6062 13.4748 33.1392 13.3298 33.5852 12.9598C34.0182 12.6058 34.1802 12.0568 34.0072 11.5648C33.926 11.3487 33.7928 11.156 33.6192 11.0038C33.3149 10.7272 32.974 10.4937 32.6062 10.3098C32.1082 10.0428 31.5992 9.79484 31.1012 9.52284C30.3782 9.12884 29.7062 8.65484 29.1512 8.03484C28.6592 7.48484 28.3112 6.85984 28.1842 6.13084C28.0692 5.47684 28.1262 4.82884 28.2942 4.19084C28.6012 3.06384 29.2672 2.17784 30.1942 1.48984C31.0442 0.858841 32.0042 0.469841 33.0342 0.239841C33.9542 0.0398413 34.8962 -0.0371587 35.8352 0.0128413C36.9863 0.0712333 38.1222 0.301446 39.2052 0.695841C39.2792 0.724841 39.2912 0.747841 39.2792 0.828841C39.0422 1.92884 38.8052 3.02884 38.5732 4.12784C38.5792 4.13784 38.5732 4.16184 38.5612 4.19784ZM19.1962 16.7448L19.3702 15.9168C19.7052 14.3538 20.0352 12.7968 20.3712 11.2358C20.7122 9.64984 21.0482 8.05884 21.3912 6.47284L22.4142 1.70284C22.5072 1.26284 22.5992 0.822841 22.6982 0.382841C22.7092 0.331841 22.7152 0.285841 22.7962 0.285841C24.1622 0.291841 25.5282 0.285841 26.8942 0.285841H26.9642C26.9367 0.434963 26.9054 0.583347 26.8702 0.730841C26.3202 3.30684 25.7702 5.88784 25.2152 8.46384C24.6712 10.9978 24.1272 13.5338 23.5892 16.0668C23.5432 16.2768 23.5022 16.4798 23.4562 16.6868C23.4442 16.7328 23.4262 16.7508 23.3812 16.7508H19.2372C19.2252 16.7558 19.2112 16.7508 19.1962 16.7448Z" fill="#14203C"/>
</g>
</g>
<defs>
<clipPath id="clip0_3430_2121">
<rect width="54" height="18" fill="white"/>
</clipPath>
</defs>
</svg>
