<svg width="245" height="279" viewBox="0 0 245 279" fill="none" xmlns="http://www.w3.org/2000/svg">
<circle cx="122.5" cy="132.5" r="122.5" fill="#FF637F"/>
<path fill-rule="evenodd" clip-rule="evenodd" d="M38.3841 127.643C37.6211 125.251 36.8453 122.871 36.0822 120.478C34.6579 115.972 33.2462 111.441 32.1525 106.821C31.3768 103.601 30.3848 99.0701 31.0588 95.8119C34.0602 81.2007 46.3198 67.315 57.6384 58.1894C60.8291 55.6173 64.1668 53.2332 67.6344 51.0493C67.5072 49.7681 67.4437 48.4699 67.4437 47.1547C67.4411 42.8517 68.1457 38.5776 69.5293 34.5036C73.0521 24.0416 80.6572 15.5523 89.8774 9.72314C100.419 3.36179 112.496 0 124.806 0C137.116 0 149.193 3.36179 159.735 9.72314C168.98 15.5523 176.585 24.0416 180.083 34.5036C181.46 38.5791 182.165 42.8522 182.168 47.1547C182.171 48.6133 182.09 50.0708 181.927 51.5202C186.849 55.2398 191.425 59.3974 195.598 63.9423C203.826 72.8515 211.953 84.9808 214.293 97.0974C214.477 98.4042 214.515 99.7275 214.407 101.043C214.331 102.977 214.178 104.925 214.013 106.859C213.555 112.179 212.907 117.5 212.08 122.769C211.953 123.583 211.775 124.411 211.584 125.225C211.457 125.811 211.317 126.409 211.164 127.007C212.34 127.091 213.506 127.278 214.649 127.567C220.842 129.12 226.095 132.658 228.791 138.576C232.835 147.486 229.579 158.418 224.251 166.08C218.706 174.061 209.549 180.475 199.439 179.368C197.663 179.181 195.911 178.81 194.212 178.261C191.196 184.552 187.005 190.208 181.863 194.921C179.85 196.728 177.66 198.327 175.326 199.694C168.484 203.69 160.739 205.612 152.944 206.643C144.553 207.58 136.117 208.061 127.674 208.081C102.366 208.667 70.038 205.917 57.5494 179.966C57.0662 178.973 56.6083 177.981 56.1632 176.975C53.9867 177.892 51.6843 178.476 49.3339 178.706C47.5134 178.906 45.6746 178.863 43.8654 178.579C36.1331 177.306 29.52 172.05 25.1452 165.762C15.7342 152.233 15.8614 132.9 34.5307 128.216C35.7923 127.894 37.0835 127.702 38.3841 127.643Z" fill="#0F0E0E"/>
<path fill-rule="evenodd" clip-rule="evenodd" d="M214.281 129.246C219.966 130.672 224.798 133.828 227.278 139.288C231.093 147.625 227.85 157.947 222.891 165.087C217.702 172.533 209.156 178.68 199.694 177.636C193.564 176.962 188.096 174.416 185.819 168.332C184.726 165.008 184.408 161.477 184.891 158.01C186.252 144.239 198.155 125.199 214.281 129.246Z" fill="#0F0E0E"/>
<path fill-rule="evenodd" clip-rule="evenodd" d="M213.657 131.779C239.524 138.27 221.084 177.369 199.973 175.053C187.649 173.691 186.797 165.189 187.471 158.278C188.692 145.996 199.35 128.19 213.657 131.779Z" fill="#E9BC9D"/>
<path fill-rule="evenodd" clip-rule="evenodd" d="M198.885 150.375C196.786 151.953 194.93 158.533 194.93 158.533C194.93 158.533 201.823 155.453 204.061 158.368C206.299 161.282 202.509 166.551 202.509 166.551C202.509 166.551 216.193 165.775 219.335 154.447C222.476 143.12 215.265 141.593 213.065 141.389C210.865 141.185 202.942 141.084 198.885 150.375Z" fill="#D17F59"/>
<path fill-rule="evenodd" clip-rule="evenodd" d="M35.0272 129.896C50.7206 125.95 62.3063 144.456 63.6289 157.896C63.7944 159.384 63.8455 160.881 63.7815 162.376C63.3872 171.286 58.0586 176.033 49.2072 177.013C47.5385 177.187 45.8542 177.145 44.1965 176.886C36.9475 175.753 30.7286 170.687 26.6336 164.795C17.9348 152.284 17.5787 134.274 35.0272 129.896Z" fill="#0F0E0E"/>
<path fill-rule="evenodd" clip-rule="evenodd" d="M35.6571 132.429C10.5654 138.793 28.459 176.644 48.9215 174.43C60.8759 173.157 61.7153 164.871 61.0413 158.164C59.8712 146.213 49.5319 128.942 35.6571 132.429Z" fill="#E9BC9D"/>
<path fill-rule="evenodd" clip-rule="evenodd" d="M50.3708 150.375C52.4692 151.953 54.3259 158.533 54.3259 158.533C54.3259 158.533 47.4331 155.453 45.1948 158.368C42.9565 161.282 46.7463 166.551 46.7463 166.551C46.7463 166.551 33.0622 165.775 29.921 154.447C26.7798 143.12 33.9906 141.593 36.1908 141.389C38.3909 141.185 46.3139 141.084 50.3708 150.375Z" fill="#D17F59"/>
<path fill-rule="evenodd" clip-rule="evenodd" d="M30.7557 146.862C32.8414 141.771 36.1352 140.129 41.7691 143.209C45.5843 145.258 47.7845 148.695 49.5395 152.475C51.4217 156.548 49.8065 154.906 53.1894 157.095C53.8634 154.677 53.9652 154.549 52.4518 151.164C45.5335 135.547 28.5683 138.436 30.7557 146.862ZM53.1894 157.044L53.8507 157.477C53.6218 157.362 53.3929 157.273 53.164 157.171V157.044H53.1894ZM53.1894 157.171C52.9986 157.846 52.7697 158.699 52.5154 159.844C49.4505 158.177 44.2871 156.229 44.7704 161.906C45.012 164.77 47.0468 165.393 47.8989 166.755C46.004 166.971 43.6258 164.044 43.2189 162.148C41.6419 155.008 48.1914 155.211 53.1258 157.222L53.1894 157.171Z" fill="#0F0E0E"/>
<path fill-rule="evenodd" clip-rule="evenodd" d="M218.745 146.67C216.583 141.35 213.2 139.721 207.388 142.852C203.573 144.978 201.195 148.503 199.376 152.423C197.43 156.611 199.096 154.969 195.561 157.171C194.874 154.625 194.772 154.625 196.324 151.049C203.458 134.948 220.945 137.914 218.694 146.632L218.745 146.67ZM195.612 157.209L194.938 157.654L195.65 157.349V157.209H195.612ZM195.612 157.349C195.802 158.049 196.031 158.927 196.298 160.098C199.452 158.38 204.781 156.381 204.285 162.223C204.043 165.189 201.932 165.825 201.055 167.238C203.013 167.454 205.468 164.438 205.875 162.478C207.528 155.007 200.724 155.274 195.65 157.349H195.612Z" fill="#0F0E0E"/>
<path fill-rule="evenodd" clip-rule="evenodd" d="M124.868 1.74316C155.606 1.74316 180.52 22.1072 180.52 47.1549C180.52 72.2026 155.581 92.5666 124.868 92.5666C94.1549 92.5666 69.2031 72.2026 69.2031 47.1549C69.2031 22.1072 94.104 1.74316 124.868 1.74316Z" fill="#0F0E0E"/>
<path fill-rule="evenodd" clip-rule="evenodd" d="M124.87 4.35156C95.6197 4.35156 71.8125 23.4428 71.8125 47.1541C71.8125 70.8654 95.5688 89.9567 124.87 89.9567C154.171 89.9567 177.902 70.7891 177.902 47.1541C177.902 23.5192 154.12 4.35156 124.87 4.35156Z" fill="#C5C5C5"/>
<path fill-rule="evenodd" clip-rule="evenodd" d="M124.867 4.35156C104.226 4.35156 86.3454 13.8463 77.5703 27.732C86.3454 33.4975 104.277 37.4558 124.867 37.4558C145.456 37.4558 163.375 33.4975 172.151 27.732C163.35 13.8463 145.469 4.35156 124.867 4.35156Z" fill="white"/>
<path fill-rule="evenodd" clip-rule="evenodd" d="M123.034 4.37695C122.131 4.37695 121.241 4.44059 120.351 4.50423L118.062 6.51517C111.449 12.3571 107.964 20.8081 106.298 29.4247C103.513 43.794 105.866 58.6979 106.921 62.1725C105.822 62.2831 104.714 62.2831 103.615 62.1725C100.859 61.911 98.1609 61.2241 95.6155 60.1361C90.0961 57.7433 85.0218 52.9069 86.408 43.8704C88.1919 33.4619 92.7082 23.7151 99.4943 15.6281C102.421 12.0099 105.822 8.80337 109.605 6.09516C108.091 6.46426 106.591 6.88427 105.141 7.36791C102.611 9.50859 100.275 11.8681 98.159 14.4189C91.1686 22.7504 86.5163 32.7915 84.6784 43.514C83.1396 53.5687 88.7734 58.9524 94.916 61.6252C97.6285 62.7796 100.502 63.5094 103.437 63.7889C106.082 64.0307 108.104 63.6871 108.524 63.1271C108.673 62.9485 108.754 62.7233 108.754 62.4907C108.754 62.2581 108.673 62.0328 108.524 61.8543C107.748 60.7088 104.912 45.054 107.888 29.7174C109.49 21.47 112.81 13.3626 119.092 7.80065C120.555 6.5279 121.814 5.38243 122.907 4.37695H123.034ZM144.056 7.24064C142.785 6.84609 141.513 6.48972 140.241 6.17153C145.998 10.9641 150.904 16.6958 154.752 23.1245C158.984 29.9488 161.727 37.591 162.802 45.5504C164.277 58.0233 164.074 60.7343 163.972 61.307C161.53 62.1216 145.544 66.5889 145.544 44.2267C145.475 30.0369 140.936 16.2304 132.573 4.7715C131.797 4.68241 131.008 4.60604 130.22 4.54241C138.987 15.9341 143.76 29.8988 143.802 44.2776C143.802 71.0054 164.824 62.898 164.888 62.8725C165.072 62.8027 165.227 62.6732 165.328 62.5048C165.43 62.3363 165.472 62.1386 165.447 61.9434C165.676 60.6706 165.854 56.6869 164.532 45.3977C163.425 37.183 160.599 29.2943 156.24 22.2463C152.902 16.6974 148.801 11.646 144.056 7.24064Z" fill="#AFB0B0"/>
<path fill-rule="evenodd" clip-rule="evenodd" d="M59.1815 179.19C42.6488 144.953 45.8663 103.627 65.5403 71.4006C71.6829 61.3459 82.0731 54.7148 93.0101 50.8584C105.327 46.6717 118.409 45.2296 131.341 46.6329C151.473 48.7202 172.037 57.604 183.266 75.1806C189.627 85.2105 194.381 96.174 197.357 107.674C200.225 118.565 201.51 129.813 201.173 141.071C200.575 159.538 194.979 180.857 180.761 193.635C178.836 195.363 176.739 196.89 174.504 198.192C167.878 202.01 160.324 203.932 152.77 204.925C144.441 205.845 136.07 206.321 127.691 206.35C103.121 206.91 71.3013 204.39 59.1815 179.19Z" fill="#0F0E0E"/>
<path fill-rule="evenodd" clip-rule="evenodd" d="M61.5234 178.082C72.5368 200.991 101.177 204.351 127.655 203.741C148.117 203.27 166.57 202.901 179.046 191.688C203.031 170.153 206.516 116.366 181.106 76.6184C157.248 39.2887 87.2255 40.9814 67.7804 72.8001C48.5643 104.199 45.3976 144.583 61.5234 178.082Z" fill="#D17F59"/>
<path fill-rule="evenodd" clip-rule="evenodd" d="M198.631 134.312C198.079 113.857 192.035 93.9286 181.132 76.6184C157.274 39.2887 87.2513 40.9814 67.8062 72.8001C57.4909 89.785 51.7915 109.174 51.2734 129.043C51.6511 143.062 55.1761 156.817 61.5873 169.287C72.6007 190.619 101.241 193.762 127.718 193.202C148.181 192.757 166.634 192.413 179.11 181.977C191.103 171.858 197.983 154.142 198.631 134.312Z" fill="#E9BC9D"/>
<path fill-rule="evenodd" clip-rule="evenodd" d="M51.8945 149.242C57.859 136.362 67.5116 123.036 85.8884 120.961C104.265 118.887 115.533 115.208 120.811 110.156L126.101 105.065C131.816 111.717 139.434 116.452 147.924 118.632C162.168 122.31 167.217 119.79 177.327 124.843C187.438 129.896 198.235 144.393 198.235 144.393C198.235 144.393 178.485 96.359 165.564 86.6988C152.643 77.0387 122.324 65.5457 104.914 72.444C87.5035 79.3423 43.8443 86.6988 51.8945 149.242Z" fill="#D17F59"/>
<path fill-rule="evenodd" clip-rule="evenodd" d="M96.962 110.792C101.617 109.341 103.537 117.054 100.014 119.294C96.4914 121.534 84.2953 123.303 83.3415 119.777C82.3877 116.252 89.7511 110.792 96.962 110.792Z" fill="white"/>
<path fill-rule="evenodd" clip-rule="evenodd" d="M153.902 110.792C149.26 109.341 147.34 117.054 150.862 119.294C154.385 121.534 166.569 123.303 167.535 119.777C168.502 116.252 161.125 110.792 153.902 110.792Z" fill="white"/>
<path fill-rule="evenodd" clip-rule="evenodd" d="M126.612 97.7339C124.908 101.104 122.694 104.191 120.05 106.885C116.131 110.953 111.351 114.089 106.06 116.062C103.975 116.8 101.609 116.978 99.9685 115.183C98.0482 113.058 98.9639 110.181 100.108 107.84C98.6968 108.298 97.2724 108.73 95.8481 109.112C91.8067 110.25 87.8433 111.649 83.9826 113.3C73.16 118.174 65.8856 127.402 59.9084 137.482C59.7557 137.787 59.6286 138.118 59.4887 138.436C59.1707 139.162 58.8655 139.887 58.5603 140.626C57.6828 142.751 56.8562 144.889 56.0931 147.066C55.33 149.242 53.804 153.684 53.9566 155.975V156.688L53.2571 156.879C51.324 157.375 49.5436 154.091 48.806 152.755C47.2535 149.736 45.8983 146.62 44.7491 143.426C42.9686 138.856 41.3408 134.198 39.8528 129.527C38.8481 126.422 37.8435 123.329 36.8515 120.223C35.4271 115.731 34.0282 111.212 32.9345 106.63C32.1969 103.55 31.2176 99.083 31.8535 95.9902C34.8167 81.5955 46.9619 67.8625 58.1279 58.8642C67.9458 50.9604 80.7651 43.5912 93.2918 41.402C101.685 39.9384 110.906 39.8111 118.93 42.9675C121.42 43.909 123.759 45.2081 125.874 46.8239C128.856 44.8133 132.105 43.2323 135.527 42.1275C143.234 39.6965 151.5 39.8875 159.372 41.3511C172.433 43.7821 186.219 54.8677 194.981 64.477C203.095 73.3862 211.145 85.261 213.46 97.2121C213.627 98.4521 213.661 99.7066 213.561 100.954C213.485 102.889 213.332 104.772 213.167 106.732C212.709 112.044 212.069 117.33 211.247 122.591C211.12 123.38 210.942 124.194 210.764 124.971C210.471 126.243 210.166 127.516 209.835 128.789C208.996 132.098 208.067 135.395 207.05 138.653C205.944 142.459 204.575 146.185 202.955 149.802C202.243 151.317 200.335 155.415 198.084 154.511L197.652 154.333L197.563 153.862C197.041 151.151 196.571 148.453 195.973 145.755C195.488 143.217 194.746 140.735 193.76 138.347C190.136 130.622 184.667 123.405 177.291 118.951C173.34 116.531 169.135 114.555 164.752 113.058C161.343 111.9 157.833 109.863 154.387 108.832L153.344 108.514C154.298 110.691 154.87 113.211 153.153 115.12C151.436 117.029 149.147 116.736 147.062 115.998C142.073 114.11 137.543 111.182 133.772 107.407C130.869 104.599 128.45 101.331 126.612 97.7339Z" fill="#0F0E0E"/>
<path fill-rule="evenodd" clip-rule="evenodd" d="M125.808 47.9431C128.874 45.8114 132.238 44.1472 135.792 43.0048C143.422 40.612 151.472 40.8284 159.205 42.2666C172.087 44.6594 185.746 55.6941 194.381 65.1761C202.368 73.8817 210.38 85.7183 212.656 97.4912C212.803 98.6649 212.828 99.8505 212.733 101.029C212.733 102.951 212.516 104.848 212.351 106.77C211.906 112.051 211.257 117.333 210.444 122.564C209.782 126.79 202.406 155.363 198.464 153.772C197.739 150.018 196.391 141.859 194.648 138.054C190.948 130.175 185.365 122.781 177.836 118.275C173.829 115.824 169.564 113.822 165.118 112.306C161.685 111.148 158.187 110.333 154.728 109.29C153.702 108.984 152.697 108.653 151.714 108.297C151.778 108.399 151.828 108.5 151.879 108.602C152.973 110.664 154.423 113.757 152.592 115.832C151.218 117.346 149.158 117.104 147.428 116.468C142.536 114.626 138.093 111.762 134.393 108.068C131.121 104.882 128.492 101.097 126.648 96.9185C124.913 100.854 122.478 104.442 119.462 107.508C115.646 111.449 111.003 114.492 105.867 116.417C104.138 117.028 102.052 117.295 100.704 115.781C98.7837 113.655 100.399 110.422 101.531 108.322L102.001 107.482C99.9156 108.22 97.7918 108.87 95.6425 109.519C91.5638 110.654 87.5658 112.061 83.6753 113.731C72.7001 118.67 65.2985 126.79 59.1941 137.023C59.0415 137.29 52.8353 151.405 53.1405 155.936C49.4525 156.89 40.8045 129.539 40.7282 129.272C39.7235 126.166 38.7189 123.073 37.7269 119.968C36.3152 115.513 34.9163 110.982 33.8226 106.439C33.1486 103.562 32.1566 99.0821 32.7544 96.1676C35.6667 81.9764 47.7483 68.3834 58.7362 59.5506C68.4143 51.7613 81.1318 44.4303 93.4932 42.2666C101.721 40.8284 110.802 40.6884 118.674 43.7939C121.258 44.7882 123.666 46.1889 125.808 47.9431Z" fill="#0F0E0E"/>
<path fill-rule="evenodd" clip-rule="evenodd" d="M125.986 90.3129C123.443 102.557 113.129 111.033 104.951 113.948C99.5972 115.857 103.4 109.57 109.046 101.22C94.9426 110.333 75.0142 105.42 56.9045 135.661C51.4359 144.825 52.6187 146.874 51.6903 149.19C50.9781 150.985 47.2391 141.197 43.1568 128.457C39.456 116.901 34.2545 101.653 35.2592 96.6384C39.8248 74.4035 70.3214 48.8849 93.887 44.7739C116.092 40.892 124.549 50.1831 125.452 51.2522C130.132 48.0067 139.212 41.1593 158.683 44.7739C178.153 48.3885 205.738 75.6381 210.049 97.873C210.723 101.399 206.653 143.87 199.875 145.436C198.323 145.792 198.997 141.325 196.873 136.832C193.872 130.468 188.315 121.559 179.069 115.933C163.299 106.4 155.58 108.984 144.515 101.78C149.933 109.824 153.418 115.781 148.204 113.897C140.382 111.11 130.666 103.231 127.55 91.8529C127.194 90.5801 126.914 89.3074 126.711 88.2765H126.304C126.266 88.9001 126.139 89.5747 125.986 90.3129Z" fill="#C5C5C5"/>
<path fill-rule="evenodd" clip-rule="evenodd" d="M109.945 183.453C126.211 191.344 142.222 183.008 142.222 183.008C133.842 198.777 115.783 198.752 109.945 183.453Z" fill="#D17F59"/>
<path fill-rule="evenodd" clip-rule="evenodd" d="M109.602 70.3689C117.347 66.3979 118.225 67.4034 115.58 70.3689C112.553 73.7926 104.897 79.7873 97.6224 83.8728C96.6686 84.4073 95.7275 84.9037 94.8119 85.3619L94.4431 85.5401C85.172 90.0202 91.4672 90.3256 99.848 87.7038C101.12 87.3219 102.392 86.8765 103.663 86.431C107.011 85.143 110.155 83.3767 112.998 81.1873C119.026 76.3636 121.9 72.7871 123.172 70.6362C123.659 69.9238 124.029 69.1373 124.266 68.3071C124.578 69.1752 124.939 70.025 125.347 70.8526C128.007 76.5955 132.257 81.4544 137.594 84.8528C144.843 89.2311 139.845 79.0109 136.665 73.258C135.521 71.1707 134.605 69.6689 134.605 69.6689C142.418 73.742 150.55 77.1687 158.921 79.9145C159.938 80.2624 160.968 80.5933 162.011 80.9073C169.991 83.4363 178.199 85.1798 186.518 86.1128C187.523 86.2274 188.54 86.3165 189.557 86.3801C193.516 86.6664 197.49 86.6664 201.448 86.3801C203.025 86.2656 204.5 86.0874 205.861 85.8583C200.202 74.4035 190.193 63.0506 179.625 55.0832C178.862 54.5105 178.086 53.9377 177.31 53.4032C170.952 48.9358 164.478 45.7667 158.73 44.7357C146.598 42.483 138.509 44.2903 133.003 46.7594C131.575 47.3955 130.194 48.1313 128.869 48.9613C127.534 49.7886 126.428 50.5777 125.499 51.214C124.642 50.2433 123.663 49.3877 122.587 48.6685C121.09 47.6495 119.486 46.796 117.805 46.123C112.794 44.1375 105.088 42.763 93.9343 44.7103C86.2889 46.2521 78.972 49.1209 72.3146 53.1868C71.5134 53.645 70.7249 54.1286 69.9364 54.625C58.8976 61.5233 48.6218 71.1707 42.0469 81.1873C47.8269 82.3622 53.7337 82.7899 59.6225 82.46C60.6144 82.46 61.6064 82.3582 62.5984 82.2818C70.0997 81.6938 77.5445 80.5279 84.8668 78.7945C85.9223 78.54 86.9906 78.2854 88.0207 78.0181C90.0809 77.4963 92.0776 76.9363 93.9979 76.3636C98.0088 75.1903 101.949 73.788 105.8 72.1635C107.161 71.5398 108.42 71.0053 109.602 70.3689Z" fill="white"/>
<path fill-rule="evenodd" clip-rule="evenodd" d="M92.4607 107.979C92.6217 107.919 92.793 107.893 92.9645 107.901C93.1359 107.909 93.304 107.952 93.4584 108.027C93.6129 108.102 93.7506 108.207 93.8633 108.337C93.976 108.466 94.0613 108.618 94.114 108.781C94.3557 109.456 92.4607 110.054 91.7867 110.283C85.7332 112.396 80.3409 114.814 73.4608 116.481C67.0426 118.195 60.4154 118.996 53.7741 118.861C53.607 118.852 53.4435 118.81 53.2927 118.737C53.1419 118.665 53.0069 118.564 52.8953 118.439C52.6699 118.187 52.5537 117.856 52.5722 117.518C52.5814 117.351 52.6234 117.188 52.6958 117.037C52.7682 116.886 52.8696 116.751 52.9942 116.639C53.2458 116.413 53.5767 116.297 53.9139 116.316C60.3076 116.436 66.6864 115.656 72.863 113.999C79.6033 112.319 86.4581 110.079 92.4607 107.979Z" fill="#0F0E0E"/>
<path fill-rule="evenodd" clip-rule="evenodd" d="M159.202 110.079C159.045 110.009 158.903 109.909 158.786 109.783C158.669 109.657 158.579 109.509 158.521 109.347C158.462 109.185 158.437 109.013 158.447 108.841C158.457 108.67 158.502 108.502 158.579 108.348C158.884 107.699 159.965 108.348 160.613 108.641C165.7 111.021 174.107 112.714 182.386 113.846C188.745 114.699 194.684 114.712 198.448 113.07C198.604 112.999 198.772 112.96 198.943 112.956C199.114 112.951 199.284 112.981 199.444 113.044C199.603 113.107 199.747 113.202 199.869 113.322C199.991 113.442 200.087 113.586 200.152 113.744C200.223 113.9 200.262 114.069 200.266 114.24C200.271 114.411 200.241 114.581 200.178 114.741C200.115 114.9 200.02 115.045 199.9 115.167C199.78 115.289 199.637 115.385 199.478 115.45C195.231 117.295 188.757 117.334 182.042 116.417C174.18 115.338 166.497 113.207 159.202 110.079Z" fill="#0F0E0E"/>
<path fill-rule="evenodd" clip-rule="evenodd" d="M117.476 90.7207C117.702 90.4608 118.022 90.3014 118.365 90.2775C118.708 90.2537 119.047 90.3673 119.307 90.5935C119.567 90.8196 119.726 91.1398 119.75 91.4835C119.774 91.8272 119.66 92.1663 119.434 92.4262C115.014 97.4652 109.783 101.728 103.957 105.039C97.689 108.586 91.0087 111.348 84.0667 113.261C79.1577 114.661 76.9703 114.216 76.5252 112.637C75.8385 110.232 81.5486 105.383 86.4449 101.183C88.5808 99.5406 90.5643 97.7089 92.3712 95.7099C92.5399 95.4061 92.8222 95.1818 93.1561 95.0863C93.49 94.9909 93.8481 95.0321 94.1517 95.2008C94.4553 95.3696 94.6794 95.6522 94.7748 95.9863C94.8702 96.3205 94.829 96.6789 94.6604 96.9827C93.9864 98.2554 91.2139 100.559 88.1236 103.194C83.8123 106.859 78.8017 111.123 79.0306 111.912C79.0306 111.912 80.3023 111.632 83.3545 110.741C90.0872 108.897 96.5701 106.239 102.66 102.825C108.234 99.6394 113.241 95.549 117.476 90.7207Z" fill="#0F0E0E"/>
<path fill-rule="evenodd" clip-rule="evenodd" d="M136.133 94.4117C135.909 94.1501 135.798 93.8101 135.824 93.4664C135.85 93.1227 136.012 92.8035 136.273 92.579C136.535 92.3545 136.875 92.2431 137.218 92.2694C137.561 92.2957 137.88 92.4574 138.105 92.719C142.342 97.5627 147.406 101.614 153.06 104.683C159.261 108.031 165.87 110.56 172.722 112.205C174.155 112.628 175.611 112.968 177.084 113.223C177.3 112.396 172.302 108.31 168.016 104.81C164.913 102.265 162.141 100.012 161.467 98.79C161.383 98.6404 161.33 98.4758 161.31 98.3056C161.29 98.1355 161.304 97.963 161.35 97.7981C161.397 97.6333 161.476 97.4792 161.582 97.3448C161.688 97.2103 161.82 97.0981 161.969 97.0145C162.119 96.9309 162.283 96.8777 162.453 96.8577C162.623 96.8377 162.795 96.8515 162.96 96.8982C163.125 96.9449 163.279 97.0235 163.413 97.1298C163.548 97.236 163.66 97.3677 163.743 97.5173C165.546 99.4454 167.521 101.205 169.644 102.774C174.54 106.77 180.225 111.416 179.615 113.847C179.208 115.45 177.071 115.972 172.086 114.725C165.023 113.015 158.21 110.401 151.814 106.948C145.886 103.732 140.577 99.4873 136.133 94.4117Z" fill="#0F0E0E"/>
<path fill-rule="evenodd" clip-rule="evenodd" d="M151.372 123.074C155.722 123.074 159.244 127.911 159.244 133.854C159.244 139.798 155.722 144.635 151.372 144.635C147.023 144.635 143.5 139.811 143.5 133.854C143.5 127.898 147.023 123.074 151.372 123.074Z" fill="#0F0E0E"/>
<path fill-rule="evenodd" clip-rule="evenodd" d="M84.4001 151.838C91.1023 151.838 96.5454 155.198 96.5454 159.36C96.5454 163.522 91.1023 166.869 84.4001 166.869C77.698 166.869 72.2422 163.509 72.2422 159.36C72.2422 155.211 77.6853 151.838 84.4001 151.838Z" fill="#D17F59"/>
<path fill-rule="evenodd" clip-rule="evenodd" d="M165.439 151.838C172.154 151.838 177.597 155.198 177.597 159.36C177.597 163.522 172.154 166.869 165.439 166.869C158.724 166.869 153.281 163.509 153.281 159.36C153.281 155.211 158.724 151.838 165.439 151.838Z" fill="#D17F59"/>
<path fill-rule="evenodd" clip-rule="evenodd" d="M156.659 125.429C157.136 125.429 157.604 125.571 158.001 125.836C158.398 126.102 158.708 126.48 158.891 126.922C159.074 127.363 159.122 127.85 159.028 128.319C158.935 128.788 158.705 129.219 158.367 129.557C158.029 129.895 157.599 130.125 157.13 130.219C156.661 130.312 156.175 130.264 155.734 130.081C155.292 129.898 154.915 129.588 154.649 129.19C154.384 128.793 154.242 128.325 154.242 127.847C154.242 127.206 154.497 126.591 154.95 126.137C155.403 125.683 156.018 125.429 156.659 125.429Z" fill="white"/>
<path fill-rule="evenodd" clip-rule="evenodd" d="M98.3096 123.074C93.9603 123.074 90.4375 127.911 90.4375 133.854C90.4375 139.798 93.9603 144.635 98.3096 144.635C102.659 144.635 106.169 139.811 106.169 133.854C106.169 127.898 102.646 123.074 98.3096 123.074Z" fill="#0F0E0E"/>
<path fill-rule="evenodd" clip-rule="evenodd" d="M92.9945 125.429C92.5166 125.429 92.0494 125.571 91.652 125.836C91.2546 126.102 90.9449 126.48 90.7621 126.922C90.5792 127.363 90.5313 127.85 90.6246 128.319C90.7178 128.788 90.9479 129.219 91.2859 129.557C91.6238 129.895 92.0543 130.125 92.5231 130.219C92.9918 130.312 93.4776 130.264 93.9191 130.081C94.3607 129.898 94.738 129.588 95.0036 129.19C95.2691 128.793 95.4108 128.325 95.4108 127.847C95.4108 127.206 95.1562 126.591 94.7031 126.137C94.2499 125.683 93.6353 125.429 92.9945 125.429Z" fill="white"/>
<path fill-rule="evenodd" clip-rule="evenodd" d="M108.702 172.749C108.442 172.521 108.283 172.2 108.261 171.855C108.238 171.51 108.353 171.17 108.581 170.91C108.808 170.65 109.13 170.491 109.475 170.469C109.819 170.446 110.159 170.561 110.418 170.789C116.485 176.135 124.815 176.02 124.827 176.02C124.827 176.02 133.17 176.135 139.249 170.789C139.378 170.677 139.527 170.592 139.689 170.537C139.85 170.483 140.021 170.461 140.191 170.473C140.361 170.485 140.527 170.53 140.68 170.606C140.832 170.682 140.969 170.788 141.08 170.916C141.192 171.045 141.278 171.195 141.332 171.356C141.386 171.518 141.408 171.689 141.396 171.859C141.384 172.029 141.339 172.195 141.263 172.348C141.187 172.501 141.082 172.637 140.953 172.749C134.2 178.68 125.031 178.616 124.827 178.616C124.624 178.616 115.467 178.68 108.702 172.749Z" fill="#0F0E0E"/>
<path fill-rule="evenodd" clip-rule="evenodd" d="M125.095 162.44C135.473 162.44 139.479 154.345 139.479 158.838C139.479 163.331 133.273 169.657 124.968 169.657C116.663 169.657 110.305 163.102 110.305 158.609C110.305 154.116 114.692 162.44 125.095 162.44Z" fill="#D17F59"/>
<path fill-rule="evenodd" clip-rule="evenodd" d="M114.073 149.916C109.558 153.823 109.825 155.911 115.802 159.271C123.751 163.738 129.906 162.758 137.422 157.553C140.627 155.325 137.575 151.672 135.629 149.916C136.514 149.998 137.34 150.395 137.956 151.036C145.243 157.68 132.017 163.534 127.909 164.489C118.994 166.576 101.711 154.256 114.073 149.916Z" fill="#0F0E0E"/>
<path fill-rule="evenodd" clip-rule="evenodd" d="M96.9494 179.698C96.6121 179.769 96.2605 179.703 95.9719 179.515C95.6833 179.326 95.4814 179.03 95.4106 178.693C95.3397 178.355 95.4058 178.003 95.5942 177.715C95.7826 177.426 96.078 177.224 96.4153 177.153C98.4319 176.626 100.219 175.45 101.502 173.806C102.74 172.105 103.375 170.041 103.308 167.938C103.296 167.771 103.316 167.603 103.368 167.444C103.421 167.285 103.504 167.137 103.613 167.01C103.722 166.883 103.856 166.779 104.005 166.703C104.155 166.628 104.318 166.583 104.485 166.57C104.652 166.557 104.819 166.578 104.978 166.63C105.138 166.683 105.285 166.766 105.412 166.875C105.539 166.985 105.643 167.118 105.718 167.267C105.794 167.417 105.839 167.58 105.852 167.747C106.002 170.484 105.18 173.185 103.533 175.375C101.885 177.564 99.5172 179.1 96.8476 179.711L96.9494 179.698Z" fill="#D17F59"/>
<path fill-rule="evenodd" clip-rule="evenodd" d="M153.657 177.153C153.994 177.224 154.29 177.426 154.478 177.715C154.667 178.004 154.733 178.355 154.662 178.693C154.591 179.031 154.389 179.326 154.1 179.515C153.812 179.703 153.46 179.769 153.123 179.698C150.453 179.087 148.086 177.551 146.438 175.362C144.79 173.173 143.969 170.471 144.119 167.735C144.132 167.567 144.177 167.404 144.252 167.255C144.328 167.105 144.432 166.972 144.559 166.863C144.686 166.753 144.833 166.67 144.992 166.618C145.151 166.565 145.319 166.545 145.486 166.557C145.653 166.57 145.816 166.615 145.966 166.691C146.115 166.766 146.248 166.871 146.357 166.998C146.467 167.125 146.55 167.272 146.602 167.431C146.655 167.59 146.675 167.758 146.662 167.925C146.596 170.028 147.231 172.093 148.468 173.793C149.772 175.464 151.6 176.648 153.657 177.153Z" fill="#D17F59"/>
<path fill-rule="evenodd" clip-rule="evenodd" d="M130.651 151.188C131.129 151.188 131.596 151.33 131.993 151.596C132.391 151.862 132.7 152.239 132.883 152.681C133.066 153.123 133.114 153.609 133.021 154.078C132.927 154.548 132.697 154.978 132.359 155.317C132.021 155.655 131.591 155.885 131.122 155.978C130.653 156.072 130.168 156.024 129.726 155.841C129.285 155.658 128.907 155.348 128.642 154.95C128.376 154.553 128.234 154.085 128.234 153.607C128.234 152.965 128.489 152.35 128.942 151.897C129.395 151.443 130.01 151.188 130.651 151.188Z" fill="#D17F59"/>
<path fill-rule="evenodd" clip-rule="evenodd" d="M99.5982 140.511C97.8322 140.506 96.1194 141.115 94.7516 142.233C93.3839 143.351 92.4461 144.909 92.098 146.642C91.7498 148.374 92.013 150.174 92.8427 151.735C93.6723 153.295 95.017 154.519 96.6475 155.198C98.278 155.876 100.093 155.968 101.784 155.458C103.475 154.947 104.936 153.865 105.919 152.397C106.901 150.928 107.345 149.164 107.173 147.405C107.002 145.646 106.226 144.001 104.978 142.751C103.551 141.321 101.617 140.516 99.5982 140.511ZM42.2931 130.329C48.0414 129.489 57.1217 131.309 65.9985 134.032C73.8404 136.376 81.4415 139.462 88.6993 143.247C89.6483 141.154 91.1796 139.379 93.1102 138.134C95.0408 136.889 97.2888 136.227 99.5855 136.227C101.882 136.227 104.13 136.889 106.061 138.134C107.991 139.379 109.523 141.154 110.472 143.247C115.732 141.412 121.306 140.65 126.865 141.007C131.596 141.236 136.059 142.203 139.023 143.934C139.735 142.069 140.902 140.411 142.417 139.112C143.933 137.813 145.749 136.914 147.7 136.496C149.652 136.079 151.677 136.156 153.59 136.722C155.504 137.287 157.246 138.323 158.658 139.734C159.773 140.855 160.658 142.182 161.265 143.642C168.367 139.674 175.865 136.462 183.636 134.058C192.156 131.334 200.893 129.514 206.425 130.354L205.917 133.79C200.931 133.039 192.767 134.77 184.678 137.354C175.166 140.396 165.907 144.545 162.118 147.18C162.118 147.511 162.118 147.854 162.118 148.198C162.118 151.371 160.858 154.414 158.616 156.658C156.374 158.901 153.334 160.162 150.163 160.162C146.993 160.162 143.952 158.901 141.71 156.658C139.468 154.414 138.209 151.371 138.209 148.198C138.209 147.994 138.209 147.791 138.209 147.6C136.072 145.754 131.595 144.711 126.648 144.469C121.47 144.106 116.273 144.825 111.387 146.582C111.464 147.117 111.503 147.657 111.502 148.198C111.492 149.827 111.15 151.438 110.496 152.93C109.842 154.422 108.891 155.765 107.7 156.877C106.509 157.988 105.104 158.844 103.57 159.392C102.037 159.941 100.408 160.17 98.7832 160.066C97.1583 159.961 95.5718 159.526 94.121 158.786C92.6702 158.047 91.3857 157.018 90.3462 155.764C89.3067 154.51 88.5342 153.056 88.0761 151.493C87.6179 149.929 87.4838 148.288 87.6819 146.671C83.3071 144.036 74.2395 140.218 64.943 137.367C56.4858 134.821 47.9396 133.027 42.7255 133.79L42.2422 130.354L42.2931 130.329ZM150.201 140.511C148.435 140.506 146.722 141.115 145.355 142.233C143.987 143.351 143.049 144.909 142.701 146.642C142.353 148.374 142.616 150.174 143.446 151.735C144.275 153.295 145.62 154.519 147.25 155.198C148.881 155.876 150.696 155.968 152.387 155.458C154.078 154.947 155.539 153.865 156.522 152.397C157.504 150.928 157.948 149.164 157.776 147.405C157.605 145.646 156.829 144.001 155.581 142.751C154.877 142.039 154.039 141.475 153.115 141.091C152.192 140.706 151.201 140.509 150.201 140.511Z" fill="white"/>
<path fill-rule="evenodd" clip-rule="evenodd" d="M42.7855 135.025C42.5561 135.037 42.3314 134.957 42.1609 134.803C41.9904 134.649 41.888 134.433 41.8761 134.204C41.8643 133.974 41.9441 133.75 42.098 133.579C42.2518 133.408 42.4671 133.306 42.6964 133.294C49.1598 133.064 55.6056 134.102 61.671 136.349L61.938 136.45C71.5271 139.81 87.9454 146.212 87.9962 146.225C88.1654 146.292 88.3092 146.41 88.4074 146.563C88.5056 146.716 88.553 146.896 88.5431 147.078C88.5431 147.752 88.7084 157.896 98.6281 159.054C99.114 159.105 99.6021 159.13 100.091 159.131C101.377 159.158 102.655 158.926 103.85 158.449C105.045 157.973 106.132 157.261 107.047 156.356C108.876 154.449 110.001 151.976 110.239 149.343C110.305 148.76 110.339 148.174 110.341 147.587C110.342 147.4 110.403 147.219 110.515 147.07C110.627 146.921 110.785 146.812 110.964 146.76C111.765 146.441 118.76 143.781 124.623 143.781C124.852 143.781 125.072 143.873 125.234 144.035C125.396 144.197 125.487 144.417 125.487 144.647C125.487 144.876 125.396 145.097 125.234 145.259C125.072 145.421 124.852 145.512 124.623 145.512C120.325 145.744 116.09 146.646 112.071 148.185C112.071 148.643 112.071 149.089 111.969 149.534C111.682 152.538 110.402 155.359 108.332 157.553C107.258 158.62 105.981 159.461 104.576 160.025C103.171 160.59 101.668 160.865 100.154 160.836C99.5974 160.833 99.0412 160.799 98.4882 160.734C88.2379 159.538 87.0424 150.094 86.9025 147.6C84.0029 146.48 70.0009 141.045 61.4675 138.054L61.175 137.952C55.2988 135.769 49.0484 134.774 42.7855 135.025Z" fill="#0F0E0E"/>
<path fill-rule="evenodd" clip-rule="evenodd" d="M206.11 133.371C206.338 133.387 206.551 133.492 206.703 133.663C206.855 133.834 206.934 134.058 206.923 134.287C206.919 134.401 206.891 134.514 206.842 134.617C206.793 134.72 206.724 134.813 206.638 134.889C206.553 134.965 206.453 135.023 206.345 135.059C206.236 135.096 206.122 135.11 206.008 135.102C199.623 134.83 193.253 135.91 187.313 138.271L186.754 138.487C178.182 141.529 165.439 146.455 162.501 147.6C162.784 150.12 162.287 152.665 161.077 154.893C160.16 156.521 158.848 157.891 157.262 158.877C155.684 159.852 153.914 160.473 152.073 160.697C149.136 161.078 146.154 160.507 143.565 159.068C141.701 158.047 140.132 156.56 139.012 154.753C137.857 152.751 137.239 150.484 137.219 148.173C133.196 146.629 128.956 145.727 124.654 145.5C124.425 145.5 124.205 145.409 124.042 145.247C123.88 145.084 123.789 144.864 123.789 144.635C123.789 144.405 123.88 144.185 124.042 144.023C124.205 143.86 124.425 143.769 124.654 143.769C130.529 143.769 137.524 146.429 138.312 146.747C138.494 146.797 138.654 146.905 138.769 147.054C138.884 147.204 138.947 147.386 138.948 147.575C138.874 149.77 139.412 151.942 140.5 153.849C141.457 155.403 142.803 156.68 144.404 157.553C146.67 158.818 149.284 159.318 151.857 158.978C153.447 158.782 154.978 158.248 156.346 157.413C157.694 156.581 158.81 155.421 159.589 154.04C160.718 151.938 161.125 149.523 160.746 147.167C160.715 146.97 160.752 146.767 160.852 146.594C160.951 146.42 161.107 146.286 161.293 146.213C161.293 146.213 176.554 140.269 186.194 136.845L186.728 136.654C192.884 134.201 199.49 133.082 206.11 133.371Z" fill="#0F0E0E"/>
<path fill-rule="evenodd" clip-rule="evenodd" d="M58.2285 198.917C58.1484 198.76 58.0886 198.593 58.0504 198.42C56.9821 195.633 55.3161 192.731 56.359 189.689C57.4018 186.647 60.7211 185.438 63.7351 185.031C64.4601 184.928 65.199 185.057 65.8462 185.4C82.7097 194.411 105.449 196.957 124.347 196.549C143.245 196.142 166.086 192.617 183.191 183.962C183.816 183.635 184.528 183.514 185.226 183.618C188.291 184.026 191.381 185.197 192.64 188.277C194.013 191.611 192.347 195.188 191.368 198.459C190.966 199.619 190.806 200.849 190.898 202.073C191.152 203.477 191.292 204.898 191.317 206.324C191.317 206.541 191.317 206.744 191.317 206.961L191.445 207.037C194.471 208.831 195.908 212.65 195.832 216.035C195.73 218.216 195.082 220.336 193.946 222.2C192.81 224.064 191.224 225.612 189.333 226.701C173.627 236.552 143.296 242.47 124.805 242.47C106.313 242.47 75.9821 236.552 60.276 226.701C58.3823 225.615 56.7936 224.068 55.6574 222.204C54.5213 220.339 53.8745 218.217 53.7773 216.035C53.6883 212.65 55.1254 208.831 58.1521 207.037L58.292 206.961C58.292 206.744 58.292 206.541 58.292 206.324C58.3214 204.898 58.466 203.476 58.7244 202.073C58.7501 201.828 58.7501 201.58 58.7244 201.335C58.6751 200.684 58.5426 200.043 58.3302 199.426L58.2285 198.917Z" fill="#0F0E0E"/>
<path fill-rule="evenodd" clip-rule="evenodd" d="M190.466 207.381L191.051 207.725C193.798 209.354 195.082 212.879 194.993 215.947C194.901 217.984 194.295 219.965 193.232 221.705C192.17 223.446 190.684 224.888 188.914 225.9C173.412 235.623 143.119 241.554 124.869 241.554C106.619 241.554 76.3007 235.636 60.798 225.912C59.0282 224.9 57.5421 223.457 56.4773 221.717C55.4125 219.978 54.8034 217.997 54.7063 215.959C54.63 212.892 55.9145 209.367 58.6615 207.737L59.2338 207.394C59.2338 207.025 59.2338 206.63 59.2338 206.287C59.2546 204.903 59.3907 203.524 59.6407 202.163C59.6728 201.858 59.6728 201.551 59.6407 201.246C59.5847 200.519 59.4394 199.801 59.2083 199.108C58.3054 196.295 56.1434 193.012 57.1862 189.995C58.1528 187.17 61.1923 186.266 63.8629 185.897C64.4022 185.825 64.9505 185.927 65.4272 186.19C82.4305 195.252 105.36 197.835 124.36 197.428C143.36 197.021 166.417 193.444 183.586 184.701C184.057 184.465 184.589 184.376 185.112 184.446C187.846 184.815 190.707 185.821 191.839 188.583C193.111 191.612 191.445 195.188 190.568 198.128C190.12 199.41 189.951 200.772 190.072 202.125C190.315 203.486 190.451 204.865 190.479 206.248C190.504 206.617 190.479 207.012 190.466 207.381Z" fill="#0F0E0E"/>
<path fill-rule="evenodd" clip-rule="evenodd" d="M64.2072 188.467C54.3384 189.817 63.2533 196.231 62.1596 202.595C61.0659 208.959 63.0626 208.119 59.9595 209.964C56.8564 211.81 55.2159 219.344 62.1596 223.697C76.9628 232.975 106.785 238.97 124.844 238.97C142.903 238.97 172.726 233.014 187.529 223.697C194.473 219.344 192.832 211.81 189.716 209.964C186.601 208.119 188.623 208.959 187.529 202.595C186.435 196.231 194.638 188.391 184.769 187.055C153.891 202.684 96.1409 205.51 64.2072 188.467Z" fill="#E6AD3F"/>
<path fill-rule="evenodd" clip-rule="evenodd" d="M66.0234 225.873C67.5114 226.637 69.0884 227.363 70.7544 228.075C71.2025 227.051 71.7077 226.052 72.2677 225.084C74.6714 220.744 77.2149 216.175 75.2055 204.313C74.4424 199.846 73.9337 197.109 74.3916 194.984C74.5137 194.354 74.7145 193.743 74.9893 193.164C73.3233 192.578 71.7082 191.955 70.1312 191.28C69.7423 192.161 69.4564 193.083 69.2791 194.029C68.7068 197.046 69.2791 200.138 70.0803 205.166C71.7845 215.246 69.6988 219.001 67.7276 222.552C67.1299 223.633 66.5321 224.702 66.0234 225.873ZM81.0683 231.792C82.7215 232.301 84.4003 232.797 86.1553 233.255C86.6261 232.131 87.1699 231.038 87.7831 229.984C90.1994 225.644 92.7302 221.075 90.7209 209.213C89.9578 204.746 89.4491 202.009 89.9069 199.897C90.0741 198.997 90.4015 198.135 90.8735 197.351C89.093 197.02 87.338 196.638 85.6211 196.231C85.2464 197.088 84.9691 197.985 84.7945 198.904C84.2222 201.933 84.7945 205.013 85.5957 210.053C87.2998 220.121 85.2269 223.875 83.243 227.439C82.4316 228.828 81.7218 230.274 81.1191 231.766L81.0683 231.792ZM98.8728 236.183C100.615 236.501 102.345 236.806 104.062 237.086C104.572 235.573 105.242 234.118 106.058 232.746C108.475 228.406 111.005 223.837 108.996 211.975C108.246 207.508 107.724 204.771 108.182 202.658C108.413 201.602 108.845 200.599 109.454 199.706C107.572 199.591 105.639 199.438 103.845 199.26C103.521 200.044 103.279 200.858 103.12 201.691C102.561 204.72 103.12 207.8 103.922 212.828C105.626 222.908 103.553 226.663 101.582 230.213C100.447 232.083 99.5539 234.088 98.9237 236.183H98.8728ZM123.227 238.919H124.867C126.05 238.919 127.296 238.919 128.581 238.843C128.365 237.748 128.123 236.692 127.881 235.635C126.137 228.744 125.8 221.571 126.889 214.546C127.5 209.595 127.869 206.566 127.462 203.651C127.293 202.384 126.964 201.144 126.483 199.96C124.575 199.96 122.667 200.049 120.772 200.049C121.55 201.375 122.076 202.834 122.324 204.351C122.629 206.566 122.324 209.366 121.713 213.922C120.544 221.535 120.92 229.305 122.82 236.768C122.985 237.481 123.138 238.181 123.29 238.906L123.227 238.919ZM145.533 237.086C147.25 236.806 148.98 236.501 150.722 236.183C150.096 234.089 149.207 232.083 148.077 230.213C146.106 226.663 144.02 222.908 145.737 212.828C146.589 207.737 147.098 204.72 146.525 201.691C146.307 200.534 145.93 199.412 145.406 198.357C143.532 198.62 141.65 198.849 139.76 199.044C140.571 200.111 141.136 201.346 141.413 202.658C141.82 204.771 141.413 207.508 140.599 211.975C138.59 223.837 141.133 228.406 143.537 232.746C144.364 234.113 145.033 235.569 145.533 237.086ZM163.529 233.268C165.233 232.81 166.912 232.314 168.616 231.804C168.018 230.31 167.308 228.864 166.492 227.477C164.521 223.913 162.448 220.159 164.152 210.091C165.004 205 165.513 201.971 164.94 198.942C164.667 197.503 164.151 196.122 163.414 194.857C161.659 195.315 159.879 195.735 158.06 196.129C158.933 197.252 159.541 198.557 159.841 199.948C160.235 202.06 159.777 204.797 159.027 209.264C157.005 221.126 159.548 225.695 161.952 230.035C162.57 231.086 163.114 232.179 163.58 233.306L163.529 233.268ZM178.879 228.088C180.545 227.375 182.134 226.65 183.622 225.886C183.101 224.715 182.516 223.646 181.905 222.564C179.934 219.013 177.861 215.259 179.565 205.179C180.418 200.151 180.926 197.058 180.367 194.042C180.076 192.547 179.53 191.113 178.752 189.804C177.149 190.466 175.496 191.076 173.792 191.7C174.503 192.685 175.002 193.808 175.254 194.997C175.648 197.122 175.254 199.858 174.44 204.326C172.431 216.175 174.962 220.757 177.378 225.097C177.951 226.057 178.465 227.052 178.917 228.075L178.879 228.088Z" fill="white"/>
<path fill-rule="evenodd" clip-rule="evenodd" d="M154.219 235.483C157.436 234.808 160.577 234.057 163.757 233.205C162.053 220.808 156.711 200.508 140.026 199.019C138.067 199.235 136.096 199.413 134.125 199.553C139.564 203.598 144.128 208.703 147.542 214.561C150.956 220.419 153.15 226.908 153.99 233.637L154.219 235.483Z" fill="#D08B3B"/>
<path fill-rule="evenodd" clip-rule="evenodd" d="M56.6241 211.378C56.5952 211.148 56.6577 210.917 56.7982 210.733C56.9386 210.55 57.1457 210.429 57.3744 210.398C57.6002 210.369 57.8283 210.43 58.0092 210.568C58.1902 210.706 58.3094 210.91 58.341 211.136C58.926 215.349 63.6188 219.625 71.7071 223.469C79.7954 227.312 91.114 230.609 105.103 232.938C126.888 236.553 138.83 233.625 150.2 230.825C151.967 230.393 153.71 229.96 155.541 229.553C156.622 229.298 170.128 224.703 180.671 220.045C186.279 217.5 190.985 215.081 192.358 213.325C192.43 213.229 192.521 213.149 192.625 213.09C192.729 213.03 192.845 212.993 192.964 212.98C193.083 212.966 193.204 212.978 193.318 213.013C193.433 213.049 193.539 213.107 193.63 213.185C193.808 213.328 193.922 213.534 193.948 213.761C193.974 213.987 193.91 214.215 193.77 214.394C192.193 216.405 187.246 219.04 181.408 221.623C170.802 226.332 157.08 230.991 155.973 231.245C154.231 231.64 152.463 232.073 150.67 232.518C139.123 235.356 127.016 238.335 104.887 234.656C90.7198 232.302 79.2104 228.929 71.0076 225.047C62.3216 220.936 57.2981 216.189 56.6241 211.378Z" fill="#0F0E0E"/>
<path fill-rule="evenodd" clip-rule="evenodd" d="M59.1317 198.726C59.0273 198.592 58.9504 198.438 58.9055 198.274C58.8605 198.109 58.8483 197.938 58.8695 197.769C58.8908 197.6 58.9451 197.437 59.0294 197.289C59.1136 197.141 59.2262 197.011 59.3606 196.906C59.4951 196.802 59.6488 196.725 59.8129 196.68C59.9771 196.635 60.1485 196.623 60.3173 196.644C60.4862 196.665 60.6493 196.72 60.7971 196.804C60.945 196.888 61.0749 197.001 61.1792 197.135C66.2662 203.677 66.8767 205.281 66.8767 205.281C67.0048 205.602 67.0005 205.96 66.8645 206.278C66.7286 206.595 66.4722 206.846 66.1518 206.974C65.8314 207.102 65.4731 207.098 65.1559 206.962C64.8387 206.826 64.5885 206.569 64.4604 206.248C64.4604 206.248 63.9771 204.976 59.1317 198.726Z" fill="#0F0E0E"/>
<path fill-rule="evenodd" clip-rule="evenodd" d="M189.559 191.115C189.684 190.792 189.932 190.533 190.248 190.393C190.564 190.254 190.922 190.245 191.244 190.37C191.566 190.495 191.826 190.743 191.965 191.059C192.105 191.376 192.113 191.734 191.988 192.057C189.038 199.693 186.418 202.875 186.405 202.888C186.3 203.024 186.168 203.138 186.018 203.222C185.867 203.305 185.702 203.358 185.53 203.376C185.359 203.394 185.186 203.376 185.022 203.325C184.857 203.274 184.705 203.19 184.574 203.079C184.44 202.973 184.328 202.842 184.245 202.693C184.162 202.543 184.111 202.379 184.093 202.209C184.075 202.039 184.092 201.868 184.141 201.704C184.191 201.541 184.274 201.389 184.383 201.259C184.383 201.259 186.774 198.344 189.559 191.115Z" fill="#0F0E0E"/>
<path fill-rule="evenodd" clip-rule="evenodd" d="M196.584 278.667C185.621 278.782 174.62 278.947 163.658 278.947C162.809 278.956 161.975 278.722 161.254 278.273C159.296 277 158.851 274.645 158.711 272.507C158.678 269.954 158.831 267.402 159.169 264.871C160.101 257.868 160.641 250.819 160.784 243.756C160.784 222.654 153.001 207.19 132.436 199.362C131.711 199.082 129.702 199.019 129.435 198.293C128.952 197.02 134.649 190.657 139.024 191.026C140.544 191.128 142.069 191.128 143.59 191.026C145.586 190.924 147.583 190.746 149.567 190.504C152.864 190.18 156.123 189.536 159.296 188.582C162.978 187.156 167.059 187.156 170.742 188.582C175.663 190.58 179.072 195.137 181.615 199.617C184.458 204.967 186.956 210.493 189.093 216.163C190.982 220.857 192.562 225.67 193.824 230.57C196.133 239.432 197.74 248.463 198.631 257.578C199 261.205 199.267 264.871 199.356 268.536C199.468 271.138 199.409 273.744 199.178 276.338C199.123 276.984 198.824 277.585 198.342 278.017C197.86 278.45 197.231 278.683 196.584 278.667Z" fill="#0F0E0E"/>
<path fill-rule="evenodd" clip-rule="evenodd" d="M133.398 196.932C183.34 215.934 153.454 276.339 163.653 276.339C169.414 276.339 196.554 276.059 196.554 276.059C197.507 266.946 195.345 238.538 186.659 217.181C180.301 201.437 174.438 186.164 160.169 191.064C153.225 192.966 146.037 193.824 138.842 193.61C135.357 193.355 133.398 196.932 133.398 196.932Z" fill="#E6AD3F"/>
<path fill-rule="evenodd" clip-rule="evenodd" d="M133.398 196.931C183.34 215.933 153.454 276.338 163.653 276.338C169.414 276.338 196.554 276.058 196.554 276.058C197.024 271.527 196.732 262.198 195.282 251.328C190.462 251.608 184.345 253.696 176.841 254.637C164.594 256.165 167.659 242.686 163.361 223.366C159.546 205.98 146.205 197.542 135.764 194.462C134.801 195.097 133.992 195.941 133.398 196.931Z" fill="#D08B3B"/>
<path fill-rule="evenodd" clip-rule="evenodd" d="M142.586 201.412C144.22 202.398 145.788 203.491 147.279 204.683C147.851 204.314 148.322 203.957 148.767 203.652C150.42 202.468 151.158 201.934 155.863 203.334C163.303 205.535 167.309 203.13 170.666 201.094C171.382 200.618 172.13 200.193 172.905 199.821C174.977 198.955 178.716 201.004 179.759 201.615C178.42 199.043 176.753 196.656 174.799 194.513C173.48 194.366 172.145 194.541 170.908 195.023C169.894 195.468 168.916 195.992 167.983 196.588C165.503 198.09 162.565 199.859 157.326 198.306C150.191 196.181 148.818 197.173 145.727 199.375C144.732 200.132 143.682 200.812 142.586 201.412Z" fill="white"/>
<path fill-rule="evenodd" clip-rule="evenodd" d="M153.586 211.008C154.672 212.369 155.67 213.797 156.575 215.284L156.727 215.17C158.38 213.986 159.118 213.452 163.824 214.852C171.263 217.053 175.269 214.648 178.627 212.612C179.342 212.136 180.09 211.711 180.865 211.339C182.031 211.014 183.273 211.095 184.388 211.568C183.587 209.646 182.773 207.75 181.946 205.981C180.894 205.951 179.846 206.137 178.868 206.528C177.854 206.978 176.876 207.506 175.943 208.106C173.4 209.595 170.538 211.364 165.286 209.812C158.152 207.699 156.778 208.679 153.7 210.881L153.586 211.008Z" fill="white"/>
<path fill-rule="evenodd" clip-rule="evenodd" d="M160.578 224.053C161.155 225.808 161.635 227.592 162.015 229.399L162.244 229.246C163.897 228.063 164.635 227.528 169.328 228.928C176.78 231.13 180.774 228.724 184.144 226.688C184.862 226.217 185.61 225.792 186.382 225.415C187.466 225.099 188.625 225.153 189.676 225.568C189.091 223.71 188.468 221.864 187.806 220.07C186.641 219.996 185.473 220.178 184.385 220.604C183.371 221.054 182.393 221.582 181.46 222.182C178.98 223.672 176.043 225.441 170.803 223.888C164.8 222.157 162.867 222.577 160.578 224.053Z" fill="white"/>
<path fill-rule="evenodd" clip-rule="evenodd" d="M163.328 239.81C163.43 241.923 163.455 244.01 163.404 246.06C164.307 245.512 165.007 245.016 165.617 244.57C167.271 243.387 168.008 242.865 172.701 244.252C180.153 246.467 184.147 244.049 187.517 242.012C188.234 241.539 188.982 241.113 189.755 240.739C191.027 240.403 192.376 240.52 193.57 241.07C193.214 239.225 192.807 237.367 192.375 235.508C190.835 235.231 189.248 235.376 187.784 235.928C186.772 236.384 185.795 236.911 184.859 237.507C182.379 238.996 179.441 240.765 174.202 239.212C167.639 237.328 165.935 237.99 163.328 239.81Z" fill="white"/>
<path fill-rule="evenodd" clip-rule="evenodd" d="M162.929 254.497C162.725 256.827 162.484 259.054 162.242 261.128C163.394 260.488 164.502 259.774 165.561 258.99C167.215 257.794 167.952 257.272 172.645 258.659C180.098 260.874 184.091 258.468 187.461 256.419C188.178 255.946 188.926 255.521 189.699 255.147C191.429 254.421 194.316 255.719 195.829 256.534C195.626 254.625 195.384 252.639 195.092 250.603C192.736 249.652 190.121 249.557 187.703 250.336C186.691 250.791 185.714 251.318 184.778 251.914C182.298 253.416 179.36 255.172 174.12 253.619C167.304 251.634 165.765 252.474 162.929 254.497Z" fill="white"/>
<path fill-rule="evenodd" clip-rule="evenodd" d="M143.367 193.279C143.146 193.219 142.957 193.075 142.841 192.878C142.724 192.68 142.689 192.445 142.744 192.222C142.806 192 142.953 191.811 143.152 191.695C143.351 191.578 143.588 191.544 143.812 191.599C146.613 192.356 149.465 192.909 152.346 193.253C155.151 193.588 157.979 193.707 160.803 193.61C160.916 193.606 161.03 193.624 161.136 193.663C161.243 193.703 161.34 193.763 161.424 193.841C161.507 193.918 161.574 194.011 161.621 194.115C161.669 194.218 161.695 194.33 161.699 194.443C161.704 194.557 161.685 194.67 161.646 194.777C161.606 194.884 161.546 194.981 161.469 195.065C161.391 195.148 161.298 195.215 161.195 195.263C161.092 195.31 160.98 195.336 160.866 195.341C157.953 195.439 155.037 195.316 152.142 194.972C149.179 194.626 146.246 194.06 143.367 193.279Z" fill="#0F0E0E"/>
</svg>
