<svg width="149" height="205" viewBox="0 0 149 205" fill="none" xmlns="http://www.w3.org/2000/svg">
<path d="M135 184C135 184.725 134.689 185.51 133.939 186.362C133.184 187.221 132.024 188.097 130.449 188.962C127.301 190.693 122.679 192.284 116.882 193.633C105.304 196.325 89.2582 198 71.5 198C53.7418 198 37.6964 196.325 26.1181 193.633C20.321 192.284 15.699 190.693 12.5505 188.962C10.9759 188.097 9.81648 187.221 9.06116 186.362C8.31144 185.51 8 184.725 8 184C8 183.275 8.31144 182.49 9.06116 181.638C9.81648 180.779 10.9759 179.903 12.5505 179.038C15.699 177.307 20.321 175.716 26.1181 174.367C37.6964 171.675 53.7418 170 71.5 170C89.2582 170 105.304 171.675 116.882 174.367C122.679 175.716 127.301 177.307 130.449 179.038C132.024 179.903 133.184 180.779 133.939 181.638C134.689 182.49 135 183.275 135 184Z" fill="#232323" stroke="#272727" stroke-width="2"/>
<mask id="mask0_3207_4063" style="mask-type:luminance" maskUnits="userSpaceOnUse" x="0" y="0" width="149" height="205">
<path d="M149 0H0V204.67H149V0Z" fill="white"/>
</mask>
<g mask="url(#mask0_3207_4063)">
<path fill-rule="evenodd" clip-rule="evenodd" d="M35.4216 47.4214C35.1181 46.5325 34.8095 45.6482 34.5059 44.7593C33.9394 43.0854 33.3778 41.4021 32.9428 39.6857C32.6342 38.4894 32.2396 36.806 32.5077 35.5955C33.7016 30.1673 38.5783 25.0085 43.0806 21.6182C44.3498 20.6626 45.6775 19.7769 47.0568 18.9656C47.0062 18.4896 46.981 18.0073 46.981 17.5187C46.9799 15.9201 47.2602 14.3322 47.8106 12.8186C49.2119 8.9318 52.237 5.77792 55.9047 3.61229C60.0981 1.24896 64.902 0 69.7987 0C74.6954 0 79.4993 1.24896 83.6927 3.61229C87.3704 5.77792 90.3956 8.9318 91.7868 12.8186C92.3348 14.3327 92.615 15.9202 92.6164 17.5187C92.6173 18.0606 92.5852 18.6021 92.5203 19.1405C94.4782 20.5224 96.2984 22.067 97.9585 23.7555C101.232 27.0654 104.464 31.5716 105.395 36.0731C105.468 36.5586 105.483 37.0503 105.44 37.5389C105.41 38.2577 105.349 38.9811 105.284 39.6998C105.102 41.6763 104.844 43.6528 104.515 45.6104C104.464 45.913 104.393 46.2204 104.317 46.523C104.267 46.7405 104.211 46.9627 104.15 47.185C104.618 47.2161 105.082 47.2857 105.537 47.393C108 47.9699 110.09 49.2844 111.162 51.4831C112.771 54.7931 111.476 58.8548 109.356 61.7013C107.15 64.6661 103.508 67.0492 99.4863 66.6378C98.7798 66.5684 98.083 66.4306 97.4071 66.2265C96.2076 68.5639 94.5402 70.6649 92.495 72.416C91.6943 73.0873 90.8231 73.6814 89.8948 74.1892C87.1731 75.6739 84.0923 76.3879 80.9913 76.7709C77.6535 77.1192 74.2979 77.2976 70.9394 77.3052C60.8724 77.5227 48.0129 76.5014 43.0452 66.8601C42.853 66.4912 42.6708 66.1224 42.4938 65.7489C41.628 66.0897 40.7122 66.3065 39.7772 66.392C39.0531 66.4662 38.3216 66.4503 37.6019 66.3447C34.5262 65.8718 31.8956 63.919 30.1554 61.5831C26.4119 56.5568 26.4625 49.3743 33.8888 47.6342C34.3906 47.5145 34.9042 47.4433 35.4216 47.4214Z" fill="#0F0E0E"/>
<path fill-rule="evenodd" clip-rule="evenodd" d="M105.306 47.8979C107.655 48.4226 109.652 49.5845 110.677 51.5945C112.254 54.6632 110.914 58.4629 108.864 61.0912C106.72 63.8321 103.188 66.095 99.2781 65.7108C96.745 65.4625 94.4851 64.5255 93.5444 62.286C93.0926 61.0622 92.9614 59.7624 93.1608 58.4863C93.7231 53.417 98.6422 46.408 105.306 47.8979Z" fill="#0F0E0E"/>
<path fill-rule="evenodd" clip-rule="evenodd" d="M105.056 48.7954C115.802 51.195 108.141 65.6488 99.3717 64.7925C94.2526 64.289 93.8986 61.1461 94.1786 58.5912C94.6858 54.0509 99.1129 47.4686 105.056 48.7954Z" fill="#E9BC9D"/>
<path fill-rule="evenodd" clip-rule="evenodd" d="M33.4332 48.3573C39.1548 46.9037 43.3788 53.7214 43.861 58.6729C43.9214 59.2208 43.94 59.7726 43.9167 60.3233C43.7729 63.6056 41.8302 65.3545 38.6031 65.7156C37.9947 65.7798 37.3806 65.7641 36.7762 65.6687C34.1333 65.2514 31.866 63.3852 30.373 61.2142C27.2016 56.6051 27.0717 49.9703 33.4332 48.3573Z" fill="#0F0E0E"/>
<path fill-rule="evenodd" clip-rule="evenodd" d="M33.887 49.2547C24.5256 51.6094 31.2015 65.6147 38.8358 64.7953C43.2958 64.3243 43.609 61.2586 43.3575 58.7768C42.921 54.3549 39.0635 47.9644 33.887 49.2547Z" fill="#E9BC9D"/>
<path fill-rule="evenodd" clip-rule="evenodd" d="M31.9991 54.478C32.7482 52.5411 33.9314 51.9165 35.955 53.0883C37.3254 53.8679 38.1157 55.1752 38.746 56.6133C39.4221 58.1628 38.842 57.5382 40.0571 58.371C40.2992 57.451 40.3357 57.4026 39.7921 56.1146C37.3071 50.1733 31.2134 51.2725 31.9991 54.478ZM40.0571 58.3517L40.2946 58.5163C40.2124 58.4727 40.1301 58.4388 40.0479 58.4001V58.3517H40.0571ZM40.0571 58.4001C39.9885 58.6567 39.9063 58.9811 39.815 59.4169C38.7141 58.7826 36.8595 58.0418 37.033 60.2013C37.1198 61.2908 37.8507 61.5281 38.1568 62.0462C37.4761 62.1285 36.6219 61.0148 36.4757 60.2933C35.9093 57.5769 38.2618 57.6544 40.0342 58.4194L40.0571 58.4001Z" fill="#0F0E0E"/>
<path fill-rule="evenodd" clip-rule="evenodd" d="M107.106 54.4887C106.21 52.5338 104.807 51.9352 102.397 53.0857C100.815 53.8667 99.829 55.1622 99.0748 56.6026C98.268 58.1413 98.9588 57.538 97.4928 58.3471C97.208 57.4117 97.1658 57.4117 97.8092 56.0976C100.768 50.1814 108.019 51.2711 107.085 54.4747L107.106 54.4887ZM97.5139 58.3611L97.2344 58.5248L97.5297 58.4126V58.3611H97.5139ZM97.5139 58.4126C97.593 58.6698 97.6879 58.9925 97.7987 59.4228C99.1065 58.7914 101.316 58.0571 101.11 60.2038C101.01 61.2935 100.135 61.5273 99.771 62.0464C100.583 62.1259 101.601 61.0175 101.77 60.2973C102.455 57.552 99.6338 57.6502 97.5297 58.4126H97.5139Z" fill="#0F0E0E"/>
<path fill-rule="evenodd" clip-rule="evenodd" d="M42.1876 66.4613C35.2646 53.7632 36.6119 38.4359 44.8503 26.4836C47.4225 22.7544 51.7734 20.2951 56.3532 18.8648C61.5108 17.312 66.9889 16.7771 72.4041 17.2976C80.8342 18.0717 89.4454 21.3666 94.1478 27.8856C96.8112 31.6056 98.8021 35.6718 100.048 39.937C101.249 43.9764 101.787 48.1481 101.646 52.3235C101.396 59.1729 99.0525 67.0797 93.0987 71.8191C92.2924 72.4599 91.4145 73.0261 90.4785 73.509C87.704 74.9251 84.5407 75.6379 81.3774 76.0061C77.8899 76.3476 74.3843 76.524 70.8757 76.5348C60.5869 76.7425 47.2627 75.8078 42.1876 66.4613Z" fill="#0F0E0E"/>
<path fill-rule="evenodd" clip-rule="evenodd" d="M43.1583 66.0482C47.7701 74.5451 59.7629 75.7913 70.8505 75.5647C79.4191 75.39 87.1463 75.2531 92.3705 71.0944C102.414 63.1074 103.873 43.1586 93.2332 28.4166C83.2427 14.5714 53.9209 15.1993 45.7784 27.0004C37.7317 38.6459 36.4056 53.6239 43.1583 66.0482Z" fill="#D17F59"/>
<path fill-rule="evenodd" clip-rule="evenodd" d="M39.1293 55.3531C41.6269 50.576 45.6689 45.6337 53.3641 44.8642C61.0594 44.0948 65.7777 42.7306 67.9878 40.8566L70.2031 38.9684C72.5962 41.4355 75.786 43.192 79.3416 44.0004C85.306 45.3646 87.4202 44.43 91.6539 46.304C95.8876 48.178 100.409 53.5546 100.409 53.5546C100.409 53.5546 92.1385 35.7396 86.7279 32.1567C81.3173 28.5739 68.6215 24.3113 61.331 26.8698C54.0405 29.4283 35.7583 32.1567 39.1293 55.3531Z" fill="#D17F59"/>
<path fill-rule="evenodd" clip-rule="evenodd" d="M70.4531 36.248C69.7395 37.4979 68.8126 38.6427 67.7052 39.6421C66.0645 41.1508 64.0626 42.3139 61.8472 43.0455C60.9738 43.3193 59.9833 43.3854 59.2963 42.7198C58.4922 41.9315 58.8756 40.8647 59.3549 39.9961C58.7638 40.166 58.1673 40.3265 57.5709 40.4681C55.8786 40.8902 54.2189 41.409 52.6023 42.0212C48.0703 43.8291 45.0242 47.2515 42.5213 50.9901C42.4573 51.1034 42.4041 51.2261 42.3455 51.3441C42.2124 51.6132 42.0846 51.8822 41.9568 52.156C41.5893 52.9444 41.2432 53.7374 40.9236 54.5446C40.6041 55.3518 39.9651 56.9992 40.029 57.8489V58.1133L39.7361 58.1841C38.9266 58.3682 38.181 57.1503 37.8722 56.6546C37.2221 55.5351 36.6546 54.3793 36.1734 53.1945C35.4278 51.4999 34.7461 49.7722 34.1231 48.0398C33.7024 46.888 33.2816 45.7409 32.8663 44.5891C32.2698 42.9228 31.684 41.247 31.226 39.5476C30.9172 38.4053 30.5071 36.7484 30.7734 35.6013C32.0142 30.2625 37.1 25.1691 41.7757 21.8317C45.8869 18.9003 51.2549 16.1671 56.5005 15.3552C60.0153 14.8124 63.8762 14.7652 67.2365 15.9358C68.2789 16.285 69.2584 16.7668 70.1442 17.3661C71.3928 16.6204 72.7534 16.0341 74.1862 15.6243C77.4134 14.7227 80.8749 14.7935 84.1714 15.3363C89.6406 16.2379 95.4133 20.3495 99.0826 23.9134C102.48 27.2178 105.851 31.622 106.82 36.0545C106.891 36.5144 106.905 36.9797 106.863 37.4423C106.831 38.1598 106.767 38.8585 106.698 39.5854C106.506 41.5554 106.238 43.516 105.894 45.4671C105.841 45.7598 105.766 46.0619 105.691 46.3498C105.569 46.8219 105.441 47.2939 105.303 47.766C104.951 48.9933 104.562 50.2159 104.136 51.4244C103.673 52.8362 103.1 54.2178 102.422 55.5595C102.123 56.1212 101.325 57.6412 100.382 57.3061L100.201 57.24L100.164 57.0653C99.9453 56.0599 99.7482 55.0591 99.4979 54.0584C99.2947 53.1172 98.9843 52.1967 98.5713 51.3111C97.0536 48.4457 94.7636 45.7692 91.6749 44.1171C90.0206 43.2196 88.2596 42.4867 86.424 41.9315C84.9968 41.5019 83.527 40.7467 82.0838 40.3643L81.6471 40.2463C82.0465 41.0535 82.2862 41.9881 81.5672 42.6962C80.8483 43.4043 79.8897 43.2957 79.0164 43.0219C76.9274 42.3218 75.0303 41.2356 73.4513 39.8356C72.2358 38.7943 71.2228 37.5821 70.4531 36.248Z" fill="#0F0E0E"/>
<path fill-rule="evenodd" clip-rule="evenodd" d="M125.876 101.052C123.746 100.467 121.084 100.552 118.868 100.75C116.805 100.944 114.757 101.245 112.733 101.652C111.801 101.836 110.848 102.034 109.932 102.265C109.758 102.307 109.598 102.386 109.468 102.497C109.337 102.608 109.241 102.747 109.188 102.899C109.135 103.052 109.126 103.215 109.163 103.371C109.2 103.528 109.282 103.674 109.4 103.795C111.594 106.259 113.953 108.709 116.323 111.017C117.926 112.607 119.648 114.099 121.478 115.483C122.58 116.281 123.368 118.641 124.881 117.975C128.417 116.408 128.108 109.639 127.597 106.717C127.314 105.069 126.963 103.436 126.627 101.803C126.594 101.628 126.506 101.465 126.374 101.332C126.241 101.199 126.069 101.102 125.876 101.052Z" fill="#0F0E0E"/>
<path fill-rule="evenodd" clip-rule="evenodd" d="M125.535 101.973C126.568 107.015 127.607 115.12 124.848 116.342C122.089 117.565 110.203 103.196 110.203 103.196C110.203 103.196 120.54 100.6 125.535 101.973Z" fill="#D17F59"/>
<path fill-rule="evenodd" clip-rule="evenodd" d="M108.296 182.488C108.525 182.53 108.802 182.568 108.951 182.601C109.301 185.221 102.243 198.881 97.8049 190.158C97.6312 189.955 97.4847 189.735 97.3682 189.502C97.1941 189.11 97.0726 188.702 97.006 188.284C96.8623 187.6 96.7078 186.92 96.5267 186.24C96.383 185.679 96.2285 185.117 96.0688 184.56C95.8504 183.781 95.6214 183.007 95.3711 182.237C95.207 181.698 95.0097 181.167 94.78 180.647C93.8072 178.56 92.854 176.467 91.9203 174.368C89.3179 168.524 86.8061 162.644 84.3848 156.728C84.3316 156.607 84.3073 156.477 84.3134 156.347C84.3196 156.216 84.3561 156.089 84.4206 155.972C84.4852 155.855 84.5763 155.751 84.6884 155.666C84.8004 155.582 84.931 155.519 85.0718 155.482L109.531 148.458C109.681 148.415 109.838 148.402 109.994 148.418C110.149 148.434 110.299 148.48 110.433 148.552C110.567 148.624 110.682 148.721 110.77 148.836C110.858 148.95 110.917 149.081 110.943 149.218C112.847 159.819 112.067 170.662 108.658 180.963C108.495 181.463 108.374 181.972 108.296 182.488Z" fill="#0F0E0E"/>
<path fill-rule="evenodd" clip-rule="evenodd" d="M109.831 149.372C112.121 161.4 110.178 172.861 107.573 180.683C107.367 181.315 107.221 181.96 107.137 182.614C116.056 177.116 98.8035 201.195 98.6215 189.581C98.6071 188.667 98.2061 188.557 97.5564 186.022C97.0877 184.075 96.4938 182.154 95.7777 180.268C91.0221 170.128 85.3984 156.391 85.3984 156.391L109.831 149.372Z" fill="#E9BC9D"/>
<path fill-rule="evenodd" clip-rule="evenodd" d="M49.9437 190.086C49.5277 190.456 48.9103 191.023 48.3753 191.243C41.4286 192.723 37.9192 189.622 39.5951 182.509C39.5108 181.992 39.3862 181.481 39.2223 180.98C35.8135 170.679 35.0331 159.835 36.9377 149.234C36.9638 149.097 37.0228 148.967 37.1108 148.852C37.1987 148.737 37.3135 148.64 37.4474 148.568C37.5812 148.496 37.7311 148.451 37.8866 148.434C38.0422 148.418 38.1999 148.432 38.349 148.474L62.8086 155.498C62.9494 155.536 63.08 155.599 63.192 155.683C63.3041 155.767 63.3952 155.871 63.4598 155.988C63.5243 156.105 63.5608 156.233 63.567 156.363C63.5731 156.493 63.5488 156.623 63.4956 156.745C61.0779 162.648 58.5661 168.528 55.9601 174.385C55.03 176.487 54.0767 178.58 53.1004 180.663C52.8707 181.184 52.6734 181.715 52.5093 182.254C52.2537 183.023 52.0247 183.798 51.8063 184.572C51.7318 184.85 51.6519 185.124 51.5773 185.403C51.2205 186.786 51.0993 189.019 49.9437 190.086Z" fill="#0F0E0E"/>
<path fill-rule="evenodd" clip-rule="evenodd" d="M38.0223 149.372C35.7323 161.4 37.6815 172.861 40.2803 180.683C40.4867 181.315 40.6328 181.96 40.7169 182.614C38.0223 193.786 50.4538 191.934 50.1924 186.84C50.1054 185.145 51.5158 181.872 52.1559 180.272C56.9116 170.133 62.5299 156.396 62.5299 156.396L38.0223 149.372Z" fill="#E9BC9D"/>
<path fill-rule="evenodd" clip-rule="evenodd" d="M45.2223 172.442C47.5336 173.008 50.6116 174.83 49.7116 178.012C48.9767 180.627 48.9288 185.154 47.2353 188.015H47.2833C47.4856 187.939 47.6933 187.873 47.901 187.816C48.6312 187.593 49.404 187.5 50.175 187.543C50.2921 186.707 50.372 185.82 50.5477 185.182C50.9718 183.528 51.5052 181.896 52.1454 180.297C52.9868 178.503 53.8548 176.596 54.7122 174.675C53.2035 174.206 51.7711 173.563 50.4519 172.763C49.2972 172.059 48.0989 171.413 46.8626 170.828C46.3124 170.56 45.7043 170.399 45.0785 170.355C44.4891 170.363 43.9027 170.433 43.3318 170.563C42.2667 170.761 41.2016 170.955 40.0833 171.101C39.3785 171.2 38.6665 171.252 37.9531 171.257C38.0383 171.729 38.1235 172.234 38.2194 172.711C41.2389 172.824 43.5395 172.027 45.2223 172.442Z" fill="#D17F59"/>
<path fill-rule="evenodd" clip-rule="evenodd" d="M92.6641 173.417C93.6972 175.753 94.7623 178.095 95.7848 180.271C96.5079 182.155 97.1089 184.075 97.5847 186.02C97.7445 186.62 97.8563 187.097 97.9362 187.479C98.693 187.412 99.4561 187.527 100.146 187.81L100.546 187.956C98.8842 185.095 98.8309 180.611 98.1013 178.015C97.2013 174.833 100.279 173.011 102.591 172.444C104.295 172.024 106.627 172.841 109.689 172.662C109.849 171.831 109.993 170.986 110.126 170.117L109.876 170.287C108.209 171.373 106.217 171.311 104.258 171.057C103.16 170.91 102.095 170.717 101.014 170.518C100.442 170.389 99.8534 170.319 99.2623 170.311C98.6365 170.354 98.0284 170.515 97.4782 170.783C96.243 171.367 95.0463 172.013 93.8942 172.718C93.4842 172.978 93.0741 173.2 92.6641 173.417Z" fill="#D17F59"/>
<path fill-rule="evenodd" clip-rule="evenodd" d="M94.8558 74.7166C96.6185 75.1887 98.3972 75.6324 100.181 76.1328C105.746 77.6528 110.257 79.4702 114.624 82.9916C120.977 88.1133 125.418 95.6425 128.72 102.558C128.869 102.987 128.932 103.436 128.907 103.884C128.8 104.201 127.112 104.55 127.107 104.55C126.814 104.484 126.547 103.681 126.249 103.606C125.184 103.389 124.119 103.2 123.054 103.039C119.871 102.536 116.631 102.377 113.404 102.567C111.12 102.728 108.979 103.313 106.779 103.828C105.118 104.215 102.839 104.744 101.262 103.894C101.04 103.775 100.835 103.631 100.655 103.464L72.75 78.224L94.5842 74.6553L94.8558 74.7166Z" fill="#0F0E0E"/>
<path fill-rule="evenodd" clip-rule="evenodd" d="M94.5162 75.6396C106.014 78.7363 116.723 79.9683 127.678 102.915C127.678 102.943 120.536 101.078 113.299 101.593C108 101.966 103.319 104.501 101.413 102.778L74.9453 78.8354L94.5162 75.6396Z" fill="#CD591C"/>
<path fill-rule="evenodd" clip-rule="evenodd" d="M19.989 101.052C22.1192 100.467 24.7819 100.552 27.0026 100.75C29.0657 100.944 31.1141 101.245 33.1375 101.652C34.0695 101.836 35.0174 102.034 35.9387 102.265C36.1154 102.304 36.2781 102.381 36.4114 102.491C36.5447 102.6 36.6441 102.738 36.7002 102.892C36.7562 103.045 36.7671 103.209 36.7316 103.367C36.6962 103.525 36.6157 103.672 36.4979 103.795C34.2985 106.259 31.9446 108.709 29.5482 111.017C27.945 112.607 26.2228 114.099 24.3932 115.483C23.2908 116.281 22.5026 118.641 20.9902 117.975C17.4541 116.408 17.7577 109.639 18.2689 106.717C18.5565 105.069 18.908 103.436 19.2435 101.803C19.276 101.628 19.3631 101.466 19.4949 101.333C19.6268 101.2 19.798 101.103 19.989 101.052Z" fill="#0F0E0E"/>
<path fill-rule="evenodd" clip-rule="evenodd" d="M20.2923 101.973C19.2592 107.015 18.2208 115.12 20.9793 116.342C23.7379 117.565 35.6189 103.196 35.6189 103.196C35.6189 103.196 25.2876 100.6 20.2923 101.973Z" fill="#D17F59"/>
<path fill-rule="evenodd" clip-rule="evenodd" d="M20.368 102.024C19.7716 104.951 19.1751 108.902 19.3029 111.937C19.4041 114.099 19.8834 115.794 21.0071 116.29C23.5952 117.437 34.5816 104.333 35.4976 103.238C34.4325 102.978 25.0597 100.764 20.352 102.029L20.368 102.024ZM19.1698 111.937C19.026 108.879 19.6331 104.899 20.2349 101.963V101.925H20.2775C25.294 100.547 35.6147 103.138 35.6467 103.148L35.7478 103.172L35.6839 103.247C35.652 103.29 23.7603 117.659 20.9485 116.412C19.7769 115.879 19.2763 114.137 19.1698 111.937Z" fill="#0F0E0E"/>
<path fill-rule="evenodd" clip-rule="evenodd" d="M52.9223 74.2275L45.4081 103.83L44.4389 103.735C42.6283 103.565 40.7111 103.513 38.8951 103.476C33.9064 103.394 28.9163 103.552 23.9467 103.948C22.6372 104.064 21.361 104.384 20.1763 104.892C19.7716 105.057 19.1112 106.067 18.6852 106.232C18.3698 106.335 18.0294 106.36 17.699 106.307C17.3686 106.254 17.0601 106.124 16.8053 105.93C16.1875 105.496 16.7467 104.297 16.9597 103.721C20.0858 95.3139 24.7828 86.6093 33.0851 81.2846C35.8982 79.516 38.9828 78.1139 42.2448 77.1212C45.1685 76.1771 48.1614 75.5115 51.1276 74.7137L52.9223 74.2275Z" fill="#0F0E0E"/>
<path fill-rule="evenodd" clip-rule="evenodd" d="M51.4512 75.6396C39.9536 78.7363 26.8371 80.2232 18.0022 104.024C17.3365 105.813 19.4773 103.335 23.8602 102.99C36.508 102.008 44.5654 102.778 44.5654 102.778L51.4512 75.6396Z" fill="#CD591C"/>
<path fill-rule="evenodd" clip-rule="evenodd" d="M23.1406 155.509H121.176C121.606 155.505 122.022 155.639 122.348 155.886C122.907 156.306 123.472 156.717 124.015 157.151C125.687 158.468 127.668 160.253 127.641 162.382C127.641 164.27 126.07 165.587 124.334 166.46C123.054 167.16 121.601 167.574 120.101 167.669C119.157 167.669 118.218 167.545 117.315 167.3C116.841 167.17 116.339 167.137 115.848 167.204C115.358 167.271 114.89 167.437 114.482 167.688C113.657 168.093 112.9 168.6 112.235 169.193C111.633 169.771 110.986 170.309 110.297 170.803C108.459 172.002 106.297 171.974 104.14 171.69C103.038 171.544 101.946 171.346 100.855 171.143C100.332 171.025 99.796 170.96 99.2569 170.949C98.7355 170.998 98.2314 171.143 97.7764 171.374C96.5628 171.94 95.389 172.571 94.2617 173.262C91.1303 175.08 87.8712 176.274 84.0688 175.566C82.2601 175.154 80.504 174.579 78.8286 173.848C77.3433 173.259 75.7611 172.884 74.1422 172.738C73.5742 172.682 73.0008 172.682 72.4328 172.738C72.237 172.767 72.0374 172.767 71.8416 172.738C71.2736 172.682 70.7002 172.682 70.1322 172.738C68.5134 172.885 66.9313 173.259 65.4458 173.848C63.7703 174.579 62.0143 175.154 60.2056 175.566C56.4139 176.274 53.1441 175.094 50.018 173.262C48.8892 172.573 47.7156 171.942 46.5033 171.374C46.0464 171.143 45.5405 170.999 45.0175 170.949C44.4785 170.961 43.9426 171.026 43.4198 171.143C42.3548 171.346 41.2364 171.544 40.1341 171.69C37.9773 171.974 35.8151 172.002 33.9779 170.803C33.2893 170.31 32.6431 169.772 32.0447 169.193C31.3772 168.602 30.621 168.096 29.7974 167.688C29.3884 167.436 28.9203 167.271 28.4285 167.204C27.9368 167.137 27.4342 167.17 26.959 167.3C26.0565 167.546 25.1177 167.67 24.1738 167.669C22.6747 167.575 21.2237 167.16 19.9454 166.46C18.204 165.587 16.6543 164.275 16.633 162.382C16.6063 159.691 19.8282 157.468 21.9264 155.886C22.2636 155.63 22.6968 155.495 23.1406 155.509Z" fill="#0F0E0E"/>
<path fill-rule="evenodd" clip-rule="evenodd" d="M23.1341 156.146H121.17C121.429 156.142 121.68 156.224 121.873 156.377C122.405 156.788 122.986 157.199 123.524 157.628C125.009 158.799 126.932 160.46 126.905 162.349C126.905 163.996 125.467 165.119 123.966 165.875C122.789 166.522 121.454 166.909 120.073 167.003C119.195 167 118.323 166.881 117.485 166.649C116.919 166.5 116.324 166.465 115.741 166.547C115.159 166.629 114.605 166.825 114.119 167.121C113.238 167.554 112.429 168.094 111.717 168.726C111.141 169.283 110.52 169.802 109.859 170.279C108.192 171.365 106.2 171.303 104.24 171.048C103.143 170.902 102.078 170.709 100.997 170.51C100.424 170.38 99.8362 170.311 99.245 170.303C98.6193 170.346 98.0111 170.507 97.461 170.775C96.2257 171.359 95.0291 172.005 93.877 172.71C90.9107 174.438 87.822 175.594 84.2326 174.924C82.4743 174.519 80.7668 173.958 79.1362 173.248C77.5777 172.632 75.9185 172.24 74.2209 172.087C73.5944 172.026 72.9622 172.026 72.3357 172.087C72.2157 172.103 72.0935 172.103 71.9735 172.087C71.3454 172.023 70.7111 172.023 70.083 172.087C68.387 172.24 66.7294 172.632 65.173 173.248C63.5402 173.957 61.8309 174.519 60.0712 174.924C56.4872 175.594 53.3931 174.452 50.4322 172.71C49.2775 172.006 48.0792 171.36 46.8429 170.775C46.2927 170.507 45.6846 170.346 45.0589 170.303C44.4694 170.31 43.883 170.38 43.3121 170.51C42.247 170.709 41.1819 170.902 40.0636 171.048C38.1038 171.303 36.1121 171.365 34.4453 170.279C33.7851 169.801 33.1641 169.282 32.5867 168.726C31.8747 168.094 31.0662 167.554 30.1849 167.121C29.6992 166.825 29.1448 166.629 28.5625 166.547C27.9801 166.465 27.3845 166.5 26.8193 166.649C25.983 166.88 25.1125 166.999 24.2364 167.003C22.8537 166.91 21.5166 166.523 20.3382 165.875C18.8418 165.119 17.4146 163.987 17.3986 162.349C17.372 159.951 20.514 157.789 22.4311 156.358C22.6291 156.215 22.8786 156.14 23.1341 156.146Z" fill="#0F0E0E"/>
<path fill-rule="evenodd" clip-rule="evenodd" d="M23.1466 157.121C20.0845 159.411 15.7283 162.465 20.8886 165.061C26.0489 167.657 26.3738 164.145 30.7246 166.279C35.0755 168.412 34.1116 170.862 39.9163 170.098C45.721 169.333 44.7518 168.266 51.0411 171.929C57.3304 175.592 60.3926 174.068 64.7488 172.401C69.1049 170.735 72.1671 171.179 72.1671 171.179C72.1671 171.179 75.2292 170.707 79.5801 172.401C83.9309 174.096 86.9984 175.606 93.2877 171.929C99.577 168.252 98.6131 169.333 104.412 170.098C110.212 170.862 109.253 168.417 113.604 166.279C117.955 164.14 118.28 167.657 123.44 165.061C128.601 162.465 124.25 159.396 121.182 157.121H23.1466Z" fill="#E6AD3F"/>
<path fill-rule="evenodd" clip-rule="evenodd" d="M120.292 141.904C121.493 147.003 122.303 152.168 122.715 157.364C122.966 160.914 119.328 161.952 116.122 163.127C111.479 164.822 96.0297 166.696 75.2552 166.828C52.0949 166.979 23.311 164.227 21.74 159.412C21.5781 158.905 21.5133 158.377 21.5483 157.85C21.9387 152.49 22.7609 147.161 24.0086 141.904C26.3028 131.48 29.4187 121.212 33.3335 111.174C35.7141 105.058 38.6288 99.1157 42.0512 93.4013C42.9405 91.9474 42.7169 97.1777 43.6967 95.7615C49.5547 87.4016 59.1405 75.9355 71.2558 75.9355C83.3711 75.9355 91.0025 83.2192 96.8604 91.5792C97.3237 92.2448 100.381 94.3454 100.673 93.2975C100.966 92.2495 101.238 92.5611 101.446 92.882C105.226 98.7108 108.414 104.826 110.973 111.155C114.883 121.2 117.997 131.475 120.292 141.904Z" fill="#0F0E0E"/>
<path fill-rule="evenodd" clip-rule="evenodd" d="M119.246 142.094C120.438 147.148 121.242 152.267 121.653 157.417C122.479 169.1 22.0677 167.609 22.6588 157.889C23.0506 152.575 23.8656 147.292 25.0979 142.08C30.7695 117.265 38.5765 99.0437 47.3901 87.4313C47.6883 87.0395 41.825 80.4072 42.1233 80.0296C47.9812 72.6562 59.5002 82.1727 66.4179 81.1106C88.0604 77.7874 107.53 90.8206 119.246 142.094Z" fill="#CD591C"/>
<path fill-rule="evenodd" clip-rule="evenodd" d="M60.8317 165.433C40.233 164.645 22.3981 162.011 22.6591 157.904C23.0508 152.59 23.8659 147.308 25.0981 142.095C27.0464 133.384 29.5353 124.775 32.5537 116.308C35.4188 115.878 37.6129 115.68 37.6129 115.68C28.1176 136.827 27.3508 159.108 50.4365 163.432C54.4305 164.173 57.8708 164.843 60.8317 165.433Z" fill="#A74618"/>
<path fill-rule="evenodd" clip-rule="evenodd" d="M119.228 142.095C120.42 147.149 121.224 152.268 121.636 157.418C121.998 162.554 102.815 165.141 81.2422 165.608C84.3895 164.976 88.1066 164.253 92.4948 163.432C115.586 159.113 114.814 136.827 105.324 115.68C105.324 115.68 108.168 115.939 111.608 116.501C114.776 124.876 117.322 133.426 119.228 142.095Z" fill="#A74618"/>
<path fill-rule="evenodd" clip-rule="evenodd" d="M41.7796 73.7783C41.7461 73.72 41.721 73.6581 41.705 73.5942C41.2577 72.5604 40.5601 71.4841 40.9968 70.3559C41.4334 69.2278 42.8234 68.7793 44.0855 68.6283C44.3891 68.5901 44.6985 68.638 44.9695 68.7652C52.031 72.1072 61.5529 73.0513 69.4665 72.9003C77.38 72.7492 86.9445 71.4417 94.1072 68.2317C94.3688 68.1104 94.6672 68.0658 94.9592 68.1043C96.2427 68.2553 97.5368 68.6896 98.064 69.832C98.6391 71.0687 97.9415 72.3952 97.5314 73.6084C97.363 74.0386 97.2959 74.4949 97.3344 74.949C97.4409 75.4695 97.4996 75.9967 97.5101 76.5256C97.5101 76.6059 97.5101 76.6814 97.5101 76.7616L97.5634 76.79C98.8308 77.4555 99.4326 78.8717 99.4007 80.1273C99.358 80.9361 99.0864 81.7224 98.6108 82.4137C98.1352 83.105 97.471 83.6791 96.6794 84.0831C90.1025 87.7367 77.4013 89.9318 69.6582 89.9318C61.915 89.9318 49.2139 87.7367 42.637 84.0831C41.844 83.6805 41.1788 83.1067 40.703 82.4151C40.2272 81.7235 39.9564 80.9366 39.9157 80.1273C39.8784 78.8717 40.4802 77.4555 41.7476 76.79L41.8062 76.7616C41.8062 76.6814 41.8062 76.6059 41.8062 76.5256C41.8185 75.9966 41.8791 75.4693 41.9873 74.949C41.998 74.858 41.998 74.7662 41.9873 74.6752C41.9666 74.4339 41.9111 74.1959 41.8222 73.9671L41.7796 73.7783Z" fill="#0F0E0E"/>
<path fill-rule="evenodd" clip-rule="evenodd" d="M97.1705 76.9163L97.4155 77.0438C98.5658 77.648 99.1037 78.9556 99.0664 80.0932C99.0278 80.8489 98.7741 81.5836 98.329 82.229C97.884 82.8744 97.2619 83.4095 96.5208 83.7846C90.0291 87.391 77.344 89.5908 69.702 89.5908C62.06 89.5908 49.3642 87.3958 42.8725 83.7893C42.1314 83.4138 41.5091 82.8787 41.0632 82.2335C40.6174 81.5882 40.3623 80.8537 40.3217 80.0979C40.2897 78.9603 40.8276 77.6527 41.9779 77.0485L42.2175 76.921C42.2175 76.7841 42.2175 76.6378 42.2175 76.5103C42.2262 75.9972 42.2832 75.4856 42.3879 74.9809C42.4013 74.8679 42.4013 74.754 42.3879 74.641C42.3644 74.3711 42.3036 74.1048 42.2069 73.848C41.8287 72.8048 40.9234 71.5869 41.3601 70.4681C41.7648 69.4202 43.0376 69.085 44.156 68.9481C44.3818 68.9213 44.6114 68.9594 44.811 69.0567C51.9311 72.4177 61.5328 73.3759 69.489 73.2249C77.4452 73.0738 87.1002 71.7474 94.2895 68.5044C94.487 68.4169 94.7097 68.384 94.9285 68.41C96.0735 68.5469 97.2717 68.9198 97.7457 69.9442C98.2782 71.0676 97.5806 72.3941 97.2132 73.4845C97.0258 73.9599 96.955 74.4652 97.0055 74.9668C97.1075 75.4718 97.1645 75.9832 97.1759 76.4962C97.1865 76.6331 97.1759 76.7794 97.1705 76.9163Z" fill="#0F0E0E"/>
<path fill-rule="evenodd" clip-rule="evenodd" d="M44.3032 69.9039C40.1707 70.4042 43.9038 72.7833 43.4458 75.1436C42.9878 77.5038 43.8239 77.1923 42.5245 77.8767C41.2251 78.5612 40.5381 81.3557 43.4458 82.9701C49.6446 86.4114 62.1327 88.6347 69.6948 88.6347C77.2569 88.6347 89.745 86.4255 95.9438 82.9701C98.8515 81.3557 98.1645 78.5612 96.8598 77.8767C95.555 77.1923 96.4018 77.5038 95.9438 75.1436C95.4858 72.7833 98.9207 69.8755 94.7882 69.3799C81.8581 75.1766 57.6753 76.2246 44.3032 69.9039Z" fill="#E6AD3F"/>
<path fill-rule="evenodd" clip-rule="evenodd" d="M45.0625 83.7743C45.6856 84.0575 46.3459 84.3266 47.0436 84.591C47.2312 84.211 47.4428 83.8406 47.6773 83.4816C48.6838 81.872 49.7489 80.1773 48.9075 75.7778C48.5879 74.1209 48.3749 73.106 48.5666 72.3177C48.6178 72.0843 48.7019 71.8575 48.8169 71.6427C48.1193 71.4255 47.443 71.1942 46.7826 70.9441C46.6198 71.2706 46.5 71.6128 46.4258 71.9637C46.1862 73.0824 46.4258 74.2295 46.7613 76.0941C47.4749 79.8327 46.6016 81.2253 45.7761 82.5423C45.5258 82.9435 45.2755 83.34 45.0625 83.7743ZM51.3625 85.9693C52.0548 86.1582 52.7577 86.3422 53.4926 86.5122C53.6898 86.0951 53.9175 85.6898 54.1743 85.299C55.1861 83.6893 56.2459 81.9947 55.4045 77.5952C55.0849 75.9383 54.8719 74.9234 55.0636 74.1398C55.1337 73.8062 55.2707 73.4864 55.4684 73.1957C54.7228 73.073 53.9879 72.9314 53.269 72.7803C53.1121 73.0982 52.9959 73.4307 52.9228 73.7716C52.6832 74.8951 52.9228 76.0375 53.2583 77.9068C53.9719 81.6407 53.1039 83.0332 52.2731 84.3549C51.9334 84.8702 51.6361 85.4066 51.3838 85.9599L51.3625 85.9693ZM58.8181 87.5979C59.5476 87.7159 60.2719 87.8292 60.9908 87.9331C61.2047 87.3719 61.485 86.8323 61.8269 86.3234C62.8388 84.7137 63.8985 83.019 63.0571 78.6196C62.7429 76.9627 62.5246 75.9478 62.7163 75.1642C62.813 74.7722 62.9938 74.4004 63.2488 74.069C62.4607 74.0265 61.6512 73.9699 60.9003 73.9038C60.7647 74.1944 60.663 74.4965 60.5968 74.8054C60.3624 75.9289 60.5968 77.0712 60.9323 78.9358C61.6459 82.6744 60.7778 84.067 59.9524 85.384C59.4773 86.0773 59.1033 86.8212 58.8394 87.5979H58.8181ZM69.0163 88.6128H69.7032C70.1985 88.6128 70.7204 88.6128 71.2583 88.5845C71.1677 88.1785 71.0665 87.7867 70.9654 87.3949C70.2349 84.8389 70.0936 82.1786 70.55 79.5731C70.8056 77.7368 70.96 76.6134 70.7896 75.5324C70.719 75.0625 70.5812 74.6025 70.3796 74.1634C69.5807 74.1634 68.7819 74.1965 67.9884 74.1965C68.3141 74.6883 68.5344 75.2292 68.6381 75.792C68.766 76.6134 68.6381 77.6519 68.3825 79.3418C67.8927 82.1651 68.0502 85.047 68.8458 87.815C68.9151 88.0794 68.979 88.339 69.0429 88.6081L69.0163 88.6128ZM78.357 87.9331C79.076 87.8292 79.8002 87.7159 80.5298 87.5979C80.2676 86.8214 79.8955 86.0775 79.4221 85.384C78.5967 84.067 77.7233 82.6744 78.4422 78.9358C78.7991 77.0476 79.0121 75.9289 78.7724 74.8054C78.6808 74.3761 78.5231 73.9599 78.3038 73.5686C77.5192 73.6662 76.731 73.7512 75.9393 73.8236C76.2792 74.2195 76.5156 74.6774 76.6316 75.1642C76.802 75.9478 76.6316 76.9627 76.2908 78.6196C75.4494 83.019 76.5144 84.7137 77.5209 86.3234C77.8672 86.8303 78.1477 87.3703 78.357 87.9331ZM85.8925 86.5169C86.6061 86.347 87.3091 86.1629 88.0227 85.9741C87.7724 85.4199 87.4752 84.8834 87.1333 84.3691C86.3079 83.0474 85.4399 81.6548 86.1535 77.9209C86.5103 76.0327 86.7233 74.9093 86.4836 73.7858C86.3692 73.2522 86.153 72.7398 85.8446 72.2705C85.1097 72.4405 84.3641 72.5962 83.6026 72.7426C83.9679 73.159 84.2228 73.643 84.3481 74.1587C84.5132 74.9423 84.3215 75.9572 84.0073 77.6141C83.1606 82.0136 84.2257 83.7082 85.2322 85.3179C85.4911 85.7077 85.7188 86.1131 85.9138 86.5311L85.8925 86.5169ZM92.3203 84.5957C93.0179 84.3313 93.6836 84.0623 94.3067 83.779C94.0883 83.3447 93.8434 82.9482 93.5878 82.547C92.7623 81.23 91.8943 79.8374 92.6079 76.0988C92.9647 74.2342 93.1777 73.0872 92.9434 71.9684C92.8218 71.4138 92.5929 70.882 92.267 70.3965C91.596 70.6419 90.9037 70.8685 90.1901 71.0998C90.4882 71.4651 90.6968 71.8815 90.8026 72.3224C90.9676 73.1108 90.8026 74.1257 90.4617 75.7825C89.6203 80.1773 90.6801 81.8767 91.6919 83.4864C91.932 83.8425 92.1472 84.2114 92.3363 84.591L92.3203 84.5957Z" fill="white"/>
<path fill-rule="evenodd" clip-rule="evenodd" d="M41.1123 78.3964C41.1002 78.3113 41.1263 78.2255 41.1852 78.1574C41.244 78.0894 41.3307 78.0446 41.4265 78.0329C41.521 78.0221 41.6165 78.0448 41.6923 78.0961C41.7681 78.1473 41.818 78.223 41.8312 78.3067C42.0762 79.8692 44.0413 81.4552 47.4282 82.8808C50.8152 84.3064 55.5548 85.529 61.4128 86.3928C70.5352 87.7335 75.5358 86.6478 80.2968 85.6093C81.037 85.4488 81.7666 85.2883 82.5334 85.1372C82.9861 85.0428 88.6417 83.3387 93.0565 81.611C95.405 80.6669 97.3754 79.77 97.9505 79.1186C97.9807 79.083 98.0187 79.0533 98.0624 79.0313C98.106 79.0092 98.1542 78.9954 98.2041 78.9905C98.254 78.9856 98.3045 78.9899 98.3525 79.003C98.4005 79.0161 98.4449 79.0378 98.4831 79.0667C98.5575 79.1195 98.6054 79.1963 98.6163 79.2802C98.6273 79.3642 98.6005 79.4486 98.5416 79.5151C97.8813 80.261 95.8097 81.2381 93.3653 82.1963C88.9239 83.9429 83.1778 85.6706 82.7145 85.765C81.9849 85.9114 81.2447 86.0719 80.4938 86.2371C75.6583 87.2897 70.5885 88.3943 61.3223 87.0301C55.3897 86.1568 50.5702 84.9059 47.1353 83.4662C43.4981 81.9414 41.3945 80.1807 41.1123 78.3964Z" fill="#0F0E0E"/>
<path fill-rule="evenodd" clip-rule="evenodd" d="M42.1765 73.7058C42.1328 73.6559 42.1006 73.5989 42.0818 73.5379C42.063 73.477 42.0578 73.4134 42.0667 73.3507C42.0757 73.288 42.0984 73.2275 42.1337 73.1726C42.169 73.1177 42.2161 73.0695 42.2724 73.0308C42.3287 72.992 42.3931 72.9635 42.4618 72.9468C42.5305 72.9301 42.6023 72.9256 42.673 72.9335C42.7437 72.9413 42.812 72.9615 42.8739 72.9928C42.9359 73.0241 42.9902 73.0658 43.0339 73.1157C45.1641 75.5421 45.4197 76.1368 45.4197 76.1368C45.4734 76.2558 45.4716 76.3887 45.4146 76.5065C45.3577 76.6242 45.2504 76.7171 45.1162 76.7647C44.982 76.8122 44.832 76.8106 44.6992 76.7602C44.5663 76.7097 44.4616 76.6145 44.4079 76.4956C44.4079 76.4956 44.2055 76.0236 42.1765 73.7058Z" fill="#0F0E0E"/>
<path fill-rule="evenodd" clip-rule="evenodd" d="M96.7997 70.883C96.852 70.7635 96.9557 70.6672 97.088 70.6154C97.2203 70.5636 97.3705 70.5605 97.5053 70.6069C97.6402 70.6532 97.7488 70.7451 97.8072 70.8624C97.8657 70.9797 97.8691 71.1128 97.8169 71.2323C96.5814 74.0646 95.4843 75.2447 95.479 75.2495C95.435 75.3 95.3798 75.3422 95.3168 75.3733C95.2538 75.4044 95.1844 75.4238 95.1127 75.4304C95.041 75.4371 94.9685 75.4307 94.8997 75.4118C94.8308 75.3928 94.767 75.3617 94.7122 75.3203C94.6559 75.2812 94.6091 75.2326 94.5745 75.1772C94.5399 75.1218 94.5182 75.0607 94.5107 74.9978C94.5033 74.9348 94.5102 74.8711 94.5311 74.8105C94.5519 74.75 94.5864 74.6938 94.6323 74.6452C94.6323 74.6452 95.6334 73.5642 96.7997 70.883Z" fill="#0F0E0E"/>
<path fill-rule="evenodd" clip-rule="evenodd" d="M70.09 17.7801C71.3736 16.9895 72.7824 16.3723 74.2705 15.9486C77.4658 15.0611 80.8368 15.1414 84.0746 15.6748C89.4693 16.5622 95.1889 20.6549 98.8047 24.1716C102.149 27.4004 105.504 31.7905 106.457 36.1569C106.519 36.5922 106.529 37.032 106.489 37.4692C106.489 38.182 106.399 38.8854 106.33 39.5982C106.143 41.5572 105.872 43.5161 105.531 45.4563C105.254 47.0235 102.165 57.6209 100.514 57.0309C100.211 55.6383 99.6461 52.6125 98.9165 51.2011C97.3669 48.2791 95.029 45.5365 91.8763 43.8655C90.1983 42.9564 88.4124 42.2139 86.5509 41.6516C85.1131 41.222 83.6486 40.9199 82.2001 40.5328C81.7705 40.4195 81.3498 40.2968 80.9379 40.1646C80.9646 40.2024 80.9859 40.2401 81.0072 40.2779C81.4651 41.0426 82.0722 42.1897 81.3054 42.9591C80.7302 43.5209 79.8675 43.4312 79.1433 43.1952C77.0948 42.512 75.234 41.4499 73.6847 40.0796C72.3146 38.8983 71.2136 37.4944 70.4415 35.9445C69.7149 37.4042 68.6954 38.735 67.4327 39.8719C65.8347 41.3336 63.8902 42.4623 61.7398 43.1763C61.0155 43.4029 60.1422 43.502 59.5777 42.9403C58.7735 42.1519 59.4499 40.9529 59.9238 40.1741L60.1209 39.8625C59.2475 40.1363 58.3581 40.377 57.4582 40.6178C55.7502 41.0387 54.0761 41.5607 52.4469 42.1803C47.8511 44.0118 44.7517 47.0235 42.1955 50.8187C42.1316 50.9179 39.5328 56.1529 39.6606 57.8334C38.1162 58.1874 34.4949 48.0431 34.463 47.944C34.0423 46.7922 33.6216 45.6451 33.2062 44.4933C32.6151 42.8411 32.0293 41.1606 31.5713 39.4754C31.289 38.4086 30.8736 36.747 31.1239 35.666C32.3435 30.4027 37.4026 25.3612 42.0038 22.0852C46.0564 19.1963 51.3818 16.4773 56.5582 15.6748C60.0037 15.1414 63.8061 15.0895 67.1025 16.2412C68.1844 16.61 69.1929 17.1295 70.09 17.7801Z" fill="#0F0E0E"/>
<path fill-rule="evenodd" clip-rule="evenodd" d="M35.3099 61.5002C33.7509 55.321 31.5597 47.1683 31.9829 44.487C33.9062 32.5982 46.7533 18.9536 56.6805 16.7555C66.0345 14.6799 69.5972 19.6478 69.9775 20.2194C71.9491 18.4841 75.7742 14.8228 83.9764 16.7555C92.1786 18.6882 103.799 33.2583 105.615 45.1471C105.899 47.0322 100.659 68.6213 97.8034 69.4584C98.3262 63.4386 61.4683 86.8229 35.3099 61.5002Z" fill="#C5C5C5"/>
<path fill-rule="evenodd" clip-rule="evenodd" d="M50.8993 30.7854C50.9667 30.7632 51.0384 30.7534 51.1102 30.7564C51.182 30.7594 51.2524 30.7753 51.3171 30.8031C51.3818 30.8309 51.4394 30.87 51.4866 30.9181C51.5338 30.9662 51.5695 31.0222 51.5916 31.0828C51.6928 31.333 50.8993 31.5549 50.6171 31.6398C48.0822 32.4234 45.8242 33.3203 42.9431 33.9387C40.2555 34.5742 37.4804 34.8714 34.6994 34.8214C34.6294 34.818 34.5609 34.8024 34.4978 34.7756C34.4347 34.7487 34.3781 34.7111 34.3314 34.6648C34.237 34.5714 34.1884 34.4486 34.1961 34.3234C34.2 34.2614 34.2175 34.2007 34.2479 34.1448C34.2782 34.0888 34.3206 34.0387 34.3728 33.9972C34.4782 33.9136 34.6167 33.8705 34.758 33.8773C37.4353 33.9221 40.1064 33.6328 42.6928 33.0182C45.5153 32.3951 48.3857 31.5643 50.8993 30.7854Z" fill="#0F0E0E"/>
<path fill-rule="evenodd" clip-rule="evenodd" d="M84.0746 31.5676C84.0088 31.5418 83.9496 31.5044 83.9006 31.4577C83.8516 31.411 83.8137 31.3561 83.7893 31.2961C83.765 31.2361 83.7545 31.1723 83.7587 31.1086C83.7629 31.045 83.7816 30.9827 83.8137 30.9256C83.9415 30.6849 84.3941 30.9256 84.6657 31.0342C86.7959 31.9169 90.316 32.5448 93.7828 32.9649C96.4456 33.2812 98.9325 33.2859 100.509 32.6769C100.574 32.6506 100.645 32.6362 100.716 32.6345C100.788 32.6329 100.859 32.6441 100.926 32.6675C100.992 32.6908 101.053 32.7259 101.104 32.7705C101.155 32.8151 101.195 32.8684 101.222 32.9271C101.252 32.9849 101.268 33.0474 101.27 33.1109C101.272 33.1744 101.259 33.2375 101.233 33.2966C101.207 33.3557 101.167 33.4094 101.117 33.4546C101.067 33.4998 101.006 33.5355 100.94 33.5597C99.1615 34.2441 96.4509 34.2583 93.6391 33.9184C90.3465 33.5183 87.1295 32.7276 84.0746 31.5676Z" fill="#0F0E0E"/>
<path fill-rule="evenodd" clip-rule="evenodd" d="M61.3903 24.3853C61.4849 24.2889 61.6188 24.2297 61.7627 24.2209C61.9065 24.212 62.0484 24.2542 62.1571 24.3381C62.2659 24.4219 62.3326 24.5407 62.3426 24.6682C62.3526 24.7956 62.305 24.9214 62.2104 25.0178C60.3595 26.8867 58.1689 28.4678 55.7293 29.6958C53.1047 31.0113 50.3073 32.0355 47.4004 32.7452C45.3448 33.2645 44.4288 33.0993 44.2424 32.5139C43.9548 31.6218 46.3459 29.8233 48.3962 28.2655C49.2906 27.6564 50.1212 26.9771 50.8779 26.2357C50.9485 26.123 51.0667 26.0398 51.2065 26.0044C51.3463 25.969 51.4963 25.9843 51.6234 26.0469C51.7505 26.1095 51.8444 26.2143 51.8843 26.3382C51.9243 26.4621 51.9071 26.5951 51.8364 26.7077C51.5542 27.1798 50.3933 28.0342 49.0992 29.0113C47.2939 30.3708 45.1956 31.9522 45.2915 32.2449C45.2915 32.2449 45.824 32.141 47.1021 31.8106C49.9214 31.1267 52.6361 30.1408 55.1861 28.8744C57.5205 27.6931 59.6171 26.176 61.3903 24.3853Z" fill="#0F0E0E"/>
<path fill-rule="evenodd" clip-rule="evenodd" d="M74.428 25.754C74.3341 25.657 74.2875 25.5308 74.2985 25.4033C74.3094 25.2759 74.3771 25.1575 74.4866 25.0742C74.596 24.991 74.7383 24.9497 74.8821 24.9594C75.0259 24.9691 75.1595 25.0291 75.2534 25.1262C77.0277 26.9226 79.1483 28.4251 81.5161 29.5634C84.1127 30.8053 86.8802 31.7431 89.7492 32.3532C90.3494 32.5101 90.9593 32.6362 91.5759 32.7308C91.6664 32.424 89.5735 30.9087 87.7788 29.6106C86.4794 28.6665 85.3185 27.831 85.0362 27.3778C85.0013 27.3223 84.979 27.2613 84.9706 27.1982C84.9623 27.1351 84.968 27.0711 84.9876 27.0099C85.0071 26.9488 85.04 26.8917 85.0845 26.8418C85.1289 26.7919 85.184 26.7503 85.2466 26.7193C85.3092 26.6883 85.378 26.6686 85.4493 26.6611C85.5205 26.6537 85.5926 26.6588 85.6616 26.6762C85.7306 26.6935 85.795 26.7227 85.8513 26.7621C85.9076 26.8015 85.9545 26.8503 85.9895 26.9058C86.7445 27.6209 87.5716 28.2734 88.4605 28.8553C90.5108 30.3376 92.8912 32.0605 92.6356 32.9621C92.4652 33.5569 91.5705 33.7505 89.483 33.2879C86.5254 32.6537 83.6723 31.6843 80.9942 30.4036C78.512 29.2108 76.2887 27.6364 74.428 25.754Z" fill="#0F0E0E"/>
<path fill-rule="evenodd" clip-rule="evenodd" d="M77.4433 71.6863C77.3508 71.6641 77.2717 71.6107 77.2229 71.5375C77.1741 71.4643 77.1596 71.3771 77.1824 71.2945C77.2086 71.2121 77.2699 71.1419 77.3534 71.0987C77.4368 71.0556 77.5359 71.0428 77.6297 71.0632C78.8026 71.3439 79.9968 71.549 81.2031 71.6768C82.378 71.8008 83.562 71.845 84.7445 71.809C84.7921 71.8075 84.8395 71.8142 84.8841 71.8289C84.9287 71.8436 84.9696 71.866 85.0045 71.8947C85.0393 71.9234 85.0675 71.9579 85.0873 71.9963C85.1071 72.0346 85.1182 72.076 85.1199 72.1182C85.1217 72.1603 85.114 72.2024 85.0975 72.2419C85.0809 72.2815 85.0557 72.3177 85.0233 72.3486C84.9909 72.3795 84.952 72.4045 84.9087 72.422C84.8654 72.4396 84.8187 72.4494 84.7711 72.451C83.5512 72.4876 82.33 72.4419 81.1179 72.3141C79.8772 72.1858 78.6489 71.976 77.4433 71.6863Z" fill="#0F0E0E"/>
<path fill-rule="evenodd" clip-rule="evenodd" d="M39.3516 85.0267C39.3516 84.9015 39.4077 84.7815 39.5075 84.6929C39.6074 84.6044 39.7429 84.5547 39.8841 84.5547C40.0253 84.5547 40.1608 84.6044 40.2607 84.6929C40.3605 84.7815 40.4166 84.9015 40.4166 85.0267C40.4859 88.1092 42.7066 94.0806 42.7119 94.0995C42.7339 94.1596 42.7424 94.223 42.7368 94.286C42.7312 94.3491 42.7116 94.4105 42.6792 94.4668C42.6468 94.5231 42.6022 94.5733 42.548 94.6143C42.4938 94.6554 42.4309 94.6865 42.3631 94.7061C42.2953 94.7256 42.2237 94.7331 42.1526 94.7281C42.0815 94.7231 42.0122 94.7058 41.9487 94.6771C41.8851 94.6484 41.8286 94.6089 41.7823 94.5608C41.736 94.5127 41.7008 94.457 41.6788 94.3969C41.6788 94.3969 39.4474 88.2603 39.3516 85.0267Z" fill="#0F0E0E"/>
<path fill-rule="evenodd" clip-rule="evenodd" d="M100.912 83.9825C100.902 83.9205 100.905 83.8572 100.921 83.7963C100.938 83.7353 100.968 83.6779 101.01 83.6273C101.052 83.5766 101.104 83.5338 101.165 83.5012C101.225 83.4686 101.292 83.4469 101.362 83.4373C101.432 83.4277 101.504 83.4304 101.572 83.4452C101.641 83.4601 101.706 83.4868 101.763 83.5238C101.82 83.5608 101.869 83.6075 101.905 83.6611C101.942 83.7147 101.967 83.7742 101.977 83.8362C102.51 87.0461 101.903 92.7248 101.898 92.739C101.892 92.8023 101.873 92.8641 101.84 92.9206C101.807 92.9771 101.762 93.0271 101.706 93.0677C101.651 93.1082 101.587 93.1385 101.519 93.1566C101.45 93.1748 101.378 93.1804 101.306 93.1733C101.234 93.1686 101.164 93.1511 101.1 93.1216C101.036 93.0922 100.979 93.0515 100.934 93.0021C100.888 92.9526 100.854 92.8954 100.834 92.834C100.813 92.7725 100.808 92.7081 100.817 92.6446C100.817 92.6446 101.45 87.0838 100.912 83.9825Z" fill="#0F0E0E"/>
<path fill-rule="evenodd" clip-rule="evenodd" d="M18.5797 101.712C18.5385 101.733 18.493 101.747 18.4457 101.753C18.3985 101.758 18.3505 101.755 18.3045 101.744C18.2585 101.733 18.2154 101.714 18.1776 101.689C18.1398 101.663 18.1082 101.631 18.0845 101.594C18.0382 101.52 18.0267 101.432 18.0526 101.35C18.0785 101.268 18.1397 101.198 18.2229 101.155C19.9164 100.306 22.1478 99.9751 24.2833 99.9421C27.4146 99.8949 30.3755 100.499 31.0679 100.99C31.1073 101.016 31.1405 101.048 31.1654 101.085C31.1903 101.123 31.2064 101.164 31.2128 101.207C31.2192 101.25 31.2157 101.294 31.2026 101.335C31.1894 101.377 31.1669 101.416 31.1363 101.45C31.1058 101.484 31.0678 101.512 31.0247 101.532C30.9816 101.552 30.9342 101.565 30.8855 101.569C30.8369 101.572 30.7878 101.568 30.7413 101.554C30.6949 101.541 30.652 101.519 30.6152 101.49C30.0134 101.061 27.2708 100.546 24.2939 100.584C22.2649 100.617 20.1774 100.919 18.5797 101.712Z" fill="#0F0E0E"/>
<path fill-rule="evenodd" clip-rule="evenodd" d="M110.933 100.124C110.892 100.145 110.846 100.159 110.799 100.164C110.752 100.17 110.704 100.167 110.658 100.156C110.612 100.145 110.569 100.126 110.531 100.1C110.493 100.075 110.462 100.043 110.438 100.006C110.414 99.9691 110.399 99.9285 110.393 99.8864C110.387 99.8444 110.391 99.8017 110.404 99.7609C110.417 99.7201 110.439 99.6819 110.468 99.6486C110.498 99.6153 110.535 99.5876 110.576 99.5669C112.739 98.4765 115.598 98.0611 118.33 98.0186C122.346 97.9525 126.132 98.722 127.011 99.3451C127.054 99.3692 127.09 99.401 127.118 99.4384C127.146 99.4759 127.165 99.5182 127.174 99.5626C127.182 99.6069 127.18 99.6524 127.168 99.696C127.155 99.7395 127.132 99.7803 127.101 99.8156C127.069 99.8508 127.03 99.8798 126.985 99.9007C126.94 99.9215 126.89 99.9338 126.839 99.9366C126.789 99.9394 126.738 99.9327 126.69 99.917C126.643 99.9013 126.6 99.8769 126.563 99.8455C125.77 99.2837 122.202 98.5993 118.341 98.6606C115.721 98.6984 112.978 99.0949 110.933 100.124Z" fill="#0F0E0E"/>
<path fill-rule="evenodd" clip-rule="evenodd" d="M69.7078 0.645508C82.5794 0.645508 93.0119 8.19827 93.0119 17.4882C93.0119 26.7781 82.5687 34.3308 69.7078 34.3308C56.8469 34.3308 46.3984 26.7781 46.3984 17.4882C46.3984 8.19827 56.8256 0.645508 69.7078 0.645508Z" fill="#0F0E0E"/>
<path fill-rule="evenodd" clip-rule="evenodd" d="M69.702 1.61328C57.4536 1.61328 47.4844 8.69399 47.4844 17.4882C47.4844 26.2825 57.4323 33.3632 69.702 33.3632C81.9718 33.3632 91.9091 26.2542 91.9091 17.4882C91.9091 8.72232 81.9505 1.61328 69.702 1.61328Z" fill="#C5C5C5"/>
<path fill-rule="evenodd" clip-rule="evenodd" d="M69.7037 1.61328C61.0605 1.61328 53.573 5.13475 49.8984 10.2848C53.573 12.4232 61.0818 13.8912 69.7037 13.8912C78.3255 13.8912 85.8291 12.4232 89.5036 10.2848C85.8184 5.13475 78.3309 1.61328 69.7037 1.61328Z" fill="white"/>
<path fill-rule="evenodd" clip-rule="evenodd" d="M68.9501 1.62402C68.572 1.62402 68.1993 1.64763 67.8265 1.67123L66.8679 2.41706C64.0987 4.58376 62.6395 7.71816 61.9419 10.9139C60.7756 16.2433 61.7608 21.771 62.2028 23.0597C61.7425 23.1007 61.2786 23.1007 60.8182 23.0597C59.6644 22.9627 58.5344 22.7079 57.4685 22.3044C55.1573 21.417 53.0325 19.6232 53.6129 16.2717C54.3599 12.4113 56.2511 8.79629 59.0928 5.79692C60.3183 4.455 61.7423 3.26573 63.3265 2.26129C62.6928 2.39818 62.0644 2.55396 61.4573 2.73333C60.398 3.52729 59.4197 4.40238 58.5336 5.34848C55.6064 8.43853 53.6583 12.1626 52.8887 16.1395C52.2443 19.8687 54.6035 21.8654 57.1756 22.8567C58.3115 23.2849 59.5149 23.5555 60.7437 23.6592C61.8513 23.7489 62.6981 23.6214 62.8738 23.4137C62.9362 23.3475 62.9704 23.264 62.9704 23.1777C62.9704 23.0914 62.9362 23.0079 62.8738 22.9417C62.549 22.5168 61.3614 16.7107 62.6076 11.0225C63.2786 7.96362 64.6685 4.95668 67.2993 2.89383C67.9117 2.42178 68.4389 1.99694 68.8969 1.62402H68.9501ZM77.7531 2.68613C77.2205 2.5398 76.688 2.40762 76.1554 2.28961C78.566 4.06712 80.6204 6.19294 82.2317 8.57728C84.0039 11.1083 85.1526 13.9427 85.6027 16.8948C86.2205 21.5208 86.1353 22.5263 86.0927 22.7387C85.0702 23.0408 78.3761 24.6977 78.3761 16.4038C78.347 11.141 76.4462 6.02033 72.9442 1.77036C72.6194 1.73731 72.2892 1.70899 71.959 1.68539C75.6302 5.91045 77.629 11.0898 77.6466 16.4227C77.6466 26.3357 86.4495 23.3288 86.4761 23.3193C86.5531 23.2934 86.618 23.2454 86.6605 23.1829C86.703 23.1204 86.7205 23.0471 86.7104 22.9747C86.8063 22.5027 86.8808 21.0252 86.327 16.8381C85.8635 13.7914 84.6803 10.8656 82.8548 8.25157C81.4571 6.19354 79.7397 4.32004 77.7531 2.68613Z" fill="#AFB0B0"/>
<path fill-rule="evenodd" clip-rule="evenodd" d="M107.712 182.674C108.496 180.822 108.528 179.687 108.997 177.812C108.997 177.812 109.521 176.916 110.304 177.349C110.587 177.6 112.417 178.97 105.359 192.63C105.359 193.556 99.5381 193.804 99.0613 193.556C98.8333 193.433 97.4962 193.093 97.2344 190.316C97.3834 189.955 103.851 190.467 104.836 189.62C104.836 189.62 106.405 190.083 107.712 182.674Z" fill="#7C6052" stroke="black" stroke-width="1.04567" stroke-linejoin="round"/>
<path fill-rule="evenodd" clip-rule="evenodd" d="M38.5042 175.743C38.5042 175.743 37.9744 174.85 37.1167 175.331C36.8031 175.602 33.9758 177.129 41.052 190.777C41.0175 191.726 48.0737 191.663 48.5954 191.386C48.8449 191.249 50.2947 190.837 50.6796 187.981C50.5329 187.617 43.5624 188.454 42.5357 187.634C40.308 188.353 39.0281 178.036 38.5042 175.743Z" fill="#7C6052" stroke="black" stroke-width="1.04567" stroke-linejoin="round"/>
<path fill-rule="evenodd" clip-rule="evenodd" d="M63.3121 26.0998C66.5553 24.627 66.9227 24.9999 65.815 26.0998C64.5476 27.3696 61.3417 29.5929 58.2955 31.1082C57.8961 31.3064 57.502 31.4905 57.1186 31.6605L56.9642 31.7266C53.0819 33.3882 55.718 33.5015 59.2275 32.529C59.76 32.3874 60.2926 32.2222 60.8251 32.057C62.2271 31.5793 63.5437 30.9242 64.734 30.1122C67.2582 28.3231 68.4618 26.9967 68.9943 26.1989C69.1984 25.9347 69.3531 25.643 69.4523 25.335C69.5831 25.657 69.7342 25.9722 69.9049 26.2791C71.0189 28.4091 72.7988 30.2112 75.0333 31.4717C78.0688 33.0955 75.9759 29.305 74.6446 27.1713C74.1653 26.3972 73.7819 25.8401 73.7819 25.8401C77.0533 27.3508 80.4588 28.6217 83.9641 29.6401C84.3901 29.7691 84.8214 29.8919 85.2581 30.0083C88.5998 30.9463 92.0368 31.5929 95.5202 31.939C95.9409 31.9815 96.367 32.0145 96.793 32.0381C98.4506 32.1443 100.115 32.1443 101.772 32.0381C102.433 31.9956 103.05 31.9295 103.62 31.8446C101.25 27.5962 97.0593 23.3855 92.6338 20.4305C92.3143 20.218 91.9895 20.0056 91.6646 19.8074C89.0019 18.1505 86.2913 16.9751 83.8842 16.5927C78.8037 15.7572 75.4168 16.4275 73.1108 17.3433C72.513 17.5792 71.9347 17.8521 71.3801 18.1599C70.8209 18.4668 70.3576 18.7594 69.9689 18.9954C69.61 18.6354 69.2001 18.3181 68.7493 18.0514C68.1224 17.6734 67.451 17.3569 66.747 17.1073C64.6488 16.3709 61.4215 15.8611 56.7512 16.5833C53.5496 17.1551 50.4857 18.2191 47.6979 19.7271C47.3624 19.8971 47.0323 20.0764 46.7021 20.2605C42.0796 22.819 37.7767 26.3972 35.0234 30.1122C37.4438 30.5479 39.9172 30.7066 42.3832 30.5842C42.7985 30.5842 43.2139 30.5464 43.6293 30.5181C46.7705 30.3 49.888 29.8676 52.9541 29.2247C53.3961 29.1303 53.8435 29.0359 54.2748 28.9368C55.1376 28.7432 55.9736 28.5355 56.7778 28.3231C58.4573 27.888 60.1074 27.3679 61.7198 26.7654C62.2896 26.534 62.8168 26.3358 63.3121 26.0998Z" fill="white"/>
</g>
</svg>
