<svg width="33" height="52" viewBox="0 0 33 52" fill="none" xmlns="http://www.w3.org/2000/svg">
<path fill-rule="evenodd" clip-rule="evenodd" d="M20.9321 46.283C20.9193 46.7214 20.7661 47.1475 20.4904 47.5118C20.1685 47.9098 19.7374 48.2286 19.2378 48.4382C18.7381 48.6479 18.1863 48.7414 17.6344 48.7101C17.6018 48.9484 17.5142 49.1783 17.377 49.3853C17.2397 49.5924 17.0558 49.7723 16.8366 49.9137C16.6434 50.0425 16.415 50.1234 16.1749 50.1484C14.4949 50.3446 12.7861 50.1524 11.2148 49.5905C6.56654 47.9005 4.08692 44.3712 2.98694 40.1789C1.51084 34.5644 2.53533 28.1537 3.95206 22.602C5.51497 16.4761 9.64692 4.06587 18.4235 4.11189C19.0911 4.16299 19.751 4.2748 20.3927 4.44556L20.8361 4.54558C20.5139 4.41938 20.2305 4.24 20.216 3.96812C20.2131 3.92702 20.2182 3.88577 20.2311 3.84621C20.3354 3.56689 20.6944 3.56857 20.9604 3.58492C21.2265 3.60128 21.6226 3.64926 21.9458 3.68066C22.9171 3.8035 23.8826 3.93051 24.8532 4.01532C25.7147 4.10653 26.5844 4.11949 27.4488 4.05398C28.568 3.93495 28.5326 2.79268 29.2298 2.66112C29.379 2.64879 29.5292 2.67311 29.6639 2.73139C29.7985 2.78968 29.9124 2.87968 29.9931 2.99152C31.0555 4.13645 31.7108 5.5343 31.8761 7.00849C32.2105 9.50367 31.4333 12.1423 30.3643 14.4537C29.4003 16.482 28.3172 18.4642 27.1196 20.3925C25.1791 23.5492 23.0355 26.6151 20.7834 29.6039C19.949 30.7139 19.1051 31.8134 18.2299 32.9052L20.4382 35.3356C21.7071 36.7353 23.0779 38.9137 23.2899 40.7089C23.3132 40.9105 23.3312 41.1115 23.3386 41.3115C23.3578 41.5949 23.269 41.8758 23.0866 42.1093C22.9041 42.3427 22.6384 42.5153 22.332 42.5993L22.2543 42.6202C22.62 43.1745 22.7734 43.8186 22.6917 44.4563C22.6153 44.8742 22.4115 45.2656 22.1023 45.5884C21.793 45.9112 21.39 46.1532 20.9368 46.2883L20.9321 46.283ZM22.4788 4.91871L23.1941 5.07362C24.3857 5.35317 25.6118 5.50098 26.8445 5.51367C25.9137 5.3663 24.5763 5.21264 24.2066 5.16723C23.6367 5.09289 23.0463 5.0118 22.4629 4.91716L22.4788 4.91871Z" fill="#0F0E0E"/>
<path fill-rule="evenodd" clip-rule="evenodd" d="M17.2747 48.3709C17.8161 48.447 18.3708 48.3903 18.8783 48.2071C19.3859 48.0239 19.8271 47.721 20.1539 47.3315C20.4402 46.9524 20.5737 46.499 20.5331 46.0445C20.9793 45.9565 21.3854 45.7521 21.699 45.4578C22.0126 45.1635 22.2193 44.7927 22.2924 44.3933C22.3587 43.6708 22.1257 42.9516 21.6369 42.3699C21.8222 42.3607 22.0057 42.3323 22.1835 42.2854C22.4147 42.2241 22.6155 42.0953 22.7531 41.9199C22.8907 41.7445 22.957 41.5329 22.9411 41.3198C22.9279 41.124 22.9146 40.9282 22.8907 40.7313C22.6871 38.9985 21.3363 36.8744 20.1199 35.5272L17.7613 32.9255C18.6858 31.7816 19.5872 30.607 20.4663 29.4397C22.7066 26.4592 24.8503 23.3934 26.7837 20.2502C27.9778 18.3338 29.0542 16.3617 30.0084 14.3427C31.0523 12.1048 31.8237 9.51302 31.4988 7.07097C31.3397 5.66059 30.7124 4.32339 29.6961 3.22788C28.8754 2.3652 29.0839 4.2313 27.4763 4.39778C24.9507 4.66012 20.5514 3.68701 20.5595 3.96777C20.605 4.76935 28.8918 5.13317 27.9292 5.63278C26.081 6.57305 19.8912 4.47225 18.4227 4.46719C10.6909 4.42776 6.38325 14.5765 4.30991 22.7027C2.9037 28.2127 1.88741 34.6005 3.34101 40.1368C4.38294 44.1053 6.72894 47.631 11.3554 49.3237C12.8643 49.8589 14.5029 50.0426 16.1148 49.8573C16.2942 49.838 16.4654 49.7797 16.613 49.6874C16.835 49.5315 17.0111 49.3303 17.1263 49.101C17.2416 48.8718 17.2924 48.6213 17.2747 48.3709Z" fill="#0F0E0E"/>
<path fill-rule="evenodd" clip-rule="evenodd" d="M5.82579 43.5568C8.15677 46.9008 11.6027 49.3377 15.9925 48.8721C16.5452 48.5225 15.9223 47.0147 15.9223 47.0147C17.9051 48.0187 20.4755 47.1344 19.0926 45.14C19.0926 45.14 21.0066 45.4873 21.2528 44.2348C21.4991 42.9823 18.2005 40.3082 18.2005 40.3082C18.2005 40.3082 20.7859 41.684 21.886 41.3733L21.8398 40.8374C21.5731 38.6619 19.3011 36.1399 19.3011 36.1399L16.3995 32.9445C16.3995 32.9445 25.0525 22.4729 29.0126 13.9607C35.7631 -0.543982 18.2354 -0.927768 10.5876 10.562C3.4665 21.2631 2.1119 38.2184 5.82579 43.5568Z" fill="#E9BC9D"/>
<path fill-rule="evenodd" clip-rule="evenodd" d="M15.4953 36.9737C15.4543 36.9216 15.4019 36.8773 15.3411 36.8436C15.2803 36.8098 15.2124 36.7873 15.1416 36.7773C15.0707 36.7673 14.9983 36.7701 14.9287 36.7855C14.8591 36.8009 14.7937 36.8285 14.7365 36.8668C14.6768 36.903 14.626 36.9496 14.5874 37.0038C14.5487 37.058 14.5229 37.1185 14.5115 37.1818C14.5002 37.2451 14.5035 37.3098 14.5213 37.3719C14.5392 37.434 14.5711 37.4922 14.6152 37.5431C18.0818 41.7613 21.0296 42.6788 21.0349 42.6793C21.1717 42.7228 21.3224 42.7164 21.4539 42.6616C21.5854 42.6067 21.6868 42.5079 21.736 42.3868C21.7851 42.2657 21.7778 42.1323 21.7158 42.016C21.6538 41.8996 21.5421 41.8098 21.4053 41.7663C21.4053 41.7663 18.7661 40.9547 15.4953 36.9737Z" fill="#0F0E0E"/>
<path fill-rule="evenodd" clip-rule="evenodd" d="M14.277 40.3703C14.2357 40.3177 14.1826 40.2732 14.1212 40.2393C14.0597 40.2055 13.9911 40.1831 13.9196 40.1735C13.848 40.1638 13.775 40.1672 13.705 40.1834C13.635 40.1996 13.5694 40.2282 13.5123 40.2675C13.4538 40.3042 13.4041 40.3509 13.3665 40.4049C13.3288 40.4589 13.3038 40.5191 13.293 40.5818C13.2823 40.6446 13.2859 40.7086 13.3038 40.7701C13.3216 40.8316 13.3533 40.8892 13.3969 40.9396C16.8582 45.1574 19.8055 46.0795 19.8161 46.0806C19.883 46.1033 19.9544 46.1138 20.026 46.1115C20.0977 46.1092 20.168 46.0942 20.2329 46.0672C20.2978 46.0403 20.3559 46.0021 20.4038 45.9548C20.4516 45.9076 20.4881 45.8523 20.5112 45.7922C20.5377 45.7328 20.5503 45.6691 20.5482 45.6052C20.546 45.5413 20.5292 45.4785 20.4988 45.4205C20.4684 45.3625 20.4249 45.3106 20.3712 45.2679C20.3174 45.2253 20.2543 45.1927 20.1859 45.1722C20.1859 45.1722 17.5425 44.3507 14.277 40.3703Z" fill="#0F0E0E"/>
<path fill-rule="evenodd" clip-rule="evenodd" d="M10.6955 41.995C10.6533 41.9436 10.6 41.9 10.5388 41.8667C10.4775 41.8335 10.4095 41.8112 10.3385 41.8013C10.2676 41.7913 10.1951 41.7938 10.1252 41.8086C10.0554 41.8234 9.98948 41.8502 9.93135 41.8876C9.87321 41.9249 9.82396 41.9721 9.7864 42.0263C9.74884 42.0804 9.72371 42.1407 9.71245 42.2034C9.70119 42.2662 9.70401 42.3304 9.72076 42.3922C9.73751 42.4541 9.76785 42.5124 9.81006 42.5638C13.2678 46.767 17.1529 48.2121 17.1529 48.2121C17.2202 48.237 17.2924 48.25 17.3654 48.2502C17.4384 48.2504 17.5107 48.2379 17.5782 48.2134C17.6457 48.1889 17.7071 48.1529 17.7588 48.1074C17.8106 48.0619 17.8518 48.0078 17.8799 47.9482C17.9081 47.8886 17.9227 47.8247 17.9229 47.7601C17.9232 47.6956 17.909 47.6316 17.8813 47.5718C17.8536 47.5121 17.8129 47.4577 17.7615 47.4119C17.71 47.3661 17.6489 47.3297 17.5816 47.3047C17.5816 47.3047 13.9969 45.9885 10.6955 41.995Z" fill="#0F0E0E"/>
<path fill-rule="evenodd" clip-rule="evenodd" d="M14.7531 31.1728C18.3242 26.8411 28.397 13.0435 29.0821 6.38634C29.1268 6.02531 29.1427 5.68048 29.1622 5.35021C29.1816 5.01995 29.187 4.67406 29.1882 4.36101C29.3602 4.56048 29.5133 4.77216 29.646 4.99388C30.6858 6.6418 30.8423 9.10071 29.619 12.3983C29.4907 12.7417 29.35 13.0982 29.1923 13.4625L28.9653 13.9529C25.428 21.5619 18.1424 30.7333 16.6306 32.5936C16.0473 32.0777 15.4196 31.6026 14.7531 31.1728Z" fill="#D17F59"/>
<path fill-rule="evenodd" clip-rule="evenodd" d="M15.2051 30.841C15.1388 30.8159 15.0675 30.803 14.9955 30.8029C14.9234 30.8029 14.8521 30.8158 14.7859 30.8409C14.7196 30.8659 14.6598 30.9026 14.61 30.9487C14.5603 30.9948 14.5216 31.0493 14.4963 31.109C14.468 31.1677 14.4533 31.2308 14.4533 31.2945C14.4533 31.3583 14.4679 31.4214 14.4962 31.48C14.5245 31.5387 14.566 31.5916 14.6181 31.6357C14.6702 31.6797 14.7318 31.714 14.7993 31.7364C15.7704 32.0774 19.0657 35.9469 19.0734 35.9714C19.1164 36.022 19.1703 36.0646 19.2319 36.0968C19.2935 36.129 19.3617 36.1501 19.4325 36.159C19.5034 36.1678 19.5755 36.1643 19.6448 36.1485C19.7141 36.1327 19.7791 36.1049 19.8363 36.0669C19.8935 36.0288 19.9416 35.9811 19.978 35.9266C20.0143 35.8721 20.0382 35.8117 20.0482 35.749C20.0582 35.6863 20.0542 35.6225 20.0363 35.5612C20.0184 35.4999 19.9871 35.4423 19.9441 35.3917C19.9441 35.3917 16.4559 31.3042 15.2051 30.841Z" fill="#0F0E0E"/>
</svg>
