<svg width="31" height="51" viewBox="0 0 31 51" fill="none" xmlns="http://www.w3.org/2000/svg">
<path fill-rule="evenodd" clip-rule="evenodd" d="M9.46581 45.5919C9.02118 45.4372 8.633 45.1776 8.34354 44.8413C8.05407 44.5049 7.8744 44.1048 7.8241 43.6843C7.78019 43.0435 7.9723 42.4074 8.37159 41.8715L8.2953 41.8469C7.99494 41.7478 7.74058 41.5628 7.57254 41.3212C7.40451 41.0797 7.33243 40.7953 7.36774 40.5134C7.38719 40.314 7.41696 40.1094 7.45267 39.9139C7.77192 38.1218 9.27271 36.0209 10.6242 34.6831L12.9757 32.3605C12.168 31.2337 11.3904 30.077 10.6249 28.9433C8.55586 25.8475 6.60034 22.6894 4.85263 19.4407C3.77218 17.4605 2.81022 15.4314 1.97077 13.3617C1.04345 11.0172 0.426442 8.34553 0.909829 5.85559C1.16521 4.39304 1.90378 3.03 3.03258 1.9381C3.11985 1.83023 3.23903 1.74574 3.37701 1.6939C3.515 1.64207 3.66644 1.6249 3.81472 1.64427C4.49769 1.80887 4.39343 2.94782 5.5092 3.11933C6.36842 3.22563 7.23769 3.25381 8.10341 3.20346C9.0772 3.15525 10.0492 3.07877 11.0265 3.00203C11.3511 2.98596 11.6917 2.9691 12.0163 2.95303C12.3409 2.93695 12.6413 2.95987 12.7289 3.24843C12.7394 3.28855 12.742 3.32997 12.7366 3.37087C12.7057 3.64168 12.4119 3.8074 12.0826 3.91819L12.5313 3.83928C13.1814 3.69445 13.8477 3.61393 14.5179 3.59919C23.2847 3.9682 26.6628 16.5561 27.8539 22.7424C28.9343 28.3579 29.571 34.8079 27.7583 40.3399C26.4182 44.4785 23.7187 47.8859 18.9749 49.3491C17.3726 49.8383 15.6539 49.9494 13.9883 49.6716C13.7512 49.635 13.5287 49.5452 13.342 49.4107C13.1316 49.2591 12.9588 49.0708 12.8342 48.8576C12.7097 48.6443 12.636 48.4106 12.6178 48.1711C12.0649 48.1763 11.5195 48.0568 11.0332 47.8238C10.5469 47.5908 10.1356 47.2521 9.83814 46.8395C9.58613 46.4605 9.45891 46.0266 9.47084 45.5869L9.46581 45.5919ZM10.4147 4.21809C9.82644 4.28501 9.23164 4.33336 8.65281 4.38092C8.3016 4.39831 6.9574 4.49794 5.99811 4.60685C7.23164 4.65119 8.46663 4.55989 9.67478 4.33504C9.95001 4.29779 10.1877 4.25767 10.4307 4.2173L10.4147 4.21809Z" fill="#0F0E0E"/>
<path fill-rule="evenodd" clip-rule="evenodd" d="M12.9651 47.8559C12.42 47.9052 11.8699 47.822 11.3743 47.6151C10.8787 47.4082 10.4563 47.0855 10.1526 46.6819C9.88961 46.2898 9.78353 45.8307 9.85153 45.3787C9.41128 45.2698 9.01805 45.0465 8.72263 44.7378C8.4272 44.429 8.24314 44.049 8.19422 43.6467C8.17217 42.9208 8.44792 42.2124 8.97045 41.6525C8.78588 41.6383 8.6042 41.6028 8.43 41.547C8.20184 41.4747 8.00831 41.3359 7.88131 41.1532C7.75431 40.9706 7.70143 40.7551 7.73137 40.5423C7.75643 40.3473 7.7818 40.1571 7.8175 39.9616C8.12495 38.2363 9.60211 36.1837 10.898 34.896L13.41 32.4096C12.5558 31.2236 11.7265 30.008 10.919 28.8008C8.86149 25.7186 6.90568 22.5558 5.16448 19.3257C4.08843 17.3552 3.13236 15.3351 2.30038 13.2742C1.39259 10.9854 0.77854 8.36082 1.25042 5.94231C1.49537 4.54043 2.20199 3.23356 3.28189 2.18524C4.15373 1.36731 3.83301 3.22088 5.42833 3.46313C7.93453 3.84452 12.3859 3.0761 12.3612 3.36077C12.2674 4.15907 3.9705 4.13056 4.90163 4.67497C6.69056 5.70128 12.9981 3.89613 14.4648 3.96051C22.1877 4.282 25.8778 14.6247 27.4584 22.8373C28.5305 28.4059 29.1604 34.8326 27.3752 40.2924C26.0955 44.2059 23.5401 47.611 18.8185 49.0872C17.2785 49.5458 15.6324 49.6517 14.0338 49.395C13.8548 49.3669 13.687 49.2988 13.5462 49.1971C13.334 49.0318 13.1703 48.8234 13.0691 48.5898C12.9679 48.3562 12.9322 48.1044 12.9651 47.8559Z" fill="#0F0E0E"/>
<path fill-rule="evenodd" clip-rule="evenodd" d="M24.7304 43.5826C22.2012 46.8116 18.6133 49.0821 14.2578 48.4096C13.727 48.0343 14.4399 46.5582 14.4399 46.5582C12.3995 47.467 9.88596 46.4624 11.3868 44.5315C11.3868 44.5315 9.45494 44.7925 9.28452 43.5302C9.11409 42.2678 12.5692 39.7536 12.5692 39.7536C12.5692 39.7536 9.90448 41.0051 8.8247 40.6429L8.90315 40.1099C9.30063 37.9502 11.7213 35.5391 11.7213 35.5391L14.8114 32.4855C14.8114 32.4855 6.80192 21.6197 3.36162 12.9512C-2.50647 -1.8755 15.0208 -1.40645 21.9652 10.4285C28.4303 21.4369 28.7611 38.4322 24.7304 43.5826Z" fill="#E9BC9D"/>
<path fill-rule="evenodd" clip-rule="evenodd" d="M15.4876 36.5587C15.5325 36.5097 15.5879 36.4689 15.6506 36.4388C15.7133 36.4087 15.7821 36.3898 15.8531 36.3832C15.9241 36.3766 15.9958 36.3825 16.0642 36.4004C16.1326 36.4184 16.1963 36.4481 16.2518 36.4878C16.3072 36.5276 16.3533 36.5766 16.3873 36.6321C16.4213 36.6876 16.4426 36.7485 16.4501 36.8113C16.4575 36.8741 16.4509 36.9376 16.4306 36.9981C16.4103 37.0587 16.3767 37.1151 16.3318 37.1642C12.6159 41.2125 9.61733 41.994 9.61201 41.9943C9.47277 42.0312 9.32265 42.0177 9.19466 41.9567C9.06668 41.8957 8.97132 41.7923 8.92956 41.669C8.88781 41.5458 8.90308 41.4129 8.97201 41.2997C9.04094 41.1864 9.15789 41.102 9.29713 41.065C9.29713 41.065 11.9827 40.3982 15.4876 36.5587Z" fill="#0F0E0E"/>
<path fill-rule="evenodd" clip-rule="evenodd" d="M16.4701 40.0053C16.5616 39.9062 16.6937 39.8433 16.8376 39.8304C16.9814 39.8175 17.1251 39.8557 17.2371 39.9366C17.3491 40.0176 17.4202 40.1345 17.4347 40.2618C17.4493 40.3891 17.4061 40.5163 17.3147 40.6154C13.6041 44.6635 10.6052 45.4403 10.5948 45.4456C10.5259 45.4639 10.4535 45.47 10.3819 45.4635C10.3103 45.4571 10.2409 45.4382 10.1775 45.408C10.0495 45.347 9.95415 45.2435 9.91239 45.1203C9.87064 44.9971 9.88591 44.8642 9.95484 44.751C10.0238 44.6377 10.1407 44.5533 10.28 44.5163C10.28 44.5163 12.9694 43.8257 16.4701 40.0053Z" fill="#0F0E0E"/>
<path fill-rule="evenodd" clip-rule="evenodd" d="M19.9548 41.8009C19.9989 41.7501 20.0542 41.7078 20.1174 41.6765C20.1806 41.6452 20.2503 41.6256 20.3223 41.6189C20.3943 41.6123 20.4671 41.6187 20.5362 41.6377C20.6053 41.6568 20.6693 41.6881 20.7243 41.7298C20.7809 41.7688 20.8281 41.8175 20.8629 41.873C20.8977 41.9285 20.9196 41.9897 20.927 42.0528C20.9345 42.116 20.9275 42.1798 20.9064 42.2405C20.8853 42.3012 20.8506 42.3575 20.8044 42.4061C17.0985 46.4445 13.1316 47.6991 13.1319 47.7038C13.0632 47.7255 12.9903 47.735 12.9174 47.7318C12.8445 47.7286 12.7731 47.7127 12.7071 47.685C12.6412 47.6574 12.5821 47.6185 12.5331 47.5706C12.4842 47.5227 12.4463 47.4668 12.4218 47.4059C12.3973 47.3451 12.3866 47.2806 12.3902 47.2161C12.3939 47.1516 12.4118 47.0884 12.4431 47.03C12.4743 46.9717 12.5183 46.9193 12.5724 46.876C12.6265 46.8327 12.6898 46.7992 12.7585 46.7775C12.7585 46.7775 16.4174 45.6326 19.9548 41.8009Z" fill="#0F0E0E"/>
</svg>
