<svg viewBox="0 0 40 39" fill="none" xmlns="http://www.w3.org/2000/svg">
  <path fill-rule="evenodd" clip-rule="evenodd" d="M19.9639 0.262704C19.9639 0.573429 19.8114 0.634752 19.0337 0.636574C18.5137 0.63785 18.5119 0.638854 18.5119 0.913494C18.5119 1.1885 18.5133 1.18913 19.0043 1.1731C19.6166 1.15296 20.0235 1.31543 20.1951 1.64848C20.3542 1.95747 20.3617 2.19284 20.2222 2.50028C20.0368 2.90887 19.7188 3.04082 18.8212 3.08137L17.996 3.11863L17.9364 2.2743C17.9035 1.80986 17.8767 1.13118 17.8767 0.766059V0.102147L18.217 0.0663375C18.4042 0.0467463 18.8737 0.0237836 19.2606 0.0153093L19.9639 0V0.262704ZM21.7446 0.122012C21.7506 0.130122 21.8476 0.403214 21.9601 0.728973C22.2731 1.63609 22.2543 1.63107 22.6756 0.918778C22.9997 0.371138 23.0947 0.273548 23.3031 0.274733C23.8316 0.27774 23.8129 0.372232 23.0496 1.55581C22.0947 3.03635 21.785 3.30206 21.189 3.1518C21.0105 3.10688 20.9622 3.03681 20.9622 2.82304C20.9622 2.59222 20.9971 2.5514 21.195 2.5514C21.5137 2.5514 21.7789 2.39467 21.7789 2.20623C21.7789 2.12022 21.6156 1.61941 21.4159 1.09346C21.2163 0.567506 21.0529 0.101692 21.0529 0.0584097C21.0529 -0.00245948 21.6953 0.0565871 21.7446 0.122012ZM25.3066 0.778088C25.3324 0.803966 25.2676 1.09063 25.1625 1.41494C25.0575 1.73933 24.9871 2.00467 25.0062 2.00467C25.0251 2.00467 25.3516 1.82015 25.7314 1.59463C26.4879 1.14549 26.5186 1.13774 26.9469 1.28764L27.2413 1.39079L26.5574 1.78881C26.1812 2.00777 25.855 2.21762 25.8324 2.25526C25.8099 2.2928 25.9256 2.76663 26.0895 3.30817L26.3873 4.29282L26.1023 4.23168C25.6876 4.14275 25.6343 4.07368 25.4557 3.39437C25.3667 3.05603 25.2647 2.74649 25.229 2.70649C25.0737 2.53218 24.6991 2.85156 24.5868 3.25395C24.4784 3.64276 24.4602 3.65935 24.1989 3.60686C24.0481 3.57661 23.9048 3.53178 23.8804 3.50736C23.856 3.48285 24.0351 2.82376 24.2784 2.04267L24.7206 0.622633L24.9901 0.67676C25.1383 0.706556 25.2807 0.752118 25.3066 0.778088ZM18.7161 1.79163C18.6538 1.81696 18.6027 1.9777 18.6027 2.14892C18.6027 2.45035 18.614 2.46028 18.9582 2.46028C19.1538 2.46028 19.3784 2.4354 19.4574 2.40497C19.6265 2.33982 19.6476 1.99684 19.492 1.84066C19.3838 1.73204 18.9334 1.70361 18.7161 1.79163ZM11.6117 2.08978C11.764 2.37554 11.732 2.42083 11.1612 2.72626C10.8617 2.88655 10.6167 3.06031 10.6167 3.11253C10.6167 3.20146 10.9268 3.79357 11.4684 4.73832C11.5977 4.96384 11.7039 5.17415 11.7046 5.20568C11.7052 5.23712 11.5793 5.31548 11.4251 5.37963C11.0935 5.51759 11.204 5.65081 10.3365 4.06693C9.98332 3.42198 9.72832 2.86094 9.76979 2.82021C9.86798 2.72381 11.3682 1.9171 11.4529 1.9151C11.4886 1.91428 11.56 1.99283 11.6117 2.08978ZM28.6462 2.04869C28.7972 2.15484 28.8617 2.34966 28.948 2.9599C29.0139 3.42589 29.0998 3.73598 29.1632 3.73598C29.2212 3.73598 29.5743 3.61771 29.9479 3.4731C30.5667 3.23354 30.6492 3.22169 30.8766 3.33878C31.1622 3.48585 31.1752 3.53406 30.9975 3.78874C30.9268 3.89016 30.5959 4.44263 30.2624 5.01633C29.9288 5.59012 29.6434 6.07288 29.6281 6.0891C29.6128 6.10532 29.4732 6.05256 29.3177 5.97183L29.0351 5.82512L29.2819 5.39567C29.4176 5.15939 29.6406 4.7826 29.7774 4.55817C29.9143 4.33383 30.0135 4.13746 29.998 4.12179C29.9824 4.10612 29.6683 4.21364 29.3 4.36062C28.5285 4.6687 28.5591 4.69039 28.4516 3.75895C28.4155 3.44576 28.3486 3.21267 28.303 3.24092C28.2575 3.26926 28.0332 3.61771 27.8048 4.01536C27.5764 4.41302 27.3542 4.73832 27.311 4.73832C27.1693 4.73832 26.7649 4.52601 26.7905 4.46514C26.9393 4.11113 28.2907 1.91692 28.3607 1.91546C28.4121 1.91446 28.5405 1.97433 28.6462 2.04869ZM8.91928 4.12325C9.14143 4.38632 9.56995 4.90917 9.87152 5.28505L10.4199 5.96846L10.178 6.16847L9.93604 6.36848L9.51995 5.89975L9.10395 5.43102L8.63514 5.82795C8.37732 6.04619 8.16641 6.24328 8.16641 6.26579C8.16641 6.28839 8.33212 6.51582 8.53459 6.77115L8.90276 7.2355L8.6934 7.39724C8.57824 7.48627 8.4432 7.55771 8.39329 7.55616C8.34338 7.55452 7.95542 7.12233 7.53116 6.59565C6.42683 5.22481 6.47837 5.31439 6.67076 5.10089C6.90435 4.84165 6.99483 4.87181 7.35012 5.32715C7.52454 5.55076 7.69261 5.73528 7.72346 5.73719C7.79651 5.74166 8.71092 5.01104 8.71092 4.94826C8.71092 4.92183 8.54965 4.70688 8.35254 4.47042L7.99408 4.0406L8.19119 3.84278C8.29955 3.73389 8.41689 3.64486 8.45182 3.64486C8.48676 3.64486 8.69712 3.86018 8.91928 4.12325ZM33.9394 6.01265C33.9394 6.04801 33.8577 6.15116 33.7579 6.24182C33.5517 6.42926 33.5558 6.43154 32.7849 5.70457C32.4096 5.35065 32.398 5.34664 32.2177 5.51048C32.1165 5.60251 32.0337 5.71013 32.0337 5.74977C32.0337 5.78931 32.2269 6.00509 32.463 6.22906C32.8885 6.63273 32.8909 6.6382 32.7213 6.82637C32.6271 6.93088 32.5257 7.01608 32.496 7.01572C32.4664 7.01535 32.2787 6.85334 32.079 6.65569C31.8794 6.45805 31.6778 6.29431 31.6311 6.29185C31.5845 6.28939 31.4507 6.3775 31.3339 6.48767L31.1215 6.68805L31.7364 7.25628L32.3513 7.8246L32.1547 8.02534C31.9244 8.26062 31.9722 8.28795 30.8732 7.29464L30.2233 6.70718L30.7882 6.10742C31.0989 5.77756 31.5709 5.27274 31.8373 4.98571L32.3216 4.46377L33.1305 5.20614C33.5754 5.61436 33.9394 5.97739 33.9394 6.01265ZM6.66087 7.32608L7.79652 8.228L7.61084 8.48988C7.39885 8.78876 7.50711 8.83532 6.44761 7.9899C6.14514 7.74852 5.89766 7.57867 5.89766 7.61247C5.89766 7.64619 6.02662 8.17761 6.18416 8.79322L6.47066 9.91265L6.28889 10.1446L6.10712 10.3767L5.09888 9.57013C4.54431 9.12655 3.9979 8.69837 3.88465 8.61873L3.67874 8.47393L3.91741 8.23429L4.15608 7.99464L4.71891 8.43949C5.6824 9.20099 5.66779 9.19288 5.59755 8.92909C5.0487 6.86938 5.03191 6.76613 5.21295 6.5653C5.3077 6.46015 5.41678 6.38534 5.45526 6.3991C5.49373 6.41286 6.03633 6.82992 6.66087 7.32608ZM35.0095 7.19231L35.206 7.4593L34.7543 7.79235C34.5057 7.9755 34.3024 8.16285 34.3024 8.20868C34.3024 8.25451 34.4556 8.29242 34.6427 8.29288C34.83 8.29324 35.1969 8.31939 35.4582 8.35092C35.8574 8.39912 35.9704 8.45689 36.1644 8.7124L36.3955 9.01656L35.5437 8.96034L34.6918 8.90412L34.4064 9.69633C34.2494 10.132 34.1203 10.5172 34.1196 10.5521C34.1187 10.587 34.0808 10.675 34.0351 10.7475C33.9666 10.8562 33.9197 10.8404 33.7673 10.6564C33.5282 10.368 33.5315 10.2471 33.7982 9.50935C33.9202 9.17193 33.9994 8.86257 33.9744 8.82175C33.8822 8.67212 33.4494 8.75386 33.16 8.97547C32.7877 9.26059 32.7101 9.26004 32.5214 8.97073C32.3779 8.75085 32.379 8.73153 32.542 8.61472C32.6368 8.54683 33.1839 8.14061 33.7579 7.71207C34.3319 7.28352 34.8041 6.93116 34.8072 6.92906C34.8103 6.92696 34.9013 7.04542 35.0095 7.19231ZM3.48571 9.59682C3.64262 9.712 3.64144 9.73251 3.45894 10.0919L3.26845 10.4667L4.34675 11.0364L5.42494 11.6061L5.28256 11.9059L5.14026 12.2057L4.12377 11.6613C3.56466 11.3618 3.06063 11.1168 3.00364 11.1168C2.94665 11.1168 2.83186 11.2603 2.74855 11.4357C2.58066 11.7891 2.5557 11.7995 2.23127 11.6511L2.00494 11.5476L2.23771 11.0816C2.73512 10.0861 3.10474 9.47663 3.21101 9.47663C3.27199 9.47663 3.3956 9.53076 3.48571 9.59682ZM37.7936 12.016C37.7451 12.0615 37.6226 12.1237 37.5211 12.1543C37.3641 12.2017 37.287 12.109 37.0001 11.5267C36.8149 11.1509 36.6324 10.8449 36.5946 10.8466C36.5567 10.8485 36.4382 10.8997 36.3312 10.9606L36.1368 11.0713L36.3382 11.4884C36.6776 12.1909 36.6781 12.1973 36.403 12.34L36.1503 12.4713L35.861 11.8822C35.614 11.3794 35.5486 11.3065 35.4136 11.3843C34.9958 11.6244 34.9973 11.6053 35.3382 12.3364C35.6688 13.0453 35.7176 13.2116 35.5956 13.2139C35.5581 13.2145 35.4427 13.2379 35.339 13.2659C35.1749 13.3102 35.0882 13.1903 34.6724 12.344C34.3767 11.7422 34.2267 11.3386 34.2791 11.286C34.3256 11.2393 34.9319 10.9188 35.6263 10.5738L36.8888 9.94664L37.3852 10.94C37.6996 11.5691 37.8493 11.9636 37.7936 12.016ZM3.11481 13.033L4.461 13.4318L4.407 13.7028C4.37733 13.8519 4.3334 13.9935 4.30945 14.0177C4.28549 14.0417 3.89418 13.9494 3.43988 13.8125C2.98559 13.6756 2.59373 13.5838 2.56923 13.6084C2.54463 13.633 2.82958 14.0618 3.20239 14.561C3.74816 15.292 3.87131 15.5155 3.83446 15.7089C3.80932 15.8409 3.75442 15.9702 3.71259 15.9962C3.67066 16.0223 2.9992 15.8501 2.22038 15.6138C0.82038 15.1889 0.804955 15.1813 0.861764 14.95C0.893436 14.8214 0.949427 14.6851 0.986181 14.647C1.02303 14.609 1.45146 14.698 1.93833 14.8447L2.82351 15.1116L2.6666 14.8711C2.5803 14.7388 2.27148 14.308 1.98026 13.9137C1.68913 13.5194 1.45146 13.1491 1.45218 13.0908C1.45509 12.8383 1.57361 12.5672 1.66699 12.5994C1.72289 12.6185 2.37438 12.8137 3.11481 13.033ZM0.723462 13.1859C0.856592 13.3559 0.899878 13.5046 0.862762 13.6643C0.796514 13.949 0.414003 14.3061 0.17533 14.3061C-0.114163 14.3061 -0.0246845 13.9419 0.293848 13.8239C0.461826 13.7616 0.514192 13.4312 0.364273 13.3796C0.261725 13.3445 0.346758 12.9393 0.456656 12.9393C0.497131 12.9393 0.617194 13.0502 0.723462 13.1859ZM38.5695 13.9481C38.8289 14.8626 38.7659 15.2447 38.3047 15.5559C37.6478 15.9992 36.8971 15.6388 36.6636 14.7681C36.5626 14.3915 36.5466 14.3776 36.2698 14.4284C36.1112 14.4574 35.8946 14.5067 35.7886 14.538C35.6312 14.5843 35.5772 14.5406 35.4932 14.2989C35.4368 14.1362 35.401 13.9934 35.4137 13.9816C35.4725 13.9268 38 13.2298 38.1694 13.2217C38.3333 13.214 38.3911 13.319 38.5695 13.9481ZM18.4037 13.797C19.6547 14.377 20.2309 15.6325 19.967 17.2037C19.7394 18.5586 18.9301 19.69 17.8252 20.1979C16.9896 20.5821 16.1515 20.6779 13.5988 20.6814C11.5122 20.6842 11.2525 20.6681 11.0838 20.5251L10.8955 20.3657L11.4735 17.1637C12.0414 14.0173 12.1336 13.6424 12.3626 13.5436C12.4255 13.5163 13.6817 13.5026 15.1542 13.5129L17.8313 13.5315L18.4037 13.797ZM28.9902 13.6322C29.0702 13.7127 29.1162 13.846 29.0922 13.9284C29.0682 14.0108 29.0226 14.2423 28.9907 14.4428C28.8939 15.0527 28.7606 15.3964 28.5839 15.4914C28.3256 15.6302 21.6641 15.6123 21.5248 15.4724C21.3898 15.3368 21.3887 15.1616 21.5179 14.4162C21.6903 13.4225 21.4252 13.486 25.4025 13.486C28.4414 13.486 28.8615 13.5031 28.9902 13.6322ZM37.4787 14.0723C37.1413 14.1965 37.1167 14.31 37.3288 14.7617C37.4064 14.927 37.5074 14.9895 37.6968 14.9895C38.066 14.9895 38.1739 14.7752 38.0364 14.3145C37.9135 13.9024 37.9258 13.9078 37.4787 14.0723ZM14.6097 16.0603C14.6097 16.073 14.528 16.5137 14.4282 17.0397C14.3283 17.5658 14.2467 18.0269 14.2467 18.0647C14.2467 18.2046 15.9768 18.1389 16.2961 17.9868C16.7121 17.7886 16.9692 17.347 16.9692 16.8306C16.9692 16.4903 16.9259 16.3809 16.73 16.2263C16.523 16.0628 16.3645 16.0374 15.5503 16.0374C15.0329 16.0374 14.6097 16.0477 14.6097 16.0603ZM1.14118 16.7891C1.11613 16.9521 1.07049 17.321 1.03981 17.6092L0.984093 18.1332H1.30825C1.61589 18.1332 1.63241 18.1175 1.63241 17.8256C1.63241 17.6565 1.65791 17.39 1.68913 17.2334C1.73759 16.9899 1.7856 16.9486 2.01991 16.9486H2.29398L2.24071 17.5865C2.20214 18.049 2.21721 18.2247 2.29561 18.2256C2.35515 18.2262 2.49309 18.2508 2.60217 18.2802C2.81942 18.3387 2.83494 18.2907 2.95101 17.1992C3.00392 16.7013 3.01916 16.6752 3.25729 16.6752C3.39514 16.6752 3.52673 16.6942 3.54978 16.7172C3.61348 16.7812 3.40921 18.8398 3.33134 18.9179C3.26192 18.9877 0.563193 18.7876 0.418538 18.702C0.343941 18.6579 0.38968 17.7476 0.510196 16.8803C0.561561 16.5104 0.577988 16.493 0.875467 16.493C1.17567 16.493 1.18529 16.5037 1.14118 16.7891ZM27.4222 16.8725C28.6561 17.4533 29.194 18.595 28.9679 20.1532C28.7307 21.7869 27.9174 22.8446 26.4525 23.4248C25.927 23.6329 25.8061 23.6416 22.9809 23.6727C20.059 23.7049 20.0537 23.7046 19.982 23.5101C19.8784 23.2291 21.0209 16.9562 21.2151 16.7388C21.3515 16.5862 21.5579 16.5765 24.1341 16.6022L26.9063 16.6297L27.4222 16.8725ZM38.3631 16.7243C38.7942 16.9051 39.0003 17.0969 39.2125 17.5145C39.6908 18.4552 39.1573 19.6384 38.1523 19.8661C36.8917 20.1516 35.8382 18.8343 36.3478 17.6096C36.5358 17.1578 36.7293 16.9546 37.161 16.7555C37.6069 16.5499 37.9276 16.5416 38.3631 16.7243ZM37.5071 17.3291C36.7342 17.5357 36.5982 18.6609 37.2963 19.0749C37.614 19.2634 37.9522 19.2682 38.2972 19.089C38.6332 18.9145 38.7492 18.6955 38.7492 18.2354C38.7492 17.5893 38.1553 17.156 37.5071 17.3291ZM23.5939 19.0621C23.5939 19.0831 23.5122 19.5467 23.4124 20.0923C23.3126 20.6378 23.2309 21.1173 23.2309 21.1578C23.2309 21.2574 24.5504 21.2473 24.9926 21.1443C25.5465 21.0153 25.884 20.6149 25.9315 20.0302C25.9667 19.5971 25.9452 19.5215 25.7302 19.3199C25.5124 19.1157 25.3996 19.0909 24.5417 19.059C24.0204 19.0396 23.5939 19.0409 23.5939 19.0621ZM2.05558 20.059C2.28518 20.2504 2.44916 20.661 2.44916 21.0445V21.4136H2.99366H3.53816V21.7204V22.0273L2.08308 22.1456C1.195 22.2178 0.595414 22.2312 0.544321 22.1799C0.498311 22.1337 0.448671 21.7407 0.433969 21.3065C0.410828 20.6227 0.432695 20.4826 0.597316 20.2591C0.929007 19.8088 1.6384 19.7114 2.05558 20.059ZM1.13002 20.6553C1.01894 20.7669 0.990538 20.9047 1.02511 21.1641C1.05125 21.3597 1.09109 21.5382 1.1135 21.5608C1.13601 21.5834 1.32586 21.5743 1.5354 21.5407L1.91637 21.4795L1.85484 21.1048C1.82108 20.8987 1.7522 20.6789 1.70175 20.6162C1.57333 20.4565 1.31007 20.4745 1.13002 20.6553ZM37.8761 20.8807L39.3171 21.0782L39.2588 21.7072C39.1897 22.4537 39.0274 22.8842 38.7386 23.0874C38.4314 23.3034 38.1138 23.27 37.824 22.9911C37.6839 22.8565 37.5694 22.7956 37.5694 22.8559C37.5694 22.9162 37.4324 23.0311 37.265 23.1113C36.9846 23.2455 36.9353 23.2451 36.6423 23.1055C36.3076 22.946 36.1174 22.6464 36.1174 22.2787C36.1174 21.9085 36.3174 20.6846 36.3781 20.6839C36.4094 20.6835 37.0835 20.7721 37.8761 20.8807ZM36.7309 21.8008C36.6796 22.2879 36.7866 22.507 37.0757 22.507C37.3253 22.507 37.4787 22.2311 37.4787 21.7819C37.4787 21.512 37.3459 21.4136 36.9816 21.4136C36.8016 21.4136 36.7659 21.4686 36.7309 21.8008ZM13.4597 21.7715C13.5971 21.9094 13.3426 23.3236 13.1445 23.5226C12.9973 23.6704 12.8236 23.6916 11.7621 23.6916C10.825 23.6916 10.5238 23.6622 10.4413 23.5624C10.359 23.4628 10.3673 23.2601 10.4775 22.6766C10.5561 22.2605 10.6567 21.8836 10.7009 21.8393C10.7452 21.7948 10.9131 21.7314 11.0742 21.6983C11.4926 21.6124 13.3582 21.6696 13.4597 21.7715ZM38.0616 21.7177C38.0334 21.7914 38.0234 21.989 38.0395 22.1566C38.0616 22.3893 38.1155 22.4682 38.2666 22.4898C38.5063 22.524 38.682 22.2417 38.6414 21.8875C38.6192 21.6953 38.5582 21.6351 38.3629 21.6125C38.2058 21.5943 38.0939 21.6333 38.0616 21.7177ZM17.6551 26.5164C17.7248 26.5164 17.8476 26.6173 17.9281 26.7407C18.0515 26.9297 18.0573 27.0174 17.9651 27.2978C17.8724 27.5798 17.7709 27.67 17.299 27.8894L16.7423 28.1482L17.2705 28.1523C17.7652 28.1563 17.7967 28.1695 17.7696 28.3616C17.7424 28.553 17.6903 28.5683 16.9797 28.5933L16.2189 28.6199L16.2769 28.3286C16.3552 27.9359 16.4407 27.8489 17.0184 27.5743C17.3803 27.4022 17.5137 27.2886 17.5137 27.1526C17.5137 26.8793 17.2643 26.8274 17.027 27.0513C16.8467 27.2215 16.8008 27.2296 16.6494 27.1183C16.4962 27.0058 16.4917 26.9738 16.6095 26.8312C16.7765 26.6293 17.2479 26.4183 17.4077 26.4741C17.4741 26.4973 17.5855 26.5164 17.6551 26.5164ZM21.5747 26.681C21.7324 26.8805 21.7164 27.2555 21.5394 27.5092C21.4576 27.6265 21.1819 27.8178 20.9269 27.9343L20.463 28.1461L20.9722 28.1513C21.4655 28.1564 21.4802 28.1637 21.4382 28.3843C21.3962 28.6044 21.3704 28.6121 20.6793 28.6121H19.9639V28.3546C19.9639 28.0569 20.2275 27.7783 20.6899 27.5871C21.0726 27.4289 21.2735 27.2059 21.202 27.0187C21.1347 26.8426 20.9231 26.842 20.7483 27.0175C20.5799 27.1866 20.2362 27.1972 20.2362 27.0334C20.2362 26.8722 20.5993 26.5434 20.826 26.4991C21.1139 26.443 21.4514 26.525 21.5747 26.681ZM19.7306 26.6595C20.0122 26.9423 19.8203 28.1329 19.4452 28.4291C18.9824 28.7947 18.1489 28.5689 18.1489 28.0778C18.1489 27.5574 18.3453 26.9127 18.562 26.7214C18.844 26.4725 19.5093 26.4373 19.7306 26.6595ZM22.951 26.8125C22.9468 26.9754 22.8754 27.4367 22.7922 27.8376C22.6577 28.4859 22.6169 28.57 22.4234 28.5975C22.1877 28.6309 22.1871 28.6156 22.3801 27.491C22.4375 27.1562 22.4318 27.1463 22.2122 27.2016C22.0459 27.2435 21.969 27.217 21.9252 27.1024C21.8547 26.9179 21.8248 26.9508 22.278 26.7141C22.814 26.4341 22.9602 26.4554 22.951 26.8125ZM18.8908 26.9983C18.8088 27.0975 18.6121 27.7825 18.6048 27.9939C18.6037 28.0297 18.6834 28.1024 18.7821 28.1554C18.9233 28.2313 18.998 28.2152 19.133 28.0796C19.3563 27.8555 19.4831 27.0686 19.3134 26.9606C19.1408 26.8508 19.0026 26.8631 18.8908 26.9983ZM34.4159 28.01C34.6165 28.1629 34.6131 28.2386 34.3932 28.521C34.2955 28.6463 34.2148 28.7935 34.2137 28.848C34.2126 28.9025 34.6396 29.251 35.1628 29.6225C35.6859 29.994 36.1138 30.3184 36.1136 30.3435C36.1135 30.3685 36.0364 30.4896 35.9423 30.6125L35.7712 30.8361L35.2864 30.5087C35.0197 30.3286 34.5701 30.013 34.2873 29.8072L33.773 29.4331L33.5033 29.8014L33.2335 30.1698L33.0027 29.9605L32.7719 29.7512L33.4238 28.8206C33.7822 28.3088 34.1164 27.8898 34.1663 27.8896C34.2162 27.8892 34.3286 27.9434 34.4159 28.01ZM6.40523 29.0444C6.86179 29.7044 6.86125 30.1727 6.4035 30.594C5.87035 31.0849 5.20633 30.9411 4.72091 30.2298L4.49911 29.9049L4.10326 30.1783C3.72384 30.4405 3.70024 30.4452 3.53208 30.2923C3.43562 30.2047 3.35666 30.0828 3.35666 30.0215C3.35666 29.9602 3.89762 29.5155 4.55874 29.0333L5.76072 28.1565L5.91772 28.3616C6.00402 28.4743 6.22345 28.7816 6.40523 29.0444ZM5.28011 29.3225L4.98009 29.5725L5.29027 29.9328C5.57859 30.2675 5.61734 30.2853 5.83977 30.1835C5.99059 30.1146 6.07916 30.0014 6.07916 29.8777C6.07916 29.6753 5.74829 29.0658 5.64066 29.0702C5.60736 29.0716 5.44509 29.1851 5.28011 29.3225ZM32.7334 30.3615L32.9457 30.5618L32.3788 31.136L31.812 31.7104L32.0131 31.9124L32.2143 32.1144L32.6689 31.6647L33.1236 31.215L33.3243 31.4167L33.5251 31.6182L33.077 32.075L32.629 32.5317L32.8805 32.7816L33.1318 33.0315L33.6944 32.4085L34.257 31.7854L34.4801 32.0245L34.7031 32.2635L33.8892 33.0807L33.0753 33.898L31.989 32.8045L30.9027 31.7108L31.6704 30.936C32.0926 30.5098 32.4567 30.1612 32.4795 30.1612C32.5024 30.1612 32.6166 30.2513 32.7334 30.3615ZM8.43631 31.383C8.83688 31.7793 9.16467 32.1317 9.16467 32.1662C9.16467 32.2006 9.08154 32.3043 8.97999 32.3966C8.79831 32.5617 8.78624 32.5552 8.22659 31.9984L7.65785 31.4324L7.44159 31.6635L7.22534 31.8946L7.70059 32.3288L8.17594 32.763L7.93954 32.986C7.80015 33.1175 7.67627 33.1726 7.63761 33.1203C7.60159 33.0714 7.40058 32.8704 7.19094 32.6736C6.81778 32.3232 6.80589 32.3192 6.62593 32.4827C6.52484 32.5746 6.44216 32.6936 6.44216 32.7471C6.44216 32.8006 6.68537 33.0915 6.98267 33.3936L7.52327 33.9428L7.35502 34.1651L7.18668 34.3874L6.33798 33.5853C5.87125 33.1441 5.49637 32.7641 5.5049 32.741C5.55726 32.6002 7.56021 30.6115 7.62673 30.6344C7.67146 30.6498 8.03574 30.9866 8.43631 31.383ZM30.8934 33.4945C31.1775 35.1065 31.1583 35.4174 30.7531 35.7597C30.412 36.0479 30.3666 36.0487 30.1841 35.7689C30.045 35.5558 30.0491 35.5336 30.2707 35.3112C30.3987 35.1826 30.4904 35.0067 30.4745 34.9202C30.4567 34.8236 30.0328 34.5502 29.377 34.2121L28.3084 33.6615L28.6022 33.4433L28.8961 33.2252L29.6028 33.6007C29.9914 33.8072 30.3094 33.9356 30.3094 33.8863C30.3094 33.8369 30.2431 33.5036 30.162 33.1457L30.0146 32.4949L30.2578 32.2848C30.3916 32.1693 30.533 32.0748 30.5721 32.0748C30.6112 32.0748 30.7557 32.7136 30.8934 33.4945ZM10.2531 32.9185C10.2534 32.9566 10.1077 33.1963 9.92941 33.4511C9.75109 33.7058 9.62105 33.9303 9.64056 33.9498C9.65998 33.9694 10.0361 33.8858 10.4764 33.7642L11.2768 33.5431L11.5981 33.7623C11.9452 33.9992 11.9442 34.0004 11.2519 34.1712C11.0273 34.2266 10.7143 34.3127 10.5563 34.3625L10.269 34.4529L10.3202 35.4964C10.3483 36.0702 10.341 36.5397 10.3038 36.5397C10.2667 36.5397 10.1216 36.4717 9.98141 36.3885C9.73984 36.2453 9.72496 36.1983 9.69519 35.4849C9.67795 35.071 9.63502 34.7035 9.59999 34.6684C9.45897 34.5268 9.08644 34.7349 8.85675 35.0833L8.61345 35.4525L8.34365 35.2925C8.19527 35.2046 8.08456 35.1069 8.09744 35.0755C8.11042 35.0441 8.48368 34.4636 8.9269 33.7854L9.73276 32.5524L9.99257 32.7009C10.1356 32.7825 10.2528 32.8805 10.2531 32.9185ZM28.4042 35.0374C28.8269 35.9572 28.915 36.0897 29.0781 36.0508C29.2346 36.0135 29.3069 36.0969 29.5128 36.5517L29.7599 37.0974L29.4674 37.2215C29.1852 37.3412 29.1703 37.3365 29.0389 37.0847L28.9028 36.8238L28.3129 37.0957C27.9885 37.2452 27.6141 37.4097 27.4807 37.4611C27.2461 37.5519 27.2424 37.5643 27.3644 37.8575C27.488 38.1545 27.4853 38.1623 27.2181 38.2734C26.8989 38.4062 26.9454 38.4419 26.6398 37.831C26.4485 37.4487 26.4196 37.3179 26.5036 37.2161C26.738 36.9326 26.5229 35.913 26.0287 34.9653C25.9556 34.8249 26.0692 34.7443 26.8791 34.3626C27.3932 34.1203 27.8372 33.9348 27.8659 33.9506C27.8945 33.9664 28.1368 34.4554 28.4042 35.0374ZM13.7655 34.726C14.701 35.1807 14.9387 36.6185 14.1879 37.2807C12.991 38.3364 11.0925 37.3153 11.381 35.7711C11.4493 35.4053 11.7985 34.9512 12.2009 34.7048C12.5771 34.4744 13.2672 34.4838 13.7655 34.726ZM27.0651 34.9178C26.8239 35.0368 26.8105 35.175 27.0034 35.5497C27.0817 35.7019 27.1736 36.0662 27.2076 36.3595L27.2693 36.8925L27.7878 36.6478L28.3065 36.403L27.9572 35.6285C27.5912 34.8169 27.4684 34.7191 27.0651 34.9178ZM12.7662 35.1811C12.2115 35.3337 11.8988 35.8861 12.0708 36.4094C12.4188 37.4682 13.9756 37.2244 13.974 36.1114C13.9738 35.9041 13.6833 35.264 13.5895 35.264C13.5759 35.264 13.4426 35.2296 13.2932 35.1875C13.1438 35.1454 12.9066 35.1426 12.7662 35.1811ZM25.3566 36.6367C25.5453 37.4418 25.6824 38.1179 25.6611 38.1393C25.6399 38.1606 25.4958 38.2035 25.3408 38.2346L25.059 38.2912L24.9495 37.7321C24.8892 37.4247 24.8126 37.1562 24.7792 37.1355C24.7327 37.1066 23.6175 37.3419 23.5309 37.3988C23.5212 37.4052 23.5777 37.667 23.6564 37.9805C23.7349 38.2942 23.7808 38.5694 23.7581 38.5921C23.7354 38.615 23.5915 38.6588 23.4384 38.6896L23.1599 38.7455L22.8323 37.3762C22.4714 35.867 22.4525 35.7202 22.6184 35.7184C22.6808 35.7177 22.8185 35.6938 22.9243 35.6652C23.0991 35.6182 23.1273 35.6691 23.2306 36.2186C23.3009 36.5934 23.3832 36.8089 23.4464 36.7846C23.5025 36.7629 23.7875 36.6915 24.0795 36.6259L24.6106 36.5065L24.556 36.2042C24.3685 35.1655 24.3353 35.2596 24.9161 35.1853C24.9697 35.1785 25.1674 35.8301 25.3566 36.6367ZM16.2277 35.7078C16.2941 35.7894 16.444 36.0408 16.5608 36.2664C16.9786 37.073 16.9394 37.0661 17.6191 36.45C18.2057 35.9182 18.4258 35.821 18.6789 35.9821C18.7794 36.046 18.7671 36.2714 18.6087 37.2792C18.3134 39.1563 18.3573 39.0282 18.0329 38.963C17.8793 38.9322 17.7387 38.8918 17.7203 38.8733C17.7018 38.8548 17.7509 38.4394 17.8293 37.9501C17.9077 37.4609 17.9597 37.0484 17.9448 37.0334C17.9299 37.0185 17.6788 37.2167 17.3869 37.4738C16.7833 38.0054 16.8094 38.0137 16.3689 37.1514C16.2463 36.9115 16.1119 36.7364 16.0704 36.7621C16.0288 36.7879 15.9433 37.1994 15.8804 37.6767L15.7661 38.5444H15.4752C15.3152 38.5444 15.1639 38.5238 15.1387 38.4986C15.0963 38.4558 15.4791 35.8138 15.565 35.5579C15.616 35.4057 16.0648 35.5071 16.2277 35.7078ZM21.8697 36.1626C21.8697 36.409 21.8436 36.4264 21.3932 36.4807C21.1311 36.5123 20.7611 36.5385 20.5708 36.5389C20.2365 36.5397 20.2256 36.5497 20.2531 36.8296L20.2815 37.1195L20.8824 37.0971C21.4759 37.0751 21.4839 37.0779 21.5324 37.3312C21.5593 37.4723 21.563 37.6063 21.5405 37.6291C21.5181 37.6519 21.2359 37.6874 20.9133 37.7081L20.3269 37.7455V38.0594V38.3734L21.1192 38.3543L21.9114 38.3352L21.9675 38.6105L22.0236 38.8858L21.4795 38.9429C21.1803 38.9743 20.6618 39 20.3272 39H19.7188L19.6599 38.1659C19.5654 36.8301 19.5856 36.0144 19.7144 35.9622C19.7768 35.937 20.2873 35.913 20.8487 35.9091L21.8697 35.9019V36.1626Z" fill="#0077EE"/>
</svg>
