<svg width="299" height="146" fill="none" xmlns="http://www.w3.org/2000/svg"><path d="M102.96 11.875c-.424 0-.834.063-1.222.178a4.302 4.302 0 0 0-8.287-1.592 4.287 4.287 0 0 0-3.152-1.38 4.3 4.3 0 0 0-4.286 3.962 4.303 4.303 0 1 0-.645 7.905 4.301 4.301 0 0 0 4.186 3.318 4.29 4.29 0 0 0 3.275-1.516 4.295 4.295 0 0 0 3.676 2.076 4.303 4.303 0 0 0 4.304-4.304c0-.223-.023-.44-.055-.654a4.279 4.279 0 0 0 2.206.613 4.303 4.303 0 1 0 0-8.606Z" fill="#fff"/><path d="m179.852 11.111-60.579 75.044 60.631-.222V11.172l-.052-.06Z" fill="#6A8889"/><path d="M179.906 11.172v74.76l63.257-.232-63.257-74.528Z" fill="#5C7C7E"/><mask id="a" style="mask-type:luminance" maskUnits="userSpaceOnUse" x="119" y="11" width="125" height="76"><path d="m119.289 86.153 60.579-75.044 63.308 74.59-123.887.454Z" fill="#fff"/></mask><g mask="url(#a)"><path d="M199.95 21.19c.382-1.523.588-3.121.588-4.77 0-10.289-7.922-18.629-17.693-18.629-.914 0-1.813.073-2.689.214v44.23a7.775 7.775 0 0 0 1.96-1.946 7.752 7.752 0 0 0 14.229-4.147 7.754 7.754 0 0 0 10.52-7.244c.001-4-3.026-7.29-6.915-7.708Z" fill="#fff"/></g><mask id="b" style="mask-type:luminance" maskUnits="userSpaceOnUse" x="119" y="11" width="125" height="76"><path d="m119.289 86.153 60.579-75.044 63.308 74.59-123.887.454Z" fill="#fff"/></mask><g mask="url(#b)"><path d="M165.147 16.42c0 2.125.343 4.164.965 6.066a7.755 7.755 0 1 0 1.959 14.418c.516 3.784 3.758 6.701 7.682 6.701a7.713 7.713 0 0 0 4.398-1.37v-44.23c-8.495 1.363-15.004 9.089-15.004 18.414Z" fill="#E6E6E6"/></g><path d="M250.344 19.062a.53.53 0 0 0-.382-.382l-5.565-1.829v-5.833a.6.6 0 0 0-.248-.497c-.192-.125-.376-.152-.554-.076l-5.566 1.793-3.43-4.727c-.113-.153-.28-.23-.496-.23a.581.581 0 0 0-.495.23l-3.431 4.727-5.568-1.793c-.176-.076-.361-.05-.551.076a.595.595 0 0 0-.248.497v5.833l-5.567 1.83a.528.528 0 0 0-.38.38.599.599 0 0 0 .076.554l3.431 4.727-3.431 4.727c-.115.153-.141.337-.076.553.05.191.177.318.38.382l5.567 1.829v5.833c0 .204.082.369.248.496.19.127.374.153.552.077l5.568-1.792 3.43 4.727a.596.596 0 0 0 .495.248.598.598 0 0 0 .496-.247l3.432-4.728 5.565 1.792c.178.076.363.05.554-.077a.6.6 0 0 0 .248-.496v-5.833l5.566-1.829a.526.526 0 0 0 .38-.382c.065-.215.039-.4-.075-.552l-3.431-4.728 3.431-4.727a.61.61 0 0 0 .075-.553Zm-6.128 9.54a11.01 11.01 0 0 1-2.345 3.507c-.985.987-2.155 1.768-3.507 2.346a10.733 10.733 0 0 1-4.262.867 10.73 10.73 0 0 1-4.26-.867c-1.352-.578-2.523-1.36-3.507-2.346a11.024 11.024 0 0 1-2.344-3.507 10.718 10.718 0 0 1-.868-4.26c0-1.486.288-2.907.868-4.26a11.037 11.037 0 0 1 2.344-3.508c.984-.985 2.155-1.766 3.507-2.344a10.745 10.745 0 0 1 4.26-.868c1.488 0 2.907.29 4.262.868a11.043 11.043 0 0 1 3.507 2.344 11.028 11.028 0 0 1 2.345 3.507 10.72 10.72 0 0 1 .868 4.26 10.734 10.734 0 0 1-.868 4.26Z" fill="#DBC063"/><path d="M234.099 15.057a9.295 9.295 0 1 1 0 18.59 9.294 9.294 0 0 1-9.294-9.296 9.295 9.295 0 0 1 9.294-9.294Z" fill="#FFDD71"/><path d="M109.828.42v85.675l56.929-5.188L109.828.42Z" fill="#5C7C7E"/><path d="m109.533 0-54.76 81.399 55.056-.243V.42l-.296-.42Z" fill="#6A8889"/><mask id="c" style="mask-type:luminance" maskUnits="userSpaceOnUse" x="54" y="0" width="113" height="82"><path d="M54.773 81.399 109.533 0l57.225 80.906-111.985.493Z" fill="#fff"/></mask><g mask="url(#c)"><path d="M109.829-6.038H98.868v18.15l-.074-.002a7.794 7.794 0 1 0 2.405 15.207 7.794 7.794 0 0 0 7.652 6.318c.332 0 .658-.027.979-.068V-2.776l-.001-3.262Z" fill="#E6E6E6"/></g><mask id="d" style="mask-type:luminance" maskUnits="userSpaceOnUse" x="54" y="0" width="113" height="82"><path d="M54.773 81.399 109.533 0l57.225 80.906-111.985.493Z" fill="#fff"/></mask><g mask="url(#d)"><path d="M127.035 15.02V-6.039h-17.207v39.606a7.792 7.792 0 0 0 6.778-6.966 7.793 7.793 0 0 0 10.429-11.582Z" fill="#fff"/></g><path d="M119.996 89.076c10.374 17.088-36.946 11.943-56.362 11.943-19.417 0-51.375 1.604-61.759 1.604 21.976-4.906 48.639-36.127 70.288-36.127 21.65 0 36.003 3.09 47.833 22.58Zm167.618 10.567c7.664 0-42.265 5.774-60.785 5.774-18.518 0-66.042 8.306-59.133-9.518 7.239-18.676 41.794-30.963 60.114-28.264 29.398 4.33 52.139 32.008 59.804 32.008Z" fill="#578100"/><path d="M192.033 86.778c8.601 12.634-17.014 3.957-33.116 3.957-16.101 0-57.892 9.508-51.886-4.412 16.18-5.241 23.472-21.65 43.526-21.65 20.055 0 31.665 7.695 41.476 22.105Z" fill="#578100"/><path d="M206.615 103.642c-27.37 0-73.88-.779-104.334-.779 0-13.118 39.778-20.424 59.472-20.424 19.693 0 44.862 8.085 44.862 21.203Z" fill="#8AB420"/><path d="M159.261 102.208s-102.917 2.02-139.995-2.615c21.391-4.1 35.052-17.112 63.996-17.112 28.943 0 75.999 19.727 75.999 19.727Z" fill="#A3CD39"/><path d="M279.889 99.95c-6.418 11.943-126.389 2.674-126.389 2.674s32.415-22.174 61.358-22.174c28.945 0 50.771 19.5 65.031 19.5Zm-11.212 16.667a6.034 6.034 0 0 1-6.036 6.034H35.839a6.034 6.034 0 0 1-6.034-6.034v-1.006a6.035 6.035 0 0 1 6.034-6.035h226.803a6.035 6.035 0 0 1 6.035 6.035v1.006Z" fill="#A3CD39"/><path d="M298.475 106.59a6.035 6.035 0 0 1-6.035 6.035H6.035A6.035 6.035 0 0 1 0 106.59v-1.006a6.035 6.035 0 0 1 6.035-6.034H292.44a6.034 6.034 0 0 1 6.035 6.034v1.006Zm-59.395 20.723a6.036 6.036 0 0 1-6.035 6.035H65.425a6.036 6.036 0 0 1-6.034-6.035v-1.006a6.035 6.035 0 0 1 6.035-6.035h167.619a6.035 6.035 0 0 1 6.034 6.035l.001 1.006Z" fill="#A3CD39"/><path d="M207.406 139.467a6.034 6.034 0 0 1-6.034 6.035H97.105a6.034 6.034 0 0 1-6.035-6.035v-1.006a6.034 6.034 0 0 1 6.035-6.034h104.267a6.034 6.034 0 0 1 6.034 6.034v1.006Z" fill="#A3CD39"/><path d="M68.094 32.612a4.3 4.3 0 0 0-1.223.178 4.302 4.302 0 0 0-8.287-1.59 4.287 4.287 0 0 0-3.152-1.381 4.3 4.3 0 0 0-4.286 3.962 4.304 4.304 0 1 0-.644 7.905 4.301 4.301 0 0 0 4.185 3.32c1.313 0 2.486-.59 3.275-1.517a4.297 4.297 0 0 0 3.676 2.075 4.303 4.303 0 0 0 4.304-4.303 4.28 4.28 0 0 0-.055-.656 4.275 4.275 0 0 0 2.207.613 4.303 4.303 0 1 0 0-8.606Zm84.282-6.628c-.257 0-.505.039-.74.109a2.607 2.607 0 0 0-5.022-.965 2.606 2.606 0 0 0-4.508 1.565 2.607 2.607 0 1 0-.39 4.79 2.606 2.606 0 0 0 4.521 1.093 2.607 2.607 0 0 0 4.835-1.35c0-.136-.013-.268-.033-.398.392.235.847.372 1.337.372a2.608 2.608 0 1 0 0-5.216Zm57.422-9.116c-.257 0-.506.04-.741.11a2.606 2.606 0 0 0-5.021-.965 2.6 2.6 0 0 0-1.911-.837 2.607 2.607 0 0 0-2.597 2.402 2.607 2.607 0 1 0-.391 4.79 2.608 2.608 0 0 0 2.537 2.011c.795 0 1.507-.358 1.985-.919a2.607 2.607 0 0 0 4.835-1.35c0-.135-.014-.267-.033-.397a2.608 2.608 0 1 0 1.337-4.845Zm47.288 12.847c-.538 0-1.058.081-1.549.227a5.456 5.456 0 0 0-5.454-5.422 5.457 5.457 0 0 0-5.055 3.404 5.435 5.435 0 0 0-3.997-1.751 5.451 5.451 0 0 0-5.434 5.025 5.433 5.433 0 0 0-2.516-.617 5.457 5.457 0 1 0 1.697 10.641 5.456 5.456 0 0 0 5.309 4.208 5.442 5.442 0 0 0 4.153-1.923 5.45 5.45 0 0 0 4.661 2.631 5.456 5.456 0 0 0 5.456-5.456c0-.284-.028-.56-.069-.831a5.43 5.43 0 0 0 2.798.778 5.457 5.457 0 1 0 0-10.914Zm-97.812-9.831c-.121 0-.237.019-.348.051a1.228 1.228 0 0 0-2.364-.454 1.224 1.224 0 0 0-2.121.736 1.227 1.227 0 1 0-.183 2.254 1.225 1.225 0 0 0 2.127.515 1.227 1.227 0 0 0 2.26-.823 1.228 1.228 0 1 0 .629-2.279Z" fill="#fff"/><path d="M166.18 63.174c-2.758 1.888-3.975-1.493-3.975-1.493 1.478 1.186 2.363-.395 2.363-.395-1.297.879-2.363-1.23-2.363-1.23 1.654.748 2.363-.526 2.363-.526-1.385 1.142-2.567-1.613-2.567-1.613 1.538 1.064 2.777-.007 2.777-.007-2.011.22-3.519-3.2-3.519-3.2s-1.508 3.42-3.519 3.2c0 0 1.239 1.072 2.777.007 0 0-1.183 2.755-2.568 1.613 0 0 .71 1.274 2.364.527 0 0-1.047 2.065-2.326 1.251l-.013.017c.15.236 1.003 1.428 2.34.356 0 0-.62 1.721-1.979 2.02-.294.305-.731.546-1.304.315.617.566 1.609 1.073 2.817.255 0 0-.148.468-.508.895a4.7 4.7 0 0 0 .643-.109s-.83 1.373-2.025 1.463c.674.33 1.612.395 2.671-.666l.174-.183c.033-.332.062-.683.091-1.043l-.751.533.796-1.114.072-1.014-1.03.475 1.053-.84c.053-.79.097-1.524.132-2.083 0 0 .049.807.126 1.89l1.065.878-1.034-.451.08 1.013.747.965-.698-.37c.032.357.064.71.097 1.05l.232.295c2.213 2.125 3.813-.268 3.813-.268-2.229 1.053-2.923-1.318-2.923-1.318 2.074 1.407 3.509-1.095 3.509-1.095Z" fill="#8AB420"/><path d="m162.145 64.88-.747-.964c-.028-.347-.055-.689-.079-1.014l1.033.452-1.065-.878c-.076-1.083-.125-1.89-.125-1.89-.036.559-.08 1.294-.132 2.082l-1.053.84 1.029-.474a94.74 94.74 0 0 1-.072 1.014l-.796 1.113.751-.532c-.028.36-.058.711-.09 1.042-.104 1.098-.226 1.984-.363 2.265.533-.141 1.45 0 1.45 0-.114-.348-.234-1.284-.342-2.376-.033-.34-.065-.693-.097-1.05l.698.37Z" fill="#3C2415"/><path d="M132.23 74.043c-2.87 1.965-4.136-1.553-4.136-1.553 1.538 1.233 2.458-.411 2.458-.411-1.349.914-2.458-1.28-2.458-1.28 1.721.778 2.459-.547 2.459-.547-1.44 1.188-2.671-1.679-2.671-1.679 1.6 1.108 2.89-.007 2.89-.007-2.094.229-3.662-3.33-3.662-3.33s-1.569 3.559-3.662 3.33c0 0 1.29 1.115 2.889.007 0 0-1.23 2.867-2.67 1.68 0 0 .738 1.324 2.458.547 0 0-1.088 2.15-2.419 1.303l-.014.018c.157.245 1.042 1.485 2.434.37 0 0-.645 1.791-2.058 2.103-.307.316-.761.568-1.357.327.642.589 1.673 1.116 2.931.265 0 0-.155.486-.529.931.209-.02.432-.056.671-.112 0 0-.866 1.428-2.109 1.522.701.343 1.678.41 2.78-.693l.18-.19c.033-.346.065-.71.095-1.085l-.782.554.829-1.16c.026-.352.05-.706.074-1.054l-1.072.493 1.097-.873c.055-.822.101-1.586.137-2.167 0 0 .051.839.132 1.967l1.107.913-1.075-.47c.026.338.053.694.083 1.054l.777 1.004-.725-.384c.032.37.066.738.1 1.09l.241.308c2.303 2.211 3.968-.279 3.968-.279-2.32 1.096-3.043-1.37-3.043-1.37 2.158 1.462 3.652-1.142 3.652-1.142Z" fill="#A3CD39"/><path d="m128.03 75.82-.776-1.005c-.03-.36-.057-.716-.083-1.054l1.075.47-1.107-.913c-.081-1.128-.132-1.967-.132-1.967-.037.581-.083 1.345-.137 2.167l-1.097.873 1.073-.493-.075 1.054-.829 1.16.782-.554c-.03.374-.061.74-.095 1.084-.109 1.142-.235 2.064-.377 2.357.554-.147 1.51 0 1.51 0-.121-.362-.245-1.337-.357-2.473-.034-.352-.068-.72-.1-1.09l.725.383Z" fill="#3C2415"/><path d="M163.996 87.656c-4.952 3.39-7.137-2.68-7.137-2.68 2.653 2.128 4.242-.71 4.242-.71-2.328 1.578-4.241-2.206-4.241-2.206 2.969 1.341 4.243-.945 4.243-.945-2.486 2.05-4.608-2.896-4.608-2.896 2.758 1.91 4.984-.013 4.984-.013-3.611.395-6.318-5.744-6.318-5.744s-2.707 6.139-6.318 5.744c0 0 2.225 1.923 4.985.013 0 0-2.123 4.947-4.609 2.897 0 0 1.274 2.285 4.243.944 0 0-1.878 3.709-4.175 2.247l-.024.03c.27.425 1.798 2.565 4.2.64 0 0-1.114 3.09-3.551 3.628-.529.545-1.314.98-2.342.564 1.108 1.017 2.887 1.927 5.057.458 0 0-.266.84-.912 1.608a8.68 8.68 0 0 0 1.158-.196s-1.494 2.465-3.639 2.626c1.21.593 2.894.709 4.798-1.195l.31-.33c.058-.594.111-1.225.163-1.87l-1.348.955 1.43-2c.045-.607.087-1.219.128-1.82l-1.851.852 1.895-1.507c.091-1.418.171-2.736.235-3.738 0 0 .087 1.447.227 3.393l1.909 1.575-1.854-.81c.044.584.092 1.197.142 1.82l1.342 1.732-1.252-.664c.055.64.113 1.275.173 1.883l.416.53c3.975 3.816 6.846-.48 6.846-.48-4.004 1.891-5.249-2.364-5.249-2.364 3.726 2.52 6.302-1.971 6.302-1.971Z" fill="#A3CD39"/><path d="m156.763 90.72-1.342-1.733c-.05-.622-.098-1.236-.142-1.82l1.854.81-1.909-1.574c-.14-1.946-.227-3.393-.227-3.393-.064 1.002-.144 2.32-.235 3.739l-1.895 1.506 1.851-.851c-.041.6-.083 1.212-.128 1.82l-1.43 2 1.348-.955c-.052.644-.105 1.275-.163 1.87-.188 1.97-.406 3.562-.649 4.066.955-.253 2.603 0 2.603 0-.207-.625-.421-2.305-.614-4.266-.061-.608-.119-1.243-.174-1.883l1.252.664Z" fill="#3C2415"/><path d="M61.973 67.208c-2.87 1.964-4.136-1.554-4.136-1.554 1.538 1.233 2.459-.41 2.459-.41-1.35.913-2.459-1.28-2.459-1.28 1.721.777 2.459-.547 2.459-.547-1.44 1.187-2.67-1.679-2.67-1.679 1.598 1.108 2.888-.007 2.888-.007-2.093.228-3.662-3.33-3.662-3.33s-1.569 3.558-3.661 3.33c0 0 1.29 1.115 2.888.007 0 0-1.23 2.867-2.67 1.679 0 0 .738 1.324 2.459.547 0 0-1.089 2.15-2.42 1.303a.221.221 0 0 0-.014.018c.157.246 1.042 1.486 2.434.37 0 0-.645 1.79-2.058 2.103-.306.316-.76.568-1.357.327.642.589 1.673 1.117 2.93.265 0 0-.153.488-.528.932a4.82 4.82 0 0 0 .67-.114s-.864 1.428-2.108 1.522c.702.344 1.677.41 2.78-.692l.181-.191c.034-.346.065-.711.094-1.085l-.78.554.828-1.16.074-1.054-1.072.494 1.098-.873.137-2.168s.05.84.13 1.967l1.108.912-1.075-.469c.025.338.053.694.082 1.055l.777 1.004-.726-.384c.033.37.066.738.101 1.09l.242.308c2.303 2.212 3.967-.279 3.967-.279-2.32 1.096-3.043-1.369-3.043-1.369 2.16 1.46 3.653-1.142 3.653-1.142Z" fill="#A3CD39"/><path d="m57.78 68.983-.777-1.005c-.029-.36-.057-.716-.081-1.054l1.074.47-1.107-.914c-.08-1.127-.131-1.966-.131-1.966-.037.581-.083 1.345-.137 2.167l-1.098.874 1.072-.494c-.023.348-.048.702-.074 1.054l-.829 1.16.782-.554c-.03.373-.06.739-.094 1.084-.11 1.142-.236 2.064-.377 2.356.553-.147 1.508 0 1.508 0-.12-.362-.244-1.335-.356-2.472-.034-.352-.068-.72-.1-1.091l.725.385Z" fill="#3C2415"/><path d="M242.457 66.294c-2.869 1.965-4.135-1.553-4.135-1.553 1.538 1.233 2.457-.412 2.457-.412-1.349.914-2.457-1.279-2.457-1.279 1.721.777 2.459-.547 2.459-.547-1.44 1.188-2.67-1.679-2.67-1.679 1.597 1.107 2.888-.007 2.888-.007-2.093.228-3.661-3.33-3.661-3.33s-1.569 3.558-3.663 3.33c0 0 1.29 1.115 2.889.007 0 0-1.229 2.867-2.67 1.679 0 0 .738 1.324 2.458.547 0 0-1.088 2.15-2.42 1.303l-.013.018c.157.246 1.042 1.486 2.433.37 0 0-.644 1.791-2.057 2.103-.307.316-.761.568-1.357.327.641.589 1.672 1.117 2.93.265 0 0-.154.487-.529.932.211-.02.433-.057.67-.114 0 0-.865 1.428-2.108 1.522.701.344 1.678.41 2.781-.692l.18-.191c.034-.346.065-.711.094-1.085l-.781.554.829-1.16.075-1.054-1.073.494 1.096-.874c.055-.822.101-1.585.139-2.167 0 0 .05.84.129 1.966l1.108.913-1.075-.469c.026.338.053.694.083 1.055l.777 1.004-.725-.385c.032.371.066.739.1 1.091l.241.308c2.304 2.21 3.968-.28 3.968-.28-2.32 1.097-3.042-1.369-3.042-1.369 2.16 1.462 3.652-1.14 3.652-1.14Z" fill="#A3CD39"/><path d="m238.265 68.07-.777-1.005c-.031-.36-.057-.716-.083-1.054l1.075.47-1.108-.914c-.079-1.128-.13-1.966-.13-1.966-.038.581-.084 1.345-.138 2.167l-1.096.873 1.072-.493-.074 1.054-.829 1.16.781-.554c-.029.374-.06.739-.094 1.084-.11 1.142-.235 2.064-.377 2.356.553-.147 1.509 0 1.509 0-.121-.362-.244-1.336-.356-2.472-.034-.353-.068-.72-.1-1.091l.725.384Z" fill="#3C2415"/><path d="M228.786 73.587c-2.87 1.964-4.136-1.554-4.136-1.554 1.538 1.233 2.459-.411 2.459-.411-1.35.914-2.458-1.28-2.458-1.28 1.72.778 2.458-.547 2.458-.547-1.44 1.188-2.67-1.679-2.67-1.679 1.598 1.108 2.888-.007 2.888-.007-2.093.229-3.661-3.33-3.661-3.33s-1.569 3.559-3.662 3.33c0 0 1.289 1.115 2.889.007 0 0-1.23 2.867-2.671 1.68 0 0 .738 1.324 2.459.547 0 0-1.089 2.15-2.42 1.303l-.014.017c.157.246 1.043 1.486 2.434.37 0 0-.645 1.791-2.058 2.103-.306.317-.761.568-1.357.327.642.59 1.673 1.117 2.931.266 0 0-.155.486-.529.931.211-.02.433-.056.67-.113 0 0-.865 1.428-2.108 1.522.702.343 1.678.41 2.781-.693l.18-.19c.034-.346.065-.71.094-1.085l-.781.553.829-1.159.075-1.055-1.073.494 1.097-.873c.054-.822.1-1.586.138-2.168 0 0 .05.84.13 1.968l1.107.912-1.074-.47c.025.338.053.695.082 1.055l.778 1.005-.726-.385c.032.371.066.739.101 1.091l.241.307c2.303 2.211 3.967-.279 3.967-.279-2.32 1.096-3.041-1.37-3.041-1.37 2.158 1.463 3.651-1.14 3.651-1.14Z" fill="#A3CD39"/><path d="m224.593 75.363-.777-1.005c-.03-.36-.058-.717-.082-1.054l1.074.47-1.108-.913c-.079-1.128-.13-1.967-.13-1.967-.037.581-.083 1.345-.137 2.167l-1.097.873 1.073-.493-.075 1.054-.829 1.16.781-.554c-.029.374-.06.74-.094 1.085-.109 1.141-.235 2.063-.376 2.356.554-.147 1.508 0 1.508 0-.12-.362-.244-1.336-.356-2.472-.034-.353-.068-.72-.1-1.091l.725.384Z" fill="#3C2415"/><path d="M208.27 67.208c-2.87 1.964-4.136-1.554-4.136-1.554 1.539 1.233 2.46-.41 2.46-.41-1.35.913-2.459-1.28-2.459-1.28 1.721.777 2.459-.547 2.459-.547-1.44 1.187-2.67-1.679-2.67-1.679 1.599 1.108 2.888-.007 2.888-.007-2.093.228-3.662-3.33-3.662-3.33s-1.569 3.558-3.661 3.33c0 0 1.289 1.115 2.888.007 0 0-1.23 2.867-2.67 1.679 0 0 .737 1.324 2.459.547 0 0-1.089 2.15-2.42 1.303-.005.006-.01.011-.014.018.156.246 1.042 1.486 2.434.37 0 0-.645 1.79-2.059 2.103-.306.316-.76.568-1.357.327.643.589 1.673 1.117 2.931.265 0 0-.154.488-.529.932.211-.021.433-.056.671-.114 0 0-.865 1.428-2.109 1.522.702.344 1.678.41 2.781-.692l.18-.191c.034-.346.065-.711.094-1.085l-.781.554.829-1.16c.026-.351.051-.706.075-1.054l-1.072.494 1.097-.873c.054-.823.1-1.587.137-2.168 0 0 .05.84.131 1.967l1.107.912-1.074-.469c.025.338.053.694.082 1.055l.777 1.004-.726-.384c.033.37.066.738.101 1.09l.24.308c2.304 2.212 3.968-.279 3.968-.279-2.32 1.096-3.042-1.369-3.042-1.369 2.16 1.46 3.652-1.142 3.652-1.142Z" fill="#A3CD39"/><path d="m204.078 68.983-.777-1.005a89.32 89.32 0 0 1-.082-1.054l1.074.47-1.107-.914a179.236 179.236 0 0 1-.131-1.966c-.038.581-.084 1.345-.137 2.167l-1.098.874 1.073-.494-.075 1.054-.829 1.16.781-.554c-.029.373-.06.739-.094 1.084-.109 1.142-.235 2.064-.376 2.356.553-.147 1.509 0 1.509 0-.121-.362-.245-1.335-.356-2.472-.035-.352-.069-.72-.101-1.091l.726.385Z" fill="#3C2415"/><path d="M187.769 78.6c-2.87 1.965-4.136-1.553-4.136-1.553 1.539 1.233 2.46-.411 2.46-.411-1.35.914-2.459-1.28-2.459-1.28 1.721.778 2.459-.546 2.459-.546-1.44 1.188-2.67-1.679-2.67-1.679 1.598 1.107 2.888-.008 2.888-.008-2.092.228-3.662-3.33-3.662-3.33s-1.569 3.558-3.662 3.33c0 0 1.29 1.115 2.889.008 0 0-1.23 2.866-2.67 1.678 0 0 .738 1.325 2.458.548 0 0-1.088 2.15-2.419 1.303l-.014.017c.156.246 1.042 1.486 2.433.37 0 0-.644 1.792-2.058 2.103-.306.317-.76.568-1.356.327.642.59 1.672 1.117 2.93.266 0 0-.154.487-.529.932.211-.021.433-.057.671-.114 0 0-.864 1.428-2.108 1.522.702.344 1.677.41 2.781-.693l.179-.19c.035-.346.065-.712.095-1.085l-.782.553.829-1.16c.027-.351.051-.706.076-1.054l-1.073.494 1.098-.873c.053-.823.099-1.586.137-2.168 0 0 .05.84.131 1.967l1.106.913-1.073-.47c.024.338.053.694.081 1.055l.777 1.004-.726-.385c.033.371.066.739.101 1.091l.24.307c2.304 2.211 3.968-.278 3.968-.278-2.319 1.095-3.042-1.37-3.042-1.37 2.16 1.463 3.652-1.14 3.652-1.14Z" fill="#A3CD39"/><path d="m183.578 80.377-.777-1.004c-.03-.361-.058-.717-.082-1.055l1.074.47-1.107-.913c-.081-1.128-.131-1.967-.131-1.967-.038.582-.084 1.345-.137 2.168l-1.098.873 1.073-.494-.075 1.055-.829 1.16.782-.554c-.03.374-.061.739-.095 1.084-.109 1.142-.235 2.064-.377 2.356.555-.146 1.51 0 1.51 0-.121-.362-.245-1.335-.356-2.472a85.43 85.43 0 0 1-.101-1.091l.726.384Z" fill="#3C2415"/><path d="M264.324 81.335c-2.87 1.965-4.136-1.553-4.136-1.553 1.538 1.233 2.459-.411 2.459-.411-1.349.913-2.457-1.28-2.457-1.28 1.72.778 2.458-.547 2.458-.547-1.44 1.188-2.671-1.679-2.671-1.679 1.599 1.108 2.889-.007 2.889-.007-2.093.228-3.661-3.33-3.661-3.33s-1.57 3.558-3.662 3.33c0 0 1.289 1.115 2.888.007 0 0-1.23 2.867-2.671 1.68 0 0 .738 1.324 2.46.547 0 0-1.089 2.15-2.42 1.303l-.014.017c.156.246 1.042 1.486 2.434.37 0 0-.645 1.792-2.058 2.104-.307.317-.761.568-1.357.327.642.589 1.672 1.117 2.93.265 0 0-.154.486-.529.931.211-.02.433-.056.671-.113 0 0-.866 1.429-2.11 1.522.703.344 1.678.41 2.781-.692l.181-.191c.034-.346.065-.71.094-1.085l-.781.553.829-1.159.075-1.054-1.073.493 1.098-.873c.053-.822.099-1.586.137-2.168 0 0 .05.84.131 1.968l1.106.912-1.073-.47c.024.338.053.695.081 1.055l.777 1.004-.725-.384c.032.37.066.738.101 1.09l.241.308c2.303 2.21 3.967-.28 3.967-.28-2.32 1.097-3.041-1.369-3.041-1.369 2.158 1.463 3.651-1.14 3.651-1.14Z" fill="#A3CD39"/><path d="m260.132 83.111-.777-1.004c-.029-.36-.057-.716-.081-1.054l1.073.47-1.106-.913c-.081-1.129-.131-1.967-.131-1.967-.038.581-.084 1.345-.137 2.167l-1.098.873 1.073-.493c-.025.348-.049.702-.076 1.054l-.829 1.16.782-.554c-.03.374-.06.74-.094 1.085-.11 1.141-.235 2.063-.377 2.356.554-.147 1.509 0 1.509 0-.121-.362-.244-1.335-.355-2.472-.036-.353-.07-.72-.102-1.091l.726.383Z" fill="#3C2415"/><path d="M41.456 79.968c-2.87 1.964-4.136-1.553-4.136-1.553 1.538 1.232 2.459-.411 2.459-.411-1.35.914-2.458-1.28-2.458-1.28 1.72.778 2.459-.547 2.459-.547-1.44 1.188-2.672-1.679-2.672-1.679 1.6 1.107 2.89-.007 2.89-.007-2.094.228-3.662-3.33-3.662-3.33s-1.569 3.558-3.662 3.33c0 0 1.29 1.114 2.89.007 0 0-1.23 2.867-2.671 1.68 0 0 .738 1.324 2.459.547 0 0-1.088 2.15-2.42 1.302l-.013.018c.156.246 1.041 1.486 2.434.37 0 0-.645 1.791-2.059 2.103-.306.316-.76.568-1.356.327.642.59 1.672 1.117 2.93.266 0 0-.154.486-.53.931.211-.02.434-.056.672-.113 0 0-.865 1.428-2.108 1.522.702.344 1.677.41 2.78-.692l.18-.191c.035-.346.066-.71.095-1.085l-.782.554.83-1.16.074-1.054-1.072.494 1.097-.873c.054-.822.1-1.586.137-2.168 0 0 .05.84.131 1.968l1.107.912-1.074-.469c.024.338.052.694.081 1.055l.777 1.004-.725-.385c.032.371.066.739.101 1.091l.241.307c2.304 2.212 3.968-.279 3.968-.279-2.32 1.096-3.043-1.369-3.043-1.369 2.159 1.46 3.65-1.143 3.65-1.143Z" fill="#A3CD39"/><path d="m37.257 81.744-.777-1.004c-.03-.36-.057-.717-.082-1.055l1.074.47-1.106-.913a198.336 198.336 0 0 1-.132-1.968c-.037.582-.083 1.346-.137 2.168L35 80.315l1.073-.494-.075 1.055-.83 1.159.782-.554c-.029.374-.06.74-.094 1.085-.11 1.141-.235 2.063-.377 2.356.554-.147 1.51 0 1.51 0-.121-.362-.245-1.336-.357-2.472-.035-.353-.068-.72-.1-1.091l.725.385Z" fill="#3C2415"/><path d="M90.69 73.132c-2.87 1.963-4.135-1.554-4.135-1.554 1.538 1.233 2.458-.411 2.458-.411-1.35.914-2.457-1.28-2.457-1.28 1.72.778 2.458-.547 2.458-.547-1.44 1.188-2.671-1.678-2.671-1.678 1.599 1.106 2.888-.008 2.888-.008-2.092.228-3.66-3.33-3.66-3.33s-1.57 3.558-3.663 3.33c0 0 1.29 1.115 2.889.008 0 0-1.23 2.866-2.67 1.678 0 0 .738 1.325 2.459.548 0 0-1.089 2.15-2.42 1.302l-.013.018c.156.246 1.041 1.486 2.433.37 0 0-.644 1.792-2.058 2.104-.306.317-.76.568-1.356.327.642.589 1.672 1.117 2.93.265 0 0-.154.487-.529.932.21-.021.433-.056.671-.113 0 0-.865 1.428-2.108 1.521.701.344 1.677.41 2.78-.692l.18-.19c.034-.347.065-.712.095-1.085l-.782.553.83-1.16.074-1.054-1.073.494 1.098-.874c.053-.822.1-1.585.137-2.167 0 0 .05.84.13 1.967l1.108.913-1.074-.47c.025.338.053.694.082 1.055l.777 1.004-.726-.384c.032.37.066.738.1 1.09l.242.308c2.303 2.21 3.968-.28 3.968-.28-2.32 1.097-3.043-1.369-3.043-1.369 2.159 1.461 3.651-1.141 3.651-1.141Z" fill="#A3CD39"/><path d="m86.492 74.907-.777-1.005c-.03-.36-.057-.717-.082-1.055l1.074.47-1.107-.912c-.08-1.128-.131-1.968-.131-1.968-.037.582-.084 1.346-.137 2.168l-1.098.873 1.073-.493-.075 1.054-.829 1.16.782-.554c-.03.374-.06.74-.095 1.085-.109 1.141-.235 2.063-.376 2.356.554-.147 1.51 0 1.51 0-.122-.363-.246-1.337-.357-2.473-.034-.352-.068-.72-.1-1.09l.725.384Z" fill="#3C2415"/><path d="M89.898 101.53c-5.612 3.842-8.088-3.039-8.088-3.039 3.007 2.413 4.808-.803 4.808-.803-2.64 1.787-4.807-2.502-4.807-2.502 3.365 1.52 4.809-1.07 4.809-1.07-2.818 2.323-5.223-3.284-5.223-3.284 3.126 2.166 5.65-.014 5.65-.014-4.095.447-7.162-6.511-7.162-6.511s-3.068 6.958-7.161 6.51c0 0 2.521 2.18 5.649.015 0 0-2.405 5.607-5.223 3.284 0 0 1.444 2.59 4.808 1.07 0 0-2.127 4.204-4.732 2.548a1.418 1.418 0 0 0-.026.034c.305.481 2.037 2.907 4.76.724 0 0-1.262 3.504-4.026 4.114-.599.618-1.487 1.11-2.653.639 1.255 1.153 3.272 2.185 5.732.519 0 0-.303.951-1.034 1.822a9.88 9.88 0 0 0 1.311-.222s-1.691 2.793-4.123 2.976c1.372.672 3.28.802 5.438-1.354l.352-.373c.066-.676.127-1.389.185-2.121l-1.529 1.083 1.62-2.267c.052-.689.1-1.382.146-2.062l-2.097.965 2.147-1.709c.104-1.606.195-3.1.268-4.238 0 0 .098 1.641.256 3.846l2.165 1.785-2.101-.918c.05.662.104 1.357.16 2.063l1.52 1.964-1.419-.752c.063.724.129 1.444.197 2.133l.472.601c4.505 4.324 7.76-.546 7.76-.546-4.537 2.145-5.95-2.678-5.95-2.678 4.222 2.859 7.141-2.232 7.141-2.232Z" fill="#578100"/><path d="m81.696 105.003-1.52-1.964c-.056-.706-.111-1.401-.16-2.063l2.101.918-2.165-1.785c-.158-2.205-.256-3.846-.256-3.846-.073 1.137-.164 2.631-.268 4.238l-2.147 1.709 2.097-.965c-.046.68-.094 1.373-.145 2.062l-1.62 2.267 1.528-1.083c-.058.732-.12 1.445-.184 2.121-.214 2.233-.46 4.036-.737 4.608 1.082-.287 2.951 0 2.951 0-.235-.708-.479-2.613-.697-4.835-.069-.69-.134-1.409-.197-2.134l1.42.752Z" fill="#3C2415"/><path d="M197.409 108.471c-6.853 4.691-9.876-3.709-9.876-3.709 3.673 2.945 5.87-.982 5.87-.982-3.221 2.182-5.869-3.054-5.869-3.054 4.109 1.855 5.871-1.307 5.871-1.307-3.44 2.836-6.376-4.008-6.376-4.008 3.818 2.643 6.898-.018 6.898-.018-4.999.545-8.744-7.95-8.744-7.95s-3.746 8.495-8.742 7.95c0 0 3.079 2.662 6.896.018 0 0-2.936 6.844-6.376 4.008 0 0 1.763 3.162 5.871 1.307 0 0-2.597 5.132-5.777 3.11a.605.605 0 0 1-.033.042c.373.587 2.488 3.549 5.81.884 0 0-1.539 4.277-4.912 5.022-.733.755-1.818 1.355-3.24.78 1.532 1.407 3.994 2.667 6.997.634 0 0-.368 1.161-1.262 2.224.501-.05 1.033-.135 1.601-.271 0 0-2.065 3.412-5.034 3.635 1.674.821 4.006.98 6.639-1.654l.431-.456c.08-.824.154-1.696.226-2.589l-1.866 1.321 1.977-2.767c.062-.841.121-1.687.178-2.518l-2.56 1.179 2.621-2.087c.127-1.961.238-3.787.326-5.174 0 0 .121 2.003.316 4.696l2.641 2.179-2.566-1.121c.062.808.128 1.657.197 2.519l1.856 2.398-1.733-.919c.078.885.157 1.764.24 2.607l.576.732c5.501 5.28 9.474-.666 9.474-.666-5.539 2.618-7.263-3.27-7.263-3.27 5.152 3.491 8.717-2.725 8.717-2.725Z" fill="#578100"/><path d="m187.399 112.712-1.855-2.398a568.1 568.1 0 0 1-.198-2.518l2.566 1.12-2.641-2.178c-.195-2.694-.315-4.697-.315-4.697-.089 1.388-.2 3.213-.327 5.174l-2.621 2.087 2.56-1.179a342.45 342.45 0 0 1-.178 2.519l-1.977 2.766 1.866-1.321c-.072.893-.146 1.765-.226 2.59-.261 2.725-.561 4.927-.899 5.626 1.322-.35 3.602 0 3.602 0-.287-.865-.583-3.19-.85-5.903a209.15 209.15 0 0 1-.24-2.606l1.733.918Z" fill="#3C2415"/><path d="M144.274 116.776c-7.653 5.238-11.029-4.142-11.029-4.142 4.102 3.289 6.554-1.096 6.554-1.096-3.597 2.437-6.553-3.411-6.553-3.411 4.589 2.073 6.556-1.459 6.556-1.459-3.841 3.168-7.12-4.477-7.12-4.477 4.263 2.952 7.704-.02 7.704-.02-5.582.609-9.765-8.878-9.765-8.878s-4.184 9.487-9.764 8.878c0 0 3.438 2.972 7.702.02 0 0-3.279 7.644-7.121 4.477 0 0 1.969 3.532 6.557 1.459 0 0-2.901 5.732-6.453 3.474l-.036.046c.417.657 2.778 3.963 6.49.987 0 0-1.72 4.778-5.487 5.608-.818.844-2.03 1.515-3.618.872 1.711 1.571 4.46 2.978 7.814.708 0 0-.412 1.297-1.409 2.484.558-.056 1.152-.15 1.787-.303 0 0-2.307 3.81-5.622 4.059 1.87.917 4.473 1.094 7.414-1.847l.482-.509c.089-.921.172-1.894.252-2.892l-2.085 1.477 2.209-3.09c.069-.94.135-1.884.198-2.813l-2.859 1.317 2.927-2.331c.142-2.19.264-4.229.364-5.778 0 0 .135 2.238.352 5.244l2.95 2.434-2.865-1.252c.068.902.142 1.851.219 2.812l2.073 2.679-1.936-1.026c.086.988.176 1.97.268 2.91l.644.818c6.142 5.897 10.579-.744 10.579-.744-6.186 2.924-8.111-3.652-8.111-3.652 5.757 3.898 9.738-3.043 9.738-3.043Z" fill="#578100"/><path d="m133.09 121.513-2.072-2.679c-.077-.962-.152-1.911-.22-2.812l2.866 1.252-2.951-2.434c-.217-3.007-.351-5.244-.351-5.244-.1 1.549-.223 3.587-.365 5.778l-2.927 2.331 2.86-1.317c-.063.928-.129 1.873-.198 2.813l-2.21 3.09 2.086-1.477c-.08.998-.164 1.972-.253 2.892-.29 3.044-.627 5.504-1.005 6.283 1.477-.391 4.024 0 4.024 0-.321-.966-.652-3.563-.95-6.593-.092-.94-.182-1.921-.268-2.909l1.934 1.026Z" fill="#3C2415"/><path d="M238.23 102.401c-5.418 3.71-7.808-2.933-7.808-2.933 2.904 2.329 4.641-.776 4.641-.776-2.548 1.725-4.64-2.415-4.64-2.415 3.249 1.467 4.643-1.033 4.643-1.033-2.722 2.242-5.043-3.17-5.043-3.17 3.018 2.09 5.454-.014 5.454-.014-3.951.432-6.914-6.286-6.914-6.286s-2.961 6.718-6.913 6.286c0 0 2.434 2.104 5.455.014 0 0-2.324 5.412-5.044 3.17 0 0 1.395 2.5 4.644 1.033 0 0-2.055 4.059-4.569 2.46l-.026.032c.294.465 1.967 2.806 4.595.699 0 0-1.218 3.382-3.887 3.972-.578.597-1.436 1.071-2.56.616 1.21 1.114 3.159 2.109 5.532.502 0 0-.291.919-.997 1.759a9.267 9.267 0 0 0 1.265-.214s-1.634 2.697-3.98 2.874c1.324.649 3.167.774 5.25-1.308l.34-.361c.063-.652.122-1.341.178-2.048l-1.476 1.046 1.564-2.188c.049-.665.096-1.334.142-1.991l-2.025.931 2.072-1.649c.1-1.551.188-2.994.258-4.092 0 0 .095 1.585.248 3.714l2.089 1.723-2.029-.886c.049.639.101 1.31.156 1.991l1.468 1.896-1.37-.726c.06.7.124 1.395.19 2.061l.456.579c4.349 4.175 7.491-.527 7.491-.527-4.381 2.071-5.743-2.586-5.743-2.586 4.075 2.76 6.893-2.155 6.893-2.155Z" fill="#578100"/><path d="m230.316 105.755-1.467-1.896c-.056-.681-.108-1.353-.156-1.991l2.029.886-2.09-1.723c-.153-2.13-.248-3.714-.248-3.714-.07 1.097-.158 2.54-.258 4.092l-2.071 1.649 2.024-.931c-.046.657-.092 1.326-.142 1.991l-1.564 2.188 1.476-1.045c-.057.706-.115 1.395-.178 2.047-.206 2.156-.444 3.897-.712 4.449 1.047-.277 2.849 0 2.849 0-.227-.684-.462-2.523-.672-4.668-.065-.665-.129-1.361-.19-2.06l1.37.726Z" fill="#3C2415"/><g clip-path="url(#e)" fill-rule="evenodd" clip-rule="evenodd"><path d="m145.14 76.9-.211-.611c-.13-.385-.259-.772-.359-1.167-.071-.275-.162-.662-.1-.94.274-1.248 1.395-2.433 2.43-3.213.292-.22.597-.423.914-.61a3.146 3.146 0 0 1 .173-1.413c.323-.893 1.018-1.618 1.861-2.116a6.515 6.515 0 0 1 3.194-.83 6.51 6.51 0 0 1 3.193.83c.846.498 1.541 1.223 1.861 2.117a3.196 3.196 0 0 1 .169 1.453c.45.317.868.672 1.25 1.06.752.761 1.495 1.797 1.709 2.832.017.112.02.225.011.337a18.257 18.257 0 0 1-.213 1.855 2.63 2.63 0 0 1-.046.21c-.011.05-.024.101-.038.152.108.007.214.023.319.048.566.133 1.046.435 1.293.94.37.761.072 1.695-.415 2.349-.507.681-1.345 1.23-2.269 1.135a2.49 2.49 0 0 1-.478-.095 4.71 4.71 0 0 1-1.129 1.423c-.184.154-.384.29-.598.408-.625.34-1.334.505-2.046.593-.768.08-1.539.121-2.311.123-2.314.05-5.27-.185-6.412-2.401a8.421 8.421 0 0 1-.127-.256 2.262 2.262 0 0 1-1.124.137c-.707-.108-1.312-.557-1.712-1.094-.86-1.156-.849-2.806.858-3.207a1.87 1.87 0 0 1 .353-.048Z" fill="#0F0E0E"/><path d="M161.203 77.01c.54.12.999.387 1.235.85.362.705.054 1.578-.417 2.182-.493.63-1.305 1.15-2.203 1.062-.583-.057-1.102-.272-1.318-.787a1.747 1.747 0 0 1-.089-.873c.13-1.166 1.26-2.777 2.792-2.434Z" fill="#0F0E0E"/><path d="M161.149 77.217c2.47.551.709 3.874-1.307 3.677-1.176-.116-1.258-.838-1.193-1.426.116-1.043 1.134-2.556 2.5-2.251Z" fill="#E9BC9D"/><path d="M144.685 77.116c1.316-.334 2.287 1.233 2.397 2.371.014.126.019.253.013.38-.033.754-.479 1.156-1.221 1.24a1.64 1.64 0 0 1-.42-.012c-.608-.096-1.129-.525-1.472-1.024-.729-1.059-.759-2.584.703-2.955Z" fill="#0F0E0E"/><path d="M144.788 77.322c-2.152.541-.618 3.76 1.137 3.572 1.025-.108 1.097-.813 1.04-1.383-.101-1.017-.987-2.486-2.177-2.189Z" fill="#E9BC9D"/><path d="M144.352 78.523c.172-.445.444-.589.909-.32.315.18.497.48.642.81.155.357.022.213.301.405.056-.212.064-.223-.061-.519-.571-1.366-1.972-1.113-1.791-.376Zm1.852.89.055.038c-.019-.01-.038-.018-.057-.026v-.012h.002Zm0 .011a3.996 3.996 0 0 0-.056.234c-.253-.146-.679-.316-.639.18.02.25.188.306.258.425-.156.018-.352-.238-.386-.403-.13-.625.41-.607.818-.431l.005-.005Zm15.417-.899c-.206-.449-.529-.587-1.083-.322-.363.18-.59.477-.763.808-.186.354-.027.215-.364.401-.065-.215-.075-.215.073-.517.68-1.36 2.347-1.11 2.132-.373l.005.003Zm-2.205.89-.064.038.067-.026v-.012h-.003Zm0 .012c.018.06.04.134.065.232.301-.145.809-.313.762.18-.023.25-.225.304-.308.424.186.018.42-.237.459-.402.158-.632-.491-.609-.975-.434h-.003Z" fill="#0F0E0E"/><path d="M146.696 81.277c-1.592-2.919-1.282-6.442.612-9.19.591-.857 1.591-1.422 2.644-1.75a9.627 9.627 0 0 1 3.689-.361c1.938.178 3.917.935 4.998 2.434a9.182 9.182 0 0 1 1.357 2.77c.276.929.399 1.887.367 2.847-.058 1.575-.596 3.392-1.965 4.482a3.66 3.66 0 0 1-.602.388c-.638.326-1.365.49-2.092.574-.802.079-1.608.12-2.414.122-2.365.047-5.428-.168-6.594-2.316Z" fill="#0F0E0E"/><path d="M146.919 81.182c1.06 1.953 3.817 2.24 6.366 2.188 1.969-.04 3.745-.072 4.946-1.028 2.309-1.836 2.644-6.421.199-9.81-2.297-3.182-9.037-3.038-10.909-.325-1.849 2.677-2.154 6.12-.602 8.975Z" fill="#D17F59"/><path d="M145.993 78.724c.574-1.099 1.503-2.235 3.272-2.412 1.769-.176 2.853-.49 3.361-.92l.51-.435c.55.567 1.283.971 2.1 1.157 1.371.313 1.857.099 2.83.53.974.43 2.013 1.666 2.013 1.666s-1.901-4.095-3.145-4.919c-1.244-.823-4.162-1.803-5.838-1.215-1.676.588-5.878 1.215-5.103 6.547Z" fill="#D17F59"/><path d="M153.195 74.333a3.18 3.18 0 0 1-.631.78 3.705 3.705 0 0 1-1.347.782c-.201.063-.428.078-.586-.075-.185-.181-.097-.426.013-.626a9.307 9.307 0 0 1-.41.109c-.389.097-.77.216-1.142.357-1.042.415-1.742 1.202-2.317 2.061-.015.026-.027.054-.041.082a10.353 10.353 0 0 0-.326.735c-.074.186-.221.565-.206.76v.06l-.067.017c-.186.042-.358-.238-.429-.352a6.293 6.293 0 0 1-.39-.795c-.172-.39-.328-.787-.472-1.185-.096-.265-.193-.528-.288-.793a15.114 15.114 0 0 1-.378-1.159c-.071-.262-.165-.643-.104-.907.286-1.227 1.455-2.398 2.529-3.165.946-.674 2.179-1.302 3.385-1.489.808-.125 1.696-.136 2.468.133.24.08.465.192.668.33.287-.172.6-.307.93-.401.741-.207 1.537-.191 2.295-.066 1.257.207 2.584 1.152 3.427 1.971.781.76 1.556 1.772 1.779 2.791.016.106.019.213.01.32-.008.164-.022.325-.038.492a17.61 17.61 0 0 1-.185 1.352 2.831 2.831 0 0 1-.046.203c-.029.108-.058.217-.09.325-.081.282-.17.563-.268.841a6.75 6.75 0 0 1-.394.95c-.069.13-.252.48-.469.402l-.042-.015-.008-.04c-.05-.231-.096-.461-.153-.691a2.996 2.996 0 0 0-.213-.632c-.349-.659-.875-1.274-1.585-1.654a6.467 6.467 0 0 0-1.207-.502c-.328-.099-.666-.272-.998-.36l-.1-.027c.091.185.146.4-.019.563-.165.163-.385.138-.586.075a3.7 3.7 0 0 1-1.279-.733 3.177 3.177 0 0 1-.69-.824Zm12.738 14.896c-.49-.135-1.102-.115-1.611-.07-.474.045-.945.114-1.41.207-.214.043-.434.088-.644.141a.257.257 0 0 0-.107.054.2.2 0 0 0-.016.298c.505.566 1.047 1.13 1.592 1.66.368.366.764.709 1.185 1.027.253.183.434.726.782.573.813-.36.742-1.917.624-2.588-.065-.379-.145-.754-.222-1.13a.208.208 0 0 0-.059-.108.248.248 0 0 0-.114-.064Z" fill="#0F0E0E"/><path d="M165.852 89.44c.238 1.159.477 3.022-.158 3.303-.634.28-3.366-3.022-3.366-3.022s2.376-.597 3.524-.281Z" fill="#D17F59"/><path d="M161.896 107.947c.052.01.116.019.15.026.081.603-1.542 3.743-2.562 1.738a.775.775 0 0 1-.1-.151 1.112 1.112 0 0 1-.083-.28 12.94 12.94 0 0 0-.216-.856c-.05-.179-.103-.357-.16-.534a3.291 3.291 0 0 0-.136-.366 84.39 84.39 0 0 1-.657-1.443 143.096 143.096 0 0 1-1.733-4.055.205.205 0 0 1-.016-.088.215.215 0 0 1 .086-.156.256.256 0 0 1 .088-.042l5.623-1.615a.27.27 0 0 1 .207.022.221.221 0 0 1 .117.153 14.808 14.808 0 0 1-.525 7.297 2.252 2.252 0 0 0-.083.35Z" fill="#0F0E0E"/><path d="M162.249 100.336c.527 2.765.08 5.399-.519 7.197a2.435 2.435 0 0 0-.1.444c2.05-1.264-1.916 4.271-1.958 1.602-.003-.211-.095-.236-.244-.819a11.086 11.086 0 0 0-.409-1.322c-1.094-2.331-2.386-5.489-2.386-5.489l5.616-1.613Z" fill="#E9BC9D"/><path d="M148.481 109.694c-.096.085-.238.215-.361.266-1.596.34-2.403-.373-2.018-2.008a2.247 2.247 0 0 0-.086-.351 14.832 14.832 0 0 1-.525-7.297.207.207 0 0 1 .04-.088.246.246 0 0 1 .178-.096.276.276 0 0 1 .107.009l5.622 1.614a.258.258 0 0 1 .088.043.218.218 0 0 1 .062.07.189.189 0 0 1 .024.086.191.191 0 0 1-.016.088 147.757 147.757 0 0 1-1.732 4.055 77.89 77.89 0 0 1-.657 1.443c-.053.12-.099.242-.136.366-.059.177-.112.354-.162.532l-.053.191c-.082.318-.109.832-.375 1.077Z" fill="#0F0E0E"/><path d="M145.741 100.336c-.526 2.765-.078 5.399.519 7.197.047.145.081.294.1.444-.619 2.568 2.239 2.142 2.178.972-.02-.39.305-1.143.452-1.51 1.093-2.331 2.384-5.488 2.384-5.488l-5.633-1.615Z" fill="#E9BC9D"/><path d="M147.398 105.639c.531.13 1.238.549 1.031 1.28-.168.601-.18 1.642-.569 2.299h.011c.047-.017.094-.032.142-.045.168-.051.346-.073.523-.063.027-.192.045-.396.086-.543.097-.38.22-.755.367-1.123.193-.412.393-.85.59-1.292a4.41 4.41 0 0 1-.979-.439 8.83 8.83 0 0 0-.825-.445 1.114 1.114 0 0 0-.411-.109c-.135.002-.27.018-.401.048-.245.045-.49.09-.747.124a3.803 3.803 0 0 1-.489.035c.019.109.039.225.061.335.694.026 1.223-.158 1.61-.062Zm10.899.224c.237.537.482 1.075.717 1.575.166.434.305.875.414 1.322.037.138.062.248.081.335.174-.015.349.011.508.076l.092.034c-.382-.658-.395-1.688-.562-2.285-.207-.732.5-1.15 1.032-1.281.391-.096.928.092 1.631.05.037-.191.07-.385.101-.585l-.058.04c-.383.249-.841.235-1.291.176-.252-.033-.497-.078-.746-.123a1.937 1.937 0 0 0-.402-.048c-.144.01-.284.047-.411.108a8.905 8.905 0 0 0-.823.445c-.095.06-.189.111-.283.161Z" fill="#D17F59"/><path d="M158.8 83.174c.405.109.814.21 1.224.326 1.279.35 2.316.767 3.32 1.576 1.46 1.178 2.481 2.908 3.24 4.498a.775.775 0 0 1 .043.305c-.024.073-.412.153-.414.153-.067-.015-.128-.2-.197-.217-.244-.05-.489-.093-.734-.13a10.326 10.326 0 0 0-2.218-.109c-.525.037-1.017.172-1.523.29-.382.089-.906.21-1.268.015a.697.697 0 0 1-.14-.099l-6.414-5.801 5.019-.82.062.013Z" fill="#0F0E0E"/><path d="M158.725 83.387c2.643.712 5.105.995 7.623 6.27 0 .006-1.642-.423-3.305-.304-1.218.085-2.294.668-2.733.272l-6.083-5.504 4.498-.734Z" fill="#CD591C"/><path d="M141.591 89.229c.49-.135 1.102-.115 1.612-.07.475.045.945.114 1.411.207.214.043.432.088.643.141a.256.256 0 0 1 .109.052.215.215 0 0 1 .067.092.203.203 0 0 1 .007.11.208.208 0 0 1-.054.098 31.302 31.302 0 0 1-1.597 1.66c-.369.366-.765.709-1.185 1.027-.254.183-.435.726-.783.573-.812-.36-.743-1.917-.625-2.588.066-.379.147-.754.224-1.13a.2.2 0 0 1 .058-.108.247.247 0 0 1 .113-.064Z" fill="#0F0E0E"/><path d="M141.663 89.44c-.238 1.159-.477 3.022.158 3.303.634.28 3.365-3.022 3.365-3.022s-2.375-.597-3.523-.281Z" fill="#D17F59"/><path d="M141.679 89.452c-.137.672-.274 1.58-.245 2.278.023.497.133.887.392 1 .595.264 3.12-2.748 3.331-3-.245-.06-2.4-.568-3.482-.277l.004-.001Zm-.276 2.278c-.033-.703.107-1.618.245-2.293v-.008h.01c1.153-.317 3.525.279 3.533.28l.023.006-.015.018c-.007.01-2.74 3.312-3.387 3.026-.269-.123-.384-.523-.409-1.029Z" fill="#0F0E0E"/><path d="m149.164 83.063-1.728 6.804-.222-.022c-.417-.039-.857-.05-1.275-.06a35.983 35.983 0 0 0-3.436.11c-.301.026-.594.1-.866.216-.093.038-.245.27-.343.308a.489.489 0 0 1-.432-.07c-.142-.099-.014-.375.035-.507.719-1.933 1.798-3.933 3.707-5.157a8.727 8.727 0 0 1 2.105-.957c.672-.217 1.36-.37 2.042-.554l.413-.112Z" fill="#0F0E0E"/><path d="M148.826 83.387c-2.643.712-5.658 1.053-7.689 6.524-.153.412.339-.158 1.346-.237 2.908-.226 4.76-.05 4.76-.05l1.583-6.237Z" fill="#CD591C"/><path d="M142.316 101.746h22.535a.44.44 0 0 1 .27.087c.128.097.258.191.383.291.384.303.84.713.833 1.202 0 .434-.361.737-.76.938-.294.16-.628.256-.973.277a2.413 2.413 0 0 1-.64-.084.833.833 0 0 0-.651.089c-.19.093-.364.21-.517.346a3.999 3.999 0 0 1-.446.37c-.422.276-.919.269-1.415.204a14.852 14.852 0 0 1-.755-.126 1.805 1.805 0 0 0-.367-.044.95.95 0 0 0-.341.097 8 8 0 0 0-.807.434c-.72.418-1.469.693-2.343.53a6.798 6.798 0 0 1-1.205-.395 3.823 3.823 0 0 0-1.077-.255 1.985 1.985 0 0 0-.393 0 .516.516 0 0 1-.136 0 1.985 1.985 0 0 0-.393 0c-.372.033-.736.12-1.077.255-.385.168-.789.3-1.205.395-.871.163-1.623-.109-2.342-.53a8.544 8.544 0 0 0-.807-.434.96.96 0 0 0-.342-.097 1.805 1.805 0 0 0-.367.044c-.245.047-.502.092-.756.126-.495.065-.992.072-1.415-.204a3.958 3.958 0 0 1-.444-.37 2.335 2.335 0 0 0-.517-.346.837.837 0 0 0-.652-.089 2.418 2.418 0 0 1-.64.084 2.319 2.319 0 0 1-.972-.277c-.401-.201-.757-.503-.762-.938-.006-.618.735-1.129 1.217-1.493a.442.442 0 0 1 .279-.087Z" fill="#0F0E0E"/><path d="M142.318 101.893h22.535a.254.254 0 0 1 .162.053c.122.094.256.189.38.287.341.269.783.651.777 1.085 0 .379-.331.637-.676.811-.27.149-.577.238-.895.259-.201 0-.402-.028-.595-.081a1.036 1.036 0 0 0-.4-.024.979.979 0 0 0-.373.132c-.203.1-.389.224-.552.369a3.874 3.874 0 0 1-.428.357c-.383.25-.841.236-1.291.177-.252-.033-.497-.078-.746-.123a1.93 1.93 0 0 0-.402-.048c-.144.01-.284.047-.41.108a8.923 8.923 0 0 0-.824.445c-.682.397-1.392.663-2.217.509a6.728 6.728 0 0 1-1.172-.385 4.045 4.045 0 0 0-1.129-.267 2.248 2.248 0 0 0-.434 0 .289.289 0 0 1-.083 0 2.108 2.108 0 0 0-.435 0c-.389.035-.77.125-1.128.267a6.739 6.739 0 0 1-1.173.385c-.824.154-1.535-.108-2.216-.509a8.94 8.94 0 0 0-.825-.445 1.122 1.122 0 0 0-.41-.108c-.135.002-.27.018-.401.048-.245.045-.49.09-.747.123-.451.059-.908.073-1.292-.177a4.077 4.077 0 0 1-.427-.357 2.475 2.475 0 0 0-.552-.369.979.979 0 0 0-.373-.132 1.035 1.035 0 0 0-.4.024 2.245 2.245 0 0 1-.594.081 2.157 2.157 0 0 1-.896-.259c-.344-.174-.672-.434-.676-.811-.006-.551.716-1.048 1.157-1.377a.266.266 0 0 1 .161-.048Z" fill="#0F0E0E"/><path d="M142.318 102.117c-.704.526-1.705 1.228-.519 1.825s1.261-.21 2.261.28c1 .491.779 1.054 2.113.878 1.334-.176 1.111-.421 2.557.421s2.15.492 3.151.109 1.705-.281 1.705-.281.704-.109 1.704.281c1 .389 1.705.736 3.151-.109 1.446-.845 1.224-.597 2.557-.421s1.113-.386 2.113-.878c1-.491 1.075.317 2.261-.28 1.186-.597.186-1.302-.519-1.825h-22.535Z" fill="#E6AD3F"/><path d="M164.653 98.619c.276 1.172.462 2.359.557 3.554.058.816-.778 1.054-1.515 1.325-1.068.389-4.619.82-9.394.85-5.324.035-11.941-.598-12.302-1.704a.98.98 0 0 1-.044-.36c.09-1.232.279-2.457.566-3.665a47.53 47.53 0 0 1 2.143-7.064 26.99 26.99 0 0 1 2.004-4.085c.205-.334.153.868.378.542 1.347-1.921 3.55-4.557 6.335-4.557s4.539 1.674 5.886 3.596c.106.153.809.636.876.395.068-.24.13-.17.178-.096a24.796 24.796 0 0 1 2.19 4.2 47.833 47.833 0 0 1 2.142 7.069Z" fill="#0F0E0E"/><path d="M164.414 98.663c.273 1.162.458 2.338.553 3.522.19 2.686-22.891 2.343-22.755.109.09-1.222.277-2.436.56-3.634 1.304-5.705 3.098-9.893 5.124-12.562.069-.09-1.279-1.615-1.21-1.702 1.346-1.695 3.994.493 5.584.249 4.975-.764 9.451 2.232 12.144 14.018Z" fill="#CD591C"/><path d="M150.986 104.028c-4.735-.182-8.834-.787-8.774-1.731a23.22 23.22 0 0 1 .56-3.634 50.444 50.444 0 0 1 1.714-5.928 21.69 21.69 0 0 1 1.163-.144c-2.183 4.861-2.359 9.983 2.948 10.976.918.171 1.709.325 2.389.461Zm13.418-5.365c.273 1.162.458 2.338.553 3.522.083 1.181-4.326 1.775-9.285 1.883.723-.146 1.578-.312 2.586-.501 5.308-.992 5.131-6.115 2.949-10.976 0 0 .654.06 1.445.189a42.444 42.444 0 0 1 1.752 5.883Z" fill="#A74618"/><path d="M146.601 82.959a.136.136 0 0 1-.017-.043c-.103-.237-.264-.485-.163-.744.1-.26.42-.362.71-.397a.37.37 0 0 1 .203.031c1.623.769 3.812.986 5.631.95 1.819-.034 4.018-.334 5.664-1.072a.357.357 0 0 1 .196-.03c.295.035.592.135.714.398.132.284-.029.589-.123.868a.678.678 0 0 0-.045.308c.024.12.038.24.04.362v.054l.012.007c.292.153.43.478.423.767-.01.186-.072.367-.182.526-.109.159-.262.29-.444.383-1.512.84-4.431 1.345-6.211 1.345-1.78 0-4.699-.505-6.211-1.345a1.2 1.2 0 0 1-.445-.383 1.025 1.025 0 0 1-.181-.526c-.008-.289.13-.614.421-.767l.014-.007v-.054c.003-.121.017-.243.041-.362a.544.544 0 0 0-.038-.226l-.009-.043Z" fill="#0F0E0E"/><path d="m159.334 83.68.056.03c.264.138.388.439.379.7a.953.953 0 0 1-.169.491 1.106 1.106 0 0 1-.416.358c-1.492.829-4.408 1.334-6.165 1.334-1.756 0-4.674-.504-6.167-1.333a1.123 1.123 0 0 1-.416-.358.953.953 0 0 1-.17-.49c-.007-.262.116-.563.381-.702l.055-.029v-.094c.002-.118.015-.236.039-.352a.645.645 0 0 0-.042-.26c-.087-.24-.295-.52-.194-.777.093-.241.385-.318.642-.35a.274.274 0 0 1 .151.025c1.637.773 3.844.993 5.673.958 1.828-.034 4.048-.34 5.7-1.085a.285.285 0 0 1 .147-.021c.263.031.539.117.648.352.122.258-.038.563-.123.814a.723.723 0 0 0-.047.34c.023.117.036.235.039.352.002.032 0 .066-.001.097Z" fill="#0F0E0E"/><path d="M147.182 82.069c-.95.115-.092.662-.198 1.204-.105.543.087.471-.211.628-.299.158-.457.8.211 1.171 1.425.791 4.296 1.302 6.034 1.302 1.738 0 4.609-.507 6.034-1.302.668-.37.51-1.013.21-1.17-.299-.158-.105-.086-.21-.629-.105-.542.684-1.21-.266-1.325-2.972 1.333-8.531 1.574-11.604.12Z" fill="#E6AD3F"/><path d="M147.359 85.257c.144.065.295.127.456.188.043-.088.092-.173.145-.255.232-.37.477-.76.283-1.771-.073-.381-.122-.614-.078-.796a.626.626 0 0 1 .057-.155 8.306 8.306 0 0 1-.467-.16.953.953 0 0 0-.082.234c-.055.257 0 .52.077.95.164.859-.037 1.179-.227 1.481-.057.093-.115.184-.164.284Zm1.449.504c.159.044.32.086.489.125.046-.096.098-.189.157-.279.232-.37.476-.76.283-1.77-.074-.382-.123-.615-.079-.795a.614.614 0 0 1 .093-.217c-.171-.028-.34-.06-.505-.095a.992.992 0 0 0-.08.227c-.055.259 0 .521.077.951.164.858-.035 1.178-.226 1.482a2.739 2.739 0 0 0-.205.37l-.004.001Zm1.713.375c.168.027.334.053.5.077.049-.13.113-.253.192-.37.233-.37.476-.76.283-1.771-.073-.381-.123-.614-.079-.794a.688.688 0 0 1 .123-.252c-.181-.01-.367-.023-.54-.038a.967.967 0 0 0-.07.207c-.054.258 0 .52.077.95.164.859-.035 1.179-.225 1.482-.109.16-.195.33-.256.509h-.005Zm2.345.233h.157c.114 0 .234 0 .358-.007a9.912 9.912 0 0 0-.067-.273 4.007 4.007 0 0 1-.096-1.798c.059-.422.094-.68.055-.929a1.175 1.175 0 0 0-.094-.314c-.184 0-.367.007-.55.007a.99.99 0 0 1 .15.367c.029.189 0 .427-.059.816a4.337 4.337 0 0 0 .106 1.948l.046.182h-.006Zm2.147-.156c.165-.024.331-.05.499-.077a2.072 2.072 0 0 0-.255-.51c-.189-.302-.39-.622-.225-1.482.082-.434.131-.69.076-.949a.996.996 0 0 0-.108-.284c-.18.022-.361.042-.543.058a.74.74 0 0 1 .159.309c.039.18 0 .413-.078.794-.194 1.011.051 1.4.282 1.77.08.117.145.241.193.37Zm1.732-.326c.164-.039.325-.081.489-.125a2.503 2.503 0 0 0-.204-.368c-.19-.304-.389-.625-.225-1.483.082-.434.131-.692.076-.95a1.039 1.039 0 0 0-.147-.349c-.169.04-.341.075-.516.109a.773.773 0 0 1 .172.325c.038.18-.006.414-.079.795-.194 1.011.051 1.4.282 1.77.06.09.112.183.157.28l-.005-.004Zm1.477-.442a7.1 7.1 0 0 0 .457-.187c-.05-.1-.107-.191-.165-.283-.19-.303-.39-.623-.226-1.483.082-.428.131-.692.078-.949a1.054 1.054 0 0 0-.156-.361c-.154.056-.313.108-.477.161.068.084.116.18.14.281.038.182 0 .415-.078.796-.193 1.01.05 1.4.283 1.77.055.082.105.167.148.255h-.004Z" fill="#fff"/><path d="M146.454 84.02a.066.066 0 0 1 .017-.054.085.085 0 0 1 .055-.029.09.09 0 0 1 .061.015.07.07 0 0 1 .032.048c.056.36.508.724 1.287 1.052.778.327 1.868.608 3.214.807 2.097.308 3.247.058 4.341-.18.17-.037.338-.074.514-.109a29.918 29.918 0 0 0 2.419-.81c.54-.217.993-.424 1.125-.573a.085.085 0 0 1 .026-.02.094.094 0 0 1 .096.008c.017.012.028.03.031.049a.068.068 0 0 1-.017.054c-.152.171-.628.396-1.19.616a29.432 29.432 0 0 1-2.448.82c-.168.034-.338.071-.511.109-1.111.242-2.277.496-4.407.182-1.363-.2-2.471-.488-3.261-.819-.836-.35-1.319-.755-1.384-1.165Zm.244-1.078a.119.119 0 0 1-.022-.038.104.104 0 0 1 .044-.117.137.137 0 0 1 .138-.009.114.114 0 0 1 .037.028c.49.558.549.695.549.695a.098.098 0 0 1-.002.085.118.118 0 0 1-.068.06.14.14 0 0 1-.096-.002.116.116 0 0 1-.067-.06s-.047-.11-.513-.642Zm12.555-.648a.118.118 0 0 1 .067-.062.14.14 0 0 1 .096-.002c.031.01.056.032.069.059a.101.101 0 0 1 .002.085c-.284.651-.536.922-.537.923a.122.122 0 0 1-.084.042.132.132 0 0 1-.092-.025.114.114 0 0 1-.032-.033.104.104 0 0 1-.015-.041.105.105 0 0 1 .028-.082s.23-.248.498-.864Zm-6.145-12.207a3.83 3.83 0 0 1 .96-.42c.735-.205 1.51-.186 2.254-.064 1.24.204 2.555 1.145 3.386 1.953.769.743 1.54 1.752 1.759 2.755.014.1.017.202.007.302 0 .164-.02.326-.036.49-.043.45-.106.9-.184 1.346-.064.36-.774 2.796-1.153 2.66-.07-.32-.2-1.015-.367-1.34-.356-.671-.894-1.302-1.619-1.686a6.51 6.51 0 0 0-1.224-.508c-.33-.1-.667-.169-1-.258a5.693 5.693 0 0 1-.29-.084.365.365 0 0 1 .016.026c.105.175.245.44.069.616-.133.13-.331.109-.497.054a3.62 3.62 0 0 1-1.255-.716 3.069 3.069 0 0 1-.746-.95 3.044 3.044 0 0 1-.691.902 3.643 3.643 0 0 1-1.309.76c-.166.052-.367.075-.497-.054-.185-.181-.029-.457.08-.636l.045-.072c-.201.063-.405.118-.612.174a9.877 9.877 0 0 0-1.152.359c-1.056.421-1.769 1.113-2.357 1.986-.014.022-.612 1.226-.582 1.612-.355.082-1.188-2.25-1.195-2.273a262.4 262.4 0 0 1-.289-.793c-.136-.38-.27-.766-.376-1.154-.065-.245-.16-.627-.102-.875.28-1.21 1.443-2.37 2.5-3.122.932-.664 2.156-1.29 3.346-1.474.792-.122 1.666-.134 2.424.13.248.085.48.205.687.354Z" fill="#0F0E0E"/><path d="M145.113 80.137c-.358-1.42-.862-3.294-.765-3.91.442-2.734 3.395-5.87 5.677-6.375 2.15-.477 2.969.664 3.057.796.453-.399 1.332-1.24 3.218-.796 1.885.444 4.556 3.793 4.974 6.526.065.433-1.14 5.396-1.796 5.588.12-1.383-8.352 3.992-14.365-1.83Z" fill="#C5C5C5"/><path d="M148.699 73.076a.14.14 0 0 1 .096.004.123.123 0 0 1 .039.027.103.103 0 0 1 .024.037c.023.058-.159.109-.224.128-.583.18-1.102.387-1.764.529a7.642 7.642 0 0 1-1.895.203.131.131 0 0 1-.084-.036.1.1 0 0 1-.031-.079.08.08 0 0 1 .011-.04.113.113 0 0 1 .029-.035.133.133 0 0 1 .089-.027 7.373 7.373 0 0 0 1.824-.198 24.06 24.06 0 0 0 1.886-.513Zm7.624.18a.12.12 0 0 1-.066-.062.106.106 0 0 1-.007-.043.092.092 0 0 1 .013-.042c.029-.056.133 0 .196.025.489.203 1.299.347 2.095.444.612.072 1.184.073 1.546-.067a.14.14 0 0 1 .096-.002.1.1 0 0 1 .041.024.11.11 0 0 1 .039.078.105.105 0 0 1-.036.079.12.12 0 0 1-.04.024c-.409.157-1.032.16-1.679.083a9.395 9.395 0 0 1-2.198-.54Z" fill="#0F0E0E"/><path d="M151.111 71.605a.134.134 0 0 1 .086-.037.134.134 0 0 1 .09.027.105.105 0 0 1 .043.076.106.106 0 0 1-.03.08c-.426.43-.929.793-1.49 1.075a9.06 9.06 0 0 1-1.915.701c-.472.12-.683.082-.726-.053-.066-.205.484-.619.955-.977.206-.14.397-.296.571-.466a.123.123 0 0 1 .075-.053.141.141 0 0 1 .096.01.116.116 0 0 1 .06.066.102.102 0 0 1-.011.085c-.065.109-.332.305-.629.53-.415.312-.897.676-.875.743 0 0 .122-.024.416-.1a8.887 8.887 0 0 0 1.858-.675 5.477 5.477 0 0 0 1.426-1.032Zm2.997.315a.107.107 0 0 1-.03-.08.11.11 0 0 1 .044-.076.136.136 0 0 1 .176.012 5.16 5.16 0 0 0 1.44 1.02 8.458 8.458 0 0 0 1.892.641c.138.036.278.065.42.087.021-.07-.46-.419-.873-.717-.299-.217-.565-.41-.63-.514a.104.104 0 0 1-.015-.04.103.103 0 0 1 .026-.082.131.131 0 0 1 .084-.041.137.137 0 0 1 .092.022c.013.01.024.02.032.033.173.164.364.314.568.448.471.34 1.018.737.96.944-.04.137-.245.181-.725.075a8.793 8.793 0 0 1-1.951-.663 5.42 5.42 0 0 1-1.51-1.069Zm.697 10.558a.082.082 0 0 1-.051-.034.065.065 0 0 1-.009-.056.078.078 0 0 1 .039-.045.093.093 0 0 1 .063-.008 6.33 6.33 0 0 0 1.636.171.092.092 0 0 1 .06.02.069.069 0 0 1 .026.051.056.056 0 0 1-.005.03.076.076 0 0 1-.043.041.094.094 0 0 1-.032.006 6.452 6.452 0 0 1-1.684-.176Zm-8.758 3.067c0-.029.013-.056.036-.077a.13.13 0 0 1 .086-.032c.033 0 .064.012.087.032.023.02.036.048.036.077.016.709.526 2.081.527 2.085a.105.105 0 0 1 .006.043.104.104 0 0 1-.043.076.135.135 0 0 1-.091.026.13.13 0 0 1-.085-.038.103.103 0 0 1-.024-.038s-.513-1.41-.535-2.154Zm14.148-.241a.089.089 0 0 1 .002-.042.115.115 0 0 1 .02-.04.126.126 0 0 1 .081-.043.133.133 0 0 1 .092.02c.014.008.025.02.033.032a.103.103 0 0 1 .017.04c.122.738-.017 2.043-.019 2.046a.09.09 0 0 1-.013.042.12.12 0 0 1-.074.054.14.14 0 0 1-.049.004.137.137 0 0 1-.047-.012.111.111 0 0 1-.038-.027.093.093 0 0 1-.023-.039.092.092 0 0 1-.004-.043s.145-1.279.022-1.992Zm-18.922 4.076a.094.094 0 0 1-.093-.005.08.08 0 0 1-.021-.022.066.066 0 0 1-.007-.056.078.078 0 0 1 .039-.045c.389-.195.902-.271 1.393-.279.72-.01 1.4.128 1.559.241a.086.086 0 0 1 .023.022.093.093 0 0 1 .011.028.074.074 0 0 1-.018.056.088.088 0 0 1-.058.027.093.093 0 0 1-.033-.003.101.101 0 0 1-.029-.015c-.138-.099-.768-.217-1.453-.208-.466.007-.946.077-1.313.26Zm21.227-.365a.094.094 0 0 1-.093-.005.079.079 0 0 1-.021-.022.057.057 0 0 1-.01-.028.056.056 0 0 1 .002-.028.078.078 0 0 1 .04-.045c.497-.25 1.154-.346 1.782-.356.923-.015 1.793.162 1.995.305.01.006.019.013.025.022a.064.064 0 0 1 .011.059.075.075 0 0 1-.042.047.092.092 0 0 1-.067.004.08.08 0 0 1-.029-.017c-.183-.129-1.003-.286-1.891-.272-.602.008-1.232.1-1.702.336Z" fill="#0F0E0E"/><path d="M153.022 66.148c2.959 0 5.357 1.737 5.357 3.872s-2.401 3.871-5.357 3.871c-2.956 0-5.358-1.736-5.358-3.871s2.397-3.872 5.358-3.872Z" fill="#0F0E0E"/><path d="M153.021 66.371c-2.815 0-5.107 1.628-5.107 3.65 0 2.02 2.287 3.648 5.107 3.648 2.821 0 5.105-1.634 5.105-3.649s-2.289-3.649-5.105-3.649Z" fill="#C5C5C5"/><path d="M153.021 66.371c-1.986 0-3.708.81-4.552 1.993.844.492 2.57.83 4.552.83 1.982 0 3.707-.338 4.552-.83-.847-1.183-2.569-1.993-4.552-1.993Z" fill="#fff"/><path d="M152.849 66.373c-.086 0-.172.005-.258.01l-.22.172c-.637.498-.972 1.219-1.132 1.953-.269 1.226-.042 2.496.06 2.792a1.7 1.7 0 0 1-.319 0 2.856 2.856 0 0 1-.77-.173c-.531-.204-1.019-.617-.886-1.387a4.841 4.841 0 0 1 1.26-2.408c.281-.308.609-.582.973-.813-.146.032-.29.068-.43.109a5.213 5.213 0 0 0-.672.601 4.982 4.982 0 0 0-1.297 2.48c-.149.858.394 1.317.985 1.545.261.098.538.16.82.184.255.02.449-.008.49-.056a.08.08 0 0 0 .022-.055.08.08 0 0 0-.022-.054c-.075-.097-.348-1.432-.061-2.74.154-.703.473-1.394 1.078-1.868.141-.109.262-.206.367-.292h.012Zm2.024.244a7.676 7.676 0 0 0-.367-.091 5.913 5.913 0 0 1 1.396 1.445 4.51 4.51 0 0 1 .775 1.912c.142 1.064.123 1.295.113 1.344-.235.069-1.774.45-1.774-1.457-.007-1.21-.443-2.386-1.248-3.363a7.598 7.598 0 0 0-.227-.02c.844.971 1.303 2.162 1.307 3.388 0 2.278 2.024 1.587 2.03 1.585a.078.078 0 0 0 .042-.031.069.069 0 0 0 .012-.048c.022-.109.039-.448-.088-1.41a4.688 4.688 0 0 0-.798-1.974 6.102 6.102 0 0 0-1.173-1.28Z" fill="#AFB0B0"/><path d="M161.756 107.991c.181-.426.188-.687.296-1.118 0 0 .12-.206.3-.106.065.058.486.372-1.137 3.512 0 .213-1.338.27-1.447.213-.053-.028-.36-.106-.42-.744.034-.084 1.521.034 1.747-.16 0 0 .361.106.661-1.597Zm-15.903-1.594s-.121-.205-.319-.094c-.072.062-.722.413.905 3.55-.008.218 1.614.204 1.734.14.057-.031.391-.126.479-.782-.034-.084-1.636.108-1.872-.08-.512.165-.806-2.206-.927-2.734Z" fill="#7C6052" stroke="#000" stroke-width="1.046" stroke-linejoin="round"/><path d="M151.557 72c.746-.34.83-.253.576 0-.292.291-1.029.802-1.729 1.15a7.1 7.1 0 0 1-.27.128l-.036.015c-.892.382-.286.408.52.184.123-.032.245-.07.368-.108.322-.11.625-.26.898-.447.58-.412.857-.716.979-.9a.657.657 0 0 0 .106-.198 2.956 2.956 0 0 0 1.283 1.41c.697.374.216-.498-.09-.988a8.302 8.302 0 0 0-.198-.306 16.727 16.727 0 0 0 2.638.958 13.77 13.77 0 0 0 2.359.444 8.964 8.964 0 0 0 1.437.023 5.14 5.14 0 0 0 .425-.045c-.545-.977-1.508-1.944-2.526-2.624a7.021 7.021 0 0 0-.222-.143c-.613-.38-1.236-.651-1.789-.739-1.168-.192-1.946-.038-2.476.173a3.31 3.31 0 0 0-.398.187c-.129.07-.235.138-.325.192a1.378 1.378 0 0 0-.28-.217 2.51 2.51 0 0 0-.46-.217c-.482-.169-1.224-.286-2.298-.12a6.946 6.946 0 0 0-2.081.723 6.83 6.83 0 0 0-.229.122c-1.062.588-2.051 1.41-2.684 2.265.556.1 1.125.136 1.691.108.096 0 .191-.008.287-.015a15.85 15.85 0 0 0 2.143-.297l.304-.066c.198-.045.39-.093.575-.142.386-.1.766-.22 1.136-.358.131-.053.252-.098.366-.153Z" fill="#fff"/></g><path fill-rule="evenodd" clip-rule="evenodd" d="M142.729 99.856a.49.49 0 0 1-.101.282.727.727 0 0 1-.288.213.827.827 0 0 1-.369.063.355.355 0 0 1-.059.155.424.424 0 0 1-.124.122.347.347 0 0 1-.152.054 2.53 2.53 0 0 1-1.14-.129c-1.069-.388-1.639-1.2-1.892-2.163-.339-1.29-.103-2.764.222-4.04.36-1.409 1.309-4.261 3.327-4.25.153.011.305.037.452.076l.102.023c-.074-.029-.139-.07-.142-.133a.067.067 0 0 1 .003-.028c.024-.064.107-.064.168-.06.061.004.152.015.226.022.224.028.446.058.669.077.198.021.398.024.596.009.258-.027.249-.29.41-.32a.21.21 0 0 1 .1.016.176.176 0 0 1 .075.06c.244.263.395.584.433.923.077.574-.102 1.18-.347 1.712-.222.466-.471.921-.746 1.365-.446.725-.939 1.43-1.457 2.117-.192.255-.386.508-.587.759l.508.559c.292.321.607.822.655 1.235.006.046.01.092.012.138a.27.27 0 0 1-.058.184.329.329 0 0 1-.174.112l-.018.005a.62.62 0 0 1 .101.422.514.514 0 0 1-.136.26.607.607 0 0 1-.268.161l-.001-.001Zm.356-9.508.164.035c.274.065.556.099.839.102-.213-.034-.521-.07-.606-.08a12.943 12.943 0 0 1-.401-.058h.004Z" fill="#0F0E0E"/><path fill-rule="evenodd" clip-rule="evenodd" d="M141.889 100.336a.782.782 0 0 0 .369-.038.69.69 0 0 0 .293-.201.427.427 0 0 0 .087-.296.544.544 0 0 0 .268-.135.442.442 0 0 0 .136-.245.629.629 0 0 0-.15-.465.6.6 0 0 0 .125-.02.24.24 0 0 0 .131-.083.201.201 0 0 0 .044-.138 3.11 3.11 0 0 0-.012-.135c-.047-.399-.357-.887-.637-1.197l-.542-.598c.212-.263.42-.533.622-.801a27.764 27.764 0 0 0 1.452-2.112c.274-.44.522-.894.741-1.358.24-.515.417-1.11.343-1.672a1.558 1.558 0 0 0-.415-.883c-.188-.199-.14.23-.51.269-.58.06-1.592-.164-1.59-.1.011.185 1.915.269 1.694.384-.425.216-1.847-.267-2.185-.268-1.777-.01-2.768 2.323-3.244 4.191-.323 1.267-.557 2.735-.223 4.008.24.912.779 1.723 1.842 2.112.347.123.724.165 1.094.122a.267.267 0 0 0 .115-.039.372.372 0 0 0 .118-.135.324.324 0 0 0 .034-.167Z" fill="#0F0E0E"/><path fill-rule="evenodd" clip-rule="evenodd" d="M139.253 99.229c.536.768 1.328 1.328 2.337 1.221.127-.08-.016-.427-.016-.427.456.231 1.047.028.729-.43 0 0 .44.08.496-.209.057-.287-.701-.902-.701-.902s.594.316.847.245l-.011-.124c-.061-.5-.583-1.08-.583-1.08l-.667-.734s1.989-2.407 2.899-4.364c1.552-3.334-2.477-3.422-4.235-.78-1.637 2.459-1.949 6.356-1.095 7.584Z" fill="#E9BC9D"/><path fill-rule="evenodd" clip-rule="evenodd" d="M141.481 97.716a.126.126 0 0 0-.082-.045.14.14 0 0 0-.093.02.125.125 0 0 0-.034.032.091.091 0 0 0-.017.041.102.102 0 0 0 .023.083c.797.97 1.475 1.18 1.476 1.181a.14.14 0 0 0 .096-.004.115.115 0 0 0 .065-.063.102.102 0 0 0-.004-.085.124.124 0 0 0-.072-.058s-.607-.186-1.358-1.102Zm-.281.781a.127.127 0 0 0-.083-.045.137.137 0 0 0-.127.053.12.12 0 0 0-.017.04.105.105 0 0 0 .024.083c.796.97 1.473 1.181 1.476 1.182a.135.135 0 0 0 .135-.03.116.116 0 0 0 .025-.037.092.092 0 0 0 .008-.042.091.091 0 0 0-.011-.043.126.126 0 0 0-.072-.057s-.608-.189-1.358-1.104Zm-.825.373a.132.132 0 0 0-.082-.045.144.144 0 0 0-.049.002.128.128 0 0 0-.078.05.121.121 0 0 0-.017.04.106.106 0 0 0 .002.044.105.105 0 0 0 .021.04c.795.966 1.688 1.298 1.688 1.298a.133.133 0 0 0 .097 0 .124.124 0 0 0 .042-.024.113.113 0 0 0 .028-.037.104.104 0 0 0 .01-.043.094.094 0 0 0-.01-.043.122.122 0 0 0-.027-.037.124.124 0 0 0-.042-.024s-.824-.303-1.583-1.221Z" fill="#0F0E0E"/><path fill-rule="evenodd" clip-rule="evenodd" d="M141.308 96.383c.821-.996 3.137-4.167 3.294-5.698.01-.083.014-.162.018-.238.005-.076.006-.155.006-.227.04.046.075.094.106.145.239.379.275.944-.007 1.702a4.13 4.13 0 0 1-.098.245l-.052.112c-.813 1.75-2.488 3.858-2.835 4.285a3.592 3.592 0 0 0-.432-.326Z" fill="#D17F59"/><path fill-rule="evenodd" clip-rule="evenodd" d="M141.414 96.307a.138.138 0 0 0-.096 0 .116.116 0 0 0-.077.104c0 .015.003.03.01.043a.115.115 0 0 0 .07.059c.223.078.98.968.982.973a.129.129 0 0 0 .083.043.146.146 0 0 0 .093-.021.112.112 0 0 0 .048-.073.08.08 0 0 0-.003-.043.102.102 0 0 0-.021-.039s-.802-.94-1.089-1.046Zm23.049 3.162a.596.596 0 0 1-.258-.173.5.5 0 0 1-.12-.266.629.629 0 0 1 .126-.417l-.017-.005a.322.322 0 0 1-.166-.121.26.26 0 0 1-.047-.186c.004-.046.011-.093.019-.138.073-.412.418-.894.729-1.202l.541-.534c-.186-.259-.365-.525-.541-.785a27.027 27.027 0 0 1-1.327-2.185 13.628 13.628 0 0 1-.662-1.397c-.213-.539-.355-1.153-.244-1.725.059-.337.229-.65.488-.901a.188.188 0 0 1 .079-.056.21.21 0 0 1 .101-.011c.157.037.133.3.389.338.198.025.398.031.597.02.224-.011.447-.029.672-.046l.227-.012c.075-.003.144.002.164.068.002.01.003.019.002.028-.007.063-.075.1-.151.126l.103-.018a2.34 2.34 0 0 1 .457-.055c2.015.085 2.792 2.978 3.066 4.4.248 1.291.394 2.774-.022 4.045-.308.952-.929 1.735-2.019 2.071a2.514 2.514 0 0 1-1.147.074.339.339 0 0 1-.148-.06.415.415 0 0 1-.117-.127.375.375 0 0 1-.05-.158.817.817 0 0 1-.364-.08.725.725 0 0 1-.275-.226.5.5 0 0 1-.084-.288l-.001.002Zm.218-9.51a19.65 19.65 0 0 1-.405.037c-.081.004-.39.026-.61.051.283.01.567-.01.845-.062l.174-.027h-.004Z" fill="#0F0E0E"/><path fill-rule="evenodd" clip-rule="evenodd" d="M165.261 99.988a.77.77 0 0 1-.365-.055.677.677 0 0 1-.281-.215.423.423 0 0 1-.069-.3.54.54 0 0 1-.26-.146.437.437 0 0 1-.121-.251.643.643 0 0 1 .178-.459.545.545 0 0 1-.124-.024.242.242 0 0 1-.126-.09.203.203 0 0 1-.035-.14c.006-.046.012-.09.02-.134.071-.397.41-.869.708-1.165l.578-.571a28.77 28.77 0 0 1-.573-.83 27.35 27.35 0 0 1-1.323-2.178 13.273 13.273 0 0 1-.658-1.39c-.209-.527-.35-1.13-.241-1.686a1.58 1.58 0 0 1 .467-.864c.2-.188.126.238.493.294.576.088 1.599-.089 1.594-.024-.022.184-1.929.177-1.715.302.411.236 1.861-.178 2.198-.164 1.775.074 2.624 2.452 2.987 4.34.246 1.28.391 2.757-.019 4.012-.294.9-.882 1.682-1.967 2.021-.354.106-.732.13-1.1.071a.257.257 0 0 1-.112-.045.363.363 0 0 1-.11-.14.327.327 0 0 1-.024-.169Z" fill="#0F0E0E"/><path fill-rule="evenodd" clip-rule="evenodd" d="M167.973 99.006c-.581.742-1.406 1.264-2.407 1.109-.122-.086.042-.425.042-.425-.469.209-1.047-.022-.702-.466 0 0-.444.06-.483-.23-.039-.29.755-.868.755-.868s-.613.287-.861.204l.018-.122c.092-.497.648-1.051.648-1.051l.71-.702s-1.841-2.498-2.632-4.49c-1.348-3.408 2.68-3.3 4.277-.58 1.486 2.53 1.562 6.437.635 7.62Z" fill="#E9BC9D"/><path fill-rule="evenodd" clip-rule="evenodd" d="M165.848 97.392a.121.121 0 0 1 .037-.028.139.139 0 0 1 .138.011c.013.01.024.02.032.034a.104.104 0 0 1 .01.084.117.117 0 0 1-.023.038c-.854.93-1.544 1.11-1.545 1.11a.141.141 0 0 1-.096-.009.118.118 0 0 1-.061-.066.102.102 0 0 1 .01-.085.125.125 0 0 1 .075-.053s.617-.154 1.423-1.036Zm.226.791a.137.137 0 0 1 .176-.016.11.11 0 0 1 .046.076.104.104 0 0 1-.028.08c-.853.931-1.542 1.11-1.545 1.111a.141.141 0 0 1-.096-.009.118.118 0 0 1-.061-.066.102.102 0 0 1 .01-.085.125.125 0 0 1 .075-.054s.618-.158 1.423-1.037Zm.795.413a.122.122 0 0 1 .085-.041.138.138 0 0 1 .092.025.105.105 0 0 1 .047.074c.001.015 0 .03-.005.043a.104.104 0 0 1-.024.038c-.852.929-1.763 1.217-1.763 1.218a.148.148 0 0 1-.098-.004.126.126 0 0 1-.066-.064.109.109 0 0 1-.007-.044.108.108 0 0 1 .012-.043.134.134 0 0 1 .03-.035.136.136 0 0 1 .043-.023s.841-.263 1.654-1.144Z" fill="#0F0E0E"/><defs><clipPath id="e"><path fill="#fff" transform="translate(137 66)" d="M0 0h34.25v47.047H0z"/></clipPath></defs></svg>