<svg width="154" height="270" fill="none" xmlns="http://www.w3.org/2000/svg"><g clip-path="url(#a)"><path d="M73.125 270c34.927 0 63.241-3.335 63.241-7.447 0-4.113-28.314-7.448-63.241-7.448-34.928 0-63.242 3.335-63.242 7.448 0 4.112 28.314 7.447 63.242 7.447Z" fill="#E5E5E5" style="mix-blend-mode:multiply"/><path d="M16.521 42.14s-5.432-4.297-6.262-5.968c-.83-1.67-7.877-9.42-8.217-10.111-.34-.691-1.079-2.179 2.543-1.8 2.369.251 3.38 5.186 4.044 5.558.664.372-1.403-7.91.71-8.07 1.1-.083 2.421 2.611 2.082 3.363-.34.752.882-2.277 2.655-.38 1.57 1.7-.98 3.189-1.116 4.487-.136 1.298 0 5.314 2.263 4.555 2.264-.76 1.162-4.92 1.05-6.34a3.571 3.571 0 0 1 .37-1.83 3.545 3.545 0 0 1 1.244-1.388c.814-.311 3.41 7.462 4.104 8.76.694 1.299-.211 9.11-.536 11.873-.324 2.764.815 10.21-1.795 8.495-2.61-1.716-3.139-11.205-3.139-11.205Z" fill="url(#b)"/><path style="mix-blend-mode:multiply" opacity=".4" d="M13.985 35.892c-3.018-1.07-7.205-5.929-8.428-7.66-.807-1.139-1.863-3.036-2.86-3.962-1.44.258-.958 1.252-.678 1.791.362.69 7.409 8.45 8.239 10.112.83 1.662 6.262 5.966 6.262 5.966.142 2.111.432 4.209.868 6.278.28-.028.544-.145.754-.334.815-1.153.325-7.5.49-8.897.167-1.396-1.614-2.224-4.647-3.294Z" fill="url(#c)"/><path d="M52.262 100.828s-14.38-18.166-16.516-19.487C33.611 80.02 23.17 42.079 22.414 40.75c-.754-1.33-16.9 18.856-18.176 24.709-1.275 5.853-4.587 38.442-4.217 39.809.37 1.366 4.904-7.971 5.938-7.933 1.033.038 2.686-4.19 3.244-3.796.558.395.506 5.39.928 6.597.423 1.207 10.02 11.782 12.781 13.869 2.762 2.088 19.157 5.937 19.157 5.937l10.193-19.115Z" fill="url(#d)"/><path style="mix-blend-mode:multiply" opacity=".45" d="M47.622 105.269S27.19 103.91 14.786 93.024c-.58-.501 3.252-10.962 2.724-11.509-.173-.167-7.183 7.356-7.492 6.977-1.614-1.928-8.224-22.015 12.404-47.742-.755-1.328-16.9 18.857-18.176 24.71C2.971 71.313-.34 103.902.03 105.269c.37 1.366 4.904-7.971 5.937-7.933 1.034.038 2.686-4.19 3.245-3.796.558.395.505 5.39.928 6.597.422 1.207 10.012 11.782 12.773 13.869 2.762 2.088 19.157 5.937 19.157 5.937l5.553-14.674Z" fill="url(#e)"/><path style="mix-blend-mode:screen" opacity=".6" d="M26.328 53.595s8.05 25.696 8.73 26.721c.679 1.025 7.545 8.57 7.545 8.57s-12.548-5.268-12.427-7.241c.12-1.974-3.848-28.05-3.848-28.05Z" fill="url(#f)"/><path d="M137.483 43.445s5.432-4.297 6.262-5.967c.83-1.67 7.877-9.42 8.239-10.112.362-.69 1.079-2.178-2.542-1.799-2.37.25-3.381 5.178-4.045 5.557-.664.38 1.404-7.91-.709-8.07-1.101-.083-2.422 2.612-2.082 3.364.339.751-.883-2.278-2.656-.38-1.569 1.7.981 3.188 1.117 4.486.135 1.299 0 5.314-2.226 4.555-2.226-.759-1.162-4.919-1.049-6.338a3.57 3.57 0 0 0-.398-1.857 3.543 3.543 0 0 0-1.292-1.385c-.815-.311-3.41 7.462-4.104 8.76-.695 1.298.211 9.11.535 11.873.325 2.763-.815 10.21 1.796 8.495 2.611-1.716 3.154-11.182 3.154-11.182Z" fill="url(#g)"/><path style="mix-blend-mode:multiply" opacity=".4" d="M140.018 37.197c3.018-1.07 7.198-5.928 8.427-7.66.808-1.138 1.864-3.036 2.86-3.962 1.441.258.958 1.253.679 1.792-.362.69-7.409 8.449-8.239 10.111-.83 1.663-6.262 5.967-6.262 5.967a45.153 45.153 0 0 1-.868 6.278 1.283 1.283 0 0 1-.755-.341c-.814-1.147-.324-7.493-.49-8.89-.166-1.397 1.615-2.209 4.648-3.294Z" fill="url(#h)"/><path d="M101.742 102.126s14.381-18.159 16.493-19.48c2.113-1.32 12.593-39.262 13.325-40.59.732-1.329 16.901 18.857 18.176 24.71 1.275 5.852 4.587 38.442 4.217 39.808-.369 1.367-4.904-7.97-5.938-7.933-1.033.038-2.686-4.19-3.244-3.795-.558.394-.505 5.39-.928 6.597-.422 1.207-10.02 11.796-12.781 13.869-2.762 2.072-19.157 5.936-19.157 5.936l-10.163-19.122Z" fill="url(#i)"/><path style="mix-blend-mode:multiply" opacity=".45" d="M106.383 106.605s20.432-1.359 32.835-12.245c.581-.501-3.251-10.962-2.723-11.509.173-.167 7.183 7.356 7.492 6.977 1.614-1.928 8.224-22.015-12.404-47.742.754-1.328 16.901 18.857 18.176 24.71 1.275 5.853 4.587 38.442 4.217 39.809-.369 1.366-4.904-7.971-5.938-7.933-1.033.038-2.685-4.19-3.244-3.796-.558.395-.505 5.39-.928 6.597-.422 1.207-10.042 11.766-12.804 13.839-2.761 2.072-19.156 5.936-19.156 5.936l-5.523-14.643Z" fill="url(#j)"/><path style="mix-blend-mode:screen" opacity=".6" d="M127.673 54.9s-8.051 25.697-8.73 26.722c-.679 1.025-7.545 8.57-7.545 8.57s12.548-5.268 12.427-7.242c-.121-1.974 3.848-28.05 3.848-28.05Z" fill="url(#k)"/><path d="M86.108 242.163s-1.969 11.736-1.72 13.467c.249 1.73 7.734 4.448 9.205 4.691 1.471.243 6.881 1.116 7.002 1.731.12.615-21.126.493-21.126.493s2.21-4.448 2.452-6.672c.241-2.225-.12-14.697-.12-14.697l4.307.987Zm-26.028 0s1.962 11.736 1.713 13.467c-.249 1.73-7.733 4.448-9.205 4.691-1.471.243-6.873 1.116-7.002 1.731-.128.615 21.126.493 21.126.493s-2.21-4.448-2.452-6.672c-.241-2.225.121-14.697.121-14.697l-4.3.987Z" fill="#000"/><path d="M15.624 223.716s-2.8-33.28 4.104-67.092c6.3-30.843 26.823-71.085 56.716-69.84 26.264 1.108 49.2 32.908 55.893 69.202 6.692 36.294 2.972 71.609 2.972 71.609s-41.972 17.172-62.532 17.172c-19.044 0-57.153-21.051-57.153-21.051Z" fill="url(#l)"/><path style="mix-blend-mode:multiply" opacity=".45" d="M15.624 223.715s-2.8-33.28 4.104-67.092c-.49 27.329 4.987 46.14 13.581 58.62.672.98-1.584-21.84 2.845-34.692-1.215 15.57.61 39.217 1.32 40.014 10.133 11.349 23.314 15.828 36.012 16.162 17.029.448 36.042-5.732 47.88-31.026.755-1.677.581-34.867-2.203-52.987 7.681 21.749 5.863 43.908 6.511 41.881 3.298-10.332 5.644-23.032 6.678-38.594 6.692 36.294 2.972 71.609 2.972 71.609s-41.987 17.156-62.547 17.156c-19.044 0-57.153-21.051-57.153-21.051Z" fill="url(#m)"/><path style="mix-blend-mode:multiply" opacity=".45" d="M68.204 90.662s-1.743 3.173-3.886 4.062C62.175 95.612 59.52 97 59.52 97l1.923-2.406a6.96 6.96 0 0 0-2.688 2.608 7.017 7.017 0 0 0-.956 3.632c0 4.501-.43 6.877 0 6.672.43-.204 1.72-2.368 1.72-2.368s-1.282 4.433 1.759 5.208a6.938 6.938 0 0 1 2.437.895.874.874 0 0 0 1.146-.159s-.46.714 1.034 1.139c1.494.425 2.897 1.192 3.637.88.74-.311 1.35-1.86 1.35-1.86l11.99.107s.437 2.095 1.9 2.133c1.464.038 2.105-.251 2.732-1.382a5.92 5.92 0 0 0 .716-2.194s.114 2.802 1.2 2.68c1.087-.121 2.55-1.131 2.573-1.845.023-.713 0-1.154 0-1.154s-.09 1.375 2.105.76c2.196-.615 1.932-4.198 1.932-4.198l-.959.683s.551-4.191-.437-6.339a19.95 19.95 0 0 0-3.018-4.327c.026.574.16 1.138.392 1.663.325.516-2.739-2.149-2.957-2.953a19.386 19.386 0 0 0-1.283-2.718s.807-1.663 6.036.212c5.228 1.876 7.771 1.595 7.771 1.595s.113.387 1.72.759 1.464 1.13.408 1.26c-.894.05-1.791-.009-2.671-.175 0 0 2.407 3.234 4.104 4.418 1.698 1.185 7.93 4.601 8.42 5.428.491.828-5.605-1.693-7.069-1.602a4.727 4.727 0 0 1-2.875-1.131s7.696 5.064 8.707 7.85a14.749 14.749 0 0 0 2.701 4.608s-8.646-2.361-9.627-3.758c1.554 4.555 8.013 2.057 10.397 6.361 3.101 5.595 8.337 18.121 8.337 18.121s-8.36-2.277-11.031-4.206c-2.671-1.928-3.968-1.958-3.968-1.958s10.563 17.923 11.317 21.901c.207 1.493.275 3.003.204 4.509a66.904 66.904 0 0 1-2.498 15.904 27.024 27.024 0 0 0-11.747-11.941s-17.98 19.737-25.706 49.419c-23.238-31.124-27.063-50.467-27.063-50.467s-13.74 5.314-15.55 17.172c-1.977-2.642-4.995-14.91-5.425-20.087-.265-3.158 1.343-6.726 3.018-12.473 1.607-5.632 10.336-10.696 10.336-10.696s-5.742.911-8.39 3.872c-3.622 4.054-4.678 1.07-7.296 3.499 0 0 3.237-9.641 5.41-14.006 2.558-5.131 14.41-12.297 14.41-12.297s-7.122 2.626-9.363 4.38c-2.24 1.753-1.9 3.401-1.9 3.401s-1.434-3.181.407-4.942c1.84-1.761 6.435-3.849 8.299-7.47 1.864-3.621 4.527-8.07 4.527-8.07a4.552 4.552 0 0 0-2.762.281c-1.207.638-4.941 2.224-4.941 2.224a43.033 43.033 0 0 0 5.055-6.308c1.266-2 2.73-3.867 4.368-5.572l.755-1.989s-1.955-5.01-.174-4.038c1.78.971 3.275 2.786 5.003 2.672 1.727-.114 5.81-3.47 8.782 1.844Z" fill="url(#n)"/><path opacity=".6" d="M61.953 105.921v-.084c.045-.053.03.008 0 .084Z" fill="#fff"/><path d="M96.003 94.702a3.59 3.59 0 0 1-.136.835c-.34 1.26-1.207 3.127-1.509 4.32-.234.925-1.328 8.289-1.833 9.374-.823 1.769-4.874 4.13-6.081 5.55-1.208 1.419-2.958 3.727-8.685 3.727-5.726 0-7.47-2.277-8.676-3.727-1.208-1.45-5.282-3.796-6.09-5.55-.505-1.085-1.599-8.449-1.833-9.375-.309-1.192-1.177-3.036-1.509-4.335a3.483 3.483 0 0 1-.135-.82v-1.92c.12-3.796 1.554-12.047 3.9-15.79 2.966-4.73 10.254-7.143 14.336-7.143 4.082 0 11.317 2.414 14.335 7.143 2.015 3.196 3.584 9.679 3.818 13.877.09 1.997.098 3.477.098 3.834Z" fill="url(#o)"/><path d="M76.017 87.892a32.81 32.81 0 0 1-1.245 3.325c-.415.759-5.319 4.904-5.319 4.904s4.3-3.553 4.791-4.965c.49-1.412.981-2.771.981-2.771l.792-.493Z" fill="#D17785" style="mix-blend-mode:multiply" opacity=".6"/><path d="M75.231 88.385s-2.467 6.741-8.79 5.375c-3.184-.691-2.135-6.87-2.135-6.87l10.925 1.495Z" fill="url(#p)"/><path d="M75.179 88.886c-.121.456-1.192.835-2.188 1.32-.408.206-1.223 1.36-2.106 1.8a2.597 2.597 0 0 1-2.973-.598 2.629 2.629 0 0 1-.558-.92c-1.463-3.47-2.142-2.855-3.017-3.66-.091-.88 10.842 2.058 10.842 2.058Z" fill="#8E255B"/><path d="M66.742 87.626a9.01 9.01 0 0 0 3.063.76c.99.075 1.987.027 2.966-.145 0 0-.302 3.492-2.498 3.742-2.195.25-2.844-1.958-3.53-4.357Z" fill="url(#q)"/><path d="M68.492 89.273a1.417 1.417 0 0 0 .889 1.284 1.395 1.395 0 0 0 1.52-.329 1.415 1.415 0 0 0-1.013-2.397 1.414 1.414 0 0 0-.994.431c-.261.27-.406.634-.402 1.011Z" fill="url(#r)"/><path style="mix-blend-mode:multiply" d="M69.352 89.273a.54.54 0 0 0 .535.54.534.534 0 0 0 .536-.54.54.54 0 0 0-.536-.539.534.534 0 0 0-.535.54Z" fill="url(#s)"/><path d="M62.758 85.288c.464.573.985 1.097 1.554 1.564.664.47 8.775 3.036 9.907 2.611a3.788 3.788 0 0 0 1.939-2.71c0-.623-8.126-4.63-9.658-4.464-1.531.167-3.772 2.073-3.742 2.999Z" fill="url(#t)"/><path d="M80.508 87.892a20.474 20.474 0 0 0 1.192 3.575c.445.676 3.878 4.183 3.878 4.183s-3.018-3.09-3.554-4.494c-.535-1.405-.92-2.55-.92-2.55l-.596-.714Z" fill="#D17785" style="mix-blend-mode:multiply" opacity=".6"/><path d="M81.086 88.606s2.528 6.718 8.835 5.314c3.176-.721 2-7.212 2-7.212l-10.835 1.898Z" fill="url(#u)"/><path d="M81.398 88.226c.144.478 1.313.865 2.4 1.366.445.205 1.35 1.405 2.316 1.853a2.852 2.852 0 0 0 3.204-.629c.27-.279.482-.61.621-.973 1.562-3.636 2.219-3.34 3.192-4.19.068-.942-11.733 2.573-11.733 2.573Z" fill="#8E255B"/><path d="M90.58 86.564a9.957 9.957 0 0 1-3.478.94 22.382 22.382 0 0 1-3.086 0s.37 3.645 2.753 3.88c2.385.235 3.086-2.338 3.81-4.82Z" fill="url(#v)"/><path d="M88.47 89.144a1.433 1.433 0 0 1-.848 1.345 1.41 1.41 0 0 1-1.557-.282 1.43 1.43 0 0 1-.33-1.556 1.426 1.426 0 0 1 1.847-.797 1.403 1.403 0 0 1 .772.752c.073.17.112.353.115.538Z" fill="url(#w)"/><path style="mix-blend-mode:multiply" d="M87.594 89.145a.532.532 0 0 1-.535.539.534.534 0 0 1-.543-.532.548.548 0 0 1 .54-.482.541.541 0 0 1 .538.482v-.007Z" fill="url(#x)"/><path d="M93.533 85.417a6.585 6.585 0 0 1-1.766 1.434c-.626.243-8.51 3.197-9.657 2.862-1.147-.334-1.962-2.064-1.97-2.687-.007-.622 8.081-4.714 9.613-4.555 1.531.16 3.795 2.02 3.78 2.946Z" fill="url(#y)"/><path d="M66.406 83.679c.687.265 7.945 4.752 8.134 5.314.188.561 2.361-1.465 2.316-2.278-.068-1.108-7.402-4.41-7.402-4.41l1.638 1.981a11.16 11.16 0 0 0-2.664-.706c-.852-.023-2.022.099-2.022.099Z" fill="#EAE6E4"/><path d="M69.53 78.403s-1.599 3.036-3.568 3.887c-1.97.85-4.406 2.201-4.406 2.201l1.765-2.277a6.683 6.683 0 0 0-2.492 2.523 6.735 6.735 0 0 0-.858 3.451c0 4.312-.392 6.59 0 6.392.393-.198 1.585-2.278 1.585-2.278s-1.177 4.244 1.607 4.988c.804.13 1.574.422 2.264.858a.788.788 0 0 0 1.056-.152s-.423.676.95 1.086c1.374.41 2.664 1.146 3.335.842.672-.303 1.245-1.776 1.245-1.776l11.008.106s.4 1.997 1.743 2.042c1.343.046 1.932-.243 2.513-1.328a6.101 6.101 0 0 0 .656-2.103s.106 2.687 1.102 2.566c.996-.122 2.339-1.078 2.361-1.761.023-.684 0-1.109 0-1.109s-.083 1.321 1.932.76c2.014-.562 1.773-4.016 1.773-4.016l-.883.652s.513-4.015-.4-6.073a18.645 18.645 0 0 0-2.784-4.137 4.58 4.58 0 0 0 .362 1.594c.294.486-2.512-2.065-2.716-2.831a19.034 19.034 0 0 0-1.177-2.604s.754-1.594 5.508.205c4.753 1.799 14.788-4.714 14.788-4.714s.483 4.645-1.471 5.739c-1.954 1.093-6.685 2.277-6.685 2.277a31.711 31.711 0 0 1 4.527 3.431c7.017 7.425 8.299 15.304 8.299 15.304s-7.937-2.277-8.835-3.598c1.426 4.358 5.01 4.418 7.198 8.533 2.852 5.352 9.997 17.331 9.997 17.331s-7.673-4.555-10.125-6.453c-2.452-1.898-3.644-1.875-3.644-1.875s9.665 17.088 10.419 20.884a24.17 24.17 0 0 1 .181 4.319 66.537 66.537 0 0 1-2.263 15.228c-3.961-8.244-12.895-13.747-12.895-13.747s-15.414 14.886-20.922 43.718c-21.344-29.811-23.39-43.718-23.39-43.718s-14.651 6.384-16.341 17.733c-1.819-2.536-4.588-14.272-4.988-19.229-.241-3.037 1.238-6.437 2.747-11.949 1.509-5.39 9.491-10.233 9.491-10.233s-5.281.873-7.703 3.705a56.904 56.904 0 0 1-5.802 6.073s2.86-9.003 4.859-13.179c2.346-4.911 12.449-14.75 12.449-14.75s-6.542 2.521-8.601 4.198c-2.06 1.678-1.743 3.257-1.743 3.257s-1.32-3.036.37-4.737c1.69-1.7 5.907-3.682 7.65-7.15 1.743-3.47 4.165-7.721 4.165-7.721a4.006 4.006 0 0 0-2.528.265c-1.109.615-4.527 2.134-4.527 2.134a41.605 41.605 0 0 0 4.64-6.073 33.73 33.73 0 0 1 4.007-5.314s-3.773-4.138-4.43-5.443a146.405 146.405 0 0 0-1.69-3.212s5.01 1.96 6.648 2.885c1.637.926 3.018 2.665 4.595 2.558 1.577-.106 5.342-3.271 8.073 1.815Z" fill="url(#z)"/><path d="M70.21 104.957s.906 3.796 8.202 3.796 8.3-3.796 8.3-3.796a56.022 56.022 0 0 1-8.541.66 38.225 38.225 0 0 1-7.96-.66Z" fill="#E5988A"/><path style="mix-blend-mode:multiply" opacity=".25" d="M71.656 106.977s3.094 3.924 6.398 3.924c3.305 0 7.115-3.795 7.115-3.795a16.568 16.568 0 0 1-6.956 1.586 12.822 12.822 0 0 1-6.557-1.715Z" fill="url(#A)"/><path style="mix-blend-mode:multiply" opacity=".25" d="M78.19 106.856s-1.358 2.915-6.836 5.465c-5.953 2.771-13.15 1.519-13.15 1.519s5.364-4.396 8.502-7.015c3.139-2.619 10.33-3.279 10.85-3.112.52.167 8.526-.334 12.072 2.816 3.546 3.15 9.107 7.591 9.107 7.591s-10.661-.394-14.577-2.361a16.933 16.933 0 0 1-5.968-4.903Z" fill="url(#B)"/><path d="M78.204 105.731a29.745 29.745 0 0 1-9.808 7.045 15.049 15.049 0 0 1-10.865.638s6.165-5.064 9.303-7.683c3.139-2.619 10.337-3.279 10.85-3.112.513.167 8.526-.334 12.072 2.816 3.546 3.151 9.106 8.51 9.106 8.51s-8.608-.759-12.524-2.733a49.826 49.826 0 0 1-8.134-5.481Z" fill="url(#C)"/><path d="M81.086 93.578c-1.644-1.29-.377-6.832-2.874-6.832-2.498 0-1.592 5.701-2.626 6.885-1.275 1.458-3.674.835-3.335 4.555.392.316.866.512 1.366.562 3.735-.084 2.414 2.869 4.625 2.869 2.21 0 1.584-3.469 4.595-2.87.641.138 1.365-.56 1.365-.56.03-2.885-1.139-3.052-3.116-4.609Z" fill="url(#D)"/><path style="mix-blend-mode:multiply" opacity=".7" d="M84.193 97.647s0 .607-.317.76c-.316.151-2.022-.44-2.663-.433-1.184 0-1.252 2.277-3.018 2.277-1.765 0-1.954-2.103-3.018-2.103-.641 0-2.316.365-2.618.25-.302-.113-.317-.758-.317-.758s0 2.277.528 2.717c.529.441 1.51.228 2.641 1.595 2.105 2.52 3.214 2.52 5.448 0a16.642 16.642 0 0 1 2.263-1.716c.573-.463 1.071-2.589 1.071-2.589Z" fill="url(#E)"/><path d="M62.09 77.356c3.063 2.588 9.302 4.706 15.79 4.987 6.49.281 13.854.137 15.03-1.214 1.178-1.352.197-5.087-.037-5.922s.49-4.258.596-4.774c.105-.517.679-2.597 0-3.22-.68-.622-.166-8.35.46-10.544.626-2.194 2.082-9.55 3.139-12.821 1.056-3.272 4.67-8.518 4.979-9.406.31-.888.906-1.518-.271-1.518S85.32 37.85 79.496 44.038c-6.587 6.999-14.011 20.77-14.011 22.227 0 1.457-2.717 5.678-3.396 7.546-.679 1.867-1.154 2.573 0 3.545Z" fill="url(#F)"/><path style="mix-blend-mode:multiply" opacity=".6" d="M62.095 77.356c3.063 2.588 9.303 4.706 15.791 4.987 6.489.28 13.853.137 15.03-1.215 1.177-1.35.196-5.086-.038-5.92-.234-.836.49-4.26.596-4.776.106-.516.68-2.596 0-3.219-.679-.622-.166-8.35.46-10.544.627-2.194 2.083-9.55 3.14-12.822 1.055-3.271 4.669-8.517 4.979-9.405.309-.888-8.677 11.478-9.922 19.107-.415 2.558-6.345 16.299-8.586 18.682-6.685 7.113-21.594 5.01-21.45 5.125Z" fill="url(#G)"/><path style="mix-blend-mode:screen" opacity=".6" d="M66.984 62.72s15.671-21.188 19.051-21.78c7.342-1.29 12.382-6.946 12.382-6.946a59.733 59.733 0 0 0-16.313 7.789c-7.009 4.85-15.12 20.937-15.12 20.937Z" fill="url(#H)"/><g opacity=".5"><path style="mix-blend-mode:multiply" opacity=".25" d="M117.668 141.282c.066-1.44.003-2.884-.188-4.312-.755-3.796-10.427-20.967-10.427-20.967s1.192 0 3.644 1.875 10.125 6.452 10.125 6.452-7.145-11.979-9.997-17.331c-1.207-2.277-2.852-3.317-4.316-4.555 1.871 5.96-.754 8.199-1.562 12.397-.701 3.75 4.527 12.678 2.264 17.718-.641 1.443-2.098 1.632-3.697 1.579-.37 0-3.244-12.146-3.622-12.146-.377 0 1.819 12.025 1.509 12.01-1.607-.076-3.063.053-3.659 1.427-4.821 11.098-10.646 20.42-17.806 20.496-5.53.069-10.2-3.522-14.124-8.707-.498-.653 1.69-16.982 1.215-17.688-.332-.486-3.328 14.651-3.645 14.135a73.07 73.07 0 0 1-3.84-7.06c-1.577-3.287-10.291 1.428-11.416-2.209-1.954-6.354 3.433-14.712 4.248-18.727-.701-4.859-4.316-3.743-.588-13.589-2.724 2.741-9.431 9.709-11.318 13.596-2 4.175-4.859 13.179-4.859 13.179a56.904 56.904 0 0 0 5.802-6.073c2.43-2.832 7.704-3.705 7.704-3.705s-8.013 4.843-9.492 10.233c-1.509 5.511-3.018 8.92-2.746 11.949.4 4.957 3.169 16.701 4.987 19.229 1.668-11.387 16.35-17.749 16.35-17.749s2.015 13.907 23.39 43.718c5.507-28.847 20.922-43.718 20.922-43.718s8.933 5.504 12.894 13.748a66.503 66.503 0 0 0 2.248-15.205Z" fill="url(#I)"/><path style="mix-blend-mode:multiply" opacity=".25" d="M112.474 102.049s-1.193-7.136-7.357-14.226a49.638 49.638 0 0 1 1.456 12.253c2.611 1.032 5.901 1.973 5.901 1.973Z" fill="url(#J)"/><path style="mix-blend-mode:multiply" opacity=".25" d="M50.581 96.538c-1.742 3.47-5.96 5.466-7.65 7.151-1.69 1.686-.37 4.737-.37 4.737s-.317-1.579 1.743-3.256c1.51-1.23 5.432-2.915 7.417-3.728a91.414 91.414 0 0 1 .068-7.242c-.415.782-.83 1.58-1.208 2.338Z" fill="url(#K)"/></g><path d="M89.199 83.785c-.626.258-7.326 4.684-7.5 5.23-.174.547-2.195-1.434-2.135-2.277.06-.843 5.825-4.07 5.825-4.07l-.513 1.679a9.887 9.887 0 0 1 2.467-.691c.777.015 1.856.129 1.856.129Z" fill="#EAE6E4"/><path d="M76.61 87.8s.852-.675.912-1.138a4.694 4.694 0 0 0-.588-1.64s.105.965.113 1.412a4.806 4.806 0 0 1-.438 1.367Zm3.217.023s-.853-.675-.913-1.138a4.67 4.67 0 0 1 .596-1.64s-.113.964-.113 1.412c.072.475.217.936.43 1.366Z" fill="#D17785" style="mix-blend-mode:multiply" opacity=".6"/><path opacity=".39" d="M137.599 35.246c-1.939-1.07-1.78-1.61-2.806-1.275-1.027.334-4.829-9.717-6.512-11.721-1.682-2.004-1.592-2.52-1.509-3.637.083-1.116-3.018-6.43-5.206-6.52-2.188-.092-4.851 3.036-6.368 3.795-1.516.76-4.157 3.598-5.085 1.405-.928-2.194 2.769-4.274 1.328-6.34-1.124-1.563-6.79-.887-7.258 0-.468.889-.808 1.686-1.871 1.269-1.064-.418-1.321-.866-1.162-1.458a6.72 6.72 0 0 0 .475-1.845c-.045-.523-3.184-3.651-4.255-3.84-1.072-.19-7.81 2.732-8.473 4.736-.944 2.908 4.187 11.334-9.854 8.214-5.636-1.26-5.681 6.392-5.99 7.424-.31 1.033-3.585 4.434-5.44 3.47-1.857-.965-2.264-1.572-1.66-2.445.603-.873 1.433-.47 1.44-2.33.008-1.86-5.59-5.656-6.51-4.555-.921 1.1-.423 2.216-2.068 1.108s-4.678-1.146-4.037-2.163c.642-1.018 10.292-6.476 10.692-8.161.4-1.685-8.3.045-12.133.888-3.833.843-7.28 7.143-7.696 8.419-.414 1.275-6.103 2.725-4.708 3.871 1.396 1.147-1.697 5.079-4.474 5.481-1.509.22-5.938-4.73-9.56-1.989-3.62 2.74 4.392-4.334-10.977 5.694a43.52 43.52 0 0 1 19.39-3.105c4-.137 4.452-.76 5.561-1.382 1.11-.622 16.727-4.714 18.417-4.25 1.69.462 4.21 16.207 13.694 13.664 3.87-1.033.83 3.287 1.917 3.036 1.086-.25 9.476 5.314 9.755 4.168 1.788-7.182 5.237-3.887 5.855-4.168.619-.28 3.448-9.367 3.35-10.415-.098-1.048-4.648-2.809-4.678-3.705-.03-.895-7.545 2.012-5.387-1.343 1.871-2.885 12.14-15.1 15.166-13.05 3.025 2.05 3.41 3.986 4.074 4.259.664.273 1.509-2.179 2.437-1.351.928.827.641 2.064 3.071 3.15 2.429 1.086 6.209 1.329 7.386.478 1.177-.85 5.025-1.791 6.142-.85 1.116.941 3.855.714 3.772 1.981-.083 1.268.144 3.432 1.351 3.553 1.207.122-1.17 5.504.4 5.974 2.376.706 5.372 5.276 7.816 5.216a3.86 3.86 0 0 1 2.188.645Z" fill="url(#L)"/><path opacity=".46" d="M137.168 34.426c-1.841-.926-1.698-1.389-2.664-1.108-.965.28-4.594-8.35-6.186-10.12-1.592-1.768-1.509-2.17-1.509-3.134 0-.965-3.524-3.037-5.629-3.105a11.929 11.929 0 0 0-5.281.69c-1.426.653-3.954 1.648-4.837-.242-.882-1.89-.626-3.796-1.131-3.796-.506 0-4.052-.926-4.459-.175-.408.752-.755 1.45-1.766 1.094-1.011-.357-1.245-.76-1.102-1.268a5.156 5.156 0 0 0 .446-1.587c-.046-.448-4.03-3.165-5.04-3.332-1.011-.167-2.46.994-4.437.918-1.977-.076-1.509 8.495-14.516 12.1-4.64 1.291-.755 4.768-1.019 5.656-.264.888-5.281 2.62-7.024 1.784-1.743-.835-2.12-1.366-1.577-2.118.543-.751 1.35-.395 1.35-1.996 0-1.602-5.281-4.89-6.164-3.963-.883.926-.392 1.913-1.954.949-1.562-.964-4.421-1.002-3.818-1.875.604-.873 2.264-.258 2.618-1.708.355-1.45-3.772-6.187-7.34-5.473-3.57.713-9.138 5.382-9.515 6.482-.377 1.101-.815 1.17-.566 1.435.249.266 3.531-1.237 4.859-.243 1.328.995 1.268 2.278 1.2 1.86-.068-.417-2.754-3.287-6.165-.933-3.41 2.353.212 2.383.89 4.721.68 2.338-14.26 2.073-14.26 2.073s-2.051-2.688-13.369 4.266c3.26-1.26 10.639-1.769 23.254-3.932 6.579-1.131 19.383-2.278 19.564-2.475-3.184 3.037 5.65 10.499 7.25 10.901 1.6.402 6.632-2.277 7.478-2.171.845.106 8.57 4.555 9.597 4.342 1.026-.212 1.758.76 2.135-.174.377-.934 2.022-5.254 2.61-5.489.589-.235-.06-1.8-.158-2.702-.098-.904-.89.098-.928-.676-.038-.774-3.772-1.351-1.713-4.236 1.758-2.482 11.423-12.974 14.29-11.197 2.867 1.776 3.23 3.439 3.856 3.682.626.242 1.433-1.875 2.263-1.154.83.72.611 1.776 2.92 2.725 2.309.949 5.863 1.162 6.979.433 1.117-.73 4.995-2.278 6.036-1.435 1.041.843 3.388 1.351 3.35 2.444-.037 1.093.144 2.953 1.283 3.037 1.139.083 0 4.312 1.509 4.722 2.263.622 3.984 4.987 6.3 4.942a3.92 3.92 0 0 1 2.09.561Z" fill="url(#M)"/><path style="mix-blend-mode:screen" opacity=".5" d="M99.896 12.473c-4.18-4.1-12.072 7.652-13.219 8.494-1.147.843-8.594 1.374-8.7 2.893-.105 1.518.597 2.277 1.947 3.241 1.351.964 3.977 4.456 2.701 4.7-1.275.242-2.58 2.277-3.772-.054-1.192-2.33-2.339-3.037-3.274-3.12-.936-.083-4.852.448-5.093-.584-.242-1.033-1.245-2.156.045-3.333s1.222-2.277.287-2.558c-.936-.281-3.773-3.037-4.467-2.46-.694.577-.966 1.959-2.573 1.336-1.607-.622-4.92-.577-3.885-1.518 1.033-.942 2.06-1.518 1.9-2.376-.157-.858-3.915-6.073-7.038-5.42-3.124.652-9.952 6.687-10.028 7.652-.075.964-.34 1.92.687 1.29 1.026-.63 4.451-2.65 6.579.13 1.343 1.753-4.723 3.795-6.157 4.273 3.773-1.336 9.424-1.974 9.5-3.036.075-1.063-3.856-2.354-5.282-3.143-1.426-.79-3.773.941-3.493.114.279-.828 7.703-5.367 9.68-5.314 1.977.053 5.832 3.036 5.183 3.712-.649.675-6.594 2.156-4.444 3.143 2.15.986 5.063.523 6.142.82a5.287 5.287 0 0 0 3.018 0c.898-.281 4.014.227 4.233.926.218.698-.755 2.9-.755 3.636 0 .736-.272 3.62.905 3.795 1.178.175 4.03-.971 4.89-.759.86.213 1.614 3.037 1.946 4.16.332 1.124 2.935-.242 4.527-.159 1.592.084 2.596 1.253 2.49-.228-.106-1.48-1.585-1.693-1.509-2.786.075-1.093-3.848-4.38-3.358-5.496.49-1.116 3.019 1.367 4.27 0 1.253-1.366.499-2.74 3.245-2.77 2.747-.031 2.264-2.688 3.222-3.918 6.3-7.986 9.65-5.283 9.65-5.283Z" fill="url(#N)"/><g style="mix-blend-mode:screen" opacity=".56"><mask id="O" style="mask-type:luminance" maskUnits="userSpaceOnUse" x="15" y="2" width="123" height="51"><path d="M76.998 51.37c-32.156 3.568-59.47-2.93-61.114-14.104-2.422-16.8 23.404-30.108 55.576-33.698s66.034 7.819 66.169 26.478c.076 13.255-28.444 17.764-60.63 21.324Z" fill="#fff"/></mask><g mask="url(#O)"><path d="M137.696 0H13.453v54.938h124.243V0Z" fill="#000"/><path d="M79.082 47.468c31.22-.406 56.411-9.959 56.265-21.336-.146-11.378-25.574-20.272-56.794-19.867-31.22.406-56.411 9.958-56.265 21.336.146 11.378 25.573 20.272 56.794 19.867Z" fill="#000"/><path d="M79.08 47.385c31.095-.405 56.185-9.918 56.04-21.25-.146-11.331-25.471-20.19-56.567-19.786-31.095.404-56.185 9.918-56.04 21.25.146 11.331 25.472 20.19 56.567 19.786Z" fill="#000"/><path d="M79.086 47.308c30.971-.402 55.96-9.88 55.815-21.17-.145-11.29-25.369-20.116-56.34-19.713-30.97.402-55.96 9.88-55.814 21.17.145 11.29 25.369 20.115 56.34 19.713Z" fill="#000"/><path d="M79.084 47.225c30.85-.401 55.741-9.84 55.597-21.084-.145-11.244-25.27-20.033-56.12-19.633-30.85.401-55.74 9.841-55.597 21.085.145 11.243 25.27 20.033 56.12 19.632Z" fill="#000"/><path d="M79.082 47.142c30.725-.4 55.515-9.8 55.372-20.998-.144-11.197-25.168-19.95-55.893-19.552-30.724.4-55.515 9.8-55.371 20.998.144 11.198 25.168 19.951 55.892 19.552Z" fill="#000"/><path d="M79.08 47.065c30.604-.398 55.297-9.763 55.154-20.919-.143-11.155-25.069-19.876-55.673-19.478-30.603.397-55.297 9.763-55.153 20.919.143 11.155 25.068 19.876 55.672 19.478Z" fill="#000"/><path d="M79.078 46.982c30.479-.396 55.071-9.723 54.929-20.832-.143-11.11-24.967-19.795-55.445-19.398-30.48.396-55.071 9.723-54.929 20.832.143 11.11 24.966 19.794 55.445 19.398Z" fill="#000"/><path d="M79.076 46.898c30.354-.394 54.846-9.683 54.703-20.746-.142-11.063-24.863-19.712-55.217-19.317-30.354.394-54.845 9.682-54.703 20.746C24 38.644 48.722 47.293 79.076 46.898Z" fill="#000100"/><path d="M79.074 46.815c30.233-.393 54.627-9.642 54.486-20.66-.142-11.017-24.765-19.63-54.998-19.237-30.233.393-54.627 9.643-54.486 20.66.142 11.017 24.765 19.63 54.998 19.237Z" fill="#000100"/><path d="M79.072 46.74c30.108-.392 54.401-9.606 54.261-20.581-.141-10.976-24.663-19.556-54.77-19.164-30.109.39-54.402 9.605-54.261 20.58.14 10.976 24.662 19.556 54.77 19.164Z" fill="#010100"/><path d="M79.078 46.655c29.987-.39 54.183-9.565 54.042-20.494-.14-10.93-24.563-19.473-54.55-19.083-29.987.39-54.183 9.565-54.042 20.494.14 10.93 24.563 19.473 54.55 19.083Z" fill="#010100"/><path d="M79.076 46.572c29.862-.388 53.957-9.525 53.817-20.408-.139-10.883-24.461-19.39-54.323-19.002-29.862.388-53.957 9.525-53.817 20.408.14 10.883 24.461 19.39 54.323 19.002Z" fill="#010100"/><path d="M79.074 46.488c29.737-.386 53.731-9.484 53.592-20.321-.139-10.837-24.358-19.309-54.096-18.922-29.737.386-53.73 9.484-53.591 20.321.139 10.837 24.358 19.309 54.095 18.922Z" fill="#010200"/><path d="M79.072 46.413c29.616-.385 53.513-9.448 53.374-20.243-.138-10.795-24.259-19.234-53.876-18.85-29.616.386-53.512 9.449-53.374 20.244.139 10.794 24.26 19.233 53.876 18.849Z" fill="#010200"/><path d="M79.07 46.33c29.492-.384 53.287-9.408 53.149-20.157-.138-10.749-24.157-19.152-53.648-18.768-29.492.383-53.287 9.407-53.15 20.156.139 10.749 24.158 19.152 53.65 18.769Z" fill="#010201"/><path d="M79.068 46.246c29.367-.382 53.061-9.368 52.924-20.07-.137-10.703-24.055-19.07-53.421-18.688-29.366.381-53.061 9.367-52.924 20.07.138 10.702 24.055 19.07 53.421 18.688Z" fill="#010201"/><path d="M79.066 46.17c29.246-.38 52.843-9.33 52.706-19.991-.137-10.661-23.956-18.995-53.201-18.615-29.246.38-52.843 9.33-52.706 19.991.137 10.66 23.956 18.995 53.201 18.615Z" fill="#020201"/><path d="M79.064 46.086c29.121-.378 52.617-9.29 52.481-19.905-.136-10.615-23.854-18.913-52.974-18.534-29.12.378-52.617 9.29-52.48 19.905.136 10.614 23.853 18.912 52.973 18.534Z" fill="#020301"/><path d="M79.062 46.003c29-.377 52.399-9.25 52.263-19.819-.136-10.568-23.754-18.83-52.754-18.453-29 .377-52.398 9.25-52.263 19.818.136 10.569 23.755 18.83 52.754 18.454Z" fill="#020301"/><path d="M79.068 45.919c28.875-.375 52.173-9.21 52.038-19.732-.135-10.523-23.652-18.749-52.527-18.373-28.875.375-52.173 9.21-52.037 19.732.134 10.522 23.652 18.748 52.526 18.373Z" fill="#020301"/><path d="M79.067 45.843c28.749-.373 51.946-9.172 51.812-19.653-.135-10.48-23.55-18.674-52.3-18.3-28.75.374-51.946 9.173-51.812 19.653.135 10.48 23.55 18.674 52.3 18.3Z" fill="#020401"/><path d="M79.064 45.76c28.629-.372 51.729-9.132 51.595-19.567-.134-10.434-23.451-18.591-52.08-18.22-28.629.373-51.728 9.133-51.594 19.568.134 10.434 23.45 18.591 52.08 18.22Z" fill="#020401"/><path d="M78.786 46.058c28.506-.286 51.531-8.941 51.428-19.33-.103-10.39-23.296-18.58-51.802-18.292-28.506.287-51.531 8.941-51.428 19.33.103 10.39 23.296 18.58 51.802 18.292Z" fill="#030401"/><path d="M79.06 45.593c28.383-.369 51.284-9.052 51.152-19.394-.133-10.342-23.25-18.427-51.633-18.058-28.383.369-51.284 9.052-51.151 19.394.133 10.342 23.25 18.427 51.632 18.058Z" fill="#030501"/><path d="M79.058 45.517c28.258-.368 51.059-9.015 50.927-19.316-.133-10.3-23.147-18.352-51.405-17.985-28.258.367-51.059 9.015-50.926 19.315.132 10.3 23.146 18.353 51.404 17.986Z" fill="#030501"/><path d="M79.057 45.434c28.133-.366 50.832-8.975 50.7-19.23-.131-10.253-23.044-18.27-51.177-17.904-28.133.366-50.833 8.974-50.701 19.229.132 10.254 23.045 18.27 51.178 17.905Z" fill="#030501"/><path d="M79.054 45.35c28.013-.364 50.615-8.934 50.484-19.142C129.407 16 106.592 8.02 78.58 8.384c-28.012.364-50.614 8.934-50.483 19.142.13 10.208 22.945 18.188 50.957 17.824Z" fill="#030602"/><path d="M79.06 45.274c27.888-.363 50.389-8.898 50.258-19.064-.13-10.166-22.843-18.113-50.73-17.751C50.7 8.821 28.2 17.357 28.33 27.523c.13 10.166 22.843 18.113 50.73 17.75Z" fill="#040602"/><path d="M79.059 45.19c27.762-.36 50.162-8.856 50.032-18.976-.13-10.12-22.741-18.032-50.503-17.671-27.762.36-50.162 8.857-50.032 18.977.13 10.12 22.74 18.032 50.503 17.67Z" fill="#040602"/><path d="M79.056 45.107c27.642-.36 49.945-8.817 49.815-18.891-.129-10.074-22.642-17.95-50.283-17.59-27.641.36-49.944 8.817-49.815 18.89.13 10.075 22.642 17.95 50.283 17.59Z" fill="#040702"/><path d="M79.055 45.024c27.516-.358 49.718-8.777 49.589-18.805-.129-10.027-22.539-17.867-50.056-17.51-27.516.359-49.718 8.777-49.59 18.805.13 10.028 22.54 17.867 50.056 17.51Z" fill="#040702"/><path d="M79.052 44.948c27.396-.356 49.501-8.74 49.372-18.726-.128-9.986-22.44-17.792-49.836-17.436-27.395.356-49.5 8.74-49.371 18.726.128 9.986 22.44 17.792 49.835 17.436Z" fill="#050702"/><path d="M79.05 44.864c27.271-.354 49.275-8.7 49.147-18.64-.127-9.939-22.338-17.71-49.609-17.355-27.27.354-49.274 8.7-49.146 18.64.128 9.939 22.338 17.71 49.609 17.355Z" fill="#050802"/><path d="M79.049 44.781c27.145-.353 49.048-8.66 48.921-18.553-.127-9.893-22.236-17.628-49.381-17.275-27.146.353-49.048 8.66-48.921 18.553.127 9.893 22.235 17.628 49.38 17.275Z" fill="#050802"/><path d="M79.046 44.697c27.025-.351 48.831-8.619 48.704-18.466-.126-9.848-22.137-17.546-49.161-17.195-27.025.351-48.83 8.619-48.704 18.466.127 9.848 22.137 17.546 49.161 17.195Z" fill="#050902"/><path d="M79.045 44.621c26.899-.35 48.604-8.582 48.478-18.387-.126-9.806-22.034-17.471-48.934-17.122-26.9.35-48.604 8.582-48.478 18.388.126 9.805 22.034 17.47 48.934 17.121Z" fill="#060903"/><path d="M79.05 44.538c26.779-.348 48.386-8.541 48.261-18.301-.125-9.76-21.935-17.389-48.714-17.04-26.78.347-48.386 8.54-48.26 18.3.125 9.76 21.935 17.39 48.713 17.041Z" fill="#060A03"/><path d="M79.049 44.454c26.653-.346 48.159-8.501 48.035-18.215-.125-9.713-21.833-17.306-48.487-16.96-26.654.346-48.16 8.502-48.035 18.215.124 9.713 21.833 17.307 48.487 16.96Z" fill="#060A03"/><path d="M79.047 44.379c26.529-.345 47.934-8.465 47.81-18.136-.124-9.672-21.731-17.232-48.26-16.888-26.529.345-47.934 8.465-47.81 18.136.125 9.672 21.731 17.232 48.26 16.888Z" fill="#060B03"/><path d="M79.045 44.295c26.408-.344 47.715-8.425 47.592-18.05-.124-9.625-21.632-17.15-48.04-16.807-26.408.343-47.716 8.424-47.592 18.05.123 9.625 21.632 17.15 48.04 16.807Z" fill="#070B03"/><path d="M79.043 44.212c26.283-.342 47.49-8.384 47.367-17.964-.123-9.579-21.53-17.067-47.813-16.726-26.283.342-47.49 8.384-47.366 17.963.122 9.58 21.529 17.068 47.812 16.727Z" fill="#070B03"/><path d="M79.04 44.128c26.159-.34 47.265-8.344 47.142-17.877-.122-9.533-21.426-16.986-47.584-16.646-26.158.34-47.264 8.344-47.142 17.877.122 9.533 21.427 16.986 47.585 16.646Z" fill="#070C03"/><path d="M79.039 44.052c26.037-.338 47.046-8.307 46.924-17.798-.122-9.491-21.328-16.911-47.365-16.573-26.038.339-47.046 8.307-46.924 17.798.122 9.491 21.328 16.911 47.365 16.573Z" fill="#080C04"/><path d="M79.037 43.969c25.912-.337 46.82-8.267 46.699-17.712-.122-9.445-21.226-16.828-47.138-16.492-25.912.337-46.82 8.267-46.699 17.712.121 9.445 21.226 16.829 47.138 16.492Z" fill="#080D04"/><path d="M79.043 43.885c25.791-.335 46.601-8.227 46.48-17.625-.12-9.4-21.126-16.747-46.917-16.412-25.792.335-46.602 8.226-46.481 17.625.12 9.4 21.126 16.747 46.918 16.412Z" fill="#080D04"/><path d="M79.04 43.802c25.667-.334 46.376-8.186 46.256-17.539-.12-9.353-21.024-16.664-46.69-16.33-25.666.333-46.376 8.185-46.256 17.538.12 9.353 21.024 16.664 46.69 16.33Z" fill="#090E04"/><path d="M79.039 43.725c25.541-.332 46.15-8.149 46.03-17.46-.119-9.31-20.922-16.59-46.463-16.258-25.541.332-46.15 8.15-46.03 17.46.12 9.311 20.922 16.59 46.463 16.258Z" fill="#090F04"/><path d="M79.037 43.642c25.42-.33 45.931-8.109 45.812-17.374-.119-9.264-20.822-16.507-46.243-16.177-25.42.33-45.931 8.109-45.812 17.374.118 9.265 20.822 16.507 46.243 16.177Z" fill="#090F04"/><path d="M79.035 43.56c25.295-.33 45.705-8.07 45.587-17.288-.118-9.219-20.72-16.425-46.016-16.097-25.295.329-45.705 8.069-45.587 17.287.118 9.22 20.72 16.426 46.016 16.097Z" fill="#0A1004"/><path d="M79.033 43.482c25.175-.327 45.487-8.031 45.369-17.208-.117-9.177-20.621-16.35-45.796-16.024-25.174.328-45.487 8.032-45.37 17.209.119 9.177 20.622 16.35 45.797 16.023Z" fill="#0A1005"/><path d="M79.03 43.4c25.051-.326 45.262-7.992 45.145-17.122-.117-9.131-20.519-16.27-45.569-15.944-25.05.326-45.261 7.992-45.144 17.122.117 9.131 20.52 16.269 45.569 15.943Z" fill="#0A1105"/><path d="M79.029 43.315c24.925-.323 45.036-7.95 44.919-17.035-.117-9.085-20.417-16.186-45.341-15.863-24.925.324-45.036 7.951-44.92 17.036.117 9.084 20.417 16.186 45.342 15.862Z" fill="#0B1105"/><path d="M79.027 43.232c24.804-.322 44.817-7.91 44.701-16.949-.116-9.038-20.317-16.104-45.121-15.782-24.804.323-44.818 7.911-44.702 16.95.116 9.038 20.318 16.104 45.122 15.781Z" fill="#0B1205"/><path d="M79.033 43.157c24.679-.321 44.591-7.874 44.476-16.87-.116-8.997-20.215-16.03-44.894-15.71-24.68.321-44.592 7.874-44.476 16.87.115 8.997 20.215 16.03 44.894 15.71Z" fill="#0B1205"/><path d="M79.031 43.073c24.554-.32 44.366-7.834 44.251-16.784-.115-8.95-20.113-15.948-44.667-15.629-24.554.32-44.366 7.834-44.25 16.784.114 8.95 20.112 15.948 44.666 15.629Z" fill="#0C1305"/><path d="M79.029 42.99c24.433-.318 44.147-7.794 44.033-16.698-.115-8.904-20.014-15.865-44.447-15.548-24.433.318-44.147 7.794-44.033 16.698.114 8.904 20.014 15.865 44.447 15.548Z" fill="#0C1406"/><path d="M79.027 42.906c24.308-.316 43.921-7.753 43.808-16.611-.114-8.859-19.912-15.784-44.22-15.468-24.308.316-43.921 7.753-43.807 16.611.113 8.859 19.91 15.784 44.219 15.468Z" fill="#0C1406"/><path d="M79.025 42.83c24.187-.314 43.703-7.716 43.59-16.532-.113-8.817-19.813-15.709-44-15.394-24.187.314-43.703 7.716-43.59 16.532.113 8.816 19.813 15.708 44 15.394Z" fill="#0D1506"/><path d="M79.023 42.746c24.062-.313 43.477-7.676 43.365-16.446-.113-8.77-19.71-15.626-43.773-15.314-24.062.313-43.477 7.676-43.364 16.446.112 8.77 19.71 15.627 43.772 15.314Z" fill="#0D1506"/><path d="M79.021 42.663c23.937-.311 43.251-7.635 43.139-16.36-.112-8.724-19.607-15.544-43.544-15.233-23.938.312-43.252 7.636-43.14 16.36.112 8.724 19.608 15.544 43.545 15.233Z" fill="#0E1606"/><path d="M79.02 42.587c23.816-.31 43.032-7.598 42.921-16.28-.112-8.683-19.509-15.47-43.326-15.16-23.816.31-43.032 7.598-42.921 16.28.111 8.682 19.509 15.47 43.325 15.16Z" fill="#0E1706"/><path d="M79.025 42.503c23.691-.308 42.807-7.558 42.696-16.194-.111-8.636-19.406-15.387-43.097-15.08-23.692.309-42.808 7.559-42.697 16.195.111 8.636 19.407 15.387 43.098 15.08Z" fill="#0E1707"/><path d="M79.023 42.42c23.57-.306 42.589-7.518 42.478-16.108-.11-8.59-19.307-15.305-42.877-14.999-23.571.307-42.59 7.519-42.479 16.109.11 8.59 19.307 15.304 42.878 14.998Z" fill="#0F1807"/><path d="M79.021 42.336c23.446-.304 42.363-7.478 42.253-16.021-.109-8.544-19.205-15.223-42.65-14.918-23.446.304-42.363 7.477-42.253 16.021.11 8.544 19.204 15.223 42.65 14.918Z" fill="#0F1907"/><path d="M79.02 42.26c23.32-.302 42.136-7.44 42.027-15.942-.109-8.502-19.102-15.148-42.423-14.845-23.32.303-42.137 7.44-42.028 15.942.11 8.502 19.103 15.149 42.423 14.846Z" fill="#101907"/><path d="M79.017 42.177c23.2-.301 41.919-7.4 41.81-15.856-.108-8.456-19.003-15.066-42.203-14.764-23.2.301-41.919 7.4-41.81 15.856.108 8.456 19.003 15.066 42.203 14.764Z" fill="#101A07"/><path d="M79.015 42.093c23.075-.3 41.693-7.36 41.585-15.77-.108-8.409-18.901-14.983-41.976-14.683-23.074.3-41.693 7.36-41.585 15.77.108 8.41 18.901 14.983 41.976 14.683Z" fill="#101B08"/><path d="M79.013 42.01c22.95-.298 41.467-7.32 41.36-15.683-.107-8.363-18.799-14.902-41.749-14.603-22.95.298-41.467 7.32-41.36 15.683.108 8.363 18.8 14.902 41.75 14.603Z" fill="#111B08"/><path d="M79.011 41.934c22.829-.297 41.249-7.283 41.142-15.605-.107-8.322-18.7-14.827-41.529-14.53-22.828.296-41.248 7.283-41.141 15.604.106 8.322 18.7 14.827 41.528 14.53Z" fill="#111C08"/><path d="M79.01 41.85c22.703-.294 41.022-7.242 40.916-15.518-.106-8.275-18.597-14.744-41.301-14.45-22.704.296-41.023 7.244-40.917 15.519.106 8.275 18.598 14.745 41.301 14.45Z" fill="#121D08"/><path d="M79.015 41.768c22.583-.294 40.805-7.203 40.699-15.432-.106-8.23-18.499-14.663-41.082-14.37-22.583.294-40.804 7.203-40.699 15.432.106 8.23 18.499 14.663 41.082 14.37Z" fill="#121D08"/><path d="M79.013 41.691c22.458-.292 40.579-7.166 40.474-15.353-.105-8.187-18.396-14.588-40.854-14.296-22.458.292-40.579 7.165-40.474 15.353.105 8.187 18.396 14.588 40.854 14.296Z" fill="#131E09"/><path d="M79.011 41.608c22.333-.29 40.353-7.125 40.249-15.267-.105-8.14-18.294-14.505-40.627-14.215-22.333.29-40.353 7.125-40.248 15.266.104 8.142 18.293 14.506 40.626 14.216Z" fill="#131F09"/><path d="M79.01 41.524c22.211-.289 40.134-7.085 40.03-15.18-.104-8.096-18.195-14.424-40.407-14.135-22.212.288-40.135 7.085-40.03 15.18.103 8.095 18.194 14.424 40.406 14.135Z" fill="#132009"/><path d="M79.007 41.441c22.087-.287 39.909-7.045 39.806-15.094-.104-8.049-18.093-14.341-40.18-14.054-22.087.287-39.909 7.044-39.805 15.094.103 8.049 18.092 14.341 40.18 14.054Z" fill="#142009"/><path d="M79.005 41.365c21.967-.285 39.691-7.008 39.588-15.015-.103-8.007-17.994-14.267-39.96-13.981-21.966.285-39.69 7.008-39.587 15.015.102 8.007 17.993 14.267 39.96 13.981Z" fill="#142109"/><path d="M79.003 41.281c21.842-.284 39.465-6.967 39.363-14.928-.103-7.961-17.891-14.185-39.733-13.901-21.841.284-39.464 6.967-39.362 14.929.102 7.96 17.891 14.184 39.732 13.9Z" fill="#15220A"/><path d="M78.742 41.58c21.718-.219 39.261-6.813 39.182-14.728-.079-7.916-17.749-14.156-39.467-13.937-21.718.218-39.26 6.812-39.182 14.728.079 7.916 17.749 14.155 39.467 13.937Z" fill="#15230A"/><path d="M79.007 41.114c21.596-.28 39.02-6.887 38.919-14.756-.101-7.868-17.689-14.02-39.285-13.74-21.595.281-39.02 6.888-38.919 14.757.101 7.868 17.69 14.02 39.285 13.74Z" fill="#16230A"/><path d="M79.005 41.039c21.471-.28 38.795-6.85 38.694-14.677-.1-7.827-17.587-13.946-39.058-13.667-21.47.279-38.794 6.85-38.693 14.677.1 7.827 17.587 13.946 39.057 13.667Z" fill="#16240A"/><path d="M79.004 40.955c21.345-.278 38.568-6.81 38.468-14.591-.1-7.78-17.485-13.863-38.83-13.586-21.346.277-38.569 6.81-38.469 14.59.1 7.781 17.485 13.864 38.83 13.587Z" fill="#17250A"/><path d="M79.001 40.871c21.225-.275 38.351-6.77 38.251-14.504-.099-7.734-17.385-13.78-38.61-13.505-21.225.276-38.35 6.77-38.251 14.504.099 7.735 17.386 13.781 38.61 13.505Z" fill="#17260B"/><path d="M79 40.796c21.099-.274 38.124-6.733 38.025-14.425-.099-7.693-17.283-13.707-38.383-13.433-21.1.274-38.124 6.733-38.026 14.425C40.716 35.056 57.9 41.07 79 40.796Z" fill="#18260B"/><path d="M78.997 40.712c20.98-.273 37.906-6.693 37.808-14.34-.098-7.646-17.184-13.624-38.163-13.351-20.979.273-37.906 6.692-37.808 14.339.098 7.647 17.184 13.624 38.163 13.352Z" fill="#18270B"/><path d="M78.731 41.01c20.856-.21 37.702-6.541 37.626-14.143-.075-7.6-17.044-13.593-37.9-13.383-20.855.21-37.7 6.542-37.625 14.143.076 7.601 17.044 13.593 37.9 13.383Z" fill="#19280B"/><path d="M78.994 40.545c20.728-.27 37.454-6.612 37.357-14.166-.097-7.555-16.98-13.46-37.709-13.191-20.728.27-37.454 6.612-37.357 14.166.097 7.554 16.98 13.46 37.709 13.19Z" fill="#19290C"/><path d="M78.992 40.47c20.608-.269 37.236-6.576 37.139-14.088-.096-7.513-16.88-13.386-37.489-13.118-20.608.268-37.236 6.575-37.14 14.088.097 7.512 16.881 13.385 37.49 13.117Z" fill="#1A2A0C"/><path d="M78.998 40.386c20.483-.266 37.01-6.535 36.914-14-.096-7.467-16.779-13.304-37.262-13.038S41.64 19.883 41.736 27.35c.096 7.466 16.778 13.303 37.262 13.037Z" fill="#1A2A0C"/><path d="M78.995 40.302c20.362-.265 36.792-6.494 36.697-13.915-.095-7.42-16.68-13.22-37.042-12.956-20.362.265-36.792 6.494-36.696 13.915.095 7.42 16.68 13.22 37.041 12.956Z" fill="#1B2B0C"/><path d="M78.993 40.219c20.238-.263 36.566-6.454 36.472-13.828-.095-7.374-16.577-13.139-36.814-12.876-20.238.263-36.566 6.454-36.472 13.828.095 7.374 16.577 13.139 36.814 12.876Z" fill="#1B2C0D"/><path d="M78.992 40.142c20.112-.261 36.34-6.417 36.246-13.749-.094-7.332-16.475-13.064-36.587-12.803-20.112.262-36.34 6.417-36.246 13.75.094 7.332 16.474 13.064 36.587 12.802Z" fill="#1C2D0D"/><path d="M78.99 40.06c19.99-.26 36.121-6.378 36.028-13.664-.094-7.286-16.376-12.982-36.367-12.722-19.992.26-36.122 6.377-36.028 13.663.093 7.286 16.375 12.982 36.367 12.722Z" fill="#1C2E0D"/><path d="M78.988 39.975c19.866-.258 35.896-6.336 35.803-13.576-.093-7.24-16.274-12.9-36.14-12.642-19.866.258-35.896 6.337-35.803 13.577.093 7.24 16.273 12.9 36.14 12.641Z" fill="#1D2F0D"/><path d="M78.986 39.9c19.741-.257 35.67-6.3 35.578-13.498-.093-7.198-16.171-12.825-35.913-12.569-19.741.257-35.67 6.3-35.577 13.498.092 7.198 16.17 12.825 35.912 12.569Z" fill="#1D2F0D"/><path d="M78.984 39.817c19.62-.255 35.451-6.26 35.36-13.412-.092-7.152-16.072-12.743-35.693-12.488-19.62.255-35.452 6.26-35.36 13.412.092 7.151 16.072 12.743 35.693 12.488Z" fill="#1E300E"/><path d="M78.982 39.733c19.495-.254 35.226-6.22 35.134-13.325-.091-7.106-15.969-12.661-35.465-12.408-19.495.254-35.225 6.22-35.134 13.325.09 7.106 15.97 12.661 35.465 12.408Z" fill="#1E310E"/><path d="M78.987 39.65c19.375-.252 35.008-6.18 34.917-13.24-.09-7.059-15.87-12.578-35.245-12.326-19.375.252-35.007 6.179-34.917 13.239.09 7.06 15.87 12.578 35.245 12.327Z" fill="#1F320E"/><path d="M78.986 39.574c19.25-.25 34.781-6.142 34.691-13.16-.09-7.018-15.768-12.504-35.018-12.254s-34.781 6.142-34.691 13.16c.09 7.018 15.768 12.504 35.018 12.254Z" fill="#1F330E"/><path d="M78.984 39.49c19.125-.249 34.556-6.102 34.466-13.073-.089-6.972-15.666-12.422-34.79-12.174-19.125.249-34.556 6.102-34.467 13.074.09 6.971 15.666 12.422 34.79 12.173Z" fill="#20340F"/><path d="M78.982 39.407c19.004-.247 34.337-6.062 34.248-12.987-.089-6.926-15.566-12.34-34.57-12.093-19.004.247-34.338 6.062-34.249 12.987.089 6.926 15.567 12.34 34.57 12.093Z" fill="#20350F"/><path d="M78.98 39.323c18.879-.245 34.111-6.021 34.023-12.9-.088-6.88-15.464-12.258-34.343-12.013-18.879.246-34.112 6.021-34.023 12.9.088 6.88 15.464 12.258 34.343 12.013Z" fill="#21360F"/><path d="M78.978 39.247c18.758-.244 33.893-5.984 33.805-12.822-.087-6.837-15.365-12.182-34.123-11.939-18.758.244-33.893 5.985-33.806 12.822.088 6.838 15.366 12.183 34.124 11.94Z" fill="#22360F"/><path d="M78.976 39.163c18.633-.242 33.667-5.944 33.58-12.735-.087-6.792-15.263-12.1-33.896-11.859-18.633.242-33.667 5.944-33.58 12.736.087 6.791 15.263 12.1 33.896 11.858Z" fill="#223710"/><path d="M78.974 39.08c18.508-.24 33.442-5.904 33.355-12.649-.087-6.745-15.16-12.018-33.669-11.778-18.508.24-33.441 5.904-33.355 12.65.087 6.744 15.16 12.018 33.669 11.777Z" fill="#233810"/><path d="M78.717 39.378c18.389-.185 33.242-5.766 33.175-12.466-.067-6.7-15.028-11.98-33.416-11.796-18.39.185-33.242 5.766-33.176 12.466.067 6.7 15.028 11.981 33.417 11.796Z" fill="#233910"/><path d="M78.978 38.92c18.262-.237 32.997-5.826 32.912-12.483-.086-6.658-14.96-11.862-33.222-11.625-18.262.238-32.997 5.827-32.912 12.484.086 6.657 14.96 11.862 33.222 11.624Z" fill="#243A11"/><path d="M78.976 38.837c18.137-.235 32.772-5.786 32.687-12.397-.085-6.61-14.857-11.78-32.994-11.544-18.138.236-32.772 5.787-32.687 12.398.085 6.61 14.857 11.78 32.994 11.543Z" fill="#243B11"/><path d="M78.974 38.753c18.016-.234 32.553-5.746 32.469-12.31-.085-6.566-14.758-11.698-32.775-11.464-18.016.235-32.553 5.746-32.469 12.311.085 6.565 14.758 11.697 32.775 11.463Z" fill="#253C11"/><path d="M78.972 38.678c17.891-.233 32.327-5.71 32.244-12.232-.084-6.523-14.656-11.623-32.547-11.39-17.892.232-32.328 5.709-32.244 12.232.084 6.523 14.656 11.622 32.547 11.39Z" fill="#263D11"/><path d="M78.97 38.595c17.77-.231 32.109-5.67 32.026-12.146-.083-6.477-14.557-11.54-32.327-11.31-17.77.231-32.11 5.67-32.026 12.146.083 6.477 14.556 11.54 32.327 11.31Z" fill="#263E12"/><path d="M78.708 38.892c17.647-.177 31.901-5.535 31.837-11.966-.064-6.431-14.422-11.501-32.069-11.324-17.647.178-31.9 5.535-31.837 11.967C46.703 34 61.061 39.07 78.708 38.892Z" fill="#273F12"/><path d="M78.966 38.428c17.52-.228 31.657-5.588 31.575-11.973-.081-6.385-14.351-11.376-31.872-11.148-17.52.227-31.657 5.588-31.575 11.972.082 6.385 14.351 11.376 31.872 11.149Z" fill="#274012"/><path d="M110.328 26.448c.083 6.338-13.95 11.668-31.349 11.895-17.399.228-31.575-4.73-31.666-11.068-.09-6.339 13.95-11.668 31.35-11.895 17.398-.228 31.59 4.729 31.665 11.068Z" fill="#284112"/><path d="M78.97 38.268c17.275-.224 31.213-5.511 31.132-11.808-.081-6.296-14.15-11.219-31.425-10.994-17.275.224-31.213 5.51-31.132 11.807.08 6.297 14.15 11.22 31.425 10.995Z" fill="#294213"/><path d="M78.968 38.185c17.154-.223 30.995-5.47 30.914-11.722-.08-6.25-14.05-11.136-31.205-10.914-17.154.223-30.995 5.471-30.915 11.722.08 6.25 14.052 11.137 31.206 10.914Z" fill="#294313"/><path d="M78.966 38.1c17.029-.22 30.769-5.43 30.689-11.634-.079-6.204-13.949-11.055-30.978-10.834-17.029.222-30.769 5.43-30.689 11.635.08 6.205 13.949 11.055 30.978 10.834Z" fill="#2A4413"/><path d="M109.439 26.463c.083 6.157-13.581 11.334-30.467 11.554-16.885.22-30.67-4.592-30.753-10.757-.083-6.164 13.581-11.333 30.467-11.554 16.885-.22 30.67 4.593 30.753 10.757Z" fill="#2A4514"/><path d="M109.181 26.464c.083 6.118-13.46 11.25-30.24 11.47-16.78.22-30.451-4.555-30.527-10.673-.075-6.119 13.46-11.258 30.24-11.478 16.78-.22 30.482 4.562 30.527 10.68Z" fill="#2B4614"/><path d="M78.96 37.858c16.658-.216 30.099-5.313 30.021-11.383-.078-6.07-13.645-10.816-30.303-10.6-16.658.217-30.1 5.314-30.021 11.384.078 6.07 13.645 10.816 30.303 10.6Z" fill="#2C4714"/><path d="M78.958 37.783c16.533-.215 29.873-5.276 29.796-11.305-.077-6.028-13.543-10.741-30.076-10.526-16.533.215-29.873 5.276-29.796 11.304.078 6.029 13.543 10.741 30.076 10.527Z" fill="#2C4814"/><path d="M78.956 37.699c16.412-.214 29.655-5.236 29.578-11.219-.077-5.982-13.444-10.659-29.856-10.445-16.412.213-29.655 5.235-29.578 11.218.077 5.982 13.444 10.659 29.856 10.446Z" fill="#2D4915"/><path d="M78.962 37.615c16.287-.211 29.429-5.195 29.353-11.131-.076-5.936-13.342-10.577-29.629-10.365-16.287.211-29.429 5.195-29.353 11.131.077 5.937 13.342 10.577 29.629 10.365Z" fill="#2D4A15"/><path d="M78.96 37.531c16.166-.21 29.211-5.155 29.135-11.045-.076-5.89-13.242-10.495-29.409-10.284-16.166.21-29.21 5.155-29.135 11.045.076 5.89 13.242 10.495 29.409 10.284Z" fill="#2E4B15"/><path d="M78.958 37.456c16.042-.209 28.985-5.119 28.91-10.967-.075-5.848-13.14-10.42-29.182-10.211-16.041.208-28.985 5.118-28.91 10.966.076 5.848 13.14 10.42 29.182 10.212Z" fill="#2F4C16"/><path d="M78.956 37.372c15.917-.207 28.759-5.078 28.685-10.88-.075-5.802-13.038-10.338-28.955-10.131-15.916.207-28.758 5.078-28.684 10.88.075 5.802 13.038 10.338 28.954 10.13Z" fill="#2F4D16"/><path d="M78.954 37.289c15.796-.206 28.541-5.038 28.467-10.794-.074-5.756-12.939-10.256-28.735-10.05-15.795.205-28.54 5.038-28.466 10.793.074 5.756 12.938 10.256 28.734 10.05Z" fill="#304E16"/><path d="M78.952 37.205c15.67-.204 28.315-4.998 28.242-10.707-.074-5.71-12.837-10.174-28.507-9.97-15.67.203-28.315 4.997-28.242 10.707.074 5.71 12.837 10.173 28.507 9.97Z" fill="#314F16"/><path d="M78.95 37.129c15.55-.202 28.097-4.96 28.024-10.628-.073-5.668-12.737-10.1-28.287-9.897-15.55.202-28.097 4.96-28.024 10.628.073 5.668 12.737 10.1 28.287 9.897Z" fill="#315017"/><path d="M78.948 37.046c15.425-.2 27.871-4.92 27.799-10.542-.073-5.622-12.635-10.017-28.06-9.816-15.425.2-27.87 4.92-27.798 10.542.072 5.622 12.634 10.016 28.06 9.816Z" fill="#325117"/><path d="M78.946 36.962c15.3-.199 27.645-4.88 27.573-10.456-.071-5.575-12.532-9.934-27.832-9.735-15.3.199-27.645 4.88-27.573 10.456.072 5.575 12.533 9.934 27.832 9.735Z" fill="#335217"/><path d="M78.952 36.886c15.18-.197 27.427-4.843 27.355-10.377-.071-5.533-12.433-9.86-27.612-9.662-15.18.197-27.426 4.843-27.355 10.377.07 5.534 12.433 9.86 27.612 9.662Z" fill="#335318"/><path d="M78.95 36.803c15.054-.195 27.201-4.802 27.13-10.29-.07-5.488-12.33-9.778-27.385-9.582-15.054.196-27.2 4.803-27.13 10.29.07 5.488 12.331 9.778 27.385 9.582Z" fill="#345418"/><path d="M78.948 36.72c14.93-.195 26.975-4.763 26.905-10.205-.07-5.441-12.229-9.695-27.158-9.501-14.929.194-26.974 4.762-26.904 10.204.07 5.441 12.228 9.695 27.157 9.501Z" fill="#355518"/><path d="M78.946 36.636c14.808-.192 26.757-4.722 26.687-10.117-.069-5.396-12.13-9.614-26.938-9.421-14.808.192-26.756 4.722-26.687 10.117.07 5.396 12.13 9.614 26.938 9.421Z" fill="#355619"/><path d="M78.944 36.56c14.684-.191 26.531-4.686 26.462-10.04-.069-5.353-12.027-9.538-26.71-9.347-14.684.19-26.53 4.685-26.462 10.039.069 5.353 12.027 9.538 26.71 9.348Z" fill="#365819"/><path d="M78.942 36.477c14.563-.19 26.312-4.646 26.244-9.953-.068-5.307-11.928-9.456-26.49-9.267-14.563.19-26.313 4.645-26.244 9.952.068 5.308 11.928 9.457 26.49 9.268Z" fill="#375919"/><path d="M78.94 36.393c14.438-.188 26.087-4.605 26.019-9.867-.067-5.26-11.826-9.374-26.263-9.186-14.438.188-26.087 4.605-26.019 9.866.068 5.261 11.826 9.374 26.263 9.187Z" fill="#375A1A"/><path d="M78.938 36.31c14.313-.186 25.861-4.565 25.794-9.78-.067-5.215-11.724-9.292-26.036-9.106-14.312.186-25.86 4.564-25.793 9.78.066 5.215 11.723 9.292 26.035 9.106Z" fill="#385B1A"/><path d="M78.944 36.234c14.192-.185 25.642-4.528 25.576-9.701-.066-5.173-11.625-9.217-25.816-9.033-14.192.184-25.642 4.528-25.576 9.7.066 5.174 11.625 9.218 25.816 9.034Z" fill="#395C1A"/><path d="M78.942 36.15c14.067-.183 25.417-4.487 25.351-9.614-.066-5.128-11.523-9.136-25.589-8.953-14.066.183-25.416 4.487-25.35 9.615.065 5.127 11.522 9.135 25.588 8.952Z" fill="#395D1A"/><path d="M78.94 36.067c13.946-.181 25.198-4.447 25.133-9.528-.065-5.081-11.423-9.053-25.369-8.872-13.946.181-25.198 4.447-25.133 9.528.066 5.081 11.424 9.053 25.37 8.872Z" fill="#3A5E1B"/><path d="M78.939 35.991c13.82-.18 24.972-4.41 24.907-9.45-.065-5.038-11.321-8.977-25.142-8.798-13.82.18-24.972 4.41-24.907 9.45.065 5.038 11.32 8.978 25.142 8.798Z" fill="#3B5F1B"/><path d="M78.937 35.907c13.695-.178 24.746-4.37 24.682-9.363-.064-4.992-11.219-8.896-24.915-8.718-13.695.178-24.746 4.37-24.682 9.363.064 4.993 11.219 8.896 24.915 8.718Z" fill="#3B601B"/><path d="M103.406 26.54c.068 4.949-10.888 9.109-24.46 9.276-13.574.167-24.628-3.69-24.688-8.632-.06-4.942 10.887-9.11 24.46-9.284 13.574-.174 24.628 3.682 24.688 8.64Z" fill="#3C621C"/><path d="M78.688 36.122c13.45-.136 24.315-4.219 24.267-9.12-.049-4.9-10.993-8.764-24.444-8.629-13.45.136-24.315 4.218-24.266 9.12.048 4.9 10.992 8.764 24.443 8.629Z" fill="#3D631C"/><path d="M78.93 35.664c13.326-.173 24.077-4.252 24.015-9.11-.063-4.86-10.915-8.658-24.24-8.485-13.325.173-24.076 4.253-24.014 9.111.062 4.86 10.915 8.658 24.24 8.484Z" fill="#3E641C"/><path d="M102.742 26.547c.06 4.813-10.563 8.852-23.797 9.026-13.233.175-23.955-3.59-24.023-8.403-.068-4.813 10.563-8.852 23.797-9.027 13.234-.174 23.955 3.591 24.023 8.404Z" fill="#3E651D"/><path d="M78.934 35.497c13.08-.17 23.632-4.171 23.571-8.938-.061-4.767-10.713-8.493-23.792-8.323-13.08.17-23.632 4.172-23.571 8.938.061 4.767 10.714 8.493 23.792 8.323Z" fill="#3F661D"/><path d="M102.29 26.554c.06 4.722-10.39 8.685-23.344 8.86-12.955.174-23.51-3.523-23.57-8.245-.061-4.722 10.389-8.692 23.343-8.859 12.955-.167 23.51 3.523 23.571 8.244Z" fill="#40671D"/><path d="M78.93 35.338c12.834-.167 23.188-4.095 23.128-8.774-.06-4.678-10.512-8.335-23.345-8.169-12.833.167-23.188 4.095-23.128 8.774.06 4.678 10.512 8.335 23.346 8.169Z" fill="#41691E"/><path d="M101.845 26.562c.06 4.63-10.194 8.517-22.907 8.684-12.713.167-23.057-3.454-23.117-8.085-.06-4.63 10.193-8.525 22.906-8.692 12.713-.167 23.057 3.454 23.118 8.093Z" fill="#416A1E"/><path d="M101.642 26.562c.052 4.554-10.103 8.441-22.688 8.6-12.585.16-22.839-3.416-22.899-8-.06-4.586 10.125-8.442 22.673-8.617 12.547-.175 22.838 3.431 22.914 8.017Z" fill="#426B1E"/><path d="M101.401 26.562c.06 4.555-9.997 8.35-22.462 8.525-12.464.174-22.634-3.386-22.634-7.933s9.997-8.35 22.461-8.517c12.464-.168 22.574 3.385 22.635 7.925Z" fill="#436C1F"/><path d="M78.923 35.012c12.341-.16 22.299-3.937 22.241-8.435-.057-4.499-10.109-8.015-22.45-7.855-12.342.16-22.3 3.937-22.242 8.435.057 4.499 10.11 8.015 22.45 7.855Z" fill="#436D1F"/><path d="M78.92 34.928c12.217-.159 22.074-3.897 22.017-8.349-.057-4.452-10.007-7.932-22.223-7.774-12.217.16-22.074 3.897-22.017 8.35.057 4.451 10.007 7.932 22.224 7.773Z" fill="#446F1F"/><path d="M78.927 34.845c12.091-.157 21.847-3.856 21.791-8.262-.057-4.406-9.905-7.85-21.996-7.694-12.092.157-21.848 3.857-21.791 8.263.056 4.406 9.904 7.85 21.996 7.693Z" fill="#457020"/><path d="M78.925 34.768c11.97-.155 21.629-3.82 21.573-8.183-.056-4.364-9.806-7.776-21.776-7.62-11.971.155-21.63 3.819-21.574 8.183.056 4.364 9.806 7.776 21.777 7.62Z" fill="#467120"/><path d="M78.923 34.685c11.845-.154 21.403-3.779 21.348-8.097-.056-4.318-9.703-7.694-21.549-7.54-11.846.154-21.404 3.78-21.348 8.098.055 4.317 9.703 7.693 21.549 7.54Z" fill="#467221"/><path d="M78.92 34.601c11.721-.152 21.178-3.739 21.124-8.01-.055-4.272-9.601-7.612-21.322-7.46-11.72.153-21.177 3.74-21.123 8.011.055 4.272 9.601 7.612 21.322 7.46Z" fill="#477321"/><path d="M78.919 34.518c11.6-.15 20.959-3.698 20.905-7.924-.055-4.226-9.502-7.53-21.102-7.379-11.6.151-20.96 3.699-20.905 7.925.054 4.225 9.502 7.529 21.102 7.378Z" fill="#487521"/><path d="M78.917 34.443c11.475-.15 20.733-3.662 20.68-7.846-.054-4.184-9.4-7.455-20.875-7.306-11.474.15-20.733 3.662-20.68 7.846.054 4.184 9.4 7.455 20.875 7.306Z" fill="#497622"/><path d="M78.915 34.358c11.354-.147 20.515-3.621 20.462-7.759-.053-4.137-9.3-7.372-20.655-7.225-11.354.148-20.515 3.622-20.462 7.76.053 4.137 9.3 7.372 20.655 7.224Z" fill="#497722"/><path d="M78.913 34.275c11.229-.145 20.29-3.58 20.237-7.672-.053-4.092-9.198-7.29-20.427-7.145-11.23.146-20.29 3.582-20.237 7.673.052 4.092 9.198 7.29 20.427 7.144Z" fill="#4A7822"/><path d="M78.911 34.199c11.104-.145 20.064-3.544 20.012-7.594-.052-4.05-9.096-7.216-20.2-7.071-11.104.144-20.064 3.544-20.012 7.594.052 4.05 9.096 7.215 20.2 7.07Z" fill="#4B7A23"/><path d="M78.917 34.116c10.983-.143 19.845-3.504 19.793-7.508-.05-4.003-8.996-7.133-19.98-6.99-10.983.142-19.845 3.504-19.793 7.507.051 4.004 8.996 7.133 19.98 6.99Z" fill="#4C7B23"/><path d="M78.915 34.033c10.858-.141 19.62-3.464 19.568-7.421-.05-3.958-8.894-7.052-19.752-6.91-10.858.14-19.62 3.463-19.569 7.42.051 3.958 8.895 7.052 19.753 6.91Z" fill="#4D7C23"/><path d="M78.913 33.949c10.737-.14 19.4-3.424 19.35-7.335-.05-3.911-8.795-6.97-19.532-6.83-10.738.14-19.401 3.424-19.351 7.335.05 3.912 8.795 6.97 19.533 6.83Z" fill="#4D7D24"/><path d="M78.91 33.873c10.613-.138 19.176-3.386 19.126-7.256-.05-3.87-8.693-6.894-19.305-6.756-10.612.138-19.175 3.386-19.125 7.255.05 3.87 8.693 6.895 19.305 6.757Z" fill="#4E7F24"/><path d="M78.909 33.789c10.487-.136 18.95-3.346 18.9-7.17-.049-3.823-8.59-6.812-19.078-6.675-10.487.136-18.949 3.346-18.9 7.17.05 3.822 8.59 6.811 19.078 6.675Z" fill="#4F8024"/><path d="M97.599 26.615c.045 3.796-8.3 6.954-18.682 7.083-10.382.129-18.81-2.817-18.862-6.59-.053-3.772 8.3-6.953 18.674-7.09 10.374-.136 18.817 2.817 18.87 6.597Z" fill="#508125"/><path d="M78.905 33.622c10.241-.133 18.505-3.266 18.457-6.997-.048-3.73-8.389-6.648-18.63-6.514-10.242.133-18.506 3.265-18.458 6.996.048 3.731 8.39 6.648 18.63 6.515Z" fill="#518325"/><path d="M78.903 33.546c10.117-.131 18.28-3.228 18.232-6.918-.047-3.689-8.287-6.573-18.403-6.441-10.117.131-18.28 3.228-18.232 6.918.047 3.689 8.287 6.573 18.403 6.441Z" fill="#518426"/><path d="M96.928 26.623c.045 3.644-8.02 6.703-18.018 6.832-9.997.13-18.107-2.717-18.183-6.361-.075-3.644 8.02-6.696 18.017-6.832 9.998-.137 18.13 2.717 18.184 6.361Z" fill="#528526"/><path d="M96.701 26.63c.046 3.591-7.914 6.613-17.79 6.742-9.877.129-17.912-2.68-17.958-6.278-.045-3.599 7.915-6.62 17.791-6.749 9.877-.129 17.912 2.687 17.957 6.286Z" fill="#538626"/><path d="M96.475 26.63c.053 3.553-7.816 6.536-17.564 6.665-9.749.13-17.686-2.649-17.731-6.202-.045-3.552 7.816-6.536 17.565-6.665 9.748-.129 17.685 2.672 17.73 6.202Z" fill="#548827"/><path d="M96.256 26.63c.045 3.508-7.718 6.453-17.353 6.582-9.635.13-17.467-2.619-17.512-6.126-.045-3.507 7.718-6.453 17.353-6.574 9.635-.122 17.467 2.588 17.512 6.118Z" fill="#558927"/><path d="M78.901 33.137c9.5-.124 17.165-3.031 17.12-6.494-.044-3.463-7.781-6.17-17.28-6.046-9.5.123-17.166 3.03-17.121 6.493.044 3.463 7.781 6.17 17.281 6.047Z" fill="#558A27"/><path d="M78.899 33.053c9.379-.121 16.947-2.99 16.903-6.407-.044-3.416-7.683-6.087-17.062-5.965-9.379.122-16.947 2.99-16.903 6.407.044 3.416 7.683 6.087 17.062 5.965Z" fill="#568C28"/><path d="M78.897 32.977c9.254-.12 16.721-2.954 16.678-6.328-.044-3.375-7.58-6.013-16.835-5.893-9.254.12-16.72 2.953-16.677 6.328.043 3.375 7.58 6.013 16.834 5.893Z" fill="#578D28"/><path d="M95.36 26.645c.044 3.325-7.32 6.119-16.456 6.24-9.137.122-16.6-2.482-16.6-5.807s7.32-6.126 16.456-6.248c9.137-.121 16.561 2.483 16.6 5.815Z" fill="#588E29"/><path d="M78.893 32.81c9.008-.117 16.277-2.873 16.235-6.156-.043-3.282-7.38-5.848-16.388-5.731-9.008.117-16.276 2.873-16.234 6.155.042 3.283 7.379 5.849 16.387 5.732Z" fill="#599029"/><path d="M94.914 26.653c.045 3.234-7.122 5.952-16.01 6.073-8.888.122-16.124-2.414-16.162-5.655-.037-3.242 7.123-5.96 16.01-6.073 8.889-.114 16.094 2.414 16.162 5.655Z" fill="#599129"/><path d="M94.695 26.653c0 3.196-7.032 5.876-15.791 5.99-8.76.113-15.898-2.384-15.943-5.573-.045-3.188 7.032-5.875 15.792-5.99 8.76-.113 15.897 2.377 15.942 5.573Z" fill="#5A922A"/><path d="M78.895 32.567c8.638-.112 15.607-2.755 15.566-5.904-.04-3.148-7.075-5.61-15.712-5.497-8.638.112-15.607 2.755-15.566 5.904.04 3.148 7.075 5.61 15.712 5.497Z" fill="#5B942A"/><path d="M94.243 26.66c.045 3.105-6.79 5.709-15.339 5.815-8.548.107-15.452-2.277-15.49-5.412-.038-3.136 6.79-5.709 15.34-5.823 8.547-.114 15.451 2.316 15.489 5.42Z" fill="#5C952A"/><path d="M94.025 26.66c.038 3.037-6.73 5.625-15.09 5.74-8.36.113-15.218-2.278-15.263-5.314-.045-3.037 6.73-5.626 15.128-5.732 8.397-.106 15.18 2.247 15.225 5.306Z" fill="#5D972B"/><path d="M78.89 32.324c8.266-.107 14.936-2.638 14.897-5.652-.038-3.014-6.771-5.37-15.038-5.263-8.266.107-14.936 2.638-14.898 5.652.039 3.014 6.772 5.37 15.038 5.263Z" fill="#5E982B"/><path d="M93.572 26.668c.045 2.968-6.527 5.458-14.675 5.564-8.149.107-14.773-2.209-14.81-5.177-.039-2.968 6.525-5.466 14.674-5.572 8.149-.106 14.773 2.217 14.81 5.185Z" fill="#5E992C"/><path d="M78.645 32.538c8.021-.081 14.5-2.515 14.471-5.438-.029-2.922-6.555-5.225-14.576-5.145-8.022.081-14.5 2.516-14.472 5.438.03 2.922 6.555 5.225 14.577 5.145Z" fill="#5F9B2C"/><path d="M78.891 32.082c7.896-.103 14.267-2.52 14.23-5.4-.037-2.881-6.468-5.133-14.364-5.03-7.895.103-14.266 2.52-14.23 5.4.038 2.88 6.469 5.132 14.364 5.03Z" fill="#609C2C"/><path d="M92.908 26.676c0 2.831-6.24 5.215-14.011 5.314-7.771.098-14.11-2.11-14.147-4.942-.038-2.832 6.24-5.216 14.011-5.314 7.771-.1 14.11 2.125 14.147 4.942Z" fill="#619D2D"/><path d="M92.682 26.676c.037 2.794-6.134 5.132-13.785 5.23-7.65.099-13.883-2.08-13.92-4.866-.038-2.786 6.134-5.131 13.784-5.23 7.65-.099 13.883 2.05 13.92 4.866Z" fill="#629F2D"/><path d="M78.885 31.83c7.53-.097 13.604-2.4 13.569-5.14-.035-2.743-6.167-4.886-13.696-4.788-7.53.098-13.605 2.4-13.57 5.141.036 2.742 6.168 4.885 13.697 4.788Z" fill="#63A02E"/><path d="M78.883 31.755c7.404-.096 13.379-2.363 13.344-5.063-.035-2.7-6.065-4.81-13.47-4.714-7.403.096-13.377 2.363-13.343 5.063.035 2.7 6.065 4.81 13.47 4.714Z" fill="#64A22E"/><path d="M78.881 31.672c7.28-.095 13.153-2.323 13.119-4.976-.034-2.654-5.963-4.729-13.242-4.634-7.279.095-13.152 2.323-13.118 4.976.034 2.654 5.962 4.729 13.241 4.634Z" fill="#65A32E"/><path d="M91.83 26.691c0 2.612-5.74 4.798-12.901 4.89-7.16.09-12.985-1.944-13.023-4.556-.037-2.611 5.742-4.805 12.902-4.896 7.16-.091 12.947 1.95 13.023 4.562Z" fill="#65A42F"/><path d="M91.565 26.691c0 2.566-5.644 4.722-12.676 4.813-7.031.091-12.766-1.913-12.826-4.479-.06-2.566 5.644-4.714 12.675-4.805 7.032-.091 12.797 1.913 12.827 4.471Z" fill="#66A62F"/><path d="M78.876 31.428c6.908-.09 12.482-2.205 12.45-4.724-.033-2.52-5.66-4.49-12.567-4.4-6.909.09-12.483 2.205-12.45 4.725.032 2.52 5.658 4.489 12.567 4.4Z" fill="#67A730"/><path d="M78.881 31.345c6.788-.088 12.264-2.165 12.233-4.638-.032-2.474-5.56-4.407-12.348-4.319-6.787.088-12.264 2.165-12.232 4.638.032 2.474 5.56 4.407 12.347 4.32Z" fill="#68A930"/><path d="M78.88 31.262c6.662-.087 12.037-2.124 12.006-4.552-.03-2.427-5.457-4.324-12.12-4.238-6.662.087-12.038 2.125-12.007 4.552.032 2.427 5.458 4.325 12.12 4.238Z" fill="#69AA30"/><path d="M90.668 26.707c0 2.383-5.281 4.387-11.785 4.471-6.504.084-11.86-1.776-11.89-4.16-.03-2.384 5.243-4.388 11.785-4.471 6.541-.084 11.86 1.776 11.89 4.16Z" fill="#6AAC31"/><path d="M78.875 31.102c6.417-.083 11.594-2.047 11.564-4.386-.03-2.34-5.256-4.168-11.672-4.085-6.417.084-11.594 2.048-11.564 4.387.03 2.34 5.256 4.168 11.672 4.084Z" fill="#6BAD31"/><path d="M78.874 31.018c6.291-.081 11.368-2.006 11.338-4.3-.03-2.293-5.154-4.085-11.445-4.004-6.292.082-11.368 2.007-11.339 4.3.03 2.294 5.154 4.086 11.446 4.005Z" fill="#6CAE32"/><path d="M78.871 30.935c6.171-.08 11.15-1.966 11.121-4.213-.029-2.248-5.054-4.004-11.225-3.924-6.17.08-11.15 1.967-11.121 4.214.029 2.247 5.055 4.004 11.225 3.923Z" fill="#6CB032"/><path d="M89.778 26.714c0 2.209-4.851 4.061-10.895 4.137-6.043.076-10.97-1.647-11-3.849-.03-2.201 4.851-4.053 10.895-4.13 6.043-.075 10.97 1.64 11 3.842Z" fill="#6DB132"/><path d="M89.568 26.721c0 2.156-4.746 3.97-10.669 4.046-5.922.076-10.751-1.609-10.774-3.795-.023-2.187 4.746-3.97 10.669-4.054 5.922-.084 10.774 1.64 10.774 3.803Z" fill="#6EB333"/><path d="M89.333 26.722c0 2.118-4.655 3.886-10.45 3.962-5.794.076-10.563-1.571-10.563-3.689 0-2.118 4.648-3.894 10.458-3.963 5.81-.068 10.525 1.587 10.555 3.69Z" fill="#6FB433"/><path d="M89.107 26.729c0 2.065-4.527 3.796-10.23 3.879-5.705.084-10.3-1.518-10.322-3.614-.023-2.095 4.527-3.795 10.23-3.879 5.705-.083 10.3 1.541 10.322 3.614Z" fill="#70B634"/><path d="M88.888 26.73c0 2.026-4.459 3.72-10.012 3.795-5.553.076-10.072-1.518-10.102-3.53-.03-2.012 4.459-3.727 10.012-3.796 5.553-.068 10.072 1.503 10.102 3.53Z" fill="#71B734"/><path d="M78.868 30.45c5.429-.07 9.81-1.732 9.784-3.71-.026-1.98-4.447-3.526-9.876-3.456-5.43.07-9.81 1.732-9.785 3.71.026 1.98 4.448 3.526 9.877 3.456Z" fill="#72B935"/><path d="M88.436 26.737c0 1.936-4.255 3.553-9.56 3.629-5.303.075-9.627-1.443-9.65-3.379-.022-1.935 4.256-3.56 9.56-3.628 5.304-.069 9.627 1.442 9.65 3.378Z" fill="#73BA35"/><path d="M88.217 26.736c0 1.89-4.157 3.477-9.34 3.546-5.184.068-9.409-1.413-9.432-3.303-.022-1.89 4.158-3.469 9.341-3.537 5.183-.069 9.409 1.404 9.431 3.294Z" fill="#74BC35"/><path d="M78.862 30.206c5.058-.066 9.14-1.614 9.116-3.459-.024-1.844-4.144-3.286-9.202-3.22-5.058.065-9.14 1.614-9.116 3.458.024 1.845 4.144 3.287 9.202 3.221Z" fill="#75BD36"/><path d="M87.772 26.744c0 1.799-3.96 3.31-8.895 3.37-4.935.061-8.956-1.336-8.986-3.135-.03-1.799 3.96-3.31 8.895-3.378 4.935-.068 8.956 1.344 8.986 3.143Z" fill="#76BF36"/><path d="M87.546 26.744c0 1.753-3.863 3.226-8.677 3.294-4.813.069-8.73-1.313-8.752-3.036-.022-1.723 3.863-3.226 8.677-3.287 4.814-.06 8.73 1.275 8.752 3.029Z" fill="#77C037"/><path d="M87.304 26.752c0 1.708-3.772 3.143-8.45 3.204-4.678.06-8.503-1.276-8.526-2.984-.022-1.708 3.773-3.143 8.45-3.203 4.678-.061 8.526 1.275 8.526 2.983Z" fill="#77C237"/><path d="M87.101 26.752c0 1.662-3.666 3.036-8.231 3.12-4.565.083-8.3-1.238-8.3-2.9 0-1.663 3.667-3.037 8.232-3.128 4.564-.09 8.277 1.245 8.3 2.908Z" fill="#78C338"/><path d="M86.875 26.752c0 1.624-3.561 2.983-8.005 3.036-4.444.053-8.058-1.207-8.08-2.824-.024-1.617 3.56-2.975 8.004-3.036 4.444-.06 8.058 1.207 8.081 2.824Z" fill="#79C538"/><path d="M86.649 26.76c0 1.57-3.463 2.892-7.779 2.952-4.316.061-7.84-1.176-7.854-2.747-.015-1.572 3.463-2.9 7.778-2.954 4.316-.053 7.84 1.17 7.855 2.748Z" fill="#7AC638"/><path d="M86.43 26.759c0 1.518-3.365 2.816-7.544 2.87-4.18.053-7.613-1.14-7.636-2.673-.022-1.533 3.365-2.808 7.545-2.861 4.18-.054 7.613 1.138 7.636 2.664Z" fill="#7BC839"/><path d="M86.204 26.767c0 1.518-3.267 2.725-7.334 2.778-4.067.053-7.41-1.13-7.41-2.588 0-1.458 3.268-2.733 7.335-2.786 4.066-.053 7.394 1.108 7.409 2.596Z" fill="#7CC939"/><path d="M85.985 26.767c0 1.442-3.169 2.649-7.122 2.702-3.954.053-7.16-1.078-7.183-2.513-.023-1.434 3.169-2.65 7.122-2.702 3.954-.053 7.16 1.07 7.183 2.512Z" fill="#7DCB3A"/><path d="M85.798 26.767c0 1.396-3.07 2.565-6.896 2.619-3.826.053-6.942-1.04-6.957-2.437-.015-1.397 3.071-2.566 6.897-2.612 3.825-.045 6.903 1.04 6.956 2.43Z" fill="#7ECC3A"/><path d="M85.533 26.775c0 1.344-2.966 2.482-6.67 2.528-3.705.045-6.715-1.002-6.73-2.354-.015-1.35 2.965-2.482 6.67-2.535 3.704-.053 6.715 1.01 6.73 2.36Z" fill="#7FCE3B"/><path d="M85.314 26.775c0 1.306-2.875 2.399-6.451 2.444-3.576.046-6.496-.971-6.511-2.277-.016-1.306 2.874-2.399 6.45-2.444 3.577-.046 6.497.971 6.512 2.277Z" fill="#80D03B"/><path d="M85.088 26.782c0 1.253-2.77 2.316-6.225 2.361-3.456.046-6.27-.941-6.285-2.201-.015-1.26 2.77-2.278 6.225-2.361 3.455-.084 6.24.941 6.285 2.201Z" fill="#81D13C"/><path d="M84.869 26.782c0 1.215-2.679 2.232-6.036 2.277-3.358.046-6.036-.903-6.036-2.117 0-1.215 2.678-2.278 6.036-2.278 3.357 0 6.013.903 6.036 2.118Z" fill="#82D33C"/><path d="M84.643 26.782c0 1.169-2.573 2.156-5.78 2.194-3.206.038-5.824-.873-5.84-2.042-.015-1.17 2.573-2.149 5.78-2.194 3.207-.046 5.825.873 5.84 2.042Z" fill="#83D43C"/><path d="M84.417 26.79c0 1.123-2.475 2.064-5.561 2.102-3.086.038-5.59-.835-5.606-1.958-.015-1.124 2.475-2.073 5.56-2.11 3.087-.039 5.591.842 5.607 1.966Z" fill="#84D63D"/><path d="M84.198 26.79c0 1.078-2.377 1.99-5.342 2.027-2.965.038-5.372-.805-5.387-1.883-.015-1.078 2.377-1.989 5.342-2.027 2.965-.038 5.372.805 5.387 1.883Z" fill="#85D73D"/><path d="M83.965 26.79c0 1.04-2.264 1.905-5.116 1.943-2.852.038-5.13-.775-5.13-1.837 0-1.063 2.263-1.906 5.115-1.936 2.852-.03 5.116.797 5.13 1.83Z" fill="#86D93E"/><path d="M83.745 26.798c0 .987-2.172 1.822-4.889 1.852-2.716.03-4.927-.76-4.934-1.723-.008-.965 2.173-1.822 4.889-1.86 2.716-.038 4.927.736 4.934 1.73Z" fill="#87DB3E"/><path d="M83.534 26.798c0 .949-2.082 1.738-4.67 1.776-2.588.038-4.7-.706-4.716-1.655-.015-.949 2.083-1.738 4.67-1.769 2.589-.03 4.716.706 4.716 1.648Z" fill="#88DC3F"/><path d="M83.3 26.805c0 .896-1.977 1.655-4.444 1.685-2.467.03-4.482-.676-4.527-1.571-.045-.896 1.977-1.655 4.444-1.686 2.467-.03 4.52.668 4.527 1.572Z" fill="#89DE3F"/><path d="M83.082 26.805c0 .858-1.887 1.571-4.225 1.601-2.34.03-4.256-.637-4.271-1.518-.015-.88 1.886-1.571 4.225-1.61 2.34-.037 4.255.669 4.27 1.527Z" fill="#8ADF40"/><path d="M82.855 26.805c0 .812-1.78 1.518-3.998 1.518-2.219 0-4.037-.6-4.044-1.412-.008-.812 1.78-1.518 4.006-1.518s4.029.607 4.036 1.412Z" fill="#8BE140"/><path d="M82.623 26.813c0 .759-1.682 1.404-3.772 1.434-2.09.03-3.773-.569-3.773-1.336 0-.766 1.683-1.404 3.773-1.434 2.09-.03 3.764.569 3.772 1.336Z" fill="#8CE340"/><path d="M82.41 26.813c0 .759-1.585 1.328-3.562 1.35-1.976.024-3.614-.508-3.614-1.267 0-.759 1.585-1.32 3.562-1.344 1.976-.022 3.606.54 3.614 1.26Z" fill="#8DE441"/><path d="M82.177 26.82c0 .668-1.51 1.238-3.335 1.26-1.826.023-3.358-.5-3.365-1.176-.008-.676 1.509-1.238 3.334-1.268 1.826-.03 3.358.501 3.365 1.184Z" fill="#8EE641"/><path d="M81.958 26.82c0 .63-1.388 1.162-3.116 1.177-1.728.015-3.132-.463-3.147-1.093-.015-.63 1.389-1.162 3.117-1.184 1.727-.023 3.138.47 3.146 1.1Z" fill="#8FE742"/><path d="M81.731 26.82c0 .584-1.29 1.078-2.89 1.1-1.599.023-2.911-.44-2.92-1.024-.007-.585 1.291-1.07 2.89-1.093 1.6-.023 2.913.432 2.92 1.017Z" fill="#90E942"/><path d="M81.505 26.828c0 .538-1.184.986-2.663 1.01-1.479.022-2.686-.403-2.694-.942-.007-.54 1.185-.995 2.664-1.01 1.479-.015 2.686.402 2.693.942Z" fill="#91EB43"/><path d="M81.27 26.827c0 .494-1.093.911-2.444.926-1.35.016-2.467-.364-2.474-.857-.008-.494 1.094-.911 2.444-.934 1.35-.023 2.475.372 2.475.865Z" fill="#92EC43"/><path d="M81.06 26.827c0 .456-.989.828-2.226.85-1.238.023-2.264-.341-2.264-.759 0-.417.989-.827 2.226-.842 1.237-.015 2.256.303 2.264.751Z" fill="#93EE44"/><path d="M80.841 26.835c0 .402-.897.759-2.006.759-1.11 0-2.015-.304-2.022-.706-.008-.402.897-.76 2.007-.76 1.109 0 2.014.305 2.022.707Z" fill="#94F044"/><path d="M80.615 26.836c0 .364-.754.66-1.78.675-1.026.015-1.788-.265-1.796-.63-.007-.364.755-.66 1.78-.675 1.027-.015 1.789.273 1.796.63Z" fill="#95F145"/><path d="M80.39 26.843c0 .311-.695.577-1.555.584-.86.008-1.57-.235-1.57-.546 0-.311.695-.577 1.555-.592.86-.015 1.57.235 1.57.554Z" fill="#96F345"/><path d="M80.17 26.842c0 .274-.595.494-1.335.509-.74.015-1.343-.205-1.343-.455 0-.251.596-.502 1.336-.51.74-.007 1.335.183 1.343.456Z" fill="#97F546"/><path d="M79.944 26.843c0 .227-.498.417-1.109.425-.611.007-1.124-.167-1.124-.395s.498-.41 1.109-.418c.611-.007 1.124.167 1.124.388Z" fill="#98F646"/><path d="M79.757 26.85c0 .175-.392.327-.883.334-.49.008-.897-.129-.897-.31 0-.183.392-.335.882-.342.49-.008.898.136.898.318Z" fill="#99F847"/><path d="M79.5 26.85c0 .137-.302.25-.672.25-.37 0-.672-.098-.672-.235 0-.136.302-.243.672-.25.37-.008.671.098.671.235Z" fill="#9AFA47"/><path d="M79.273 26.896c0 .083-.196.16-.445.167-.249.007-.445-.069-.445-.16 0-.09.196-.167.445-.167s.445.03.445.16Z" fill="#9BFB48"/><path d="M79.054 26.896c0 .046-.098.084-.226.084s-.226 0-.226-.076.105-.084.226-.084c.12 0 .226-.007.226.076Z" fill="#9CFD48"/></g></g></g><defs><linearGradient id="b" x1="19.946" y1="47.943" x2="6.897" y2="17.758" gradientUnits="userSpaceOnUse"><stop stop-color="#C47C79"/><stop offset=".03" stop-color="#C77F7B"/><stop offset=".34" stop-color="#EBA190"/><stop offset=".5" stop-color="#F9AE98"/><stop offset=".6" stop-color="#FBAF8F"/><stop offset=".8" stop-color="#FEB083"/><stop offset="1" stop-color="#FFB07F"/></linearGradient><linearGradient id="c" x1="15.479" y1="44.447" x2="4.699" y2="19.52" gradientUnits="userSpaceOnUse"><stop stop-color="#C47C79"/><stop offset=".03" stop-color="#C77F7B"/><stop offset=".34" stop-color="#EBA190"/><stop offset=".5" stop-color="#F9AE98"/><stop offset=".6" stop-color="#FBAF8F"/><stop offset=".8" stop-color="#FEB083"/><stop offset="1" stop-color="#FFB07F"/></linearGradient><linearGradient id="d" x1="1.477" y1="64.898" x2="98.223" y2="144.624" gradientUnits="userSpaceOnUse"><stop stop-color="#471C59"/><stop offset=".49" stop-color="#1A1C80"/><stop offset="1" stop-color="#3596A0"/></linearGradient><linearGradient id="e" x1="11.15" y1="72.952" x2="45.495" y2="107.579" gradientUnits="userSpaceOnUse"><stop stop-color="#471C59"/><stop offset=".49" stop-color="#1A1C80"/><stop offset="1" stop-color="#3596A0"/></linearGradient><linearGradient id="f" x1="36.189" y1="84.932" x2="21.309" y2="50.488" gradientUnits="userSpaceOnUse"><stop stop-color="#1A1C80"/><stop offset="1" stop-color="#3596A0"/></linearGradient><linearGradient id="g" x1="134.853" y1="49.392" x2="147.796" y2="19.26" gradientUnits="userSpaceOnUse"><stop stop-color="#C47C79"/><stop offset=".03" stop-color="#C77F7B"/><stop offset=".34" stop-color="#EBA190"/><stop offset=".5" stop-color="#F9AE98"/><stop offset=".6" stop-color="#FBAF8F"/><stop offset=".8" stop-color="#FEB083"/><stop offset="1" stop-color="#FFB07F"/></linearGradient><linearGradient id="h" x1="138.524" y1="45.753" x2="149.296" y2="20.818" gradientUnits="userSpaceOnUse"><stop stop-color="#C47C79"/><stop offset=".03" stop-color="#C77F7B"/><stop offset=".34" stop-color="#EBA190"/><stop offset=".5" stop-color="#F9AE98"/><stop offset=".6" stop-color="#FBAF8F"/><stop offset=".8" stop-color="#FEB083"/><stop offset="1" stop-color="#FFB07F"/></linearGradient><linearGradient id="i" x1="152.527" y1="66.204" x2="55.781" y2="145.93" gradientUnits="userSpaceOnUse"><stop stop-color="#471C59"/><stop offset=".49" stop-color="#1A1C80"/><stop offset="1" stop-color="#3596A0"/></linearGradient><linearGradient id="j" x1="142.855" y1="74.258" x2="108.51" y2="108.884" gradientUnits="userSpaceOnUse"><stop stop-color="#471C59"/><stop offset=".49" stop-color="#1A1C80"/><stop offset="1" stop-color="#3596A0"/></linearGradient><linearGradient id="k" x1="117.804" y1="86.237" x2="132.692" y2="51.793" gradientUnits="userSpaceOnUse"><stop stop-color="#1A1C80"/><stop offset="1" stop-color="#3596A0"/></linearGradient><linearGradient id="l" x1="73.426" y1="232.218" x2="91.702" y2="19.294" gradientUnits="userSpaceOnUse"><stop stop-color="#471C59"/><stop offset=".6" stop-color="#1A1C80"/><stop offset="1" stop-color="#3596A0"/></linearGradient><linearGradient id="m" x1="73.003" y1="237.19" x2="84.093" y2="107.959" gradientUnits="userSpaceOnUse"><stop stop-color="#471C59"/><stop offset=".49" stop-color="#1A1C80"/><stop offset="1" stop-color="#3596A0"/></linearGradient><linearGradient id="n" x1="78.57" y1="216.23" x2="76.783" y2="117.878" gradientUnits="userSpaceOnUse"><stop stop-color="#471C59"/><stop offset=".49" stop-color="#1A1C80"/><stop offset="1" stop-color="#3596A0"/></linearGradient><linearGradient id="o" x1="77.752" y1="118.508" x2="77.752" y2="69.848" gradientUnits="userSpaceOnUse"><stop offset=".3" stop-color="#C47C79"/><stop offset=".32" stop-color="#C77F7B"/><stop offset=".51" stop-color="#EBA190"/><stop offset=".61" stop-color="#F9AE98"/><stop offset=".66" stop-color="#FBAF8F"/><stop offset=".77" stop-color="#FEB083"/><stop offset=".87" stop-color="#FFB07F"/></linearGradient><linearGradient id="p" x1="67.41" y1="94.077" x2="69.509" y2="86.776" gradientUnits="userSpaceOnUse"><stop stop-color="#BA4758"/><stop offset=".04" stop-color="#BF4B59"/><stop offset=".28" stop-color="#DB6361"/><stop offset=".52" stop-color="#EF7466"/><stop offset=".76" stop-color="#FB7F69"/><stop offset="1" stop-color="#FF826A"/></linearGradient><linearGradient id="r" x1="69.896" y1="90.723" x2="69.896" y2="87.831" gradientUnits="userSpaceOnUse"><stop stop-color="#C5DA3F"/><stop offset="1" stop-color="#513E00"/></linearGradient><linearGradient id="s" x1="69.895" y1="89.828" x2="69.895" y2="88.727" gradientUnits="userSpaceOnUse"><stop stop-color="#877D99"/><stop offset=".99" stop-color="#4E3342"/></linearGradient><linearGradient id="t" x1="68.379" y1="88.446" x2="72.258" y2="80.083" gradientUnits="userSpaceOnUse"><stop stop-color="#C47C79"/><stop offset=".13" stop-color="#D48E83"/><stop offset=".41" stop-color="#F3B297"/><stop offset=".56" stop-color="#FFC09F"/></linearGradient><linearGradient id="u" x1="88.738" y1="94.693" x2="86.569" y2="87.392" gradientUnits="userSpaceOnUse"><stop stop-color="#BA4758"/><stop offset=".04" stop-color="#BF4B59"/><stop offset=".28" stop-color="#DB6361"/><stop offset=".52" stop-color="#EF7466"/><stop offset=".76" stop-color="#FB7F69"/><stop offset="1" stop-color="#FF826A"/></linearGradient><linearGradient id="w" x1="87.049" y1="90.524" x2="87.022" y2="87.723" gradientUnits="userSpaceOnUse"><stop stop-color="#C5DA3F"/><stop offset="1" stop-color="#513E00"/></linearGradient><linearGradient id="x" x1="87.041" y1="89.659" x2="87.031" y2="88.589" gradientUnits="userSpaceOnUse"><stop stop-color="#877D99"/><stop offset=".99" stop-color="#4E3342"/></linearGradient><linearGradient id="y" x1="87.95" y1="89.076" x2="84.915" y2="81.528" gradientUnits="userSpaceOnUse"><stop stop-color="#C47C79"/><stop offset=".13" stop-color="#D48E83"/><stop offset=".41" stop-color="#F3B297"/><stop offset=".56" stop-color="#FFC09F"/></linearGradient><linearGradient id="z" x1="78.336" y1="96.698" x2="78.084" y2="157.565" gradientUnits="userSpaceOnUse"><stop stop-color="#EAE6E4"/><stop offset="1" stop-color="#EAB3B3"/></linearGradient><linearGradient id="A" x1="71.496" y1="108.283" x2="84.985" y2="108.283" gradientUnits="userSpaceOnUse"><stop stop-color="#A66F6F"/><stop offset="1" stop-color="#B1897E"/></linearGradient><linearGradient id="B" x1="58.203" y1="108.936" x2="98.712" y2="108.936" gradientUnits="userSpaceOnUse"><stop stop-color="#A66F6F"/><stop offset="1" stop-color="#B1897E"/></linearGradient><linearGradient id="C" x1="77.51" y1="104.145" x2="79.802" y2="137.256" gradientUnits="userSpaceOnUse"><stop stop-color="#EAE6E4"/><stop offset="1" stop-color="#EACBD0"/></linearGradient><linearGradient id="D" x1="78.212" y1="101.602" x2="78.212" y2="86.754" gradientUnits="userSpaceOnUse"><stop offset=".08" stop-color="#FC918C"/><stop offset=".19" stop-color="#FD9C90"/><stop offset=".46" stop-color="#FEB099"/><stop offset=".73" stop-color="#FFBC9D"/><stop offset="1" stop-color="#FFC09F"/></linearGradient><linearGradient id="E" x1="78.233" y1="98.05" x2="78.363" y2="101.253" gradientUnits="userSpaceOnUse"><stop stop-color="#D17785"/><stop offset=".33" stop-color="#D3969E"/><stop offset=".77" stop-color="#D6BABB"/><stop offset="1" stop-color="#D7C8C6"/></linearGradient><linearGradient id="F" x1="81.684" y1="78.98" x2="82.066" y2="42.193" gradientUnits="userSpaceOnUse"><stop stop-color="#1A1C80"/><stop offset="1" stop-color="#3596A0"/></linearGradient><linearGradient id="G" x1="84.307" y1="15.456" x2="80.611" y2="81.627" gradientUnits="userSpaceOnUse"><stop stop-color="#FFDBEB"/><stop offset=".99" stop-color="#D100FF"/></linearGradient><linearGradient id="H" x1="63.733" y1="60.123" x2="97.396" y2="35.898" gradientUnits="userSpaceOnUse"><stop stop-color="#1A1C80"/><stop offset="1" stop-color="#3596A0"/></linearGradient><linearGradient id="I" x1="77.891" y1="182.92" x2="78.128" y2="142.231" gradientUnits="userSpaceOnUse"><stop stop-color="#A66F6F"/><stop offset="1" stop-color="#B1897E"/></linearGradient><linearGradient id="J" x1="108.814" y1="90.974" x2="108.784" y2="98.481" gradientUnits="userSpaceOnUse"><stop stop-color="#A66F6F"/><stop offset="1" stop-color="#B1897E"/></linearGradient><linearGradient id="K" x1="46.945" y1="97.328" x2="46.914" y2="104.866" gradientUnits="userSpaceOnUse"><stop stop-color="#A66F6F"/><stop offset="1" stop-color="#B1897E"/></linearGradient><linearGradient id="L" x1="21.725" y1="31.16" x2="134.705" y2="23.194" gradientUnits="userSpaceOnUse"><stop stop-color="#A3FD00"/><stop offset="1" stop-color="#B3A830"/></linearGradient><linearGradient id="M" x1="23.559" y1="28.564" x2="134.68" y2="20.242" gradientUnits="userSpaceOnUse"><stop stop-color="#B0FD1E"/><stop offset="1" stop-color="#B3A830"/></linearGradient><linearGradient id="N" x1="41.77" y1="29.613" x2="70.864" y2="22.283" gradientUnits="userSpaceOnUse"><stop stop-color="#CEFFB9"/><stop offset="1" stop-color="#94FF6E"/></linearGradient><radialGradient id="q" cx="0" cy="0" r="1" gradientUnits="userSpaceOnUse" gradientTransform="matrix(2.62202 0 0 2.69309 69.931 88.64)"><stop stop-color="#FBE2FF"/><stop offset=".7" stop-color="#FBC9E6"/><stop offset=".97" stop-color="#FFCCBD"/></radialGradient><radialGradient id="v" cx="0" cy="0" r="1" gradientUnits="userSpaceOnUse" gradientTransform="matrix(-2.94253 .02958 -.02917 -2.9014 87.252 87.78)"><stop stop-color="#FBE2FF"/><stop offset=".7" stop-color="#FBC9E6"/><stop offset=".97" stop-color="#FFCCBD"/></radialGradient><clipPath id="a"><path fill="#fff" d="M0 0h154v270H0z"/></clipPath></defs></svg>