<svg width="73" height="68" viewBox="0 0 73 68" fill="none" xmlns="http://www.w3.org/2000/svg">
<path fill-rule="evenodd" clip-rule="evenodd" d="M5.00345 47.1108C4.66049 46.5983 4.56136 46.0209 4.55997 45.415C4.55057 40.4073 4.54292 35.3992 4.52727 30.3914C4.52588 29.9014 4.48449 29.4106 4.4417 28.9215C4.38396 28.2677 4.67336 27.8402 5.2379 27.5777C5.47025 27.4697 5.7033 27.3643 5.97148 27.2414C4.75336 26.4906 4.4417 25.2079 4.03334 24.0132C3.38915 22.1285 3.29419 20.1607 3.42672 18.1887C3.65107 14.8575 4.32204 11.6237 5.68556 8.572C6.48941 6.77396 7.51031 5.11229 8.96948 3.77876C9.76498 3.05145 10.7094 2.53011 11.6012 1.94201C12.0475 1.64725 12.6183 1.71259 13.1331 1.6373C14.6907 1.41002 16.2542 1.22251 17.8045 0.934848C18.1694 0.867017 18.5593 0.941239 18.9385 0.941594C21.9751 0.943725 24.9985 0.75728 28.017 0.401435C30.1311 0.151776 32.2679 0.185869 34.3928 0.0711607C37.9254 -0.119546 41.4507 0.126207 44.9795 0.191551C47.0992 0.230616 48.884 1.15219 50.4465 2.57273C52.3519 4.30542 53.8073 6.34745 54.6775 8.81634C54.9262 9.51879 54.8 10.0732 54.3541 10.6279C52.0719 13.4693 49.4844 16.0046 46.8429 18.4856C46.5535 18.7576 46.2669 19.0321 45.927 19.3549C47.0812 19.7246 48.1424 20.0592 49.1995 20.4058C49.7254 20.578 50.2524 20.7531 50.7432 21.0177C51.4002 21.3725 51.627 21.8416 51.5223 22.5948C51.4027 23.4645 51.2886 24.335 51.1595 25.2029C51.1247 25.4377 51.1752 25.5534 51.4211 25.6081C51.7474 25.6806 52.0663 25.7907 52.3797 25.9086C53.0959 26.1771 53.6365 26.6387 53.9144 27.3895C54.1095 27.9172 54.4911 28.2375 55.0299 28.354C55.791 28.5192 56.3405 28.9361 56.6877 29.6655C57.0192 30.3605 57.5552 30.8489 58.295 31.0857C58.6415 31.1969 58.973 31.3606 59.3229 31.4572C59.7563 31.5772 60.1132 31.7306 60.0933 32.2857C60.0853 32.5247 60.2516 32.4963 60.3984 32.4327C60.9901 32.1767 61.5358 32.2871 62.0562 32.6377C62.2357 32.7588 62.3998 32.7826 62.6172 32.6583C63.5133 32.1458 64.4093 32.2083 65.2608 32.7737C65.4733 32.9147 65.5745 32.9147 65.7575 32.7257C66.29 32.1771 66.9735 32.03 67.6957 32.1348C68.615 32.2676 69.0272 33.4669 68.4327 34.2205C68.3784 34.2897 68.3092 34.3469 68.2501 34.413C67.7753 34.9478 67.7555 35.1428 68.1297 35.8364C68.3391 35.553 68.5311 35.2813 68.7343 35.0199C69.2119 34.4073 69.7371 34.2123 70.3802 34.4126C71.0603 34.6243 71.5298 35.0391 71.629 35.8008C71.7246 36.5424 71.4387 37.2093 70.8335 37.5438C70.4898 37.7338 70.2627 38.0009 70.1521 38.3724C69.4919 40.5951 69.0108 42.8616 68.6004 45.1437C68.4964 45.7219 68.5284 45.7314 69.1179 45.7737C69.6703 45.8135 70.2241 45.8376 70.7757 45.8831C71.4801 45.941 72.0053 46.3085 72.388 46.9006C72.6822 47.3548 72.6718 47.657 72.3226 48.0718C71.8693 48.6095 71.3431 49.037 70.646 49.2171C70.2133 49.3293 69.7907 49.4856 69.3632 49.6223C68.6838 49.9984 67.9603 50.1649 67.185 50.1358C66.433 50.1071 65.905 49.7651 65.649 49.0385C65.545 48.7444 65.4045 48.6091 65.0744 48.6428C63.6166 48.7909 62.1654 48.6943 60.7195 48.4695C59.5232 48.2838 58.3417 48.0185 57.1677 47.7177C56.6623 47.5877 56.6574 47.592 56.4992 48.1116C56.447 48.2842 56.3844 48.4486 56.2546 48.5771C56.0101 49.4884 55.8362 49.3385 56.8157 49.346C57.7267 49.3531 58.6147 49.3872 59.4665 49.7462C59.9692 49.9583 60.3612 50.2956 60.6085 50.7964C60.8708 51.3248 60.7887 51.7197 60.3257 52.0823C59.7469 52.5362 59.1097 52.8867 58.4289 53.1541C58.0418 53.4791 57.5674 53.5032 57.104 53.5206C56.4334 53.5451 55.7617 53.5188 55.0904 53.5291C54.3342 53.5408 53.7909 53.2262 53.5245 52.4897C53.4132 52.1807 53.2486 52.0766 52.9251 52.1697C49.1866 53.2457 45.3848 54.0512 41.5885 54.8804C37.5362 55.7654 33.5142 56.7942 29.4434 57.5972C28.025 57.8767 26.6103 58.1441 25.1484 58.1004C23.6137 58.055 22.1733 57.7123 20.8331 56.9494C16.9579 54.7437 13.1372 52.4417 9.31105 50.1486C8.40529 49.6053 7.51065 49.0413 6.59411 48.5164C6.09392 48.2302 5.65982 47.8555 5.22398 47.4816C5.10955 47.381 5.01702 47.2713 5.00345 47.1108Z" fill="#010001"/>
<path fill-rule="evenodd" clip-rule="evenodd" d="M5.0005 47.1094C6.52924 48.5661 8.42599 49.4454 10.1916 50.5236C13.6835 52.6541 17.2081 54.7284 20.7522 56.768C22.6925 57.8849 24.7788 58.2059 26.9507 57.8891C31.1518 57.2765 35.2546 56.1688 39.3931 55.2434C42.3838 54.5746 45.3783 53.9208 48.3628 53.2266C49.9172 52.8647 51.4582 52.4364 53.0001 52.0209C53.342 51.9285 53.5191 51.9651 53.6088 52.3593C53.7598 53.022 54.2339 53.3526 54.8746 53.3999C56.0677 53.4876 57.2604 53.4965 58.4264 53.1523C58.2124 53.7294 57.8062 54.19 57.2347 54.2646C55.8732 54.4422 54.5031 54.6279 53.1212 54.4699C53.0634 54.4631 52.9928 54.4731 52.9514 54.4422C52.5208 54.119 52.1323 54.3051 51.7121 54.4994C50.6195 55.0065 49.415 55.1148 48.2744 55.4543C47.2166 55.7693 46.1467 56.0385 45.0656 56.2566C44.9216 56.2853 44.7783 56.3077 44.6708 56.4224C44.4847 56.5375 44.34 56.3926 44.1853 56.3358C43.7028 56.1571 43.2238 56.139 42.7435 56.3343C41.9344 56.6625 41.1313 57.002 40.4318 57.5471C40.3191 57.6352 40.2008 57.7332 40.0384 57.6966C38.047 58.2031 36.128 58.9385 34.1999 59.6438C32.5015 60.2653 30.7692 60.6979 28.973 60.9482C27.6564 61.1322 26.4063 60.9532 25.1367 60.7334C24.9805 60.781 24.8981 60.6528 24.7976 60.5785C23.68 59.7443 22.4285 59.4194 21.057 59.555C20.9143 59.5693 20.7648 59.6115 20.6576 59.4645C19.4952 58.8686 18.4402 58.0763 17.2575 57.5176C17.2461 57.5084 17.2276 57.5013 17.2241 57.4896C16.7521 56.0044 15.5041 55.83 14.2575 55.6844C13.8119 55.6326 13.3559 55.6812 12.9054 55.672C12.735 55.6688 12.5503 55.6969 12.4223 55.5314C12.7238 55.3638 13.0686 55.5182 13.4258 55.4021C12.8898 55.1148 12.3444 54.9564 11.8668 54.6446C10.7419 53.9098 9.52584 53.3278 8.43538 52.5316C8.3592 52.4762 8.26633 52.2805 8.11258 52.4449C7.94423 52.4137 7.88893 52.2656 7.82945 52.137C7.57553 51.5855 7.14456 51.2893 6.56993 51.1693C6.40297 51.1345 6.18279 51.1497 6.11601 50.9114C5.84713 50.5847 5.57269 50.263 5.31042 49.9298C4.77023 49.2423 4.44292 47.9418 5.0005 47.1094Z" fill="#C8C8C8"/>
<path fill-rule="evenodd" clip-rule="evenodd" d="M40.0449 57.6977C40.7597 57.0805 41.6018 56.708 42.4477 56.3241C43.229 55.97 43.9511 55.997 44.6773 56.4231C45.4301 56.9036 45.7908 57.6988 46.2155 58.4375C47.2141 60.1748 48.0886 61.9764 48.8093 63.8522C49.1543 64.7496 48.954 65.0934 48.0239 65.2976C47.6973 65.369 47.3682 65.4261 47.0409 65.4901C46.8405 65.6183 46.6224 65.6779 46.3873 65.7177C45.2554 65.9088 44.125 65.8111 42.9917 65.7362C41.5392 65.6399 40.0915 65.4585 38.6344 65.4332C38.3693 65.429 38.0977 65.429 37.8768 65.597C36.7648 66.444 35.5105 66.309 34.2611 66.1357C33.6231 66.0476 33.0102 65.8424 32.502 65.4006C32.142 65.0881 31.9191 64.6978 31.8575 64.2201C31.8133 63.8799 31.8669 63.5652 32.1455 63.3305C32.901 62.4135 33.973 62.2512 35.036 62.0865C35.3345 62.0407 35.6468 62.0623 35.9505 62.0797C36.3282 62.1017 36.6263 61.9622 36.7651 61.6131C37.2177 60.4777 37.9895 59.6161 38.9064 58.8569C39.3214 58.5127 39.7043 58.1242 40.0449 57.6977Z" fill="#020101"/>
<path fill-rule="evenodd" clip-rule="evenodd" d="M32.1357 63.3311C31.7558 64.4124 32.1465 65.2925 33.2613 65.7314C34.3396 66.1561 35.4672 66.2179 36.6057 66.0436C37.0012 65.9832 37.3654 65.8188 37.6683 65.5553C37.9577 65.3028 38.2833 65.2413 38.6433 65.2683C40.6733 65.4217 42.7033 65.5929 44.7353 65.7168C45.5037 65.7637 46.2658 65.5751 47.031 65.4906C46.5135 66.5543 45.624 66.9996 44.5127 66.9868C43.3367 66.973 42.1613 66.8994 40.9923 66.7546C40.5161 66.696 40.035 66.6857 39.5574 66.6448C39.2047 66.6146 38.9025 66.7197 38.62 66.9328C37.5936 67.7074 36.4067 67.7969 35.2043 67.6779C34.6161 67.62 34.0223 67.6349 33.4317 67.479C32.5941 67.2574 31.8936 66.8252 31.3277 66.2044C30.5071 65.3052 30.9753 63.7366 32.1357 63.3311Z" fill="#C8C8C8"/>
<path fill-rule="evenodd" clip-rule="evenodd" d="M56.2656 48.5749C56.3606 48.2067 56.3491 47.7109 56.5835 47.5067C56.8058 47.3114 57.2486 47.6019 57.5909 47.6864C59.8689 48.2482 62.1611 48.6811 64.5205 48.5568C64.5789 48.554 64.6373 48.5565 64.6951 48.5508C64.9702 48.5224 65.2645 48.4158 65.5142 48.4826C65.8137 48.5621 65.7222 48.9574 65.8492 49.1971C66.1101 49.689 66.4958 49.9489 67.0273 49.9944C67.507 50.0356 67.9818 50.0154 68.4486 49.8591C68.7502 49.7579 69.0653 49.6986 69.3738 49.6208C69.0016 50.0036 68.5286 50.2295 68.0621 50.4504C67.2068 50.8556 66.357 51.3315 65.3608 51.1596C64.7636 51.0566 64.1598 50.9536 63.7163 50.4461C63.5187 50.2206 63.4617 49.9489 63.3733 49.6858C63.3013 49.4741 63.2223 49.3932 62.9677 49.4152C61.6442 49.5299 60.3297 49.4805 59.0274 49.1573C58.4093 49.0043 57.7714 48.9283 57.1387 48.848C56.8263 48.8079 56.5599 48.6527 56.2656 48.5749Z" fill="#C8C8C8"/>
<path fill-rule="evenodd" clip-rule="evenodd" d="M12.4094 55.5332C13.3524 55.5684 14.3017 55.4519 15.2356 55.6987C15.6474 55.8077 16.0311 55.9654 16.4015 56.1721C16.9261 56.4644 17.2534 56.8813 17.2447 57.5195C17.2353 58.1601 16.8749 58.5277 16.3222 58.7322C16.0763 58.8232 15.821 58.8871 15.5702 58.9631C15.1132 59.277 14.5757 59.2848 14.0627 59.3296C13.1284 59.4116 12.2039 59.2866 11.2984 59.0373C10.7555 58.8882 10.3311 58.5586 10.0048 58.1022C9.6497 57.6043 9.64761 56.937 9.9791 56.5432C10.5847 55.6934 11.4793 55.5684 12.4094 55.5332Z" fill="#020202"/>
<path fill-rule="evenodd" clip-rule="evenodd" d="M6.11073 50.9139C6.1476 50.9349 6.18273 50.9697 6.22134 50.9743C7.13928 51.0801 7.77651 51.5588 8.1073 52.4474C8.18139 53.2109 7.96191 53.5692 7.25893 53.8395C7.08223 53.907 6.90692 53.9762 6.73092 54.0448C6.64883 54.1048 6.57753 54.184 6.477 54.2138C4.88113 54.6893 3.30369 54.7973 1.7913 53.9222C1.29599 53.636 0.948846 53.2393 1.0372 52.5962C1.03928 51.7659 1.44625 51.257 2.21114 51.0027C3.35587 50.623 4.50617 50.464 5.68394 50.829C5.82203 50.8716 5.96812 50.8862 6.11073 50.9139Z" fill="#020202"/>
<path fill-rule="evenodd" clip-rule="evenodd" d="M51.1568 59.6408C50.8162 58.7401 51.0169 58.2451 51.8918 57.8768C53.0977 57.3697 54.3579 57.206 55.6533 57.267C56.1628 57.2905 56.6724 57.2969 57.1813 57.3239C57.703 57.3509 58.1298 57.5927 58.4801 57.977C59.0081 58.5558 58.9507 59.2214 58.3285 59.7018C58.134 59.851 57.9128 59.9632 57.7034 60.0921C57.622 60.2243 57.5023 60.307 57.359 60.3493C55.5649 60.8791 53.7687 61.1014 51.9676 60.3855C51.6086 60.2424 51.2757 60.0609 51.1568 59.6408Z" fill="#020202"/>
<path fill-rule="evenodd" clip-rule="evenodd" d="M51.1691 59.6396C51.7819 60.3481 52.6237 60.5328 53.4762 60.6358C54.9281 60.8109 56.3438 60.6099 57.7164 60.0907C57.7292 60.807 57.1233 61.5481 56.3535 61.7083C55.1716 61.9548 53.9858 62.1721 52.767 62.0787C52.3486 62.0471 51.9593 61.9246 51.6018 61.7388C51.0908 61.4732 50.8518 60.7185 51.0244 60.1052C51.0678 59.949 51.1211 59.7948 51.1691 59.6396Z" fill="#C8C8C8"/>
<path fill-rule="evenodd" clip-rule="evenodd" d="M20.6576 59.466C21.6469 59.3406 22.6236 59.374 23.5621 59.7512C24.1409 59.9838 24.6974 60.2658 25.1367 60.7349C25.3499 61.3642 25.2578 61.6682 24.7433 62.1327C24.4661 62.3827 24.1468 62.5525 23.8167 62.7101C23.6236 62.8831 23.3854 62.9378 23.144 63.0038C21.9551 63.3291 20.7825 63.2304 19.6114 62.9044C18.8906 62.7034 18.468 62.2414 18.3226 61.4934C18.2684 61.2129 18.2934 60.9639 18.4604 60.7335C18.7198 59.9813 19.3279 59.7252 20.0201 59.5871C20.2322 59.5452 20.4451 59.5061 20.6576 59.466Z" fill="#020102"/>
<path fill-rule="evenodd" clip-rule="evenodd" d="M18.4551 60.7334C18.3281 62.0733 18.7622 62.5765 20.0488 62.8944C21.3397 63.2133 22.57 63.0247 23.811 62.7097C23.5957 63.3646 23.1216 63.6792 22.4875 63.8657C21.1612 64.2556 19.8502 64.2592 18.5559 63.7801C17.9253 63.5464 17.5124 63.0116 17.439 62.3603C17.3552 61.607 17.847 61.1024 18.4551 60.7334Z" fill="#C8C8C8"/>
<path fill-rule="evenodd" clip-rule="evenodd" d="M9.98732 56.5439C9.63079 57.6846 10.2218 58.6456 11.4413 58.9482C12.8218 59.2906 14.1989 59.2767 15.5788 58.9638C15.313 59.8268 14.5801 59.9816 13.8587 60.0917C12.7269 60.2647 11.5985 60.1574 10.515 59.7881C9.81306 59.5491 9.28956 59.0618 9.04677 58.3114C8.82346 57.6239 9.31461 56.6952 9.98732 56.5439Z" fill="#C8C8C8"/>
<path fill-rule="evenodd" clip-rule="evenodd" d="M61.9356 54.7501C62.5266 54.3577 63.1694 54.0768 63.8602 53.9596C65.2251 53.7281 66.2644 54.3467 67.1083 55.373C67.3984 55.726 67.3201 56.1959 66.9664 56.5787C66.5507 57.0294 66.0248 57.2616 65.4338 57.3543C65.1444 57.4385 64.8393 57.3156 64.5534 57.4264L64.5541 57.4261C64.4998 57.4481 64.5732 57.4342 64.5176 57.4495C63.9503 57.6068 62.1697 57.3415 61.7335 56.7506C61.2455 56.0911 61.2956 55.1802 61.9356 54.7501Z" fill="#020102"/>
<path fill-rule="evenodd" clip-rule="evenodd" d="M61.9441 54.7494C61.1166 55.9001 61.6126 57.0717 63.0074 57.2503C63.5243 57.3167 64.0439 57.3675 64.5626 57.4254C64.189 58.1165 63.5448 58.0792 62.918 58.0376C62.471 58.0078 62.0241 57.9364 61.583 57.8523C60.5958 57.6644 60.0991 56.5525 60.5144 55.6344C60.8122 54.975 61.2411 54.6631 61.9441 54.7494Z" fill="#C8C8C8"/>
<path fill-rule="evenodd" clip-rule="evenodd" d="M1.04515 52.5947C1.31681 53.9865 2.45214 54.1545 3.51861 54.3761C4.61568 54.6044 5.67971 54.3022 6.73887 54.0433C6.50652 54.5927 5.97781 54.7198 5.50789 54.8612C4.44525 55.1797 3.35617 55.1201 2.26849 54.9723C1.85595 54.9166 1.48238 54.793 1.13246 54.5629C0.455569 54.1186 0.405478 53.1196 1.04515 52.5947Z" fill="#C8C8C8"/>
<path fill-rule="evenodd" clip-rule="evenodd" d="M64.5469 57.4266C64.8321 57.3002 65.1344 57.3907 65.4272 57.3545C65.1455 57.526 64.8418 57.4223 64.5469 57.4266Z" fill="#C8C8C8"/>
<path fill-rule="evenodd" clip-rule="evenodd" d="M24.4142 53.7556C24.3794 51.7267 24.3565 49.4475 24.4406 47.1693C24.5561 44.0619 24.641 40.9499 25.2775 37.8904C25.3231 37.6727 25.3718 37.4475 25.3652 37.2284C25.3489 36.787 25.5228 36.5931 25.9569 36.6595C26.0003 36.6655 26.0445 36.657 26.088 36.6534C27.2783 36.5504 27.3319 36.5565 27.2014 37.7813C26.9854 39.8099 26.7844 41.8377 26.7346 43.8779C26.7089 44.9206 26.6783 45.964 26.6932 47.006C26.7124 48.3313 26.6077 49.6542 26.6776 50.981C26.7169 51.7438 26.8317 52.4889 26.9705 53.2343C27.0039 53.4143 27.0818 53.5798 27.2313 53.686C28.0303 54.2571 28.878 54.609 29.8923 54.4197C33.9216 53.669 37.8668 52.5535 41.8443 51.5794C44.2099 50.9998 46.6134 50.6045 48.9728 50.0008C49.8473 49.7767 50.7162 49.5249 51.5837 49.2735C52.4894 49.011 53.0578 48.4212 53.2609 47.4658C53.9503 44.227 54.6286 40.9854 55.4255 37.771C55.836 36.1133 56.3108 34.475 56.7918 32.8375C56.8889 32.5069 57.0663 32.3872 57.3911 32.3904C57.8138 32.3943 58.2392 32.3808 58.659 32.3375C58.9397 32.3087 59.0367 32.3684 59.0374 32.6795C59.0402 33.437 58.8093 34.1469 58.6538 34.8703C57.6374 39.6192 56.3949 44.3115 55.2481 49.0284C54.9949 50.0736 54.3664 50.6684 53.3698 50.9877C50.3635 51.9505 47.2764 52.5688 44.2134 53.2886C39.2331 54.4591 34.2486 55.6123 29.2422 56.6624C27.8279 56.9589 26.3889 57.091 24.9419 57.1127C24.6118 57.1177 24.5269 57.004 24.5071 56.6837C24.4521 55.7909 24.4059 54.8992 24.4142 53.7556Z" fill="#9F9281"/>
<path fill-rule="evenodd" clip-rule="evenodd" d="M5.14591 34.3813C5.11043 32.6419 5.16887 31.0324 5.08817 29.4237C5.05548 28.7567 5.38175 28.4296 6.02699 28.4268C6.52578 28.4247 7.01344 28.5014 7.5025 28.5809C7.90251 28.6456 8.07469 28.853 8.04269 29.2823C7.91921 30.9724 7.78808 32.6632 7.70912 34.3561C7.6159 36.3498 7.55294 38.3457 7.59364 40.343C7.62007 41.6087 7.56999 42.8744 7.67921 44.139C7.79399 45.4647 8.31922 46.4669 9.54882 47.0809C12.3506 48.4798 15.1862 49.813 17.8753 51.4366C18.2645 51.6717 18.6437 51.9267 19.0437 52.1395C19.8242 52.5542 20.4329 52.295 20.7463 51.4576C21.0451 50.6603 21.0316 49.8183 21.0712 48.9923C21.1937 46.4804 21.2521 43.965 21.3707 41.4528C21.4632 39.507 21.5739 37.5619 21.7721 35.6236C21.81 35.2439 21.9053 35.1395 22.2845 35.315C23.0793 35.6836 23.896 36.0061 24.7065 36.3388C24.9103 36.4223 24.9879 36.5263 24.9559 36.77C24.7534 38.3155 24.5645 39.8625 24.3826 41.4101C24.2985 42.1186 24.2087 42.8285 24.1746 43.5399C24.0911 45.2793 24.0515 47.0209 23.9687 48.7604C23.9165 49.8602 23.936 50.9572 23.9652 52.0567C24.0038 53.5302 23.9252 55.0029 23.8278 56.4739C23.8014 56.8641 23.624 56.965 23.2796 56.8499C22.1113 56.4586 21.0093 55.9099 19.9404 55.3044C15.4384 52.7538 11.0021 50.0878 6.60508 47.353C5.74697 46.8192 5.40992 46.191 5.39322 45.1913C5.32922 41.544 5.07843 37.9011 5.14591 34.3813Z" fill="#5E564B"/>
<path fill-rule="evenodd" clip-rule="evenodd" d="M29.5373 53.5255C29.0805 53.5348 28.6343 53.4896 28.2092 53.3028C27.9389 53.1835 27.7059 52.996 27.6944 52.6899C27.6502 51.5638 27.3974 50.4465 27.564 49.3087C27.6005 49.0537 27.6822 48.9677 27.9268 48.9184C30.6938 48.3594 33.4473 47.7269 36.232 47.2659C38.0119 46.9708 39.8047 46.7581 41.5943 46.5233C43.5571 46.2659 45.5161 45.9906 47.4696 45.6692C49.0206 45.4143 50.5716 45.1571 52.1254 44.9188C52.8864 44.8024 52.901 44.8393 52.8224 45.6014C52.7442 46.3632 52.5087 47.0813 52.2614 47.7958C52.1111 48.2294 51.7445 48.3718 51.3518 48.4755C49.4237 48.9851 47.4984 49.4994 45.5398 49.8836C41.7101 50.6347 37.9514 51.6976 34.1624 52.6306C32.9043 52.9406 31.6337 53.1984 30.3661 53.4637C30.0966 53.5202 29.8138 53.5067 29.5373 53.5255Z" fill="#7E5D44"/>
<path fill-rule="evenodd" clip-rule="evenodd" d="M27.595 45.7683C27.595 45.366 27.5936 44.9636 27.5957 44.5616C27.5992 43.9199 27.7084 43.7764 28.3234 43.6688C29.5558 43.4529 30.7902 43.2433 32.0254 43.0381C33.59 42.7778 35.1545 42.5153 36.7219 42.2745C37.1376 42.2106 37.565 42.1996 37.987 42.2056C38.4298 42.2117 38.6249 42.5892 38.8294 42.906C39.3647 43.7359 40.0455 44.3915 40.945 44.7814C43.2737 45.7918 46.0035 44.6529 46.9117 42.2369C47.2526 41.3285 47.8192 40.968 48.7309 40.8583C50.2607 40.6736 51.7787 40.3824 53.3004 40.1317C53.9178 40.0297 53.9582 40.0709 53.8302 40.6935C53.6365 41.6378 53.4375 42.5814 53.2594 43.5289C53.169 44.0094 52.8458 44.188 52.434 44.2604C51.6886 44.3918 50.9407 44.5058 50.1943 44.6266C48.4694 44.9043 46.7472 45.193 45.0209 45.4569C43.2369 45.7296 41.4514 46.0006 39.6621 46.2307C37.6402 46.4907 35.6384 46.8533 33.6383 47.251C31.7687 47.6225 29.8733 47.8551 27.9923 48.1627C27.6785 48.2134 27.6987 48.0014 27.6702 47.8207C27.563 47.1395 27.6023 46.4527 27.595 45.7683Z" fill="#7E5D44"/>
<path fill-rule="evenodd" clip-rule="evenodd" d="M58.812 38.4702C59.5404 38.9067 59.4621 39.922 60.1407 40.4284C60.8886 38.7504 61.6246 37.0856 62.3718 35.426C62.6518 34.8049 62.9711 34.2086 62.8045 33.4742C62.7332 33.1592 62.9634 32.9624 63.2622 32.945C63.761 32.9159 64.2553 32.9791 64.7033 33.2267C65.1224 33.4582 65.335 33.9458 65.0313 34.2686C64.2716 35.078 64.3941 36.0823 64.3092 37.0372C64.1861 38.4152 64.1224 39.7984 64.0348 41.1795C64.0275 41.2981 64 41.4264 64.032 41.5343C64.0768 41.6856 64.136 41.8941 64.2487 41.9473C64.3927 42.0155 64.4675 41.7925 64.5565 41.6867C65.8372 40.1607 67.1082 38.6258 68.3928 37.103C68.6815 36.7602 68.8161 36.366 68.9003 35.9374C69.0238 35.307 69.3556 34.9636 69.8127 34.9771C70.3848 34.9938 70.963 35.5169 71.0221 36.0812C71.0635 36.4829 70.868 36.7673 70.501 36.8455C69.9998 36.9517 69.8245 37.283 69.7184 37.7393C69.293 39.575 68.8387 41.4043 68.421 43.2421C68.302 43.7677 68.0175 43.9954 67.5135 44.1076C64.9993 44.6705 62.5269 44.3285 60.0586 43.7986C59.403 43.658 58.7466 43.517 58.0871 43.3959C57.7174 43.3281 57.5709 43.2084 57.6878 42.772C58.0464 41.4398 58.3529 40.0935 58.6784 38.7522C58.7021 38.6528 58.7052 38.5459 58.812 38.4702Z" fill="#FEDD43"/>
<path fill-rule="evenodd" clip-rule="evenodd" d="M44.7708 2.58847C45.2428 2.48832 45.6932 2.84168 46.1228 3.24192C46.8164 3.88861 47.3722 4.65499 47.9103 5.4338C48.1475 5.77651 48.0658 5.98248 47.6595 6.03327C46.6922 6.15437 45.7207 6.24741 44.7513 6.35076C44.3022 6.3987 43.8518 6.42995 43.4062 6.49672C43.0243 6.55425 42.761 6.42036 42.5623 6.09009C41.9244 5.02824 41.2649 4.78568 40.1324 5.24558C39.7431 5.40362 39.5323 5.34466 39.2548 5.00729C38.3539 3.91383 37.1521 3.54555 35.8001 3.77C34.9378 3.91312 34.391 4.57651 33.8998 5.25126C33.6724 5.56414 33.4956 5.69341 33.0595 5.58225C32.1186 5.34289 31.2375 5.50945 30.5968 6.36709C30.4556 6.55603 30.251 6.62776 30.0166 6.62137C27.9574 6.56703 25.9111 6.76165 23.8676 6.98716C23.2895 7.05108 22.7113 7.12815 22.1371 7.22368C21.7478 7.28867 21.5005 7.24534 21.3517 6.78473C21.0981 5.99527 20.7659 5.23102 20.4455 4.46606C20.3193 4.16562 20.3749 4.08713 20.6922 4.00332C21.3937 3.81794 22.1092 3.82398 22.8178 3.77426C26.0154 3.54982 29.2155 3.3481 32.4153 3.15668C33.9291 3.06612 35.4446 3.01818 36.9594 2.94857C39.5076 2.83245 42.0552 2.71383 44.7708 2.58847Z" fill="#7E5D44"/>
<path fill-rule="evenodd" clip-rule="evenodd" d="M5.99418 26.3893C5.05328 25.0192 4.48109 23.5489 4.29639 21.9704C3.71759 17.028 4.69988 12.3583 6.84603 7.92588C7.64849 6.26918 8.8433 4.92145 10.2639 3.79319C11.7801 2.58893 13.8692 2.51257 15.3217 3.57869C15.9997 4.07694 16.4985 4.73749 16.806 5.5305C17.2936 6.78803 17.8074 8.03633 18.1545 9.34677C18.2891 9.85497 18.2495 10.3085 17.9159 10.7325C17.6157 11.1153 17.3444 11.5227 17.0536 11.9147C16.9611 12.0398 16.8967 12.2393 16.7086 12.2131C16.479 12.1807 16.504 11.9382 16.4762 11.7809C16.2331 10.4179 15.9002 9.08078 15.3969 7.79093C15.0668 6.94394 14.6508 6.15909 13.8087 5.7379C12.7617 5.21515 11.7394 5.37531 10.7581 5.94281C9.91011 6.43325 9.29758 7.16376 8.80713 8.00827C7.81058 9.71966 7.02099 11.5184 6.62237 13.4777C6.41436 14.4991 6.39697 15.5435 6.29297 16.5777C6.0627 18.869 6.58029 21.0392 7.31422 23.1679C7.55388 23.8632 7.56431 24.4403 7.03768 25.0085C6.66063 25.4166 6.36114 25.8985 5.99418 26.3893Z" fill="#5E564B"/>
<path fill-rule="evenodd" clip-rule="evenodd" d="M46.8745 36.8726C46.9207 38.4675 46.9016 40.0412 46.3433 41.5792C45.5016 43.8965 42.9749 44.7222 41.2027 44.0027C40.179 43.5868 39.6245 42.716 39.1734 41.7685C38.5424 40.4414 38.3372 38.9946 38.1087 37.5559C37.9904 36.8176 37.9647 36.0771 37.981 35.3314C37.9866 35.0877 38.053 34.9858 38.3212 34.9492C40.9912 34.5859 43.6598 34.2056 46.3263 33.8174C46.6505 33.7705 46.7687 33.8728 46.799 34.1964C46.8828 35.0877 46.8557 35.9805 46.8745 36.8726Z" fill="#E0C472"/>
<path fill-rule="evenodd" clip-rule="evenodd" d="M32.0122 16.1105C31.0306 16.0981 30.2431 15.939 29.4441 15.8935C28.4924 15.8399 27.5519 15.8996 26.6228 16.0292C25.0711 16.2462 23.5194 16.509 22.0439 17.0811C21.3089 17.3659 20.5819 17.6642 19.7917 17.7523C19.3739 17.7988 18.9555 17.8706 18.5356 17.8755C17.0337 17.8926 15.5307 17.8873 14.028 17.8858C13.9181 17.8858 13.7692 17.943 13.7059 17.8233C13.6346 17.6898 13.7887 17.6195 13.8555 17.5343C14.683 16.4799 15.539 15.4475 16.3359 14.3704C16.7585 13.7986 17.3429 13.854 17.9067 13.7887C18.1947 13.7553 18.4897 13.7819 18.7819 13.7769C20.6908 13.7457 22.6004 13.745 24.5076 13.6732C26.852 13.5852 29.1957 13.5443 31.5398 13.48C32.3537 13.4577 33.1694 13.4499 33.9827 13.4097C34.351 13.3916 34.4665 13.5344 34.3868 13.8742C34.3068 14.2155 34.3392 14.5479 34.3903 14.8899C34.4867 15.5409 34.3142 15.7458 33.6811 15.8353C33.064 15.9223 32.4668 16.1492 32.0122 16.1105Z" fill="#45342A"/>
<path fill-rule="evenodd" clip-rule="evenodd" d="M21.4528 23.0748C21.0431 22.6551 20.8535 22.0975 20.5669 21.6003C20.2278 21.0111 19.8827 20.4252 19.5335 19.8424C19.361 19.5547 19.3717 19.3633 19.6844 19.1534C20.9603 18.2972 22.385 17.8497 23.8456 17.4836C25.4745 17.0756 27.1121 16.7215 28.8016 16.7453C29.2527 16.7517 29.7038 16.7879 30.155 16.8106C30.5505 16.8305 30.8093 17.0365 30.9275 17.419C31.2775 18.5526 31.3902 19.7181 31.338 20.8993C31.3202 21.296 31.0771 21.584 30.77 21.8113C30.0506 22.344 29.3407 22.8902 28.6061 23.4001C28.2168 23.6704 28.0381 23.9641 28.2134 24.4464C28.3024 24.6942 28.3344 24.9656 28.3786 25.2284C28.4885 25.8793 28.4861 25.88 27.8426 26.1173C27.6374 25.8743 27.5191 25.5824 27.46 25.2788C27.3445 24.685 27.0666 24.2287 26.5205 23.9637C26.4662 23.9374 26.4321 23.8877 26.4158 23.8281C26.438 23.6789 26.5625 23.6292 26.6773 23.5535C26.2846 23.5969 25.9361 23.7851 25.5524 23.8245C24.1308 23.8852 22.7457 23.7432 21.4528 23.0748Z" fill="#FEDD43"/>
<path fill-rule="evenodd" clip-rule="evenodd" d="M20.4808 43.3087C20.4137 43.9917 20.374 44.8841 20.3952 45.7776C20.4039 46.1598 20.2571 46.1491 19.9834 46.0301C17.2884 44.8614 14.5926 43.698 11.8955 42.5342C10.8885 42.0995 9.88327 41.6655 8.87351 41.2387C8.68393 41.1588 8.55488 41.0789 8.55766 40.8303C8.57401 39.5379 8.39592 38.2463 8.56706 36.9522C8.61262 36.6084 8.68045 36.4905 9.04394 36.6503C12.3919 38.1188 15.6883 39.7016 19 41.2486C19.2112 41.3473 19.4112 41.4738 19.6161 41.5871C20.4985 42.0725 20.4985 42.0722 20.4808 43.3087Z" fill="#634638"/>
<path fill-rule="evenodd" clip-rule="evenodd" d="M8.57907 43.0263C8.57907 42.7742 8.58116 42.522 8.57907 42.2699C8.5742 41.7567 8.57107 41.7652 9.0316 41.9123C10.3416 42.3299 11.5819 42.924 12.8408 43.4706C14.8773 44.3556 16.9066 45.2576 18.9394 46.1522C18.9529 46.1583 18.9679 46.1597 18.9808 46.1668C20.042 46.7456 20.4448 46.7733 20.2552 48.283C20.1446 49.162 20.2041 50.0598 19.9679 50.9323C19.858 51.3368 19.7363 51.3659 19.3755 51.1916C16.963 50.0253 14.709 48.5547 12.2992 47.3838C11.6543 47.0706 11.0097 46.7574 10.3596 46.4566C9.177 45.9086 8.56899 44.9856 8.57838 43.6514C8.57977 43.4436 8.57872 43.2348 8.57907 43.0263Z" fill="#634638"/>
<path fill-rule="evenodd" clip-rule="evenodd" d="M17.2812 13.2117C17.5143 12.7471 17.8879 12.4268 18.1435 12.0213C18.2848 11.7968 18.4465 11.583 18.5648 11.3465C18.8611 10.7538 19.3345 10.4619 19.9718 10.4764C20.9474 10.4988 21.9297 10.5364 22.8971 10.5055C24.0724 10.4679 25.2519 10.5279 26.4297 10.4054C27.1918 10.3258 27.9692 10.3152 28.7397 10.2935C29.875 10.2623 30.9936 10.0822 32.1182 9.95189C33.4254 9.80025 34.737 9.84286 36.0477 9.84499C36.2435 9.84535 36.2856 9.93804 36.1837 10.0932C35.5819 11.0059 34.9732 11.9133 34.3746 12.8281C34.272 12.9851 34.136 12.968 33.992 12.9723C31.9832 13.0348 29.972 13.049 27.9675 13.1715C24.8655 13.3608 21.7628 13.3289 18.6587 13.3207C18.2138 13.3196 17.7689 13.2518 17.2812 13.2117Z" fill="#45342A"/>
<path fill-rule="evenodd" clip-rule="evenodd" d="M8.54185 35.2933C8.62394 34.387 8.69594 33.6782 8.74707 32.9682C8.7669 32.7058 8.90046 32.7857 9.04342 32.8198C9.98571 33.0471 10.8473 33.4889 11.7298 33.8717C14.141 34.9183 16.548 35.9759 18.9543 37.0335C19.5202 37.2817 19.9964 37.6844 20.5119 38.0175C20.8333 38.2246 20.7686 38.5921 20.7443 38.9174C20.6959 39.5386 20.633 40.1586 20.5825 40.7798C20.5391 41.326 20.4173 41.4002 19.9338 41.1757C16.3814 39.5279 12.8317 37.8751 9.27334 36.2415C8.75924 36.0061 8.41558 35.7287 8.54185 35.2933Z" fill="#634638"/>
<path fill-rule="evenodd" clip-rule="evenodd" d="M53.7628 9.66984C53.5353 10.1709 53.2908 10.6117 52.9673 10.9838C51.5944 12.5628 50.2316 14.1555 48.7126 15.5906C47.4746 16.7604 46.2812 17.9818 44.9734 19.0741C44.8294 19.1945 44.6784 19.2915 44.5024 19.2624C43.7441 19.1352 43.2672 19.5522 42.8502 20.1101C42.4345 20.6662 42.0731 21.2582 41.7367 21.8659C41.6077 22.0995 41.4828 22.1063 41.2884 21.9688C40.9412 21.7245 40.5885 21.4891 40.2379 21.2501C40.0612 21.1297 40.0143 21.0181 40.183 20.825C41.831 18.9442 43.4839 17.0673 45.1083 15.1648C46.355 13.7045 47.7136 12.3579 49.0343 10.9721C49.5262 10.4568 49.9909 9.93015 50.7273 9.79769C50.8549 9.77461 50.9874 9.74584 51.1151 9.75472C51.9843 9.81758 52.847 9.61444 53.7628 9.66984Z" fill="#31261C"/>
<path fill-rule="evenodd" clip-rule="evenodd" d="M44.0504 1.89351C43.7826 2.10126 43.5123 2.10374 43.2577 2.11866C41.4093 2.2252 39.5606 2.31079 37.7129 2.41839C35.3855 2.55334 33.0585 2.70783 30.7318 2.84313C29.3641 2.92268 27.9954 2.96992 26.6277 3.05195C24.7668 3.16275 22.902 3.21531 21.0522 3.47989C20.1454 3.60987 19.8306 3.44189 19.368 2.64248C19.2355 2.41378 19.0821 2.19786 18.8984 1.91481C19.5277 1.84272 20.1089 1.73618 20.6933 1.71665C22.5145 1.65699 24.3368 1.58951 26.1501 1.41123C28.0503 1.22443 29.9534 1.08344 31.8595 0.998213C33.8248 0.91014 35.7946 0.828814 37.7626 0.844795C39.3776 0.85829 40.9971 0.878888 42.6101 1.03515C43.2142 1.09374 43.6014 1.48794 44.0504 1.89351Z" fill="#7E5D44"/>
<path fill-rule="evenodd" clip-rule="evenodd" d="M7.08919 17.5745C7.04153 16.7911 7.15458 16.0858 7.2652 15.3823C7.34068 14.9021 7.55389 14.4813 7.86103 14.1112C9.6103 12.0003 11.3599 9.88871 13.1141 7.7817C13.2351 7.63609 13.3993 7.5292 13.5374 7.39709C13.9701 6.98371 13.9864 6.97235 14.2737 7.48125C14.6623 8.16666 14.9075 8.91599 15.1235 9.67207C15.2167 9.99702 15.0564 10.2822 14.8675 10.5386C14.0449 11.6566 13.1554 12.7198 12.2751 13.7899C10.8437 15.5307 9.32995 17.2038 8.07461 19.0906C7.95356 19.2735 7.79182 19.429 7.64399 19.5927C7.55564 19.6908 7.46451 19.8065 7.31042 19.7298C7.18694 19.6687 7.17511 19.5444 7.1772 19.4223C7.18346 18.783 7.0151 18.152 7.08919 17.5745Z" fill="#634638"/>
<path fill-rule="evenodd" clip-rule="evenodd" d="M20.8968 35.4882C20.9715 36.0046 20.8213 36.4269 20.8397 36.8591C20.8547 37.2032 20.742 37.2735 20.4261 37.1368C19.4348 36.7064 18.441 36.2841 17.4375 35.8846C14.7383 34.8096 12.116 33.551 9.44008 32.4195C8.78024 32.1404 8.70163 31.9287 8.78511 31.2139C8.84354 30.7138 8.8272 30.2049 8.84354 29.6996C8.86059 29.1463 8.88911 29.1179 9.38513 29.3093C11.0746 29.9609 12.7132 30.7351 14.356 31.4969C16.305 32.4007 18.2428 33.329 20.1604 34.3021C20.7023 34.5773 21.1451 34.8458 20.8968 35.4882Z" fill="#634638"/>
<path fill-rule="evenodd" clip-rule="evenodd" d="M27.7469 42.3509C27.7904 41.6289 27.8411 40.947 27.8686 40.2638C27.8878 39.7794 28.1622 39.6075 28.5862 39.5379C29.9918 39.307 31.396 39.0623 32.8002 38.8173C34.089 38.5929 35.377 38.3652 36.6644 38.1305C37.3124 38.0122 37.3642 38.0403 37.4932 38.699C37.648 39.485 37.7906 40.273 37.9621 41.055C38.022 41.3313 37.9778 41.4474 37.6856 41.5188C36.0577 41.9137 34.4118 42.2014 32.7644 42.4897C31.3032 42.7458 29.8405 42.9944 28.3608 43.1141C27.7298 43.1649 27.7284 43.1439 27.7472 42.4901C27.7486 42.4308 27.7469 42.3711 27.7469 42.3509Z" fill="#7E5D44"/>
<path fill-rule="evenodd" clip-rule="evenodd" d="M49.2959 9.75287C48.7679 10.5111 48.1533 11.064 47.6131 11.6827C46.5084 12.9469 45.3601 14.1714 44.238 15.4197C42.7128 17.1155 41.1903 18.8148 39.6776 20.5223C39.4188 20.8142 39.2768 20.8654 38.9982 20.5067C38.6111 20.0077 38.1342 19.5794 37.6824 19.1355C37.4764 18.9331 37.4344 18.7875 37.6559 18.5485C39.3495 16.7195 41.0658 14.9098 42.8613 13.1881C43.7851 12.3024 44.6276 11.3393 45.5515 10.4564C46.1111 9.92298 46.7511 9.81928 47.4266 9.76352C48.018 9.71381 48.6169 9.75287 49.2959 9.75287Z" fill="#31261C"/>
<path fill-rule="evenodd" clip-rule="evenodd" d="M37.5316 9.1248C35.5479 9.1248 33.5649 9.12835 31.5812 9.12303C31.0629 9.1216 30.9134 8.95292 30.9141 8.41382C30.9148 8.03987 30.9767 7.6723 31.0636 7.31078C31.2932 6.35227 32.04 5.97512 32.9413 6.35547C33.7896 6.71344 33.7896 6.71344 34.2335 5.8945C34.9684 4.54002 36.4474 4.08225 37.803 4.79074C38.2955 5.04786 38.5998 5.46479 38.811 5.9776C39.0955 6.66869 39.37 6.73759 39.9755 6.29119C40.2128 6.11611 40.4496 5.94742 40.7376 5.86751C41.2083 5.73718 41.5978 5.89166 41.7846 6.34694C42.0945 7.10054 42.1433 7.87153 41.8459 8.65034C41.7582 8.87905 41.6264 8.95398 41.3832 8.9515C40.0987 8.93764 38.8145 8.9451 37.5306 8.9451C37.5309 9.00477 37.5309 9.06514 37.5316 9.1248Z" fill="#E0C472"/>
<path fill-rule="evenodd" clip-rule="evenodd" d="M19.6168 21.7835C18.9883 22.3254 18.3559 22.8627 17.733 23.4107C17.2724 23.8159 16.7295 23.9842 16.1399 24.0659C15.2887 24.1838 14.5739 24.6121 13.9402 25.1785C13.5829 25.4971 13.1968 25.7535 12.7547 25.914C11.9857 26.1935 11.2893 26.6427 10.5039 26.8835C9.86526 27.0792 9.2409 27.0302 8.61583 26.8338C8.29652 26.7333 7.97721 26.6307 7.65511 26.5398C7.22032 26.4169 7.16884 26.2972 7.4405 25.9094C7.71911 25.5109 8.0193 25.1277 8.31218 24.7389C8.59532 24.3617 8.91219 24.0059 9.15881 23.6049C9.61204 22.8687 10.3571 22.8453 11.0663 22.7231C12.7683 22.4291 14.4671 22.1183 16.174 21.8591C17.2916 21.6893 18.4206 21.597 19.5532 21.6631C19.5741 21.7032 19.5953 21.743 19.6168 21.7835Z" fill="#45342A"/>
<path fill-rule="evenodd" clip-rule="evenodd" d="M45.3861 20.2012C47.0926 20.4867 48.7135 21.0382 50.2544 21.8341C50.5873 22.0056 50.7129 22.3327 50.6635 22.7024C50.5424 23.5998 50.4005 24.4944 50.2777 25.3911C50.2534 25.5694 50.1487 25.5967 50.012 25.6202C49.2659 25.7469 48.5514 25.8819 47.8067 25.4696C46.99 25.0175 46.1055 25.1627 45.272 25.5211C45.0362 25.6219 44.8508 25.6376 44.6205 25.5161C44.2341 25.3123 43.8372 25.118 43.4282 24.9696C43.1082 24.8534 43.1116 24.6961 43.1993 24.4063C43.5513 23.2436 43.9461 22.1008 44.5092 21.0247C44.5555 20.4771 44.9628 20.3301 45.3861 20.2012Z" fill="#E2AC02"/>
<path fill-rule="evenodd" clip-rule="evenodd" d="M15.6725 12.8967C15.8436 13.614 15.3939 14.1624 14.9549 14.705C12.9079 17.2393 10.9242 19.825 8.96168 22.4281C8.81072 22.6281 8.65245 22.823 8.48688 23.0102C8.30357 23.2176 8.13696 23.23 8.04792 22.9239C7.87469 22.3265 7.69312 21.7313 7.54251 21.128C7.44546 20.7395 7.51051 20.3893 7.77974 20.048C9.55961 17.7915 11.3871 15.5755 13.2175 13.3608C13.7799 12.6793 14.3417 11.9971 14.9045 11.3156C15.0071 11.1917 15.1076 11.0212 15.2843 11.0631C15.4547 11.1043 15.5038 11.295 15.5351 11.4548C15.6227 11.9059 15.6961 12.3608 15.6725 12.8967Z" fill="#634638"/>
<path fill-rule="evenodd" clip-rule="evenodd" d="M63.1993 47.9018C62.1443 47.8908 60.8222 47.5474 59.4805 47.3635C58.6444 47.2488 57.8071 47.1248 57.0158 46.7896C56.8168 46.7054 56.7493 46.6408 56.8113 46.406C56.99 45.7316 57.1299 45.0466 57.2909 44.3676C57.4158 43.838 57.5994 43.7074 58.1035 43.8515C60.1498 44.4361 62.241 44.706 64.3551 44.8409C65.4685 44.912 66.5684 44.7777 67.6644 44.6083C67.9803 44.5593 68.0359 44.6534 68.03 44.9457C68.0157 45.6247 67.8697 46.2704 67.6456 46.9046C67.5545 47.161 67.3642 47.2747 67.1301 47.3343C65.9399 47.6369 64.7412 47.883 63.1993 47.9018Z" fill="#FEDD43"/>
<path fill-rule="evenodd" clip-rule="evenodd" d="M43.5929 9.84221C44.074 9.84221 44.5557 9.83972 45.0371 9.84434C45.1321 9.84541 45.2608 9.79569 45.3143 9.91217C45.37 10.0336 45.2451 10.0936 45.179 10.1629C44.8834 10.4726 44.5832 10.7773 44.2844 11.0827C43.2211 12.1673 42.1744 13.2693 41.0899 14.3315C39.8718 15.5254 38.623 16.6867 37.3826 17.8558C37.0028 18.2138 36.9872 18.1928 36.7148 17.7652C36.4226 17.3054 36.1103 16.8575 35.7889 16.4179C35.6598 16.2407 35.6605 16.132 35.8146 15.9668C36.791 14.9252 37.7534 13.8698 38.7263 12.8246C39.4697 12.0266 40.2252 11.2411 40.966 10.442C41.3622 10.0152 41.8349 9.81415 42.4103 9.8344C42.8037 9.84825 43.1985 9.83724 43.5922 9.83724C43.5929 9.83866 43.5929 9.84079 43.5929 9.84221Z" fill="#31261C"/>
<path fill-rule="evenodd" clip-rule="evenodd" d="M47.7403 39.4569C47.7403 38.6091 47.7431 37.7614 47.7389 36.9137C47.7382 36.7308 47.7653 36.619 47.9862 36.5806C50.2085 36.1935 52.4291 35.7993 54.648 35.3902C55.0379 35.3181 55.0963 35.5099 55.0358 35.8043C54.8233 36.8353 54.5954 37.8637 54.3673 38.8915C54.2873 39.2534 54.0288 39.4537 53.6939 39.5147C51.7602 39.8681 49.8249 40.2041 47.8913 40.5581C47.6874 40.5954 47.6276 40.5521 47.6332 40.3504C47.6419 40.0531 47.6359 39.7548 47.6359 39.4569C47.6711 39.4569 47.7062 39.4569 47.7403 39.4569Z" fill="#7E5D44"/>
<path fill-rule="evenodd" clip-rule="evenodd" d="M37.2142 36.395C37.2236 37.5122 37.2257 37.5236 36.1509 37.7274C33.748 38.1827 31.3431 38.6295 28.9381 39.0727C28.055 39.235 27.9339 39.1032 28.04 38.1958C28.0922 37.7533 28.119 37.3073 28.1527 36.863C28.1792 36.5189 28.3885 36.3687 28.6936 36.3264C30.655 36.053 32.6168 35.7827 34.5783 35.5114C35.227 35.4215 35.8733 35.305 36.5248 35.2475C37.1519 35.1925 37.1996 35.2617 37.2145 35.9038C37.2177 36.0672 37.2142 36.2312 37.2142 36.395Z" fill="#7E5D43"/>
<path fill-rule="evenodd" clip-rule="evenodd" d="M17.0313 18.3279C17.5273 18.3279 18.0237 18.3257 18.5204 18.3296C18.6154 18.3304 18.7486 18.2959 18.7778 18.4305C18.7997 18.5275 18.6957 18.5761 18.6209 18.6223C18.2759 18.8336 18.239 19.0982 18.4397 19.4501C18.6515 19.8223 18.8053 20.2303 19.0213 20.6007C19.1858 20.8834 19.0641 20.963 18.8223 21.0024C17.8766 21.1572 16.9336 21.3309 15.9847 21.4573C14.8187 21.6129 13.6646 21.832 12.5105 22.055C11.8781 22.1775 11.2395 22.201 10.5981 22.1878C10.3828 22.1832 10.2857 22.1523 10.4492 21.9144C11.1021 20.9669 11.8513 20.0943 12.4921 19.1362C12.8298 18.6319 13.3582 18.4021 13.9731 18.4248C14.9937 18.4632 16.0087 18.2618 17.0313 18.3279Z" fill="#45342A"/>
<path fill-rule="evenodd" clip-rule="evenodd" d="M33.5625 29.3665C35.1427 27.9467 36.9518 27.4072 38.9967 27.5915C39.9683 27.6792 40.9464 27.67 41.9147 27.8124C42.3102 27.8707 42.6845 27.9797 43.0066 28.2265C43.527 28.6243 43.5263 29.0003 42.9979 29.3832C42.5568 29.7028 42.0761 29.9493 41.57 30.1432C39.9429 30.7661 38.2872 30.6514 36.6134 30.3879C35.5535 30.2216 34.5319 29.9766 33.5625 29.3665Z" fill="#3CD469"/>
<path fill-rule="evenodd" clip-rule="evenodd" d="M30.2189 8.22188C30.2189 8.25172 30.2189 8.28155 30.2189 8.31138C30.2189 9.30717 30.2202 9.326 29.2258 9.3885C27.5096 9.4961 25.793 9.57814 24.0761 9.67012C23.5665 9.69747 23.0569 9.72446 22.5473 9.74967C22.1473 9.7692 21.9164 9.56322 21.8374 9.174C21.7838 8.91262 21.7518 8.64662 21.7028 8.38382C21.5737 7.69025 21.5317 7.81135 22.179 7.71404C24.2124 7.40863 26.258 7.21685 28.3145 7.18241C28.8383 7.17424 29.3628 7.23426 29.8856 7.22857C30.1663 7.22538 30.2429 7.33369 30.222 7.59614C30.206 7.80354 30.2196 8.01342 30.2189 8.22188Z" fill="#7E5D44"/>
<path fill-rule="evenodd" clip-rule="evenodd" d="M51.6413 8.86923C50.4145 8.88343 50.4395 8.87313 49.9856 7.71078C49.1132 5.47734 47.8366 3.53298 45.9646 2.03219C45.7701 1.87664 45.5896 1.70333 45.4049 1.53571C45.3201 1.459 45.1948 1.38691 45.2766 1.24521C45.3472 1.12162 45.4571 1.21467 45.5517 1.2239C46.8662 1.35814 48.0165 1.92423 49.0607 2.7041C50.9887 4.14452 52.3324 6.06651 53.3137 8.26763C53.5112 8.71119 53.4591 8.7776 52.9937 8.80175C52.5429 8.82484 52.0917 8.8465 51.6413 8.86923Z" fill="#9F9281"/>
<path fill-rule="evenodd" clip-rule="evenodd" d="M47.8048 34.8851C47.8048 34.5871 47.8211 34.2885 47.7992 33.9923C47.7794 33.7117 47.8855 33.581 48.1543 33.5505C49.7147 33.3719 51.2741 33.1907 52.8338 33.0057C53.7141 32.9017 54.5949 32.7976 55.4731 32.6751C55.7782 32.6325 55.9827 32.6225 55.814 33.0323C55.7584 33.168 55.7128 33.3161 55.702 33.461C55.6272 34.4589 55.0321 34.7984 54.1312 34.9849C52.1371 35.3975 50.1339 35.747 48.1331 36.1178C47.8729 36.1661 47.7909 36.078 47.8009 35.8219C47.8145 35.5101 47.8048 35.1972 47.8048 34.8851Z" fill="#7E5D44"/>
<path fill-rule="evenodd" clip-rule="evenodd" d="M16.5599 1.98393C16.7645 1.98393 16.9697 1.97718 17.1735 1.985C17.7137 2.00595 18.1694 2.19453 18.4671 2.68532C19.6831 4.69112 20.8449 6.71645 21.0821 9.14095C21.1201 9.52982 21.0279 9.61932 20.6679 9.62997C19.2717 9.67187 19.273 9.68217 18.7548 8.35894C18.3398 7.29567 17.9179 6.23524 17.5081 5.16949C17.0782 4.05117 16.3839 3.16191 15.3728 2.53474C15.2545 2.46123 15.0569 2.40512 15.0997 2.2343C15.1355 2.08763 15.3362 2.08692 15.4705 2.06987C15.8319 2.02371 16.1961 2.00133 16.5596 1.96973C16.5599 1.97434 16.5599 1.97896 16.5599 1.98393Z" fill="#9F9281"/>
<path fill-rule="evenodd" clip-rule="evenodd" d="M39.175 9.8367C39.5983 9.8367 40.0209 9.83244 40.4439 9.83954C40.5521 9.84132 40.7055 9.77597 40.7552 9.91767C40.8001 10.0469 40.6519 10.1133 40.5806 10.2004C39.2164 11.8514 37.6449 13.2922 36.1095 14.7684C35.9179 14.9524 35.7387 15.1481 35.5498 15.3349C35.4079 15.4762 35.3255 15.4993 35.282 15.244C34.913 13.0762 35.7481 11.3936 37.2915 9.99189C37.4932 9.809 37.752 9.8193 37.9958 9.80616C38.1976 9.79479 38.4021 9.8264 38.6052 9.83208C38.7948 9.83741 38.9851 9.83315 39.1746 9.83315C39.175 9.83421 39.175 9.83563 39.175 9.8367Z" fill="#31261C"/>
<path fill-rule="evenodd" clip-rule="evenodd" d="M45.5289 8.9342C44.7115 8.9342 43.8951 8.93491 43.077 8.93384C42.7754 8.93349 42.6238 8.84825 42.7128 8.47607C42.8012 8.10389 42.8067 7.71005 42.8352 7.32473C42.8509 7.12195 42.9031 7.0044 43.1347 6.97528C44.7264 6.77462 46.3188 6.60878 47.9255 6.60061C48.4424 6.59812 48.7551 6.80019 48.9234 7.2814C49.0504 7.64541 49.1579 8.02044 49.3227 8.36563C49.5252 8.78788 49.3036 8.83263 48.9829 8.85607C48.0364 8.92567 47.0903 8.9658 46.1411 8.9555C45.9373 8.95337 45.7327 8.9555 45.5282 8.9555C45.5289 8.94805 45.5289 8.94094 45.5289 8.9342Z" fill="#7E5D44"/>
<path fill-rule="evenodd" clip-rule="evenodd" d="M28.9 32.4834C29.2749 32.4848 29.6155 32.6208 29.9327 32.8005C30.5355 33.1415 30.6698 34.0066 30.2106 34.583C29.8527 35.0326 29.4023 35.3859 28.837 35.475C27.9605 35.6135 27.0836 35.768 26.1917 35.7833C25.4933 35.795 24.8487 35.6011 24.1875 35.2783C24.6908 34.784 25.1211 34.2633 25.2261 33.5495C25.6623 33.3297 26.15 33.3116 26.6126 33.2075C27.398 33.0307 28.142 32.7387 28.9 32.4834Z" fill="#FEDD43"/>
<path fill-rule="evenodd" clip-rule="evenodd" d="M13.5303 6.57474C12.9202 7.30773 12.3672 7.97219 11.8127 8.63558C10.5375 10.1616 9.26168 11.6876 7.98443 13.2125C7.89469 13.3191 7.83346 13.5272 7.66859 13.4608C7.4818 13.3851 7.61433 13.193 7.63799 13.0655C7.9973 11.1013 8.78897 9.33448 9.99283 7.76017C10.5167 7.07477 11.1313 6.53319 12.0155 6.39433C12.5084 6.31691 12.9595 6.50513 13.5303 6.57474Z" fill="#624638"/>
<path fill-rule="evenodd" clip-rule="evenodd" d="M64.5765 39.8847C64.4603 38.4507 64.7076 37.049 64.9414 35.6469C64.98 35.4143 65.0916 35.1803 65.2857 35.0414C65.9007 34.6046 66.203 33.997 66.315 33.2569C66.3727 32.8797 66.8618 32.6826 67.4625 32.7551C67.8966 32.8073 68.0611 32.9997 68.0583 33.4522C67.3334 34.0321 67.1623 34.7662 67.3741 35.6696C67.4959 36.1864 67.3484 36.659 66.9442 37.0873C66.2277 37.8466 65.5664 38.6627 64.9953 39.5488C64.8993 39.6983 64.8179 39.9075 64.5765 39.8847Z" fill="#E2AC02"/>
<path fill-rule="evenodd" clip-rule="evenodd" d="M36.5608 34.3498C36.1267 34.3746 35.7959 34.1736 35.5586 33.8259C35.0164 33.0318 34.3875 32.3109 33.7795 31.5719C33.4567 31.1798 33.192 30.7593 33.1294 30.2359C33.1008 29.994 33.0946 29.8218 33.4386 29.9454C34.4264 30.2984 35.4223 30.6216 36.4157 30.9554C36.5427 30.9984 36.6522 31.0555 36.7322 31.1752C37.1434 31.7942 37.4829 32.4356 37.5997 33.1938C37.7319 34.0511 37.6843 34.2311 36.5608 34.3498Z" fill="#299248"/>
<path fill-rule="evenodd" clip-rule="evenodd" d="M24.4195 27.2803C24.9391 27.3144 25.4859 27.3048 25.976 27.574C26.743 27.9944 26.7865 28.4345 26.1357 29.002C25.7016 29.3809 25.2091 29.5553 24.641 29.443C24.3422 29.3841 24.0786 29.4299 23.8014 29.5677C23.177 29.8777 22.2987 29.7222 21.7992 29.2481C21.4023 28.8709 21.4636 28.2967 21.9554 27.9625C22.6952 27.4614 23.53 27.298 24.4195 27.2803Z" fill="#E2AC02"/>
<path fill-rule="evenodd" clip-rule="evenodd" d="M27.0794 28.138C26.8836 27.5339 27.3159 27.1724 27.8206 26.8492C28.7508 26.2537 29.7108 25.8474 30.8301 26.286C31.3477 26.4891 31.4489 26.678 31.2412 27.1951C30.8628 28.133 30.043 28.4953 29.1876 28.779C28.7337 28.9292 28.2533 29.0003 27.7834 29.0972C27.1333 29.2308 27.0797 29.1832 27.0797 28.5127C27.0794 28.4235 27.0794 28.334 27.0794 28.138Z" fill="#E2AC02"/>
<path fill-rule="evenodd" clip-rule="evenodd" d="M31.6347 30.9504C30.5613 30.9504 30.5613 30.9504 30.2497 29.8931C30.2284 29.8221 30.2184 29.7461 30.1864 29.6808C29.9989 29.2926 30.0608 29.0611 30.4838 28.8427C31.0726 28.539 31.4132 27.9609 31.6671 27.3493C31.7534 27.1426 31.8212 27.0514 32.0727 27.1313C32.3593 27.2225 32.6713 27.2357 32.9743 27.2673C33.2282 27.2939 33.4595 27.3731 33.6501 27.5446C34.0334 27.8909 34.0265 28.1246 33.648 28.4701C33.4191 28.6786 33.1774 28.8625 32.9033 29.0071C32.5697 29.1829 32.4664 29.4446 32.512 29.8512C32.6296 30.8918 32.8998 30.9056 31.6347 30.9504Z" fill="#FEDD43"/>
<path fill-rule="evenodd" clip-rule="evenodd" d="M19.6296 29.1727C19.0338 29.2065 18.5141 29.0115 18.0581 28.6287C17.7537 28.3741 17.6035 28.0548 17.673 27.6489C17.7374 27.2731 18.031 27.1954 18.3332 27.1052C19.056 26.8885 19.7117 26.4734 20.4658 26.3427C20.7124 26.3001 20.9563 26.3086 21.2043 26.3107C21.6881 26.3146 21.7987 26.7117 21.9726 27.0423C22.0474 27.1844 21.9079 27.2188 21.8314 27.2682C21.3326 27.5881 21.101 28.0594 21.0874 28.6468C21.0818 28.8634 20.9949 28.954 20.7886 29.0023C20.4056 29.0914 20.0265 29.1884 19.6296 29.1727Z" fill="#E2AC02"/>
<path fill-rule="evenodd" clip-rule="evenodd" d="M30.7487 31.4124C31.3588 31.4418 31.9696 31.4777 32.5804 31.4976C32.9975 31.5111 33.3345 31.6425 33.5833 32.0132C33.8462 32.4053 34.1471 32.7704 34.4313 33.1472C34.5102 33.2516 34.6271 33.3525 34.4219 33.4551C33.6754 33.8287 32.9258 34.1891 32.0639 34.1558C31.3769 34.1288 31.1801 33.9754 30.9912 33.2864C30.86 32.8066 30.5978 32.4366 30.1894 32.161C30.0826 32.0892 29.8558 32.1024 29.8951 31.901C29.9317 31.7135 30.052 31.5569 30.2357 31.4614C30.403 31.3744 30.5762 31.4056 30.7487 31.4124Z" fill="#FEDD43"/>
<path fill-rule="evenodd" clip-rule="evenodd" d="M34.1521 18.6981C33.599 18.6985 33.0446 18.6924 32.4912 18.7013C32.2758 18.7049 32.1496 18.669 32.1061 18.4069C32.0261 17.9264 31.8981 17.4548 31.7875 16.98C31.7377 16.7648 31.8209 16.6533 32.0257 16.5904C32.8119 16.3486 33.6129 16.2417 34.4328 16.2715C34.5632 16.2765 34.6467 16.3319 34.7166 16.4402C35.1591 17.1192 35.6088 17.7929 36.046 18.4747C36.2043 18.7216 35.9998 18.6971 35.8572 18.6974C35.2895 18.6988 34.7208 18.6981 34.1521 18.6981Z" fill="#45342A"/>
<path fill-rule="evenodd" clip-rule="evenodd" d="M33.5601 23.1615C33.4317 22.6089 33.0575 22.355 32.535 22.274C32.1906 22.2204 31.8466 22.1579 31.4922 22.0975C32.5548 20.7842 34.838 20.4721 36.0868 21.4533C36.5723 21.8354 36.7445 22.2193 36.6179 22.6398C35.7824 22.8785 35.0064 23.354 34.0968 23.3025C33.9072 23.2918 33.7156 23.3039 33.5601 23.1615Z" fill="#E2AC02"/>
<path fill-rule="evenodd" clip-rule="evenodd" d="M59.5902 38.4477C59.0344 37.5446 59.1255 36.5786 59.3328 35.6048C59.4382 35.1126 59.5544 34.6233 59.6692 34.1335C59.7916 33.6058 60.1311 33.246 60.5767 32.9953C60.9451 32.7883 61.3635 32.9051 61.6126 33.2734C61.7593 33.49 61.8999 33.7194 61.9496 33.9883C61.6682 34.6556 61.2901 35.27 60.9395 35.8982C60.5857 36.5321 60.3165 37.2001 60.0494 37.8731C59.96 38.0972 59.9322 38.4154 59.5902 38.4477Z" fill="#E2AC02"/>
<path fill-rule="evenodd" clip-rule="evenodd" d="M36.7031 23.3492C36.8207 23.1287 36.9383 22.9092 37.0538 22.6879C37.5953 21.6463 38.443 21.337 39.5029 21.8118C40.162 22.1069 40.6945 22.5988 41.2476 23.0523C41.4956 23.2558 41.3019 23.5427 41.249 23.7917C41.1662 23.9614 41.0139 24.0101 40.8483 24.0122C39.6959 24.0257 38.5467 23.9746 37.412 23.7597C37.1546 23.7107 36.8151 23.7054 36.7031 23.3492Z" fill="#FEDD43"/>
<path fill-rule="evenodd" clip-rule="evenodd" d="M54.4763 51.4412C54.9967 51.1819 55.4471 50.8403 55.7535 50.325C55.9261 50.0359 56.236 50.0022 56.5118 49.9361C57.4412 49.7145 58.3407 49.842 59.1898 50.2721C59.5731 50.4656 59.9217 50.7235 59.8876 51.2469C59.698 51.4636 59.4378 51.5087 59.1769 51.5431C57.9359 51.7068 56.6944 51.8702 55.4582 52.0709C55.2266 52.1085 54.9841 52.1316 54.7782 51.9963C54.589 51.8727 54.3615 51.7473 54.4763 51.4412Z" fill="#E2AC02"/>
<path fill-rule="evenodd" clip-rule="evenodd" d="M41.1052 25.5301C41.8207 25.5184 42.6262 25.6338 43.428 25.7698C43.7038 25.8164 43.9418 25.9648 44.1759 26.1182C44.5279 26.3483 44.6614 26.6499 44.5202 27.0661C44.3741 27.4976 44.0534 27.6201 43.6562 27.5512C42.7539 27.3956 41.8551 27.2206 40.9556 27.0508C40.7417 27.0107 40.5173 26.9918 40.3177 26.9112C39.9427 26.7607 39.8157 26.4371 39.8488 26.0458C39.8822 25.6502 40.1823 25.6075 40.4811 25.5781C40.6554 25.5607 40.83 25.5511 41.1052 25.5301Z" fill="#FDDD42"/>
<path fill-rule="evenodd" clip-rule="evenodd" d="M47.13 31.5747C46.9453 31.367 46.9241 31.1624 47.1373 30.9582C47.1787 30.9181 47.2072 30.8627 47.242 30.8151C48.0124 29.7664 48.0124 29.7593 49.4247 29.6307C50.2393 29.5565 50.895 29.918 51.4696 30.4689C51.6077 30.601 51.7496 30.732 51.7875 30.9355C51.7882 31.1603 51.6028 31.1901 51.4595 31.2263C50.2783 31.5243 49.1123 31.9245 47.8629 31.8049C47.5961 31.7789 47.3446 31.7523 47.13 31.5747Z" fill="#FEDD43"/>
<path fill-rule="evenodd" clip-rule="evenodd" d="M20.5754 25.6753C20.2954 25.6941 19.9966 25.5851 19.7288 25.3425C19.326 24.9774 18.91 24.6273 18.4894 24.2839C18.334 24.1567 18.2964 24.0697 18.4474 23.9017C18.7715 23.5384 19.1037 23.1858 19.5128 22.9194C19.9277 22.6492 20.2825 22.6666 20.6085 23.0377C21.0937 23.5903 21.5427 24.1759 22.0155 24.7399C22.1466 24.8968 22.0774 25.008 21.9755 25.1223C21.6193 25.5215 21.1657 25.681 20.5754 25.6753Z" fill="#E1AC02"/>
<path fill-rule="evenodd" clip-rule="evenodd" d="M66.3203 48.4006C66.5614 48.0966 66.9214 48.0319 67.2571 47.9822C67.8379 47.8959 68.1639 47.5564 68.23 47.0035C68.2912 46.4853 68.5708 46.3511 69.0161 46.3259C69.6783 46.2886 70.3274 46.3955 70.9657 46.5329C71.3222 46.6103 71.6099 46.8671 71.7734 47.2265C71.7243 47.3625 71.613 47.4328 71.4975 47.4971C70.0157 48.3199 68.4574 48.831 66.7454 48.6914C66.5784 48.6783 66.2584 48.8015 66.3203 48.4006Z" fill="#E2AC02"/>
<path fill-rule="evenodd" clip-rule="evenodd" d="M10.7578 28.1768C11.1982 27.3227 11.9509 26.9821 12.8372 26.9328C13.6083 26.8894 14.3833 26.9232 15.1559 26.9154C15.624 26.9107 16.0056 27.0848 16.3082 27.4466C16.3368 27.545 16.3002 27.6334 16.2248 27.6782C15.6418 28.0259 15.0557 28.3686 14.3586 28.419C14.152 28.2933 13.9409 28.3497 13.7287 28.4009C13.321 28.4993 12.9182 28.6179 12.4977 28.6541C12.0316 28.6133 11.5811 28.484 11.1241 28.3952C10.9822 28.3675 10.8399 28.3188 10.7578 28.1768Z" fill="#E2AC02"/>
<path fill-rule="evenodd" clip-rule="evenodd" d="M43.3687 29.8926C43.4327 30.1223 43.3444 30.2637 43.264 30.4015C42.7145 31.3486 42.1607 32.2929 41.6076 33.2376C41.5092 33.4056 41.393 33.5565 41.2142 33.6446C40.9113 33.7937 40.5913 33.7454 40.3269 33.6041C40.0612 33.462 40.1756 33.1406 40.2128 32.9098C40.2963 32.3984 40.4344 31.8966 40.5408 31.3888C40.585 31.1775 40.7092 31.0446 40.8921 30.9647C41.7071 30.6089 42.5238 30.2584 43.3687 29.8926Z" fill="#299248"/>
<path fill-rule="evenodd" clip-rule="evenodd" d="M26.4503 23.7966C27.1074 24.0704 27.4931 24.5616 27.5822 25.2843C27.618 25.5815 27.866 25.8049 27.8503 26.1178C27.6629 26.3238 27.4931 26.322 27.3237 26.0876C27.2034 25.921 27.0301 25.7861 26.9401 25.6064C26.6479 25.0265 26.1731 24.8926 25.5731 24.8567C24.0662 24.7676 22.6349 24.4323 21.5587 23.2188C21.5215 23.1762 21.4933 23.1237 21.4609 23.0757C21.7333 23.037 21.9726 23.1592 22.2109 23.2543C23.3257 23.6986 24.4909 23.7174 25.6607 23.7064C25.739 23.7498 25.491 24.0239 25.8047 23.9085C26.0099 23.8321 26.2058 23.6549 26.4503 23.7966Z" fill="#AF992E"/>
<path fill-rule="evenodd" clip-rule="evenodd" d="M28.7428 24.4177C28.7062 24.177 28.7911 23.9767 28.9594 23.819C29.9675 22.8775 31.1028 22.4304 32.4635 22.9081C32.7366 23.0039 33.0117 23.1108 33.1095 23.4361C33.0389 23.7952 32.7467 23.9699 32.4879 24.1347C31.4315 24.8077 30.3045 25.1124 29.0638 24.7253C28.8913 24.6709 28.7751 24.6028 28.7428 24.4177Z" fill="#E2AC02"/>
<path fill-rule="evenodd" clip-rule="evenodd" d="M38.1793 26.9191C37.0502 26.9269 36.0495 27.1492 35.0915 27.5761C34.9847 27.6234 34.8783 27.6809 34.766 27.7008C34.5336 27.742 34.4254 27.5868 34.3555 27.3897C34.2706 27.1507 34.4825 27.1485 34.5948 27.1141C35.51 26.8332 36.2255 26.2795 36.7632 25.4837C36.9271 25.2411 37.1187 25.179 37.3949 25.2482C37.8746 25.3686 38.3636 25.4492 38.8433 25.5671C39.1789 25.6499 39.5139 26.3775 39.388 26.6997C39.339 26.8239 39.2269 26.8058 39.1348 26.835C38.7956 26.9411 38.4457 26.9234 38.1793 26.9191Z" fill="#FDDD42"/>
<path fill-rule="evenodd" clip-rule="evenodd" d="M19.8588 30.3168C20.1169 29.63 20.7177 29.3221 21.3542 29.609C22.1974 29.989 23.0582 30.1676 23.9821 30.0874C24.5832 30.0352 24.9915 30.5171 24.9223 31.1183C24.2945 31.4401 23.6377 31.5132 22.9549 31.3581C22.7041 31.2551 22.4596 31.1091 22.1709 31.2199C21.438 31.1737 20.7511 30.9188 20.0498 30.7277C19.8554 30.6744 19.7622 30.5317 19.8588 30.3168Z" fill="#FDDD42"/>
<path fill-rule="evenodd" clip-rule="evenodd" d="M44.8359 27.5495C44.9406 27.1954 45.0227 26.8321 45.1546 26.4897C45.3264 26.0469 46.0318 25.7305 46.6513 25.788C46.811 25.8026 46.9706 25.8271 47.1261 25.8651C47.707 26.0096 47.7362 26.0746 47.4951 26.6371C47.1689 27.4028 47.2607 27.7164 47.9985 28.357C47.9706 28.5975 47.7689 28.5737 47.6336 28.5598C46.6228 28.4551 45.637 28.2658 44.8359 27.5495Z" fill="#FEDD43"/>
<path fill-rule="evenodd" clip-rule="evenodd" d="M42.9511 33.3616C42.3051 33.3829 42.2603 33.3143 42.4749 32.7799C42.7024 32.2113 43.0679 31.8668 43.7142 31.8395C44.3956 31.8104 45.0749 31.712 45.7543 31.637C45.9303 31.6175 46.1035 31.6093 46.2732 31.6619C46.6673 31.7837 46.7317 32.1325 46.7651 32.4737C46.7992 32.8172 46.4764 32.7639 46.3004 32.8093C45.1713 33.1002 44.0203 33.266 42.9511 33.3616Z" fill="#FDDD42"/>
<path fill-rule="evenodd" clip-rule="evenodd" d="M38.0569 20.6317C37.3564 21.1271 37.1616 21.1413 36.5828 20.75C35.4488 19.9839 34.2436 19.8355 32.9632 20.2858C32.8947 20.3099 32.8248 20.3426 32.7538 20.349C32.5621 20.3661 32.3096 20.5546 32.2394 20.181C32.1402 19.6529 32.2373 19.4665 32.6206 19.4122C33.7911 19.2452 34.9671 19.2072 36.1473 19.2261C36.4447 19.231 36.6753 19.3209 36.8885 19.5333C37.2614 19.9058 37.6555 20.257 38.0569 20.6317Z" fill="#443529"/>
<path fill-rule="evenodd" clip-rule="evenodd" d="M48.3707 26.5711C48.849 26.1783 49.4066 26.1279 49.976 26.2362C50.6282 26.3609 51.2755 26.5164 51.9162 26.6915C52.3409 26.8069 52.7194 27.0225 52.9354 27.4479C53.0095 27.6213 52.9076 27.6955 52.7709 27.7441C52.6328 27.7938 52.4916 27.839 52.3496 27.8638C51.0745 28.0822 49.817 28.1806 48.7301 27.2477C48.5234 27.0704 48.2577 26.9255 48.3707 26.5711Z" fill="#FDDD42"/>
<path fill-rule="evenodd" clip-rule="evenodd" d="M37.3594 30.9668C38.1778 31.0868 38.9076 31.2044 39.6408 31.2964C39.8704 31.3251 39.9261 31.4366 39.9358 31.6444C39.9643 32.2769 39.8481 32.8884 39.6763 33.4883C39.5528 33.9215 39.0206 34.0696 38.6363 33.7802C38.3789 33.5859 38.158 33.3487 38.0505 33.0223C37.8335 32.3632 37.6084 31.7069 37.3594 30.9668Z" fill="#299248"/>
<path fill-rule="evenodd" clip-rule="evenodd" d="M54.4896 51.4413C54.6152 51.7982 54.843 52.0234 55.2347 51.9666C56.7356 51.7496 58.2348 51.5219 59.735 51.2964C59.7907 51.2879 59.8449 51.2638 59.9009 51.2471C59.6929 51.8053 59.2251 52.0923 58.7419 52.3224C57.6209 52.8569 56.4146 52.9105 55.2058 52.8516C54.8058 52.8317 54.4823 52.5501 54.2309 52.234C53.9828 51.9218 54.0726 51.68 54.4896 51.4413Z" fill="#9C7701"/>
<path fill-rule="evenodd" clip-rule="evenodd" d="M45.3753 20.2027C45.0953 20.4914 44.6274 20.5699 44.4984 21.0259C44.4883 20.8739 44.442 20.7912 44.289 20.9126C44.0987 21.0632 43.9798 21.2649 43.8827 21.4851C43.4528 22.4617 43.0218 23.438 42.587 24.4121C42.4924 24.6238 42.4239 24.8653 42.0987 24.8127C41.5689 24.7267 41.4994 24.6238 41.691 24.1124C42.0973 23.0299 42.4722 21.9382 43.1464 20.9776C43.7265 20.1516 44.4765 19.9932 45.3753 20.2027Z" fill="#9C7701"/>
<path fill-rule="evenodd" clip-rule="evenodd" d="M14.3192 28.3534C15.0242 28.1595 15.722 27.9478 16.2907 27.4453C16.6065 27.6268 16.6284 27.8523 16.3926 28.1215C16.2963 28.2323 16.2152 28.3577 16.1126 28.4624C15.074 29.5278 13.1602 29.8943 11.8182 29.2796C11.4867 29.1276 11.1754 28.9294 10.8432 28.7806C10.4877 28.6215 10.4505 28.4351 10.7399 28.1755C11.3316 28.2973 11.9233 28.4187 12.5149 28.5402C12.4948 28.7636 12.324 28.6457 12.2262 28.6751C12.4464 28.7099 12.676 28.7259 12.9035 28.7575C13.2718 28.8094 13.6204 28.7501 13.9327 28.5231C14.0482 28.4404 14.1567 28.33 14.3192 28.3534Z" fill="#9C7701"/>
<path fill-rule="evenodd" clip-rule="evenodd" d="M19.2363 30.496C19.292 31.413 19.2606 31.4588 18.3761 31.6108C17.3712 31.7838 16.4223 31.6783 15.5343 31.0991C15.0487 30.7823 14.5064 30.5568 13.9141 30.2514C14.2953 30.0884 14.6303 29.9452 14.9663 29.8018C15.8407 29.8533 16.6898 30.0425 17.5267 30.2954C17.8968 30.4073 18.2773 30.3568 18.6544 30.3717C18.8544 30.3796 19.0662 30.3377 19.2363 30.496Z" fill="#AF982E"/>
<path fill-rule="evenodd" clip-rule="evenodd" d="M36.7062 23.3496C37.1873 23.6596 37.7404 23.7328 38.2792 23.7637C39.1867 23.8155 40.0945 23.932 41.0055 23.8685C41.0897 23.8628 41.17 23.8184 41.2521 23.7918C41.002 24.8447 40.5829 25.1235 39.5265 25.0052C38.7995 24.9239 38.0854 24.7865 37.3783 24.6096C36.6694 24.4324 36.4106 23.9221 36.7062 23.3496Z" fill="#AF982E"/>
<path fill-rule="evenodd" clip-rule="evenodd" d="M19.2462 30.4946C18.2688 30.5674 17.3203 30.4509 16.3881 30.1221C16.0409 29.9999 15.6496 30.0109 15.2788 29.9619C15.1578 29.9459 15.0016 30.0013 14.9766 29.8003C15.6844 29.4683 16.355 29.0819 16.8232 28.4171C16.9217 28.2764 16.9992 28.3095 17.0935 28.4139C17.6486 29.0254 18.3067 29.4718 19.0765 29.7598C19.4525 29.9005 19.1979 30.2457 19.2462 30.4946Z" fill="#FDDD42"/>
<path fill-rule="evenodd" clip-rule="evenodd" d="M66.311 48.4013C66.3517 48.6559 66.5507 48.5628 66.693 48.5731C68.2923 48.6882 69.772 48.2699 71.1769 47.5191C71.37 47.4165 71.5689 47.3245 71.7648 47.2275C71.9265 47.5543 71.8291 47.8203 71.5895 48.0625C71.3053 48.3494 70.9713 48.5667 70.5988 48.69C69.5797 49.0263 68.5661 49.4002 67.4732 49.3875C67.0453 49.3821 66.6791 49.2184 66.3911 48.8984C66.2676 48.7621 66.1187 48.6023 66.311 48.4013Z" fill="#9D7701"/>
<path fill-rule="evenodd" clip-rule="evenodd" d="M19.4219 31.9247C19.7725 31.7379 20.1082 31.8437 20.4156 32.0188C21.4122 32.5845 22.4985 32.7571 23.6133 32.8096C24.3288 32.8434 24.7309 33.2461 24.6053 33.8172C24.3952 33.6826 24.1726 33.6716 23.934 33.7259C22.9924 33.9397 22.0866 33.8687 21.224 33.385C20.9837 33.25 20.6988 33.2085 20.4428 33.1016C19.9158 32.8807 19.5252 32.5316 19.4219 31.9247Z" fill="#AF992E"/>
<path fill-rule="evenodd" clip-rule="evenodd" d="M25.4835 30.8581C25.4794 30.7988 25.4665 30.7388 25.4714 30.6802C25.4933 30.4128 25.2063 30.0832 25.4748 29.8943C25.8289 29.645 26.2738 29.4376 26.71 29.5651C27.3392 29.7487 27.9424 29.688 28.5654 29.5875C28.9908 29.5186 29.4137 29.5544 29.7007 29.9657C29.405 30.2264 29.1142 30.4924 28.8113 30.7427C28.6589 30.8684 28.4798 31.0201 28.2774 30.8031C28.1706 30.6372 28.0088 30.649 27.8499 30.6756C27.2818 30.7708 26.7114 30.856 26.1528 31.008C25.8943 31.1202 25.6213 31.3031 25.4835 30.8581Z" fill="#FDDD42"/>
<path fill-rule="evenodd" clip-rule="evenodd" d="M25.4897 30.8569C25.6894 31.1648 25.8953 31.0828 26.104 30.869C26.2657 31.0796 26.4925 31.103 26.7291 31.0928C27.1346 31.0757 27.5252 30.9802 27.9086 30.847C28.0553 30.7962 28.1973 30.7032 28.3646 30.7621C28.6908 30.8772 28.8192 30.576 29.0105 30.4272C29.2321 30.2539 29.382 29.9766 29.7069 29.9648C30.0182 30.4929 29.6241 31.3136 28.8957 31.5839C28.2094 31.8389 27.4866 31.9401 26.7638 32.02C26.4031 32.0598 26.0403 32.0988 25.6782 32.1059C25.425 32.1109 25.2782 32.0104 25.3725 31.6904C25.4501 31.4241 25.4535 31.1354 25.4897 30.8569Z" fill="#AF982E"/>
<path fill-rule="evenodd" clip-rule="evenodd" d="M36.094 24.5095C36.3771 24.7595 36.3535 25.0145 36.1552 25.3202C35.4084 26.4734 34.3054 26.7674 33.0456 26.7021C32.9586 26.6975 32.8723 26.6658 32.7861 26.669C32.1979 26.6914 31.784 26.4602 31.625 25.8512C31.8716 25.6509 32.1495 25.7347 32.4156 25.7745C32.7349 25.8217 33.0466 25.8263 33.3635 25.7496C33.4804 25.7208 33.5346 25.6644 33.5551 25.5543C33.727 25.4406 33.9232 25.4545 34.1141 25.4353C34.703 25.4769 35.0863 25.0496 35.5375 24.7801C35.7162 24.6735 35.8383 24.4516 36.094 24.5095Z" fill="#9C7701"/>
<path fill-rule="evenodd" clip-rule="evenodd" d="M19.8643 30.3164C19.8855 30.4475 19.8908 30.5732 20.064 30.6137C20.784 30.7813 21.4839 31.0387 22.2223 31.1236C22.4731 31.0913 22.6884 31.3672 22.9528 31.2106C23.4717 31.4312 23.9827 31.2351 24.4954 31.1776C24.6401 31.1616 24.7834 31.1385 24.9274 31.1183C24.8596 31.5082 24.6168 31.7188 24.2672 31.8673C22.8095 32.487 21.464 32.2895 20.225 31.3097C19.913 31.0633 19.6935 30.7571 19.8643 30.3164Z" fill="#AF982E"/>
<path fill-rule="evenodd" clip-rule="evenodd" d="M19.4327 31.9258C19.5176 31.9482 19.6101 31.9606 19.6181 32.0785C19.6445 32.4517 19.879 32.6971 20.1791 32.8179C21.1294 33.2011 22.0282 33.7842 23.1093 33.7132C23.4558 33.6904 23.7973 33.5978 24.1427 33.5629C24.3396 33.5434 24.6102 33.444 24.6161 33.8183C24.294 34.595 23.6916 34.8663 22.8693 34.5634C22.4467 34.4078 22.0418 34.1997 21.6362 33.9998C20.5527 33.4646 19.473 32.9212 18.3203 32.3448C18.744 32.1857 19.0883 32.0561 19.4327 31.9258Z" fill="#FCDC42"/>
<path fill-rule="evenodd" clip-rule="evenodd" d="M36.0915 24.5098C35.6403 24.8308 35.2104 25.186 34.7102 25.4292C34.5405 25.512 34.3704 25.6949 34.162 25.496C34.1085 25.3689 34.1933 25.3085 34.2918 25.2368C33.8911 25.2946 33.5078 25.3685 33.1077 25.3923C33.2817 25.4175 33.4643 25.4026 33.5405 25.6065C33.5996 25.6434 33.6587 25.6796 33.7328 25.7261C33.2865 25.9516 32.8382 25.995 32.3578 25.887C32.1213 25.8341 31.8681 25.8611 31.6228 25.8519C31.4726 25.7023 31.514 25.5908 31.6976 25.5326C32.3192 25.3355 32.8145 24.9257 33.3342 24.5503C33.8205 24.1994 34.3777 24.0556 34.977 24.0844C35.1054 24.0907 35.2515 24.1089 35.3621 24.0591C35.8285 23.8503 35.9788 24.1415 36.0915 24.5098Z" fill="#E1AC02"/>
<path fill-rule="evenodd" clip-rule="evenodd" d="M64.5781 39.8837C65.1576 39.2565 65.5253 38.4618 66.1256 37.8492C66.3824 37.5881 66.5639 37.2394 66.8436 37.0142C67.4231 36.5469 67.3281 35.9414 67.2307 35.3451C67.0805 34.421 67.2892 33.8986 68.0596 33.4512C68.0412 33.7573 67.8551 33.969 67.6513 34.1582C67.3313 34.4562 67.2634 34.8092 67.3998 35.2094C67.8081 36.4027 67.6443 37.4415 66.6798 38.3154C66.2564 38.699 65.9677 39.2122 65.6404 39.6841C65.3795 40.0613 65.0811 40.3951 64.6581 40.687C64.6293 40.3962 64.6039 40.1401 64.5781 39.8837Z" fill="#9C7702"/>
<path fill-rule="evenodd" clip-rule="evenodd" d="M19.0749 25.5019C19.3473 25.7586 19.3723 25.9579 18.9956 26.1582C18.1211 26.6213 17.2095 26.8077 16.2571 26.5264C15.7475 26.3762 15.2477 26.2654 14.7176 26.2757C14.5666 26.2786 14.3433 26.3056 14.2828 26.1596C14.2087 25.9834 14.3916 25.8396 14.5082 25.7114C14.6156 25.5939 14.7162 25.4607 14.8786 25.4117C15.6226 25.3147 16.352 25.362 17.0853 25.5409C17.7427 25.7011 18.4144 25.6787 19.0749 25.5019Z" fill="#9C7701"/>
<path fill-rule="evenodd" clip-rule="evenodd" d="M47.1172 31.5748C48.7416 31.9051 50.2641 31.4675 51.7751 30.9355C51.9361 31.2772 51.7316 31.4935 51.5163 31.6994C50.9872 32.2066 50.294 32.2897 49.6289 32.4232C49.1179 32.5258 48.5934 32.561 48.0793 32.6526C47.7329 32.7144 47.5356 32.5951 47.4222 32.2588C47.3429 32.0226 47.2205 31.8017 47.1172 31.5748Z" fill="#AF992E"/>
<path fill-rule="evenodd" clip-rule="evenodd" d="M52.3787 29.0784C52.8841 28.6427 53.4163 28.7347 53.9738 28.9694C54.346 29.1257 54.7485 29.2084 55.1213 29.3629C55.4045 29.4801 55.6674 29.6563 55.529 30.0551C54.6559 30.3495 53.7634 30.3292 52.8705 30.2C52.6444 30.1673 52.4433 30.0196 52.259 29.8711C51.7884 29.4908 51.8169 29.305 52.3787 29.0784Z" fill="#FDDC42"/>
<path fill-rule="evenodd" clip-rule="evenodd" d="M59.5859 38.4481C59.9508 38.0592 60.0263 37.5275 60.2437 37.0655C60.7439 36.0015 61.2451 34.9372 61.9453 33.9883C62.1878 34.2955 62.1418 34.6172 61.995 34.9471C61.4848 36.096 60.9801 37.2473 60.466 38.3941C60.3661 38.6171 60.324 38.9648 60.0555 38.9761C59.8019 38.9864 59.7192 38.6526 59.5859 38.4481Z" fill="#9C7702"/>
<path fill-rule="evenodd" clip-rule="evenodd" d="M48.3516 26.5713C48.6824 27.3224 49.3666 27.6175 50.0574 27.7944C50.9711 28.0284 51.8992 27.8338 52.8074 27.625C52.8922 27.6054 52.8971 27.5188 52.9162 27.4485C53.0522 27.8743 52.9482 28.1626 52.5461 28.2724C51.0578 28.6794 49.6243 28.4926 48.2824 27.7297C47.7582 27.4318 47.8044 27.0255 48.3516 26.5713Z" fill="#AF992E"/>
<path fill-rule="evenodd" clip-rule="evenodd" d="M22.4844 25.4763C22.7859 25.1514 23.1714 25.1837 23.5463 25.244C24.3512 25.3737 25.1537 25.5228 25.9554 25.6713C26.3547 25.7455 26.8883 26.3215 26.8942 26.7338C26.8991 27.0222 26.6014 26.9242 26.4403 27.0013C26.1603 26.7466 25.8351 26.6177 25.4608 26.5648C24.7258 26.46 24.0062 26.2793 23.306 26.0232C22.9884 25.9074 22.6823 25.7767 22.4844 25.4763Z" fill="#9C7701"/>
<path fill-rule="evenodd" clip-rule="evenodd" d="M52.2109 32.0251C52.3407 31.6011 52.5814 31.405 52.9595 31.3905C53.9025 31.3557 54.7926 31.0989 55.6524 30.7164C56.1919 30.4764 56.545 30.6724 56.6831 31.2523C56.7443 31.508 56.5533 31.4736 56.4337 31.5112C55.5797 31.7811 54.6945 31.8575 53.8106 31.9264C53.291 31.9669 52.7734 32.0684 52.2109 32.0251Z" fill="#AE982D"/>
<path fill-rule="evenodd" clip-rule="evenodd" d="M46.6098 29.6777C47.0268 30.1057 47.0282 30.263 46.5792 30.6203C45.8324 31.2144 44.9826 31.419 44.048 31.289C43.7381 31.2457 43.6055 31.1299 43.76 30.8C43.8448 30.6174 43.889 30.4153 43.953 30.2222C44.6915 30.1984 45.4271 30.1572 46.1141 29.8322C46.2717 29.758 46.4338 29.6955 46.6098 29.6777Z" fill="#AF992E"/>
<path fill-rule="evenodd" clip-rule="evenodd" d="M22.4766 25.4785C23.5003 26.1014 24.6433 26.3166 25.7988 26.497C26.0882 26.5425 26.3668 26.6458 26.4326 27.0035C26.1609 27.0947 25.9209 26.9537 25.6736 26.8877C24.94 26.6917 24.2068 26.7524 23.4784 26.8923C23.0095 26.9825 22.6624 26.8348 22.3779 26.4583C22.0815 26.0659 22.0968 25.8351 22.4766 25.4785Z" fill="#E1AB02"/>
<path fill-rule="evenodd" clip-rule="evenodd" d="M52.386 29.0801C52.3019 29.1365 52.2222 29.2026 52.1328 29.2466C51.9603 29.3312 51.9676 29.4203 52.0956 29.5449C52.4514 29.8923 52.832 30.1398 53.36 30.1505C54.089 30.165 54.8105 30.0659 55.5367 30.0567C55.5117 30.2094 55.3969 30.2751 55.2752 30.3259C54.4849 30.6562 53.6727 30.8646 52.809 30.7641C52.6956 30.751 52.5603 30.7403 52.4761 30.6739C51.8966 30.2162 51.3272 29.7442 50.6562 29.1969C51.3265 29.144 51.8626 29.1792 52.386 29.0801Z" fill="#AF992E"/>
<path fill-rule="evenodd" clip-rule="evenodd" d="M19.0951 25.5017C18.9925 25.7588 18.7629 25.7649 18.5514 25.7634C18.0589 25.7599 17.5622 25.8199 17.0766 25.6746C16.4828 25.4978 15.8741 25.4818 15.2619 25.4978C15.1377 25.501 14.9955 25.545 14.8984 25.4115C15.9597 24.7698 17.0783 24.5563 18.2735 24.9534C18.5932 25.0599 18.8912 25.2098 19.0951 25.5017Z" fill="#E1AC02"/>
<path fill-rule="evenodd" clip-rule="evenodd" d="M28.75 24.4152C29.3935 24.7547 30.0721 24.8683 30.782 24.7135C31.6788 24.5175 32.4798 24.1286 33.1171 23.4336C33.3181 23.8171 33.1355 24.1453 32.8569 24.3225C31.9181 24.9198 30.9466 25.4671 29.782 25.4277C29.0401 25.4028 28.83 25.1965 28.75 24.4152Z" fill="#9C7702"/>
<path fill-rule="evenodd" clip-rule="evenodd" d="M44.8173 27.5519C45.0733 27.5171 45.1822 27.7842 45.371 27.8478C46.1481 28.1091 46.8984 28.5005 47.7516 28.4526C47.8386 28.4476 47.9269 28.4504 47.9798 28.3595C48.2372 28.519 48.4946 28.6784 48.8324 28.8876C48.2059 29.0492 47.6584 29.0009 47.1161 28.981C46.4559 28.9569 45.8166 28.8077 45.2037 28.5559C44.5293 28.2793 44.5251 28.2579 44.8173 27.5519Z" fill="#AF992E"/>
<path fill-rule="evenodd" clip-rule="evenodd" d="M46.6181 29.6781C45.9965 30.1817 45.2458 30.2566 44.4997 30.3142C44.3345 30.3266 44.0764 30.604 43.9609 30.2229C44.0649 29.8063 44.0785 29.2495 44.3749 29.0371C44.6622 28.8315 45.1325 29.1738 45.5175 29.2846C45.8897 29.3915 46.2949 29.4228 46.6181 29.6781Z" fill="#FCDC42"/>
<path fill-rule="evenodd" clip-rule="evenodd" d="M35.4244 34.5339C34.4059 34.6862 33.4455 34.8361 32.4834 34.9721C31.9495 35.0474 31.4121 35.0996 30.8767 35.1628C30.6253 35.1923 30.6065 35.0854 30.7007 34.8794C30.8434 34.5666 31.0948 34.5595 31.3665 34.617C32.2347 34.8002 33.0765 34.7331 33.8855 34.3499C33.9909 34.2999 34.0953 34.2469 34.1954 34.1869C34.8936 33.7707 34.8929 33.77 35.4244 34.5339Z" fill="#AC972D"/>
<path fill-rule="evenodd" clip-rule="evenodd" d="M28.9072 32.4823C27.7795 33.1862 26.5151 33.3982 25.233 33.5481C25.1781 33.1041 25.4824 32.9124 25.8083 32.8374C26.8265 32.6041 27.8515 32.3917 28.9072 32.4823Z" fill="#AF992E"/>
<path fill-rule="evenodd" clip-rule="evenodd" d="M33.5625 23.1607C34.2975 23.2165 35.0109 23.15 35.6888 22.8155C35.9782 22.6735 36.2906 22.5928 36.6203 22.639C36.0822 23.5158 34.6822 23.681 33.9681 23.5648C33.7486 23.5293 33.6067 23.3912 33.5625 23.1607Z" fill="#9B7601"/>
<path fill-rule="evenodd" clip-rule="evenodd" d="M37.1374 62.6443C37.104 62.0711 37.3106 61.5984 37.583 61.1503C38.0028 60.4609 38.5423 59.875 39.134 59.3416C39.9065 58.6448 40.5594 57.7935 41.5316 57.3503C42.2429 57.0264 42.9734 56.7708 43.7699 56.8869C44.6489 57.0151 44.8774 57.4959 44.4711 58.3003C43.3129 60.5941 41.5511 62.33 39.5607 63.8557C39.4675 63.9271 39.3698 63.9931 39.2769 64.0645C38.4073 64.7272 37.5085 64.4044 37.224 63.324C37.1635 63.0936 37.1179 62.8592 37.1374 62.6443Z" fill="#F78682"/>
<path fill-rule="evenodd" clip-rule="evenodd" d="M48.0416 64.0831C47.6124 63.9912 47.2441 63.7852 46.9119 63.5249C45.8604 62.7027 44.8235 61.8611 43.7699 61.0414C43.5546 60.8738 43.5125 60.7609 43.685 60.5208C44.1497 59.8734 44.5887 59.2064 45.0266 58.5395C45.179 58.3083 45.2819 58.2607 45.4586 58.5249C46.54 60.1411 47.3929 61.8742 48.0239 63.7213C48.0476 63.7905 48.0594 63.8651 48.0667 63.9382C48.0702 63.9794 48.0535 64.0224 48.0416 64.0831Z" fill="#AA5D5A"/>
<path fill-rule="evenodd" clip-rule="evenodd" d="M39.4141 64.6238C39.8374 64.2342 40.2586 63.8975 40.7063 63.5946C40.9181 63.4515 41.164 63.4835 41.3877 63.5275C43.0883 63.861 44.7878 64.2062 46.4856 64.5549C46.6111 64.5808 46.8285 64.5318 46.8226 64.7474C46.8184 64.9083 46.6244 64.8948 46.5103 64.9281C45.6977 65.1686 44.8601 65.1341 44.0319 65.0965C42.65 65.034 41.2642 64.9828 39.892 64.7698C39.7362 64.7456 39.5855 64.7236 39.4141 64.6238Z" fill="#AA5D5A"/>
<path fill-rule="evenodd" clip-rule="evenodd" d="M46.8477 64.1479C46.0136 64.1031 45.232 63.9298 44.455 63.7455C43.5777 63.5378 42.7088 63.2913 41.8326 63.0814C41.6031 63.0267 41.514 62.9845 41.6772 62.7501C42.0612 62.2011 42.5509 61.7568 43.025 61.2962C43.1304 61.1942 43.2323 61.2131 43.3395 61.2788C44.6004 62.0576 45.7844 62.9376 46.8227 64.0122C46.8373 64.0286 46.8328 64.0655 46.8477 64.1479Z" fill="#AA5D5A"/>
<path fill-rule="evenodd" clip-rule="evenodd" d="M32.8394 63.6805C32.9059 63.3265 33.1567 63.1603 33.4631 63.0697C34.2322 62.8431 35.0134 62.6712 35.8054 62.5509C36.1397 62.5001 36.3905 62.6102 36.4948 62.9429C36.6566 63.455 36.9133 63.9206 37.1397 64.4007C36.8917 64.7282 36.4656 64.7896 36.0733 64.5552C36.0788 64.4185 36.1839 64.405 36.2792 64.3688C35.8642 64.5314 35.411 64.3322 34.9984 64.5233C34.1689 64.7644 33.5194 64.3386 32.8714 63.9178C32.7973 63.8695 32.7824 63.7693 32.8394 63.6805Z" fill="#FDDD42"/>
<path fill-rule="evenodd" clip-rule="evenodd" d="M32.8234 63.6797C33.206 64.2167 34.4008 64.6194 34.9389 64.3935C35.3201 64.4134 35.7031 64.4127 36.0781 64.5064C36.4437 64.6481 36.7859 64.5444 37.1237 64.3995C37.5672 65.0878 37.5286 65.1926 36.748 65.3982C35.6106 65.6979 34.502 65.6432 33.4356 65.113C32.8498 64.8229 32.6561 64.3601 32.8234 63.6797Z" fill="#AF992D"/>
<path fill-rule="evenodd" clip-rule="evenodd" d="M10.9426 56.451C12.4296 55.8189 13.9482 55.6342 15.4895 56.2032C15.9448 56.3708 16.4175 56.5895 16.558 57.1578C16.3441 57.5132 15.99 57.5193 15.6415 57.5406C14.6637 57.5196 13.6978 57.6794 12.7249 57.7348C12.1196 57.7775 11.5735 57.6319 11.1318 57.1858C10.9307 56.9827 10.7474 56.765 10.9426 56.451Z" fill="#FDDD42"/>
<path fill-rule="evenodd" clip-rule="evenodd" d="M15.654 57.4409C15.9882 57.4534 16.2662 57.2811 16.5597 57.1579C16.671 57.6668 16.4776 58.0042 15.9281 58.2464C15.4105 58.4744 14.8473 58.4698 14.3051 58.571C13.4591 58.7294 12.6236 58.6015 11.7989 58.408C11.3933 58.3128 11.0455 58.0876 10.7797 57.7538C10.4183 57.301 10.4809 56.8305 10.9443 56.4512C10.9648 57.0062 11.6257 57.5844 12.2699 57.6096C12.4153 57.6153 12.56 57.6167 12.7054 57.6196C12.7005 57.7321 12.6191 57.762 12.5328 57.7936C13.4337 57.6494 14.3503 57.7059 15.2529 57.5762C15.3973 57.5553 15.5399 57.5492 15.654 57.4409Z" fill="#AE982D"/>
<path fill-rule="evenodd" clip-rule="evenodd" d="M7.00728 51.8672C7.70364 52.5032 7.59964 53.092 6.73945 53.4181C5.43645 53.9117 4.1206 54.0608 2.78351 53.5701C1.96367 53.2693 1.63113 52.7323 1.844 52.0792C1.85757 52.0401 1.89444 52.0089 1.92088 51.9741C1.99218 51.9659 2.06627 51.9464 2.13618 51.9677C3.77066 52.4716 5.39401 52.4155 7.00728 51.8672Z" fill="#AE982D"/>
<path fill-rule="evenodd" clip-rule="evenodd" d="M7.00046 51.868C6.59488 52.2612 6.04113 52.3549 5.55277 52.3805C4.38231 52.4419 3.18714 52.5513 2.05668 52.0662C2.0052 52.0445 1.96102 52.0058 1.91406 51.9746C1.99093 51.8897 2.0532 51.7697 2.14851 51.7256C3.66403 51.0274 5.19206 50.8179 6.73367 51.6461C6.8328 51.6997 6.91211 51.7931 7.00046 51.868Z" fill="#FDDD42"/>
<path fill-rule="evenodd" clip-rule="evenodd" d="M51.9297 58.579C52.0393 58.3383 52.2653 58.2544 52.4814 58.1728C53.7544 57.6923 55.0616 57.5648 56.398 57.8173C56.6589 57.8666 56.9183 57.8752 57.1799 57.8908C57.5072 57.9103 57.8206 57.9742 57.9991 58.3063C58.0053 58.5471 57.8032 58.5666 57.654 58.6348C57.374 58.7634 57.0686 58.7907 56.7723 58.85C56.2369 58.867 55.7075 59.0169 55.2014 58.9573C55.312 58.9945 55.5016 58.9715 55.5437 59.1902C55.4703 59.301 55.3562 59.3309 55.2407 59.3358C54.312 59.3756 53.384 59.3884 52.4852 59.1011C52.2316 59.0201 51.9359 58.9509 51.9297 58.579Z" fill="#E2AC02"/>
<path fill-rule="evenodd" clip-rule="evenodd" d="M51.9475 58.579C52.0115 58.7214 52.1166 58.8223 52.2595 58.8734C53.3315 59.2598 54.43 59.3049 55.5448 59.1338C55.7257 58.9388 55.9803 59.0482 56.1883 58.9693C56.3821 58.8958 56.6196 58.9466 56.7699 58.7516C57.1849 58.6007 57.6604 58.628 58.0172 58.3066C58.3223 58.8681 58.2604 59.1721 57.7571 59.5056C57.2718 59.8266 56.7327 59.9811 56.1598 60.0557C55.1598 60.1853 54.1667 60.2364 53.1667 60.0425C52.799 59.9715 52.4717 59.8255 52.1653 59.6253C51.7263 59.3387 51.6779 59.0709 51.9475 58.579Z" fill="#9D7701"/>
<path fill-rule="evenodd" clip-rule="evenodd" d="M19.6324 60.3091C21.2112 59.5591 22.7222 59.7697 24.1862 60.6462C23.789 60.9661 23.3358 61.1611 22.8426 61.2676C22.1918 61.1121 21.6196 61.4228 21.0237 61.5922C20.7406 61.6956 20.4543 61.6885 20.1705 61.6054C19.5214 61.4157 19.3294 60.9509 19.6324 60.3091Z" fill="#FCDD42"/>
<path fill-rule="evenodd" clip-rule="evenodd" d="M22.8556 61.1811C23.3141 61.0522 23.704 60.7485 24.1729 60.6462C24.6811 61.0749 24.6261 61.7052 24.0153 61.9244C22.6796 62.4034 21.3116 62.6261 19.9105 62.2195C19.4538 62.0867 19.1543 61.7795 19.1021 61.278C19.0572 60.8416 19.1877 60.4882 19.619 60.3096C19.6176 60.3536 19.6169 60.3976 19.6155 60.442C19.5891 61.3629 20.1439 61.7649 21.0211 61.4606C21.0559 61.5074 21.0966 61.5799 21.1474 61.5707C21.7227 61.4641 22.328 61.4982 22.8556 61.1811Z" fill="#AF992D"/>
<path fill-rule="evenodd" clip-rule="evenodd" d="M66.3084 55.2802C66.7247 55.8694 66.6527 56.2707 66.0197 56.5431C64.9021 57.0246 63.7688 56.8826 62.6704 56.4806C62.1451 56.2881 61.9183 55.3828 62.7194 54.9297C63.5271 55.7682 64.5219 55.5689 65.5 55.4453C65.7724 55.4105 66.0266 55.2706 66.3084 55.2802Z" fill="#9C7702"/>
<path fill-rule="evenodd" clip-rule="evenodd" d="M66.3155 55.279C65.7475 55.6249 65.1117 55.6934 64.4786 55.6689C64.1078 55.654 63.7189 55.7041 63.3561 55.5442C63.0681 55.4178 62.8059 55.2733 62.7266 54.9284C64.0108 54.0648 65.3781 54.1983 66.3155 55.279Z" fill="#E1AC02"/>
<path fill-rule="evenodd" clip-rule="evenodd" d="M55.8535 40.5153C55.9241 40.0774 56.088 39.6364 56.3095 39.2166C56.3753 39.0905 56.4793 39.0028 56.624 39.0209C56.7822 39.0408 56.904 39.153 56.9249 39.305C57.0035 39.8725 56.9304 40.4262 56.6577 40.9291C56.5464 41.1347 56.32 41.1354 56.1109 41.058C55.8751 40.9703 55.842 40.7714 55.8535 40.5153Z" fill="#020203"/>
<path fill-rule="evenodd" clip-rule="evenodd" d="M58.1643 34.3064C58.1393 34.7325 58.0475 35.1342 57.7024 35.4197C57.4102 35.6608 57.14 35.5667 57.0429 35.1992C56.9205 34.735 57.3988 33.7396 57.8228 33.551C57.9546 33.4924 58.0172 33.5382 58.053 33.6494C58.1212 33.8617 58.1803 34.0773 58.1643 34.3064Z" fill="#030203"/>
<path fill-rule="evenodd" clip-rule="evenodd" d="M55.1445 44.1602C55.5052 44.8012 55.5608 45.4276 55.3713 46.0772C55.2986 46.3275 55.1567 46.5594 54.8516 46.5097C54.5431 46.4589 54.5716 46.1926 54.5643 45.9511C54.5438 45.2955 54.6979 44.7056 55.1445 44.1602Z" fill="#020202"/>
<path fill-rule="evenodd" clip-rule="evenodd" d="M25.2182 50.2891C25.1931 49.8395 25.2203 49.4656 25.5083 49.158C25.6523 49.0042 25.7462 48.9961 25.8798 49.1772C26.1191 49.4997 26.1222 50.5452 25.8533 50.8545C25.7608 50.96 25.6345 51.0985 25.4898 51.0452C25.3444 50.9919 25.2349 50.8485 25.221 50.6737C25.2081 50.5271 25.2182 50.3786 25.2182 50.2891Z" fill="#030203"/>
<path fill-rule="evenodd" clip-rule="evenodd" d="M26.1327 43.7779C26.1178 44.1892 25.9362 44.5152 25.6381 44.7798C25.5919 44.8203 25.524 44.8224 25.4885 44.7585C25.3066 44.431 25.1713 44.0908 25.2489 43.7016C25.251 43.687 25.2569 43.6732 25.2604 43.6586C25.3452 43.3269 25.4743 42.8248 25.7536 42.8645C26.0479 42.9064 26.1042 43.4175 26.1327 43.7779Z" fill="#020202"/>
<path fill-rule="evenodd" clip-rule="evenodd" d="M26.4466 39.1695C26.4302 39.46 26.4003 39.7381 26.1353 39.9156C25.9999 40.0055 25.8688 39.9632 25.7773 39.8677C25.5606 39.6432 25.5669 39.3652 25.6382 39.0793C25.7158 38.77 25.8779 38.3228 26.1057 38.3541C26.4066 38.3949 26.4215 38.8506 26.4466 39.1695Z" fill="#040303"/>
<path fill-rule="evenodd" clip-rule="evenodd" d="M7.10027 31.4501C7.10653 31.7495 7.07384 32.0407 6.98201 32.3255C6.84531 32.752 6.73817 32.7861 6.39033 32.496C5.90788 32.0933 6.01606 31.5368 6.0505 31.0133C6.06754 30.7498 6.22789 30.5676 6.49677 30.4735C6.81887 30.3613 7.02792 30.3737 7.04566 30.7885C7.0554 31.0094 7.08114 31.2296 7.10027 31.4501Z" fill="#010102"/>
<path fill-rule="evenodd" clip-rule="evenodd" d="M7.1562 37.3108C7.05637 37.7678 7.15412 38.2391 6.85672 38.6226C6.68906 38.8396 6.54089 38.8833 6.32349 38.6627C6.03061 38.3651 5.96279 38.0161 6.05253 37.6371C6.12036 37.3505 6.2414 37.0757 6.35688 36.804C6.41045 36.6772 6.44036 36.495 6.63411 36.5042C6.83098 36.5131 6.9555 36.6427 7.01985 36.82C7.08003 36.9855 7.1155 37.1605 7.1562 37.3108Z" fill="#010101"/>
<path fill-rule="evenodd" clip-rule="evenodd" d="M22.3716 48.709C22.9326 49.3947 23.0937 50.0823 22.9396 50.8494C22.8926 51.0795 22.7834 51.2802 22.509 51.2606C22.2359 51.2414 22.1013 51.0596 22.0714 50.7943C21.9945 50.1029 22.1983 49.4551 22.3716 48.709Z" fill="#020102"/>
<path fill-rule="evenodd" clip-rule="evenodd" d="M23.569 38.0638C23.576 38.3791 23.5043 38.6799 23.3965 38.9715C23.3373 39.1299 23.2375 39.2634 23.0556 39.2726C22.8632 39.2826 22.7307 39.1704 22.6358 39.0074C22.3693 38.5531 22.5718 37.6085 22.9906 37.3034C23.178 37.1663 23.3057 37.231 23.4354 37.3876C23.602 37.59 23.5805 37.8269 23.569 38.0638Z" fill="#010101"/>
<path fill-rule="evenodd" clip-rule="evenodd" d="M22.3234 43.1872C22.297 42.7099 22.4361 42.2646 22.8358 41.9201C22.9777 41.7983 23.0539 41.8164 23.1189 41.99C23.3008 42.472 23.3669 42.9606 23.2288 43.466C23.1405 43.7884 22.9895 44.0747 22.6087 44.0093C22.2452 43.9472 22.345 43.6116 22.3248 43.3591C22.3206 43.3151 22.3234 43.2703 22.3234 43.1872Z" fill="#020101"/>
<path fill-rule="evenodd" clip-rule="evenodd" d="M6.74941 42.4658C6.76854 42.7872 6.71602 43.077 6.47984 43.322C6.27601 43.5323 6.13757 43.4935 6.01165 43.2549C5.75147 42.7616 5.81721 42.2524 5.97095 41.7527C6.02661 41.5726 6.21757 41.5172 6.40296 41.5176C6.59741 41.5176 6.61758 41.6703 6.66871 41.8113C6.74733 42.0251 6.73654 42.2463 6.74941 42.4658Z" fill="#010101"/>
<path fill-rule="evenodd" clip-rule="evenodd" d="M5.8565 22.5742C5.83424 22.6903 5.81163 22.8061 5.78937 22.9219C5.75667 23.0916 5.79493 23.3409 5.61406 23.3878C5.41788 23.4386 5.28848 23.2131 5.18274 23.0646C4.94621 22.7326 4.89995 22.3551 5.03873 21.9662C5.10134 21.7929 5.19978 21.6409 5.41092 21.6487C5.60397 21.6562 5.68536 21.8089 5.73963 21.963C5.8078 22.1576 5.87076 22.3579 5.8565 22.5742Z" fill="#020202"/>
<path fill-rule="evenodd" clip-rule="evenodd" d="M4.90636 17.0867C4.90636 16.9244 4.90636 16.7621 4.90636 16.6001C4.90496 16.4318 4.97244 16.3182 5.14079 16.2787C5.2841 16.2454 5.39089 16.2954 5.48376 16.408C5.80586 16.799 5.54289 17.6375 5.05592 17.7639C4.92757 17.7973 4.90914 17.7124 4.90775 17.6176C4.90496 17.4407 4.90705 17.2635 4.90636 17.0867Z" fill="#040303"/>
<path fill-rule="evenodd" clip-rule="evenodd" d="M13.5288 4.57513C13.3034 4.58081 13.0933 4.51724 12.8937 4.43165C12.7096 4.35246 12.647 4.1891 12.6954 3.99093C12.7451 3.78851 12.895 3.75725 13.0683 3.77963C13.2408 3.80165 13.414 3.82047 13.5831 3.85456C13.8126 3.90037 14.0613 3.93695 14.0186 4.27752C13.9792 4.59217 13.7441 4.56874 13.5288 4.57513Z" fill="#030202"/>
<path fill-rule="evenodd" clip-rule="evenodd" d="M16.898 8.29473C16.8559 8.41831 16.8368 8.52343 16.7874 8.6108C16.7188 8.73225 16.7067 8.92509 16.5237 8.93148C16.3171 8.93894 16.332 8.7287 16.2941 8.60618C16.21 8.33983 16.0917 8.08058 16.0861 7.7915C16.0826 7.60825 16.1289 7.463 16.324 7.42465C16.4959 7.39056 16.5943 7.49035 16.6513 7.64696C16.7334 7.86715 16.8183 8.08626 16.898 8.29473Z" fill="#030202"/>
<path fill-rule="evenodd" clip-rule="evenodd" d="M9.12798 6.00297C9.28485 5.99054 9.29494 6.09459 9.26259 6.20362C9.19058 6.44475 9.11023 6.68518 8.91266 6.85742C8.77422 6.97852 8.62326 7.21362 8.45143 7.09003C8.32169 6.99663 8.36448 6.71678 8.42917 6.54099C8.54465 6.2235 8.81701 6.07825 9.12798 6.00297Z" fill="#030302"/>
<path fill-rule="evenodd" clip-rule="evenodd" d="M42.4316 39.6966C42.4678 39.2601 42.2591 38.8634 41.9777 38.487C41.4337 37.7583 41.473 36.7568 42.0626 36.0692C42.6678 35.3639 43.6963 35.4957 44.0804 36.3462C44.3934 37.0398 44.471 37.7561 44.0362 38.4305C43.6883 38.9714 43.7767 39.5709 43.7339 40.1575C43.696 40.6782 43.5144 40.8319 43.0055 40.8032C42.5669 40.778 42.4087 40.4885 42.4316 39.6966Z" fill="#010101"/>
<path fill-rule="evenodd" clip-rule="evenodd" d="M23.4549 21.7353C23.5196 22.1107 23.4184 22.42 23.0928 22.577C22.7523 22.7403 22.482 22.5194 22.2319 22.3106C21.8969 22.0304 21.7592 21.627 21.6924 21.2228C21.6448 20.9348 21.9547 20.8343 22.1564 20.7089C22.4528 20.525 22.7672 20.4959 23.0479 20.7363C23.3516 20.997 23.5377 21.3226 23.4549 21.7353Z" fill="#F78782"/>
<path fill-rule="evenodd" clip-rule="evenodd" d="M23.3594 23.2133C25.2039 22.4182 27.0259 21.7956 29.0653 21.8844C28.5901 22.2584 23.8846 23.3533 23.3594 23.2133Z" fill="#050403"/>
<path fill-rule="evenodd" clip-rule="evenodd" d="M27.1515 20.7824C27.1286 21.0072 27.1087 21.3144 26.6875 21.2984C26.0718 21.2746 25.7317 20.9064 25.7424 20.2732C25.7494 19.8356 25.9529 19.5934 26.3164 19.5899C26.7699 19.5853 27.1571 20.1013 27.1515 20.7824Z" fill="#F78782"/>
<path fill-rule="evenodd" clip-rule="evenodd" d="M30.2173 19.5421C30.2114 19.6458 30.2166 19.7512 30.1982 19.8524C30.1171 20.2953 29.859 20.5251 29.5004 20.4839C29.1233 20.4409 28.8854 20.1291 28.899 19.6958C28.9084 19.3684 29.0621 19.0964 29.2569 18.8584C29.4072 18.6745 29.6395 18.6453 29.8601 18.71C30.0611 18.7696 30.1495 18.9532 30.1936 19.1439C30.2232 19.2714 30.211 19.4089 30.2173 19.5421Z" fill="#F78782"/>
<path fill-rule="evenodd" clip-rule="evenodd" d="M26.4511 23.7956C26.2365 23.873 26.025 23.9621 25.8062 24.0225C25.6838 24.0563 25.5297 24.2328 25.4292 24.0538C25.3067 23.8382 25.5846 23.8254 25.6615 23.7047C26.0215 23.6081 26.3815 23.5097 26.7429 23.4156C26.8184 23.3957 26.9176 23.3151 26.9652 23.4373C27.0229 23.5839 26.8925 23.5942 26.8021 23.6322C26.6828 23.6816 26.5673 23.7405 26.4511 23.7956Z" fill="#0E0B05"/>
<path fill-rule="evenodd" clip-rule="evenodd" d="M37.3047 7.03827C37.3047 7.05318 37.304 7.06774 37.3047 7.08301C37.3162 7.46656 37.1742 7.79825 36.8741 8.00707C36.6674 8.15126 36.5071 7.90373 36.3586 7.78689C36.0577 7.55002 35.8619 7.24602 35.9516 6.82838C36.0563 6.34114 36.514 5.85461 36.8212 5.89935C37.112 5.94126 37.3068 6.4008 37.3047 7.03827Z" fill="#030303"/>
<path fill-rule="evenodd" clip-rule="evenodd" d="M40.7246 7.38458C40.6704 7.58523 40.6071 7.81252 40.3319 7.81216C40.1486 7.81216 40.007 7.69035 39.9469 7.51101C39.9155 7.4208 40.3702 6.92752 40.4488 6.95735C40.6276 7.02483 40.7229 7.1644 40.7246 7.38458Z" fill="#080604"/>
<path fill-rule="evenodd" clip-rule="evenodd" d="M32.7671 7.34431C32.7486 7.58154 32.678 7.78858 32.397 7.79959C32.1966 7.8074 32.0547 7.70477 32.0547 7.48494C32.0547 7.15218 32.3191 7.07298 32.5566 7.03072C32.7573 6.99485 32.7608 7.18769 32.7671 7.34431Z" fill="#080606"/>
<path fill-rule="evenodd" clip-rule="evenodd" d="M61.7576 46.102C61.7556 46.5331 61.4818 46.879 61.1434 46.879C60.8112 46.879 60.4334 46.456 60.4456 46.0984C60.4592 45.7245 60.7785 45.4361 61.1834 45.4336C61.566 45.4311 61.7597 45.657 61.7576 46.102Z" fill="#F78782"/>
<path fill-rule="evenodd" clip-rule="evenodd" d="M58.8799 45.4564C58.8764 45.9187 58.5978 46.2632 58.2347 46.2462C57.8277 46.2266 57.7401 45.9308 57.7345 45.597C57.7275 45.1485 58.0041 44.8214 58.3547 44.8303C58.682 44.8377 58.8838 45.0781 58.8799 45.4564Z" fill="#F78782"/>
<path fill-rule="evenodd" clip-rule="evenodd" d="M64.2892 45.7979C64.4666 45.7961 64.7261 46.0216 64.7177 46.3128C64.709 46.6331 64.397 46.9773 64.1104 46.951C63.7525 46.918 63.6179 46.6399 63.6172 46.3302C63.6165 46.0227 63.781 45.7986 64.2892 45.7979Z" fill="#F78881"/>
<path fill-rule="evenodd" clip-rule="evenodd" d="M66.5175 45.5225C66.714 45.5296 66.8987 45.6255 66.9144 45.9014C66.9356 46.2572 66.6093 46.7075 66.3463 46.6905C66.0813 46.6735 65.9129 46.5115 65.8851 46.2445C65.8517 45.9309 66.1895 45.5306 66.5175 45.5225Z" fill="#F78881"/>
<path fill-rule="evenodd" clip-rule="evenodd" d="M51.6069 7.40549C51.5328 7.6033 51.594 7.89699 51.2292 7.79152C50.81 7.67113 50.4622 6.88699 50.6726 6.52298C50.7283 6.42638 50.7589 6.34825 50.8935 6.43207C51.2632 6.66255 51.4737 7.00241 51.6069 7.40549Z" fill="#040303"/>
<path fill-rule="evenodd" clip-rule="evenodd" d="M48.8834 4.12604C48.6619 4.1129 48.5036 3.919 48.4125 3.67644C48.3119 3.41151 48.2869 3.12669 48.4173 2.86283C48.4695 2.75913 48.5857 2.74883 48.6733 2.84969C48.8949 3.10503 49.1346 3.35185 49.2751 3.66259C49.392 3.91971 49.2229 4.13776 48.8834 4.12604Z" fill="#040404"/>
<path fill-rule="evenodd" clip-rule="evenodd" d="M19.2656 7.16504C19.6903 7.29253 19.9109 7.54716 20.026 7.90976C20.0945 8.12745 20.0444 8.30928 19.8249 8.37889C19.6239 8.44281 19.4893 8.33059 19.4423 8.12142C19.3741 7.82026 19.2701 7.5255 19.2656 7.16504Z" fill="#070605"/>
<path fill-rule="evenodd" clip-rule="evenodd" d="M19.04 4.83369C18.2932 4.48211 18.1969 4.25447 18.5454 3.73633C18.703 4.08649 18.8533 4.41961 19.04 4.83369Z" fill="#090807"/>
<path fill-rule="evenodd" clip-rule="evenodd" d="M26.0078 34.4707C26.7991 34.367 27.4332 33.8042 28.2089 34.3202C27.4983 34.5134 26.8527 34.8401 26.0078 34.4707Z" fill="#0B0904"/>
<path fill-rule="evenodd" clip-rule="evenodd" d="M23.4453 28.7918C23.5994 28.4836 23.7559 28.3362 24.0234 28.354C24.1212 28.3607 24.2436 28.3323 24.2707 28.4712C24.302 28.6299 24.1667 28.6171 24.0746 28.6402C23.8951 28.685 23.7142 28.7272 23.4453 28.7918Z" fill="#140E04"/>
<path fill-rule="evenodd" clip-rule="evenodd" d="M28.4531 27.968C28.5658 27.4414 28.8465 27.4048 29.3005 27.5081C28.9898 27.6768 28.7582 27.8026 28.4531 27.968Z" fill="#171102"/>
<path fill-rule="evenodd" clip-rule="evenodd" d="M57.7514 51.3047C57.3744 51.4627 56.9761 51.5373 56.5625 51.5163C56.9288 51.2901 57.3514 51.3739 57.7514 51.3047Z" fill="#4A3804"/>
<path fill-rule="evenodd" clip-rule="evenodd" d="M14.3343 28.3534C13.7242 29.0061 13.0115 29.0058 12.2031 28.695C12.3384 28.6311 12.4341 28.586 12.5304 28.5406C13.0094 28.429 13.4891 28.3172 13.9674 28.205C14.1246 28.1684 14.2908 28.1023 14.3343 28.3534Z" fill="#070502"/>
<path fill-rule="evenodd" clip-rule="evenodd" d="M30.3516 24.3633C30.5025 23.8387 30.7471 23.8402 31.0695 24.0195C30.8952 24.2312 30.6424 24.2127 30.3516 24.3633Z" fill="#2C1F03"/>
<path fill-rule="evenodd" clip-rule="evenodd" d="M22.9492 31.2122C22.9485 31.3255 22.9242 31.4363 22.784 31.3852C22.5895 31.3141 22.3593 31.317 22.2188 31.1252C22.4932 30.8855 22.705 31.187 22.9492 31.2122Z" fill="#140F05"/>
<path fill-rule="evenodd" clip-rule="evenodd" d="M17.8867 30.7756C17.2439 31.1393 16.6178 30.7742 15.9844 30.7475C16.6195 30.3491 17.2543 30.4656 17.8867 30.7756Z" fill="#060403"/>
<path fill-rule="evenodd" clip-rule="evenodd" d="M28.3805 30.7629C27.7662 31.08 27.1196 31.2374 26.4288 31.2107C26.1964 31.2018 26.0702 31.128 26.1203 30.8698C26.7404 30.7537 27.362 30.6397 27.9812 30.5203C28.1906 30.4799 28.3548 30.498 28.3805 30.7629Z" fill="#0A0804"/>
<path fill-rule="evenodd" clip-rule="evenodd" d="M33.5218 25.6055C33.3478 25.5398 33.1739 25.4737 33 25.4077C33 25.3814 33 25.3551 33 25.3288C33.4511 25.2536 33.9023 25.1783 34.3621 25.1016C34.3764 25.3132 34.2087 25.3715 34.1433 25.4947C33.951 25.6183 33.7322 25.5899 33.5218 25.6055Z" fill="#090603"/>
<path fill-rule="evenodd" clip-rule="evenodd" d="M36.0923 64.5082C35.6954 64.6452 35.3218 64.5476 34.9531 64.3952C35.4098 64.2127 35.8749 64.3821 36.348 64.3821C36.2624 64.4243 36.1772 64.4659 36.0923 64.5082Z" fill="#322B0D"/>
<path fill-rule="evenodd" clip-rule="evenodd" d="M15.6442 57.4397C15.6849 57.6794 15.5436 57.6901 15.3624 57.7025C14.4031 57.7671 13.4451 57.8477 12.4858 57.9138C12.3609 57.9223 12.1439 58.0342 12.1331 57.808C12.1237 57.6176 12.3397 57.7302 12.4496 57.6915C12.5303 57.6631 12.6135 57.6425 12.6949 57.6183C13.5359 57.5455 14.3777 57.4738 15.2188 57.3996C15.3638 57.3871 15.5085 57.3541 15.6442 57.4397Z" fill="#060503"/>
<path fill-rule="evenodd" clip-rule="evenodd" d="M2.94531 52.756C4.15543 52.67 5.36451 52.5837 6.57463 52.4971C6.57811 52.5383 6.58089 52.5788 6.58471 52.6196C5.41494 53.2226 4.17456 52.9112 2.94531 52.756Z" fill="#050502"/>
<path fill-rule="evenodd" clip-rule="evenodd" d="M56.7517 58.751C56.7061 58.9296 56.6741 58.9658 56.5072 59.0227C56.1885 59.1313 55.855 59.1065 55.527 59.1331C55.2567 59.0852 54.9861 59.0372 54.7158 58.9896C54.7137 58.9605 54.7123 58.9321 54.7109 58.9037C55.391 58.8529 56.071 58.8018 56.7517 58.751Z" fill="#191202"/>
<path fill-rule="evenodd" clip-rule="evenodd" d="M22.8495 61.181C22.8867 61.3657 22.8182 61.4357 22.6293 61.4623C22.1597 61.5287 21.694 61.6221 21.2272 61.7095C21.0098 61.7503 20.9179 61.6917 21.0153 61.4602C21.472 61.3408 21.9047 61.1249 22.3861 61.1068C22.5451 61.1011 22.7023 61.1114 22.8495 61.181Z" fill="#0D0B04"/>
<path fill-rule="evenodd" clip-rule="evenodd" d="M64.9737 55.9507C64.5545 56.114 64.149 56.1069 63.75 56.1421C64.094 55.7752 64.5003 55.7852 64.9737 55.9507Z" fill="#1E1702"/>
</svg>
