<svg width="192" height="161" viewBox="0 0 192 161" fill="none" xmlns="http://www.w3.org/2000/svg">
<g clip-path="url(#clip0_3015_33253)">
<path d="M62.893 71.4704C62.893 69.9761 63.4375 58.6011 76.5055 56.0527C80.9279 55.1055 85.5265 55.4042 89.7891 56.9155C94.0518 58.4269 97.8112 61.0916 100.649 64.6129C100.649 64.6129 119.533 58.0335 131.373 71.4125C141.973 83.3899 136.864 95.3441 136.864 95.3441C136.864 95.3441 150.465 108.086 138.625 124.743C126.785 141.4 109.662 131.763 109.662 131.763C109.662 131.763 109.002 148.883 86.8278 147.563C64.6539 146.242 66.8667 127.373 66.8667 127.373C46.4537 129.353 35.6911 114.202 40.9624 104.113C46.2336 94.0236 58.7339 95.3441 58.7339 95.3441C58.7339 95.3441 45.5617 88.533 49.4659 79.1271C52.339 72.2233 59.29 71.4009 62.893 71.4704Z" fill="#C4BAB7"/>
<path d="M70.8741 98.5411C70.6669 98.8546 70.4922 99.1884 70.3528 99.5373L70.1558 100.001L70.0052 100.522C69.9009 100.868 69.8197 101.22 69.7619 101.576C69.6808 101.935 69.6692 102.306 69.6229 102.653C69.6 103.012 69.6 103.372 69.6229 103.731C69.6226 104.087 69.6458 104.443 69.6924 104.796C69.7402 105.139 69.8059 105.479 69.8894 105.816C69.9704 106.14 70.1211 106.441 70.2137 106.754C70.3064 107.067 70.5265 107.31 70.6771 107.599C70.8278 107.889 71.071 108.063 71.2912 108.271C71.5113 108.48 71.7661 108.654 72.0326 108.793C72.2991 108.932 72.5887 109.047 72.8899 109.14L73.8515 109.325C74.1874 109.325 74.535 109.325 74.8825 109.325C75.2355 109.342 75.5891 109.319 75.9368 109.256L77.0026 109.105H77.0837C77.3824 109.072 77.6822 109.156 77.92 109.34C78.1578 109.524 78.3148 109.793 78.3581 110.09C78.3697 110.178 78.3697 110.268 78.3581 110.356C78.3581 110.797 78.2886 111.329 78.2886 111.827C78.2886 112.326 78.2886 112.824 78.2886 113.322C78.2886 113.82 78.4044 114.295 78.4971 114.77C78.4971 115.013 78.6245 115.233 78.6825 115.465C78.7405 115.691 78.818 115.912 78.9142 116.125C78.9935 116.336 79.0944 116.537 79.2154 116.727C79.3158 116.923 79.4404 117.106 79.5861 117.272C79.7148 117.439 79.8626 117.59 80.0263 117.724C80.1855 117.865 80.356 117.992 80.5361 118.106L81.1269 118.395C81.3355 118.453 81.5671 118.488 81.7873 118.534C82.0169 118.599 82.2561 118.622 82.494 118.604H83.2238H83.3397C83.5005 118.61 83.6525 118.679 83.763 118.796C83.8735 118.913 83.9337 119.068 83.9305 119.229C83.9263 119.372 83.8716 119.509 83.7761 119.615C83.6806 119.721 83.5506 119.789 83.4092 119.809L82.5403 119.936C82.2409 119.983 81.9361 119.983 81.6367 119.936C81.3354 119.936 81.0226 119.936 80.7214 119.832L79.8062 119.542C79.5133 119.4 79.2307 119.237 78.9605 119.056C78.6952 118.879 78.4538 118.669 78.2422 118.43C78.0094 118.211 77.8068 117.962 77.6398 117.689C77.4512 117.441 77.2919 117.173 77.1648 116.889C77.02 116.625 76.8961 116.35 76.7941 116.067C76.7014 115.777 76.5856 115.499 76.5045 115.221C76.3449 114.659 76.2249 114.086 76.1453 113.507C76.0758 112.939 76.0295 112.349 76.0063 111.793C75.972 111.214 75.972 110.634 76.0063 110.055L77.3733 111.295L76.1106 111.48C75.6831 111.562 75.248 111.597 74.813 111.584C74.3728 111.584 73.9326 111.584 73.4923 111.584L72.1369 111.295C71.6966 111.156 71.268 110.924 70.8278 110.739C70.4203 110.487 70.033 110.204 69.6692 109.893C69.3399 109.524 69.0305 109.137 68.7424 108.735C68.5109 108.33 68.302 107.912 68.1168 107.484C67.9598 107.061 67.8358 106.628 67.7461 106.186C67.6737 105.753 67.6235 105.316 67.5955 104.877C67.5723 104.445 67.5723 104.012 67.5955 103.58C67.6228 103.157 67.6731 102.735 67.7461 102.317C67.8138 101.898 67.9106 101.484 68.0357 101.078C68.161 100.684 68.3079 100.297 68.476 99.9196L68.7308 99.3288L69.0784 98.738C69.2933 98.3873 69.5458 98.0611 69.8314 97.765C69.9318 97.6383 70.0781 97.5562 70.2387 97.5367C70.3992 97.5172 70.5609 97.5618 70.6887 97.6608C70.7994 97.753 70.8748 97.8806 70.9022 98.022C70.9296 98.1634 70.9074 98.3099 70.8393 98.4369L70.8741 98.5411Z" fill="#9E9592"/>
<path d="M110.925 117.481C112.129 118.355 113.473 119.021 114.898 119.45C115.257 119.519 115.593 119.635 115.953 119.67C116.293 119.729 116.638 119.76 116.984 119.763C117.321 119.765 117.659 119.738 117.991 119.681C118.318 119.62 118.636 119.523 118.941 119.392C119.25 119.285 119.542 119.137 119.81 118.952L120.019 118.824H119.961L120.077 118.732L120.54 118.361C120.83 118.106 121.201 117.863 121.421 117.62L122.046 116.878C122.246 116.615 122.425 116.336 122.579 116.044C122.742 115.764 122.871 115.464 122.961 115.152C123.055 114.854 123.121 114.548 123.158 114.237V113.785C123.158 113.67 123.158 113.45 123.158 113.438C123.036 113.204 123.011 112.932 123.089 112.68C123.167 112.428 123.342 112.217 123.575 112.094C123.756 111.997 123.963 111.961 124.166 111.99H124.456C124.871 112.042 125.289 112.069 125.707 112.071C126.135 112.106 126.565 112.106 126.993 112.071C127.796 112.014 128.581 111.81 129.31 111.469C129.627 111.306 129.916 111.095 130.167 110.843C130.407 110.596 130.603 110.31 130.747 109.998C130.747 109.847 130.897 109.627 130.92 109.546L131.071 108.851C131.165 108.439 131.227 108.021 131.256 107.6C131.28 107.187 131.28 106.773 131.256 106.36C131.21 105.94 131.14 105.522 131.048 105.109C130.832 104.268 130.517 103.456 130.11 102.688C129.889 102.306 129.692 101.912 129.438 101.53C129.183 101.148 128.916 100.8 128.638 100.441C128.36 100.082 128.059 99.7577 127.746 99.4334C127.433 99.1091 127.097 98.7731 126.785 98.4951C126.723 98.4439 126.672 98.3808 126.636 98.3098C126.599 98.2387 126.576 98.1609 126.57 98.0811C126.563 98.0013 126.573 97.921 126.598 97.8449C126.623 97.7688 126.663 97.6985 126.715 97.6379C126.809 97.5208 126.943 97.4436 127.092 97.4221C127.24 97.4006 127.391 97.4364 127.514 97.5221C127.919 97.7995 128.305 98.1013 128.673 98.4256C129.055 98.7441 129.419 99.0845 129.762 99.445C130.098 99.8041 130.434 100.175 130.747 100.603C131.066 100.993 131.36 101.404 131.627 101.831C132.162 102.71 132.586 103.652 132.89 104.634C133.036 105.137 133.152 105.647 133.237 106.163C133.3 106.69 133.327 107.22 133.319 107.75C133.321 108.279 133.27 108.807 133.168 109.326L133.029 110.021C132.948 110.321 132.848 110.615 132.728 110.901C132.489 111.459 132.152 111.969 131.731 112.407C131.329 112.84 130.854 113.2 130.33 113.473C129.354 113.972 128.293 114.282 127.202 114.388C126.686 114.446 126.168 114.469 125.649 114.457C125.121 114.449 124.595 114.403 124.074 114.318L125.371 112.917C125.469 113.432 125.489 113.959 125.429 114.48C125.367 114.952 125.263 115.418 125.116 115.87C124.972 116.314 124.782 116.741 124.549 117.145C124.323 117.549 124.068 117.937 123.784 118.303L122.822 119.334C122.527 119.609 122.214 119.865 121.884 120.098L121.409 120.458L121.096 120.689L120.795 120.851C120.392 121.084 119.965 121.27 119.521 121.407C119.086 121.56 118.635 121.661 118.177 121.709C117.726 121.743 117.273 121.743 116.821 121.709C115.946 121.639 115.084 121.448 114.261 121.141C113.479 120.823 112.727 120.435 112.014 119.983C111.305 119.539 110.641 119.027 110.032 118.454C109.915 118.348 109.842 118.201 109.83 118.044C109.818 117.886 109.867 117.73 109.967 117.608C110.067 117.485 110.21 117.406 110.367 117.387C110.524 117.368 110.682 117.409 110.809 117.504L110.925 117.481Z" fill="#9E9592"/>
<path d="M34.3015 76.3469C34.3015 76.3469 33.2821 76.0109 31.8223 75.397C30.3626 74.7831 28.4395 73.868 26.5859 72.8718C24.7323 71.8756 22.9018 70.8099 21.5579 69.9527C20.2141 69.0955 19.3683 68.4469 19.3683 68.4469C19.2514 68.3566 19.1702 68.2279 19.139 68.0835C19.1079 67.9391 19.1289 67.7883 19.1983 67.6579C19.2677 67.5275 19.3809 67.4259 19.5181 67.371C19.6552 67.3161 19.8074 67.3115 19.9476 67.358C19.9476 67.358 20.9671 67.6939 22.4152 68.331C23.8634 68.9681 25.7981 69.8485 27.6633 70.8331C29.5285 71.8177 31.3589 72.8834 32.6912 73.7521C34.0235 74.6209 34.8692 75.2696 34.8692 75.2696C34.9337 75.3194 34.9875 75.3815 35.0277 75.4523C35.0679 75.5232 35.0936 75.6013 35.1033 75.6821C35.113 75.763 35.1065 75.845 35.0842 75.9233C35.0619 76.0016 35.0243 76.0747 34.9735 76.1383C34.8953 76.2365 34.7894 76.3088 34.6696 76.346C34.5498 76.3832 34.4215 76.3835 34.3015 76.3469Z" fill="#968680"/>
<path d="M29.9794 128.601C29.9794 128.601 28.2184 129.492 25.5307 130.709C24.1868 131.299 22.6228 132.029 20.8966 132.736C19.1705 133.442 17.4211 134.195 15.5675 134.925C13.7139 135.655 11.9066 136.35 10.1804 136.999C8.45423 137.647 6.82073 138.157 5.44211 138.69C4.06348 139.223 2.87021 139.547 2.05926 139.848L0.761712 140.254C0.608084 140.313 0.436956 140.31 0.285959 140.244C0.134961 140.177 0.0164715 140.054 -0.0434434 139.9C-0.103358 139.747 -0.0997915 139.576 -0.0335263 139.425C0.0327388 139.274 0.156266 139.155 0.309894 139.095L1.4684 138.504C2.25619 138.145 3.35679 137.589 4.70066 136.999C6.04453 136.408 7.62011 135.69 9.3347 134.971C11.0493 134.253 12.8102 133.512 14.6754 132.771C16.5406 132.029 18.3247 131.334 20.0509 130.697C21.7771 130.06 23.4106 129.539 24.7892 128.994C27.5812 128.021 29.4233 127.465 29.4233 127.465C29.5769 127.405 29.748 127.409 29.899 127.475C30.05 127.542 30.1685 127.665 30.2284 127.819C30.2883 127.972 30.2848 128.143 30.2185 128.294C30.1523 128.445 30.0287 128.564 29.8751 128.624L29.9794 128.601Z" fill="#968680"/>
<path d="M68.8942 44.8057C68.8942 44.8057 68.7436 44.4698 68.5119 43.879C68.2802 43.2882 67.9442 42.431 67.5966 41.4001C66.8552 39.3382 65.9747 36.5697 65.1869 33.7665C64.3991 30.9633 63.6924 28.1369 63.229 26.0055C62.9858 24.9399 62.8352 24.0363 62.6961 23.4108C62.5571 22.7853 62.5224 22.4262 62.5339 22.4262C62.5206 22.284 62.5572 22.1416 62.6376 22.0235C62.718 21.9054 62.837 21.819 62.9742 21.7792C63.1115 21.7394 63.2583 21.7487 63.3894 21.8055C63.5205 21.8623 63.6276 21.963 63.6925 22.0903C63.6925 22.0903 63.8315 22.4262 64.0632 23.0286C64.2949 23.6309 64.6193 24.4765 64.9784 25.5075C65.7083 27.5693 66.6003 30.3378 67.3997 33.1294C68.1991 35.9211 68.9057 38.7475 69.3691 40.8904C69.6124 41.9561 69.763 42.8596 69.8905 43.4851C70.0179 44.1106 70.0527 44.4697 70.0527 44.4697C70.066 44.612 70.0294 44.7544 69.949 44.8725C69.8686 44.9906 69.7496 45.077 69.6124 45.1168C69.4752 45.1566 69.3283 45.1473 69.1973 45.0905C69.0662 45.0337 68.959 44.933 68.8942 44.8057Z" fill="#897C76"/>
<path d="M94.5445 54.0722C94.5445 54.0722 94.5445 53.7478 94.4402 53.1802C94.336 52.6127 94.2896 51.8018 94.2317 50.8635C94.0927 48.9175 94 46.3112 94 43.7049C94 41.0986 94.1043 38.4923 94.2433 36.5347C94.3012 35.5616 94.3939 34.7392 94.4402 34.2179C94.4866 33.6967 94.5445 33.326 94.5445 33.326C94.5723 33.1836 94.6488 33.0553 94.7608 32.963C94.8728 32.8708 95.0134 32.8203 95.1585 32.8203C95.3036 32.8203 95.4442 32.8708 95.5563 32.963C95.6683 33.0553 95.7447 33.1836 95.7725 33.326C95.7725 33.326 95.7725 33.6503 95.8768 34.2179C95.981 34.7855 96.0158 35.608 96.0737 36.5347C96.2128 38.4923 96.317 41.0986 96.317 43.7049C96.317 46.3112 96.2359 48.9175 96.0853 50.8635C96.0274 51.8481 95.9231 52.659 95.8768 53.1802C95.8304 53.7015 95.7725 54.0722 95.7725 54.0722C95.7612 54.1532 95.7339 54.2311 95.6921 54.3014C95.6502 54.3717 95.5947 54.4329 95.5289 54.4815C95.4631 54.5301 95.3882 54.565 95.3087 54.5842C95.2291 54.6034 95.1466 54.6066 95.0658 54.5934C94.9349 54.573 94.8139 54.5114 94.7202 54.4178C94.6265 54.3241 94.565 54.2031 94.5445 54.0722Z" fill="#6B6562"/>
<path d="M101.602 55.6592C101.602 55.6592 101.66 54.8252 101.88 53.6089C102.15 52.1376 102.506 50.6833 102.945 49.2535C103.374 47.8153 103.877 46.4002 104.452 45.0139C104.714 44.3779 105.008 43.7555 105.332 43.1489C105.412 43.0052 105.546 42.899 105.705 42.8535C105.863 42.8079 106.033 42.8267 106.178 42.9057C106.281 42.965 106.365 43.0514 106.423 43.1556C106.48 43.2598 106.507 43.3777 106.502 43.4964C106.442 44.1846 106.346 44.869 106.212 45.5467C105.936 47.0194 105.584 48.4769 105.158 49.9137C104.74 51.3501 104.241 52.7617 103.664 54.1417C103.401 54.7794 103.103 55.402 102.772 56.0067C102.699 56.1243 102.59 56.2148 102.461 56.264C102.333 56.3132 102.191 56.3184 102.059 56.2787C101.926 56.2391 101.811 56.1568 101.73 56.0447C101.65 55.9327 101.609 55.7971 101.613 55.6592H101.602Z" fill="#6B6562"/>
<path d="M107.014 6.02375C107.014 6.02375 99.5534 -4.73738 89.2426 2.54868C78.9319 9.83475 83.5311 20.5495 89.4627 22.2987C89.4627 22.2987 85.1299 37.5426 99.3332 38.0987C110.524 38.5388 110.524 29.9902 110.524 29.9902C110.524 29.9902 124.577 40.7513 128.308 30.4303C132.038 20.1094 121.727 17.2714 121.727 17.2714C121.727 17.2714 126.442 8.80382 120.407 3.66071C112.946 -2.75658 107.014 6.02375 107.014 6.02375Z" fill="#DDD4D3"/>
<path d="M136.914 68.7254C136.914 68.7254 138.513 67.3238 140.98 65.3198C142.231 64.3352 143.656 63.1537 145.244 61.949C146.831 60.7443 148.499 59.4585 150.202 58.1959C151.905 56.9333 153.62 55.6939 155.242 54.5471C156.863 53.4003 158.393 52.3578 159.702 51.4543C161.011 50.5508 162.135 49.8442 162.899 49.3229L164.139 48.5352C164.206 48.4929 164.282 48.4644 164.36 48.4514C164.439 48.4384 164.519 48.4412 164.597 48.4595C164.675 48.4778 164.748 48.5113 164.812 48.5581C164.877 48.6049 164.931 48.6641 164.973 48.7321C165.055 48.8543 165.089 49.0027 165.068 49.1484C165.046 49.2941 164.971 49.4266 164.857 49.5198L163.757 50.4697C163.038 51.0604 162.03 51.9292 160.791 52.9138C159.551 53.8984 158.103 55.0799 156.539 56.2962C154.975 57.5125 153.272 58.7867 151.581 60.0493C149.889 61.3119 148.175 62.5629 146.553 63.7097C144.931 64.8565 143.39 65.899 142.081 66.8025C139.451 68.598 137.644 69.71 137.644 69.71C137.505 69.796 137.339 69.8236 137.18 69.7866C137.021 69.7497 136.884 69.6513 136.798 69.5131C136.725 69.3881 136.697 69.2421 136.718 69.0989C136.739 68.9557 136.808 68.824 136.914 68.7254Z" fill="#968680"/>
<path d="M145.385 73.9384C145.748 73.6081 146.135 73.306 146.544 73.0349C147.423 72.4403 148.349 71.9173 149.313 71.4711C150.27 71.0093 151.261 70.622 152.278 70.3127C152.748 70.1656 153.228 70.0534 153.715 69.9768C153.866 69.9227 154.032 69.9275 154.179 69.9902C154.327 70.0529 154.445 70.1689 154.511 70.3151C154.577 70.4613 154.585 70.6269 154.534 70.7789C154.483 70.9308 154.377 71.0581 154.236 71.1351C153.871 71.4592 153.484 71.7572 153.078 72.0271C152.196 72.6214 151.27 73.1481 150.309 73.6024C149.356 74.0653 148.368 74.4526 147.355 74.7608C146.88 74.9007 146.396 75.0091 145.907 75.0851C145.738 75.1049 145.568 75.0578 145.434 74.9538C145.3 74.8498 145.211 74.6974 145.188 74.5291C145.171 74.4221 145.18 74.3124 145.214 74.2096C145.248 74.1067 145.307 74.0136 145.385 73.9384Z" fill="#897C76"/>
<path d="M143.747 84.8612L144.813 84.5021C145.508 84.2936 146.47 83.9577 147.652 83.6334C149.969 82.9383 153.178 82.1043 156.352 81.3746C159.526 80.6448 162.747 79.9845 165.157 79.5675C166.373 79.3474 167.381 79.2084 168.088 79.0926L169.246 78.942C169.408 78.9224 169.57 78.9674 169.698 79.0673C169.826 79.1671 169.91 79.3137 169.93 79.4749C169.94 79.6136 169.907 79.7521 169.834 79.8707C169.761 79.9893 169.653 80.0818 169.524 80.1351L168.447 80.4826C167.763 80.6911 166.79 81.0155 165.609 81.3514C163.291 82.0464 160.094 82.8804 156.92 83.6681C153.745 84.4558 150.536 85.0697 148.115 85.4867C146.957 85.7068 145.891 85.8342 145.184 85.9501L144.025 86.1007C143.864 86.1169 143.703 86.0688 143.577 85.9668C143.452 85.8648 143.371 85.7173 143.354 85.5562C143.328 85.4126 143.353 85.2646 143.425 85.1377C143.497 85.0108 143.611 84.913 143.747 84.8612Z" fill="#968680"/>
<path d="M147.791 107.519C148.211 107.152 148.656 106.816 149.123 106.511C150.13 105.84 151.183 105.24 152.274 104.715C153.36 104.189 154.478 103.733 155.622 103.349C156.146 103.17 156.68 103.023 157.221 102.908C157.302 102.892 157.386 102.891 157.468 102.907C157.55 102.923 157.627 102.955 157.696 103.002C157.765 103.048 157.824 103.108 157.87 103.177C157.916 103.247 157.947 103.325 157.962 103.407C157.985 103.514 157.979 103.625 157.944 103.729C157.91 103.833 157.848 103.925 157.765 103.997C157.339 104.361 156.89 104.697 156.422 105.005C155.413 105.668 154.364 106.267 153.282 106.8C152.203 107.336 151.088 107.796 149.945 108.179C149.415 108.358 148.873 108.501 148.324 108.608C148.187 108.636 148.046 108.618 147.921 108.557C147.796 108.496 147.695 108.395 147.634 108.27C147.573 108.145 147.555 108.004 147.583 107.868C147.612 107.731 147.685 107.609 147.791 107.519Z" fill="#6B6562"/>
<path d="M147.26 117.991C147.26 117.991 148.268 117.933 149.762 117.991C151.257 118.049 153.238 118.199 155.231 118.454C157.223 118.709 159.17 119.045 160.629 119.357C162.089 119.67 163.062 119.971 163.062 119.971C163.141 119.996 163.213 120.037 163.276 120.09C163.339 120.143 163.391 120.208 163.428 120.281C163.466 120.354 163.489 120.434 163.496 120.516C163.502 120.598 163.493 120.681 163.468 120.759C163.431 120.88 163.358 120.986 163.258 121.063C163.159 121.14 163.037 121.183 162.912 121.188C162.912 121.188 161.904 121.246 160.398 121.188C158.891 121.13 156.922 120.991 154.941 120.747C152.96 120.504 151.002 120.168 149.531 119.844C148.059 119.52 147.109 119.218 147.109 119.218C146.998 119.158 146.908 119.066 146.85 118.953C146.792 118.84 146.77 118.713 146.786 118.587C146.803 118.462 146.857 118.344 146.941 118.25C147.026 118.156 147.137 118.09 147.26 118.06V117.991Z" fill="#6B6562"/>
<path d="M149.377 112.28C149.709 112.139 150.055 112.031 150.408 111.955C151.17 111.799 151.947 111.725 152.725 111.735C153.484 111.738 154.24 111.816 154.984 111.967C155.336 112.042 155.681 112.147 156.015 112.28C156.177 112.351 156.305 112.483 156.37 112.648C156.435 112.813 156.433 112.997 156.363 113.16C156.33 113.237 156.283 113.306 156.223 113.364C156.163 113.421 156.093 113.466 156.015 113.496C155.683 113.635 155.337 113.74 154.984 113.809C154.241 113.964 153.484 114.045 152.725 114.052C151.946 114.059 151.169 113.981 150.408 113.82C150.053 113.752 149.707 113.643 149.377 113.496C149.216 113.423 149.091 113.289 149.029 113.125C148.966 112.96 148.97 112.777 149.041 112.616C149.112 112.469 149.23 112.351 149.377 112.28Z" fill="#6B6562"/>
<path d="M191.512 104.113C190.777 102.326 189.494 100.818 187.847 99.8061C186.2 98.7944 184.275 98.3314 182.348 98.4838C182.221 95.9007 181.329 91.7654 177.031 90.7229C170.67 89.1938 165.179 92.0434 164.959 98.1827C164.947 98.3871 164.947 98.5921 164.959 98.7966C162.132 100.557 159.502 103.917 161.217 108.724C164.507 117.933 169.778 114.203 169.778 114.203C169.778 114.203 167.577 124.524 177.019 125.184C187.237 125.891 185.129 117.933 185.129 117.933C185.129 117.933 194.142 111.133 191.512 104.113Z" fill="#A39793"/>
<path d="M44.3092 67.5666C42.8147 64.9603 39.2581 63.3501 36.86 61.6937C35.2381 60.5353 33.6857 59.377 32.1333 58.1491C31.0443 57.2803 30.2912 56.4811 28.8315 56.5737C28.5046 56.5797 28.1928 56.7122 27.9616 56.9434C27.7304 57.1745 27.5978 57.4863 27.5919 57.8132C27.2907 60.8597 32.0058 63.1648 34.1607 64.5085C36.8136 66.1534 40.5093 68.5396 43.7184 68.6091C43.8394 68.6071 43.9579 68.5736 44.062 68.5118C44.1662 68.4501 44.2524 68.3621 44.3121 68.2568C44.3717 68.1515 44.4029 68.0324 44.4024 67.9113C44.4019 67.7902 44.3698 67.6714 44.3092 67.5666Z" fill="#F5DA48"/>
<path d="M54.8307 137.624C52.896 137.624 50.5095 139.501 48.9223 140.474C47.0803 141.632 44.3925 143.068 43.8596 145.362C43.8008 145.613 43.8081 145.876 43.8809 146.124C43.9537 146.371 44.0895 146.596 44.2751 146.776C44.4606 146.955 44.6896 147.084 44.9396 147.149C45.1896 147.214 45.4522 147.213 45.7017 147.146C47.9376 146.694 50.1156 144.528 51.9113 143.207C53.4058 142.049 55.688 140.694 55.9313 138.69C56.0008 138.099 55.3636 137.636 54.8307 137.624Z" fill="#F5DA48"/>
<path d="M59.1041 142.154C58.3154 143.101 57.6063 144.113 56.984 145.177C56.0804 146.486 55.0957 147.691 54.2963 149.081C53.7865 149.973 55.0725 150.969 55.756 150.169C56.7066 149.038 57.4872 147.773 58.073 146.416C58.7946 145.14 59.2257 143.72 59.3358 142.258C59.3322 142.233 59.3223 142.209 59.307 142.189C59.2918 142.169 59.2717 142.153 59.2486 142.142C59.2255 142.132 59.2001 142.127 59.1749 142.129C59.1496 142.131 59.1253 142.14 59.1041 142.154Z" fill="#F5DA48"/>
<path d="M120.482 148.409C119.242 145.165 118.223 141.679 116.323 138.748C115.686 137.764 113.728 138.065 113.901 139.42C114.441 142.871 115.314 146.262 116.508 149.544C117.516 152.672 118.42 156.216 121.246 158.151C122.057 158.707 122.984 157.931 123.042 157.108C123.274 154.073 121.536 151.166 120.482 148.409Z" fill="#F5DA48"/>
<path d="M28.5202 117.353C25.6239 117.353 22.2527 118.789 19.3448 119.276C15.487 119.913 11.7566 120.272 8.51273 122.623C8.35019 122.718 8.22822 122.869 8.17016 123.048C8.11209 123.227 8.12201 123.421 8.198 123.593C8.27399 123.765 8.41072 123.903 8.58206 123.98C8.7534 124.058 8.94731 124.07 9.12674 124.013C13.0309 122.936 17.1552 122.438 21.1405 121.697C23.527 121.233 27.9989 120.446 28.7519 117.654C28.7632 117.618 28.7656 117.581 28.7591 117.544C28.7526 117.507 28.7374 117.473 28.7146 117.443C28.6919 117.413 28.6623 117.39 28.6285 117.374C28.5946 117.358 28.5575 117.351 28.5202 117.353Z" fill="#F5DA48"/>
<path d="M132.279 50.8056C130.291 53.4773 129.156 56.6871 129.023 60.0145C129.024 60.0437 129.034 60.0719 129.05 60.0959C129.067 60.1199 129.09 60.1385 129.117 60.1496C129.144 60.1606 129.174 60.1636 129.202 60.1581C129.231 60.1527 129.257 60.139 129.278 60.1188C131.422 57.8021 133.461 54.8598 133.912 51.7207C133.97 50.8751 132.916 49.9948 132.279 50.8056Z" fill="#F5DA48"/>
<path d="M136.094 56.8754C135.403 57.6015 134.764 58.3757 134.183 59.1921C133.585 59.9162 133.097 60.7241 132.734 61.5899C132.734 61.7173 132.839 61.8563 132.978 61.8216C134.866 61.1845 136.175 59.0763 136.824 57.3156C136.917 56.8638 136.372 56.5743 136.094 56.8754Z" fill="#F5DA48"/>
<path d="M65.1801 135.54C64.9842 135.221 64.7099 134.958 64.3834 134.775C64.0569 134.593 63.689 134.497 63.3149 134.497C62.9409 134.497 62.573 134.593 62.2465 134.775C61.92 134.958 61.6457 135.221 61.4497 135.54C61.1404 136.11 61.0537 136.774 61.2064 137.405C61.6003 139.513 65.0643 139.432 65.4582 137.405C65.6004 136.77 65.5013 136.105 65.1801 135.54Z" fill="#6B6562"/>
<path d="M33.3391 123.365C33.0177 123.396 32.7191 123.545 32.5018 123.784C32.2845 124.023 32.1641 124.334 32.1641 124.657C32.1641 124.98 32.2845 125.291 32.5018 125.53C32.7191 125.769 33.0177 125.918 33.3391 125.948C33.6606 125.918 33.9592 125.769 34.1765 125.53C34.3938 125.291 34.5142 124.98 34.5142 124.657C34.5142 124.334 34.3938 124.023 34.1765 123.784C33.9592 123.545 33.6606 123.396 33.3391 123.365Z" fill="#6B6562"/>
<path d="M63.4831 46.8437C63.1839 46.0639 62.6796 45.3795 62.0234 44.8629C61.8888 44.7329 61.7155 44.6504 61.5297 44.6282C61.3439 44.6059 61.156 44.645 60.9945 44.7395C60.8331 44.834 60.7069 44.9787 60.6354 45.1516C60.5639 45.3244 60.5509 45.5159 60.5984 45.6969C60.766 46.4134 61.0645 47.0927 61.4789 47.7008C61.8959 48.2684 62.4057 49.1256 63.1587 49.2414C63.3214 49.2808 63.493 49.2558 63.6376 49.1716C63.7823 49.0874 63.8888 48.9506 63.9349 48.7897C63.9977 48.1093 63.8393 47.4268 63.4831 46.8437Z" fill="#6B6562"/>
<path d="M134.699 137.612C134.611 136.824 134.35 136.064 133.934 135.388C133.783 135.191 133.424 135.052 133.227 135.307C132.763 135.992 132.505 136.797 132.486 137.624C132.405 138.091 132.446 138.57 132.604 139.017C132.762 139.463 133.033 139.861 133.39 140.172C133.476 140.258 133.583 140.319 133.701 140.349C133.818 140.38 133.941 140.38 134.059 140.348C134.176 140.317 134.282 140.255 134.368 140.169C134.454 140.083 134.516 139.977 134.548 139.86C134.846 139.148 134.899 138.357 134.699 137.612Z" fill="#6B6562"/>
<path d="M138.44 133.558C137.536 133.164 136.54 134.23 137.339 134.995C137.791 135.435 138.255 135.863 138.695 136.315C139.094 136.857 139.624 137.287 140.236 137.566C140.392 137.607 140.556 137.611 140.714 137.579C140.873 137.547 141.022 137.479 141.15 137.381C141.278 137.283 141.383 137.156 141.455 137.012C141.527 136.867 141.566 136.708 141.568 136.547C141.614 134.948 139.633 134.08 138.44 133.558Z" fill="#6B6562"/>
<path d="M108.862 149.602C108.484 149.635 108.132 149.808 107.875 150.088C107.619 150.368 107.477 150.734 107.477 151.113C107.477 151.493 107.619 151.859 107.875 152.138C108.132 152.418 108.484 152.592 108.862 152.625C109.24 152.592 109.592 152.418 109.848 152.138C110.105 151.859 110.247 151.493 110.247 151.113C110.247 150.734 110.105 150.368 109.848 150.088C109.592 149.808 109.24 149.635 108.862 149.602Z" fill="#6B6562"/>
<path d="M78.3503 151.756C77.9559 151.581 77.5306 151.485 77.0991 151.475C76.6676 151.465 76.2384 151.541 75.8363 151.698C74.9075 151.14 73.8073 150.94 72.7414 151.134C71.6754 151.328 70.7165 151.903 70.0438 152.752C69.4515 153.296 69.0405 154.009 68.8665 154.794C68.6924 155.579 68.7637 156.399 69.0706 157.142C69.9743 158.949 72.326 159.1 74.0754 158.926C74.3434 158.902 74.6036 158.823 74.84 158.694C75.4602 159.639 76.3651 160.361 77.4235 160.756C79.9027 161.683 81.5246 159.749 81.7911 157.467C81.8625 156.278 81.5719 155.097 80.9576 154.077C80.3433 153.057 79.4342 152.248 78.3503 151.756Z" fill="#DDD4D3"/>
<path d="M89.6834 153.714C89.0024 153.375 88.2291 153.27 87.4822 153.413C87.144 153.51 86.8401 153.701 86.605 153.963C86.3699 154.224 86.2133 154.547 86.1528 154.894C86.0924 155.24 86.1307 155.597 86.2634 155.923C86.396 156.249 86.6177 156.531 86.903 156.737C87.0843 156.988 87.3176 157.196 87.587 157.348C87.8564 157.499 88.1555 157.591 88.4636 157.616C88.7718 157.642 89.0818 157.6 89.3723 157.494C89.6628 157.388 89.9271 157.221 90.1468 157.004C90.3713 156.774 90.5402 156.496 90.6403 156.191C90.7405 155.886 90.7693 155.563 90.7246 155.245C90.6798 154.927 90.5626 154.624 90.3821 154.358C90.2016 154.093 89.9626 153.872 89.6834 153.714Z" fill="#DDD4D3"/>
<path d="M48.3829 40.6237C48.1291 39.936 47.7117 39.3204 47.1667 38.83C46.6217 38.3396 45.9656 37.9891 45.2549 37.8089C43.83 35.9439 41.2349 35.33 38.999 35.1215C34.7357 34.7045 32.5113 38.3533 33.6698 41.979C33.1146 42.5369 32.6738 43.1979 32.3723 43.925C31.3528 46.3923 32.7894 48.5584 35.0948 49.4851C35.7338 49.7251 36.4196 49.8143 37.0987 49.746C37.7779 49.6777 38.4322 49.4537 39.0106 49.0913C39.3064 49.611 39.7369 50.0414 40.2568 50.337C40.7768 50.6326 41.3668 50.7825 41.9648 50.7709C44.1891 50.7709 46.008 48.7322 47.1202 47.0526C47.7947 46.1419 48.258 45.0925 48.4764 43.9805C48.6948 42.8685 48.6629 41.7218 48.3829 40.6237Z" fill="#DDD4D3"/>
<path d="M138.804 35.3301C138.319 35.0724 137.764 34.9761 137.221 35.0553C136.677 35.1344 136.172 35.3849 135.781 35.7702C135.504 36.0493 135.311 36.3993 135.221 36.7815C135.131 37.1638 135.148 37.5634 135.271 37.9364C135.271 37.9364 135.271 38.0059 135.271 38.0522C135.312 38.2014 135.37 38.3453 135.445 38.4808C135.484 38.6172 135.511 38.7567 135.526 38.8978C135.695 39.5579 136.03 40.1639 136.499 40.6585C136.807 40.9641 137.224 41.1356 137.658 41.1356C138.092 41.1356 138.508 40.9641 138.816 40.6585C139.599 39.8643 140.057 38.8071 140.102 37.6931C140.123 37.2182 140.013 36.7466 139.784 36.3299C139.555 35.9132 139.217 35.5673 138.804 35.3301Z" fill="#DDD4D3"/>
<path d="M152.093 126.504C151.646 126.241 151.161 126.045 150.656 125.925C150.552 125.925 150.262 125.786 150.262 125.798L149.486 125.462C148.966 125.328 148.417 125.369 147.923 125.578C147.429 125.788 147.017 126.154 146.752 126.62C146.488 127.084 146.386 127.623 146.462 128.151C146.537 128.679 146.786 129.168 147.169 129.539C147.319 129.686 147.486 129.815 147.667 129.922L147.771 130.153C148.065 130.689 148.484 131.146 148.992 131.485C149.501 131.823 150.083 132.034 150.691 132.099C151.268 132.24 151.877 132.154 152.392 131.858C152.907 131.563 153.29 131.081 153.46 130.512C153.705 129.787 153.705 129.001 153.457 128.276C153.21 127.551 152.73 126.929 152.093 126.504Z" fill="#DDD4D3"/>
<path d="M106.549 25.7391C105.921 25.6095 105.268 25.6952 104.695 25.9823C104.035 26.2835 103.896 25.5885 103.629 24.9167C103.596 24.8258 103.557 24.7369 103.514 24.6502C102.969 23.4919 101.046 24.3375 101.463 25.5306C101.88 26.7237 101.753 28.8667 99.9338 28.5655C98.115 28.2643 98.2656 26.0055 98.3235 24.5807C98.3199 24.479 98.2865 24.3806 98.2275 24.2976C98.1686 24.2146 98.0866 24.1506 97.9918 24.1137C97.8969 24.0767 97.7933 24.0684 97.6937 24.0896C97.5941 24.1109 97.503 24.1608 97.4315 24.2332C96.9222 24.7446 96.5618 25.385 96.389 26.0857C96.2162 26.7864 96.2375 27.5209 96.4507 28.2103C96.6639 28.8998 97.0609 29.5182 97.599 29.9991C98.1371 30.4801 98.7961 30.8054 99.5052 30.9401C100.147 31.1062 100.822 31.0854 101.453 30.8802C102.083 30.6749 102.641 30.2938 103.062 29.7818C103.331 29.4353 103.535 29.0428 103.664 28.6234C103.853 28.6724 104.049 28.6919 104.243 28.6813C104.815 28.6502 105.369 28.4758 105.855 28.1741C106.341 27.8725 106.743 27.4534 107.024 26.9554C107.1 26.8502 107.149 26.7275 107.165 26.5986C107.182 26.4696 107.166 26.3386 107.119 26.2176C107.071 26.0965 106.994 25.9893 106.895 25.9057C106.795 25.8221 106.676 25.7648 106.549 25.7391Z" fill="#C7BEBE"/>
<path d="M102.597 8.68745C101.126 7.5291 100.095 6.9615 99.0175 7.79551C98.0327 5.94214 96.2834 4.5637 93.9896 5.4788C91.6957 6.3939 90.2939 9.22029 91.9042 11.2127C91.9373 11.243 91.9768 11.2656 92.0198 11.2787C92.0627 11.2919 92.1081 11.2952 92.1525 11.2886C92.1969 11.2819 92.2393 11.2654 92.2765 11.2402C92.3138 11.2151 92.3449 11.1819 92.3676 11.1432C92.9932 9.98481 93.2018 8.59479 94.2792 7.78394C95.9243 6.54449 97.3955 8.14303 97.94 9.64889C97.9895 9.80641 98.0834 9.9463 98.2105 10.0517C98.3376 10.1572 98.4924 10.2237 98.6563 10.2433C98.8203 10.2628 98.9864 10.2346 99.1348 10.1621C99.2831 10.0895 99.4073 9.97568 99.4925 9.83423C100.164 8.67588 100.292 9.11604 101.207 9.60255C101.412 9.69924 101.637 9.74451 101.863 9.73442C102.089 9.72433 102.309 9.65918 102.505 9.54464C102.58 9.50468 102.644 9.44696 102.691 9.37653C102.739 9.30611 102.769 9.2251 102.778 9.14057C102.787 9.05605 102.775 8.97056 102.744 8.89158C102.712 8.8126 102.662 8.74253 102.597 8.68745Z" fill="#C7BEBE"/>
<path d="M116.352 14.6765C115.796 15.2904 115.194 15.9507 114.649 16.5299C114.244 16.9121 113.92 16.8774 113.375 16.75C113.336 16.7393 113.294 16.7379 113.255 16.7457C113.215 16.7534 113.177 16.7703 113.144 16.7949C113.112 16.8195 113.086 16.8512 113.067 16.8876C113.049 16.924 113.039 16.9641 113.039 17.0048C113.042 17.2784 113.113 17.5471 113.244 17.7871C113.376 18.027 113.564 18.231 113.793 18.3809C114.022 18.5309 114.284 18.6222 114.557 18.6468C114.829 18.6715 115.104 18.6287 115.356 18.5223C116.862 18.0589 117.302 16.4835 117.43 15.0472C117.453 14.5607 116.688 14.3174 116.352 14.6765Z" fill="#C7BEBE"/>
<path d="M182.186 115.847C182.103 115.575 181.953 115.326 181.751 115.124C181.549 114.922 181.301 114.773 181.028 114.689C180.704 114.689 180.379 114.596 180.055 114.562H179.974C179.974 114.411 180.055 114.249 180.113 114.098C180.46 113.033 179.093 112.523 178.387 113.125C177.787 113.737 177.008 114.143 176.162 114.284C175.537 114.284 175.293 112.789 175.212 112.384C175.131 111.979 174.227 111.863 174.158 112.384C173.973 113.762 173.996 115.396 175.513 115.987C175.943 116.13 176.399 116.178 176.849 116.128C177.299 116.078 177.732 115.931 178.12 115.697C178.285 115.951 178.512 116.159 178.78 116.299C179.699 116.633 180.688 116.728 181.654 116.577C181.978 116.554 182.337 116.207 182.186 115.847Z" fill="#8C837F"/>
<path d="M76.2793 41.7012C75.7846 41.7012 75.3102 41.8977 74.9604 42.2474C74.6106 42.5972 74.4141 43.0715 74.4141 43.5661C74.4141 44.0607 74.6106 44.5351 74.9604 44.8848C75.3102 45.2346 75.7846 45.4311 76.2793 45.4311C76.7739 45.4311 77.2484 45.2346 77.5982 44.8848C77.948 44.5351 78.1445 44.0607 78.1445 43.5661C78.1445 43.0715 77.948 42.5972 77.5982 42.2474C77.2484 41.8977 76.7739 41.7012 76.2793 41.7012Z" fill="#8C837F"/>
<path d="M76.2793 41.7012C75.7846 41.7012 75.3102 41.8977 74.9604 42.2474C74.6106 42.5972 74.4141 43.0715 74.4141 43.5661C74.4141 44.0607 74.6106 44.5351 74.9604 44.8848C75.3102 45.2346 75.7846 45.4311 76.2793 45.4311C76.7739 45.4311 77.2484 45.2346 77.5982 44.8848C77.948 44.5351 78.1445 44.0607 78.1445 43.5661C78.1445 43.0715 77.948 42.5972 77.5982 42.2474C77.2484 41.8977 76.7739 41.7012 76.2793 41.7012Z" fill="#8C837F"/>
<g clip-path="url(#clip1_3015_33253)">
<path d="M91.1259 91.2683C91.1259 91.2683 89.1407 73.2964 89.9045 73.0112C90.6682 72.7259 97.9938 90.6692 97.9938 90.6692C97.9938 90.6692 101.504 84.7328 102.113 85.1892C102.722 85.6456 100.894 91.4309 100.894 91.4309C100.894 91.4309 113.106 86.3988 113.715 87.4628C114.324 88.5268 103.031 96.2918 103.031 96.2918C103.031 96.2918 108.829 99.9461 108.829 100.554C108.829 101.161 103.489 99.9461 103.489 99.9461C103.489 99.9461 108.529 105.577 108.529 106.185C108.529 106.792 101.815 104.51 101.815 104.51L105.325 117.145L98.4601 107.557C98.4601 107.557 94.6442 123.692 94.0349 123.994C93.4257 124.296 92.353 104.664 92.353 104.664L86.8609 110.906L89.3009 101.621L78.0078 102.379L89.75 96.4487C89.75 96.4487 82.8849 88.9918 82.8849 88.5354L91.1259 91.2683Z" fill="#DFA24D"/>
<path d="M94.1806 90.0508C93.7973 90.2048 94.7155 95.6078 94.7155 95.6078C94.7155 95.6078 89.9071 92.9434 89.8299 93.1716C89.7527 93.3998 93.1881 96.9 93.1881 96.9C93.1881 96.9 87.0781 99.8725 87.0781 100.175C87.0781 100.477 93.1823 99.0338 93.1823 99.0338L90.4334 103.675L94.8014 101.162L95.5651 107.404L97.0153 101.698C97.0153 101.698 100.68 107.483 100.908 107.404C101.137 107.324 99.0005 100.557 99.0005 100.557L103.806 102.688L99.9788 98.5746L103.949 98.5004L99.5211 97.0541C99.5211 97.0541 106.386 92.0305 106.163 91.5741C105.94 91.1177 98.683 95.6848 98.683 95.6848L98.9891 91.6511L96.7751 94.8461L94.1806 90.0508Z" fill="#F5DA48"/>
<path d="M95.6561 95.0225C95.3701 95.0939 95.4416 97.6613 95.4416 97.6613L92.8672 97.841L94.7608 98.4115L93.8683 100.266L96.1567 99.0876L95.9422 102.653L96.9777 99.4099L98.4794 102.012L98.1218 99.3015L99.8381 99.7665L98.5881 98.4115L99.5893 97.9123L97.5498 97.5557L97.873 94.8086L96.6201 97.2704L95.6561 95.0225Z" fill="#FAE878"/>
<path d="M98.0345 76.1523C98.0045 76.0592 97.9424 75.9797 97.8593 75.928C97.7761 75.8762 97.6772 75.8555 97.5802 75.8695C97.4832 75.8835 97.3943 75.9314 97.3293 76.0045C97.2642 76.0777 97.2273 76.1715 97.225 76.2692C97.0763 78.0093 97.4138 79.9235 97.4739 81.6893C97.5311 83.3752 97.5053 85.1125 97.9773 86.7442C97.9773 86.7813 98.0545 86.787 98.0603 86.7442C98.2834 85.0726 98.2662 83.3638 98.3234 81.6807C98.3806 79.9977 98.6381 77.7982 98.0345 76.1523Z" fill="#F5DA48"/>
<path d="M99.7338 80.337C99.7157 80.3089 99.6915 80.2851 99.6631 80.2673C99.6347 80.2495 99.6027 80.2382 99.5694 80.2341C99.5361 80.23 99.5023 80.2333 99.4704 80.2437C99.4385 80.2541 99.4093 80.2713 99.3848 80.2942C98.9815 80.628 99.0702 81.1643 99.0988 81.6407C99.0988 81.7263 99.1417 82.4965 99.3848 82.391C99.628 82.2854 99.6881 81.8432 99.7424 81.6093C99.8225 81.1643 99.9998 80.7592 99.7338 80.337Z" fill="#F5DA48"/>
<path d="M110.433 82.8388C110.414 82.772 110.381 82.7103 110.334 82.6589C110.288 82.6074 110.23 82.5674 110.165 82.5422C110.1 82.517 110.03 82.5072 109.961 82.5136C109.892 82.5201 109.825 82.5425 109.766 82.5792C109.028 83.0128 108.37 83.7202 107.667 84.2337C106.906 84.7814 106.136 85.3149 105.378 85.874C105.006 86.1593 104.28 86.5045 104.266 87.0151C104.266 87.0239 104.269 87.0322 104.275 87.0389C104.281 87.0456 104.288 87.0503 104.297 87.0522C105.012 87.2576 106.451 86.0167 107.032 85.6487C108.159 84.9412 109.369 84.2223 110.315 83.2781C110.374 83.2227 110.415 83.1524 110.436 83.0749C110.457 82.9974 110.456 82.9157 110.433 82.8388Z" fill="#F5DA48"/>
<path d="M86.6079 96.0099C85.7841 95.0742 84.3196 94.7319 83.1754 94.3182C81.8539 93.8418 80.4465 93.1971 79.0335 93.1201C78.9817 93.1207 78.9313 93.1366 78.8885 93.1656C78.8457 93.1947 78.8124 93.2357 78.7929 93.2835C78.7734 93.3313 78.7684 93.3838 78.7786 93.4344C78.7888 93.485 78.8138 93.5315 78.8504 93.568C79.8744 94.3667 81.2045 94.6606 82.4288 95.0428C83.716 95.4479 85.2092 96.1839 86.5708 96.0897C86.58 96.0898 86.5891 96.0871 86.597 96.0822C86.6048 96.0772 86.6111 96.0701 86.615 96.0617C86.6189 96.0533 86.6203 96.0439 86.6191 96.0348C86.6178 96.0256 86.6139 96.0169 86.6079 96.0099Z" fill="#F5DA48"/>
<path d="M82.9454 96.7687C82.8939 96.7687 82.7423 96.6546 82.6794 96.6461C82.4992 96.6204 82.319 96.609 82.1359 96.589C81.7097 96.5462 81.1662 96.4007 80.7715 96.6061C80.7198 96.636 80.6769 96.6788 80.6471 96.7304C80.6173 96.7819 80.6016 96.8404 80.6016 96.9C80.6016 96.9595 80.6173 97.018 80.6471 97.0696C80.6769 97.1211 80.7198 97.164 80.7715 97.1938C81.1605 97.3963 81.6983 97.2508 82.113 97.1938C82.3255 97.1872 82.5349 97.1418 82.7309 97.0597C82.8253 96.9998 82.8854 96.8971 82.9683 96.8429C83.0112 96.8115 82.9855 96.763 82.9454 96.7687Z" fill="#F5DA48"/>
<path d="M90.8256 108.673C90.8225 108.664 90.8172 108.655 90.81 108.649C90.8029 108.642 90.7942 108.638 90.7847 108.635C90.7753 108.633 90.7654 108.633 90.756 108.636C90.7467 108.638 90.7381 108.643 90.7312 108.65C89.8559 109.669 89.6556 111.52 89.1837 112.769C88.8461 113.659 88.4743 114.535 88.1081 115.414C87.7649 116.241 87.25 117.103 87.25 118.013C87.2543 118.066 87.2734 118.117 87.3052 118.16C87.337 118.202 87.3803 118.236 87.43 118.255C87.4798 118.275 87.534 118.28 87.5867 118.271C87.6393 118.261 87.6881 118.237 87.7277 118.201C88.7775 116.994 89.2209 114.9 89.7901 113.417C90.2821 112.139 91.3948 110.039 90.8256 108.673Z" fill="#F5DA48"/>
<path d="M88.0368 111.523C88.0368 111.506 88.0111 111.503 87.9911 111.503C87.7908 111.537 87.6106 111.825 87.4962 111.982C87.4069 112.088 87.3411 112.212 87.3031 112.345C87.2651 112.478 87.2559 112.618 87.276 112.755C87.2893 112.799 87.3136 112.838 87.3466 112.869C87.3795 112.9 87.42 112.922 87.4641 112.933C87.5081 112.944 87.5542 112.943 87.598 112.931C87.6417 112.919 87.6815 112.896 87.7136 112.864C87.8682 112.666 87.967 112.43 87.9997 112.182C88.0225 111.991 88.137 111.697 88.0368 111.523Z" fill="#F5DA48"/>
<path d="M98.4727 116.969C98.5098 115.748 98.7587 114.47 98.6271 113.26C98.627 113.251 98.624 113.243 98.6187 113.236C98.6133 113.229 98.6059 113.224 98.5975 113.222C98.5891 113.22 98.5802 113.22 98.5721 113.224C98.564 113.227 98.5572 113.233 98.5527 113.24C97.9807 114.221 97.892 115.402 97.7547 116.509C97.6174 117.616 97.3656 118.92 97.8319 119.932C97.8509 119.964 97.8779 119.991 97.9102 120.009C97.9426 120.028 97.9792 120.037 98.0164 120.037C98.0536 120.037 98.0902 120.028 98.1226 120.009C98.1549 119.991 98.1819 119.964 98.2009 119.932C98.6271 119.017 98.4412 117.953 98.4727 116.969Z" fill="#F5DA48"/>
<path d="M99.832 114.067C99.8206 114.067 99.8097 114.072 99.8016 114.08C99.7936 114.088 99.7891 114.099 99.7891 114.11C99.7891 114.122 99.7936 114.132 99.8016 114.14C99.8097 114.148 99.8206 114.153 99.832 114.153C99.8433 114.153 99.8543 114.148 99.8623 114.14C99.8704 114.132 99.8749 114.122 99.8749 114.11C99.8749 114.099 99.8704 114.088 99.8623 114.08C99.8543 114.072 99.8433 114.067 99.832 114.067Z" fill="#F5DA48"/>
<path d="M100.321 114.932C100.235 114.595 100.112 114.27 100.035 113.93C99.9575 113.591 99.3969 113.674 99.4312 114.019C99.4655 114.364 99.4598 114.706 99.4627 115.054C99.4655 115.402 99.4426 115.782 99.6429 116.047C99.6897 116.119 99.7562 116.177 99.8347 116.213C99.9131 116.248 100 116.261 100.086 116.249C100.171 116.237 100.251 116.201 100.317 116.145C100.382 116.089 100.43 116.015 100.455 115.933C100.564 115.602 100.407 115.257 100.321 114.932Z" fill="#F5DA48"/>
<path d="M109.502 111.588C108.739 110.843 107.849 110.199 107.054 109.48C106.258 108.761 105.598 107.86 104.728 107.295C104.715 107.288 104.701 107.284 104.686 107.285C104.672 107.286 104.658 107.292 104.646 107.3C104.635 107.309 104.626 107.321 104.621 107.335C104.617 107.349 104.616 107.363 104.619 107.377C104.794 108.33 105.618 109.16 106.244 109.862C107.04 110.787 107.944 111.615 108.936 112.327C109.385 112.632 109.877 111.956 109.502 111.588Z" fill="#F5DA48"/>
<path d="M88.1456 87.3203C87.4533 86.2134 86.3807 85.3405 85.4653 84.4191C84.55 83.4977 83.8492 82.1855 82.7879 81.5008C82.7511 81.4803 82.709 81.471 82.6669 81.4743C82.6248 81.4775 82.5846 81.493 82.5514 81.5189C82.5181 81.5447 82.4932 81.5798 82.4798 81.6198C82.4664 81.6597 82.4652 81.7027 82.4762 81.7433C82.6764 82.8844 83.8749 83.8799 84.6587 84.673C85.6541 85.6828 86.7239 86.784 87.9425 87.5257C87.9711 87.5355 88.0019 87.5372 88.0314 87.5303C88.0609 87.5234 88.0878 87.5084 88.109 87.4869C88.1303 87.4654 88.145 87.4383 88.1515 87.4088C88.1579 87.3794 88.1559 87.3486 88.1456 87.3203Z" fill="#D08848"/>
<path d="M86.3564 82.5283C86.2549 82.2808 86.1052 82.0559 85.9159 81.8665C85.8949 81.8465 85.8686 81.833 85.84 81.8277C85.8115 81.8224 85.782 81.8256 85.7553 81.8368C85.7285 81.848 85.7056 81.8668 85.6894 81.8908C85.6732 81.9149 85.6645 81.9431 85.6642 81.972C85.6603 82.2622 85.7619 82.5439 85.9502 82.7651C86.1283 83.0156 86.3716 83.2129 86.6539 83.3356C86.662 83.3374 86.6705 83.337 86.6784 83.3346C86.6864 83.3321 86.6936 83.3277 86.6993 83.3217C86.7051 83.3156 86.7092 83.3083 86.7112 83.3002C86.7133 83.2922 86.7132 83.2837 86.7111 83.2757C86.6071 83.0201 86.4887 82.7706 86.3564 82.5283Z" fill="#D08848"/>
<path d="M86.1761 104.092C85.0634 104.642 83.9507 105.19 82.8466 105.752C81.8483 106.26 80.7127 106.662 79.9318 107.486C79.8967 107.522 79.8745 107.568 79.8687 107.618C79.8629 107.667 79.8738 107.718 79.8997 107.76C79.9255 107.803 79.9649 107.836 80.0116 107.854C80.0583 107.872 80.1097 107.874 80.1577 107.86C81.2619 107.617 82.2459 106.919 83.2156 106.362C84.3093 105.759 85.319 105.016 86.2191 104.151C86.2591 104.12 86.2191 104.072 86.1761 104.092Z" fill="#D08848"/>
<path d="M85.4942 106.203C85.4896 106.187 85.4793 106.175 85.4655 106.167C85.4517 106.159 85.4354 106.156 85.4199 106.16C85.2424 106.225 85.0749 106.314 84.9221 106.425C84.7362 106.539 84.5245 106.611 84.3501 106.71C84.2638 106.762 84.2014 106.845 84.1762 106.943C84.1511 107.04 84.1652 107.143 84.2156 107.23C84.2704 107.314 84.3553 107.374 84.4532 107.398C84.551 107.422 84.6543 107.408 84.7419 107.358C84.9857 107.228 85.1932 107.04 85.3455 106.81C85.415 106.727 85.4644 106.629 85.4902 106.524C85.516 106.418 85.5174 106.309 85.4942 106.203Z" fill="#D08848"/>
<path d="M114.744 91.5736C113.505 91.8446 112.378 92.5834 111.231 93.1083C109.801 93.7673 108.256 94.2494 106.863 94.9968C106.62 95.128 106.811 95.4332 107.04 95.399C108.471 95.1936 109.858 94.6116 111.177 94.0468C112.495 93.482 113.963 92.94 114.941 91.9016C114.97 91.8699 114.988 91.8296 114.992 91.7869C114.996 91.7441 114.987 91.7012 114.965 91.6643C114.942 91.6275 114.909 91.5988 114.869 91.5824C114.829 91.5661 114.785 91.563 114.744 91.5736Z" fill="#D08848"/>
<path d="M109.841 96.0469C109.447 96.0469 109.092 96.2095 108.697 96.1638C108.664 96.1638 108.632 96.1737 108.604 96.1923C108.577 96.2108 108.555 96.2371 108.543 96.2678C108.531 96.2985 108.528 96.3322 108.535 96.3645C108.542 96.3968 108.559 96.4263 108.583 96.4491C108.772 96.6209 109.019 96.7173 109.275 96.7201C109.42 96.7218 109.564 96.6865 109.692 96.6177C109.82 96.5488 109.929 96.4486 110.007 96.3264C110.099 96.2038 109.961 96.0497 109.841 96.0469Z" fill="#D08848"/>
<path d="M110.901 103.638C110.395 103.248 109.84 102.925 109.25 102.679C108.578 102.374 107.763 102.109 107.202 101.624C107.165 101.592 107.108 101.646 107.145 101.681C107.592 102.129 108.07 102.545 108.575 102.927C109.213 103.353 109.877 103.739 110.563 104.083C110.835 104.22 111.164 103.866 110.901 103.638Z" fill="#D08848"/>
</g>
</g>
<defs>
<clipPath id="clip0_3015_33253">
<rect width="192" height="161" fill="white"/>
</clipPath>
<clipPath id="clip1_3015_33253">
<rect width="37" height="51" fill="white" transform="translate(78 73)"/>
</clipPath>
</defs>
</svg>
