<svg width="290" height="189" viewBox="0 0 290 189" fill="none" xmlns="http://www.w3.org/2000/svg">
<g clip-path="url(#clip0_3004_1191)">
<g filter="url(#filter0_d_3004_1191)">
<path d="M122.298 57.9251C131.108 65.0974 138.026 74.3119 142.448 84.7648C146.869 95.2177 148.66 106.591 147.665 117.894C144.357 156.084 110.954 184.433 73.1178 181.152C35.2813 177.872 7.16521 144.309 10.5034 106.129C13.8416 67.9486 47.1528 39.6501 85.0299 42.8697C98.687 44.0351 111.675 49.2818 122.298 57.9251Z" fill="#D0C8DF"/>
</g>
<path d="M124.816 45.1117C125.549 46.9619 123.594 56.3562 123.258 57.9202C113.078 55.5691 104.16 51.8891 99.8438 45.4184L99.9965 44.9175C99.9965 44.9175 107.235 36.9952 109.159 37.1587C111.083 37.3223 124.001 43.0877 124.816 45.1117Z" fill="#31293A"/>
<path d="M115.148 39.3748C115.148 39.3748 115.403 38.65 115.953 37.3333C116.502 36.0165 117.388 34.1893 118.671 31.9028C120.226 29.1575 121.986 26.5335 123.934 24.0531C126.483 20.7878 129.416 17.8436 132.669 15.2847C136.676 12.3621 141.229 10.2791 146.057 9.16013C151.38 7.74871 156.958 7.60539 162.346 8.74161C165.173 9.22914 167.961 9.92864 170.684 10.8342C173.528 11.7583 176.211 13.1221 178.635 14.8764L180.417 16.2646C180.987 16.7546 181.536 17.2854 182.096 17.7652C183.247 18.7145 184.316 19.7353 185.456 20.6948C187.645 22.6853 189.844 24.6758 192.022 26.5744C194.131 28.4324 196.4 30.0993 198.803 31.5557C200.006 32.2006 201.259 32.7468 202.549 33.189C203.186 33.4317 203.835 33.6396 204.494 33.8116L206.53 34.2301L207.029 34.3322L207.283 34.3935H207.344H207.477L208.546 34.5058H209.085H210.47C211.73 34.4209 212.973 34.1668 214.165 33.7504C215.351 33.3491 216.494 32.8293 217.576 32.1988C218.687 31.5816 219.761 30.9 220.793 30.1573C222.926 28.643 224.938 26.9638 226.81 25.1351C228.663 23.2875 230.261 21.246 231.9 19.3065C235.117 15.4378 238.334 11.5997 242.59 9.37448C243.129 9.1295 243.659 8.85391 244.208 8.65996C244.756 8.45314 245.317 8.28599 245.888 8.1598L246.733 7.97604H246.988H247.181H247.568L249.075 7.81271C249.577 7.73865 250.084 7.70114 250.592 7.70044L252.109 7.64941C253.127 7.64941 254.053 7.73106 254.99 7.76168C258.196 7.99113 261.339 8.76787 264.285 10.0584C266.187 10.874 267.974 11.938 269.599 13.2228C270.159 13.6719 270.556 14.0598 270.831 14.3252L271.126 14.6314L271.238 14.7539C271.361 14.8944 271.427 15.0754 271.424 15.262C271.422 15.4486 271.35 15.6277 271.224 15.7646C271.097 15.9016 270.925 15.9867 270.74 16.0037C270.554 16.0206 270.369 15.9681 270.22 15.8563L270.159 15.8053L269.792 15.4991C269.528 15.2949 269.131 14.9989 268.581 14.6314C266.987 13.5852 265.279 12.7256 263.491 12.0693C260.705 11.0577 257.786 10.4626 254.827 10.3034C253.011 10.2191 251.191 10.2601 249.38 10.4259L247.863 10.5892H247.487H247.293H247.161L246.469 10.7117C245.516 10.9241 244.588 11.2353 243.699 11.6406C240.014 13.3759 236.665 16.7955 233.519 20.6437C231.941 22.5934 230.312 24.6043 228.703 26.7683C227.092 29.0688 225.272 31.2147 223.267 33.1787C221.017 35.2827 218.27 36.779 215.285 37.5272C213.744 37.8895 212.165 38.0643 210.582 38.0478L209.35 37.9866H208.749L208.21 37.9049L207.141 37.7722H207.008H206.866H206.795L206.51 37.7007L205.96 37.5782L203.73 37.0577C202.988 36.8492 202.257 36.6004 201.541 36.3125C200.088 35.7763 198.682 35.1208 197.337 34.3526C194.745 32.7447 192.368 30.8137 190.261 28.6057C188.225 26.4621 186.25 24.2879 184.153 22.328C182.059 20.4048 179.674 18.8268 177.087 17.6529C175.886 16.969 174.593 16.4688 173.382 15.8155C172.17 15.1622 170.877 14.7335 169.645 14.1517C167.121 13.1515 164.52 12.3594 161.867 11.7835C156.955 10.4126 151.766 10.3879 146.841 11.712C144.574 12.3486 142.414 13.315 140.427 14.5804C139.938 14.856 139.47 15.1724 139.002 15.4889C138.533 15.8053 138.075 16.0911 137.648 16.428L136.324 17.3671C135.897 17.7039 135.469 18.0102 135.041 18.3266C131.953 20.6635 129.112 23.3108 126.561 26.2273C124.547 28.4969 122.667 30.8827 120.931 33.3727C119.465 35.4142 118.396 37.1189 117.704 38.2826C117.011 39.4462 116.686 40.0587 116.686 40.0587C116.59 40.2207 116.439 40.3417 116.26 40.3987C116.081 40.4556 115.887 40.4446 115.716 40.3676C115.545 40.2905 115.408 40.153 115.331 39.9812C115.255 39.8094 115.244 39.6153 115.301 39.436L115.148 39.3748Z" fill="#A59789"/>
<g style="mix-blend-mode:soft-light">
<path d="M85.5131 52.0459C84.5852 48.0202 75.4392 47.0401 66.3237 49.2111C58.0954 51.1607 50.8153 56.6934 50.6725 60.3819C50.5808 62.9955 60.2264 58.622 69.352 57.2731C76.7239 56.1981 86.9099 58.0318 85.5131 52.0459Z" fill="white"/>
</g>
<path d="M57.2139 96.4508C57.2788 95.8049 57.1189 95.1571 56.7544 94.5892C56.3899 94.0212 55.8373 93.5586 55.1662 93.2598C54.4951 92.961 53.7358 92.8394 52.9842 92.9103C52.2325 92.9813 51.5223 93.2417 50.9433 93.6586C50.3642 94.0755 49.9422 94.6302 49.7308 95.2525C49.5193 95.8749 49.5277 96.537 49.7551 97.1552C49.9824 97.7735 50.4184 98.3201 51.008 98.726C51.5976 99.1319 52.3143 99.3789 53.0675 99.4358C54.0787 99.5097 55.0829 99.237 55.86 98.6775C56.6372 98.118 57.124 97.3173 57.2139 96.4508Z" fill="black"/>
<path d="M104.206 109.066C104.271 108.312 104.111 107.556 103.746 106.893C103.382 106.23 102.828 105.69 102.157 105.342C101.485 104.993 100.725 104.852 99.973 104.935C99.2209 105.019 98.5105 105.324 97.9317 105.811C97.3529 106.298 96.9316 106.947 96.7212 107.673C96.5108 108.4 96.5206 109.173 96.7496 109.894C96.9785 110.616 97.4163 111.253 98.0074 111.725C98.5985 112.197 99.3164 112.484 100.07 112.548C101.08 112.634 102.083 112.316 102.859 111.663C103.634 111.01 104.119 110.076 104.206 109.066Z" fill="black"/>
<path d="M61.4658 99.7602C61.5084 99.9566 61.5397 100.155 61.5595 100.355C61.6071 100.863 61.6071 101.375 61.5595 101.883C61.5003 102.608 61.3571 103.324 61.1326 104.016C61.0053 104.41 60.8487 104.794 60.6641 105.165C60.4904 105.557 60.285 105.934 60.0498 106.293C59.816 106.651 59.5586 106.994 59.2793 107.319C59.0155 107.641 58.7266 107.943 58.4151 108.221C58.1288 108.486 57.8263 108.732 57.5093 108.96C57.2333 109.167 56.9408 109.352 56.6347 109.514C56.3853 109.667 56.1242 109.8 55.8538 109.914L55.2291 110.16L54.6773 110.344C54.6096 110.369 54.5378 110.379 54.4659 110.376C54.394 110.373 54.3235 110.355 54.2585 110.325C54.1936 110.294 54.1354 110.251 54.0876 110.198C54.0397 110.145 54.003 110.083 53.9797 110.016C53.9398 109.912 53.9345 109.799 53.9644 109.692C53.9944 109.585 54.0581 109.49 54.1463 109.421L54.5627 109.083L55.0417 108.724C55.2395 108.601 55.4061 108.396 55.6247 108.232C55.8536 108.041 56.0726 107.839 56.2807 107.627C56.4993 107.401 56.7492 107.175 56.9679 106.919C57.1865 106.662 57.426 106.406 57.6238 106.119C57.8463 105.837 58.0514 105.543 58.2381 105.237C58.9426 104.104 59.4889 102.883 59.8624 101.606C60.0289 101.083 60.1331 100.581 60.2059 100.304C60.2526 100.142 60.2908 99.9774 60.3205 99.8115C60.3584 99.7053 60.4288 99.6133 60.5221 99.5483C60.6153 99.4832 60.7268 99.4482 60.8411 99.4482C60.9553 99.4482 61.0668 99.4832 61.1601 99.5483C61.2533 99.6133 61.3238 99.7053 61.3617 99.8115L61.4658 99.7602Z" fill="black"/>
<path d="M60.3997 105.055L60.6503 105.303L61.3519 105.946C61.6827 106.215 62.0535 106.567 62.5146 106.92C62.9756 107.272 63.5169 107.676 64.0882 108.08C64.6595 108.484 65.311 108.94 66.0326 109.323C66.7543 109.707 67.476 110.183 68.2778 110.556C69.0796 110.929 69.9116 111.344 70.7735 111.686L73.4196 112.639L76.1759 113.344C76.6208 113.459 77.073 113.542 77.529 113.592L78.822 113.789C79.6561 113.907 80.4961 113.977 81.3378 113.996C82.092 114.049 82.8488 114.049 83.603 113.996C84.3146 113.996 84.9361 113.862 85.5174 113.81C86.0987 113.758 86.5197 113.623 86.9707 113.551L87.8828 113.323L88.1835 113.23H88.2437C88.3094 113.207 88.3789 113.199 88.4478 113.206C88.5167 113.212 88.5836 113.233 88.6445 113.267C88.7054 113.301 88.759 113.347 88.8021 113.403C88.8452 113.459 88.8769 113.523 88.8951 113.592C88.9343 113.716 88.9284 113.851 88.8786 113.971C88.8288 114.091 88.7385 114.189 88.6245 114.245L88.2737 114.411C88.0532 114.494 87.7325 114.659 87.2714 114.804C86.8104 114.949 86.3393 115.136 85.7379 115.26C85.0794 115.437 84.4095 115.566 83.7333 115.644C82.9299 115.765 82.1196 115.831 81.3077 115.841H79.9847C79.7542 115.841 79.5236 115.841 79.2931 115.841L78.5815 115.768L77.1381 115.602C76.6485 115.561 76.1626 115.482 75.6848 115.364L72.8182 114.659L70.0018 113.623C69.0897 113.25 68.2377 112.753 67.3858 112.349C66.5338 111.945 65.8021 111.375 65.0704 110.919C64.3388 110.463 63.7173 109.883 63.0658 109.448C62.4143 109.013 61.9733 108.484 61.5123 108.07C61.0512 107.655 60.7104 107.231 60.4097 106.909C60.109 106.588 59.8885 106.288 59.7382 106.101L59.5177 105.811C59.4356 105.695 59.4003 105.55 59.4189 105.407C59.4376 105.264 59.5089 105.134 59.6179 105.044C59.7142 104.959 59.8369 104.912 59.9637 104.912C60.0906 104.912 60.2132 104.959 60.3095 105.044L60.3997 105.055Z" fill="black"/>
<path d="M91.9567 109.049L91.729 109.471C91.5773 109.732 91.3714 110.124 91.1437 110.597C90.621 111.725 90.2567 112.91 90.0598 114.125C89.9881 114.456 89.9446 114.792 89.9298 115.13C89.9298 115.451 89.9298 115.773 89.9298 116.085C89.9298 116.396 89.9298 116.698 89.9298 116.989C89.9298 117.281 89.9948 117.552 90.0273 117.803C90.0598 118.055 90.0273 118.296 90.1249 118.507L90.2441 119.05L90.3308 119.532V119.592C90.3529 119.732 90.3154 119.874 90.2264 119.989C90.1374 120.103 90.0038 120.181 89.8539 120.206C89.7393 120.222 89.6221 120.206 89.5176 120.159C89.4131 120.112 89.3263 120.037 89.2686 119.944L88.9759 119.482L88.6616 118.929C88.5365 118.689 88.4314 118.44 88.3473 118.185C88.2162 117.887 88.1182 117.577 88.0546 117.261C87.9622 116.91 87.8934 116.554 87.8487 116.195C87.8213 115.807 87.8213 115.417 87.8487 115.029C87.8579 114.629 87.8941 114.229 87.9571 113.833C88.0227 113.436 88.1169 113.043 88.2389 112.657C88.5634 111.635 89.0689 110.671 89.7347 109.803C90.036 109.414 90.3772 109.054 90.7535 108.727C90.8956 108.596 91.0477 108.475 91.2088 108.365C91.2586 108.314 91.3189 108.272 91.3861 108.242C91.4534 108.212 91.5264 108.195 91.6008 108.191C91.6753 108.187 91.7499 108.197 91.8202 108.22C91.8906 108.243 91.9554 108.279 92.0109 108.325C92.0664 108.371 92.1115 108.427 92.1438 108.49C92.176 108.552 92.1946 108.62 92.1987 108.689C92.2027 108.758 92.192 108.827 92.1672 108.892C92.1424 108.957 92.104 109.017 92.0542 109.069L91.9567 109.049Z" fill="black"/>
<g style="mix-blend-mode:soft-light">
<path d="M46.719 61.437C45.2675 60.4073 39.9858 62.9189 40.9535 64.945C41.9211 66.971 49.6925 63.6054 46.719 61.437Z" fill="white"/>
</g>
<g style="mix-blend-mode:multiply" opacity="0.2">
<path d="M129.896 89.6258C126.967 88.7253 132.672 132.994 87.5011 149.325C57.1896 160.283 33.1854 145.713 32.124 150.023C31.0626 154.334 58.0367 183.839 96.7986 172.122C144.827 157.592 143.531 93.8351 129.896 89.6258Z" fill="#22182A"/>
</g>
<path d="M264.013 9.85712C264.283 9.88361 264.551 9.93335 264.813 10.0058C265.472 10.1848 266.108 10.4415 266.708 10.7708C267.106 10.9778 267.489 11.2121 267.855 11.4719C268.245 11.7482 268.645 12.0669 269.055 12.3856C269.92 13.0543 270.86 13.6177 271.856 14.0642C272.35 14.3085 272.908 14.5316 273.35 14.7866C273.823 15.0388 274.28 15.3191 274.719 15.6259C275.561 16.2421 276.34 16.8264 276.982 17.3789C277.711 17.9848 278.391 18.6492 279.014 19.3655C279.033 19.3843 279.048 19.4066 279.058 19.4312C279.068 19.4559 279.073 19.4823 279.073 19.509C279.073 19.5356 279.068 19.562 279.058 19.5866C279.048 19.6113 279.033 19.6336 279.014 19.6524C278.986 19.6643 278.955 19.6705 278.924 19.6705C278.894 19.6705 278.863 19.6643 278.835 19.6524C277.922 19.3955 277.032 19.0651 276.172 18.6643C275.403 18.3244 274.54 17.8782 273.624 17.3789C273.157 17.1175 272.707 16.8265 272.277 16.5077C271.845 16.1783 271.413 15.8065 270.982 15.4453C270.149 14.7425 269.237 14.14 268.266 13.6498C267.803 13.4055 267.34 13.193 266.929 12.9593C266.536 12.7382 266.156 12.4934 265.792 12.2262C265.244 11.8206 264.742 11.3537 264.297 10.8345C264.111 10.6283 263.945 10.4041 263.803 10.1652C263.772 10.1087 263.765 10.0426 263.783 9.98094C263.801 9.91932 263.842 9.8672 263.897 9.83585C263.937 9.83225 263.977 9.83961 264.013 9.85712Z" fill="#EECA54"/>
<path d="M273.403 6.74388C273.472 7.00862 273.519 7.2779 273.546 7.54941C273.626 8.22026 273.626 8.89757 273.546 9.56842C273.487 10.0091 273.399 10.4459 273.282 10.8761C273.15 11.3364 272.985 11.8176 272.832 12.3093C272.503 13.3299 272.296 14.3827 272.216 15.4476C272.161 16.0021 272.139 16.5565 272.063 17.09C271.992 17.6191 271.886 18.1433 271.744 18.6592C271.458 19.653 271.173 20.5841 270.865 21.3582C270.545 22.2477 270.152 23.1117 269.689 23.9421C269.676 23.9648 269.658 23.9848 269.636 24.0007C269.614 24.0167 269.589 24.0284 269.563 24.0352C269.536 24.042 269.508 24.0438 269.481 24.0404C269.454 24.037 269.428 24.0285 269.404 24.0154C269.374 23.9992 269.348 23.9766 269.329 23.9494C269.31 23.9221 269.298 23.891 269.294 23.8584C269.215 22.9254 269.215 21.9879 269.294 21.0548C269.294 20.2179 269.459 19.2555 269.613 18.2408C269.698 17.7143 269.819 17.1936 269.975 16.682C270.129 16.159 270.327 15.6359 270.513 15.1129C270.887 14.0967 271.142 13.0441 271.272 11.9745C271.326 11.4514 271.37 10.9284 271.447 10.489C271.522 10.0476 271.624 9.61087 271.755 9.18136C271.943 8.53044 272.208 7.90214 272.546 7.3088C272.68 7.06803 272.838 6.8403 273.018 6.62882C273.041 6.60603 273.068 6.58786 273.098 6.57544C273.129 6.56303 273.161 6.55664 273.194 6.55664C273.227 6.55664 273.26 6.56303 273.29 6.57544C273.32 6.58786 273.347 6.60603 273.37 6.62882C273.389 6.66462 273.4 6.70378 273.403 6.74388Z" fill="#EECA54"/>
<path d="M268.458 7.64941C268.659 7.78307 268.846 7.93794 269.017 8.1116C269.452 8.52346 269.835 8.99306 270.155 9.50863C270.364 9.84511 270.551 10.196 270.714 10.559C270.894 10.9372 271.054 11.3679 271.233 11.7986C271.589 12.7015 272.059 13.5496 272.631 14.3195C272.91 14.7292 273.21 15.1284 273.47 15.538C273.723 15.9358 273.947 16.3537 274.138 16.788C274.509 17.5574 274.842 18.3463 275.137 19.1515C275.424 19.9489 275.645 20.7713 275.796 21.6094C275.8 21.6357 275.799 21.6625 275.793 21.6885C275.788 21.7144 275.777 21.7388 275.762 21.7604C275.747 21.7819 275.728 21.8001 275.707 21.8139C275.685 21.8276 275.661 21.8367 275.636 21.8405C275.585 21.8616 275.527 21.8616 275.476 21.8405C274.881 21.2587 274.337 20.6225 273.849 19.9393C273.4 19.3405 272.93 18.6262 272.451 17.8384C272.209 17.432 271.995 17.0071 271.812 16.5674C271.613 16.1157 271.453 15.6431 271.283 15.1704C270.963 14.2503 270.53 13.3781 269.995 12.5759C269.746 12.1977 269.486 11.8301 269.277 11.4624C269.074 11.1256 268.894 10.7746 268.737 10.412C268.495 9.85241 268.321 9.26307 268.218 8.6578C268.172 8.41226 268.148 8.16244 268.148 7.91202C268.15 7.8789 268.157 7.84637 268.17 7.8163C268.184 7.78623 268.202 7.75921 268.226 7.73677C268.249 7.71433 268.276 7.69693 268.306 7.68554C268.335 7.67416 268.367 7.669 268.398 7.67041C268.417 7.66011 268.437 7.65303 268.458 7.64941Z" fill="#E5803C"/>
<path d="M266.003 21.5021C266.057 21.2354 266.134 20.9746 266.235 20.7232C266.471 20.0871 266.779 19.4828 267.152 18.9234C267.392 18.5546 267.654 18.203 267.939 17.8709C268.231 17.513 268.584 17.1551 268.947 16.8183C269.669 16.0366 270.298 15.1673 270.822 14.2291C271.104 13.7555 271.377 13.2713 271.669 12.8187C271.954 12.3761 272.267 11.9541 272.606 11.5557C273.272 10.7768 273.907 10.0716 274.502 9.50323C275.144 8.83983 275.839 8.23423 276.579 7.69287C276.612 7.66476 276.654 7.64945 276.698 7.64941C276.741 7.64938 276.783 7.66461 276.817 7.69268C276.851 7.72075 276.875 7.75999 276.884 7.80398C276.894 7.84797 276.889 7.89411 276.871 7.93494C276.531 8.80844 276.127 9.65305 275.661 10.461C275.258 11.1873 274.744 11.9977 274.179 12.8503C273.867 13.2848 273.53 13.6995 273.171 14.0923C272.818 14.4922 272.425 14.8817 272.042 15.2711C271.278 16.0206 270.601 16.8614 270.026 17.7761C269.753 18.2077 269.501 18.6392 269.229 19.0287C268.984 19.3984 268.714 19.7501 268.423 20.0812C267.981 20.585 267.487 21.0368 266.951 21.4284C266.738 21.5864 266.512 21.7238 266.275 21.8389C266.247 21.8509 266.216 21.8567 266.186 21.8563C266.155 21.8559 266.125 21.8491 266.097 21.8364C266.069 21.8237 266.043 21.8053 266.022 21.7822C266.001 21.7592 265.984 21.7319 265.973 21.7021C265.961 21.6688 265.958 21.633 265.963 21.5981C265.969 21.5631 265.982 21.5301 266.003 21.5021Z" fill="#E5803C"/>
<path d="M278.991 14.0897C278.813 14.2575 278.622 14.4019 278.42 14.5206C277.931 14.8256 277.411 15.0451 276.874 15.1731C276.131 15.3359 275.374 15.3937 274.62 15.3454C273.758 15.35 272.901 15.4991 272.071 15.7886C271.242 16.1093 270.387 16.3117 269.521 16.3918C268.694 16.3918 267.927 16.3918 267.257 16.3918C266.501 16.3512 265.75 16.2234 265.013 16.0102C264.988 16.0046 264.965 15.9925 264.944 15.9748C264.923 15.9571 264.906 15.9341 264.893 15.9073C264.88 15.8806 264.872 15.8507 264.869 15.8196C264.865 15.7885 264.868 15.757 264.875 15.7271C264.879 15.6922 264.891 15.6592 264.908 15.6312C264.925 15.6032 264.948 15.5811 264.973 15.567C265.656 15.1554 266.368 14.8256 267.1 14.5821C267.826 14.3255 268.561 14.1159 269.305 13.9543C270.161 13.7929 271.03 13.7556 271.894 13.8435C272.756 13.8944 273.62 13.7992 274.463 13.5604C275.189 13.313 275.935 13.1644 276.687 13.1172C277.234 13.0953 277.78 13.1657 278.312 13.3265C278.527 13.3903 278.738 13.4768 278.942 13.585C278.998 13.6219 279.041 13.6849 279.061 13.7607C279.082 13.8365 279.078 13.9192 279.05 13.9912C279.036 14.0289 279.016 14.0624 278.991 14.0897Z" fill="#E5803C"/>
</g>
<defs>
<filter id="filter0_d_3004_1191" x="6.23438" y="42.6201" width="145.695" height="146.791" filterUnits="userSpaceOnUse" color-interpolation-filters="sRGB">
<feFlood flood-opacity="0" result="BackgroundImageFix"/>
<feColorMatrix in="SourceAlpha" type="matrix" values="0 0 0 0 0 0 0 0 0 0 0 0 0 0 0 0 0 0 127 0" result="hardAlpha"/>
<feOffset dy="4"/>
<feGaussianBlur stdDeviation="2"/>
<feComposite in2="hardAlpha" operator="out"/>
<feColorMatrix type="matrix" values="0 0 0 0 0 0 0 0 0 0 0 0 0 0 0 0 0 0 0.3 0"/>
<feBlend mode="normal" in2="BackgroundImageFix" result="effect1_dropShadow_3004_1191"/>
<feBlend mode="normal" in="SourceGraphic" in2="effect1_dropShadow_3004_1191" result="shape"/>
</filter>
<clipPath id="clip0_3004_1191">
<rect width="288.848" height="188.34" fill="white" transform="translate(0.398438)"/>
</clipPath>
</defs>
</svg>
