<svg width="168" height="138" viewBox="0 0 168 138" fill="none" xmlns="http://www.w3.org/2000/svg">
<g clip-path="url(#clip0_3004_1166)">
<path d="M66.0908 20.0417L65.5736 19.6035C65.2344 19.3085 64.7257 18.8956 64.0728 18.3647C62.7755 17.3114 60.9272 15.8367 58.587 14.2609C57.3486 13.4251 56.0634 12.6598 54.7376 11.9689C53.2837 11.1896 51.7246 10.622 50.1082 10.2835C48.4255 9.94592 46.6887 9.98044 45.0209 10.3846C44.5955 10.4834 44.1787 10.6158 43.7745 10.7807L43.4947 10.8818L43.164 11.0335L42.5027 11.3369C41.7058 11.7556 40.9407 12.2316 40.2134 12.761C38.7102 13.8751 37.3265 15.1402 36.0842 16.5361C34.8124 17.9181 33.6847 19.4181 32.5909 20.8675C31.4972 22.3169 30.5221 23.8084 29.4538 25.1398C28.4686 26.4485 27.3075 27.6166 26.0029 28.6117C24.8488 29.4395 23.5694 30.0795 22.2129 30.5077C21.1641 30.8311 20.079 31.0236 18.9824 31.0807C18.2858 31.107 17.5881 31.076 16.8966 30.988L16.1759 30.8869C16.0947 30.883 16.0149 30.8633 15.9413 30.8288C15.8677 30.7943 15.8017 30.7457 15.7469 30.6859C15.6364 30.565 15.5788 30.4054 15.5866 30.2422C15.5905 30.1614 15.6104 30.0822 15.6451 30.0091C15.6798 29.9359 15.7287 29.8703 15.7889 29.8159C15.9106 29.7061 16.0711 29.6488 16.2353 29.6566H16.2946H16.9645C17.5891 29.6436 18.2122 29.5902 18.8298 29.4965C19.7716 29.366 20.694 29.1227 21.5769 28.7718C22.7233 28.3156 23.8015 27.7061 24.7819 26.96C25.9806 26.0389 27.1139 25.0365 28.1735 23.9601C29.3889 22.7231 30.5218 21.4085 31.565 20.0248C32.6503 18.567 33.7525 17.0333 34.9565 15.4997C36.1571 13.9075 37.54 12.4596 39.0772 11.1852C39.8868 10.5434 40.7555 9.97915 41.6718 9.49982L42.3246 9.1796L42.6468 9.0195C42.8334 8.93523 42.9097 8.90995 43.0453 8.85939C43.526 8.65057 44.022 8.47872 44.5291 8.34536C46.4997 7.82767 48.5607 7.74711 50.566 8.10941C52.3981 8.45274 54.1808 9.01877 55.8738 9.79476C57.3672 10.4599 58.7878 11.276 60.1132 12.2301C62.0733 13.6448 63.8579 15.2854 65.4294 17.1176C66.0437 17.8061 66.6103 18.5353 67.1252 19.3001C67.2206 19.4264 67.2649 19.5835 67.2496 19.7406C67.2343 19.8977 67.1603 20.0435 67.0423 20.1491C66.9243 20.2548 66.7708 20.3127 66.6119 20.3116C66.4531 20.3104 66.3005 20.2502 66.1841 20.1428L66.0908 20.0417Z" fill="#A59789"/>
<g filter="url(#filter0_d_3004_1166)">
<path d="M158.535 72.7843C158.533 61.4364 155.146 50.3439 148.801 40.9093C142.456 31.4747 133.439 24.1217 122.89 19.7803C112.341 15.4388 100.733 14.3037 89.5345 16.5186C78.336 18.7335 68.0499 24.1988 59.9768 32.2236C51.9036 40.2483 46.406 50.472 44.179 61.602C41.9521 72.7319 43.0959 84.2682 47.4658 94.7521C51.8356 105.236 59.2353 114.197 68.7292 120.501C78.223 126.805 89.3846 130.17 100.803 130.17C108.385 130.17 115.893 128.686 122.898 125.802C129.903 122.918 136.268 118.691 141.629 113.362C146.99 108.033 151.242 101.707 154.143 94.7443C157.044 87.782 158.536 80.3199 158.535 72.7843Z" fill="#D0C8DF"/>
</g>
<path d="M115.022 49.5612C115.108 50.1142 115.032 50.68 114.804 51.1916C114.576 51.7033 114.206 52.1392 113.736 52.4476C113.266 52.7561 112.717 52.9241 112.155 52.9318C111.592 52.9395 111.038 52.7866 110.56 52.4911C110.082 52.1956 109.699 51.77 109.457 51.2648C109.216 50.7596 109.124 50.196 109.195 49.6409C109.266 49.0858 109.495 48.5625 109.856 48.1332C110.217 47.7038 110.695 47.3864 111.232 47.2186C112.046 47.0339 112.902 47.1763 113.612 47.615C114.321 48.0537 114.828 48.7531 115.022 49.5612Z" fill="black"/>
<path d="M76.5917 67.5098C76.6799 68.0648 76.6059 68.6334 76.3783 69.1479C76.1507 69.6623 75.7792 70.1009 75.308 70.4115C74.8367 70.7221 74.2856 70.8916 73.7203 70.8998C73.1549 70.908 72.5991 70.7545 72.1189 70.4578C71.6388 70.161 71.2545 69.7333 71.0119 69.2257C70.7693 68.7181 70.6786 68.1519 70.7505 67.5945C70.8225 67.0371 71.054 66.512 71.4177 66.0817C71.7813 65.6513 72.2617 65.3339 72.8016 65.1671C73.6163 64.9847 74.4705 65.1281 75.1797 65.5665C75.8889 66.0048 76.3961 66.7029 76.5917 67.5098Z" fill="black"/>
<path d="M62.4597 33.382C60.1789 32.6742 58.5679 22.7643 58.7121 21.9385C59.0343 20.034 67.8692 12.9724 72.0323 13.9331C74.364 14.4808 79.8074 19.4526 80.0872 22.2166C80.367 24.9805 66.8941 34.764 62.4597 33.382Z" fill="#352F3B"/>
<path d="M109.01 69.5154L109.341 69.7177C106.882 72.1109 103.406 70.4929 98.1997 73.0884C94.4012 75.0265 92.9853 77.1079 91.3489 78.0349L90.891 77.3944C90.891 77.3944 90.4247 69.625 96.5294 67.0295C103.168 64.2656 109.01 69.5154 109.01 69.5154Z" fill="#CEA5D6"/>
<path d="M96.5265 67.0712C90.4217 69.6666 90.8881 77.4361 90.8881 77.4361L91.3459 78.0765C90.9094 78.3252 90.4272 78.4847 89.9278 78.5455C89.4283 78.6063 88.9217 78.5671 88.4377 78.4304C84.7155 77.5877 81.1544 64.2314 91.8292 58.7624C104.327 52.3665 112.611 63.9449 110.61 67.9138C110.293 68.5807 109.866 69.1902 109.346 69.7172L109.016 69.5149C109.016 69.5149 103.165 64.2651 96.5265 67.0712Z" fill="black"/>
<g style="mix-blend-mode:soft-light">
<path d="M104.993 25.7213C104.9 27.769 110.886 27.255 119.45 30.7773C125.097 33.1115 130.218 37.6957 132.863 35.1087C135.102 32.9262 129.166 26.7578 119.653 23.9938C112.2 21.845 105.12 22.9236 104.993 25.7213Z" fill="white"/>
</g>
<g style="mix-blend-mode:soft-light">
<path d="M99.8753 23.1343C100.062 20.7412 91.3965 19.0895 91.176 22.5782C90.9556 26.0669 99.6125 26.4798 99.8753 23.1343Z" fill="white"/>
</g>
<path d="M8.98592 27.4412C9.22653 27.3965 9.47039 27.3711 9.71511 27.3653C10.3344 27.3563 10.9531 27.4042 11.5635 27.5086C11.9366 27.576 12.3351 27.6687 12.759 27.7867C13.1745 27.9046 13.6069 28.0648 14.0563 28.208C14.995 28.5209 15.964 28.7355 16.9475 28.8484C17.4478 28.9159 17.9565 28.9664 18.4483 29.0591C18.9274 29.1359 19.4005 29.2457 19.8643 29.3878C20.7715 29.6574 21.6194 29.9271 22.3316 30.2304C23.1353 30.5238 23.9173 30.873 24.6717 31.2754C24.7005 31.2935 24.7227 31.3202 24.7352 31.3516C24.7477 31.3831 24.7499 31.4176 24.7414 31.4504C24.7329 31.4831 24.7142 31.5123 24.688 31.5339C24.6618 31.5554 24.6294 31.5682 24.5954 31.5703C23.7454 31.5851 22.8954 31.54 22.0518 31.4355C21.2887 31.3512 20.4154 31.2079 19.5081 31.0394C19.0327 30.9443 18.5628 30.8233 18.1007 30.677C17.6258 30.5338 17.151 30.3484 16.6677 30.1799C15.7408 29.833 14.7805 29.5817 13.8019 29.4299C13.3356 29.3541 12.8777 29.2951 12.4538 29.2108C12.055 29.1338 11.6614 29.0325 11.2752 28.9074C10.6851 28.7315 10.1164 28.4913 9.57945 28.1912C9.36474 28.0771 9.16047 27.9445 8.96897 27.7951C8.93375 27.759 8.91406 27.7106 8.91406 27.6603C8.91406 27.61 8.93375 27.5616 8.96897 27.5254C8.96848 27.4965 8.97426 27.4677 8.98592 27.4412Z" fill="#F2C05C"/>
<path d="M11.1484 23.3872C11.3706 23.4752 11.5859 23.5794 11.7927 23.6989C12.3132 24.0037 12.8018 24.3594 13.2511 24.7607C13.5505 25.0244 13.8336 25.3058 14.099 25.6034C14.3788 25.9152 14.6586 26.2691 14.9469 26.623C15.5604 27.3645 16.2511 28.0396 17.0072 28.637C17.3888 28.9488 17.7788 29.2522 18.1349 29.5724C18.49 29.8874 18.8269 30.2222 19.1439 30.5752C19.7544 31.2662 20.3055 31.9319 20.7464 32.5217C21.2551 33.1799 21.7169 33.8725 22.1284 34.5947C22.1387 34.6135 22.1451 34.6341 22.1473 34.6553C22.1494 34.6766 22.1473 34.6981 22.141 34.7185C22.1346 34.7389 22.1243 34.7578 22.1105 34.7742C22.0967 34.7906 22.0797 34.8041 22.0606 34.8138C22.0371 34.8263 22.0109 34.8329 21.9843 34.8329C21.9577 34.8329 21.9314 34.8263 21.908 34.8138C21.1894 34.3904 20.5035 33.9143 19.8561 33.3897C19.2626 32.9346 18.6182 32.3701 17.9399 31.7043C17.5888 31.3874 17.2602 31.0467 16.9564 30.6847C16.6342 30.3139 16.3459 29.9179 16.0321 29.5302C15.4514 28.7649 14.789 28.0642 14.0566 27.4404C13.709 27.1371 13.3613 26.8505 13.0561 26.5977C12.7541 26.3368 12.4707 26.0552 12.2082 25.7551C11.8102 25.3026 11.4633 24.8081 11.1738 24.2804C11.0523 24.0738 10.9501 23.8566 10.8685 23.6315C10.8608 23.6077 10.8579 23.5826 10.8601 23.5577C10.8623 23.5328 10.8696 23.5086 10.8815 23.4866C10.8934 23.4645 10.9096 23.4451 10.9292 23.4295C10.9489 23.4138 10.9715 23.4023 10.9957 23.3956C11.0187 23.3824 11.0445 23.3748 11.071 23.3733C11.0975 23.3718 11.124 23.3766 11.1484 23.3872Z" fill="#F2D463"/>
<path d="M16.5537 23.0331C16.6636 23.2132 16.7518 23.4055 16.8165 23.6061C17.0012 24.0946 17.1237 24.6042 17.1811 25.1229C17.2205 25.4613 17.2375 25.8019 17.232 26.1426C17.232 26.5133 17.232 26.8925 17.1811 27.2886C17.1275 28.1203 17.1788 28.9554 17.3337 29.7745C17.4016 30.1874 17.4948 30.6171 17.5372 31.0216C17.5887 31.4268 17.6114 31.8351 17.6051 32.2435C17.6051 33.0862 17.5542 33.7856 17.4779 34.4176C17.4074 35.1371 17.2798 35.85 17.0963 36.5496C17.0827 36.59 17.0541 36.6239 17.0163 36.6442C16.9786 36.6645 16.9344 36.6699 16.8929 36.6591C16.8682 36.6539 16.8453 36.6427 16.826 36.6265C16.8068 36.6104 16.7919 36.5897 16.7826 36.5664C16.5393 35.8838 16.3549 35.1819 16.2315 34.4682C16.09 33.7549 15.9853 33.0349 15.9178 32.3109C15.8919 31.904 15.8919 31.4959 15.9178 31.089C15.9178 30.6761 15.9856 30.2464 16.0195 29.825C16.1209 28.9854 16.1209 28.1367 16.0195 27.297C15.9602 26.901 15.9008 26.5218 15.8669 26.1594C15.8464 25.8198 15.8464 25.4793 15.8669 25.1398C15.8831 24.6181 15.9628 24.1003 16.1043 23.5977C16.1552 23.3946 16.2262 23.197 16.3163 23.0078C16.3416 22.9614 16.3835 22.9261 16.4338 22.9089C16.484 22.8917 16.5389 22.894 16.5876 22.9151C16.5878 22.9568 16.5761 22.9978 16.5537 23.0331Z" fill="#F2C05C"/>
<path d="M23.0216 22.6033C22.9461 22.8389 22.8496 23.0673 22.7333 23.2859C22.4529 23.84 22.1178 24.365 21.7328 24.8532C21.4679 25.1778 21.1848 25.4872 20.8849 25.7802C20.5797 26.092 20.2406 26.4038 19.8929 26.7408C19.1718 27.4276 18.5214 28.1842 17.9513 28.9992C17.6545 29.4205 17.3662 29.8419 17.0525 30.2379C16.7616 30.6248 16.4503 30.9961 16.1198 31.3502C15.45 32.0244 14.8056 32.648 14.2206 33.1451C13.5808 33.7229 12.9008 34.2551 12.1856 34.7378C12.1483 34.7603 12.1036 34.7676 12.061 34.7582C12.0183 34.7488 11.981 34.7233 11.9567 34.6872C11.9441 34.6639 11.9375 34.6379 11.9375 34.6114C11.9375 34.5849 11.9441 34.5589 11.9567 34.5356C12.3519 33.77 12.7995 33.0324 13.2964 32.3278C13.7288 31.6873 14.2714 30.9795 14.865 30.2379C15.1702 29.8671 15.5009 29.5048 15.857 29.1509C16.2131 28.7969 16.6031 28.4683 16.9762 28.1228C17.7288 27.4643 18.4107 26.73 19.0111 25.9319C19.2994 25.5527 19.5707 25.1735 19.859 24.8364C20.1221 24.5156 20.4053 24.2116 20.7069 23.9263C21.1501 23.4867 21.6357 23.0916 22.1568 22.7466C22.362 22.6097 22.5774 22.4885 22.8012 22.3842C22.8244 22.3732 22.8496 22.3671 22.8754 22.3663C22.9011 22.3655 22.9267 22.37 22.9506 22.3795C22.9745 22.389 22.9961 22.4033 23.0142 22.4215C23.0322 22.4397 23.0463 22.4614 23.0555 22.4853C23.0557 22.5271 23.044 22.568 23.0216 22.6033Z" fill="#F2D463"/>
<g style="mix-blend-mode:multiply" opacity="0.2">
<path d="M55.7174 92.0727C51.9613 97.2889 69.7075 121.988 99.3834 124.094C120.58 125.594 146.398 108.084 143.049 98.8141C139.234 88.2807 115.697 104.342 98.9594 102.185C66.316 97.9715 59.9568 86.174 55.7174 92.0727Z" fill="#22182A"/>
</g>
</g>
<defs>
<filter id="filter0_d_3004_1166" x="38.0703" y="15.415" width="125.461" height="124.755" filterUnits="userSpaceOnUse" color-interpolation-filters="sRGB">
<feFlood flood-opacity="0" result="BackgroundImageFix"/>
<feColorMatrix in="SourceAlpha" type="matrix" values="0 0 0 0 0 0 0 0 0 0 0 0 0 0 0 0 0 0 127 0" result="hardAlpha"/>
<feOffset dy="5"/>
<feGaussianBlur stdDeviation="2.5"/>
<feComposite in2="hardAlpha" operator="out"/>
<feColorMatrix type="matrix" values="0 0 0 0 0 0 0 0 0 0 0 0 0 0 0 0 0 0 0.5 0"/>
<feBlend mode="normal" in2="BackgroundImageFix" result="effect1_dropShadow_3004_1166"/>
<feBlend mode="normal" in="SourceGraphic" in2="effect1_dropShadow_3004_1166" result="shape"/>
</filter>
<clipPath id="clip0_3004_1166">
<rect width="167.204" height="136.605" fill="white" transform="translate(0.0703125 0.713867)"/>
</clipPath>
</defs>
</svg>
