<svg width="203" height="196" viewBox="0 0 203 196" fill="none" xmlns="http://www.w3.org/2000/svg">
<g opacity="0.9" clip-path="url(#clip0_3013_6394)">
<path d="M23.4684 128.44C21.6184 129.18 20.0184 134.85 23.4684 136.57C24.2006 136.965 25.0224 137.165 25.8545 137.15C26.6866 137.136 27.5008 136.907 28.2185 136.485C28.9363 136.064 29.5333 135.465 29.9519 134.746C30.3705 134.027 30.5967 133.212 30.6084 132.38C30.6084 128.93 27.1584 126.99 23.4684 128.44Z" fill="#A39793"/>
<path d="M80.6628 133.64C79.5528 124.91 78.5928 119.02 78.5928 119.02L78.3828 118.41C82.9313 116.709 86.7626 113.505 89.2428 109.33C89.2428 109.33 92.8228 114.33 98.8228 115.18C108.823 116.64 112.373 111.84 112.373 111.84C112.373 111.84 114.283 118.22 120.193 120.7L119.873 121.43C117.363 155.2 128.623 185.63 128.623 185.63C116.123 175.63 111.533 160.63 111.533 160.63C109.453 172.72 111.533 195.24 111.533 195.24C99.0328 178.56 97.3528 150.63 97.3528 150.63C98.1928 166.05 84.2328 185.15 84.2328 179.73C84.2328 164.48 82.2728 146.14 80.6628 133.64Z" fill="#DFA24D"/>
<path d="M177.407 78.4896C165.307 61.8196 147.407 73.4896 147.407 73.4896C147.407 73.4896 160.327 42.6396 140.317 31.8096C120.307 20.9796 99.8769 35.5596 99.8769 35.5596C99.8769 35.5596 95.2969 13.8796 74.0369 9.2896C52.7769 4.6996 34.4069 23.8796 33.1569 40.1396C32.8084 44.895 33.5692 49.6663 35.3791 54.0776C37.1891 58.4888 39.9988 62.4194 43.5869 65.5596C32.2407 72.2967 24.0006 83.2273 20.6469 95.9896C14.7769 117.68 51.7769 121.35 51.7769 121.35C51.7769 121.35 40.9569 127.35 45.3269 135.67C53.2169 150.6 75.4569 141.67 80.6969 133.67C79.5869 124.94 78.6269 119.05 78.6269 119.05L78.4169 118.44C82.9654 116.738 86.7967 113.535 89.2769 109.36C89.2769 109.36 92.8569 114.36 98.8569 115.21C108.857 116.67 112.407 111.87 112.407 111.87C112.407 111.87 114.317 118.25 120.227 120.73C122.126 121.523 124.19 121.84 126.24 121.654C128.289 121.467 130.262 120.783 131.987 119.66L132.197 120.01C138.505 121.852 145.019 122.897 151.587 123.12C184.457 124.28 189.487 95.1696 177.407 78.4896Z" fill="#C4BAB7"/>
<path d="M146.966 85.9898C147.736 89.0798 131.966 89.3198 129.456 79.3198C129.456 79.3198 123.626 86.4098 113.196 82.2398C102.766 78.0698 107.736 68.2398 99.6465 67.8598C94.4365 67.6498 91.0965 74.7398 84.8465 74.7398C78.5965 74.7398 79.4265 70.9398 75.0565 72.4398C69.6265 74.3198 62.4265 78.9498 59.6265 70.1498C56.9265 61.5998 65.0465 60.7698 64.6265 57.6498C64.2065 54.5298 51.2865 57.8498 52.1165 43.8898C52.9465 29.9298 66.8765 25.0398 79.6265 30.7498C91.7165 36.1798 92.1365 48.6798 96.0965 48.2598C100.056 47.8398 107.556 40.1398 123.196 46.1798C138.836 52.2198 123.396 67.4398 127.366 70.9898C129.436 72.8398 133.526 65.6198 140.496 71.1898C144.666 74.5298 140.886 80.0498 141.946 81.8298C143.836 84.9898 146.546 84.3298 146.966 85.9898Z" fill="#DDD4D3"/>
<path d="M153.842 108.93C154.262 119.14 144.052 116.64 144.052 116.64C139.202 114.49 135.812 117.43 131.952 119.64C130.227 120.763 128.254 121.447 126.204 121.634C124.155 121.82 122.091 121.503 120.192 120.71C114.282 118.23 112.372 111.85 112.372 111.85C112.372 111.85 108.832 116.65 98.8215 115.19C92.8215 114.31 89.2415 109.34 89.2415 109.34C86.7613 113.515 82.93 116.718 78.3815 118.42C76.2445 119.184 73.9909 119.569 71.7215 119.56C61.0915 119.56 59.0115 111.64 59.6315 108.3C60.2515 104.96 36.7015 106.64 39.2015 90.17C40.1215 84.17 49.2015 79.17 59.0115 80.79C68.8215 82.41 72.7815 93.19 77.3415 92.87C83.3415 92.45 82.1515 84.53 92.5615 84.53C102.972 84.53 109.652 99.12 109.652 99.12C109.652 99.12 116.962 91 123.652 91.41C130.342 91.82 132.402 103.08 132.402 103.08C141.552 96.21 153.432 98.71 153.842 108.93Z" fill="#DDD4D3"/>
<path d="M88.7818 114.34C89.6085 116.75 90.2766 119.212 90.7818 121.71C91.0318 122.83 91.2618 124.05 91.4818 125.34C91.7018 126.63 91.9018 128 92.0918 129.42C92.2818 130.84 92.4518 132.31 92.5518 133.81C92.6518 135.31 92.8018 136.81 92.8318 138.36C92.8618 139.91 92.9118 141.42 92.8918 142.92C92.8718 144.42 92.8218 145.92 92.7418 147.34C92.6618 148.76 92.5418 150.15 92.3918 151.46C92.2418 152.77 92.1118 154 91.9018 155.13C91.6918 156.26 91.5318 157.3 91.3618 158.21C91.1918 159.12 90.9618 159.91 90.8018 160.56C90.4718 161.86 90.2718 162.56 90.2718 162.56C90.2438 162.657 90.1791 162.739 90.0914 162.79C90.0037 162.84 89.8999 162.854 89.8018 162.83C89.7192 162.804 89.6473 162.752 89.5968 162.681C89.5463 162.611 89.52 162.526 89.5218 162.44C89.5218 162.44 89.5218 161.68 89.6318 160.37C89.6318 159.71 89.7318 158.91 89.8018 158C89.8718 157.09 89.8718 156 89.9218 154.93C89.9718 153.86 89.9918 152.58 90.0218 151.3C90.0218 150.66 90.0218 150 90.0218 149.3C90.0218 148.6 90.0218 147.94 90.0218 147.24V145.1C90.0218 144.38 90.0018 143.65 89.9618 142.91C89.9618 141.44 89.8818 139.91 89.8018 138.46C89.7018 135.46 89.4518 132.46 89.2618 129.68C89.1418 128.28 89.0218 126.93 88.9118 125.68C88.8018 124.43 88.6718 123.19 88.5618 122.07C88.1118 117.58 87.7618 114.58 87.7618 114.58C87.7534 114.514 87.7582 114.447 87.7759 114.383C87.7935 114.32 87.8237 114.26 87.8647 114.208C87.9056 114.156 87.9565 114.112 88.0144 114.08C88.0722 114.048 88.136 114.027 88.2018 114.02C88.3206 113.997 88.4435 114.017 88.5494 114.075C88.6552 114.134 88.7374 114.227 88.7818 114.34Z" fill="#F5DD6B"/>
<path d="M95.992 116.75L96.132 117.04C96.212 117.23 96.3519 117.5 96.4819 117.87C96.8713 118.867 97.2052 119.885 97.4819 120.92C97.6819 121.56 97.872 122.25 98.032 123C98.192 123.75 98.372 124.52 98.532 125.34C98.692 126.16 98.802 127 98.902 127.87C99.002 128.74 99.162 129.61 99.192 130.5C99.3045 132.237 99.3279 133.98 99.262 135.72C99.262 136.56 99.132 137.37 99.072 138.13C99.0326 138.849 98.9424 139.564 98.8019 140.27C98.2619 142.91 97.722 144.59 97.722 144.59C97.6898 144.685 97.6219 144.765 97.5324 144.812C97.4429 144.858 97.3388 144.868 97.242 144.84C97.1703 144.818 97.107 144.774 97.0606 144.715C97.0141 144.656 96.9867 144.585 96.9819 144.51C96.9819 144.51 96.812 142.73 96.822 140.17C96.822 139.53 96.742 138.83 96.712 138.09C96.682 137.35 96.612 136.59 96.592 135.79C96.572 134.99 96.482 134.16 96.412 133.32C96.342 132.48 96.282 131.63 96.222 130.78C96.162 129.93 96.0519 129.08 95.9819 128.24C95.9119 127.4 95.852 126.57 95.762 125.77C95.552 124.18 95.472 122.66 95.332 121.38C95.2653 120.713 95.2153 120.123 95.182 119.61C95.122 119.09 95.092 118.61 95.072 118.25C95.072 117.48 94.992 117.04 94.992 117.04C94.9588 116.907 94.9797 116.767 95.05 116.65C95.1203 116.532 95.2343 116.448 95.367 116.415C95.4996 116.382 95.6399 116.403 95.7571 116.473C95.8743 116.543 95.9588 116.657 95.992 116.79V116.75Z" fill="#F5DD6B"/>
<path d="M106.608 120.68C106.608 120.68 106.558 121.47 106.508 122.81C106.508 123.49 106.428 124.3 106.408 125.25C106.388 126.2 106.408 127.25 106.298 128.41C106.188 129.57 106.298 130.83 106.238 132.16C106.178 133.49 106.158 134.88 106.178 136.33C106.198 137.78 106.178 139.27 106.178 140.79C106.178 142.31 106.258 143.85 106.258 145.39C106.258 146.93 106.308 148.48 106.328 150C106.348 151.52 106.478 153 106.548 154.45C106.618 155.9 106.648 157.3 106.698 158.63C106.748 159.96 106.868 161.21 106.938 162.37C107.278 167.01 107.328 170.14 107.328 170.14C107.331 170.19 107.324 170.241 107.306 170.288C107.289 170.335 107.262 170.378 107.227 170.415C107.193 170.451 107.151 170.48 107.105 170.5C107.059 170.52 107.009 170.53 106.958 170.53C106.872 170.529 106.789 170.5 106.72 170.448C106.652 170.396 106.602 170.323 106.578 170.24C106.578 170.24 105.828 167.24 104.968 162.58C104.768 161.42 104.458 160.18 104.348 158.84C104.238 157.5 104.008 156.09 103.878 154.63C103.748 153.17 103.548 151.63 103.438 150.11C103.328 148.59 103.328 147 103.278 145.43C103.228 143.86 103.158 142.3 103.218 140.75C103.278 139.2 103.328 137.69 103.378 136.22C103.428 134.75 103.558 133.33 103.698 131.99C103.838 130.65 103.948 129.37 104.118 128.21C104.288 127.05 104.468 125.97 104.628 125.03C104.788 124.09 104.968 123.26 105.108 122.59C105.398 121.24 105.628 120.49 105.628 120.49C105.668 120.362 105.756 120.255 105.874 120.191C105.992 120.127 106.13 120.113 106.258 120.15C106.367 120.187 106.46 120.26 106.524 120.356C106.587 120.451 106.617 120.566 106.608 120.68Z" fill="#F5DD6B"/>
<path d="M158.641 135.18C156.641 136.53 158.641 144.36 163.231 142.27C167.821 140.18 162.391 132.68 158.641 135.18Z" fill="#A39793"/>
<path d="M5.78328 119.71C4.94983 119.22 3.95612 119.079 3.01925 119.319C2.08239 119.559 1.27852 120.16 0.783281 120.99C-1.33672 124.1 2.14328 125.33 2.14328 125.33C2.14328 125.33 -0.786718 127.86 0.143282 130.63C1.07328 133.4 5.45328 137.25 10.4633 132.72C11.0765 133.41 11.9093 133.866 12.8206 134.012C13.7318 134.158 14.6655 133.984 15.4633 133.52C18.3633 131.91 16.9133 128.22 16.9133 128.22C16.9133 128.22 20.9133 124.22 17.9933 119.43C15.5533 115.36 11.3733 118.82 11.3733 118.82C11.3733 118.82 10.2333 116.29 8.60328 116.41C8.20052 116.439 7.80752 116.548 7.4471 116.73C7.08667 116.912 6.76599 117.164 6.50365 117.471C6.24132 117.778 6.04256 118.134 5.9189 118.518C5.79524 118.903 5.74914 119.308 5.78328 119.71Z" fill="#928784"/>
<path d="M5.53854 56.1904C5.53854 56.1904 1.77854 60.5604 2.77854 61.1904C3.77854 61.8204 27.7785 64.3104 30.5985 63.6904C33.4185 63.0704 5.53854 56.1904 5.53854 56.1904Z" fill="#F5DD6B"/>
<path d="M28.0532 57.7004C28.6432 59.2804 6.05324 44.3604 4.05324 43.7004C2.05324 43.0404 0.763245 34.7004 3.05324 35.0104C5.34324 35.3204 26.9632 54.7104 28.0532 57.7004Z" fill="#F5DD6B"/>
<path d="M104.547 26.2799C104.237 27.4499 102.047 28.1499 102.047 27.1099C102.047 26.0699 105.177 6.1099 107.257 3.5599C109.337 1.0099 111.847 -0.610096 112.257 0.219904C112.667 1.0499 108.717 10.6399 104.547 26.2799Z" fill="#F5DD6B"/>
<path d="M191.133 32.9901C189.903 32.5901 155.133 64.3701 155.133 64.3701L160.503 63.8001C160.503 63.8001 189.783 43.1601 190.013 41.4901C190.643 36.8001 191.133 32.9901 191.133 32.9901Z" fill="#F5DD6B"/>
<path d="M194.698 88.9899C193.218 87.8099 201.578 82.4299 202.828 85.2399C204.078 88.0499 196.258 90.2699 194.698 88.9899Z" fill="#928784"/>
<path d="M160.312 128.72C159.632 130.42 162.812 133.1 164.692 131.22C166.572 129.34 160.932 127.16 160.312 128.72Z" fill="#A39793"/>
<path d="M129.399 127.99C127.829 127.99 129.709 132.68 129.709 132.68C129.709 132.68 147.409 153.58 150.339 153.31C153.779 153 157.529 149.56 156.279 148.62C155.029 147.68 129.399 127.99 129.399 127.99Z" fill="#F5DD6B"/>
<path d="M42.2189 109.67C41.2189 109.23 40.2989 109.49 39.2189 109.29C37.9389 109.04 37.6489 107.35 37.5789 106.29C37.5747 106.059 37.5094 105.833 37.3894 105.635C37.2694 105.437 37.0992 105.274 36.896 105.164C36.6927 105.053 36.4638 104.998 36.2325 105.004C36.0011 105.011 35.7756 105.079 35.5789 105.2C34.5789 105.81 33.0589 106.59 31.9989 105.64C31.1389 104.87 31.5689 103 31.5489 102C31.5448 101.94 31.5234 101.882 31.4874 101.833C31.4514 101.784 31.4022 101.746 31.3456 101.724C31.2889 101.702 31.2272 101.696 31.1675 101.708C31.1079 101.72 31.0529 101.749 31.0089 101.79C29.4889 103.08 28.8889 105.68 30.3989 107.26C31.0087 107.86 31.7813 108.266 32.6206 108.43C33.4598 108.594 34.3286 108.507 35.1189 108.18C35.1964 108.897 35.4322 109.587 35.8092 110.201C36.1862 110.815 36.6951 111.337 37.2989 111.73C38.9989 112.73 41.3689 112.91 42.5689 111.14C42.717 110.899 42.7633 110.609 42.6977 110.333C42.6321 110.058 42.4599 109.819 42.2189 109.67Z" fill="#B3A9A6"/>
<path d="M171.901 99.8696C171.181 98.8696 169.261 99.1396 169.341 100.59C169.431 102.2 169.741 103.72 168.261 104.85C166.781 105.98 165.471 104.44 163.941 104.24C163.842 104.217 163.739 104.217 163.64 104.24C163.541 104.262 163.448 104.305 163.368 104.367C163.288 104.429 163.222 104.508 163.176 104.599C163.13 104.689 163.104 104.788 163.101 104.89C162.981 106.38 164.441 107.51 165.691 108.01C166.341 108.246 167.033 108.341 167.723 108.29C168.413 108.238 169.083 108.04 169.691 107.71C172.301 106.49 173.571 102.28 171.901 99.8696Z" fill="#B3A9A6"/>
<path d="M174.591 92.07C174.453 91.8507 174.235 91.6937 173.983 91.6321C173.731 91.5706 173.465 91.6092 173.242 91.74C172.658 92.137 172.208 92.7019 171.951 93.36C171.811 93.68 171.672 93.99 171.552 94.36C171.642 94.12 171.461 94.53 171.401 94.66C171.141 94.66 170.602 94.5899 170.492 94.8299C169.892 96.2499 171.592 97.3299 172.852 96.8299C173.286 96.6407 173.677 96.3653 174.002 96.0202C174.327 95.6752 174.579 95.2678 174.741 94.8227C174.904 94.3776 174.975 93.9042 174.949 93.431C174.923 92.9578 174.802 92.4948 174.591 92.07Z" fill="#B3A9A6"/>
<path d="M55.4001 75.0703C54.3983 74.6285 53.4407 74.0928 52.5401 73.4703C51.3601 72.4703 53.1601 70.6903 53.8201 70.0903C54.8801 69.0903 53.89 67.7703 52.77 67.6303C49.55 67.2603 48.9 64.3003 49.77 61.6303C49.7761 61.5985 49.7729 61.5657 49.7609 61.5357C49.7489 61.5056 49.7286 61.4796 49.7023 61.4607C49.6761 61.4419 49.645 61.4308 49.6127 61.429C49.5804 61.4271 49.5483 61.4345 49.52 61.4503C46.11 64.0903 47.02 67.9303 50.09 69.6803C49.6405 70.2782 49.3195 70.9627 49.1474 71.6907C48.9753 72.4187 48.9558 73.1744 49.09 73.9103C49.53 76.8503 52.9501 77.7103 55.2601 76.8103C55.4395 76.7548 55.5983 76.6467 55.7158 76.5001C55.8332 76.3535 55.9041 76.175 55.9192 75.9877C55.9342 75.8004 55.8928 75.6129 55.8003 75.4494C55.7078 75.2859 55.5684 75.1539 55.4001 75.0703Z" fill="#B3A9A6"/>
<path d="M129.277 74.7302C127.167 75.7302 124.737 77.0603 123.167 74.4003C123.011 74.1541 122.787 73.958 122.523 73.8354C122.258 73.7129 121.964 73.669 121.675 73.7091C121.386 73.7491 121.115 73.8714 120.894 74.0613C120.673 74.2513 120.511 74.5008 120.427 74.7803C118.687 79.1303 115.977 78.5002 113.727 75.0802C112.727 73.5102 112.397 71.0802 110.857 70.0202C110.831 69.9983 110.797 69.9863 110.762 69.9863C110.728 69.9863 110.694 69.9983 110.667 70.0202C108.197 72.5802 112.107 77.9603 114.147 79.6503C117.337 82.2703 120.317 80.5002 122.147 77.7402C124.907 79.9202 129.267 79.5903 130.637 75.7402C130.947 74.9202 129.927 74.4102 129.277 74.7302Z" fill="#D0C7C6"/>
<path d="M102.426 106.47C101.086 106.22 99.7962 106.64 98.4262 106.47C96.98 106.076 95.6869 105.253 94.7162 104.11C94.6981 104.093 94.6752 104.081 94.6505 104.077C94.6258 104.072 94.6002 104.074 94.5769 104.084C94.5536 104.093 94.5336 104.11 94.5193 104.13C94.505 104.151 94.4969 104.175 94.4962 104.2C94.3765 105.096 94.5633 106.005 95.0262 106.78C95.5898 107.52 96.3287 108.108 97.1762 108.49C98.9462 109.38 101.346 109.56 102.826 108.09C102.938 107.969 103.018 107.821 103.06 107.661C103.101 107.501 103.101 107.333 103.062 107.173C103.022 107.012 102.943 106.864 102.832 106.742C102.722 106.619 102.582 106.526 102.426 106.47Z" fill="#D0C7C6"/>
<path d="M110.501 105.13C110.265 104.913 109.967 104.777 109.649 104.741C109.331 104.705 109.009 104.771 108.731 104.93C108.534 105.03 108.352 105.158 108.191 105.31C108.055 105.415 107.943 105.548 107.861 105.7L107.701 105.84C107.6 105.928 107.519 106.037 107.466 106.16C107.412 106.283 107.387 106.416 107.391 106.55C107.414 106.852 107.538 107.137 107.743 107.361C107.948 107.584 108.222 107.731 108.521 107.78H108.811H109.581C110.084 107.598 110.505 107.243 110.771 106.78C110.905 106.511 110.951 106.207 110.902 105.911C110.854 105.615 110.714 105.342 110.501 105.13Z" fill="#D0C7C6"/>
<path d="M137.996 110.32C136.091 109.731 134.075 109.591 132.106 109.91C130.466 110.24 129.416 112.24 127.766 112.74C126.396 113.15 125.116 113.92 123.766 114.43C121.216 115.43 121.406 113.59 120.586 111.54C120.559 111.435 120.501 111.34 120.419 111.268C120.337 111.196 120.236 111.151 120.127 111.138C120.019 111.125 119.91 111.145 119.813 111.195C119.716 111.246 119.637 111.324 119.586 111.42C117.256 115.84 120.906 118.89 125.176 117.42C127.211 116.854 129.164 116.027 130.986 114.96C132.736 113.75 132.986 113.54 135.066 113.84C135.706 113.96 136.366 113.917 136.985 113.714C137.604 113.512 138.161 113.156 138.606 112.68C138.779 112.506 138.903 112.289 138.967 112.052C139.031 111.815 139.032 111.565 138.971 111.327C138.909 111.09 138.787 110.872 138.616 110.695C138.445 110.519 138.232 110.39 137.996 110.32Z" fill="#D0C7C6"/>
<path d="M146.671 112.7V112.39C146.665 112.171 146.574 111.964 146.417 111.812C146.26 111.66 146.049 111.577 145.831 111.58H145.651C145.336 111.511 145.008 111.554 144.721 111.7L144.351 111.89C144.351 111.89 143.991 112.06 144.191 111.99C143.905 112.059 143.607 112.059 143.321 111.99C143.188 111.993 143.058 112.031 142.944 112.099C142.83 112.168 142.735 112.265 142.67 112.38C142.605 112.496 142.57 112.627 142.57 112.76C142.57 112.893 142.605 113.024 142.671 113.14C142.845 113.447 143.088 113.711 143.379 113.911C143.671 114.111 144.004 114.242 144.354 114.294C144.704 114.346 145.061 114.318 145.398 114.211C145.736 114.105 146.044 113.923 146.301 113.68C146.434 113.553 146.534 113.396 146.592 113.221C146.649 113.047 146.663 112.861 146.631 112.68L146.671 112.7Z" fill="#D0C7C6"/>
<path d="M49.2484 96.27C48.3133 95.9401 47.4282 95.4824 46.6184 94.91C45.7784 94.1 45.5284 93.01 44.8984 92.07C44.7668 91.8672 44.58 91.7061 44.36 91.6057C44.14 91.5054 43.8959 91.4699 43.6565 91.5035C43.417 91.5371 43.1921 91.6384 43.0082 91.7955C42.8243 91.9525 42.6891 92.1588 42.6184 92.39C41.6184 95.64 44.9384 99.98 48.2784 99.94C48.6977 99.9139 49.0981 99.7563 49.4229 99.4898C49.7476 99.2232 49.9801 98.8612 50.0875 98.455C50.1948 98.0488 50.1715 97.6192 50.0209 97.227C49.8703 96.8348 49.6 96.5 49.2484 96.27Z" fill="#D0C7C6"/>
<path d="M54.5901 98.4703C53.9859 98.295 53.3443 98.295 52.7401 98.4703C52.5041 98.5419 52.2893 98.6706 52.1149 98.8451C51.9405 99.0195 51.8117 99.2343 51.7401 99.4703C51.6651 99.764 51.6846 100.074 51.796 100.356C51.9073 100.638 52.1047 100.877 52.3601 101.04C52.2401 100.94 52.2601 100.96 52.3601 101.04C52.5056 101.417 52.7779 101.732 53.1301 101.93C53.4342 102.106 53.7791 102.198 54.1301 102.198C54.4812 102.198 54.8261 102.106 55.1301 101.93C55.418 101.757 55.656 101.512 55.8207 101.219C55.9855 100.927 56.0714 100.596 56.0701 100.26C56.0596 99.8393 55.908 99.434 55.6396 99.1094C55.3712 98.7849 55.0017 98.5598 54.5901 98.4703Z" fill="#D0C7C6"/>
<path d="M53.4332 94.5499C53.112 94.0793 52.6445 93.7278 52.1032 93.5499C51.8479 93.4756 51.575 93.4898 51.3287 93.5901C51.0824 93.6904 50.8772 93.8709 50.7464 94.1025C50.6156 94.334 50.5668 94.6029 50.608 94.8656C50.6492 95.1284 50.7779 95.3695 50.9732 95.5499C51.2181 95.7721 51.506 95.9417 51.819 96.0484C52.132 96.155 52.4636 96.1964 52.7932 96.1699C53.6832 96.1799 53.9032 95.1199 53.4332 94.5499Z" fill="#D0C7C6"/>
<path d="M61.781 48.1697C61.481 47.1097 60.371 46.7997 59.611 46.1697C58.211 45.0596 58.201 43.3997 57.931 41.7897C57.781 40.9897 56.781 40.9897 56.261 41.3997C54.891 42.5397 54.981 44.7297 55.461 46.2797C56.031 48.1097 58.231 50.8197 60.461 50.1397C61.361 49.8697 62.091 49.1797 61.781 48.1697Z" fill="#D0C7C6"/>
<path d="M67.4181 48.4101C67.2522 48.1478 67.0237 47.931 66.7531 47.7791C66.4825 47.6272 66.1783 47.5451 65.8681 47.5401C66.3481 47.6001 65.7881 47.5401 65.6981 47.5401L65.2781 47.4201C65.1257 47.3337 64.9533 47.2889 64.7781 47.2901C64.6063 47.2906 64.4375 47.3354 64.2881 47.4201C63.3881 48.0901 63.8281 49.5201 64.3981 50.2701C64.5654 50.5325 64.7959 50.7487 65.0684 50.899C65.341 51.0492 65.6469 51.1287 65.9581 51.1301C66.2684 51.1271 66.5726 51.0434 66.8408 50.8874C67.109 50.7314 67.3321 50.5083 67.4881 50.2401C67.6466 49.9583 67.7239 49.6382 67.7116 49.3152C67.6992 48.9922 67.5976 48.6789 67.4181 48.4101Z" fill="#D0C7C6"/>
<path d="M63.9933 42.4997C63.5592 42.0872 63.0066 41.8214 62.4133 41.7397C62.1484 41.6715 61.8683 41.692 61.6162 41.7983C61.3641 41.9045 61.1538 42.0905 61.0175 42.3278C60.8813 42.5651 60.8267 42.8405 60.8621 43.1118C60.8974 43.3831 61.0208 43.6353 61.2133 43.8297C61.3893 44.1332 61.5865 44.4239 61.8033 44.6997C62.0008 44.8863 62.2397 45.0235 62.5004 45.0999C62.7612 45.1764 63.0363 45.1901 63.3033 45.1397C63.7733 45.2197 64.3733 44.9297 64.3033 44.3597C64.4437 44.0542 64.4892 43.7137 64.4339 43.3821C64.3786 43.0505 64.2252 42.7431 63.9933 42.4997Z" fill="#D0C7C6"/>
<path d="M78.4136 34.1003C78.4136 34.1003 78.4136 33.9603 78.4136 33.8003C78.3311 33.5428 78.1869 33.3094 77.9936 33.1203C77.6127 32.8298 77.1663 32.6375 76.6936 32.5603C76.0178 32.4083 75.3209 32.3745 74.6336 32.4603C74.3665 32.4698 74.1091 32.5627 73.8975 32.7259C73.6859 32.8891 73.5307 33.1144 73.4536 33.3703C73.3857 33.6306 73.4057 33.9062 73.5106 34.1539C73.6155 34.4017 73.7994 34.6079 74.0336 34.7403C74.5941 34.9815 75.1725 35.1788 75.7636 35.3303C76.1708 35.5042 76.6207 35.5524 77.0555 35.4687C77.4903 35.3849 77.8901 35.173 78.2036 34.8603C78.3262 34.7818 78.4154 34.6608 78.4542 34.5205C78.4929 34.3802 78.4785 34.2306 78.4136 34.1003Z" fill="#E5DDDC"/>
<path d="M81.5019 37.6504C81.5519 37.3935 81.5389 37.1283 81.464 36.8775C81.3891 36.6268 81.2546 36.3979 81.0719 36.2104C80.78 35.9176 80.4422 35.6744 80.0719 35.4904C79.7051 35.2918 79.2759 35.2423 78.8736 35.3522C78.4712 35.4621 78.1268 35.7229 77.9119 36.0804C77.7091 36.443 77.6573 36.871 77.7678 37.2715C77.8782 37.672 78.1419 38.0129 78.5019 38.2204C78.7019 38.3404 78.9219 38.4404 79.1219 38.5704C79.3851 38.7212 79.6792 38.8101 79.9819 38.8304L80.0919 38.9204C80.6219 39.3804 81.6919 39.1104 81.6119 38.2804C81.5819 38.0704 81.5419 37.8604 81.5019 37.6504Z" fill="#E5DDDC"/>
<path d="M61.3293 84.8201C59.7264 83.8764 57.8264 83.5729 56.0093 83.9701C55.7726 84.042 55.5619 84.1809 55.4026 84.3701C55.2432 84.5593 55.1421 84.7905 55.1114 85.036C55.0808 85.2814 55.1219 85.5304 55.2297 85.753C55.3376 85.9755 55.5076 86.1621 55.7193 86.2901C56.8693 87.0501 58.1893 87.5001 59.3493 88.2901C59.9093 88.6601 60.3493 89.2901 60.9193 89.5601C61.6065 89.9323 62.3979 90.066 63.1693 89.9401C63.4719 89.9325 63.76 89.8089 63.974 89.5948C64.1881 89.3808 64.3117 89.0927 64.3193 88.7901C64.4793 86.6701 63.0293 85.6901 61.3293 84.8201Z" fill="#E5DDDC"/>
<path d="M59.2222 89.9898H58.9222C58.7552 89.8787 58.5685 89.8006 58.3722 89.7598C58.2304 89.73 58.0867 89.71 57.9422 89.6998C57.9422 89.6998 57.5922 89.6998 57.7822 89.6998C57.4522 89.6998 56.7822 89.2898 56.5222 89.6998C56.3745 90.0163 56.3366 90.3731 56.4145 90.7136C56.4924 91.0541 56.6816 91.3589 56.9522 91.5798C57.1044 91.7524 57.2953 91.8865 57.5092 91.9713C57.7231 92.0561 57.9541 92.0891 58.1832 92.0676C58.4123 92.0462 58.6331 91.9709 58.8275 91.8479C59.022 91.7248 59.1847 91.5576 59.3022 91.3598C59.4586 91.1896 59.5992 91.0055 59.7222 90.8098C59.7642 90.7238 59.7839 90.6287 59.7794 90.5331C59.7749 90.4375 59.7465 90.3446 59.6967 90.2629C59.6469 90.1812 59.5773 90.1134 59.4944 90.0657C59.4115 90.0179 59.3179 89.9918 59.2222 89.9898Z" fill="#E5DDDC"/>
<path d="M92.6612 89.0399C92.6612 88.9499 92.5812 88.8499 92.5312 88.7599C92.6012 88.9099 92.6212 88.9399 92.5912 88.8299C92.4932 88.5047 92.2918 88.2202 92.0174 88.0199C91.7431 87.8195 91.4108 87.7142 91.0712 87.7199C90.5238 87.7183 89.9923 87.9039 89.5649 88.2458C89.1375 88.5878 88.8398 89.0656 88.7212 89.5999C88.6112 90.1499 89.0112 90.8899 89.7212 90.7999H90.2912H90.5812H90.6412H90.7412C91.0726 90.8791 91.4206 90.8511 91.735 90.7199C92.0495 90.5887 92.3143 90.3612 92.4912 90.0699C92.2112 90.4699 92.0712 90.5099 92.3312 90.3299C92.4708 90.2481 92.5867 90.1313 92.6674 89.991C92.7481 89.8507 92.7907 89.6918 92.7912 89.5299C92.7674 89.362 92.7238 89.1976 92.6612 89.0399Z" fill="#E5DDDC"/>
<path d="M72.6286 14.2096C71.9686 11.6996 68.8186 11.1396 66.5686 11.1196C65.3096 11.0805 64.0561 11.3029 62.8874 11.7728C61.7187 12.2427 60.6601 12.9499 59.7786 13.8496C59.1886 14.5496 59.5286 15.9296 60.6286 15.8496C62.4386 15.6696 64.1286 15.0396 65.9586 14.9796C67.7886 14.9196 69.1986 16.2696 71.0186 16.3296C71.2771 16.332 71.5327 16.2739 71.7648 16.16C71.9969 16.0461 72.1992 15.8796 72.3556 15.6737C72.512 15.4677 72.6181 15.2282 72.6655 14.974C72.7129 14.7198 72.7002 14.4581 72.6286 14.2096Z" fill="#E5DDDC"/>
<path d="M74.6494 15.4697C74.3072 15.4697 73.9791 15.6056 73.7372 15.8476C73.4953 16.0895 73.3594 16.4176 73.3594 16.7597C73.3594 17.1019 73.4953 17.43 73.7372 17.6719C73.9791 17.9138 74.3072 18.0497 74.6494 18.0497C74.9915 18.0497 75.3196 17.9138 75.5615 17.6719C75.8035 17.43 75.9394 17.1019 75.9394 16.7597C75.9394 16.4176 75.8035 16.0895 75.5615 15.8476C75.3196 15.6056 74.9915 15.4697 74.6494 15.4697Z" fill="#E5DDDC"/>
<path d="M69.4022 17.9902C69.2856 17.8241 69.1372 17.6829 68.9655 17.5748C68.7938 17.4666 68.6023 17.3937 68.4022 17.3602C68.1619 17.3057 67.9125 17.3057 67.6722 17.3602C67.5166 17.4103 67.3554 17.4406 67.1922 17.4502C66.8622 17.4502 66.5122 17.6502 66.6222 18.0302C66.7051 18.3082 66.863 18.558 67.0784 18.7522C67.2939 18.9464 67.5587 19.0776 67.8437 19.1313C68.1288 19.185 68.4232 19.1592 68.6945 19.0567C68.9659 18.9542 69.2038 18.779 69.3822 18.5502C69.4335 18.4665 69.4623 18.371 69.4658 18.2728C69.4693 18.1747 69.4474 18.0774 69.4022 17.9902Z" fill="#E5DDDC"/>
<path d="M130.942 34.2503C130.528 33.9175 130.036 33.694 129.512 33.6003C128.87 33.5916 128.228 33.6621 127.602 33.8103C127.426 33.8154 127.256 33.8715 127.111 33.9718C126.966 34.0721 126.853 34.2123 126.787 34.3754C126.72 34.5385 126.702 34.7174 126.735 34.8905C126.768 35.0635 126.85 35.2233 126.972 35.3503C127.192 35.5403 127.432 35.7103 127.642 35.9203C127.968 36.1774 128.348 36.3584 128.752 36.4503C129.141 36.5283 129.542 36.5166 129.925 36.4161C130.308 36.3156 130.663 36.1289 130.962 35.8703C131.089 35.7761 131.192 35.653 131.262 35.5113C131.332 35.3696 131.368 35.2133 131.366 35.0552C131.364 34.8971 131.325 34.7418 131.251 34.6018C131.177 34.4619 131.072 34.3415 130.942 34.2503Z" fill="#E5DDDC"/>
<path d="M86.6773 120.99C86.4725 119.661 85.9167 118.411 85.0673 117.37C84.9898 117.302 84.8966 117.254 84.796 117.231C84.6955 117.208 84.5908 117.211 84.4915 117.239C84.3923 117.267 84.3015 117.319 84.2274 117.39C84.1533 117.462 84.0983 117.551 84.0673 117.65C83.8843 118.883 83.9215 120.139 84.1773 121.36C84.236 122.93 84.4982 124.486 84.9573 125.99C85.0441 126.253 85.2208 126.477 85.4563 126.623C85.6919 126.769 85.9713 126.827 86.2456 126.788C86.5199 126.749 86.7716 126.614 86.9566 126.408C87.1416 126.201 87.2481 125.937 87.2574 125.66C87.3497 124.081 87.1532 122.498 86.6773 120.99Z" fill="#F4B060"/>
<path d="M117.24 157.99C114.93 147.13 114.49 136.6 113.57 125.61C113.57 125.44 113.503 125.277 113.383 125.157C113.263 125.037 113.1 124.97 112.93 124.97C112.761 124.97 112.598 125.037 112.478 125.157C112.358 125.277 112.29 125.44 112.29 125.61C111.41 136.32 111.47 148.61 115.86 158.61C116.22 159.43 117.4 158.8 117.24 157.99Z" fill="#F4B060"/>
<path d="M72.4474 144.91C71.8674 145.05 71.6774 145.65 71.4474 146.14C70.8474 147.61 70.2874 149.09 69.6974 150.56C69.3374 151.45 67.2774 156.56 70.1974 155.91C71.2874 155.67 71.6974 154.73 71.9474 153.73C72.3374 152.13 72.6974 150.48 72.9474 148.86C73.0674 148.49 73.6874 144.61 72.4474 144.91Z" fill="#F4B060"/>
<path d="M165.78 36.6904C164.24 39.6904 163.09 42.8904 161.78 45.9504C160.98 47.7304 158.59 51.0904 159.2 53.1404C159.249 53.292 159.354 53.419 159.493 53.4953C159.633 53.5717 159.796 53.5914 159.95 53.5504C162.14 53.1604 163.56 49.1404 164.43 47.4404C166.146 44.3835 167.572 41.1728 168.69 37.8504C168.766 37.6594 168.804 37.4552 168.801 37.2495C168.799 37.0438 168.755 36.8407 168.674 36.6517C168.593 36.4628 168.475 36.2916 168.328 36.1482C168.18 36.0047 168.006 35.8916 167.815 35.8154C167.624 35.7393 167.42 35.7015 167.214 35.7042C167.008 35.707 166.805 35.7502 166.616 35.8315C166.427 35.9127 166.256 36.0304 166.113 36.1778C165.969 36.3252 165.856 36.4994 165.78 36.6904Z" fill="#F4B060"/>
<path d="M160.393 39.3199C159.183 38.8799 158.393 40.3199 158.083 41.2299C157.848 41.7851 157.727 42.3819 157.727 42.9849C157.727 43.5879 157.848 44.1847 158.083 44.7399C158.184 44.9034 158.346 45.021 158.532 45.0676C158.719 45.1143 158.916 45.0864 159.083 44.9899C160.023 44.4599 160.383 43.2799 160.803 42.3499C161.223 41.4199 161.673 39.7699 160.393 39.3199Z" fill="#F4B060"/>
<path d="M23.6219 39.5402C22.3019 38.0602 21.0619 36.2202 19.1919 35.4102C19.0617 35.3427 18.9165 35.3092 18.7699 35.3128C18.6233 35.3164 18.48 35.357 18.3533 35.4308C18.2266 35.5046 18.1206 35.6093 18.0451 35.7351C17.9697 35.8609 17.9273 36.0037 17.9219 36.1502C17.9219 38.0702 19.3519 39.5202 20.6119 40.8002C21.8719 42.0802 23.1619 43.8002 24.7619 44.4702C25.3619 44.7302 26.3319 44.4702 26.2419 43.6202C26.0619 41.9902 24.6519 40.7002 23.6219 39.5402Z" fill="#F4B060"/>
<path d="M27.5265 69.3004C27.1047 69.3729 26.6715 69.3385 26.2665 69.2004C25.6065 68.9104 25.0965 68.3604 24.2665 68.4704C23.963 68.4805 23.6748 68.6063 23.461 68.8219C23.2473 69.0376 23.124 69.3268 23.1165 69.6304C22.9965 70.9604 24.4165 71.7104 25.5365 71.8104C26.0176 71.8357 26.4983 71.7527 26.9431 71.5675C27.3879 71.3823 27.7855 71.0996 28.1065 70.7404C28.2206 70.6223 28.298 70.4737 28.3295 70.3125C28.3609 70.1514 28.345 69.9845 28.2836 69.8322C28.2223 69.6799 28.1181 69.5487 27.9838 69.4543C27.8494 69.3599 27.6906 69.3064 27.5265 69.3004Z" fill="#928784"/>
<path d="M98.8334 19.1999L98.7734 19.1299L98.8434 19.2299L98.8334 19.1999Z" fill="#928784"/>
<path d="M101.028 16.8799C100.756 16.6275 100.399 16.4873 100.028 16.4873C99.6568 16.4873 99.2996 16.6275 99.0277 16.8799C98.7946 17.12 98.6314 17.4191 98.5556 17.7451C98.4798 18.0711 98.4944 18.4115 98.5977 18.7299C98.6379 18.8633 98.6951 18.991 98.7677 19.1099C98.7677 19.0099 98.7677 19.0099 98.8277 19.1799C98.8755 19.2508 98.929 19.3177 98.9877 19.3799L98.8377 19.2099C98.9462 19.4568 99.0911 19.686 99.2677 19.8899C99.37 19.9927 99.4915 20.0742 99.6254 20.1299C99.7592 20.1856 99.9028 20.2142 100.048 20.2142C100.193 20.2142 100.336 20.1856 100.47 20.1299C100.604 20.0742 100.726 19.9927 100.828 19.8899C100.942 19.7642 101.043 19.6268 101.128 19.4799C101.128 19.3899 101.198 19.2999 101.238 19.2099L101.338 19.0699C101.532 18.721 101.607 18.3181 101.551 17.9227C101.495 17.5273 101.311 17.1611 101.028 16.8799Z" fill="#928784"/>
<path d="M157.493 15.2305C157.17 15.2305 156.86 15.359 156.631 15.5878C156.402 15.8166 156.273 16.1269 156.273 16.4505C156.273 16.774 156.402 17.0843 156.631 17.3131C156.86 17.5419 157.17 17.6705 157.493 17.6705C157.817 17.6705 158.127 17.5419 158.356 17.3131C158.585 17.0843 158.713 16.774 158.713 16.4505C158.713 16.1269 158.585 15.8166 158.356 15.5878C158.127 15.359 157.817 15.2305 157.493 15.2305Z" fill="#928784"/>
<path d="M169.849 20.4004C169.615 20.4004 169.392 20.4931 169.226 20.6581C169.061 20.8232 168.969 21.047 168.969 21.2804C168.969 21.5138 169.061 21.7376 169.226 21.9026C169.392 22.0677 169.615 22.1604 169.849 22.1604C170.082 22.1604 170.306 22.0677 170.471 21.9026C170.636 21.7376 170.729 21.5138 170.729 21.2804C170.729 21.047 170.636 20.8232 170.471 20.6581C170.306 20.4931 170.082 20.4004 169.849 20.4004Z" fill="#928784"/>
<path d="M56.5163 132.99C56.1099 133.022 55.7305 133.206 55.4538 133.506C55.1771 133.805 55.0234 134.198 55.0234 134.605C55.0234 135.013 55.1771 135.406 55.4538 135.705C55.7305 136.004 56.1099 136.188 56.5163 136.22C56.9226 136.188 57.302 136.004 57.5787 135.705C57.8554 135.406 58.0091 135.013 58.0091 134.605C58.0091 134.198 57.8554 133.805 57.5787 133.506C57.302 133.206 56.9226 133.022 56.5163 132.99Z" fill="#928784"/>
<path d="M56.5187 132.99C56.1201 133.022 55.748 133.203 55.4767 133.496C55.2054 133.79 55.0547 134.175 55.0547 134.575C55.0547 134.975 55.2054 135.36 55.4767 135.654C55.748 135.948 56.1201 136.129 56.5187 136.16C56.9173 136.129 57.2894 135.948 57.5607 135.654C57.832 135.36 57.9827 134.975 57.9827 134.575C57.9827 134.175 57.832 133.79 57.5607 133.496C57.2894 133.203 56.9173 133.022 56.5187 132.99Z" fill="#928784"/>
<path d="M59.8504 143.16C59.6671 142.575 59.2758 142.077 58.7504 141.76C58.2211 141.469 57.5998 141.394 57.0165 141.551C56.4331 141.707 55.9329 142.083 55.6204 142.6C55.3252 143.124 55.25 143.744 55.4113 144.323C55.5725 144.902 55.957 145.394 56.4804 145.69C56.9988 145.979 57.608 146.057 58.1827 145.91C58.7574 145.763 59.254 145.402 59.5704 144.9C59.7469 144.651 59.8639 144.364 59.9124 144.063C59.9609 143.761 59.9397 143.452 59.8504 143.16Z" fill="#928784"/>
<path d="M149.436 127.66C149.163 127.66 148.901 127.769 148.708 127.962C148.515 128.155 148.406 128.417 148.406 128.69C148.406 128.963 148.515 129.225 148.708 129.418C148.901 129.612 149.163 129.72 149.436 129.72C149.709 129.72 149.971 129.612 150.165 129.418C150.358 129.225 150.466 128.963 150.466 128.69C150.466 128.417 150.358 128.155 150.165 127.962C149.971 127.769 149.709 127.66 149.436 127.66Z" fill="#928784"/>
<path d="M182.399 71.6498C182.306 71.553 182.194 71.476 182.07 71.4234C181.947 71.3709 181.813 71.3438 181.679 71.3438C181.545 71.3438 181.412 71.3709 181.288 71.4234C181.164 71.476 181.052 71.553 180.959 71.6498C180.699 71.807 180.498 72.0448 180.387 72.327C180.275 72.6092 180.259 72.9202 180.34 73.2125C180.422 73.5049 180.597 73.7624 180.839 73.9459C181.08 74.1294 181.376 74.2288 181.679 74.2288C181.983 74.2288 182.278 74.1294 182.519 73.9459C182.761 73.7624 182.936 73.5049 183.018 73.2125C183.099 72.9202 183.083 72.6092 182.971 72.327C182.86 72.0448 182.659 71.807 182.399 71.6498Z" fill="#928784"/>
<path d="M17.5605 89.1999C17.4571 89.0289 17.3099 88.8886 17.1341 88.7937C16.9582 88.6987 16.7602 88.6526 16.5605 88.6599C16.3872 88.6562 16.2158 88.6975 16.0633 88.7799C15.9108 88.8623 15.7823 88.9829 15.6905 89.1299L15.3305 89.3899C15.1802 89.4844 15.0689 89.6298 15.0169 89.7996C14.9648 89.9693 14.9756 90.1521 15.0471 90.3146C15.1187 90.4771 15.2462 90.6084 15.4066 90.6847C15.5669 90.7609 15.7493 90.777 15.9205 90.7299L16.1805 90.6599C16.1805 90.7299 16.2505 90.79 16.2805 90.86C16.3336 90.9447 16.4073 91.0145 16.4947 91.0629C16.5822 91.1113 16.6805 91.1367 16.7805 91.1367C16.8804 91.1367 16.9788 91.1113 17.0662 91.0629C17.1537 91.0145 17.2274 90.9447 17.2805 90.86C17.463 90.6291 17.5843 90.356 17.6332 90.0658C17.6821 89.7757 17.6571 89.4779 17.5605 89.1999Z" fill="#928784"/>
</g>
<defs>
<clipPath id="clip0_3013_6394">
<rect width="202.96" height="195.21" fill="white"/>
</clipPath>
</defs>
</svg>
