<svg width="101" height="85" viewBox="0 0 101 85" fill="none" xmlns="http://www.w3.org/2000/svg">
<path fill-rule="evenodd" clip-rule="evenodd" d="M80.2926 66.0221C81.0826 65.0893 81.9057 64.1745 81.8828 62.8343C81.8658 61.8573 81.8751 60.8793 81.8508 59.9024C81.777 56.9117 81.6867 53.9215 81.6129 50.9308C81.5444 48.1611 81.5643 45.3909 81.6012 42.6212C81.608 42.1113 81.6789 41.7301 82.247 41.5315C82.7447 41.3586 82.8817 40.8842 82.8749 40.3802C82.853 38.9351 82.8443 37.4881 82.8045 36.043C82.7933 35.6245 82.8792 35.4341 83.341 35.5531C85.0075 35.9819 86.6027 35.3171 88.2337 35.2064C90.2862 35.0685 92.23 34.4863 94.0106 33.4365C97.784 31.2125 99.8992 27.8397 100.578 23.5788C101.201 19.665 100.498 15.9265 98.4109 12.5639C97.2246 10.6537 95.8427 8.85945 94.6219 6.95987C93.4974 5.20888 91.7464 4.66407 89.7604 4.51354C87.0775 4.31008 84.3913 4.30182 81.7066 4.22462C77.7384 4.11245 73.7713 4.01096 69.8041 3.892C68.8597 3.86383 68.866 3.84004 68.6887 2.92473C68.5804 2.36631 68.4736 1.80644 68.3216 1.25871C68.1696 0.707094 67.7856 0.351648 67.2179 0.240936C65.8704 -0.0207899 64.5064 -0.0470135 63.1454 0.0564145C62.5117 0.104487 62.1295 0.52063 61.9591 1.12857C61.7459 1.88899 61.8367 2.66688 61.8484 3.4375C61.8533 3.82887 61.7838 3.99397 61.3322 4.03378C58.0954 4.31639 54.8614 4.03282 51.6275 3.99883C48.899 3.96969 46.1706 3.84635 43.4431 3.87645C41.274 3.90025 39.8279 5.26229 38.7495 6.95501C37.2995 9.23334 35.9895 11.6015 34.6153 13.9294C33.6344 15.592 32.6419 17.2473 31.6688 18.9153C31.2371 19.6548 30.9006 20.439 30.7715 21.2956C30.7346 21.5427 30.6369 21.7039 30.3922 21.7899C28.7743 22.3609 27.655 23.5258 26.7902 24.9418C26.2192 25.8765 25.466 26.4927 24.4288 26.8355C23.0857 27.2793 21.7232 27.8475 20.8399 28.9439C19.8897 30.1234 18.6228 30.472 17.3365 30.9513C15.9861 31.4534 14.8139 32.3391 13.4621 32.8625C12.3647 33.2884 11.2182 33.5763 10.1548 34.0973C9.54881 34.394 8.9904 34.7563 8.42664 35.1229C7.85754 35.4943 7.60457 36.0154 7.64244 36.6733C7.7551 38.6438 7.88522 40.6123 8.00176 42.5828C8.0377 43.1917 8.33924 43.6307 8.87046 43.8798C9.36381 44.1114 9.61194 44.4489 9.66535 44.9942C9.92222 47.627 10.1849 50.2583 10.4724 52.8867C10.8468 56.3062 11.2308 59.7237 11.6426 63.1383C11.8267 64.662 11.8587 64.6387 10.3422 64.8392C9.07343 65.0092 7.81094 65.2384 6.57028 65.569C5.6001 65.8288 5.1286 66.3562 5.09461 67.1875C5.04557 68.3912 5.40685 68.9987 6.44501 69.3619C7.00196 69.5556 7.57736 69.6926 8.14355 69.8543C9.95475 70.5987 11.8301 70.5904 13.7238 70.3165C14.2492 70.2413 14.6255 69.9247 14.8096 69.4328C15.0601 68.7632 15.0363 68.6481 16.0104 68.8384C18.3499 69.2958 20.669 69.8543 22.9906 70.3971C30.7098 72.204 38.4606 73.8651 46.2575 75.3039C48.5212 75.7225 50.784 76.1532 53.0444 76.5921C53.6494 76.7101 54.2593 76.715 54.8653 76.7781C56.1511 76.9136 57.2893 77.456 58.4163 78.0372C59.8444 78.7719 61.2749 78.7326 62.705 78.0333C63.311 77.7381 63.881 77.3817 64.4564 77.034C67.2636 75.3369 70.1173 73.7132 72.8215 71.8495C74.9002 70.4151 76.9999 69.006 78.9927 67.4497C79.5045 67.052 80.0372 66.6592 80.2926 66.0221Z" fill="#010101"/>
<path fill-rule="evenodd" clip-rule="evenodd" d="M80.2893 66.0215C76.1726 69.7022 71.4873 72.5671 66.8034 75.4363C65.6244 76.1584 64.4173 76.8353 63.2402 77.5588C61.5286 78.6135 59.8145 78.696 58.0533 77.6831C56.7816 76.9504 55.4064 76.6479 53.9346 76.5328C52.5075 76.4196 51.0989 76.0608 49.6868 75.7884C45.3496 74.9527 41.009 74.134 36.6806 73.2581C31.6379 72.2364 26.6287 71.0632 21.6146 69.911C19.5431 69.4361 17.4814 68.9145 15.3866 68.5387C15.0642 68.4814 14.9408 68.5455 14.8724 68.8417C14.6475 69.8148 14.0304 70.1562 13.0354 70.2509C11.3655 70.4106 9.75971 70.1474 8.14274 69.8537C8.53266 70.1358 8.43409 70.6466 8.72689 71.0142C9.56548 72.0669 10.7221 72.3301 11.937 72.5321C12.7946 72.6744 13.6327 72.5409 14.4674 72.3874C15.0991 72.2704 15.523 71.7979 15.9537 71.3735C16.1858 71.1458 16.3466 71.0598 16.6782 71.2176C18.8186 72.2374 21.0844 72.907 23.4224 73.2027C25.5128 73.4673 27.5867 73.848 29.6922 74.0189C31.6486 74.1777 33.588 74.5463 35.5448 74.7031C37.8751 74.8915 40.1666 75.3159 42.4595 75.719C44.9349 76.155 47.4585 76.3065 49.8951 76.9412C51.3421 77.3184 52.8037 77.6724 54.1459 78.393C56.2989 79.5487 58.5898 80.0688 61.0216 79.5977C61.9141 79.4254 62.76 79.0379 63.5792 78.6285C65.1403 77.8497 66.7383 77.1475 68.2407 76.2482C69.5721 75.4504 71.0318 74.9328 72.5143 74.4822C74.2662 73.95 75.9051 73.1201 77.2754 71.9586C78.3888 71.0137 79.5022 69.9775 80.2592 68.6795C80.7569 67.8249 80.5967 66.912 80.2893 66.0215Z" fill="#C8C8C8"/>
<path fill-rule="evenodd" clip-rule="evenodd" d="M86.5463 79.1308C86.1733 78.1951 85.377 77.8397 84.4796 77.6207C84.3233 77.5823 84.1684 77.5129 84.0091 77.4978C83.2201 77.4231 82.7981 77.0429 82.7243 76.2125C82.6723 75.6293 82.2387 75.2132 81.7221 74.9884C78.9776 73.7992 76.1806 73.4724 73.3269 74.6067C72.5947 74.8995 72.2363 75.4953 72.1518 76.2504C72.0722 76.9579 72.4441 77.4323 73.0166 77.8033C73.8552 78.3466 74.8264 78.4821 75.7592 78.7327C76.0121 78.7997 76.1345 78.8643 76.0151 79.1202C75.443 80.3385 76.0578 81.1916 77.3392 81.4801C77.3951 81.4927 77.4436 81.5412 77.4946 81.5738C77.9394 81.97 78.5143 81.9414 79.046 82.036C81.1 82.4027 83.1317 82.2011 85.1468 81.7432C85.9655 81.5582 86.5332 81.0853 86.722 80.2336C86.809 79.8446 86.807 79.4669 86.5463 79.1308Z" fill="#020102"/>
<path fill-rule="evenodd" clip-rule="evenodd" d="M1.78687 76.9229C1.8466 77.6139 2.2268 78.1301 2.8158 78.4059C4.4993 79.193 6.25273 79.7315 8.14745 79.6203C9.67993 79.531 11.1138 78.689 11.5266 77.1555C11.8339 76.0101 11.2697 74.8622 10.0975 74.4854C9.9266 74.6393 9.93242 74.852 9.92514 75.0525C9.88629 76.012 9.33808 76.5908 8.49707 76.9215C7.17144 77.4415 5.78657 77.4445 4.39928 77.3041C3.73258 77.2361 3.07365 77.0871 2.42492 76.8991C2.21369 76.8375 1.99227 76.7472 1.78687 76.9229Z" fill="#C8C8C8"/>
<path fill-rule="evenodd" clip-rule="evenodd" d="M86.5492 79.1309C86.571 79.3732 86.6147 79.6164 86.6108 79.8578C86.5958 80.7177 86.0713 81.3694 85.1541 81.5738C82.7291 82.1147 80.2944 82.2497 77.8583 81.6219C77.7418 81.5923 77.6184 81.5898 77.498 81.5738C77.8933 82.8232 78.8673 83.5287 80.158 83.5481C81.3938 83.5647 82.6286 83.6215 83.8654 83.654C84.8496 83.6802 85.798 83.4472 86.7259 83.1611C87.8107 82.8266 88.6323 81.3737 88.2336 80.4749C87.9165 79.7607 87.3334 79.2998 86.5492 79.1309Z" fill="#C8C8C8"/>
<path fill-rule="evenodd" clip-rule="evenodd" d="M89.3644 69.8733C87.458 69.697 85.5944 69.8835 83.7871 70.541C82.9631 70.8406 82.5144 71.3504 82.4964 72.0477C82.4775 72.796 82.8815 73.3617 83.7254 73.6691C85.7265 74.3969 87.7475 75.0588 89.9267 74.8796C90.7129 74.8136 91.5029 74.7563 92.2789 74.6237C92.9684 74.5067 93.5287 74.1342 93.7652 73.4306C94.0371 72.6265 93.7414 71.973 93.1602 71.416C93.0616 71.1329 92.8509 70.9406 92.6061 70.7959C91.6088 70.2011 90.5769 69.7174 89.3644 69.8733Z" fill="#5F5F5F"/>
<path fill-rule="evenodd" clip-rule="evenodd" d="M25.2461 77.0477C25.6205 76.2426 25.3942 75.5483 24.8212 74.9447C23.7068 73.7691 22.255 73.3039 20.7137 73.0126C19.3803 72.7625 18.0431 72.8266 16.7058 72.9043C15.656 72.964 14.2721 74.3436 14.1604 75.3958C14.0958 76.0037 14.3264 76.4854 14.7703 76.9089C15.6676 77.7659 16.7932 78.1553 17.9285 78.5394C18.046 78.6516 18.1742 78.7438 18.3354 78.7929C20.0956 79.3348 21.8539 79.3494 23.5782 78.6788C24.3405 78.3816 25.0024 77.9082 25.2461 77.0477Z" fill="#020102"/>
<path fill-rule="evenodd" clip-rule="evenodd" d="M1.79063 76.9225C3.25513 77.3591 4.74294 77.6048 6.27834 77.5183C6.82558 77.4863 7.36699 77.4445 7.90113 77.3115C9.56569 76.8963 10.1158 76.1932 10.1013 74.4845C9.83179 73.7682 9.25347 73.4045 8.60183 73.0675C6.04138 71.7424 3.54114 71.8521 1.04964 73.2506C0.386827 73.623 -0.0249481 74.1271 -0.00601006 74.8918C0.0138979 75.6858 0.381975 76.2806 1.14433 76.5967C1.36673 76.6895 1.57601 76.8138 1.79063 76.9225Z" fill="#020202"/>
<path fill-rule="evenodd" clip-rule="evenodd" d="M53.1177 79.7637C52.1732 78.0719 50.5315 77.5995 48.7941 77.3169C47.2257 77.061 45.6796 77.211 44.1592 77.6626C43.5134 77.8554 42.988 78.1851 42.7166 78.8518C42.3116 79.8472 42.5194 80.5644 43.4479 81.1422C44.1544 81.5812 44.9313 81.873 45.7087 82.1571C45.852 82.3149 46.0462 82.3916 46.2409 82.4319C48.2308 82.8558 50.1945 82.7762 52.1154 82.0745C52.5592 81.9128 52.9482 81.6463 53.242 81.2675C53.6474 80.746 53.5993 80.2371 53.1177 79.7637Z" fill="#020202"/>
<path fill-rule="evenodd" clip-rule="evenodd" d="M53.114 79.7634C53.5103 80.8083 53.3947 81.2114 52.3769 81.7295C51.0416 82.4103 49.5839 82.5355 48.1111 82.4977C47.2983 82.4773 46.5019 82.3127 45.7051 82.1568C46.4723 83.3183 47.5697 83.9524 48.94 84.0146C49.95 84.0593 50.9697 84.1093 51.9797 83.9131C53.1519 83.682 54.1328 83.0803 55.0127 82.3253C55.4832 81.9218 55.6594 81.2968 55.3865 80.7073C55.1122 80.1149 54.6494 79.6852 53.906 79.7401C53.6423 79.76 53.3777 79.7561 53.114 79.7634Z" fill="#C8C8C8"/>
<path fill-rule="evenodd" clip-rule="evenodd" d="M97.0399 68.2235C97.4182 67.3242 97.258 66.5167 96.4408 66.0729C93.9002 64.6963 91.2737 64.2059 88.5433 65.5611C87.9592 65.851 87.5445 66.2798 87.5571 66.9664C87.5712 67.6467 88.0048 68.0667 88.5759 68.3653C88.7172 68.4377 88.8623 68.5066 89.0056 68.5785C89.159 68.8334 89.4305 68.8674 89.683 68.9383C90.86 69.2646 92.0701 69.4816 93.2792 69.5292C94.481 69.5783 95.6206 69.1252 96.7219 68.6455C96.8967 68.5697 96.9982 68.4124 97.0399 68.2235Z" fill="#020202"/>
<path fill-rule="evenodd" clip-rule="evenodd" d="M25.2405 77.0479C23.6974 79.1164 21.557 79.2237 19.2781 78.8479C18.8222 78.7721 18.3735 78.6444 17.9229 78.5396C17.9656 79.6797 18.4653 80.2944 19.5457 80.5887C20.4673 80.8387 21.3953 80.9733 22.3548 80.984C23.6551 80.998 24.6525 80.4362 25.46 79.4796C25.9767 78.8683 25.8461 77.599 25.2405 77.0479Z" fill="#C8C8C8"/>
<path fill-rule="evenodd" clip-rule="evenodd" d="M97.0446 68.2236C96.4434 68.8005 95.6276 68.8568 94.8905 69.0991C93.0109 69.7202 91.2269 69.0462 89.421 68.6757C89.2826 68.6475 89.1462 68.6116 89.0092 68.5786C88.882 69.0758 89.101 69.4798 89.3613 69.8736C90.7743 70.0242 92.0805 70.4369 93.1565 71.4158C93.3445 71.2308 93.5805 71.3221 93.7946 71.3129C94.4812 71.2837 95.1629 71.2823 95.8515 71.1755C97.2815 70.954 97.8705 69.1647 97.0446 68.2236Z" fill="#C8C8C8"/>
<path fill-rule="evenodd" clip-rule="evenodd" d="M53.962 8.30493C58.4026 8.33455 62.8418 8.42439 67.2805 8.49237C70.6615 8.54336 74.0426 8.5118 77.4217 8.589C80.6984 8.66475 83.9751 8.7337 87.2498 8.82548C87.8976 8.84393 88.5444 8.93861 89.1873 9.02796C89.5005 9.07069 89.6835 8.96289 89.8302 8.69825C90.2512 7.93929 90.1735 6.72001 89.6588 6.03C89.3077 5.55996 88.8042 5.41915 88.2647 5.39925C86.5962 5.33806 84.9273 5.31086 83.2598 5.24725C80.2905 5.13265 77.3183 5.09042 74.3495 4.97194C70.6411 4.82335 66.9435 5.01564 63.24 5.08508C60.9024 5.12878 58.5614 5.12391 56.2229 5.12586C52.1474 5.1278 48.0735 5.14042 43.998 5.10255C42.3412 5.08604 41.1821 5.76731 40.2017 7.10022C37.9302 10.1851 36.2802 13.6162 34.4632 16.956C33.9189 17.9568 33.3061 18.9206 32.7112 19.8942C32.518 20.2098 32.3888 20.5493 32.2684 20.8955C32.2276 21.0135 32.2155 21.148 32.3233 21.2354C32.4359 21.3276 32.552 21.264 32.6583 21.1936C33.0516 20.9382 33.4197 20.6532 33.7499 20.3157C35.0741 18.9614 36.6493 18.0971 38.5547 17.9067C38.897 17.8732 39.25 17.8601 39.5894 17.9019C40.5557 18.0174 41.0632 17.7645 41.5269 16.8982C42.6316 14.8355 43.7377 12.7722 44.8541 10.7153C45.058 10.3414 45.3027 9.98649 45.5548 9.64173C46.152 8.82451 46.9984 8.51665 47.9817 8.44042C49.974 8.28989 51.9678 8.27822 53.962 8.30493Z" fill="#7A4C10"/>
<path fill-rule="evenodd" clip-rule="evenodd" d="M10.9532 46.4769C11.1256 48.259 11.2994 50.0416 11.4699 51.8231C11.7049 54.2753 11.9287 56.7275 12.1774 59.1777C12.3891 61.2443 12.7746 63.2833 13.2291 65.3101C13.4729 66.3997 14.1585 67.0528 15.236 67.2747C18.9405 68.0395 22.6362 68.8412 26.314 69.7191C35.118 71.8212 43.987 73.6066 52.8886 75.244C53.7117 75.396 54.5382 75.5179 55.3675 75.5533C56.4071 75.5956 57.3744 75.833 58.2849 76.3278C58.5155 76.0996 58.4767 75.8024 58.4791 75.5213C58.4878 74.4015 58.5121 73.2803 58.4762 72.1611C58.4058 70.0138 58.6015 67.9006 58.9768 65.7835C59.2536 64.2219 59.2851 62.6204 59.0705 61.0409C58.8098 59.1228 58.7214 57.1878 58.4835 55.2698C58.4019 54.6099 58.2917 54.473 57.6405 54.4909C56.9626 54.5084 56.2566 54.2943 55.6108 54.6769C55.754 57.3379 55.9182 59.9969 56.0337 62.6588C56.1561 65.4824 56.5081 68.2998 56.2236 71.1336C56.092 72.4548 55.7011 72.8326 54.3798 72.6632C51.4135 72.2854 48.4893 71.6585 45.5482 71.1263C40.0068 70.1221 34.5668 68.6557 29.0677 67.4597C26.3077 66.8595 23.5015 66.4861 20.757 65.8034C18.15 65.1527 16.2067 63.7688 15.4793 61.0472C15.1845 59.9415 15.1408 58.7946 15.0224 57.6627C14.6621 54.2238 14.3367 50.7801 13.9973 47.3384C14.0051 46.8741 13.7822 46.6721 13.3126 46.6328C12.7542 46.5847 12.1973 46.4852 11.6427 46.3895C11.4063 46.3478 11.1644 46.2973 10.9532 46.4769Z" fill="#F3C058"/>
<path fill-rule="evenodd" clip-rule="evenodd" d="M55.6143 54.6755C56.3674 54.6755 57.1215 54.6803 57.8752 54.6706C58.1466 54.6677 58.266 54.7468 58.2952 55.045C58.4923 57.0392 58.6346 59.0384 58.8803 61.0278C59.1838 63.4829 58.8633 65.9195 58.3588 68.3289C58.303 68.5926 58.2913 68.8524 58.2913 69.1151C58.2874 71.5187 58.2884 73.9223 58.2874 76.3264C59.5052 77.281 60.8469 77.3718 62.3172 76.5036C64.3134 75.3227 66.2873 74.1039 68.2553 72.8763C71.2577 71.001 74.3173 69.2117 77.1599 67.0912C77.9441 66.507 78.6773 65.8622 79.3707 65.1693C80.2214 64.3219 80.6949 63.3051 80.6793 62.1121C80.6327 58.8752 80.5239 55.6408 80.4933 52.4034C80.4744 50.45 80.555 48.4945 80.5948 46.5406C80.6079 45.8282 80.6327 45.1169 80.6526 44.406C80.3142 44.2001 80.0267 44.4201 79.7383 44.5337C78.0397 45.1955 78.0358 45.2009 78.0446 46.9985C78.0475 47.5229 77.9887 48.0502 78.0863 48.5727C78.1262 52.5438 78.2466 56.5119 78.2179 60.483C78.2121 61.2793 77.964 61.8741 77.3881 62.4175C75.808 63.9102 73.9521 65.0197 72.173 66.2322C69.5518 68.0206 66.919 69.7963 64.1697 71.3827C62.4153 72.3961 62.5396 72.1043 62.3726 70.4154C62.1953 68.6173 62.2483 66.7974 62.2026 64.9867C62.1133 61.4672 62.0263 57.9482 61.938 54.4288C61.8375 53.7883 61.7729 53.7388 61.164 53.9189C60.4604 54.1282 59.7412 54.2661 59.0158 54.3637C58.5768 54.423 58.3374 54.2792 58.3044 53.7834C58.2777 53.3853 58.2947 52.8812 57.6727 52.856C57.1113 52.7977 56.5452 52.7642 55.9892 52.6705C55.6867 52.6205 55.5963 52.7205 55.5633 52.9905C55.4939 53.5562 55.6182 54.1136 55.6143 54.6755Z" fill="#BF9745"/>
<path fill-rule="evenodd" clip-rule="evenodd" d="M79.5405 35.0809C77.6269 35.8166 75.6579 36.4056 73.7903 37.2675C69.0093 39.4725 64.224 41.6673 59.4342 43.8539C58.9438 44.0777 58.7107 44.3831 58.7646 44.9391C58.9477 46.8232 59.1069 48.7096 59.2788 50.5937C59.3216 51.0661 59.5294 51.2138 60.0179 51.0511C62.4608 50.2358 64.7542 49.0874 66.9903 47.84C71.5057 45.3208 76.2031 43.1697 80.8482 40.9127C81.5464 40.5738 81.8762 40.18 81.8023 39.3705C81.6591 37.8317 81.6023 36.2842 81.51 34.741C81.4343 34.5638 81.2881 34.4905 81.124 34.5701C80.6185 34.8144 80.0499 34.8542 79.5405 35.0809Z" fill="#BF9745"/>
<path fill-rule="evenodd" clip-rule="evenodd" d="M34.2131 42.0503C34.8448 42.3839 35.4537 42.7442 35.9345 43.2852C36.3273 43.7018 36.8867 43.898 37.2926 44.2806C37.8709 44.8254 38.1662 45.5222 38.2011 46.337C38.224 46.8726 38.205 47.4276 38.4905 47.92C42.9763 48.6998 47.3902 49.8264 51.8561 50.7009C53.7707 51.0758 55.696 51.3929 57.6344 51.6235C58.0899 51.6774 58.2812 51.5866 58.3307 51.0855C58.5099 49.2626 58.1846 47.4801 57.9913 45.6834C57.9185 44.9983 57.6369 44.7404 56.9813 44.5919C53.0142 43.6965 49.0082 43.0181 45.0041 42.3257C41.6988 41.7537 38.3881 41.2181 35.0599 40.7946C34.8191 40.7636 34.5753 40.7607 34.3325 40.7441C34.2777 41.1778 34.2097 41.6114 34.2131 42.0503Z" fill="#F3C058"/>
<path fill-rule="evenodd" clip-rule="evenodd" d="M26.7412 61.7655C24.7096 61.1682 22.6366 60.7657 20.5511 60.4267C19.4498 60.2475 18.3548 60.0193 17.2365 59.9392C16.8029 59.9081 16.6713 60.0737 16.6655 60.4879C16.6577 61.0905 16.7631 61.6013 17.2982 61.9864C17.5332 62.1559 17.6711 62.4598 17.8595 62.6987C18.8894 63.9977 20.2976 64.6522 21.8787 64.9329C25.7205 65.6122 29.5751 66.2541 33.3417 67.2753C39.7479 69.0122 46.3119 69.963 52.8046 71.2745C53.3975 71.3945 54.0195 71.3712 54.6255 71.4285C54.979 71.462 55.1378 71.3692 55.1242 70.9691C55.0931 70.113 55.0994 69.2565 55.1223 68.4014C55.1305 68.0537 55.0349 67.9202 54.6726 67.8434C51.7295 67.2277 48.7991 66.5484 45.8526 65.9521C41.53 65.079 37.2156 64.1681 32.9163 63.1833C32.7391 63.1426 32.556 63.1261 32.3759 63.0979C31.546 63.0775 30.7502 63.3509 29.913 63.3237C28.9477 63.2921 28.147 62.9556 27.4643 62.304C27.2428 62.0927 27.0132 61.9039 26.7412 61.7655Z" fill="#AE6A03"/>
<path fill-rule="evenodd" clip-rule="evenodd" d="M90.9347 5.91602C91.5902 7.3912 91.26 8.75858 90.7487 10.1163C88.6185 15.7844 86.329 21.3894 84.0351 26.9935C83.6112 28.0316 83.0348 28.9931 82.4638 29.955C81.7296 31.1937 80.5822 31.4909 79.2488 31.2801C78.8229 31.2131 78.399 31.1908 77.9722 31.1811C77.7998 31.1762 77.5832 31.1102 77.5264 31.3714C77.4788 31.5851 77.5245 31.7978 77.7182 31.9109C77.9081 32.0211 78.1232 32.0993 78.3374 32.1542C79.241 32.3897 80.1481 32.6155 81.0537 32.8403C81.5839 32.9719 82.0088 33.2496 82.3832 33.6527C83.2616 34.5952 84.3842 34.7316 85.5802 34.5253C86.1415 34.4281 86.3406 33.9479 86.5354 33.5007C87.3803 31.5623 88.2232 29.6243 89.0458 27.6767C90.6686 23.8387 92.1923 19.9608 93.6359 16.052C94.2449 14.4044 94.5357 12.6782 94.9009 10.9704C95.0373 10.3309 94.8912 9.72294 94.6401 9.13102C94.2002 8.09577 93.4184 7.31253 92.6779 6.50744C92.2588 6.05003 91.6553 5.95778 90.9347 5.91602Z" fill="#BF9745"/>
<path fill-rule="evenodd" clip-rule="evenodd" d="M69.4759 12.9634C65.6718 13.1183 61.864 13.1702 58.059 13.0663C55.8418 13.0051 53.6242 12.994 51.407 12.9454C50.6379 12.9279 49.8784 12.7774 49.1044 12.9401C48.7563 13.0129 48.7053 13.1367 48.8476 13.431C49.1142 13.9792 49.355 14.5405 49.6289 15.0863C49.8367 15.5005 50.2747 15.4942 50.6427 15.5156C52.5292 15.6214 54.4171 15.6938 56.3046 15.7822C58.9835 15.9074 61.6639 16.007 64.3404 16.1711C67.0538 16.3367 69.7624 16.5683 72.4728 16.7679C75.9306 17.0223 79.3792 17.3472 82.7962 17.96C83.7931 18.1392 84.7963 18.2766 85.7951 18.4485C86.1025 18.5014 86.2938 18.431 86.4162 18.1265C86.9528 16.7873 87.501 15.4525 88.0463 14.1171C88.2939 13.5111 87.7486 13.6286 87.5151 13.6073C86.6046 13.5228 85.6893 13.4878 84.7759 13.4597C82.2975 13.3829 79.8216 13.2285 77.3412 13.1707C76.389 13.1484 75.432 13.0824 74.4783 13.093C72.8084 13.1139 71.1467 12.8784 69.4759 12.9634Z" fill="#5B3802"/>
<path fill-rule="evenodd" clip-rule="evenodd" d="M50.9391 18.2948C52.5847 18.0885 54.1929 17.9661 55.7988 18.4468C56.8068 18.7483 57.8047 19.097 58.5801 19.7875C59.5192 20.6212 60.6239 20.6955 61.7544 20.7878C64.2619 20.9942 66.7684 21.2141 69.2779 21.3841C71.3236 21.5215 73.3597 21.7385 75.3894 22.0143C78.1994 22.397 81.0313 22.6403 83.7836 23.374C84.1735 23.4788 84.3497 23.439 84.4959 23.0239C84.861 21.9901 85.2699 20.9689 85.6967 19.9594C85.8541 19.587 85.7725 19.4116 85.4233 19.2485C84.5614 18.8455 83.6262 18.7517 82.7099 18.6041C80.8094 18.2987 78.9049 18.021 76.9966 17.7655C76.0313 17.6374 75.0582 17.5601 74.087 17.5019C71.715 17.3606 69.3396 17.2654 66.9675 17.11C64.9417 16.9775 62.9159 16.8444 60.8881 16.74C58.6773 16.6254 56.4684 16.47 54.258 16.3491C53.3495 16.2986 52.4259 16.3685 51.5266 16.1627C51.4489 16.1447 51.3635 16.1559 51.2819 16.1549C50.1724 16.1471 50.1398 16.1845 50.3467 17.2513C50.3933 17.4897 50.4331 17.7296 50.4948 17.9646C50.555 18.2016 50.6638 18.3924 50.9391 18.2948Z" fill="#5B3802"/>
<path fill-rule="evenodd" clip-rule="evenodd" d="M63.5217 12.487C68.5717 12.2811 73.6232 12.3025 78.6732 12.3758C81.6187 12.4186 84.556 12.739 87.5063 12.7483C88.2158 12.7492 88.6139 12.522 88.8159 11.8689C88.9364 11.4799 89.0709 11.0954 89.2277 10.7205C89.3899 10.3335 89.217 10.2136 88.8684 10.1626C86.913 9.88094 84.9507 9.7945 82.9759 9.76245C79.9687 9.71389 76.9581 9.73623 73.9548 9.62794C70.8423 9.51529 67.7317 9.36622 64.6187 9.44585C61.5517 9.52403 58.4853 9.43226 55.4223 9.37496C53.5101 9.33806 51.5984 9.30892 49.6862 9.31669C48.9806 9.32058 48.2702 9.3837 47.5705 9.525C47.2141 9.59784 47.1189 9.72506 47.284 10.0586C47.5011 10.4952 47.7118 10.9375 47.892 11.3901C48.075 11.8485 48.4402 12.0383 48.8791 12.0956C49.4026 12.1627 49.9309 12.2073 50.4573 12.218C53.531 12.2758 56.6057 12.2943 59.6784 12.3836C60.9603 12.42 62.2408 12.489 63.5217 12.487Z" fill="#5B3802"/>
<path fill-rule="evenodd" clip-rule="evenodd" d="M21.2398 39.012C19.197 38.7066 17.1333 38.5546 15.1026 38.1559C14.2082 37.9816 13.3084 37.8355 12.4159 37.6534C11.7822 37.5223 11.2457 37.2105 10.8407 36.6934C10.4964 36.1583 9.99676 35.932 9.37182 35.9558C8.945 36.2418 8.90518 36.6914 8.88819 37.1396C8.85662 38.0375 8.9989 38.9251 9.05814 39.8171C9.09407 40.3643 9.14845 40.9121 9.1436 41.4598C9.13583 42.5839 9.33394 42.8626 10.4464 43.0418C12.2901 43.339 14.1387 43.6158 15.9849 43.8979C18.8158 44.3281 21.6487 44.7447 24.4786 45.1915C24.9783 45.2711 25.238 45.1954 25.407 44.653C25.7843 43.4337 26.3981 42.3746 27.7441 41.976C27.9947 41.9022 28.1423 41.6997 28.2603 41.4831C28.5021 41.0383 28.7328 40.5877 28.9688 40.1395C28.9688 39.8477 28.7109 39.9079 28.5706 39.8943C27.5246 39.7938 26.4792 39.6821 25.4352 39.5627C24.0329 39.4024 22.6329 39.233 21.2398 39.012Z" fill="#F3C058"/>
<path fill-rule="evenodd" clip-rule="evenodd" d="M9.36271 35.9564C9.87499 36.1569 10.3907 36.3497 10.8316 36.694C11.0525 36.4245 11.3133 36.5731 11.5512 36.641C14.3224 37.4379 17.1761 37.7321 20.0289 38.0259C23.2259 38.3556 26.4201 38.7062 29.6103 39.1019C33.9703 39.6409 38.307 40.3236 42.6306 41.0996C46.3083 41.7595 49.9827 42.4476 53.6624 43.1021C54.702 43.2862 55.7402 43.4959 56.7987 43.5547C57.8374 43.6848 58.0506 43.408 57.6398 42.4471C57.4975 42.1125 57.2867 41.809 57.1532 41.4711C57.044 41.1972 56.8128 41.1584 56.573 41.1181C52.7044 40.4839 48.8367 39.8424 44.9667 39.218C41.2345 38.6154 37.4898 38.1017 33.7348 37.6646C29.9594 37.2257 26.1845 36.7741 22.4053 36.3686C20.0002 36.1113 17.5884 35.919 15.1775 35.7155C14.2185 35.6349 13.9694 35.4883 13.6659 34.5142C13.5377 34.1015 13.3964 33.982 12.9506 34.1063C11.6211 34.4739 10.3873 35.0076 9.36271 35.9564Z" fill="#A7853D"/>
<path fill-rule="evenodd" clip-rule="evenodd" d="M33.9644 62.6132C36.4977 63.2911 39.0707 63.7917 41.636 64.321C45.9106 65.2028 50.2055 65.9928 54.4563 66.9844C54.9948 67.1097 55.1448 66.9562 55.123 66.4386C55.087 65.5869 55.1089 64.7337 55.0375 63.8782C54.9889 63.3027 54.7131 63.0022 54.2353 62.8725C53.3943 62.6433 52.5416 62.4476 51.6851 62.2811C46.8181 61.3352 41.9497 60.4029 37.0818 59.4681C36.9434 59.4419 36.7983 59.4439 36.656 59.4337C36.453 59.3696 36.4219 59.5444 36.3593 59.6575C35.8052 60.6612 35.1604 61.5843 34.1781 62.2238C34.0489 62.3078 33.9008 62.4098 33.9644 62.6132Z" fill="#AE6A03"/>
<path fill-rule="evenodd" clip-rule="evenodd" d="M23.7513 53.2821C23.7464 55.2079 24.2189 56.9836 25.5144 58.4656C26.9779 60.1413 29.9186 60.524 32.0983 59.3464C34.214 58.2044 35.9849 54.7543 35.7052 52.3692C35.6702 52.0725 35.578 51.9433 35.3041 51.87C33.3827 51.3534 31.4583 50.8479 29.4791 50.5954C29.1577 50.5536 28.8236 50.5007 28.508 50.5424C27.445 50.6837 26.4103 50.624 25.3935 50.2632C24.8681 50.0772 24.5495 50.3409 24.3305 50.8061C23.962 51.5908 23.775 52.4148 23.7513 53.2821Z" fill="#E0C472"/>
<path fill-rule="evenodd" clip-rule="evenodd" d="M82.2716 27.4089C82.561 27.4487 82.7134 27.3307 82.8188 27.0544C83.1092 26.295 83.4161 25.5418 83.7433 24.7974C83.8968 24.4483 83.8308 24.2934 83.4549 24.1846C81.7015 23.6767 79.9204 23.3009 78.1223 22.9887C76.4636 22.7017 74.7961 22.4948 73.1262 22.3045C71.7569 22.1486 70.3846 22.0117 69.01 21.9053C66.785 21.733 64.5582 21.5795 62.3313 21.4479C61.7671 21.4154 61.197 21.4975 60.6308 21.5276C60.5264 21.5334 60.4182 21.5489 60.3958 21.6728C60.3618 21.8675 60.524 21.9233 60.6517 21.9549C61.2606 22.1035 61.8715 22.2584 62.4887 22.3662C63.7055 22.5764 64.7515 23.1479 65.7066 23.8899C66.7462 24.6969 67.863 25.1898 69.1702 25.5287C71.2849 26.0794 73.4258 26.3382 75.5682 26.6281C77.4755 26.8878 79.394 27.0622 81.3077 27.2783C81.6301 27.3132 81.9511 27.3632 82.2716 27.4089Z" fill="#5B3802"/>
<path fill-rule="evenodd" clip-rule="evenodd" d="M36.8923 58.6908C40.6497 59.5784 44.4605 60.1971 48.2518 60.9084C50.3078 61.294 52.3593 61.7096 54.408 62.1311C54.828 62.2185 55.0456 62.2195 54.981 61.6786C54.8994 60.9934 54.8727 60.2981 54.8766 59.6071C54.8785 59.2483 54.6945 59.1613 54.4187 59.1021C51.4576 58.4791 48.4922 57.8867 45.5103 57.3662C43.1897 56.9622 40.8667 56.5693 38.5442 56.176C38.364 56.1449 38.18 56.1425 37.9979 56.1265C37.6119 55.9818 37.388 56.1255 37.2778 56.512C37.1385 56.9957 36.9564 57.4672 36.8141 57.9508C36.7412 58.2052 36.6747 58.464 36.8923 58.6908Z" fill="#AE6A03"/>
<path fill-rule="evenodd" clip-rule="evenodd" d="M88.7395 33.8931C91.5238 33.3973 94.0589 32.4101 96.0309 30.276C98.3126 27.8083 99.6329 24.9182 99.7135 21.5376C99.78 18.8111 99.2182 16.2059 97.8775 13.7994C97.5012 13.1249 97.1351 12.4447 96.7461 11.777C96.6675 11.642 96.6238 11.4026 96.3591 11.4784C96.163 11.5337 96.0595 11.6711 95.992 11.8542C95.6108 12.8759 95.5176 13.7649 96.2329 14.8104C98.4301 18.0303 98.2747 21.5191 96.9909 25.0289C96.0692 27.5451 94.4537 29.5069 92.0632 30.7805C91.3319 31.1705 90.5356 31.3244 89.715 31.3759C88.3029 31.4633 87.9349 32.3752 87.8246 33.3745C87.7562 34.0024 88.3991 33.7406 88.7395 33.8931Z" fill="#BF9745"/>
<path fill-rule="evenodd" clip-rule="evenodd" d="M63.2038 67.4697C63.2485 68.3831 63.3121 69.2164 63.3174 70.0496C63.3223 70.5566 63.4588 70.5838 63.8676 70.3473C66.3722 68.8983 68.7782 67.2949 71.2061 65.7256C72.9557 64.5956 74.4877 63.1806 76.192 61.9915C76.9525 61.4593 77.053 60.6071 77.0059 59.7389C76.985 59.3548 76.7519 59.517 76.579 59.5679C75.4826 59.8947 74.4425 60.3648 73.433 60.8936C70.2248 62.5771 67.0438 64.3101 63.9303 66.1689C63.3471 66.518 63.0018 66.8531 63.2038 67.4697Z" fill="#8F5704"/>
<path fill-rule="evenodd" clip-rule="evenodd" d="M54.7344 56.918C54.7344 55.6322 54.7392 55.6045 53.4665 55.3437C49.6455 54.562 45.7988 53.9268 41.9452 53.33C40.4599 53.0994 38.9653 52.926 37.4794 52.708C37.0278 52.642 36.9011 52.7954 36.8457 53.2422C36.6549 54.8077 36.6559 54.8426 38.217 55.1748C43.3442 56.2649 48.4996 57.2064 53.6681 58.0737C54.7324 58.2514 54.7344 58.2368 54.7344 56.918Z" fill="#AE6A03"/>
<path fill-rule="evenodd" clip-rule="evenodd" d="M63.1833 65.5373C64.9911 64.7715 66.6061 63.828 68.2591 62.9608C70.8889 61.5784 73.4421 60.0512 76.1506 58.8213C76.7498 58.5488 77.0582 58.1031 77.0203 57.4218C76.9907 56.9139 76.9708 56.4002 77.0145 55.8957C77.0645 55.3202 76.8115 55.4018 76.4624 55.5757C76.0254 55.7937 75.5835 56.001 75.147 56.219C71.542 58.0181 67.8492 59.6375 64.3298 61.6119C63.5086 62.0732 63.0653 62.6306 63.1707 63.6071C63.2358 64.2107 63.1833 64.8264 63.1833 65.5373Z" fill="#8E5704"/>
<path fill-rule="evenodd" clip-rule="evenodd" d="M76.8782 49.3852C76.8782 49.2142 76.8821 49.0307 76.8772 48.8476C76.8564 47.9886 76.7636 47.9071 75.9678 48.2776C74.4741 48.9729 72.9926 49.6988 71.517 50.433C69.057 51.6557 66.6194 52.9279 64.142 54.1152C63.3122 54.5133 62.8586 54.997 63.0655 55.9453C63.1131 56.1624 63.1213 56.3882 63.1582 56.6081C63.2908 57.4084 63.3583 57.453 64.1216 57.0864C68.0859 55.1878 72.0428 53.2712 76.0134 51.3857C76.919 50.9565 77.0176 50.2437 76.8782 49.3852Z" fill="#8E5704"/>
<path fill-rule="evenodd" clip-rule="evenodd" d="M63.3537 61.2491C67.7361 59.0188 72.2723 57.2382 76.4357 54.702C76.9232 54.4058 77.0931 54.0489 77.1024 53.5216C77.1126 52.9554 76.9411 52.3965 77.1562 51.6973C76.3958 52.0299 75.7641 52.2897 75.1484 52.58C71.7654 54.1722 68.3425 55.6868 65.026 57.4154C62.9157 58.5157 62.8749 58.7017 63.3537 61.2491Z" fill="#8E5704"/>
<path fill-rule="evenodd" clip-rule="evenodd" d="M56.5812 41.1174C57.2368 41.6671 57.4966 42.4241 57.6709 43.2195C57.7209 43.4453 57.5694 43.5409 57.3484 43.54C57.1683 43.539 56.9872 43.5492 56.807 43.5536C57.4358 43.8366 58.0122 43.5769 58.5624 43.3365C60.647 42.4227 62.7116 41.4602 64.7991 40.5522C67.7845 39.2533 70.6363 37.6684 73.659 36.4515C75.2638 35.8052 76.89 35.2215 78.5376 34.6986C79.2402 34.4757 79.518 34.5898 79.5456 35.0812C80.104 35.1725 80.6086 34.9885 81.0859 34.7379C81.2549 34.6486 81.3724 34.6393 81.5156 34.7413C81.487 34.3543 81.2806 34.0537 80.9218 33.9765C79.9754 33.7711 79.0741 33.3525 78.0777 33.3749C77.5664 33.3861 77.1168 33.5123 76.7735 33.9173C76.2529 34.532 75.4789 34.6617 74.7812 34.9079C69.5165 36.7598 64.2786 38.6818 59.0786 40.7076C58.274 41.0213 57.4509 41.2116 56.5812 41.1174Z" fill="#846930"/>
<path fill-rule="evenodd" clip-rule="evenodd" d="M46.8194 22.4502C46.3518 22.4502 45.8832 22.44 45.4156 22.4526C44.4342 22.4808 43.7311 22.9523 43.2552 23.8054C43.0882 24.106 43.1222 24.2939 43.3679 24.5411C44.4357 25.6142 45.7161 26.1882 47.2224 26.276C48.6005 26.3567 49.9815 26.43 51.3605 26.5193C52.2501 26.5786 53.0401 26.3363 53.7694 25.8283C54.0618 25.6244 54.1584 25.4646 53.9821 25.0941C53.4038 23.8914 52.5303 23.1198 51.1799 22.9095C49.7328 22.6857 48.2878 22.4657 46.8194 22.4502Z" fill="#F78682"/>
<path fill-rule="evenodd" clip-rule="evenodd" d="M54.5169 54.5592C54.7417 54.0105 54.665 53.4405 54.5747 52.8908C54.5043 52.4576 54.1022 52.3086 53.7108 52.2231C52.2264 51.8973 50.7415 51.5666 49.2532 51.2568C45.4444 50.4619 41.6302 49.6879 37.8242 48.8736C37.2493 48.7517 36.7972 48.8299 36.3568 49.2014C36.0645 49.4485 35.7396 49.6573 35.4284 49.8817C35.2565 50.2085 35.4852 50.3954 35.7051 50.5251C35.9999 50.6994 36.3529 50.8684 36.6894 50.7266C37.5494 50.3672 38.3511 50.6596 39.1892 50.8256C41.2072 51.2238 43.1981 51.7142 45.1535 52.3513C45.8314 52.5722 46.5466 52.6626 47.2483 52.7505C49.5018 53.0345 51.6107 53.8988 53.8293 54.314C54.074 54.3597 54.2877 54.4815 54.5169 54.5592Z" fill="#794902"/>
<path fill-rule="evenodd" clip-rule="evenodd" d="M76.7525 46.9627C77.0021 46.5471 76.8239 46.0901 76.8798 45.656C76.9065 45.4545 76.9074 45.2501 76.9346 45.0495C76.9715 44.7946 77.1264 44.4766 76.8749 44.3149C76.6404 44.1624 76.3189 44.243 76.0552 44.3819C75.2982 44.7791 74.5427 45.1797 73.7876 45.5817C70.2691 47.458 66.7564 49.3464 63.2243 51.1994C62.7495 51.4495 62.6383 51.7204 62.7349 52.2123C62.8165 52.6265 62.7927 53.0621 62.8252 53.4874C62.8354 53.6312 62.7912 53.8633 63.0767 53.7166C63.1695 53.3723 63.5254 53.4054 63.7532 53.2573C65.1851 52.3298 66.736 51.5907 68.1102 50.5618C69.0605 49.85 70.139 49.3532 71.2417 48.9288C72.8767 48.2995 74.4927 47.6318 76.0179 46.7656C76.3743 46.5611 76.5981 46.5553 76.7525 46.9627Z" fill="#633C03"/>
<path fill-rule="evenodd" clip-rule="evenodd" d="M59.1484 22.067C57.8082 20.2641 56.067 19.4211 53.9105 19.4337C52.9534 19.4405 51.9949 19.4095 51.0427 19.5556C50.2259 19.6809 49.7253 20.3835 49.8817 21.1876C49.9555 21.5606 50.2192 21.7072 50.5625 21.7917C51.8648 22.1112 53.1647 22.4409 54.465 22.7726C54.837 22.8673 55.2162 22.9702 55.3444 23.4548C54.9933 23.4946 54.6607 23.531 54.3223 23.5699C54.6753 24.711 55.3303 25.0208 56.3549 24.5605C56.4705 24.5095 56.5739 24.4599 56.6064 24.3211C56.875 23.1872 57.8301 22.7648 58.726 22.2841C58.8508 22.2175 58.9775 22.1544 59.1484 22.067Z" fill="#FCDC4E"/>
<path fill-rule="evenodd" clip-rule="evenodd" d="M42.6837 17.3459C43.6471 17.459 44.5075 17.2429 45.3791 17.2298C46.7513 17.2104 48.008 17.6707 49.2967 18.0106C49.4104 18.0412 49.5298 18.1378 49.6391 18.0446C49.7663 17.9368 49.643 17.8227 49.607 17.7178C48.8228 15.4759 47.9216 13.2796 46.9155 11.128C46.5911 10.4351 46.5722 10.4244 46.1026 11.0479C45.2796 12.141 44.6964 13.3729 44.0938 14.5941C43.6461 15.4997 43.1731 16.3927 42.6837 17.3459Z" fill="#5B3802"/>
<path fill-rule="evenodd" clip-rule="evenodd" d="M70.6016 35.0881C69.93 34.653 69.3289 34.2757 68.7408 33.8795C67.6769 33.1618 66.8602 32.3018 67.0972 30.8684C67.118 30.747 67.1074 30.6397 66.9767 30.5567C65.7069 29.7327 64.4173 28.9572 62.8522 28.8586C61.9598 28.8013 61.5009 29.0883 61.1241 29.9079C60.7419 30.7456 60.8245 31.555 61.4115 32.111C62.119 32.7821 62.9222 33.2798 63.9458 33.3021C65.9546 33.3449 67.742 34.1281 69.5081 34.9749C70.0058 35.2148 69.9999 35.227 70.6016 35.0881Z" fill="#FCDC4E"/>
<path fill-rule="evenodd" clip-rule="evenodd" d="M15.0777 48.5214C15.1394 49.2716 15.2151 50.0199 15.2569 50.7721C15.2748 51.094 15.4249 51.2251 15.7167 51.312C17.7455 51.9146 19.7975 52.4021 21.8869 52.7484C22.2283 52.8052 22.3613 52.7348 22.4473 52.4167C22.659 51.6325 22.8751 50.8478 23.13 50.0772C23.2436 49.731 23.1203 49.5771 22.8285 49.4809C22.6168 49.41 22.4017 49.3197 22.1846 49.3046C19.9874 49.1395 17.8693 48.5 15.6919 48.2305C15.4477 48.2004 15.0617 47.9698 15.0777 48.5214Z" fill="#AE6A03"/>
<path fill-rule="evenodd" clip-rule="evenodd" d="M96.1078 17.4579C96.1354 16.7903 95.8052 16.2726 95.3944 15.8142C95.0808 15.4651 95.0502 15.8832 94.9866 16.0342C94.4971 17.1952 94.0222 18.3621 93.5458 19.5289C92.1785 22.877 90.8213 26.2294 89.4393 29.5721C89.2431 30.0465 89.2864 30.2145 89.8375 30.2208C90.4134 30.2276 90.8125 30.0334 91.0684 29.5133C92.2027 27.2151 93.171 24.8426 94.2208 22.5065C94.7957 21.2279 95.3153 19.9247 95.8655 18.6345C96.0281 18.2548 96.118 17.8643 96.1078 17.4579Z" fill="#8E5704"/>
<path fill-rule="evenodd" clip-rule="evenodd" d="M54.5156 54.5584C54.4957 54.3521 54.3991 54.2142 54.1801 54.1899C52.3742 53.9874 50.7252 53.126 48.9363 52.89C45.4271 52.4268 42.1154 51.1414 38.6518 50.4864C37.9594 50.3563 37.3563 50.3723 36.7085 50.5466C36.0579 50.7229 35.6956 50.5175 35.4271 49.8809C34.6152 49.9683 33.8329 49.9867 33.4411 49.0603C32.7258 48.6733 31.9106 48.7257 31.1487 48.5407C30.7777 48.4494 30.3912 48.4072 30.0061 48.3838C29.7614 48.3693 29.5176 48.3761 29.3205 48.5591C29.0796 49.0369 29.2039 49.3035 29.7473 49.4206C31.7333 49.8498 33.7135 50.3033 35.6985 50.7418C36.3055 50.8744 36.8377 51.105 37.3024 51.5522C37.82 52.049 38.5649 51.9533 39.2097 52.0752C43.8436 52.9478 48.4843 53.7878 53.1254 54.6206C53.5794 54.7027 54.065 54.8415 54.5156 54.5584Z" fill="#AE6903"/>
<path fill-rule="evenodd" clip-rule="evenodd" d="M26.0234 60.775C25.0761 59.733 24.1816 58.6841 23.2284 57.6906C22.7905 57.2347 22.1558 57.2376 21.5799 57.1439C20.0377 56.8909 18.4931 56.6603 16.949 56.4228C16.1987 56.3068 16.0963 56.3956 16.0934 57.1517C16.0934 57.2944 16.0934 57.4367 16.0944 57.5795C16.1002 58.5861 16.3114 58.8682 17.3185 59.0741C19.187 59.4538 21.0608 59.8116 22.9323 60.1773C23.9636 60.3788 24.9935 60.5764 26.0234 60.775Z" fill="#AE6A03"/>
<path fill-rule="evenodd" clip-rule="evenodd" d="M24.414 34.4908C24.414 34.45 24.414 34.4107 24.414 34.3689C24.4053 33.2472 24.1523 33.0156 23.0578 33.1909C22.4717 33.2861 21.9255 33.2064 21.4001 32.9447C21.1043 32.7971 20.8052 32.6038 20.661 32.3227C20.2172 31.4554 19.5296 31.4686 18.7386 31.6822C17.445 32.0304 16.3855 32.7665 15.3983 33.6342C15.1706 33.8338 15.0152 34.129 15.091 34.3844C15.1507 34.5864 15.4848 34.4748 15.696 34.4942C18.3506 34.7418 21.0043 34.988 23.6604 35.223C24.414 35.2886 24.4145 35.2716 24.414 34.4908Z" fill="#FCDC4E"/>
<path fill-rule="evenodd" clip-rule="evenodd" d="M15.5704 53.263C15.5713 53.2834 15.5704 53.3038 15.5713 53.3232C15.6209 55.1859 15.7486 55.366 17.5467 55.7074C19.0592 55.9934 20.5844 56.2255 22.1038 56.4829C22.5428 56.5572 22.7627 56.412 22.7006 55.9279C22.6321 55.4054 22.5879 54.879 22.5413 54.3541C22.4966 53.8316 22.2019 53.5514 21.7047 53.4538C19.8551 53.0882 18.007 52.7143 16.1564 52.3603C15.5912 52.2511 15.5529 52.3273 15.5704 53.263Z" fill="#AE6A03"/>
<path fill-rule="evenodd" clip-rule="evenodd" d="M68.3027 31.4181C68.0439 31.4905 68.009 31.6769 68.0798 31.895C68.1473 32.1067 68.2163 32.3232 68.3188 32.5189C69.0898 33.9825 72.0781 34.8458 73.4989 34.0038C74.084 33.6576 74.7298 33.4857 75.3557 33.2536C75.885 33.0579 76.3988 32.803 76.4731 32.1683C76.5478 31.5317 76.2463 31.0331 75.7437 30.6495C75.2504 30.2751 74.7007 30.0216 74.1068 29.8643C73.6421 29.7414 73.2221 29.7152 73.0361 30.3076C72.9774 30.4946 72.8302 30.6533 72.7239 30.8257C72.6744 30.8918 72.6375 30.9631 72.6137 31.0408C72.3151 31.9935 72.1033 32.1455 71.1074 32.1188C70.363 32.0994 69.6857 31.8173 69.001 31.5711C68.7742 31.4905 68.5572 31.3725 68.3027 31.4181Z" fill="#FCDC4E"/>
<path fill-rule="evenodd" clip-rule="evenodd" d="M41.9219 21.8906C41.7301 21.6308 41.5407 21.3715 41.3499 21.1118C41.091 20.7578 40.8682 20.3683 41.0206 19.9298C41.162 19.522 41.0017 19.421 40.6535 19.3098C38.3364 18.5644 35.4904 19.7181 34.3289 21.8668C34.1021 22.2844 34.1536 22.5112 34.5945 22.6841C34.9111 22.8093 35.2102 22.9817 35.5181 23.1337C36.0255 23.2434 36.5291 23.308 37.0044 23.0138C37.2652 22.5466 37.7008 22.4354 38.1907 22.4282C38.4932 22.4243 38.7977 22.4325 39.1021 22.4427C39.4532 22.5364 39.7868 22.4524 40.1102 22.3257C40.6943 22.097 41.3635 22.2237 41.9219 21.8906Z" fill="#FCDC4E"/>
<path fill-rule="evenodd" clip-rule="evenodd" d="M30.6942 29.602C31.6595 29.5816 32.3034 29.2247 32.7919 28.6012C33.0896 28.2215 33.0842 27.8083 32.7463 27.4353C32.3733 27.0236 31.9363 26.6934 31.4386 26.4482C30.5262 26 29.6036 25.5746 28.6985 25.1123C28.3931 24.9565 28.2197 24.9487 28.0138 25.2711C27.5433 26.0092 27.0208 26.7118 26.5323 27.4363C26.2148 27.9068 26.2696 28.3375 26.7382 28.5007C28.0803 28.9669 29.4516 29.3383 30.6942 29.602Z" fill="#FCDC4E"/>
<path fill-rule="evenodd" clip-rule="evenodd" d="M25.0176 49.0274C25.2793 48.2373 25.087 47.4322 25.104 46.6335C25.1098 46.3688 24.8413 46.3805 24.6451 46.3348C23.066 45.9707 21.4602 45.758 19.8612 45.5113C18.4006 45.2855 16.9327 45.1058 15.4731 44.8733C15.104 44.815 14.9554 44.8519 14.9787 45.2641C15.0127 45.8726 14.9977 46.4825 15.0045 47.0928C16.1796 47.4303 17.3935 47.5167 18.6007 47.6405C20.4245 47.827 22.2556 47.7678 24.0853 47.7687C24.7796 47.7687 24.7816 47.7678 24.8384 48.4607C24.8554 48.6642 24.8602 48.8681 25.0176 49.0274Z" fill="#794902"/>
<path fill-rule="evenodd" clip-rule="evenodd" d="M50.535 36.1151C51.0264 36.0889 51.5129 36.083 51.9907 35.9602C52.2933 35.8815 52.5618 35.7422 52.7798 35.5212C53.2741 35.023 53.2494 34.7992 52.705 34.3656C51.4833 33.3925 50.1101 32.902 48.5339 32.9559C47.6453 32.987 46.7587 32.7539 45.8642 32.9025C45.6253 32.9423 45.3806 32.9763 45.1509 33.0511C44.8236 33.1579 44.5896 33.3648 44.5449 33.7382C44.5002 34.1131 44.6862 34.352 44.9858 34.5355C46.193 35.278 47.4963 35.7602 48.9001 35.9578C49.4415 36.0326 49.9892 36.0631 50.535 36.1151Z" fill="#FCDC4E"/>
<path fill-rule="evenodd" clip-rule="evenodd" d="M55.479 29.5818C56.3837 29.8159 57.283 30.0762 58.1954 30.2786C59.3258 30.5292 59.722 30.3437 60.3489 29.3813C60.9918 28.3936 60.9918 28.3936 59.9371 27.8255C59.0835 27.3652 58.3629 26.7422 57.736 26.0094C57.3917 25.6083 56.9727 25.418 56.4434 25.4705C55.6364 25.5511 55.4504 25.7497 55.3441 26.5717C55.2872 27.0136 55.1819 27.4492 55.0984 27.8872C55.2635 28.2853 55.363 28.6922 55.2775 29.1298C55.2411 29.3172 55.261 29.4973 55.479 29.5818Z" fill="#FCDC4E"/>
<path fill-rule="evenodd" clip-rule="evenodd" d="M66.3481 27.2648C66.518 26.837 66.3738 26.4758 66.1252 26.1257C64.8666 24.348 63.1608 23.3943 60.9781 23.2996C60.5522 23.2811 60.1283 23.2263 59.7034 23.1966C58.979 23.1461 58.3161 23.2452 57.9321 23.9745C57.9034 24.0056 57.8665 24.0585 57.8825 24.0751C58.4089 24.614 58.8119 25.3206 59.6724 25.4148C60.9776 26.0174 62.361 26.415 63.6915 26.9506C64.5587 27.2075 65.4245 27.4819 66.3481 27.2648Z" fill="#FCDC4E"/>
<path fill-rule="evenodd" clip-rule="evenodd" d="M79.5709 30.3327C80.7718 30.3288 81.7201 29.5106 81.9391 28.4389C81.9998 28.1422 81.8556 28.1335 81.6652 28.1102C80.7397 27.9951 79.8147 27.8747 78.8892 27.7678C76.9153 27.5391 74.94 27.3201 72.9666 27.0914C72.8262 27.0749 72.6563 26.9827 72.5636 27.1026C72.4451 27.2546 72.5975 27.4109 72.6762 27.5396C72.9909 28.0534 73.3798 28.4739 73.9907 28.6594C74.5549 28.8293 75.1298 29.0177 75.5916 29.3921C76.4453 30.0821 77.479 30.068 78.4774 30.2074C78.8785 30.2637 79.283 30.3001 79.5709 30.3327Z" fill="#5B3802"/>
<path fill-rule="evenodd" clip-rule="evenodd" d="M42.1257 20.3213C42.117 20.7971 42.505 21.0035 42.7774 21.2963C43.2124 21.7644 43.5931 21.9722 44.2462 21.5367C44.9697 21.056 45.8622 21.2701 46.6901 21.3041C46.912 21.3143 47.133 21.3633 47.3559 21.3798C48.7072 21.4716 49.0743 21.1599 49.2307 19.8284C49.2554 19.6167 49.153 19.539 49.0068 19.4536C47.2107 18.3906 45.3223 18.1449 43.3363 18.8233C42.8313 18.9966 42.1257 19.8979 42.1257 20.3213Z" fill="#FCDC4E"/>
<path fill-rule="evenodd" clip-rule="evenodd" d="M60.4922 38.0392C60.2416 37.5274 59.774 37.2627 59.2865 37.067C57.7987 36.4683 56.2934 35.9099 54.8027 35.3165C54.557 35.2184 54.3996 35.2388 54.2059 35.4112C53.749 35.8142 53.2726 36.1974 52.804 36.5878C53.057 37.269 53.6606 37.5303 54.2588 37.7954C55.2081 37.9678 56.0283 38.4815 56.9227 38.7986C57.1315 38.8729 57.3408 38.9486 57.5506 39.0244C58.1468 39.1676 58.7446 39.2604 59.3477 39.0487C59.8668 38.8661 60.2916 38.5811 60.4922 38.0392Z" fill="#FCDC4E"/>
<path fill-rule="evenodd" clip-rule="evenodd" d="M6.3254 66.6729C5.79418 67.4075 5.91363 67.9912 6.69055 68.4301C7.86759 69.0939 9.16602 69.3343 10.4848 69.4406C11.2928 69.5047 12.1096 69.4664 12.9225 69.4552C13.1424 69.4513 13.3721 69.4115 13.579 69.3382C14.2355 69.1046 14.4098 68.4452 13.9631 67.929C13.8319 67.7775 13.6824 67.644 13.5421 67.5008C11.2195 67.7712 8.98782 67.1866 6.73911 66.7685C6.60023 66.7442 6.46185 66.7078 6.3254 66.6729Z" fill="#AE9836"/>
<path fill-rule="evenodd" clip-rule="evenodd" d="M52.3131 32.8749C52.8871 33.1284 53.4785 33.3566 53.8626 33.897C53.9281 33.9888 54.0209 34.0194 54.1253 34.0175C55.0377 34.0121 55.9574 34.0884 56.8508 33.8514C57.6918 33.6285 58.005 32.9395 57.6151 32.1485C57.0091 30.9156 55.8777 30.4669 54.623 30.2266C54.2846 30.3091 54.1326 30.5757 54.0282 30.868C53.848 31.373 53.4926 31.71 53.0541 31.997C52.7268 32.2111 52.3325 32.3903 52.3131 32.8749Z" fill="#FCDC4E"/>
<path fill-rule="evenodd" clip-rule="evenodd" d="M27.122 29.7783C26.3587 29.7885 25.7289 30.1211 25.0893 30.4348C24.8354 30.5611 24.8437 30.7334 24.9349 30.9359C25.0874 31.2831 25.3928 31.4497 25.7342 31.5395C27.3041 31.9542 28.8686 32.383 30.4477 32.7544C31.2028 32.9307 31.9413 32.7573 32.6241 32.3796C32.8212 32.2698 32.9246 32.1644 32.6668 31.9974C30.96 30.8966 29.0536 30.3052 27.122 29.7783Z" fill="#3BD468"/>
<path fill-rule="evenodd" clip-rule="evenodd" d="M33.7066 27.7965C33.7571 28.9478 33.7561 28.9488 34.8768 29.2494C35.8581 29.513 36.838 29.7825 37.8233 30.0302C38.3278 30.1574 38.8653 30.2472 39.1756 29.6801C39.4126 29.244 39.1625 28.6308 38.6502 28.2622C37.529 27.4586 36.3326 26.838 34.9288 26.6986C33.7371 26.5811 33.6556 26.6472 33.7066 27.7965Z" fill="#FBDC4E"/>
<path fill-rule="evenodd" clip-rule="evenodd" d="M37.6347 33.0327C37.9581 33.0541 38.2276 32.9128 38.4787 32.7365C39.0079 32.3631 39.056 31.9057 38.5661 31.4803C36.951 30.0775 35.0228 29.6832 32.9513 29.8177C32.5721 29.8435 32.237 30.062 31.8918 30.2708C32.3623 30.6607 32.8741 30.9433 33.4024 31.2021C33.7734 31.3842 34.1099 31.6051 34.2274 32.0397C34.2265 32.4539 34.344 32.5797 34.8276 32.5185C35.505 32.4321 36.1469 32.8118 36.8204 32.9167C37.0923 32.9594 37.3439 33.1337 37.6347 33.0327Z" fill="#FCDC4E"/>
<path fill-rule="evenodd" clip-rule="evenodd" d="M65.6118 3.9742C66.2217 3.9742 66.8297 3.96547 67.4386 3.97712C67.729 3.98392 67.8436 3.91982 67.7649 3.59449C67.6624 3.16087 67.6275 2.71364 67.544 2.27419C67.4167 1.61041 66.9977 1.2574 66.33 1.1933C65.4157 1.10784 64.5023 1.16513 63.5918 1.23409C63.2854 1.25739 63.0135 1.43173 62.9679 1.73375C62.8761 2.36112 62.895 2.99528 63.1689 3.58526C63.3209 3.91302 63.6098 4.04073 63.9667 4.03831C64.5149 4.03442 65.0641 4.03733 65.6123 4.03733C65.6118 4.01693 65.6118 3.99557 65.6118 3.9742Z" fill="#E0C471"/>
<path fill-rule="evenodd" clip-rule="evenodd" d="M32.0504 22.7637C31.0724 22.7787 30.294 23.1143 29.5948 23.6931C29.2326 23.9912 29.3001 24.1592 29.6526 24.4025C30.5679 25.0357 31.6017 25.2892 32.6763 25.4397C33.2585 25.5203 33.8446 25.5912 34.4278 25.6694C34.825 25.7228 35.7961 25.0546 35.8777 24.6739C35.9054 24.5438 35.8151 24.4977 35.7422 24.4336C34.6623 23.4896 33.4775 22.7841 32.0504 22.7637Z" fill="#FCDC4E"/>
<path fill-rule="evenodd" clip-rule="evenodd" d="M35.9282 46.6252C35.9549 45.6725 35.6247 44.8237 35.1192 44.0448C34.6516 43.3242 33.9242 43.0198 33.0914 42.977C32.5981 42.9508 32.1023 44.0152 32.3742 44.5255C32.5053 44.7727 32.6967 44.9936 32.8875 45.2024C33.5581 45.9371 34.0713 46.7437 34.2418 47.7483C34.3102 48.1455 34.4608 48.6321 34.9264 48.6486C35.4242 48.6651 35.6757 48.2456 35.798 47.7721C35.8961 47.3948 35.9359 47.0141 35.9282 46.6252Z" fill="#E0C471"/>
<path fill-rule="evenodd" clip-rule="evenodd" d="M96.2808 19.8672C94.9018 22.9132 93.5227 25.9588 92.1277 29.0402C94.0263 28.6921 97.3117 23.8091 96.2808 19.8672Z" fill="#8E5704"/>
<path fill-rule="evenodd" clip-rule="evenodd" d="M29.1733 43.6377C29.2073 43.9815 29.2238 44.3277 29.2797 44.6681C29.4569 45.765 30.263 46.27 31.3225 45.9655C31.5434 45.9014 31.7323 45.8067 31.593 45.5504C30.8962 44.2602 31.3788 43.1327 32.0047 41.9852C32.5632 40.9607 32.518 40.9248 31.3439 40.7669C30.3251 40.629 29.6453 41.068 29.3748 42.0634C29.235 42.5757 29.1801 43.1026 29.1733 43.6377Z" fill="#FBDC4E"/>
<path fill-rule="evenodd" clip-rule="evenodd" d="M64.0463 35.8241C64.1788 35.8736 64.3298 35.8964 64.4415 35.9751C66.0692 37.1196 67.5162 36.3145 69.0234 35.6119C68.7894 35.3201 68.5646 35.1234 68.28 35.0112C66.7058 34.3892 65.1257 33.8046 63.3776 34.0508C63.1208 34.0867 62.8503 34.0173 62.5876 34.0294C62.2263 34.0459 61.9301 34.2028 61.7437 34.5296C62.4104 35.139 63.0625 35.7765 64.0463 35.8241Z" fill="#FADB4D"/>
<path fill-rule="evenodd" clip-rule="evenodd" d="M32.9531 34.8363C32.6657 35.1233 32.3918 35.4224 32.0893 35.6924C31.7154 36.025 31.9368 36.1984 32.2602 36.2489C33.6043 36.4591 34.9518 36.648 36.3012 36.8189C36.8208 36.885 37.1369 36.5858 37.3015 36.1095C37.5195 35.4782 37.366 34.8145 36.8795 34.4542C36.4867 34.1628 36.0487 33.9482 35.5573 33.8705C35.0406 33.6933 34.6021 33.9161 34.1782 34.1585C33.7733 34.3915 33.3605 34.6096 32.9531 34.8363Z" fill="#FBDC4E"/>
<path fill-rule="evenodd" clip-rule="evenodd" d="M36.9174 25.45C36.7266 26.3663 36.7173 26.3896 37.5938 26.748C39.0525 27.3428 40.5641 27.5739 42.1339 27.285C42.3806 27.2394 42.5647 27.1821 42.504 26.8621C42.336 25.9841 42.1815 25.1023 42.0223 24.2225C41.7149 24.0278 41.4789 24.255 41.239 24.3725C40.5107 24.727 39.7954 25.096 38.9811 25.2427C38.4984 25.3301 38.0308 25.4277 37.5404 25.317C37.3214 25.2679 37.0927 25.2592 36.9174 25.45Z" fill="#FBDC4E"/>
<path fill-rule="evenodd" clip-rule="evenodd" d="M33.9647 62.6133C34.8693 61.9311 35.7079 61.1877 36.2474 60.1641C36.3775 59.9169 36.5198 59.6765 36.6562 59.4333C36.127 59.3192 35.5996 59.1793 35.064 59.1006C34.7644 59.0579 34.4503 59.1405 34.2254 59.3755C33.0134 60.6453 31.4106 61.0697 29.6023 61.4877C31.143 61.9544 32.541 62.3302 33.9647 62.6133Z" fill="#784902"/>
<path fill-rule="evenodd" clip-rule="evenodd" d="M76.7568 46.9628C76.7568 46.8191 76.7597 46.6778 76.7558 46.535C76.7509 46.248 76.6426 46.249 76.4164 46.3782C75.0232 47.174 73.5796 47.8737 72.0792 48.4375C70.5312 49.0182 69.0264 49.6723 67.6901 50.6527C66.2809 51.686 64.7246 52.4697 63.2135 53.3307C63.0411 53.4288 62.8532 53.4928 63.081 53.7167C64.9767 52.9859 66.8102 52.1162 68.5845 51.1368C71.108 49.7432 73.6889 48.4705 76.2921 47.2376C76.4533 47.1604 76.6024 47.0546 76.7568 46.9628Z" fill="#8D5604"/>
<path fill-rule="evenodd" clip-rule="evenodd" d="M21.0708 31.1334C21.0679 31.8234 21.5355 32.3342 22.2192 32.3915C23.0937 32.4639 23.8279 31.9506 23.9347 31.1849C23.9716 30.9246 23.9925 30.6599 24.0284 30.3982C24.1178 29.7616 24.4392 29.3037 25.0603 29.0857C25.3735 28.976 25.5998 28.8152 25.5765 28.4336C25.5507 28.0223 25.475 27.7946 24.9515 27.949C23.7585 28.2991 22.6849 28.8405 21.7773 29.6936C21.3636 30.0806 21.0839 30.5429 21.0708 31.1334Z" fill="#FBDC4E"/>
<path fill-rule="evenodd" clip-rule="evenodd" d="M54.2969 26.7939C53.7555 26.8376 53.3714 27.0751 52.9586 27.2179C52.4211 27.4048 51.8869 27.6083 51.3028 27.4417C51.1605 27.4019 51.0183 27.3703 50.9605 27.5694C50.5278 29.0553 49.9276 30.5106 50.1316 32.2057C52.1142 30.8369 53.4525 29.0718 54.2969 26.7939Z" fill="#AA5D5A"/>
<path fill-rule="evenodd" clip-rule="evenodd" d="M26.27 48.0204C26.27 48.1423 26.2642 48.2646 26.271 48.3856C26.3006 48.8813 26.439 49.3344 26.9896 49.4461C27.5519 49.5602 27.8583 49.1863 28.0395 48.723C28.4983 47.5455 28.8645 46.366 28.2652 45.104C28.0594 44.6709 27.9656 44.1795 27.8632 43.7056C27.7836 43.3341 27.6156 43.3453 27.3577 43.5138C26.9498 43.7823 26.6789 44.1358 26.5915 44.6306C26.3934 45.7523 26.3798 46.89 26.27 48.0204Z" fill="#E0C471"/>
<path fill-rule="evenodd" clip-rule="evenodd" d="M59.6311 25.1924C59.5146 25.1788 59.4291 25.3726 59.3077 25.2604C58.843 24.836 58.3866 24.4034 57.9277 23.9746C57.6262 24.4854 57.869 24.9089 58.1574 25.3119C59.3762 27.0226 61.1155 27.8583 63.1147 28.2516C63.7158 28.3701 64.3155 28.4045 64.9307 28.2822C65.5693 28.152 66.0679 27.8767 66.3438 27.2654C65.4644 27.0954 64.5457 27.1382 63.7022 26.7779C62.0731 26.9463 60.8242 26.1422 59.6311 25.1924Z" fill="#AE9836"/>
<path fill-rule="evenodd" clip-rule="evenodd" d="M6.33071 66.673C6.35451 66.9245 6.58127 66.9376 6.7386 66.9663C8.78725 67.3358 10.8213 67.8233 12.9258 67.7631C13.1628 67.7573 13.4294 67.8 13.5469 67.5009C13.5357 67.4844 13.525 67.4669 13.5139 67.4494C12.2344 65.4469 10.3081 65.5173 8.31769 65.8553C7.60437 65.9757 6.86339 66.0869 6.33071 66.673Z" fill="#FBDC4D"/>
<path fill-rule="evenodd" clip-rule="evenodd" d="M51.5625 37.7947C51.3518 37.196 50.9244 36.8896 50.2956 36.8304C48.5713 36.6677 46.9116 36.2341 45.2709 35.682C44.3813 35.3839 43.482 35.5339 42.6342 35.9418C42.6182 36.4439 43.0042 36.5546 43.3587 36.5891C43.887 36.6405 44.3148 36.8702 44.7615 37.1251C45.688 37.6544 46.6771 38.0002 47.7706 37.9817C48.7864 37.9637 49.8023 37.9832 50.8176 37.9739C51.076 37.972 51.3527 38.0108 51.5625 37.7947Z" fill="#AF9936"/>
<path fill-rule="evenodd" clip-rule="evenodd" d="M47.5092 27.1311C47.2028 27.0534 47.1509 27.216 47.2456 27.6336C47.5204 28.8403 47.7413 30.0586 47.9938 31.2711C48.0337 31.4668 48.1075 31.661 48.1939 31.8412C48.3056 32.0757 48.5285 32.1175 48.764 32.1058C49.0305 32.0922 49.0684 31.8931 49.1179 31.6863C49.4292 30.3835 49.7429 29.0821 50.0653 27.7832C50.1328 27.5093 50.0969 27.3841 49.773 27.3608C49.0636 27.3122 48.3571 27.2195 47.5092 27.1311Z" fill="#AA5C5A"/>
<path fill-rule="evenodd" clip-rule="evenodd" d="M51.5627 37.7953C50.326 37.7983 49.0892 37.7876 47.8524 37.8055C46.6565 37.824 45.5848 37.4472 44.5966 36.8111C44.2456 36.5853 43.9032 36.4129 43.472 36.4367C43.0977 36.4581 42.8092 36.2842 42.6344 35.9414C42.1819 36.3872 42.3955 36.9262 42.4674 37.4234C42.4994 37.6434 42.8146 37.5933 42.9986 37.6288C45.3478 38.0779 47.7092 38.4489 50.0793 38.7714C50.7567 38.8641 51.4355 38.9515 52.2188 39.0554C51.9687 38.5761 51.7667 38.1857 51.5627 37.7953Z" fill="#F9DA4D"/>
<path fill-rule="evenodd" clip-rule="evenodd" d="M60.4792 34.9757C60.5059 34.4129 60.6055 33.8744 61.0794 33.5025C61.2872 33.3388 61.2149 33.2116 61.0945 33.0489C60.8784 32.7552 60.6288 32.473 60.4705 32.1482C60.0815 31.346 59.4736 31.0751 58.6068 31.1935C58.2538 31.2421 58.0368 31.2465 58.2664 31.6636C58.3242 31.7685 58.3461 31.8938 58.3888 32.0069C58.9254 33.4296 58.7588 33.9006 57.4555 34.6373C57.76 34.9883 59.8902 35.4996 60.2665 35.3205C60.4205 35.2476 60.4185 35.0961 60.4792 34.9757Z" fill="#FBDC4E"/>
<path fill-rule="evenodd" clip-rule="evenodd" d="M66.8316 28.1286C66.7442 28.2383 66.6606 28.3505 66.5698 28.4573C66.0396 29.073 66.0386 29.0745 66.7243 29.4683C67.9979 30.1981 69.3571 30.607 70.8366 30.5856C71.8806 30.57 72.3521 29.8703 71.9869 28.8652C71.1221 28.5802 70.2355 28.5262 69.3352 28.617C69.1293 28.6986 69.0982 28.8205 69.2658 28.9725C69.41 29.1026 69.5761 29.1944 69.7543 29.2187C69.0298 29.175 68.433 28.803 67.8629 28.3718C67.5172 28.3005 67.2404 27.929 66.8316 28.1286Z" fill="#AE9836"/>
<path fill-rule="evenodd" clip-rule="evenodd" d="M43.3442 33.2609C43.5443 32.7827 43.9881 32.5651 44.4844 32.2942C42.9631 31.2706 41.4218 30.6641 39.6106 30.8569C39.7 31.3818 40.0375 31.8411 39.9209 32.3859C39.8063 32.7181 39.9569 32.8958 40.272 32.9497C41.1388 33.0993 41.9555 33.3989 42.7548 33.7553C43.2908 33.9942 43.3073 33.6169 43.3442 33.2609Z" fill="#FBDC4E"/>
<path fill-rule="evenodd" clip-rule="evenodd" d="M43.4264 25.7676C43.3162 26.1298 43.3943 26.3673 43.5458 26.6003C44.6005 28.2217 45.6474 29.8464 46.705 31.4658C46.8065 31.6197 46.8822 31.8985 47.144 31.7946C47.3785 31.7023 47.3241 31.4289 47.2872 31.2517C47.0187 29.9785 46.6681 28.7262 46.2345 27.4992C46.1539 27.2685 45.949 27.1034 45.728 26.9854C44.9768 26.5848 44.2237 26.1891 43.4264 25.7676Z" fill="#AA5C5A"/>
<path fill-rule="evenodd" clip-rule="evenodd" d="M69.1622 28.759C70.1106 28.6517 71.0439 28.963 71.9922 28.8649C71.3303 27.2125 69.4317 26.1665 67.6958 26.489C67.4899 26.5263 67.3855 26.6206 67.3195 26.8206C67.1733 27.261 66.999 27.6937 66.8368 28.1288C67.1709 28.2516 67.5045 28.3759 67.8376 28.4993C68.0755 28.2885 68.2406 28.5366 68.4349 28.5949C68.6728 28.6663 68.8719 28.9105 69.1622 28.759Z" fill="#FBDC4E"/>
<path fill-rule="evenodd" clip-rule="evenodd" d="M25.018 49.0273C24.9952 48.5427 25.218 47.9149 24.9267 47.6182C24.7038 47.3914 24.0619 47.5784 23.6054 47.5784C21.8812 47.5745 20.1564 47.6182 18.4365 47.4506C17.292 47.339 16.1479 47.2122 15.0044 47.0928C14.9874 47.2914 15.1219 47.3059 15.2729 47.3361C18.2908 47.9382 21.314 48.517 24.3508 49.0181C24.5683 49.053 24.7961 49.0254 25.018 49.0273Z" fill="#AD6903"/>
<path fill-rule="evenodd" clip-rule="evenodd" d="M39.294 34.5952C39.0901 34.5952 38.8861 34.5991 38.6832 34.5943C38.4909 34.5875 38.3845 34.6462 38.3709 34.8638C38.336 35.4736 38.2874 36.0811 38.2335 36.69C38.2117 36.9372 38.2772 37.0455 38.554 37.0717C39.3241 37.1426 40.0942 37.2324 40.8566 37.3567C41.1552 37.4053 41.213 37.2572 41.2504 37.0454C41.3189 36.6657 41.3728 36.2816 41.4344 35.9009C41.5845 34.9978 41.5787 34.9745 40.6852 34.7691C40.2302 34.6632 39.7665 34.5826 39.294 34.5952Z" fill="#FBDC4E"/>
<path fill-rule="evenodd" clip-rule="evenodd" d="M57.6764 52.8563C58.2095 53.0734 58.1323 53.5803 58.144 53.9863C58.1561 54.4476 58.3052 54.586 58.7548 54.5573C59.5866 54.5049 60.3995 54.3485 61.1817 54.0776C61.6037 53.9299 61.8494 53.9615 61.9417 54.4296C62.0043 53.6998 61.898 52.9777 61.8543 52.2518C61.8305 51.8594 61.6634 51.8293 61.3439 51.9711C60.919 52.1571 60.4742 52.2984 60.0474 52.481C59.2865 52.8068 58.4907 52.8825 57.6764 52.8563Z" fill="#836930"/>
<path fill-rule="evenodd" clip-rule="evenodd" d="M10.9628 46.4764C11.8562 46.6021 12.7487 46.7395 13.6446 46.8473C13.9729 46.8872 13.8364 47.213 14.0078 47.3373C13.9423 46.6143 13.8743 45.8908 13.8126 45.1677C13.7976 44.9905 13.7388 44.8521 13.5567 44.8006C12.7555 44.5724 11.9519 44.3942 11.106 44.5039C10.7904 44.5447 10.684 44.6763 10.735 44.9808C10.8176 45.4766 10.8875 45.9767 10.9628 46.4764Z" fill="#A7843D"/>
<path fill-rule="evenodd" clip-rule="evenodd" d="M40.4464 29.8155C41.3709 30.1141 42.2862 30.4467 43.2253 30.6992C44.1407 30.9469 44.7408 31.8413 45.8125 31.9486C45.3697 30.7468 44.6345 29.8291 43.9877 28.8579C43.5526 28.82 43.168 29.0371 42.7626 29.1313C42.1537 29.2721 41.5574 29.4357 40.9227 29.4396C40.7101 29.4406 40.357 29.3819 40.4464 29.8155Z" fill="#FBDB4D"/>
<path fill-rule="evenodd" clip-rule="evenodd" d="M78.0978 48.5726C78.1017 47.7029 78.1167 46.8337 78.1046 45.964C78.0988 45.5906 78.224 45.375 78.5892 45.2313C79.2826 44.9598 79.9294 44.5738 80.6641 44.4058C80.6592 43.8367 80.6573 43.2686 80.65 42.7005C80.6441 42.3217 80.4829 42.2445 80.1484 42.4217C79.6278 42.6951 79.0927 42.9408 78.5702 43.2108C78.2182 43.391 77.9973 43.6881 77.9973 44.0829C77.9944 45.5241 78.0113 46.9663 78.0259 48.4084C78.0254 48.4633 78.073 48.5182 78.0978 48.5726Z" fill="#836830"/>
<path fill-rule="evenodd" clip-rule="evenodd" d="M38.4922 47.92C38.4436 47.2582 38.4494 46.5851 38.3319 45.9359C38.1596 44.9755 37.7599 44.1359 36.748 43.7571C36.4557 43.6474 36.3183 43.2521 35.9361 43.2852C36.6713 44.3602 36.9194 45.5931 36.9966 46.8512C37.0384 47.531 37.2564 47.8637 37.9537 47.8345C38.1329 47.8282 38.313 47.8904 38.4922 47.92Z" fill="#A7853D"/>
<path fill-rule="evenodd" clip-rule="evenodd" d="M36.9192 25.4504C38.6454 25.7606 40.1667 25.193 41.6268 24.3583C41.7453 24.2903 41.8905 24.267 42.0231 24.2228C42.1017 23.7334 41.8876 23.6372 41.436 23.7217C40.1604 23.9591 38.8828 24.1985 37.5961 24.368C36.8585 24.4671 37.0406 25.0279 36.9192 25.4504Z" fill="#AE9836"/>
<path fill-rule="evenodd" clip-rule="evenodd" d="M29.3164 48.5586C30.4158 48.4974 31.4675 48.8135 32.5382 48.9708C32.8388 49.0155 33.1394 49.0165 33.4375 49.0602C33.0058 47.5219 33.1937 47.4466 31.1111 47.3344C30.8882 47.3232 30.6634 47.3296 30.4405 47.3335C29.7369 47.3432 29.4407 47.667 29.3164 48.5586Z" fill="#794902"/>
<path fill-rule="evenodd" clip-rule="evenodd" d="M54.2603 37.7965C53.8125 37.3488 53.2065 37.0919 52.8055 36.5889C52.2262 37.0511 52.1975 37.3017 52.6374 37.8349C53.8363 39.2867 55.3232 40.0316 57.3281 39.7403C56.795 39.328 56.2118 39.1673 55.7053 38.8701C55.1867 38.5642 54.5919 38.3554 54.2603 37.7965Z" fill="#AD9736"/>
<path fill-rule="evenodd" clip-rule="evenodd" d="M40.4509 29.8161C40.5626 29.4248 40.8855 29.6175 41.1108 29.6025C42.1179 29.5306 43.09 29.3359 43.9922 28.8591C43.4391 27.8539 43.3216 27.8073 42.2198 28.0244C41.7046 28.1263 41.1812 28.1943 40.6577 28.2502C40.3843 28.2798 40.2299 28.3677 40.2926 28.6634C40.3732 29.0436 40.1959 29.4597 40.4509 29.8161Z" fill="#AE9836"/>
<path fill-rule="evenodd" clip-rule="evenodd" d="M43.3461 33.2612C43.2306 33.6279 43.0937 33.7735 42.6605 33.5473C41.9283 33.1675 41.1479 32.8611 40.3093 32.8063C39.9962 32.7849 39.951 32.6179 39.9223 32.3867C39.7592 32.7125 39.8107 33.1039 39.5931 33.4147C39.4576 33.6104 39.579 33.6978 39.7655 33.7522C40.8712 34.078 41.9763 34.4101 43.082 34.7335C43.282 34.7928 43.5248 34.818 43.6613 34.6684C43.8274 34.4902 43.5894 34.3441 43.501 34.2052C43.3112 33.908 43.3563 33.5832 43.3461 33.2612Z" fill="#AD9836"/>
<path fill-rule="evenodd" clip-rule="evenodd" d="M64.0368 35.8243C63.3948 35.6146 62.816 35.3028 62.3212 34.8308C62.1678 34.6852 61.9323 34.6259 61.7342 34.5293C61.3481 34.9241 61.4496 35.3456 61.7123 35.7379C62.2872 36.594 63.1321 37.0538 64.1125 37.2903C64.2271 37.3175 64.3684 37.3253 64.4738 37.2825C64.7423 37.1747 65.1754 37.1961 65.2022 36.8557C65.2259 36.5576 64.8083 36.5818 64.584 36.4799C64.198 36.3055 63.7901 36.1778 63.3778 36.0254C63.5444 35.7131 63.8289 35.9001 64.0368 35.8243Z" fill="#AD9736"/>
<path fill-rule="evenodd" clip-rule="evenodd" d="M29.7266 33.6791C29.1138 33.5348 28.5184 33.4105 27.9333 33.2508C27.6347 33.1692 27.4667 33.2362 27.3929 33.5358C27.222 34.2307 27.3633 34.8818 27.7449 35.4597C28.0217 35.8763 28.7059 35.767 29.0317 35.2601C29.3396 34.7813 29.5532 34.253 29.7266 33.6791Z" fill="#299248"/>
<path fill-rule="evenodd" clip-rule="evenodd" d="M26.7321 61.7656C28.0145 63.5273 29.7698 63.7565 31.7311 63.2957C31.9472 63.2452 32.155 63.1655 32.3672 63.098C30.4997 62.6076 28.6239 62.1492 26.7321 61.7656Z" fill="#794902"/>
<path fill-rule="evenodd" clip-rule="evenodd" d="M52.3146 32.8741C52.5773 32.5351 52.8857 32.2549 53.2639 32.0355C53.6728 31.799 54.0103 31.4654 54.1317 30.9827C54.2113 30.6695 54.475 30.4875 54.625 30.2257C54.02 29.9271 53.4849 30.0393 53.0211 30.5146C52.5108 31.0371 52.0111 31.5712 51.4969 32.0894C51.2274 32.3603 51.2046 32.5424 51.6241 32.6517C51.8577 32.7124 52.0845 32.7998 52.3146 32.8741Z" fill="#AD9836"/>
<path fill-rule="evenodd" clip-rule="evenodd" d="M26.754 34.6208C26.755 33.7555 26.6613 32.9432 25.711 32.5484C25.3944 32.4168 25.2167 32.3935 25.123 32.8169C24.9311 33.6953 25.3317 34.4553 25.5847 35.2278C25.6974 35.5736 26.2456 35.5318 26.5806 35.5269C26.8963 35.524 26.7011 35.1375 26.7506 34.9253C26.7729 34.8282 26.754 34.7228 26.754 34.6208Z" fill="#299248"/>
<path fill-rule="evenodd" clip-rule="evenodd" d="M36.8939 58.6911C36.871 57.8321 37.3683 57.1105 37.5275 56.2982C37.5751 56.0578 37.8407 56.1855 38 56.1272C36.9016 55.8097 36.0786 56.1923 35.6488 57.2193C35.1943 58.308 35.1934 58.308 36.3641 58.5804C36.5389 58.6212 36.7171 58.6547 36.8939 58.6911Z" fill="#784903"/>
<path fill-rule="evenodd" clip-rule="evenodd" d="M41.9219 21.8914C41.2561 21.871 40.6035 21.9638 39.9815 22.1978C39.6751 22.3129 39.3804 22.3435 39.0672 22.2765C38.6889 22.7077 38.1854 22.813 37.6454 22.8402C37.4293 22.8509 37.2025 22.7436 36.9967 22.8898C36.5189 23.0641 36.0168 23.0927 35.5181 23.134C36.0624 23.4457 36.6626 23.5943 37.2734 23.5171C38.4189 23.3685 39.5751 23.235 40.6735 22.8524C41.1775 22.6766 41.7039 22.4668 41.9219 21.8914Z" fill="#AE9836"/>
<path fill-rule="evenodd" clip-rule="evenodd" d="M60.4745 34.9761C60.339 35.2379 60.1026 35.2816 59.8559 35.2126C59.061 34.9907 58.2278 34.9305 57.4508 34.6377C57.1046 34.727 56.7764 34.8538 56.4209 35.1184C57.4149 35.5312 58.2938 36.0303 59.3222 36.0915C60.4138 36.158 60.4925 36.0735 60.4745 34.9761Z" fill="#AD9836"/>
<path fill-rule="evenodd" clip-rule="evenodd" d="M32.4688 33.8913C32.0686 33.8913 31.7214 33.8621 31.3801 33.8971C30.4915 33.9869 29.7573 34.8469 29.8 35.6991C29.8097 35.8884 29.9054 35.9414 30.0666 35.954C30.3342 35.9739 30.5901 35.9569 30.8328 35.8151C31.366 35.5058 32.1502 34.6104 32.4688 33.8913Z" fill="#289147"/>
<path fill-rule="evenodd" clip-rule="evenodd" d="M68.2972 31.4176C69.2475 31.8886 70.2157 32.2931 71.3054 32.2839C72.4436 32.2761 72.7301 31.9857 72.7184 30.8252C72.0299 31.5919 71.1723 31.6618 70.2158 31.4967C69.5889 31.3894 68.9547 30.9544 68.2972 31.4176Z" fill="#AD9836"/>
<path fill-rule="evenodd" clip-rule="evenodd" d="M21.2347 39.0117C22.3321 39.3599 23.4766 39.4565 24.6071 39.6265C25.9463 39.827 27.2918 39.9877 28.65 39.9931C28.7762 39.9931 28.8908 40.0222 28.9632 40.1402C29.1841 39.7702 28.8068 39.8615 28.6874 39.826C27.8434 39.576 26.966 39.5216 26.0954 39.4453C24.474 39.3002 22.8629 39.0588 21.2347 39.0117Z" fill="#A9863D"/>
<path fill-rule="evenodd" clip-rule="evenodd" d="M61.093 36.9209C60.9555 36.9442 60.7526 36.868 60.6632 37.0316C60.5666 37.2089 60.7667 37.3138 60.8473 37.4429C60.9211 37.5643 61.0196 37.6697 61.1051 37.7828C61.529 38.3393 62.0316 38.4189 62.5929 38.0232C62.776 37.8955 62.7551 37.7731 62.6259 37.624C62.354 37.306 61.5242 36.917 61.093 36.9209Z" fill="#AC9635"/>
<path fill-rule="evenodd" clip-rule="evenodd" d="M37.6328 33.0335C36.8734 32.6752 36.0256 32.6203 35.2418 32.3396C35.0777 32.2804 34.8291 32.2338 34.7116 32.3144C34.3076 32.5912 34.3644 32.1629 34.226 32.04C34.0978 32.5382 34.2887 32.7728 34.8024 32.8573C35.742 33.0131 36.6733 33.237 37.6328 33.0335Z" fill="#AB9535"/>
<path fill-rule="evenodd" clip-rule="evenodd" d="M60.4918 38.0391C59.7285 39.0131 58.6622 39.0879 57.5507 39.0248C58.5316 39.5681 59.459 39.5074 60.3704 38.8354C60.7171 38.579 60.8483 38.3659 60.4918 38.0391Z" fill="#AE9836"/>
<path fill-rule="evenodd" clip-rule="evenodd" d="M55.4821 29.5823C55.3131 29.3988 55.4583 29.2138 55.4681 29.0254C55.488 28.6059 55.6293 28.1339 55.1019 27.8867C54.9092 28.1669 54.7368 28.4636 54.5197 28.7234C54.225 29.0774 54.3405 29.2565 54.7324 29.3648C54.983 29.4347 55.2325 29.509 55.4821 29.5823Z" fill="#AC9635"/>
<path fill-rule="evenodd" clip-rule="evenodd" d="M34.2122 42.0502C34.4637 41.6345 34.5244 41.2009 34.3316 40.744C33.5207 40.391 33.6232 41.08 33.5159 41.484C33.3416 42.1473 33.9097 41.9468 34.2122 42.0502Z" fill="#A6843D"/>
<path fill-rule="evenodd" clip-rule="evenodd" d="M32.9505 34.8358C33.4691 34.7848 33.9076 34.5352 34.3218 34.2463C34.6957 33.9865 35.088 33.8131 35.5547 33.8695C34.4563 33.5728 33.6561 34.0773 32.9505 34.8358Z" fill="#A89434"/>
<path fill-rule="evenodd" clip-rule="evenodd" d="M73.0993 76.0684C73.0148 76.8289 73.4066 77.3421 74.2914 77.5378C75.1649 77.7296 76.0686 77.8024 76.9232 78.0506C78.3153 78.4555 79.6206 78.0681 80.9394 77.7568C81.3754 77.6553 81.7323 77.413 81.794 76.9129C81.8567 76.4171 81.779 75.9757 81.2647 75.7334C80.2479 75.8004 79.2685 76.1122 78.2527 76.1879C78.1095 76.1986 77.9803 76.2685 77.8773 76.3724C77.7579 76.6677 77.989 76.6492 78.159 76.7012C77.5748 76.539 77.0067 76.7521 76.4289 76.7764C76.0827 76.791 75.987 76.6371 75.9501 76.3559C74.9935 76.3127 74.0602 76.0578 73.0993 76.0684Z" fill="#AE9836"/>
<path fill-rule="evenodd" clip-rule="evenodd" d="M77.8336 76.465C78.796 76.2936 79.7579 76.1178 80.7213 75.9532C80.9233 75.9192 81.1122 75.8764 81.2656 75.7332C79.2956 74.7873 77.2717 74.1196 75.0604 74.7368C74.2743 74.9543 73.4367 75.1602 73.1002 76.0682C74.0504 76.4072 75.0303 76.5198 76.0345 76.4499C76.6332 76.6553 77.2324 76.6762 77.8336 76.465Z" fill="#FBDC4E"/>
<path fill-rule="evenodd" clip-rule="evenodd" d="M85.5703 79.2527C85.2052 78.4437 84.1961 77.9508 82.9841 78.1247C81.8639 78.2844 80.7592 78.5573 79.6526 78.7977C79.1519 78.9064 78.6445 78.9399 78.1419 78.9312C77.6811 78.9229 77.3111 79.0453 76.9974 79.3711C76.9936 79.6702 77.2373 79.7251 77.4413 79.7878C77.9637 79.9504 78.4988 80.1296 79.0412 80.1335C80.698 80.1461 82.3655 80.2957 84.0126 80.0165C84.5885 79.9184 85.2503 79.9126 85.5703 79.2527Z" fill="#FBDC4E"/>
<path fill-rule="evenodd" clip-rule="evenodd" d="M85.5739 79.252C84.7173 79.8541 83.719 79.9211 82.7289 79.973C81.8981 80.0187 81.0614 79.9633 80.2291 80.0031C79.2381 80.0507 78.2946 79.8298 77.3497 79.5914C77.2161 79.5584 77.071 79.5185 77.0005 79.3704C76.5796 79.8681 76.6184 80.1367 77.1239 80.4945C77.8173 80.9859 78.6292 81.0564 79.4275 81.203C81.091 81.506 82.7372 81.3472 84.3837 81.0826C85.4695 80.9073 85.9371 80.1847 85.5739 79.252Z" fill="#AE9836"/>
<path fill-rule="evenodd" clip-rule="evenodd" d="M92.6719 72.3856C92.6233 72.1278 92.45 71.9583 92.2557 71.8073C90.8956 70.7516 89.3005 70.3379 87.6389 70.3787C86.6905 70.402 85.7514 70.8002 84.808 71.0289C84.7104 71.0537 84.6108 71.0716 84.5113 71.094C84.2971 71.3916 84.5928 71.446 84.7419 71.5023C86.2535 72.0792 87.7428 72.7022 89.4146 72.7206C90.2804 72.7294 91.1491 72.8653 92.0198 72.8226C92.3048 72.8071 92.6626 72.8396 92.6719 72.3856Z" fill="#FBDC4E"/>
<path fill-rule="evenodd" clip-rule="evenodd" d="M92.6605 72.3859C92.5702 72.5699 92.4197 72.6457 92.2177 72.6427C90.0801 72.6097 87.9203 72.7025 85.9202 71.7342C85.4516 71.5075 84.8607 71.5521 84.4994 71.0938C84.3838 71.1268 84.2678 71.1617 84.1522 71.1948C83.7633 71.306 83.5273 71.5371 83.4884 71.9615C83.4496 72.3917 83.6705 72.6476 84.0119 72.8399C84.8685 73.3182 85.7852 73.6304 86.7491 73.7965C88.4608 74.0893 90.1739 74.1223 91.8734 73.7241C92.6256 73.5483 92.8557 73.1215 92.6605 72.3859Z" fill="#AE9836"/>
<path fill-rule="evenodd" clip-rule="evenodd" d="M15.2191 74.7051C14.8199 75.4689 14.9704 76.2812 15.7765 76.7503C17.9514 78.0133 20.2521 78.6907 22.7795 77.9133C23.2155 77.7793 23.5972 77.5525 23.9279 77.2422C24.564 76.6469 24.5975 76.1793 24.0682 75.4363C23.352 76.0822 22.5595 76.4803 21.5597 76.205C20.6245 76.3478 19.717 76.1604 18.8046 75.9919C18.0534 75.8544 17.3944 75.5276 16.7685 75.112C16.2412 75.0173 15.7474 74.7973 15.2191 74.7051Z" fill="#AE9836"/>
<path fill-rule="evenodd" clip-rule="evenodd" d="M15.2207 74.7042C15.6417 75.1315 16.204 75.1373 16.743 75.215C17.0207 75.1655 17.2523 75.318 17.497 75.3961C18.8411 75.8298 20.2134 76.0978 21.6225 76.174C21.6502 76.175 21.7172 76.1051 21.7031 76.1852C21.6954 76.2279 21.6254 76.2707 21.6084 76.3299C22.4902 76.7378 23.8096 76.177 24.0703 75.436C23.4158 74.5551 22.4674 74.1613 21.4545 73.904C20.6713 73.7044 19.8793 73.5058 19.0795 73.4082C17.6048 73.23 16.2836 73.6112 15.2207 74.7042Z" fill="#FCDC4E"/>
<path fill-rule="evenodd" clip-rule="evenodd" d="M8.99956 74.485C8.88108 74.1592 8.63635 73.9518 8.34064 73.8008C6.10358 72.6447 3.84225 72.5315 1.55761 73.6605C1.26189 73.8066 0.999199 73.9965 0.917623 74.3485C0.814194 74.5675 0.861778 74.7914 1.07009 74.8691C2.0126 75.2235 2.96045 75.6038 3.9923 75.2148C4.00298 74.9647 4.01608 74.7496 4.38026 74.7661C4.94451 74.7933 5.5107 74.771 6.09776 74.7749C5.70444 75.0861 5.13049 74.6914 4.83186 75.1964C4.90858 75.3032 5.02075 75.3595 5.14117 75.3673C6.31141 75.4377 7.48359 75.5159 8.59605 75.0264C8.81747 74.9283 9.13261 74.8633 8.99956 74.485Z" fill="#FCDC4E"/>
<path fill-rule="evenodd" clip-rule="evenodd" d="M9.0092 74.4846C8.75767 75.011 8.20897 74.9784 7.7705 75.0814C6.81051 75.3072 5.8311 75.3295 4.85898 75.1095C4.56423 74.8624 4.27288 74.8541 3.98639 75.1222C2.98271 75.3509 2.05234 75.008 1.11275 74.7526C0.906863 74.6978 0.957365 74.4972 0.926774 74.3477C0.656307 74.9959 1.07487 75.3727 1.49975 75.7209C2.38059 76.4386 3.4678 76.5391 4.53655 76.6809C5.74661 76.8416 6.9217 76.5789 8.08806 76.3317C9.04805 76.1297 9.3593 75.4426 9.0092 74.4846Z" fill="#AE9836"/>
<path fill-rule="evenodd" clip-rule="evenodd" d="M52.0703 79.7403C51.7251 79.1319 51.2273 78.7279 50.5548 78.5055C48.8145 77.9325 47.0664 77.5183 45.2314 78.0262C44.8187 78.1413 44.4176 78.2836 44.0452 78.4963C43.7524 78.6619 43.5038 78.8629 43.514 79.2436C44.1277 79.6699 44.8741 79.666 45.5548 79.8743C45.7437 79.9316 45.9457 79.955 46.139 80.0055C47.3995 80.1482 48.6586 80.3186 49.9333 80.2876C50.4786 80.3099 51.0156 80.257 51.5381 80.088C51.7464 80.0205 51.9732 79.9807 52.0703 79.7403Z" fill="#FCDC4E"/>
<path fill-rule="evenodd" clip-rule="evenodd" d="M46.0647 79.8365C45.212 79.6389 44.3593 79.4413 43.5076 79.2432C43.3357 79.974 43.6518 80.4615 44.2845 80.7854C46.6614 82.0008 49.1112 82.0814 51.6061 81.2233C52.3636 80.9626 52.4869 80.4741 52.064 79.7399C51.3842 79.9939 50.682 80.1269 49.9546 80.1201C49.6104 80.5154 49.1359 80.4532 48.7096 80.411C48.039 80.342 47.3714 80.3003 46.6979 80.3032C46.4721 80.3051 46.2579 80.2468 46.0423 80.176C45.5771 80.0215 46.0627 79.9487 46.0647 79.8365Z" fill="#AE9836"/>
<path fill-rule="evenodd" clip-rule="evenodd" d="M89.0822 66.1377C88.6753 66.4052 88.5588 66.8063 88.6477 67.2492C88.7399 67.7027 89.1153 67.8926 89.528 67.9839C90.5152 68.199 91.498 68.483 92.4973 68.5826C93.5044 68.6821 94.5173 68.466 95.4618 68.0946C96.0498 67.863 96.178 67.4371 95.9682 66.8913C95.1471 67.1579 94.3245 67.0569 93.5025 66.8991C92.6857 66.7403 91.8627 66.615 91.0299 66.5946C90.3486 66.5766 89.7606 66.1673 89.0822 66.1377Z" fill="#AE9936"/>
<path fill-rule="evenodd" clip-rule="evenodd" d="M89.0823 66.1379C89.6426 66.5327 90.2933 66.725 90.9498 66.758C92.1079 66.8182 93.2384 67.0372 94.3746 67.2174C94.8524 67.2936 95.3011 67.198 95.7619 67.1465C95.9183 67.1295 95.944 67.013 95.9688 66.8911C95.8983 66.6886 95.7459 66.5356 95.5788 66.4346C93.7312 65.3129 91.0843 64.9886 89.1687 66.0549C89.1347 66.0738 89.1109 66.1098 89.0823 66.1379Z" fill="#FBDC4E"/>
<path fill-rule="evenodd" clip-rule="evenodd" d="M30.9513 53.9494C30.9503 53.8489 30.9571 53.7459 30.9494 53.6449C30.8799 52.7447 30.4619 52.1236 29.8427 51.9964C29.1998 51.8648 28.4326 52.3402 28.0748 53.1322C27.7892 53.7615 27.6848 54.4019 28.033 55.0623C28.3224 55.611 28.2389 56.2117 28.1893 56.7988C28.1296 57.5145 28.3001 57.7801 28.8769 57.8534C29.6004 57.9447 30.0622 57.6388 30.1695 56.9901C30.3011 56.186 30.4429 55.3857 30.859 54.6671C30.9892 54.4432 30.9615 54.1936 30.9513 53.9494Z" fill="black"/>
<path fill-rule="evenodd" clip-rule="evenodd" d="M37.0082 22.8898C37.7264 23.1598 38.3766 22.9704 39.0001 22.5936C39.1365 22.5111 39.2297 22.4266 39.0787 22.277C38.4358 22.279 37.7711 22.1343 37.1811 22.5193C37.067 22.5926 36.762 22.6281 37.0082 22.8898Z" fill="#080704"/>
<path fill-rule="evenodd" clip-rule="evenodd" d="M46.6843 34.4448C47.4962 34.9051 48.4207 35.079 50.2266 35.143C49.7978 34.5584 48.7897 34.353 46.6843 34.4448Z" fill="#080605"/>
<path fill-rule="evenodd" clip-rule="evenodd" d="M59.6316 25.1924C60.6114 26.3039 61.7836 27.0012 63.3219 26.9108C63.4623 26.9016 63.6104 26.9186 63.7031 26.7773C62.3629 26.2053 60.9242 25.8838 59.6316 25.1924Z" fill="#080604"/>
<path fill-rule="evenodd" clip-rule="evenodd" d="M69.1576 28.7595C68.693 28.5502 68.2283 28.339 67.7009 28.1006C67.7616 28.2827 67.7966 28.3905 67.833 28.4988C68.6371 29.1946 69.0838 29.367 70.1094 29.3427C69.7534 29.1261 69.4553 28.9431 69.1576 28.7595Z" fill="#0D0A05"/>
<path fill-rule="evenodd" clip-rule="evenodd" d="M77.8341 76.4648C77.2349 76.3934 76.6352 76.3667 76.035 76.4503C75.8879 76.5095 75.7422 76.5687 75.5019 76.6654C76.458 77.2466 77.3854 76.6692 78.2891 76.7868C78.2308 76.5279 77.9462 76.6192 77.8341 76.4648Z" fill="#0A0804"/>
<path fill-rule="evenodd" clip-rule="evenodd" d="M81.0922 80.615C81.5608 80.615 82.0303 80.6199 82.4984 80.6131C82.7194 80.6092 82.934 80.5194 82.9213 80.2761C82.9107 80.0591 82.6756 80.1091 82.5241 80.1008C81.587 80.0445 80.6508 80.0523 79.7209 80.1984C79.5738 80.2208 79.3538 80.1994 79.3975 80.4533C79.4325 80.6578 79.6185 80.5937 79.7476 80.5956C80.1953 80.6034 80.644 80.5985 81.0927 80.5985C81.0922 80.6048 81.0922 80.6097 81.0922 80.615Z" fill="#020202"/>
<path fill-rule="evenodd" clip-rule="evenodd" d="M90.8438 72.944C89.3084 72.7293 87.773 72.5098 86.2366 72.3025C86.0943 72.2831 85.8811 72.1865 85.8268 72.4147C85.7889 72.5827 85.9681 72.656 86.0972 72.6929C87.6511 73.145 89.2142 73.5106 90.8438 72.944Z" fill="#050403"/>
<path fill-rule="evenodd" clip-rule="evenodd" d="M21.6052 76.3307C21.7067 76.2773 21.8082 76.2238 21.9922 76.1248C21.0511 75.9777 20.2009 75.8514 19.3536 75.7096C18.5305 75.5717 17.7405 75.3124 16.9577 75.0337C16.7688 74.9667 16.6183 74.9225 16.7397 75.2158C18.1843 76.3608 19.8639 76.4812 21.6052 76.3307Z" fill="#060503"/>
<path fill-rule="evenodd" clip-rule="evenodd" d="M3.97291 75.1228C4.26328 75.1189 4.55414 75.115 4.84549 75.1101C5.31019 75.0655 5.77585 75.0208 6.24055 74.9756C6.37797 74.9625 6.55278 74.9819 6.53821 74.7673C6.52607 74.5974 6.37992 74.6085 6.26144 74.6085C5.39371 74.6056 4.52501 74.6066 3.64368 74.6066C3.64077 74.895 3.8151 75.0028 3.97291 75.1228Z" fill="#050403"/>
<path fill-rule="evenodd" clip-rule="evenodd" d="M46.0697 79.8369C45.8808 79.9059 45.6705 79.7621 45.4734 79.8981C45.6433 80.3327 46.0425 80.4182 46.4144 80.4483C47.3458 80.5211 48.282 80.5454 49.2162 80.5803C49.5047 80.591 49.7853 80.5114 50.0359 80.3759C50.3326 80.2152 49.9912 80.206 49.9611 80.1215C48.6636 80.0258 47.3662 79.9306 46.0697 79.8369Z" fill="#050403"/>
</svg>
