<svg width="83" height="115" viewBox="0 0 83 115" fill="none" xmlns="http://www.w3.org/2000/svg">
<g clip-path="url(#clip0_3207_3838)">
<mask id="mask0_3207_3838" style="mask-type:luminance" maskUnits="userSpaceOnUse" x="0" y="0" width="83" height="115">
<path d="M82.8361 0.883789H0.03125V114.196H82.8361V0.883789Z" fill="white"/>
</mask>
<g mask="url(#mask0_3207_3838)">
<path d="M14.7148 106.369L69.3998 107.138L75.0337 36.8694L58.6441 17.5204L41.3008 13.1514L20.3409 20.5595L8.26562 41.1189L14.7148 106.369Z" fill="#332A33"/>
<g opacity="0.5">
<g style="mix-blend-mode:multiply" opacity="0.3">
<path d="M25.5613 67.6571C26.1336 67.8987 26.7163 68.1117 27.3017 68.3273C27.8034 68.5091 28.3469 68.7273 28.6866 69.1714C28.9793 69.5663 29.1126 70.1273 28.7755 70.5351C28.6492 70.6624 28.5037 70.7693 28.3443 70.852L28.1065 70.8806C27.9288 70.9014 27.7511 70.9118 27.5839 70.93C26.6144 71.0308 25.6564 71.2212 24.7225 71.4988C23.8147 71.7673 22.9386 72.1322 22.1094 72.5872H22.2688C23.0572 72.1398 23.8911 71.7767 24.7565 71.504C25.4643 71.2813 26.194 71.1341 26.9332 71.065C27.3899 71.0462 27.8444 70.9906 28.292 70.8988C28.7416 70.818 29.1711 70.6513 29.5568 70.4079C29.9749 70.0988 30.2388 69.5819 30.001 69.0805C29.7632 68.5792 29.238 68.3013 28.718 68.122C28.198 67.9428 27.7171 67.7844 27.2207 67.6025H25.4359L25.5613 67.6571Z" fill="#8E208E"/>
</g>
<g style="mix-blend-mode:multiply" opacity="0.3">
<path d="M21.3007 68.3272C21.7659 68.7792 22.38 69.2234 22.184 69.9507C22.1197 70.2169 21.9587 70.45 21.7319 70.6053C21.5965 70.6948 21.4509 70.7681 21.2981 70.8235C21.1585 70.8706 21.0151 70.9062 20.8696 70.9299C20.3884 71.0234 19.9025 71.0911 19.4141 71.1326V71.2001C19.8348 71.1533 20.2555 71.0806 20.6657 70.9949C21.2903 70.8598 21.9723 70.7066 22.4714 70.2884C22.6164 70.1785 22.7366 70.0397 22.8243 69.8809C22.9121 69.7221 22.9655 69.5468 22.981 69.3662C22.981 68.9299 22.6413 68.6415 22.3591 68.3558C22.0768 68.0701 21.8521 67.8545 21.6091 67.5947H20.5638C20.7935 67.8543 21.0396 68.099 21.3007 68.3272Z" fill="#8E208E"/>
</g>
<g style="mix-blend-mode:multiply" opacity="0.3">
<path d="M37.7973 67.5954C37.724 67.7842 37.6799 67.983 37.6667 68.185C37.6353 68.6318 37.7059 69.1331 37.4341 69.5227C37.3221 69.6766 37.1729 69.7998 37.0003 69.8812L36.9533 69.9046H36.8932C35.0751 70.2475 33.3107 70.8284 31.646 71.6319C31.1002 71.9055 30.5761 72.2199 30.0781 72.5722H30.3185C30.7317 72.2745 31.1628 72.0021 31.6094 71.7566C32.5253 71.261 33.4881 70.8565 34.4839 70.5488C35.2678 70.289 36.0988 70.1409 36.9088 69.9409C37.0537 69.9267 37.1955 69.8908 37.3296 69.8344C37.6958 69.7668 38.0406 69.6137 38.3356 69.3877C38.6858 69.0682 38.7407 68.5902 38.772 68.1434C38.7817 67.9588 38.8026 67.7749 38.8347 67.5928L37.7973 67.5954Z" fill="#8E208E"/>
</g>
<g style="mix-blend-mode:multiply" opacity="0.3">
<path d="M40.3007 71.5508C39.4384 71.93 38.5342 72.2079 37.6641 72.5742H38.1292C38.2886 72.4937 38.4506 72.4131 38.6126 72.343C39.5298 71.9456 40.4915 71.665 41.4035 71.2546C42.2658 70.8702 43.1072 70.3533 43.6507 69.5637C44.0585 68.9928 44.2272 68.2868 44.1211 67.5947H43.5462C43.5541 69.4494 41.8895 70.852 40.3007 71.5508Z" fill="#8E208E"/>
</g>
<g style="mix-blend-mode:multiply" opacity="0.3">
<path d="M49.9389 68.0701C50.2011 68.4172 50.3678 68.8264 50.4223 69.2571C50.4502 69.4663 50.4335 69.679 50.3731 69.8813C50.3128 70.0836 50.2102 70.271 50.0721 70.4312C49.7061 70.7728 49.2903 71.0574 48.8387 71.2754C47.8634 71.8317 46.8236 72.2678 45.7422 72.5742H45.9329C46.8682 72.3164 47.7807 71.9828 48.6611 71.5767C49.2245 71.3162 49.7716 71.0222 50.2995 70.6962C50.796 70.3897 51.2481 70.0728 51.3735 69.4727C51.4672 68.9555 51.3688 68.4219 51.0965 67.9714C51.0214 67.8416 50.9394 67.7158 50.8509 67.5947H49.5652C49.7011 67.744 49.826 67.9029 49.9389 68.0701Z" fill="#8E208E"/>
</g>
<g style="mix-blend-mode:multiply" opacity="0.3">
<path d="M43.6703 72.5749L43.9316 72.4009C44.4554 72.0321 44.942 71.6137 45.3845 71.1515C45.604 70.9203 45.8183 70.6813 46.0143 70.432C46.1789 70.2242 46.4507 69.941 46.482 69.6709C46.482 69.6943 46.2861 69.7099 46.2651 69.7306C45.8623 70.1359 45.4828 70.5634 45.1284 71.0112C44.7702 71.4051 44.3842 71.7731 43.9734 72.1126C43.7801 72.271 43.5789 72.4269 43.3672 72.5749H43.6703Z" fill="#8E208E"/>
</g>
<g style="mix-blend-mode:multiply" opacity="0.3">
<path d="M52.911 67.6675C52.9841 67.8701 53.0834 68.0649 53.1514 68.2701C53.2899 68.6767 53.3319 69.1096 53.2742 69.5351C53.1099 70.331 52.691 71.0527 52.08 71.5923C51.6855 71.9704 51.2469 72.3 50.7734 72.5742H51.236C51.6134 72.3978 51.9722 72.1846 52.3073 71.9378C53.039 71.3975 53.7498 70.6546 53.9954 69.7585C54.1154 69.2906 54.0797 68.7966 53.8935 68.3506C53.8029 68.1117 53.6928 67.8807 53.5643 67.6597L53.5172 67.5947H52.8901C52.8958 67.6193 52.9028 67.6436 52.911 67.6675Z" fill="#8E208E"/>
</g>
<g style="mix-blend-mode:multiply" opacity="0.3">
<path d="M59.9069 67.7636C60.2129 68.1102 60.4471 68.5136 60.596 68.9504C60.7448 69.3872 60.8055 69.849 60.7745 70.3091C60.6961 71.4884 59.92 72.1274 58.9609 72.5742H59.2223C60.3825 72.143 61.4042 71.4884 61.7465 70.1923C61.8591 69.7405 61.8601 69.2683 61.7495 68.8161C61.639 68.3638 61.4201 67.9448 61.1115 67.5947H59.7579C59.8024 67.6519 59.8572 67.7064 59.9069 67.7636Z" fill="#8E208E"/>
</g>
<g style="mix-blend-mode:multiply" opacity="0.3">
<path d="M34.7661 67.595C34.6459 67.8779 34.4952 68.147 34.3167 68.3977C33.9132 68.8627 33.3929 69.2131 32.8089 69.4133L32.6051 69.499H32.5476C32.3865 69.5064 32.2273 69.4628 32.0929 69.3743C31.7924 69.1717 31.8499 68.8886 32.0641 68.6522C32.167 68.554 32.2449 68.4329 32.2915 68.299C32.3289 68.1129 32.3218 67.9207 32.2706 67.7379C32.2706 67.6911 32.2444 67.6392 32.2314 67.5898H31.9283C31.9283 67.6184 31.9465 67.647 31.9544 67.6756C32.0079 67.8239 32.0284 67.982 32.0144 68.139C32.0004 68.2959 31.9523 68.448 31.8734 68.5847C31.727 68.7769 31.471 68.938 31.5441 69.2185C31.5787 69.3411 31.6548 69.4481 31.7595 69.5215C31.8642 69.5948 31.9912 69.63 32.119 69.6211C32.3599 69.5959 32.5968 69.5418 32.8246 69.4601C33.1177 69.3703 33.4056 69.2645 33.6869 69.1432C34.2908 68.9355 34.8376 68.5904 35.2835 68.1353C35.4249 67.9655 35.55 67.7828 35.6572 67.5898L34.7661 67.595Z" fill="#8E208E"/>
</g>
</g>
<path d="M4.35391 98.1479L15.2428 97.6777L16.2489 98.6258L17.4483 112.671L15.5878 113.904L2.76775 113.562L1.39062 112.465L2.76775 99.2284L4.35391 98.1479Z" fill="#7F6660"/>
<path d="M15.245 97.6766L16.0707 96.6402V92.188L15.245 91.3828L3.32125 91.9127L2.28906 93.0089L2.90837 97.6766L4.35605 98.1468L15.245 97.6766Z" fill="#AD9F8C"/>
<path d="M15.2474 91.3833L15.5819 89.9546L13.7841 72.1226L12.9035 70.8135L3.42565 71.2213L2.32812 72.5876L3.75489 90.9209L4.58849 91.8586L15.2474 91.3833Z" fill="#917E71"/>
<path d="M3.42309 71.2213L1.68536 70.7174L0.03125 62.2001L0.702824 60.4L12.3495 59.374L13.0473 60.252L13.5725 69.6498L12.9009 70.8135L3.42309 71.2213Z" fill="#AD9F8C"/>
<path d="M12.3458 59.3739L12.7613 58.4492L11.865 42.9316L10.8955 41.5029L3.00385 41.7575L1.88281 43.5264L3.42195 59.3739L4.58218 60.0571L12.3458 59.3739Z" fill="#AD9F8C"/>
<path d="M3.00759 41.7607L2.0355 41.1841C2.0355 41.1841 1.27769 33.6513 6.10153 27.7912C6.68564 27.5328 7.30022 27.3486 7.93072 27.2432L15.7884 32.3811V33.8201L11.9654 41.0126L10.894 41.5036L3.00759 41.7607Z" fill="#917E71"/>
<path d="M15.8014 32.3809H16.7996L23.5206 25.4975L23.8551 23.6792L15.6682 12.2241L13.8154 11.7773C10.941 12.8164 5.20519 18.2218 3.08594 22.2402C3.18262 23.1493 3.44916 24.3026 3.44916 24.3026L15.8014 32.3809Z" fill="#7F6660"/>
<path d="M23.848 23.6815H25.0291L33.4983 19.1618L34.2822 17.6345L30.1012 7.67817L28.6378 7.33789C25.4315 7.33789 20.7462 9.79255 17.9031 12.7667C17.6418 13.546 17.3047 14.5538 17.3047 14.5538L23.848 23.6815Z" fill="#AD9F8C"/>
<path d="M78.5085 98.1479L67.6195 97.6777L66.6135 98.6258L65.4141 112.671L67.2746 113.904L80.0946 113.562L81.4717 112.465L80.0946 99.2284L78.5085 98.1479Z" fill="#7F6660"/>
<path d="M78.5141 98.1468L79.9618 97.6766L80.5811 93.0089L79.5489 91.9127L67.6252 91.3828L66.7969 92.188V96.6402L67.6252 97.6766L78.5141 98.1468Z" fill="#AD9F8C"/>
<path d="M67.6235 91.3833L67.2891 89.9546L69.0869 72.1226L69.9675 70.8135L79.4453 71.2213L80.5429 72.5876L79.1161 90.9209L78.2825 91.8586L67.6235 91.3833Z" fill="#7F6660"/>
<path d="M79.4463 71.2213L81.184 70.7174L82.8381 62.2001L82.1665 60.4L70.5198 59.374L69.8221 60.252L69.2969 69.6498L69.9685 70.8135L79.4463 71.2213Z" fill="#917E71"/>
<path d="M70.517 59.3739L70.1016 58.4492L70.9979 42.9316L71.9673 41.5029L79.859 41.7575L80.98 43.5264L79.4409 59.3739L78.2807 60.0571L70.517 59.3739Z" fill="#AD9F8C"/>
<path d="M79.859 41.7596L80.818 41.1882C80.818 41.1882 81.5784 33.6553 76.752 27.7953C76.1965 27.5376 75.6171 27.334 75.0221 27.1875L67.0703 32.3826V33.8216L70.8959 41.0141L71.9673 41.5051L79.859 41.7596Z" fill="#7F6660"/>
<path d="M67.0693 32.3809H66.0711L59.3501 25.4975L59.0156 23.6792L67.2026 12.2241L69.0553 11.7773C71.9297 12.8164 77.6655 18.2218 79.7848 22.2402C79.6881 23.1493 79.4216 24.3026 79.4216 24.3026L67.0693 32.3809Z" fill="#917E71"/>
<path d="M59.0192 23.6815H57.8381L49.3689 19.1618L48.8594 18.18L53.1789 7.57946L54.2241 7.33789C57.4304 7.33789 62.1158 9.79255 64.9589 12.7667C65.2202 13.546 65.5573 14.5538 65.5573 14.5538L59.0192 23.6815Z" fill="#7F6660"/>
<path d="M34.2929 17.6393L35.7823 18.4186C38.0217 18.0082 41.641 17.1198 47.4291 18.7277C47.936 18.6522 48.4221 18.4755 48.8584 18.2082L54.0454 5.4803L53.7371 3.9062C48.6363 0.695658 38.2987 -0.83948 30.0282 3.83607C29.6493 4.42051 29.4062 5.86733 29.4062 5.86733L30.1145 7.6856L34.2929 17.6393Z" fill="#917E71"/>
<path d="M14.7096 81.3463L14.6443 80.7047L13.2384 79.8735L13.1731 79.832L13.1051 79.8372L10.5181 79.9644L8.26562 76.876L10.3457 80.1696L10.377 80.2216L10.4528 80.2268L11.9893 80.3021L11.4719 81.6398L9.47028 82.4425L11.6366 81.8996L11.7071 81.884L11.7332 81.8087L12.2689 80.3151L13.0267 80.3515L14.7096 81.3463Z" fill="#69504B"/>
<path d="M16.25 98.6256L17.4494 97.6775L19.7411 97.1865L20.0652 101.654L16.7596 104.553L16.25 98.6256Z" fill="#54413E"/>
<path d="M16.0703 96.6402H17.45L19.6581 96.183L19.2662 91.3828L16.9065 91.7153L16.0703 92.188V96.6402Z" fill="#54413E"/>
<path d="M15.5791 89.9545L16.5721 90.3805L19.1512 89.9935L17.5991 71.0107L15.2446 71.2211L13.7812 72.1225L15.5791 89.9545Z" fill="#54413E"/>
<path d="M13.5721 69.6496L15.2445 70.1873L17.497 69.9588L16.6948 59.9375H15.0198L13.0469 60.2518L13.5721 69.6496Z" fill="#54413E"/>
<path d="M12.7635 58.4489L14.9167 58.5735L16.5682 58.4255L15.2434 42.4689L12.7635 42.2637L11.8672 42.9312L12.7635 58.4489Z" fill="#54413E"/>
<path d="M11.9688 41.0145L15.3606 41.7574L17.1793 37.2221L18.2429 35.435L17.1114 34.2479L15.7944 33.8193L11.9688 41.0145Z" fill="#54413E"/>
<path d="M16.7969 32.3831L17.6592 33.4299L19.1017 34.204L22.2034 30.6973L25.4124 27.9361L24.5082 26.2581L23.5178 25.4971L16.7969 32.3831Z" fill="#443534"/>
<path d="M25.0312 23.6818L25.5487 25.4975L26.7664 26.9885L30.7854 24.7182L35.0578 23.1234L34.4829 20.3258L33.5005 19.1699L28.3107 21.9337L25.0312 23.6818Z" fill="#443534"/>
<path d="M66.6147 98.6256L65.4152 97.6775L63.1235 97.1865L62.7969 101.654L66.1051 104.553L66.6147 98.6256Z" fill="#443534"/>
<path d="M66.7962 96.6402H65.419L63.2109 96.183L63.6029 91.3828L65.9626 91.7153L66.7962 92.188V96.6402Z" fill="#443534"/>
<path d="M67.2909 89.9545L66.2978 90.3805L63.7188 89.9935L65.2708 71.0107L67.6253 71.2211L69.0886 72.1225L67.2909 89.9545Z" fill="#443534"/>
<path d="M69.2947 69.6496L67.6223 70.1873L65.3672 69.9588L66.172 59.9375H67.847L69.82 60.2518L69.2947 69.6496Z" fill="#443534"/>
<path d="M70.1016 58.4489L67.9484 58.5735L66.2969 58.4255L67.6217 42.4689L70.1016 42.2637L70.9979 42.9312L70.1016 58.4489Z" fill="#443534"/>
<path d="M70.8991 41.0145L67.5073 41.7574L65.6885 37.2221L64.625 35.435L65.7539 34.2479L67.0735 33.8193L70.8991 41.0145Z" fill="#443534"/>
<path d="M66.0738 32.3831L65.2141 33.4299L63.7716 34.204L60.6699 30.6973L57.4609 27.9361L58.3651 26.2581L59.3555 25.4971L66.0738 32.3831Z" fill="#443534"/>
<path d="M57.8391 23.6818L57.3217 25.4975L56.104 26.9885L52.085 24.7182L47.8125 23.1234L48.3874 20.3258L49.3699 19.1699L54.5596 21.9337L57.8391 23.6818Z" fill="#443534"/>
<g style="mix-blend-mode:multiply" opacity="0.35">
<path d="M1.80351 108.494L2.28694 111.79L4.14749 112.842L14.1741 112.946L15.4493 112.193L15.917 106.917L16.6409 106.712L17.1896 112.842L15.5878 113.904L2.76775 113.562L1.39062 112.465L1.80351 108.494Z" fill="#7F6660"/>
</g>
<g style="mix-blend-mode:multiply" opacity="0.35">
<path d="M65.8792 110.189L67.4262 112.356L74.8213 112.706H79.525L81.3019 110.841L81.4717 112.465L80.0946 113.561L67.2746 113.904L65.4141 112.67L65.8792 110.189Z" fill="#7F6660"/>
</g>
<path d="M35.7765 18.4058L35.6406 20.0501L36.111 22.8476L41.1517 22.1956L45.581 22.6034L46.9424 22.9281L47.4232 18.715L44.6167 17.9773L42.0297 17.811L39.5002 17.7383L35.7765 18.4058Z" fill="#443534"/>
<path d="M61.5376 101.041C61.5376 101.041 65.3109 103.558 66.5522 104.433C67.7934 105.309 67.621 106.693 66.4999 111.265C65.716 114.514 65.4677 114.143 61.5899 114.143C57.043 114.143 44.8946 114.195 41.4322 114.195C37.9698 114.195 25.8213 114.143 21.2745 114.143C17.3966 114.143 17.1588 114.514 16.3644 111.265C15.2434 106.693 15.0579 105.306 16.3122 104.433C17.5665 103.561 21.2222 101.041 21.2222 101.041H61.5376Z" fill="#917E71"/>
<g style="mix-blend-mode:multiply" opacity="0.35">
<path d="M61.4865 113.904L54.0548 113.732L51.2666 112.953L38.1591 113.142L32.1959 111.942L22.9376 112.704L17.45 112.672L16.0703 110.049C16.1957 110.61 16.1931 110.568 16.3656 111.267C17.1495 114.517 17.3978 114.145 21.2757 114.145C25.8225 114.145 37.9709 114.197 41.4333 114.197C44.8957 114.197 57.0442 114.145 61.591 114.145C65.4689 114.145 65.7067 114.517 66.5011 111.267L65.2076 113.452L61.4865 113.904Z" fill="#7F6660"/>
</g>
<path d="M65.2663 109.064L64.0748 108.646H64.0721L64.0643 108.643L62.4703 108.313L62.4416 108.306L62.405 108.319L59.8284 109.147L57.2205 109.249L57.1447 109.251L57.0846 109.308L53.4498 112.924L51.3906 114.168L52.8226 114.163L53.8444 113.48L53.8862 113.451L53.9097 113.425L55.8565 111.262L57.3459 111.579L58.1586 112.695L58.1795 112.727L58.2031 112.737L60.1211 113.553L58.3363 112.555L57.6256 111.295L57.5916 111.236L57.508 111.212L56.2328 110.841L57.3198 109.633L59.8728 109.534H59.9042L59.9277 109.524L62.4625 108.573L64.0329 108.802L65.2533 109.147L65.2663 109.152L65.2794 109.147L66.5311 108.646L65.2663 109.064Z" fill="#69504B"/>
<path d="M67.289 105.399C67.1557 104.994 66.8682 104.753 66.5547 104.446C65.3134 103.225 62.7839 101.054 62.7839 101.054H20.0854C20.0854 101.054 17.7989 102.942 16.3486 104.051C16.0873 104.259 15.826 104.864 15.6875 105.142L19.5706 104.342L25.8761 104.753L29.6756 104.137C29.6756 104.137 50.6355 104.189 50.7897 104.137C50.9438 104.085 60.4896 104.137 60.4896 104.137L65.7289 104.62L67.289 105.399Z" fill="#AD9F8C"/>
<g style="mix-blend-mode:screen" opacity="0.5">
<path d="M2.53906 101.467C2.53906 101.467 4.1383 99.2021 6.25232 99.8256C8.36634 100.449 11.2904 99.9347 12.5604 99.6775C14.4706 99.2957 15.8843 99.8593 16.6447 103.213C16.4775 101.236 16.2528 98.6229 16.2528 98.6229L15.2467 97.6748L4.3578 98.1475L2.77163 99.2281L2.53906 101.467Z" fill="#8C7367"/>
</g>
<g style="mix-blend-mode:screen" opacity="0.5">
<path d="M16.3486 104.039H19.777L25.5547 104.382L30.321 103.662L40.5723 104.143L29.6651 104.124L25.8656 104.74L19.5602 104.33L15.6875 105.14C15.8495 104.709 16.1814 104.124 16.3486 104.039Z" fill="#8C7367"/>
</g>
<g style="mix-blend-mode:screen">
<path d="M66.9462 109.381C66.9462 109.381 67.38 106.384 67.137 106.075C66.894 105.766 65.5012 105.015 65.5012 105.015L61.8741 104.553L56.9092 104.381L53.2508 105.306L49.9766 104.137L50.7866 104.124H60.4866L65.7259 104.62L67.2938 105.381C67.2938 105.381 67.772 106.571 66.9462 109.381Z" fill="#8C7367"/>
</g>
<g style="mix-blend-mode:screen">
<path d="M56.2344 110.842L57.4625 109.764L59.8745 109.535L57.3214 109.634L56.2344 110.842Z" fill="#8C7367"/>
</g>
<g style="mix-blend-mode:screen">
<path d="M53.8828 113.452L55.8531 111.263L57.3426 111.58L55.9184 111.395L53.8828 113.452Z" fill="#8C7367"/>
</g>
<g style="mix-blend-mode:screen" opacity="0.5">
<path d="M2.46934 94.3628L2.29688 93.0095L3.34212 91.9133L15.2449 91.373L16.0707 92.1783V96.4252C15.6918 94.5758 15.4514 92.4874 12.4123 92.9497C9.37323 93.4121 8.57099 92.8303 7.03708 92.6406C5.50317 92.451 2.59739 92.1887 2.46934 94.3628Z" fill="#8C7367"/>
</g>
<g style="mix-blend-mode:screen" opacity="0.7">
<path d="M2.69658 77.346L2.32812 72.5977L3.42565 71.2314L12.9035 70.8262L13.7841 72.1249L14.5811 79.9435C14.129 77.6447 13.2379 72.1068 10.5987 72.1509C8.63046 72.1837 6.66571 72.3277 4.71392 72.5821C3.01539 72.7717 2.46923 74.416 2.69658 77.346Z" fill="#8C7367"/>
</g>
<g style="mix-blend-mode:screen" opacity="0.5">
<path d="M0.632269 65.2967L0.03125 62.1978L0.702824 60.4003L12.3495 59.3613L13.0472 60.2419L13.434 67.1487C12.927 62.9069 11.6048 61.0419 9.14585 61.2108C6.68689 61.3796 4.94655 61.4835 3.77848 61.5458C2.32558 61.6342 0.122708 61.2004 0.632269 65.2967Z" fill="#8C7367"/>
</g>
<g style="mix-blend-mode:screen" opacity="0.5">
<path d="M2.20684 46.8675L1.88281 43.5244L3.00385 41.7607L10.8955 41.501L11.865 42.9296L12.3092 50.6313C11.4756 47.5142 11.9773 42.6231 9.21003 42.7764C6.44272 42.9296 5.51506 42.8361 4.69715 42.9296C3.4533 43.0725 1.98472 43.0725 2.20684 46.8675Z" fill="#8C7367"/>
</g>
<g style="mix-blend-mode:screen" opacity="0.5">
<path d="M3.46094 32.3213C4.2893 30.5316 4.83283 29.3498 6.11588 27.7912C6.6728 27.4659 7.30004 27.278 7.94507 27.2432L15.8027 32.3811V33.8201L13.2393 38.6437C14.7157 34.9474 14.457 32.1213 11.3552 31.2485C8.25341 30.3758 7.54264 29.5238 7.32837 29.0355C7.11409 28.5471 5.72391 28.2536 3.46094 32.3213Z" fill="#8C7367"/>
</g>
<g style="mix-blend-mode:screen" opacity="0.5">
<path d="M15.6585 12.227L13.8058 11.7803C13.1891 11.9439 11.9766 12.7569 11.9766 12.7569C14.932 11.9205 16.1759 15.2636 16.3065 17.5754C16.3666 18.6793 17.0121 19.7053 17.8535 20.5677L16.56 22.8172L18.1775 20.882C18.9696 21.6063 19.8619 22.2142 20.8272 22.6873C22.5336 23.5107 22.0162 26.2069 19.9283 29.1655L23.5083 25.4978L23.8428 23.6795L15.6585 12.227Z" fill="#8C7367"/>
</g>
<path d="M20.5441 19.1097L20.2409 18.7149C19.781 19.1643 19.3263 19.5981 18.8586 20.0396V20.0526C18.1138 20.9851 17.3769 21.9228 16.5826 22.8112L11.8606 22.4631C11.9024 22.393 11.9469 22.3255 11.9913 22.2553C12.2918 21.7826 12.5975 21.315 12.9059 20.8475C13.2142 20.3799 13.5278 19.9176 13.8544 19.463L13.8989 19.4006L13.8571 19.3279L12.0645 16.2498L11.9991 12.751L11.5732 13.1068L11.8058 16.2914V16.3252V16.3511L13.5775 19.3929C13.3161 19.8552 13.0365 20.3098 12.7569 20.7643C12.4773 21.2189 12.1664 21.7124 11.8632 22.1826C11.5601 22.6528 11.257 23.1255 10.946 23.5879C10.6351 24.0502 10.3189 24.5152 10.0001 24.9749L9.97656 25.0087V25.0555L10.149 28.692L10.6717 29.0297L10.2457 25.0788C10.507 24.6113 10.7971 24.1437 11.0845 23.6814C11.3066 23.3151 11.5366 22.9567 11.7639 22.5956L16.6113 23.0813H16.6819L16.7237 23.0294C17.4762 22.0839 18.2915 21.1903 19.0938 20.289C19.5929 19.889 20.0397 19.5045 20.5441 19.1097Z" fill="#69504B"/>
<g style="mix-blend-mode:screen" opacity="0.5">
<path d="M10 24.9828L13.5774 19.4007L11.8057 16.3564L13.2638 19.3228L10 24.9828Z" fill="#8C7367"/>
</g>
<g style="mix-blend-mode:screen" opacity="0.7">
<path d="M66.3203 102.633L66.6234 98.6229L67.6295 97.6748L78.5184 98.1475L80.1046 99.2281L81.176 109.533C80.311 105.031 79.8563 100.301 77.3111 100.301C74.698 100.301 72.9368 100.368 71.0396 99.4489C69.1425 98.5294 66.7959 99.4255 66.3203 102.633Z" fill="#8C7367"/>
</g>
<g style="mix-blend-mode:screen" opacity="0.5">
<path d="M66.7969 94.4901V92.1939L67.6278 91.373L79.5516 91.9055L80.5837 93.0017L79.9827 97.5214C79.9305 94.9524 80.1709 93.3783 77.3095 93.5835C74.4481 93.7887 72.8672 93.2744 71.6599 92.8043C70.4526 92.3341 67.0399 91.399 66.7969 94.4901Z" fill="#8C7367"/>
</g>
<g style="mix-blend-mode:screen" opacity="0.5">
<path d="M68.5469 77.4583L69.0852 72.123L69.9658 70.8242L79.4436 71.2294L80.5411 72.5957L79.6265 84.3547C79.5011 79.8844 80.3608 73.3698 78.7851 73.2711C76.4333 73.123 75.1267 73.4113 73.7548 73.1308C72.3829 72.8503 69.7933 71.2684 68.5469 77.4583Z" fill="#8C7367"/>
</g>
<g style="mix-blend-mode:screen" opacity="0.7">
<path d="M69.5 65.977L69.8214 60.2624L70.5191 59.3818L82.1658 60.4208L82.8374 62.2183L81.8131 67.4757C82.2939 63.5794 81.489 61.3014 79.2705 61.4676C77.1356 61.6261 75.0372 61.1585 73.5504 60.7689C72.2516 60.4234 70.1115 59.9429 69.5 65.977Z" fill="#8C7367"/>
</g>
<g style="mix-blend-mode:screen" opacity="0.7">
<path d="M70.8047 46.2957L70.9981 42.9189L71.9675 41.4902L79.8592 41.75L80.9802 43.5189L80.1675 52.0232C80.1858 47.3243 80.9515 43.7527 79.2033 43.9319C77.4551 44.1111 76.2923 44.0618 75.0484 43.4695C73.8046 42.8773 70.8413 42.2799 70.8047 46.2957Z" fill="#8C7367"/>
</g>
<g style="mix-blend-mode:screen" opacity="0.5">
<path d="M68.7244 36.9185L67.0703 33.8196V32.3806L75.0221 27.1855L76.752 27.7934C77.5882 28.5726 79.1691 31.4299 79.7858 33.5261C78.1578 31.1156 76.3887 28.3077 74.928 29.8532C73.4673 31.3987 72.5762 31.0896 71.6694 31.0143C70.7627 30.939 66.6313 31.6793 68.7244 36.9185Z" fill="#8C7367"/>
</g>
<g style="mix-blend-mode:screen" opacity="0.5">
<path d="M68.9693 15.5303L68.7969 19.1954L71.8307 22.3644L69.0817 19.0707L68.9693 15.5303Z" fill="#8C7367"/>
</g>
<g style="mix-blend-mode:screen" opacity="0.5">
<path d="M75.3184 16.513C73.6564 14.8791 71.7776 12.9777 69.0599 11.7803L67.2072 12.227L64.4922 16.061L68.5948 13.3985C68.9557 13.1602 69.3864 13.0488 69.8184 13.0823C70.2503 13.1157 70.6586 13.292 70.978 13.583C72.6425 15.1597 72.2453 16.648 73.5911 16.7519L73.6904 16.7675L73.403 17.5909L71.7959 18.9728L73.6251 17.7234L74.0981 16.9442C75.6189 17.8039 78.1902 21.4301 77.8218 22.9185C77.4089 24.5991 73.4291 28.2174 73.4291 28.2174L79.4236 24.2978L79.7868 22.2353C78.5821 20.1241 77.0771 18.1968 75.3184 16.513Z" fill="#8C7367"/>
</g>
<path d="M74.7281 15.9147L73.6279 17.733L71.7908 18.985L71.7255 19.0291L71.7333 19.1019L72.0861 22.4579L69.3371 18.972L68.9688 15.5303L69.081 19.0317V19.0707L69.1098 19.1045L72.1096 22.702L72.4885 26.5516L71.9424 29.1985L72.4441 28.8712L72.7498 26.5802L72.7525 26.5594V26.5438L72.2377 22.6683L71.9999 19.1564L73.7977 17.9304L73.816 17.9174L73.8343 17.8966L75.039 16.2186L74.7281 15.9147Z" fill="#69504B"/>
<g style="mix-blend-mode:screen" opacity="0.5">
<path d="M52.4141 9.45976L53.1771 7.58434L54.2223 7.34277C57.3241 7.44408 60.3083 9.18442 61.2386 9.79744C62.1689 10.4105 64.215 11.9326 64.9571 12.7716C65.2654 13.6963 65.5555 14.5587 65.5555 14.5587L60.6062 21.4681C60.6062 21.4681 64.8081 14.1015 63.742 13.156C61.2464 10.9429 58.6072 11.491 57.8494 9.91692C57.0916 8.34282 53.2659 7.36875 52.4141 9.45976Z" fill="#8C7367"/>
</g>
<g style="mix-blend-mode:screen" opacity="0.5">
<path d="M51.2704 12.2652L54.0377 5.45711L53.7294 3.88301C48.6364 0.695846 38.2987 -0.839292 30.0282 3.83626C29.6493 4.4207 29.4062 5.86752 29.4062 5.86752L31.3086 10.5171C31.3086 10.5171 29.9785 6.78185 30.9924 5.34542C32.5446 3.15311 43.64 2.46736 46.2244 2.81023C47.2173 2.94271 48.2966 3.14791 49.2556 4.00769L49.739 8.04944L46.7627 11.5327L50.0709 8.15594L49.8567 5.98961V5.94025C50.8366 7.06062 51.4017 8.4803 51.4585 9.96382L49.8461 9.92745L48.1476 10.3924L49.8461 10.1171L51.4689 10.234C51.481 10.9164 51.4145 11.5979 51.2704 12.2652Z" fill="#8C7367"/>
</g>
<path d="M49.8173 9.67076L49.8016 9.67595L48.3957 10.1669L50.3216 8.33563L50.3687 8.29147L50.3634 8.22394L50.2302 6.01085L50.4183 4.29908L52.6578 3.27565L52.0803 2.99512L50.1256 3.96659L50.0159 4.02114L50.0054 4.13803L49.8643 5.99007V6.00825V6.02124L50.0681 8.17978L46.7625 11.5436L46.7442 11.5618L46.7416 11.5825L46.2687 15.2684L43.8672 17.9776L44.4525 18.0634L46.4934 15.4061L46.5195 15.3723L46.5247 15.3386L46.8697 11.6215L48.1579 10.3955L49.8565 9.93051L52.2005 9.97987L52.3494 9.61362L49.8408 9.67076H49.8173Z" fill="#69504B"/>
<g style="mix-blend-mode:screen" opacity="0.5">
<path d="M18.0076 15.5249L17.3125 14.5716L17.9109 12.7845C20.3411 10.3012 21.5275 9.92719 23.0875 8.98169C24.6476 8.03619 28.0002 7.20498 28.6456 7.35564L30.109 7.69592L32.7848 14.0728C29.9888 10.5064 29.2989 8.72454 26.2677 9.51159C23.2365 10.2986 17.0538 13.5767 18.0076 15.5249Z" fill="#8C7367"/>
</g>
<g style="mix-blend-mode:screen" opacity="0.7">
<path d="M11.9893 80.3021L11.7097 80.2865L10.377 80.2216L8.26562 76.876L10.2986 80.445L11.6366 80.5047L11.2969 81.5307L9.47028 82.4425L11.4719 81.6398L11.9057 80.5177L11.9893 80.3021Z" fill="#8C7367"/>
</g>
<g style="mix-blend-mode:screen" opacity="0.7">
<path d="M12.1953 80.5388H13.008L14.7196 81.6558L14.7144 81.3466L13.0315 80.3518L12.2737 80.3154L12.1953 80.5388Z" fill="#8C7367"/>
</g>
<g style="mix-blend-mode:multiply" opacity="0.35">
<path d="M2.71094 96.2227L4.21349 97.363L11.0364 97.6747C11.0364 97.6747 15.4186 97.6747 15.2409 97.6747L4.35198 98.1474L2.90431 97.6747L2.71094 96.2227Z" fill="#7F6660"/>
</g>
<g style="mix-blend-mode:multiply" opacity="0.35">
<path d="M1.17969 68.1201L2.7345 70.0864L7.69683 70.5748L11.4885 70.3358L13.5058 68.476L13.5711 69.6501L12.8996 70.8138L3.42175 71.2216L1.68402 70.7176L1.17969 68.1201Z" fill="#7F6660"/>
</g>
<g style="mix-blend-mode:multiply" opacity="0.35">
<path d="M3.14844 56.5013L4.11791 58.9872H10.0366L11.628 58.2417L12.6184 55.8779L12.7674 58.4469L12.3519 59.3716L4.58827 60.0573C4.58827 60.0573 3.44111 59.5015 3.42804 59.3716C3.41498 59.2417 3.14844 56.5013 3.14844 56.5013Z" fill="#7F6660"/>
</g>
<g style="mix-blend-mode:multiply" opacity="0.35">
<path d="M2.09139 38.0977L2.58527 40.7731L4.13747 41.2095L10.7252 40.7731L12.7608 39.5211L11.9769 41.0121L10.9055 41.503L3.01383 41.7628L2.03129 41.1835C1.86144 40.2588 2.09139 38.0977 2.09139 38.0977Z" fill="#7F6660"/>
</g>
<g style="mix-blend-mode:multiply" opacity="0.35">
<path d="M17.5575 31.0792H15.4905L11.0481 28.8531L8.27561 26.3855L4.09461 23.8867L3.80193 22.0814L4.3925 20.1748C3.90835 20.8361 3.47175 21.5305 3.08594 22.2528C3.18262 23.162 3.44916 24.3153 3.44916 24.3153L15.8014 32.391H16.7996L18.9398 30.2013L17.5575 31.0792Z" fill="#7F6660"/>
</g>
<g style="mix-blend-mode:multiply" opacity="0.35">
<path d="M18.2422 15.8574L22.3866 20.894L25.052 22.6526L27.8193 22.1928L25.0285 23.6812H23.8474L18.2422 15.8574Z" fill="#7F6660"/>
</g>
<path d="M31.3047 10.5273L34.5737 16.0783L36.8132 17.7381H39.5021L35.7784 18.4056L34.2915 17.642L31.3047 10.5273Z" fill="#7F6660"/>
<g style="mix-blend-mode:multiply" opacity="0.35">
<path d="M66.7969 95.9863L68.383 97.1864L77.8243 97.6773H79.9618L78.5141 98.1475L67.6252 97.6773L66.7969 96.6409V95.9863Z" fill="#7F6660"/>
</g>
<g style="mix-blend-mode:multiply" opacity="0.35">
<path d="M67.2891 89.9551L69.2959 90.9551L75.8601 91.3837L78.7189 90.6694L79.1919 89.9551L79.1161 90.9214L78.2825 91.8591L67.6235 91.3837L67.2891 89.9551Z" fill="#7F6660"/>
</g>
<g style="mix-blend-mode:multiply" opacity="0.35">
<path d="M70.2191 56.4287L71.3141 58.3846L77.2694 58.9873L78.7171 58.5743C78.7171 58.5743 79.6369 57.3534 79.6264 57.4547C79.616 57.556 79.4409 59.3717 79.4409 59.3717L78.2807 60.0575L70.517 59.3717L70.1016 58.447L70.2191 56.4287Z" fill="#7F6660"/>
</g>
<g style="mix-blend-mode:multiply" opacity="0.35">
<path d="M70.3828 40.0518L73.4271 40.9115L78.5436 41.0492L80.8615 40.0518L80.8197 41.1869L79.858 41.7583L71.9664 41.5038L70.895 41.0154L70.3828 40.0518Z" fill="#7F6660"/>
</g>
<g style="mix-blend-mode:multiply" opacity="0.35">
<path d="M62.4922 28.7132L66.0696 31.5939L67.9327 31.251L70.896 29.199L73.0518 28.4717L67.0704 32.3836H66.0696L62.4922 28.7132Z" fill="#7F6660"/>
</g>
<g style="mix-blend-mode:multiply" opacity="0.35">
<path d="M50.7513 13.541L49.8785 17.3464L50.7513 18.9465L56.0794 21.8947L58.9826 22.757L60.297 21.8947L59.0192 23.6818H57.8381L49.3689 19.1699L48.8594 18.1854L50.7513 13.541Z" fill="#7F6660"/>
</g>
<path d="M69.4119 67.5977L70.1043 69.8549L74.5467 70.5744H78.9263L81.4218 69.4939L81.184 70.7173L79.4463 71.2212L69.9685 70.8134L69.2969 69.6497L69.4119 67.5977Z" fill="#7F6660"/>
<path d="M3.47656 87.3262L4.7387 90.3809L6.73513 91.0744L13.7854 90.7679L14.8202 90.0458L15.3193 87.3262L15.5832 89.9549L15.2487 91.3835L4.58976 91.8589L3.75617 90.9211L3.47656 87.3262Z" fill="#7F6660"/>
<path d="M63.262 17.7383L60.918 22.9281L60.607 24.6087L61.4876 27.1829L62.2533 28.4713L59.3501 25.4971L59.0156 23.6814L63.262 17.7383Z" fill="#7F6660"/>
<g style="mix-blend-mode:multiply" opacity="0.35">
<path d="M16.1356 95.6172L17.1913 96.2224L19.6372 95.9211L19.6581 96.1835L17.45 96.6406H16.0703L16.1356 95.6172Z" fill="#7F6660"/>
</g>
<g style="mix-blend-mode:multiply" opacity="0.35">
<path d="M15.3125 87.3262L16.4623 89.5912L19.6555 89.3444V90.064L16.5694 90.3809L15.5764 89.9549L15.3125 87.3262Z" fill="#7F6660"/>
</g>
<g style="mix-blend-mode:multiply" opacity="0.35">
<path d="M13.5078 68.4756L15.58 69.512L17.762 69.3536V69.9458L15.2455 70.1874L13.5731 69.6497L13.5078 68.4756Z" fill="#7F6660"/>
</g>
<g style="mix-blend-mode:multiply" opacity="0.35">
<path d="M12.625 56.0186L13.5082 57.7979H15.7973H17.002V58.481L14.9193 58.5745L12.7661 58.4498L12.625 56.0186Z" fill="#7F6660"/>
</g>
<g style="mix-blend-mode:multiply" opacity="0.35">
<path d="M12.7631 39.5234L13.0375 40.3962L15.6323 41.0794L15.3606 41.7573L11.9688 41.0144L12.7631 39.5234Z" fill="#7F6660"/>
</g>
<g style="mix-blend-mode:multiply" opacity="0.35">
<path d="M18.937 30.1914L17.9179 32.1136L18.4719 33.2565L19.7654 34.0254L19.4074 34.3994L17.6592 33.4305L16.7969 32.3837L18.937 30.1914Z" fill="#7F6660"/>
</g>
<g style="mix-blend-mode:multiply" opacity="0.35">
<path d="M27.8221 22.1934L26.168 24.3233L27.6157 27.0118L26.8918 27.3806L25.5487 25.4974L25.0312 23.6817L27.8221 22.1934Z" fill="#7F6660"/>
</g>
<g style="mix-blend-mode:multiply" opacity="0.35">
<path d="M39.2232 17.7383L36.3854 18.9877V20.4735L36.8792 23.1048L36.1554 23.2944L35.6406 20.0501L35.7765 18.4058L39.2232 17.7383Z" fill="#7F6660"/>
</g>
<g style="mix-blend-mode:multiply" opacity="0.35">
<path d="M48.6435 23.4351L49.2576 20.518L50.1382 20.0037L51.7688 20.4479L49.3699 19.1699L48.3874 20.3258L47.8125 23.1234L48.6435 23.4351Z" fill="#7F6660"/>
</g>
<g style="mix-blend-mode:multiply" opacity="0.35">
<path d="M56.0737 22.7441L57.835 23.6818L57.3176 25.4975L56.0999 26.9885L55.0781 26.3547L56.8132 25.0871L57.2026 23.6818L56.0737 22.7441Z" fill="#7F6660"/>
</g>
<g style="mix-blend-mode:multiply" opacity="0.35">
<path d="M58.5924 28.7232L59.3894 27.1829H60.7352L62.0182 28.2245L59.3555 25.4971L58.3651 26.2581L57.4609 27.9361L58.5924 28.7232Z" fill="#7F6660"/>
</g>
<g style="mix-blend-mode:multiply" opacity="0.35">
<path d="M62.8125 32.9209H64.6757L65.2819 32.3832L63.6043 29.8506L66.0737 32.3832L65.214 33.43L63.7715 34.204L62.8125 32.9209Z" fill="#7F6660"/>
</g>
<g style="mix-blend-mode:multiply" opacity="0.35">
<path d="M69.6746 38.708L70.1058 40.5341L68.6503 40.9055L67.3594 40.9341L67.7618 41.7575L70.9002 41.0146L69.6746 38.708Z" fill="#7F6660"/>
</g>
<g style="mix-blend-mode:multiply" opacity="0.35">
<path d="M66.8076 57.3512L68.0462 57.9694H69.4939L70.2151 56.4316L70.0976 58.4499L67.9443 58.5746L66.7109 58.5434L66.8076 57.3512Z" fill="#7F6660"/>
</g>
<g style="mix-blend-mode:multiply" opacity="0.35">
<path d="M69.4057 67.5977L68.6426 69.0315L67.5896 69.4081L65.8414 69.1718L65.7734 70.0004L67.6183 70.1874L69.2907 69.6497L69.4057 67.5977Z" fill="#7F6660"/>
</g>
<g style="mix-blend-mode:multiply" opacity="0.35">
<path d="M67.5026 87.8408L66.3162 89.4747L63.8336 89.1396L63.7188 89.9942L66.2978 90.3812L67.2909 89.9552L67.5026 87.8408Z" fill="#7F6660"/>
</g>
<g style="mix-blend-mode:multiply" opacity="0.35">
<path d="M63.42 95.6172L65.6098 96.2224L66.7962 95.986V96.6406H65.419L63.2109 96.1835L63.42 95.6172Z" fill="#7F6660"/>
</g>
<g style="mix-blend-mode:multiply" opacity="0.35">
<path d="M63.2119 100.869L65.42 102.669L66.3163 102.635L66.1543 104.046L62.9375 101.298L63.2119 100.869Z" fill="#7F6660"/>
</g>
<g style="mix-blend-mode:multiply" opacity="0.35">
<path d="M16.5391 102.018L17.1897 102.602L19.6565 101.044L19.6043 101.34L16.6906 103.771L16.5391 102.018Z" fill="#7F6660"/>
</g>
<path d="M41.4298 23.5439C52.2142 23.5439 64.198 32.4222 66.7275 42.8851L62.0527 100.031H20.807L16.1426 42.8851C18.6721 32.4222 30.6559 23.5439 41.4403 23.5439H41.4298ZM41.4298 22.2451C35.9684 22.2451 29.9321 24.4374 24.894 28.2558C19.7095 32.1807 16.1452 37.2692 14.8622 42.5812L14.8125 42.7838L14.8308 42.989L19.5031 100.135L19.6024 101.329H63.2573L63.3566 100.135L68.0289 42.989L68.0472 42.7838L67.9975 42.5812C66.7145 37.2692 63.1502 32.191 57.9657 28.2558C52.9171 24.4374 46.8913 22.2451 41.4298 22.2451Z" fill="url(#paint0_linear_3207_3838)"/>
<g style="mix-blend-mode:multiply" opacity="0.45">
<path d="M59.8429 101.339L62.4403 45.7234C58.0633 36.8685 36.5991 26.5719 19.1016 34.2035C24.2233 27.6707 31.77 22.3484 41.8854 22.3614C50.1403 22.3743 63.7678 28.2577 68.035 42.9883C66.8434 56.2902 63.2634 101.339 63.2634 101.339L66.151 104.043L59.8429 101.339Z" fill="#73377F"/>
</g>
</g>
</g>
<defs>
<linearGradient id="paint0_linear_3207_3838" x1="41.4298" y1="101.34" x2="41.4298" y2="22.2451" gradientUnits="userSpaceOnUse">
<stop stop-color="#423742"/>
<stop offset="1" stop-color="#3B2438"/>
</linearGradient>
<clipPath id="clip0_3207_3838">
<rect width="83" height="115" fill="white"/>
</clipPath>
</defs>
</svg>
