<svg width="117" height="123" viewBox="0 0 117 123" fill="none" xmlns="http://www.w3.org/2000/svg">
<path d="M11.02 87.3434C10.9768 87.5986 11.2472 88.2473 11.9966 89.5503C11.7628 88.6365 11.3785 87.6526 11.7905 87.5732C11.3558 87.2643 11.0571 87.0921 11.02 87.3434Z" fill="white"/>
<path d="M11.9303 87.5367C11.8539 87.5151 11.8386 87.5642 11.7891 87.5731C11.9548 87.6929 12.135 87.8194 12.3345 87.9777C12.2002 87.8287 12.099 87.6963 11.9303 87.5367Z" fill="white"/>
<path d="M54.9802 8.27588C54.9817 8.20346 54.9674 8.13591 54.9375 8.07324C54.9496 8.1429 54.9631 8.21087 54.9802 8.27588Z" fill="white"/>
<path d="M62.4817 5.95262C61.6776 5.82431 60.8681 5.65578 60.0534 5.57935L58.827 5.436L58.2109 5.36423C58.0051 5.33903 57.8001 5.33395 57.5939 5.31786C58.1112 5.06675 58.8336 4.96173 59.6307 4.85353C60.0294 4.80462 60.4472 4.75485 60.8688 4.7197C61.291 4.69578 61.7161 4.67187 62.1292 4.64837C62.5433 4.62063 62.946 4.58632 63.3233 4.53847C63.7009 4.48977 64.0511 4.45992 64.3628 4.38856C64.9853 4.25475 65.4506 4.02968 65.6378 3.64941C65.1739 3.7322 64.6971 3.80099 64.2086 3.85753C63.9653 3.88378 63.7182 3.91068 63.4678 3.93778C63.2175 3.9725 62.9649 4.00449 62.7093 4.03413C62.1988 4.09342 61.6784 4.14296 61.1497 4.18425C61.0176 4.19462 60.8851 4.20499 60.7519 4.21557C60.6189 4.23103 60.4851 4.24669 60.3509 4.26215C60.083 4.29052 59.8128 4.31932 59.541 4.34811C58.9979 4.4057 58.4476 4.44276 57.8944 4.50226C57.3422 4.5698 56.7847 4.63797 56.2244 4.70657C55.9447 4.73855 55.6642 4.77052 55.3834 4.80249L54.5447 4.93673C53.986 5.02608 53.4266 5.11544 52.8689 5.20437C52.3137 5.30621 51.7651 5.43451 51.2193 5.54991C50.6747 5.67229 50.1312 5.77689 49.6069 5.93887C48.5542 6.24143 47.5267 6.53002 46.5792 6.92828C46.1026 7.11651 45.64 7.30878 45.1945 7.50569C44.7558 7.72462 44.3346 7.94905 43.9336 8.17751C43.5336 8.40914 43.1496 8.63273 42.7972 8.88448C42.4473 9.14258 42.1205 9.40512 41.8203 9.67297C42.169 9.5887 42.522 9.48832 42.8796 9.37462C43.2355 9.25648 43.6096 9.16375 43.9808 9.0401C44.728 8.80761 45.4845 8.50844 46.2806 8.27575C47.0729 8.03204 47.8712 7.74132 48.6991 7.55182C49.5235 7.35068 50.3476 7.12668 51.1846 7.03288C51.574 7.10508 52.0084 7.16013 52.4397 7.21518C52.6555 7.24376 52.8697 7.26813 53.0783 7.30264C53.2879 7.34287 53.4905 7.38499 53.6804 7.43115C54.301 7.58169 54.7819 7.77373 54.9248 8.07291C54.8725 7.77246 54.845 7.43751 54.6438 7.12965C57.1994 6.54908 59.8228 6.12094 62.4817 5.95262Z" fill="white"/>
<path d="M65.0195 1.83077C65.4493 1.82908 65.906 1.80259 66.427 1.80831C66.9466 1.82885 67.5295 1.90106 68.2084 2.05796C67.9854 1.55277 67.755 1.04671 67.5174 0.540039C66.6576 0.577939 65.798 0.695457 64.9475 0.790101L63.6766 0.941068L62.4141 1.15174C62.9129 1.45367 63.3482 1.61226 63.7675 1.70521C64.1863 1.80959 64.5896 1.83246 65.0195 1.83077Z" fill="white"/>
<path d="M67.1836 5.69254L66.2069 5.59663C65.8804 5.57419 65.5531 5.56381 65.2266 5.54688L65.946 5.88246C66.1848 5.99023 66.4195 6.1264 66.6545 6.24666L67.8895 6.06478C68.3033 6.00804 68.7222 5.93349 69.1372 5.90342C68.8144 5.84837 68.4875 5.82043 68.1614 5.78867L67.1836 5.69254Z" fill="white"/>
<path d="M20.2754 20.5049C18.2902 23.1674 16.564 25.9855 15.1172 28.9087L15.6383 28.5079C16.9402 25.7471 18.4899 23.0651 20.2754 20.5049Z" fill="white"/>
<path d="M9.74299 89.4426C9.49209 89.1995 9.25005 88.9298 9.04298 88.6363C8.61676 88.0562 8.21471 87.4548 7.6875 87.0498L9.1874 88.9321L10.7673 90.7318L10.5867 90.031C10.2727 89.8902 9.99686 89.684 9.74299 89.4426Z" fill="white"/>
<path d="M45.631 121.273C45.5874 121.307 45.5445 121.339 45.5 121.375C45.5525 121.344 45.5944 121.309 45.631 121.273Z" fill="white"/>
<path d="M47.8509 120.227C47.6997 120.03 47.5021 119.765 47.258 119.409C45.7581 119.286 45.569 119.611 45.6366 120.054C45.6954 120.453 45.9662 120.946 45.6306 121.273C46.8136 120.362 47.6749 120.573 48.0493 120.676C48.2411 120.729 48.2938 120.764 48.1702 120.614C48.1088 120.538 48.0023 120.421 47.8509 120.227Z" fill="white"/>
<path d="M55.1347 119.337C54.8506 119.38 54.5874 119.447 54.3356 119.506C54.0841 119.565 53.8429 119.631 53.6016 119.698C53.8626 119.874 54.0966 120.009 54.3073 120.108C54.5182 120.203 54.7068 120.254 54.8764 120.284C55.216 120.339 55.4824 120.286 55.72 120.178C56.1957 119.962 56.5582 119.53 57.1894 119.321C56.3568 119.221 55.7034 119.247 55.1347 119.337Z" fill="white"/>
<path d="M24.6356 43.8125C24.4488 44.0067 24.2993 44.2175 24.1609 44.4299C24.0849 44.5464 24.0137 44.6639 23.9453 44.7814C24.0423 44.68 24.1473 44.55 24.2498 44.4077C24.3866 44.2146 24.5202 44.0007 24.6356 43.8125Z" fill="white"/>
<path d="M30.9535 35.1556C32.5036 33.4729 35.0531 31.0863 34.9229 29.9785C33.7579 30.5087 33.2709 31.0649 32.984 31.5631C32.7018 32.0694 32.6323 32.5443 32.4064 33.0882C32.1081 33.2856 31.5489 33.7891 31.0966 34.1172C30.8559 34.2983 30.6505 34.4313 30.5307 34.4319C30.4705 34.8661 30.3122 35.5183 30.9535 35.1556Z" fill="white"/>
<path d="M30.4457 34.0962C30.392 34.3391 30.4324 34.4329 30.5338 34.4324C30.5632 34.2197 30.5692 34.0589 30.4457 34.0962Z" fill="white"/>
<path d="M37.6052 28.2177L37.1297 27.8044C37.1002 27.9251 37.0956 28.3363 36.8735 28.883C36.7636 29.158 36.594 29.4599 36.3484 29.7898C36.1089 30.1277 35.7861 30.4839 35.3438 30.844C35.948 30.6333 36.2305 30.3581 36.4977 30.0536C36.7672 29.7538 37.0369 29.4443 37.5754 29.1544C37.8332 28.587 38.0909 28.0028 38.3867 27.4531L37.9883 27.8264C37.8581 27.9537 37.7329 28.0877 37.6052 28.2177Z" fill="white"/>
<path d="M35.4141 25.4185C35.4291 25.4257 35.4401 25.434 35.4541 25.4414C35.4899 25.4111 35.5246 25.3813 35.561 25.3506C35.5121 25.373 35.4651 25.3961 35.4141 25.4185Z" fill="white"/>
<path d="M36.4503 24.8925C36.7596 24.7117 37.0355 24.5163 37.3063 24.299C37.579 24.0848 37.8382 23.836 38.1357 23.5821C38.4347 23.328 38.7594 23.0519 39.1295 22.7373C38.0092 23.4777 36.6963 24.4356 35.6123 25.3018C35.5926 25.3185 35.5742 25.3342 35.5547 25.3509C35.6951 25.2855 35.8301 25.2194 35.9574 25.1536C36.1327 25.0695 36.2957 24.9827 36.4503 24.8925Z" fill="white"/>
<path d="M42.1215 25.6167L41.7342 25.8229L40.1797 26.6514L41.0469 26.4092L42.1636 25.7044L43.3129 25.0537L42.5189 25.4285L42.1215 25.6167Z" fill="white"/>
<path d="M49.5054 21.9741C48.7872 22.0177 48.2699 22.0391 47.9297 22.9362C48.1376 22.7372 48.4146 22.5699 48.7514 22.4711C49.0853 22.3648 49.4624 22.2883 49.8499 22.2148C50.2389 22.1452 50.632 22.062 51.0165 21.9832C51.4015 21.9055 51.7669 21.8022 52.086 21.6427L52.4756 21.0234C51.8128 21.4598 51.2526 21.6787 50.7614 21.7916C50.2791 21.9269 49.866 21.9525 49.5054 21.9741Z" fill="white"/>
<path d="M56.8193 19.198C56.4024 19.4231 55.9158 19.6077 55.3988 19.7701C54.8826 19.9361 54.3461 20.1205 53.8144 20.2785C53.5495 20.3608 53.2872 20.4424 53.032 20.5218C52.7765 20.5997 52.5376 20.7056 52.3075 20.7985C51.8495 20.9914 51.4453 21.1927 51.1406 21.4153C51.7801 21.0951 51.9765 21.1392 52.4858 21.0244C53.8673 20.7831 55.4157 20.2798 56.9224 19.9675C57.6686 19.7835 58.4115 19.6996 59.0918 19.6602C59.4322 19.6429 59.7584 19.6435 60.0649 19.6683C60.3734 19.706 60.6626 19.7708 60.9267 19.8622C60.6546 19.6092 60.8985 19.2814 60.9098 19.0335C60.9148 18.9096 60.8606 18.8059 60.6495 18.742C60.4395 18.6844 60.0677 18.6371 59.4518 18.7138C59.1221 19.0835 58.255 19.2319 58.4623 19.5626C57.4115 19.634 57.5404 19.1978 56.8193 19.198Z" fill="white"/>
<path d="M49.5639 17.5371C49.3219 17.6963 49.3674 17.751 49.5588 17.7558C49.5693 17.6868 49.573 17.6144 49.5639 17.5371Z" fill="white"/>
<path d="M49.606 19.2759C49.974 19.1095 50.3863 18.952 50.8362 18.7443C50.4185 18.859 49.995 18.9596 49.5804 19.0871L48.3394 19.4828C48.4703 19.2662 48.7219 19.0826 49.0278 18.9187C49.1807 18.8368 49.3473 18.7599 49.5192 18.6862C49.6913 18.6128 49.8738 18.5567 50.0509 18.4942C50.7621 18.2516 51.4284 18.032 51.5468 17.6943C51.3658 17.4832 50.0219 17.7684 49.5541 17.7561C49.4654 18.3291 48.7509 18.6384 48.1923 18.8963C47.5707 19.1845 47.162 19.4123 48.0606 19.899C48.2304 19.8381 48.4036 19.7745 48.5849 19.704C48.901 19.5812 49.2376 19.4415 49.606 19.2759Z" fill="white"/>
<path d="M48.0647 19.8994C47.6425 20.051 47.2499 20.1827 46.8673 20.3362C46.7017 20.3989 46.5353 20.4622 46.3672 20.527C46.4271 20.5234 46.4926 20.5156 46.5663 20.5012C46.7221 20.4709 46.9133 20.4133 47.1584 20.3153C47.2817 20.2676 47.4159 20.2037 47.5709 20.1391C47.7261 20.0754 47.8978 20.0004 48.0884 19.913C48.0797 19.9083 48.0731 19.9041 48.0647 19.8994Z" fill="white"/>
<path d="M45.9095 20.4654C45.5584 20.3758 45.1555 20.2445 43.5817 21.1105L43.0469 22.2465C43.8762 21.7131 44.5599 21.3286 45.1669 21.0231C45.5976 20.8302 45.9895 20.6733 46.37 20.5266C46.1767 20.5382 46.045 20.5022 45.9095 20.4654Z" fill="white"/>
<path d="M59.2037 16.3859C59.0002 16.3639 58.772 16.3537 58.5312 16.3571C58.7203 16.373 58.9477 16.3802 59.2037 16.3859Z" fill="white"/>
<path d="M60.2843 16.414C59.8873 16.3986 59.5256 16.3937 59.2088 16.3867C59.5552 16.4244 59.8296 16.4972 59.9673 16.6008C60.0759 16.6785 60.0979 16.7666 60.0024 16.8593C59.9069 16.9527 59.6927 17.0433 59.334 17.1623L57.9971 16.6584L57.2455 17.0626C56.996 17.1953 56.753 17.3528 56.5084 17.4966L55.0625 18.3749C55.6134 18.0666 56.2243 17.8803 56.8269 17.7543C56.9778 17.7242 57.1271 17.692 57.277 17.673C57.4275 17.6573 57.5762 17.6416 57.7225 17.6264C58.0153 17.6018 58.2982 17.5781 58.5656 17.5557C59.1002 17.5142 59.5663 17.4469 59.9222 17.3353C60.2781 17.2228 60.5197 17.0283 60.5959 16.6814L61.89 16.9939L61.1542 16.4185C60.8529 16.4204 60.5595 16.4197 60.2843 16.414Z" fill="white"/>
<path d="M69.0516 15.8825C69.1401 15.892 69.1968 15.8969 69.2315 15.8986C69.2444 15.8982 69.258 15.8973 69.2709 15.8971C69.2758 15.8696 67.4553 15.6062 67.4297 15.8613C67.9702 15.8577 68.5108 15.8776 69.0516 15.8825Z" fill="white"/>
<path d="M63.1936 16.2786C62.8667 16.2714 62.5315 16.2733 62.1885 16.2858C61.847 16.3144 61.4978 16.3548 61.1406 16.4071L61.1542 16.4177C61.2448 16.4171 61.3329 16.4175 61.4254 16.416C61.8243 16.4105 62.238 16.3902 62.6604 16.397C63.082 16.3951 63.5092 16.3847 63.9323 16.3637C64.0595 16.3584 64.1853 16.3483 64.3115 16.3396C64.2581 16.3351 64.2048 16.3307 64.1508 16.326C63.8398 16.3021 63.5207 16.2858 63.1936 16.2786Z" fill="white"/>
<path d="M54.3355 17.305L53.2578 17.6291C53.7831 17.5241 54.17 17.4292 54.4539 17.3416C54.7395 17.2607 54.9242 17.1944 55.037 17.1233C55.0387 17.1222 55.0398 17.1212 55.0415 17.1201C54.805 17.1775 54.5689 17.2353 54.3355 17.305Z" fill="white"/>
<path d="M56.5165 16.7553C56.699 16.7117 56.8805 16.6624 57.0641 16.6234L57.6165 16.5152C57.3474 16.3361 57.0738 16.1517 56.7996 15.9785C54.8296 16.2324 55.006 16.4722 55.1401 16.7261C55.2061 16.8523 55.2597 16.9829 55.0391 17.1208C55.1672 17.0897 55.2955 17.059 55.4231 17.0259L56.5165 16.7553Z" fill="white"/>
<path d="M87.5842 22.1301C88.3123 22.1981 88.3462 21.9735 87.9979 21.6576C87.8241 21.4998 87.5556 21.3194 87.2344 21.1435C87.0752 21.0524 86.899 20.9713 86.7131 20.9C86.5281 20.8263 86.3354 20.7573 86.1406 20.6963C86.4781 20.8407 86.7671 20.9866 87.0002 21.135C87.2297 21.2917 87.4068 21.4422 87.5287 21.5771C87.7728 21.8473 87.7961 22.055 87.5842 22.1301Z" fill="white"/>
<path d="M100.044 35.3574C99.9793 35.62 100.147 36.0388 100.997 36.6678C100.933 36.3928 100.552 35.9189 100.044 35.3574Z" fill="white"/>
<path d="M69.4702 19.0181C69.1082 19.0005 68.7641 18.9836 68.3984 18.9658C68.7423 19.0046 69.1196 19.0134 69.4702 19.0181Z" fill="white"/>
<path d="M69.4609 19.0186C69.6934 19.0296 69.9299 19.0368 70.1597 19.0654C69.9579 19.0332 69.7235 19.0224 69.4609 19.0186Z" fill="white"/>
<path d="M90.5234 27.0605C90.5721 27.1327 90.6251 27.1863 90.6772 27.2521C90.6795 27.2521 90.6795 27.2522 90.6859 27.2558L90.5234 27.0605Z" fill="white"/>
<path d="M30.4497 31.926C30.4241 31.9743 30.3945 32.0074 30.3672 32.0539C30.5353 31.8333 30.6064 31.7147 30.4497 31.926Z" fill="white"/>
<path d="M88.4656 113.569C87.8139 113.785 87.2905 114.082 87.2422 114.542C87.6068 114.478 88.0877 114.171 88.635 113.854C88.9083 113.694 89.1973 113.528 89.4963 113.382C89.7082 113.271 89.923 113.166 90.1412 113.079C89.9414 113.147 89.7203 113.214 89.4895 113.282C89.1478 113.368 88.791 113.46 88.4656 113.569Z" fill="white"/>
<path d="M90.1328 113.079C90.2236 113.048 90.3115 113.017 90.3915 112.986C90.3047 113.013 90.2186 113.045 90.1328 113.079Z" fill="white"/>
<path d="M88.502 117.313L88.4599 117.172C88.3229 117.282 88.1332 117.412 87.9219 117.55C88.1184 117.481 88.3117 117.405 88.502 117.313Z" fill="white"/>
<path d="M88.3516 116.818L88.4627 117.172C88.743 116.927 88.8066 116.77 88.3516 116.818Z" fill="white"/>
<path d="M83.6875 118.934C84.495 118.685 85.3055 118.439 86.1124 118.182C86.2484 118.685 86.3127 118.935 84.7897 119.385C85.0025 119.423 85.423 119.257 85.8789 119.038C86.339 118.829 86.8145 118.515 87.1719 118.327L86.6064 118.49C86.8755 118.222 87.4502 117.865 87.9257 117.55C86.8558 117.93 85.815 117.984 85.0273 118.042C84.2441 118.117 83.7307 118.273 83.6875 118.934Z" fill="white"/>
<path d="M82.7075 118.951L81.5499 119.646C81.3553 119.761 81.1611 119.88 80.964 119.992L80.3672 120.311C80.6056 120.253 80.9327 120.19 81.2647 120.079C81.5975 119.972 81.9433 119.848 82.2311 119.718C82.8074 119.458 83.1481 119.176 82.7075 118.951Z" fill="white"/>
<path d="M78.4151 119.655C78.3933 119.702 78.2148 119.777 77.9662 119.842C77.4708 119.98 76.7098 120.15 76.4297 120.303C77.9027 120.259 78.2135 120.109 78.3488 119.898C78.4856 119.689 78.4602 119.44 79.2631 119.169C78.7621 119.276 78.2898 119.372 77.9133 119.576C78.302 119.592 78.4358 119.603 78.4151 119.655Z" fill="white"/>
<path d="M79.9705 118.973C79.6787 119.039 79.4651 119.105 79.2734 119.17C79.5038 119.118 79.7416 119.058 79.9705 118.973Z" fill="white"/>
<path d="M100.791 104.729L100.496 104.629C100.457 104.776 100.506 104.849 100.791 104.729Z" fill="white"/>
<path d="M71.2427 120.16L71.0553 120.133C70.8136 120.17 70.5626 120.205 70.2891 120.225L71.2427 120.16Z" fill="white"/>
<path d="M113.555 81.8141C113.562 81.8079 113.568 81.8065 113.575 81.8014C113.571 81.7994 113.565 81.8019 113.555 81.8141Z" fill="white"/>
<path d="M62.1196 121.107L62.055 121.063C62.0516 121.081 62.0753 121.095 62.1196 121.107Z" fill="white"/>
<path d="M116.975 65.0264C116.775 63.8534 116.582 64.0258 116.418 64.3296C116.249 64.6351 116.087 65.0722 115.893 64.4787C116.285 63.8223 116.388 62.9876 116.302 62.0819C116.248 61.6298 116.155 61.1591 116.046 60.6802C115.991 60.4407 115.932 60.1991 115.871 59.9565C115.805 59.7147 115.725 59.474 115.652 59.2322C115.504 58.7492 115.359 58.2665 115.238 57.7898C115.193 57.5972 115.14 57.4087 115.091 57.2211C115.337 56.6543 115.579 55.9076 115.81 55.1953L115.275 54.7924L114.898 54.5241C114.942 54.28 115.008 54.0397 115.108 53.804C114.565 52.0581 113.902 50.2865 113.127 48.5281C113.321 48.4817 113.514 48.4874 113.707 48.5897L112.973 47.5683C112.731 47.2314 112.49 46.8982 112.222 46.5742C112.217 46.5685 112.213 46.5628 112.208 46.557C112.075 46.2877 111.941 46.0188 111.803 45.751C110.881 43.9576 109.833 42.206 108.691 40.5229C108.846 40.619 109.002 40.7232 109.15 40.8062C109.536 41.0243 109.851 41.0967 109.869 40.46C109.771 40.1189 109.68 39.835 109.565 39.6139C109.451 39.3925 109.337 39.225 109.226 39.1043C109.004 38.8627 108.793 38.8079 108.61 38.8756C108.37 38.9656 108.179 39.2663 108.075 39.6347C107.72 39.1331 107.358 38.6366 106.986 38.1496C105.171 35.7672 103.176 33.5728 101.123 31.6162C99.0714 29.6571 96.9634 27.9365 94.9445 26.433C95.0525 26.5749 95.1545 26.7246 95.2593 26.8696C95.113 26.8137 94.9523 26.7231 94.7719 26.6259C94.5911 26.5294 94.3991 26.414 94.2045 26.2867C93.8156 26.0324 93.4167 25.7313 93.0796 25.441C92.5488 25.0066 92.1581 24.6096 92.2104 24.4389L91.4543 24.8454C90.6102 24.4387 90.3442 24.1918 90.3819 23.9723C90.4194 23.754 90.7573 23.5793 91.0897 23.3957C91.4232 23.2081 91.7399 23.0322 91.7372 22.7586C91.7357 22.4836 91.3872 22.1503 90.387 21.6748C91.297 22.3906 91.1759 22.7914 90.6673 22.9113C90.4128 22.971 90.0613 22.9608 89.6881 22.8818C89.3137 22.8046 88.9229 22.647 88.5625 22.4552C88.6919 22.6257 88.619 22.9865 88.6127 23.3443C88.6042 23.7074 88.6603 24.0669 89.0535 24.235C89.5996 24.819 90.1488 25.3703 90.6504 25.9844C90.8187 25.728 91.1264 25.6822 91.5113 25.7735C91.893 25.8692 92.3652 26.0782 92.8137 26.397C93.2685 26.7057 93.7294 27.0741 94.1332 27.4218C94.5323 27.7769 94.8586 28.1341 95.0824 28.3742C94.8524 28.3964 94.5994 28.3996 94.3356 28.3708C94.0705 28.3437 93.8014 28.2742 93.5162 28.1836C92.9515 27.9922 92.3909 27.6185 91.8984 26.9384C91.495 26.7544 91.1007 26.5613 90.7137 26.3595C90.3241 26.1626 89.9534 25.9346 89.5634 25.7445C89.1782 25.545 88.7984 25.3371 88.4219 25.1213L87.8589 24.7936L87.6064 24.6566C87.6798 24.7995 87.7492 24.9429 87.8214 25.0854C88.0006 25.4665 88.1979 25.8459 88.5286 26.2158C88.8585 26.5876 89.3292 26.9325 90.0218 27.3257C89.329 26.7563 89.6377 26.8019 89.9883 26.8609C90.3375 26.9192 90.7293 26.9909 90.1691 26.4557C90.6006 26.5764 91.0019 26.8215 91.4012 27.1358C91.5007 27.2149 91.6019 27.2954 91.7002 27.3852C91.7957 27.4788 91.893 27.574 91.9921 27.6712C92.1859 27.8694 92.3868 28.0748 92.5954 28.2878C92.8031 28.5 93.0186 28.7165 93.2473 28.9316C93.4709 29.1542 93.7006 29.3854 93.9524 29.6041C94.4531 30.0458 95.036 30.4455 95.7017 30.8334C94.7622 30.2637 95.4256 30.0729 95.9727 30.3145C96.3161 30.7011 96.7523 31.0924 97.2122 31.5156C97.664 31.9482 98.1594 32.3882 98.6621 32.8207C99.1474 33.2726 99.6329 33.7246 100.09 34.15C100.323 34.3583 100.532 34.5764 100.73 34.7856C100.929 34.9938 101.116 35.193 101.286 35.3808C101.323 35.2279 101.435 35.1263 101.545 35.0704C101.799 35.4502 102.025 35.746 102.203 36.0353C102.384 36.3219 102.543 36.5769 102.7 36.8409C102.857 37.1049 103.012 37.3779 103.182 37.6991C103.348 38.0228 103.509 38.4117 103.708 38.8803C104.649 40.4852 105.65 42.2199 106.658 44.0163C106.898 44.4721 107.145 44.9288 107.396 45.3855C107.527 45.611 107.635 45.8494 107.751 46.0836C107.867 46.3182 107.983 46.553 108.099 46.7883L108.451 47.4921C108.567 47.7273 108.665 47.9712 108.774 48.21C108.986 48.6896 109.198 49.1684 109.409 49.6454C109.595 50.1324 109.781 50.6174 109.965 51.0987C110.053 51.3405 110.154 51.5768 110.231 51.8207C110.308 52.0644 110.384 52.3068 110.461 52.548C110.608 53.0318 110.768 53.5059 110.893 53.9829C111.009 54.4625 111.121 54.9359 111.225 55.4013C111.275 55.6346 111.332 55.8635 111.372 56.0945C111.406 56.3264 111.44 56.5559 111.474 56.7831C111.539 57.2372 111.596 57.6819 111.643 58.1151C111.702 58.9885 111.708 59.8193 111.666 60.5881C111.65 60.6535 111.634 60.7118 111.618 60.7647C111.562 60.582 111.504 60.3973 111.449 60.2161C111.135 59.3243 110.845 58.4521 110.632 57.6145C110.486 58.6404 110.438 59.4285 110.447 60.1049C110.426 60.7793 110.456 61.3406 110.507 61.9051C110.533 62.1882 110.558 62.4704 110.586 62.767C110.597 63.0626 110.605 63.3728 110.605 63.7116C110.596 64.3874 110.59 65.184 110.392 66.1835C110.262 66.5494 110.115 66.8804 109.954 67.1825C109.873 67.3337 109.789 67.4774 109.702 67.6151C109.614 67.7525 109.511 67.8812 109.412 68.0057C109.01 68.5031 108.57 68.9142 108.112 69.2968C107.666 69.6824 107.158 70.0279 106.666 70.4053C106.168 70.7809 105.698 71.1923 105.215 71.6778C105.871 71.4525 106.491 71.2009 107.138 70.9422C107.158 71.4629 107.166 71.9011 107.116 72.2564C107.069 72.6128 107.003 72.8986 106.927 73.1338C106.774 73.6049 106.579 73.8738 106.403 74.1192C106.231 74.3661 106.048 74.5789 105.954 74.9581C105.854 75.3361 105.836 75.8745 105.92 76.7729L103.533 75.6232C103.941 76.3687 103.606 77.2668 103.036 78.0399C102.732 78.4178 102.373 78.7659 102.023 79.0575C101.67 79.348 101.338 79.5889 101.045 79.7367C101.417 80.3128 101.783 80.9006 102.143 81.4998C101.884 81.7041 101.637 81.8997 101.4 82.0863C101.165 82.2709 100.924 82.4341 100.703 82.5923C100.256 82.9057 99.8478 83.1735 99.4546 83.3821C99.2613 83.4884 99.06 83.5722 98.859 83.6389C98.6592 83.7062 98.4603 83.7571 98.26 83.7895C97.8592 83.8542 97.4517 83.8449 97.0136 83.7458L98.5071 84.5366C98.1571 84.5644 97.6852 85.0672 97.0824 85.6813C96.7877 85.9934 96.4764 86.3457 96.1609 86.7024C95.8293 87.0459 95.4863 87.388 95.1573 87.702C94.5117 88.3417 93.8369 88.7922 93.3599 88.8657C92.8759 88.9364 92.5659 88.5973 92.5124 87.619C92.4241 87.9868 92.4306 88.4319 92.3129 88.9047C92.1922 89.3732 91.9191 89.8454 91.3235 90.2875L90.0268 89.2155C89.9523 89.3235 89.8774 89.4321 89.802 89.5414L89.5572 89.8511C89.3923 90.0567 89.2244 90.2604 89.0552 90.4575C88.886 90.6546 88.7156 90.8456 88.5453 91.0254C88.3783 91.2092 88.1911 91.3567 88.0177 91.5033C87.311 92.0737 86.6573 92.4156 86.1305 92.1918C86.2133 92.0722 86.2836 91.9555 86.3425 91.841C86.3973 91.7211 86.4414 91.604 86.4761 91.4895C86.5455 91.2606 86.5773 91.0417 86.5837 90.8295C86.5966 90.4052 86.5083 90.008 86.4158 89.6144C85.9991 89.9168 85.6446 90.2041 85.3423 90.4783C85.0264 90.734 84.7628 90.9767 84.5453 91.2115C84.3277 91.4461 84.1553 91.6716 84.0205 91.8895C83.8847 92.1061 83.7753 92.2985 83.7037 92.4961C83.4107 93.2774 83.6149 93.9763 83.8502 94.6706C83.9675 95.018 84.0918 95.365 84.1598 95.7256C84.1934 95.9056 84.2138 96.0904 84.2104 96.278C84.2049 96.4622 84.1761 96.6511 84.1159 96.8459C83.9957 97.2355 83.7484 97.6496 83.308 98.1019C83.1979 98.215 83.0757 98.3303 82.9406 98.4485C82.8017 98.5594 82.6482 98.67 82.481 98.7841C82.1464 99.0115 81.7547 99.2474 81.2991 99.4928L80.9046 98.476C80.6888 98.8114 80.4574 99.1235 80.2219 99.4379L79.5071 100.393L78.872 100.305C78.6594 100.271 78.4449 100.229 78.2336 100.19L76.9791 99.9482C76.8935 100.231 76.7746 100.495 76.6257 100.741C76.4743 100.981 76.2899 101.194 76.0809 101.396C75.6606 101.794 75.1419 102.149 74.5397 102.423C73.9331 102.683 73.2539 102.896 72.5335 103.081C71.8029 103.225 71.0307 103.34 70.2452 103.446C69.4541 103.507 68.6472 103.568 67.8429 103.63C67.036 103.652 66.2396 103.696 65.4675 103.766C64.691 103.8 63.9409 103.875 63.229 104.017C62.5146 104.122 61.8381 104.287 61.2103 104.551C61.0867 104.573 60.9601 104.586 60.8312 104.591C60.7022 104.592 60.5705 104.577 60.4362 104.559C60.168 104.522 59.8898 104.454 59.6018 104.367C59.0257 104.189 58.4094 103.957 57.7549 103.65C56.4371 103.082 54.974 102.448 53.1724 102.263L53.1345 103.954C52.7955 103.677 52.3331 103.388 51.7838 103.089C51.5077 102.946 51.216 102.771 50.9065 102.597C50.5969 102.424 50.27 102.246 49.9308 102.066C49.7614 101.977 49.5886 101.886 49.4127 101.793C49.2403 101.692 49.065 101.589 48.8871 101.485C48.5346 101.279 48.1723 101.067 47.8029 100.851C47.4332 100.646 47.0724 100.398 46.7093 100.156C46.3502 99.913 45.9879 99.6676 45.626 99.4224C45.2716 99.1667 44.9305 98.8855 44.5934 98.6166C44.2593 98.3401 43.9259 98.0824 43.6203 97.7887C43.315 97.4944 43.0224 97.2005 42.7463 96.9079C42.4719 96.6119 42.2062 96.3341 41.98 96.0174C41.5208 95.3995 41.1376 94.802 40.8718 94.2054C40.6159 93.5901 40.4664 92.9964 40.4473 92.4283C40.1005 92.4148 39.8345 92.4154 39.6446 92.4158C39.4562 92.4133 39.3359 92.4241 39.2667 92.4474C39.1284 92.494 39.1962 92.5909 39.3281 92.7309C39.5934 93.0076 40.1411 93.4144 39.7848 93.978C39.4604 93.9172 39.1577 93.8505 38.8761 93.7777C38.6027 93.6911 38.3499 93.5998 38.1161 93.5048C37.6497 93.3129 37.2556 93.1126 36.9338 92.8888C36.3056 92.4165 35.9285 91.9096 35.6723 91.3857C35.4292 90.8431 35.3109 90.2756 35.165 89.7097C35.0945 89.4236 35.0103 89.1463 34.9167 88.8515C34.8248 88.5545 34.7102 88.2568 34.555 87.9591C33.1654 87.3131 33.4761 87.7897 33.904 88.4376C34.3241 89.0823 34.8629 89.9049 33.8413 89.8499C33.5 89.3415 33.1809 88.9517 32.8724 88.6444C32.5662 88.3351 32.2948 88.0821 32.0102 87.8981C31.729 87.7105 31.4494 87.5759 31.1652 87.4638C30.88 87.3531 30.6122 87.2437 30.3231 87.1393C30.0369 87.0321 29.7415 86.918 29.4326 86.767C29.2785 86.6914 29.1197 86.6076 28.9594 86.5091C28.8055 86.4048 28.6484 86.2872 28.4874 86.1528C28.1656 85.8841 27.8289 85.5479 27.476 85.1176C27.145 84.6698 26.8067 84.1206 26.4548 83.4553C26.6475 82.9432 27.0169 83.1441 27.4389 83.479C27.6502 83.6469 27.8755 83.8496 28.1002 84.0152C28.3229 84.1822 28.5499 84.3084 28.7709 84.3175C27.8056 83.8028 26.8114 82.9827 25.8978 81.912C24.9647 80.8546 24.119 79.5489 23.3294 78.1443C23.1274 77.7953 22.9612 77.4229 22.7743 77.0589C22.5964 76.6903 22.3989 76.328 22.2346 75.9486C22.0718 75.569 21.9083 75.1878 21.7449 74.8065L21.4965 74.2365L21.2788 73.6549C21.1306 73.2691 20.983 72.8842 20.8361 72.5016C20.7565 72.3125 20.694 72.118 20.6301 71.9249C20.5642 71.7322 20.4986 71.5403 20.4334 71.3492C20.2974 70.9687 20.1626 70.5914 20.0296 70.2189C19.9125 69.841 19.7914 69.4692 19.6652 69.1046C19.5411 68.224 19.5045 67.2759 19.4001 66.3114C19.3614 65.8259 19.3523 65.3258 19.3192 64.8238C19.3038 64.5731 19.2883 64.3201 19.2729 64.065C19.2701 63.8088 19.2674 63.5504 19.2644 63.2902C19.1922 61.2207 19.3122 59.0285 19.5691 56.84C19.601 56.5912 19.633 56.342 19.6652 56.0924C19.8704 55.8307 20.0641 55.6439 20.2216 55.7003C19.9419 55.653 19.8356 55.4085 19.8454 55.0369C19.8697 54.6693 20.0118 54.1764 20.2009 53.6321C20.2956 53.3598 20.4016 53.0746 20.5109 52.7851C20.6334 52.5004 20.7584 52.2107 20.881 51.9257C21.1274 51.3572 21.3339 50.7993 21.4749 50.3286C21.3696 50.1218 21.2661 49.9103 21.1619 49.7004C21.2489 49.4337 21.3413 49.1698 21.4493 48.9115C21.6443 48.4197 21.8204 47.9301 22.0256 47.4569C22.2454 46.9909 22.4631 46.53 22.6777 46.0749C22.6856 46.0588 22.693 46.0428 22.7008 46.0265C22.6392 46.1884 22.5797 46.3508 22.5238 46.5145C22.3015 47.1378 22.0552 47.7415 21.8369 48.3297C22.4814 47.8639 22.8386 47.1586 23.177 46.3352C23.346 45.9238 23.5537 45.5045 23.7789 45.0728C23.8308 44.976 23.8855 44.8791 23.9416 44.7823C23.9077 44.8177 23.8749 44.8501 23.8433 44.8776C23.6013 45.0906 23.4472 45.051 23.6051 44.4129C23.8236 44.1823 23.9998 43.9472 24.1755 43.7253C24.3502 43.503 24.5018 43.2813 24.6379 43.0601C24.9111 42.6184 25.1167 42.1742 25.3275 41.7372C25.5526 41.3091 25.773 40.8822 26.0443 40.4628C26.18 40.2532 26.3282 40.0455 26.4959 39.8409C26.6676 39.6391 26.87 39.4484 27.0923 39.2589C26.7423 39.893 26.451 40.5617 26.1444 41.2149C26.3371 41.25 26.5446 41.0086 26.7639 40.6379C26.8759 40.4539 26.9816 40.2309 27.1074 40.0056C27.2327 39.7795 27.3644 39.542 27.4944 39.3074C27.7576 38.839 28.0284 38.3882 28.2945 38.1109C28.5749 37.8437 28.8421 37.7463 29.0798 37.9643C29.6119 36.5542 29.0657 36.8047 28.5967 37.0105C28.1317 37.211 27.7468 37.3624 28.6901 35.6421C28.4309 36.0185 28.1753 36.3779 27.9221 36.723C27.6727 37.0708 27.4085 37.392 27.1821 37.7291C26.9481 38.0607 26.7153 38.3808 26.4826 38.6927C26.3653 38.8481 26.249 39.0018 26.1336 39.1547L25.9591 39.3817L25.7957 39.6139C25.6964 39.7552 25.5952 39.8917 25.495 40.0306C25.6589 39.6701 25.8187 39.3035 25.9811 38.9326C26.1645 38.5337 26.3817 38.1473 26.5941 37.7533C26.7023 37.5574 26.8133 37.3618 26.9283 37.1676C27.0489 36.9766 27.1851 36.7939 27.3197 36.6095C27.5943 36.2438 27.8791 35.8805 28.2075 35.5447C27.6316 35.8815 27.0614 36.2383 26.4709 36.5985C26.5573 36.0899 26.6786 35.6435 26.8222 35.2394C27.1976 34.9592 27.5651 34.706 27.9403 34.4653C28.392 34.176 28.8245 33.8771 29.2251 33.4949C29.6176 33.1047 30.0126 32.6632 30.3662 32.056C30.2057 32.2652 29.9507 32.5711 29.6918 32.7981C29.4309 33.0236 29.1864 33.1904 29.0058 33.0835C28.8501 32.8097 29.3828 31.9681 29.9598 31.0833C30.5275 31.121 31.0894 31.1642 31.6403 31.2171C32.1288 30.3884 32.2046 29.9213 32.1419 29.5561C32.3069 29.3786 32.4775 29.2016 32.6524 29.0263C33.2508 28.476 33.88 27.9429 34.4083 27.4584C35.4777 26.5516 36.1659 25.8213 35.4505 25.4421C34.9861 25.8361 34.5659 26.2052 34.2347 26.5213C34.1422 26.6098 34.0562 26.6941 33.9783 26.7743C33.9033 26.8582 33.8356 26.9369 33.7763 27.0104C33.6573 27.1573 33.5713 27.2825 33.5248 27.3816L33.5845 27.1279C33.5845 27.1279 33.18 27.6253 32.6662 28.3193C32.4606 28.5859 32.2527 28.8984 32.0475 29.2249C31.9694 29.0138 31.8646 28.8031 31.8313 28.5334C31.7979 28.26 31.8294 27.9183 32.0176 27.425C32.3303 27.3189 32.6469 27.1612 32.9638 26.9649C33.2954 26.7845 33.6279 26.5662 33.9569 26.321C34.5999 25.8128 35.2978 25.2806 35.9205 24.7087C36.0742 24.563 36.2364 24.4324 36.3939 24.3019C36.5502 24.1692 36.7032 24.0392 36.8521 23.9128C37.1479 23.6549 37.4267 23.4116 37.6789 23.1918C38.2038 22.78 38.6203 22.4531 38.8682 22.3169C39.41 22.4484 39.3493 22.8209 39.1579 23.2297C39.041 23.4781 38.8752 23.7394 38.7584 23.9742C38.7126 24.0032 38.6618 24.036 38.6027 24.0747C38.529 24.1243 38.4452 24.1806 38.3537 24.2422C38.2656 24.3091 38.1701 24.3815 38.0689 24.4584C37.8676 24.6132 37.6457 24.7872 37.4202 24.9691C37.1947 25.1508 36.9654 25.3403 36.749 25.5255C36.6419 25.6193 36.5371 25.711 36.4363 25.7991C36.3391 25.8914 36.2491 25.9839 36.1653 26.0707C35.8305 26.4192 35.6105 26.7 35.6298 26.8154C35.7975 26.7339 36.0018 26.5594 36.2254 26.3487C36.3361 26.2418 36.4534 26.1285 36.5731 26.0132C36.6967 25.9031 36.8231 25.7912 36.9495 25.685C37.4551 25.2596 37.962 24.921 38.2921 25.1304C38.907 24.7212 39.1305 24.5727 39.1212 24.5027C39.1153 24.4376 38.8922 24.4758 38.6612 24.5152C38.431 24.5556 38.2013 24.6094 38.1676 24.5442C38.139 24.4883 38.2701 24.329 38.7333 24.0271C38.6711 24.1592 38.626 24.282 38.6199 24.387C39.1596 23.8708 39.4996 23.394 39.7592 22.9388C40.0319 22.5056 40.2225 22.0929 40.4463 21.6777C40.5581 21.4705 40.6788 21.2627 40.8227 21.0523C40.965 20.8386 41.1454 20.65 41.3571 20.4431C41.5708 20.2396 41.8234 20.0324 42.1295 19.8191C42.4314 19.5968 42.8041 19.405 43.2434 19.2051L43.4992 19.6114C45.3137 18.0971 47.5171 16.8221 49.9623 15.8659C52.4098 14.9146 55.0894 14.2695 57.8587 13.9178C60.6309 13.5646 63.4888 13.4979 66.3087 13.6467C69.1323 13.7943 71.9259 14.1566 74.6574 14.6199C74.3199 14.4547 74.2213 14.3016 74.1842 14.1416C74.1478 13.9785 74.1762 13.8 74.0862 13.5921C76.9556 14.2906 79.8652 15.3421 82.6852 16.6675C85.5074 17.9919 88.2422 19.5835 90.823 21.3267C93.4086 23.0667 95.8494 24.9441 98.177 26.8135C100.501 28.688 102.702 30.5611 104.889 32.2793C104.641 31.9133 104.41 31.5156 104.152 31.1146C103.89 30.7163 103.628 30.2986 103.365 29.8637C103.235 29.6452 103.103 29.4235 102.969 29.1991C102.828 28.9795 102.685 28.7572 102.54 28.5323C102.252 28.0809 101.961 27.6153 101.668 27.1385C101.354 26.6752 101.035 26.2039 100.711 25.7265C100.548 25.4881 100.39 25.2424 100.219 25.0045C100.044 24.7701 99.8683 24.5344 99.6918 24.2977C99.5143 24.0608 99.3359 23.8228 99.1572 23.5839C98.9763 23.3464 98.8023 23.1012 98.6049 22.8755C98.2164 22.4171 97.8262 21.9568 97.4358 21.4961C97.2427 21.2627 97.033 21.0453 96.8226 20.8291L96.1904 20.1814C95.9774 19.9682 95.7645 19.7552 95.5524 19.5431C95.3375 19.3337 95.1071 19.1422 94.8842 18.9445C94.4334 18.5545 93.9837 18.1696 93.5253 17.8073C93.0529 17.4619 92.5788 17.1302 92.105 16.8162C91.8659 16.662 91.636 16.5 91.3898 16.3652C91.1448 16.2284 90.9002 16.0963 90.6563 15.9696C90.1668 15.7183 89.6856 15.4791 89.1969 15.2815C88.7006 15.0954 88.2085 14.9339 87.7228 14.8007C87.4799 14.734 87.2385 14.6745 86.9993 14.6224C86.76 14.5701 86.5121 14.5428 86.272 14.5136C86.0673 14.2165 85.8164 13.9478 85.5354 13.7018C85.2517 13.4606 84.9493 13.2203 84.6095 13.0382C83.9366 12.6611 83.2118 12.3368 82.5284 12.0465C81.8352 11.775 81.1961 11.5093 80.7094 11.1805C80.4682 11.0105 80.2539 10.8502 80.0939 10.6539C79.9334 10.4593 79.8229 10.2385 79.7752 9.9821C79.4832 9.8413 79.1953 9.70577 78.9107 9.57577C78.7682 9.5114 78.627 9.44768 78.4868 9.38459C78.3452 9.32615 78.2021 9.2745 78.0613 9.22093C77.4968 9.00983 76.9471 8.81777 76.4115 8.64267C76.1453 8.54993 75.8766 8.4805 75.6111 8.41592C75.346 8.34965 75.0843 8.2874 74.8258 8.22854C74.5668 8.17222 74.3115 8.11674 74.0597 8.06212C73.8077 8.00918 73.5588 7.95837 73.3079 7.92978C71.3151 7.63992 69.4893 7.60625 67.6951 7.71932C66.7965 7.78495 65.9125 7.82729 65.0093 7.95242C64.5587 8.00472 64.1058 8.05492 63.6476 8.10065C63.4188 8.11886 63.1877 8.15189 62.9548 8.18662C62.7225 8.21774 62.4879 8.24929 62.251 8.28127C61.7778 8.34161 61.2965 8.39622 60.8038 8.44301C60.3109 8.51563 59.807 8.58255 59.2881 8.63993C58.2485 8.72844 57.158 8.90416 55.9757 8.99097C55.2842 8.90057 55.0761 8.64438 54.98 8.29142C54.9785 8.28655 54.9776 8.28126 54.9763 8.27617C54.9763 8.28168 54.9772 8.28698 54.9768 8.29248C54.4199 8.51776 53.8726 8.72694 53.3329 8.92153C52.7972 9.1413 52.27 9.35389 51.7479 9.54889C51.4872 9.64396 51.2274 9.73861 50.9685 9.83304C50.7131 9.93594 50.4586 10.0386 50.2052 10.1407C49.6983 10.3399 49.195 10.5271 48.6943 10.7041C48.2003 10.908 47.7091 11.1026 47.2185 11.2878C46.9731 11.3785 46.7281 11.4691 46.4834 11.5595L45.761 11.858C45.2797 12.0543 44.7984 12.2434 44.3161 12.4272L42.8932 13.0393L42.1791 13.3376C41.9426 13.4412 41.7113 13.5576 41.4765 13.666C41.0076 13.8843 40.5375 14.103 40.0653 14.3228C39.601 14.5583 39.1407 14.8064 38.6745 15.0488C38.4418 15.1708 38.2087 15.2932 37.9747 15.416C37.7452 15.547 37.5191 15.6857 37.2902 15.8212C36.8339 16.095 36.3732 16.3679 35.9143 16.6519C35.4699 16.9587 35.0219 17.268 34.5694 17.5805C34.3469 17.7418 34.1133 17.8884 33.8991 18.066C33.6823 18.2394 33.4646 18.4137 33.2455 18.589C33.0284 18.766 32.8101 18.9441 32.5906 19.123L32.2628 19.3942L31.9482 19.6866C30.2124 21.188 27.8982 23.2215 27.0403 22.9043C27.9486 21.6362 26.6356 21.9418 27.2911 20.7607C26.3066 22.192 26.7794 22.7813 27.0243 23.4095C27.1472 23.7218 27.2135 24.0387 27.0475 24.4827C26.9628 24.7029 26.8167 24.9515 26.5846 25.2422C26.4686 25.3875 26.3307 25.5435 26.1681 25.7117C26.0855 25.7947 25.9983 25.8823 25.9064 25.9748C25.8173 26.0701 25.7218 26.169 25.6193 26.2715C25.0294 25.4802 24.4366 24.6701 23.8717 23.869C24.3618 25.6367 23.3042 26.5986 22.0658 27.747C21.4209 28.2967 20.7853 28.9257 20.2307 29.6247C20.0965 29.8023 19.9585 29.9783 19.8507 30.1739C19.7408 30.3683 19.6413 30.569 19.5549 30.7769C19.3826 31.1925 19.2635 31.6365 19.2235 32.1123C18.4018 32.3295 18.138 31.8781 18.2765 31.0655C18.3446 30.6596 18.5102 30.1642 18.7467 29.6225C18.8593 29.3479 19.0147 29.079 19.1769 28.7991C19.3404 28.5203 19.5185 28.2361 19.7076 27.9522C19.1611 28.5124 18.806 28.999 18.608 29.468C18.41 29.9376 18.3296 30.3638 18.2739 30.7778C18.2231 31.1947 18.1763 31.587 18.0975 32.0227C18.015 32.4566 17.8655 32.912 17.5549 33.4297C17.3855 32.8974 17.2204 32.3566 17.0603 31.8076L16.8235 30.9778L16.6182 30.1506C16.7431 31.0225 16.6844 31.7138 16.4304 32.2525C16.186 32.7958 15.7584 33.1942 15.3046 33.5495C14.3832 34.2474 13.1242 34.6632 12.4577 35.2205C12.6935 35.4308 13.3859 35.4068 13.8265 35.7141C14.0471 35.8667 14.2062 36.0999 14.2172 36.478C14.2227 36.6671 14.1911 36.8926 14.1117 37.163C14.0357 37.4348 13.8944 37.7446 13.7339 38.1263C12.9205 39.3334 12.6057 38.4276 12.1557 38.6142C12.4051 38.8121 12.6779 39.2955 12.7992 39.9756C12.9421 40.6652 12.958 41.5558 12.6402 42.5896C11.7211 42.7292 11.9222 40.8342 11.1722 40.4077C10.6437 42.0317 10.4591 43.402 9.45656 44.4251C9.44851 45.9883 9.75318 45.9962 10.1123 45.8829C10.4724 45.7652 10.887 45.5287 11.1237 46.4984C10.9241 47.0275 10.7282 47.4239 10.5599 47.7207C10.3833 48.0157 10.2029 48.2046 10.0189 48.3142C9.65072 48.5336 9.26707 48.4347 8.86478 48.2348C8.05851 47.8425 7.18322 47.0114 6.16267 47.7364C6.10021 47.2577 6.046 46.7599 6.01953 46.2549C6.00704 45.7529 6.00786 45.2407 6.01845 44.7264L6.04088 43.954C6.04956 43.6964 6.05996 43.4391 6.08854 43.1874C6.13703 42.6815 6.19079 42.181 6.24584 41.6929C6.33879 40.7113 6.51156 39.8028 6.62971 38.9936C6.69005 38.5892 6.74151 38.211 6.77962 37.8661C6.83001 37.5256 6.86876 37.219 6.88548 36.9508L6.63121 37.8356L6.41586 38.7319L5.99136 40.5178L5.65236 42.3192L5.48659 43.2168C5.43387 43.5162 5.40082 43.82 5.3572 44.1207C4.9348 43.7882 4.24967 44.896 3.6619 45.6159C3.36442 45.9733 3.12431 46.2373 2.91893 46.1503C2.81856 46.1071 2.73219 45.9771 2.66465 45.7288C2.60156 45.481 2.57169 45.1177 2.56788 44.6034C1.30384 48.2007 0.815342 52.4449 1.01014 56.5826C1.18947 60.7279 2.03664 64.7668 3.06883 68.2003C3.14463 67.6727 3.17705 67.0834 3.27105 66.6419C3.36866 66.1996 3.54711 65.9036 3.85942 65.9635C3.97989 66.4029 4.10422 66.7768 4.1798 67.1048C4.25878 67.4323 4.30555 67.7114 4.32651 67.9526C4.36822 68.4345 4.30639 68.7639 4.18973 69.0148C3.95577 69.517 3.52234 69.6957 3.25937 70.1406C3.89859 71.4044 4.59182 71.8505 5.35172 72.1315C6.11374 72.4106 6.90774 72.5387 7.72037 73.1254C7.72651 73.4692 7.7369 73.7951 7.75066 74.1044C7.77543 74.4104 7.80694 74.6988 7.83828 74.9736C7.9018 75.5228 7.97316 76.0144 8.04727 76.4652C8.11333 76.919 8.21918 77.3183 8.30832 77.7005C8.4 78.0828 8.48643 78.4428 8.57112 78.7966C8.65856 79.1504 8.71867 79.5099 8.80803 79.8697C8.89039 80.2326 8.96384 80.6118 9.02715 81.0283C9.09025 81.4447 9.143 81.8981 9.18471 82.4107C9.24314 82.915 9.29629 83.4755 9.33927 84.1189L10.6979 83.0984C10.8229 84.8718 11.5936 85.5475 12.3603 86.2093C12.5555 86.3743 12.7482 86.5417 12.947 86.7196C13.1498 86.8949 13.3495 87.0865 13.5403 87.312C13.7308 87.5375 13.9122 87.7967 14.0795 88.1083C14.2514 88.4168 14.3888 88.7916 14.5474 89.2123C14.5011 89.3027 14.396 89.3174 14.2491 89.2775C14.1003 89.239 13.9137 89.1431 13.7113 89.008C13.3014 88.7414 12.7992 88.3372 12.3382 87.9786C12.8805 88.5708 13.1744 89.0639 13.3484 89.5128C13.5335 89.9538 13.6048 90.3449 13.6738 90.7391C13.8193 91.5185 13.9497 92.3301 15.1869 93.351C14.687 93.2183 14.1833 93.08 13.6759 92.9365C13.1758 92.7874 12.6844 92.6233 12.1828 92.4586C12.3759 92.7154 12.5864 92.9824 12.803 93.2526C13.02 93.5223 13.2624 93.7806 13.4888 94.0432C13.9465 94.5649 14.3821 95.0718 14.7033 95.516C15.3738 96.3767 15.5904 97.007 14.5453 97.0206C15.1 97.2962 15.6548 97.6337 16.21 98.0201C16.781 98.3922 17.3616 98.8048 17.9407 99.2567C18.5155 99.7077 19.1147 100.177 19.7296 100.66C20.0309 100.904 20.336 101.152 20.6436 101.402C20.9443 101.658 21.2731 101.889 21.5875 102.137C21.9045 102.382 22.2231 102.629 22.5424 102.876C22.8604 103.124 23.1778 103.373 23.512 103.6C24.1719 104.065 24.8298 104.527 25.4868 104.963C26.1618 105.376 26.8323 105.77 27.4931 106.129C27.6589 106.218 27.8211 106.309 27.9881 106.39C28.1571 106.467 28.3246 106.544 28.4906 106.62C28.7807 106.749 29.0678 106.869 29.3522 106.983C29.3824 107.011 29.4131 107.039 29.4436 107.067L28.3886 108.057C28.8131 108.069 29.2679 108.166 29.7459 108.326C30.2236 108.487 30.7451 108.677 31.2732 108.925C31.4168 108.991 31.562 109.06 31.7079 109.131C31.8893 109.292 32.0738 109.456 32.2527 109.614C32.653 109.968 33.0721 110.285 33.4703 110.607C33.8737 110.922 34.2618 111.237 34.6563 111.516C35.4549 112.059 36.2089 112.554 36.929 112.922C37.1947 112.911 37.6387 112.986 37.764 112.906C37.8269 112.866 37.8104 112.788 37.6537 112.642C37.4985 112.494 37.1938 112.292 36.7134 111.953C37.1659 112.099 37.6279 112.297 38.0778 112.554C38.5275 112.812 38.9684 113.123 39.3999 113.46C39.8412 113.781 40.2777 114.12 40.6993 114.46C41.1225 114.796 41.5259 115.142 41.9313 115.415C41.3277 115.384 40.7439 115.302 40.143 115.235C42.6133 116.543 45.2905 118.071 48.0864 119.233C50.8702 120.405 53.7422 121.242 56.2976 121.408L55.4928 120.688C55.7881 120.735 56.082 120.785 56.3744 120.838C56.6683 120.883 56.9613 120.926 57.2531 120.97C57.8356 121.061 58.4104 121.162 58.9755 121.268C59.5434 121.356 60.1024 121.442 60.6484 121.527C60.9216 121.57 61.1915 121.614 61.4579 121.657C61.5911 121.678 61.7234 121.7 61.8547 121.721C61.9866 121.736 62.1174 121.751 62.2474 121.766C62.7679 121.824 63.2714 121.88 63.7543 121.933C64.2379 121.984 64.7016 122.031 65.1422 122.033C66.0228 122.053 66.8068 122.034 67.4583 121.935C65.7319 121.471 66.3472 121.35 67.4948 121.309C68.0703 121.264 68.7832 121.234 69.4141 121.197C69.7296 121.177 70.0246 121.161 70.2708 121.13C70.5171 121.095 70.715 121.057 70.8372 121.016C70.6197 121.011 70.3955 121.013 70.1662 121.015C69.9365 121.009 69.7016 121.006 69.4632 121.007C68.9864 121.009 68.4954 121.023 68.0031 121.047C67.5111 121.079 67.0177 121.083 66.5367 121.096C66.055 121.114 65.5865 121.131 65.1452 121.147C64.7029 121.174 64.2881 121.169 63.9144 121.169C63.54 121.166 63.2076 121.165 62.9307 121.163C62.5265 121.156 62.2436 121.141 62.1242 121.108L62.236 121.183C61.9713 121.189 61.708 121.178 61.4444 121.166L60.6522 121.132C60.1237 121.107 59.5929 121.09 59.0634 121.056L57.4771 120.908C56.9476 120.855 56.4144 120.815 55.8891 120.729L56.1214 119.988C55.9465 120.384 55.3429 120.417 54.5504 120.269C54.3524 120.232 54.1427 120.184 53.9255 120.128C53.7085 120.07 53.4879 119.988 53.2611 119.91C52.8088 119.748 52.3416 119.563 51.8885 119.38C51.6623 119.287 51.4375 119.202 51.2239 119.107C51.0106 119.01 50.8041 118.917 50.6083 118.829C50.216 118.655 49.8639 118.51 49.5774 118.418C49.0055 118.235 48.6915 118.266 48.8547 118.719C48.0012 118.454 47.4724 118.073 47.202 117.747C46.9324 117.415 46.9253 117.12 47.1131 116.974L46.5206 116.803L45.9377 116.607L44.7688 116.211C43.9807 115.961 43.2248 115.636 42.4522 115.337C42.1047 114.807 43.3893 114.605 43.868 114.912C44.0823 115.02 44.3123 115.139 44.5678 115.236C44.8228 115.336 45.0929 115.435 45.372 115.535C45.6508 115.636 45.9386 115.739 46.2301 115.844C46.5223 115.946 46.8115 116.065 47.1103 116.16C47.7029 116.361 48.2831 116.582 48.8067 116.842C48.9376 116.906 49.0648 116.974 49.188 117.044C49.3119 117.112 49.4341 117.175 49.5499 117.246C49.7824 117.386 49.9952 117.538 50.183 117.705C51.006 117.745 50.7235 117.429 50.6604 117.223C50.6282 117.119 50.6494 117.043 50.8849 117.05C51.0026 117.054 51.1737 117.078 51.4182 117.131C51.5406 117.157 51.6812 117.19 51.8427 117.231C52.0055 117.267 52.1904 117.308 52.3996 117.354C53.0617 117.659 53.7502 117.954 54.4621 118.209C55.1792 118.442 55.9143 118.657 56.6556 118.856C57.4007 119.038 58.1581 119.175 58.9084 119.319C59.0962 119.353 59.2834 119.391 59.4712 119.419C59.6596 119.444 59.8479 119.468 60.0353 119.493C60.4105 119.54 60.7833 119.586 61.1528 119.632C61.5229 119.673 61.8879 119.731 62.2517 119.757C62.6152 119.784 62.9745 119.811 63.3285 119.838C64.0368 119.889 64.7226 119.965 65.3827 119.986C66.0423 120.022 66.6735 120.069 67.2697 120.132C67.866 120.183 68.4275 120.226 68.9479 120.31C68.0063 120.07 67.0616 120.087 68.2348 119.653C69.1653 119.823 70.1076 120.026 71.0565 120.135C71.6346 120.05 72.1376 119.923 72.5918 119.787C73.046 119.65 73.4478 119.469 73.8321 119.33C74.5996 119.037 75.2899 118.867 76.148 118.941C76.4068 118.656 75.3778 118.742 74.0915 118.778C72.8103 118.865 71.2697 118.863 70.5344 118.763C71.0565 118.301 71.6053 118.105 72.1817 118.046C72.3257 118.031 72.4713 118.025 72.6185 118.026C72.7652 118.021 72.913 118.02 73.0623 118.025C73.3608 118.034 73.6646 118.061 73.9712 118.091C75.1967 118.237 76.4796 118.304 77.5084 117.451C77.9031 116.86 76.4675 117.186 75.1379 117.458C73.7951 117.665 72.5719 117.824 73.458 117.069L74.9933 116.989C75.5035 116.945 76.013 116.887 76.5245 116.836C75.9573 116.614 75.3746 116.603 74.7889 116.644C74.2029 116.679 73.6193 116.806 73.072 116.927C72.5262 117.059 72.0117 117.132 71.5814 117.123C71.1512 117.112 70.8048 117 70.5903 116.692C70.8602 116.57 71.2609 116.484 71.7163 116.427C71.9439 116.399 72.1855 116.377 72.4311 116.362C72.6758 116.338 72.9244 116.314 73.1681 116.298C74.141 116.228 75.0388 116.268 75.2211 116.326C75.6534 116.119 75.1967 116.007 74.8332 115.852C74.466 115.685 74.1978 115.508 74.9676 115.218C75.8503 115.328 76.4547 115.134 77.0066 114.955C77.5593 114.768 78.0539 114.562 78.782 114.695L78.1775 115.464C79.3941 115.19 82.5612 114.633 83.8572 113.938C84.0537 114.334 83.3283 114.945 82.3566 115.504C81.8648 115.76 81.3135 116.003 80.7962 116.203C80.5373 116.301 80.288 116.394 80.0571 116.464C79.8242 116.527 79.612 116.577 79.4322 116.611C80.7583 116.799 83.0427 115.921 84.2409 115.442L83.0691 115.666L82.4856 115.775L81.8957 115.858C82.1042 115.794 82.295 115.73 82.4708 115.665C82.6438 115.593 82.8015 115.521 82.9463 115.449C83.236 115.307 83.474 115.167 83.6787 115.03C84.0878 114.754 84.3656 114.494 84.6554 114.229C84.9411 113.953 85.2417 113.681 85.7028 113.403C85.9334 113.264 86.2042 113.123 86.5341 112.979C86.8631 112.834 87.2396 112.657 87.6991 112.485C89.1391 111.747 89.3938 111.798 89.4541 112.07C89.5117 112.337 89.3464 112.795 89.9026 112.718C90.6705 112.19 91.1209 111.881 91.3633 111.714C91.6013 111.542 91.625 111.5 91.5449 111.514C91.3859 111.546 90.7723 111.728 90.5255 111.365C91.1588 111.018 91.6555 110.711 92.1258 110.466C92.3597 110.342 92.5844 110.229 92.8073 110.119C93.0299 110.008 93.2538 109.906 93.4728 109.781C93.9157 109.54 94.3832 109.283 94.9361 108.951C95.0737 108.867 95.2192 108.782 95.3661 108.686C95.5103 108.584 95.6613 108.478 95.8201 108.367C96.1357 108.141 96.4792 107.888 96.8565 107.6C96.4531 107.977 96.1359 108.305 95.8571 108.602C95.7169 108.75 95.5897 108.894 95.4601 109.025C95.3292 109.153 95.2022 109.276 95.0731 109.396C94.8147 109.635 94.5478 109.861 94.2234 110.088C94.0612 110.202 93.8848 110.316 93.6883 110.432C93.4918 110.548 93.2649 110.65 93.0169 110.764C93.3244 110.846 93.636 110.929 93.947 111.005C94.5272 110.518 95.0525 110.033 95.5526 109.546C95.8071 109.309 96.0335 109.038 96.2685 108.782C96.4984 108.522 96.729 108.261 96.9624 107.997C97.4341 107.48 97.8692 106.896 98.3536 106.311C98.5914 106.013 98.8506 105.725 99.0981 105.402C99.3473 105.08 99.6084 104.752 99.8847 104.414L100.489 104.631C100.504 104.579 100.6 104.459 100.766 104.28C100.932 104.1 101.16 103.851 101.441 103.545C101.725 103.242 102.066 102.886 102.454 102.487C102.826 102.072 103.24 101.609 103.688 101.109C104.148 100.62 104.587 100.045 105.073 99.464C105.566 98.8887 106.032 98.2442 106.521 97.5908C107.023 96.9473 107.478 96.2406 107.954 95.5402C108.072 95.3646 108.191 95.1887 108.31 95.0123C108.427 94.8351 108.532 94.6494 108.644 94.4681C108.865 94.1035 109.085 93.7385 109.305 93.3745C109.414 93.1916 109.529 93.0131 109.63 92.8274C109.731 92.6409 109.831 92.4548 109.93 92.2695C110.129 91.8988 110.326 91.5306 110.522 91.1664C110.724 90.8067 110.888 90.4317 111.061 90.069C111.231 89.7052 111.399 89.3474 111.563 88.9968C112.181 87.5771 112.697 86.257 113.038 85.1286C113.218 84.5684 113.378 84.0656 113.472 83.6173C113.576 83.1727 113.653 82.7975 113.699 82.5036C113.787 81.9379 113.757 81.6791 113.582 81.803C113.605 81.814 113.556 82.0215 113.449 82.3874C113.386 82.6042 113.302 82.8754 113.202 83.1926C113.152 83.351 113.098 83.5212 113.04 83.7016C112.984 83.8826 112.921 84.0725 112.842 84.2675C112.691 84.6597 112.527 85.088 112.351 85.5441C112.262 85.7717 112.171 86.0061 112.077 86.2462C111.972 86.4814 111.864 86.7224 111.754 86.9678C111.532 87.4573 111.312 87.9703 111.068 88.4827C110.81 88.9887 110.547 89.5037 110.284 90.0192C110.019 90.5155 109.745 91.0085 109.469 91.4908C109.451 91.3752 109.433 91.2574 109.414 91.1427C109.449 91.0679 109.486 90.9909 109.523 90.911C109.602 90.7472 109.686 90.5725 109.774 90.3883C109.861 90.2034 109.941 90.0029 110.032 89.7984C110.212 89.3893 110.406 88.9472 110.609 88.4838C110.66 88.3679 110.715 88.2528 110.763 88.1329C110.81 88.0125 110.857 87.8909 110.905 87.7683C111.001 87.5238 111.098 87.2752 111.196 87.0243C111.39 86.5216 111.607 86.0183 111.773 85.4958C111.95 84.9794 112.127 84.4647 112.3 83.9635C112.465 83.4604 112.596 82.9614 112.737 82.4947C113.031 81.5644 113.213 80.7143 113.372 80.0731C113.45 79.7524 113.515 79.4818 113.566 79.273C113.606 79.0619 113.633 78.9137 113.647 78.8404C113.67 78.6931 113.648 78.8491 113.522 79.396C112.696 78.9236 113.709 77.2982 112.832 77.2065C112.907 76.6822 112.932 76.1728 112.984 75.6899C113.03 75.2056 113.091 74.7451 113.142 74.2996C113.178 73.852 113.22 73.4224 113.267 73.0068C113.293 72.7993 113.318 72.595 113.343 72.3936C113.356 72.2931 113.37 72.1931 113.383 72.094C113.392 71.9943 113.401 71.8954 113.41 71.797C113.478 71.0097 113.585 70.2655 113.665 69.5323C113.727 68.7982 113.8 68.0779 113.873 67.3455C113.213 70.3824 112.481 73.5217 111.493 76.7201C110.51 79.9173 109.289 83.1754 107.729 86.4122C107.709 86.5144 107.689 86.6148 107.67 86.7101C107.648 86.8043 107.63 86.8945 107.616 86.9777C107.588 87.1441 107.579 87.2826 107.599 87.3681C107.64 87.539 107.798 87.4986 108.17 87.0425C108.374 86.1259 108.702 85.5229 108.976 85.3192C109.248 85.1162 109.455 85.3118 109.38 86.0274C109.098 87.0082 108.969 86.8888 108.856 86.824C108.8 86.792 108.748 86.774 108.683 86.9148C108.624 87.0586 108.532 87.3495 108.395 87.9436C108.629 87.6347 108.884 87.3334 109.097 87.0107C108.992 87.2847 108.876 87.5339 108.773 87.7726C108.67 88.0114 108.577 88.2386 108.495 88.4569C108.412 88.6749 108.338 88.8841 108.273 89.0868C108.21 89.2903 108.152 89.4861 108.091 89.672C107.857 90.4215 107.76 91.119 107.698 91.9149C106.255 93.8094 104.819 95.7284 103.317 97.6202C101.825 99.5188 100.206 101.337 98.4944 103.023C97.6498 103.88 96.7377 104.649 95.841 105.418C94.906 106.135 93.9866 106.856 93.0076 107.449C92.0561 108.086 91.0432 108.583 90.0612 109.065C89.5551 109.279 89.0499 109.477 88.5481 109.661C88.2962 109.751 88.0491 109.846 87.795 109.92C87.5396 109.991 87.2851 110.059 87.0317 110.121L85.9315 111.116L84.7791 112.057C84.6497 111.914 84.4708 111.762 84.1737 111.732C84.0245 111.715 83.8483 111.735 83.6289 111.791C83.4079 111.842 83.1472 111.938 82.8356 112.095C83.0852 112.04 83.4147 111.945 83.6662 111.89C83.9156 111.828 84.0848 111.799 84.0249 111.907C83.7803 112.01 83.5265 112.088 83.2756 112.174L82.5218 112.429C82.0191 112.599 81.5195 112.778 81.0058 112.912L79.475 113.348C78.9622 113.484 78.4421 113.591 77.9261 113.714L78.6617 113.974C78.1351 113.967 77.5342 114.087 76.88 114.222C76.2232 114.342 75.5192 114.51 74.8069 114.668C74.0906 114.797 73.364 114.902 72.6786 114.95C72.3366 114.98 72.0013 114.961 71.6839 114.929C71.3663 114.896 71.0658 114.841 70.7889 114.756C70.7863 114.885 70.4404 115.026 70.1122 115.178C69.7847 115.334 69.4725 115.466 69.5517 115.649C67.3296 115.483 65.0433 115.395 62.7825 115.21C62.9434 115.11 63.1191 115.014 63.3099 114.924C63.6721 114.759 64.0838 114.578 64.5337 114.415C64.9836 114.251 65.4719 114.1 65.987 113.959C66.5032 113.83 67.0421 113.666 67.5974 113.519C68.1528 113.372 68.7237 113.234 69.2994 113.103C69.8715 112.949 70.4472 112.795 71.0167 112.652C71.5863 112.509 72.1506 112.379 72.6884 112.212C73.3549 112.094 74.0229 111.975 74.6922 111.856C75.3562 111.711 76.018 111.547 76.6831 111.387C77.014 111.302 77.3509 111.233 77.6778 111.132L78.6625 110.834L79.6484 110.531L80.1411 110.375L80.6264 110.198C81.2724 109.956 81.9194 109.715 82.5673 109.473C83.2066 109.209 83.8375 108.923 84.4723 108.644C85.1117 108.374 85.7272 108.053 86.3455 107.736C86.9614 107.415 87.589 107.114 88.1829 106.751L89.9807 105.691L91.7199 104.536L92.1528 104.245C92.2964 104.147 92.4334 104.039 92.5738 103.937L93.4095 103.312L94.2418 102.684C94.5183 102.474 94.7787 102.243 95.047 102.022C97.205 100.273 99.1718 98.3054 100.97 96.2295L101.639 95.4466L101.971 95.0551L102.286 94.6489C102.701 94.1059 103.116 93.5636 103.53 93.022C103.927 92.4685 104.304 91.9019 104.687 91.344C105.078 90.7918 105.425 90.2096 105.774 89.6337C106.496 88.4969 107.107 87.3002 107.732 86.1304C108.298 84.9241 108.886 83.7458 109.353 82.5195C109.475 82.2163 109.597 81.9137 109.718 81.6116C109.778 81.46 109.842 81.3111 109.896 81.1578L110.056 80.6967C110.265 80.0839 110.474 79.4733 110.682 78.8644C110.874 78.2512 111.039 77.631 111.214 77.0206C111.299 76.7142 111.388 76.4106 111.469 76.1046C111.539 75.7959 111.609 75.4877 111.679 75.18C112.277 72.7356 112.597 70.2797 112.807 67.8945C112.911 67.1884 112.907 66.3934 112.818 65.5519C112.778 65.2739 112.727 64.99 112.673 64.7039C112.743 64.8346 112.813 64.9616 112.882 65.083C113.11 65.5123 113.343 65.8818 113.58 66.1939C114.537 67.4389 115.539 67.784 116.607 67.3451C116.539 66.9845 116.471 66.6277 116.405 66.2754C116.565 66.3248 117.138 66.2068 116.975 65.0264ZM109.333 91.3127L109.236 91.8901C109.127 92.0769 109.018 92.2608 108.909 92.4431C108.851 92.4192 109.019 91.993 109.333 91.3127ZM106.823 95.649C106.634 95.9229 106.46 96.177 106.303 96.4051C106.096 96.6814 105.919 96.9213 105.779 97.1175C105.652 97.2939 105.557 97.4326 105.494 97.5327C105.632 97.2088 105.845 96.8705 106.118 96.5209C106.332 96.2435 106.568 95.9479 106.823 95.649ZM23.2488 44.6621C23.2465 44.668 23.2439 44.6741 23.2413 44.68L22.8598 44.4395C23.0159 44.2807 23.16 44.1183 23.2941 43.9523C23.433 43.788 23.5742 43.6248 23.6995 43.4552C23.7565 43.3794 23.8109 43.3027 23.8643 43.2255C23.7804 43.3989 23.6968 43.574 23.6204 43.7558C23.498 44.054 23.3739 44.3567 23.2488 44.6621Z" fill="white"/>
<path d="M92.2109 24.439L92.3738 24.3516C92.2764 24.3581 92.226 24.3895 92.2109 24.439Z" fill="white"/>
<path d="M73.7394 18.6423C74.1796 18.612 74.6168 18.6002 75.0477 18.6218C75.5626 18.6624 76.0714 18.7306 76.5745 18.8187C76.826 18.8627 77.0761 18.9118 77.3249 18.965C77.5722 19.0251 77.8163 19.099 78.0604 19.1706C78.5481 19.3167 79.031 19.4753 79.5116 19.6393C79.9914 19.8066 80.4591 20.0167 80.9326 20.2049C81.1684 20.3006 81.4047 20.3965 81.6417 20.4926L81.9972 20.6351L82.3484 20.7927C83.2864 21.2119 84.2489 21.5761 85.2352 21.9515C86.3015 22.0571 85.877 21.7973 85.166 21.4552C84.4632 21.0946 83.4505 20.7397 83.4058 20.5326C83.64 20.3107 83.8678 20.2769 84.0952 20.3415C84.3222 20.4075 84.5511 20.5629 84.7779 20.7531C85.2369 21.123 85.716 21.5284 86.3481 21.2746C86.4908 21.1086 86.3264 20.8725 85.9703 20.5921C85.7924 20.452 85.5665 20.301 85.3082 20.1422C85.0501 19.9823 84.7598 19.8142 84.4433 19.6658C83.814 19.359 83.1162 19.0306 82.4662 18.7272C81.8087 18.4475 81.2047 18.1744 80.7793 17.9241C80.5762 17.8818 80.3979 17.8487 80.2404 17.8242C80.0818 17.8041 79.9427 17.796 79.8214 17.7918C79.5779 17.7846 79.4013 17.803 79.2576 17.8405C78.9703 17.9152 78.8133 18.0649 78.5197 18.2373C78.4445 18.1018 78.2885 17.9681 78.0909 17.8354C77.8934 17.7033 77.6556 17.5659 77.4117 17.4513C76.9264 17.2116 76.4358 16.9713 76.2669 16.7069C75.8258 16.7149 75.4197 16.6808 75.0316 16.6622C74.6435 16.6427 74.2787 16.6044 73.9283 16.5536C73.5779 16.5028 73.242 16.439 72.913 16.3696C72.5848 16.2925 72.2594 16.2499 71.9361 16.1854C71.2882 16.07 70.639 15.9429 69.9356 15.8978C69.7199 15.8902 69.4969 15.8909 69.2699 15.8961C69.2695 15.8983 69.2567 15.8989 69.2306 15.8976C68.7286 15.9112 68.1986 15.9578 67.6238 16.0617C67.4798 15.973 67.4241 15.908 67.4288 15.8604C67.3487 15.861 67.2687 15.8604 67.1887 15.8621L67.3853 15.9597C66.7538 16.135 65.9945 16.237 65.1817 16.2857C64.8971 16.2961 64.606 16.3196 64.3125 16.3399C64.5674 16.3613 64.8173 16.3827 65.0625 16.4312C65.6553 16.5347 66.2174 16.6609 66.7525 16.7975C67.0201 16.868 67.281 16.9315 67.5355 17.0139C67.7889 17.1005 68.0375 17.1854 68.2816 17.269C68.7633 17.4378 69.228 17.6004 69.6801 17.7585C69.9045 17.8307 70.1241 17.9127 70.3405 17.9938C70.5571 18.0725 70.7705 18.1462 70.9818 18.2133C71.2018 18.283 71.4193 18.3452 71.6354 18.3988C71.6797 18.4373 71.6956 18.4843 71.671 18.5443C71.2317 18.7086 70.7226 18.6893 70.1982 18.5815C69.9365 18.5214 69.6695 18.4678 69.4074 18.3929C69.1451 18.3201 68.887 18.2366 68.6418 18.1543C68.1514 17.9902 67.7116 17.8273 67.4012 17.7659C67.0906 17.717 66.9106 17.7579 66.938 17.9764C67.3697 18.1507 67.9244 18.3063 68.5226 18.4162C68.8218 18.4716 69.1317 18.5184 69.4428 18.5597C69.5982 18.5792 69.754 18.5987 69.909 18.6182C70.0633 18.6434 70.2166 18.6683 70.368 18.6929C71.5768 18.8911 72.6437 19.0423 72.898 19.3777C73.4273 19.2324 72.0244 18.7545 73.4335 18.713C74.4862 18.9434 74.9196 19.1151 75.2341 19.3427C75.5495 19.5599 75.7538 19.7909 76.334 20.1248C76.7494 20.0061 77.1729 19.8716 77.5925 19.7797C77.5987 20.138 77.9823 20.4084 78.5925 20.6341C78.7452 20.6906 78.9122 20.7444 79.0911 20.796C79.2705 20.8469 79.4619 20.8955 79.6592 20.9582C80.0558 21.0755 80.4915 21.1894 80.9482 21.3044C81.1769 21.3616 81.4102 21.4198 81.6465 21.4787C81.7486 21.5068 81.8504 21.5375 81.9527 21.5687C80.51 20.8452 78.9751 20.196 77.3325 19.6086C76.1904 19.2413 74.9941 18.8998 73.7394 18.6423Z" fill="white"/>
<path d="M85.9919 22.9643C85.8574 23.0213 85.7234 23.0769 85.7768 23.1754C85.5485 23.0189 85.2944 22.8699 85.02 22.7251C84.629 22.525 84.2061 22.3168 83.7522 22.1519C83.2972 21.9899 82.8237 21.8375 82.352 21.6909C82.2186 21.6503 82.0857 21.609 81.9531 21.5684C82.1714 21.6778 82.3878 21.7888 82.6019 21.9016C83.009 22.111 83.4134 22.3191 83.8155 22.526C84.2087 22.7475 84.5995 22.9675 84.9889 23.1868C85.1835 23.2933 85.3778 23.3996 85.5718 23.5057L85.8629 23.662L86.1475 23.8303C86.5267 24.0545 86.9057 24.2724 87.2866 24.4831L87.607 24.6567C87.3031 24.0649 86.9288 23.4784 85.9919 22.9643Z" fill="white"/>
</svg>
